ISO-10303-21;
HEADER;
FILE_DESCRIPTION (( 'STEP AP214' ),
    '1' );
FILE_NAME ('AFBR-S4N66P024M Mount.STEP',
    '2026-01-09T11:17:35',
    ( '' ),
    ( '' ),
    'SwSTEP 2.0',
    'SolidWorks 2024',
    '' );
FILE_SCHEMA (( 'AUTOMOTIVE_DESIGN' ));
ENDSEC;

DATA;
#1 = EDGE_CURVE ( 'NONE', #1046, #42, #65, .T. ) ;
#2 = PLANE ( 'NONE',  #277 ) ;
#3 =( LENGTH_UNIT ( ) NAMED_UNIT ( * ) SI_UNIT ( .MILLI., .METRE. ) );
#4 = ORIENTED_EDGE ( 'NONE', *, *, #522, .F. ) ;
#5 = CARTESIAN_POINT ( 'NONE',  ( 0.000000000000000000, 0.000000000000000000, 0.1000000000000000056 ) ) ;
#6 = CARTESIAN_POINT ( 'NONE',  ( 3.299999999999999378, -1.199999999999998845, 0.1000000000000000056 ) ) ;
#7 = STYLED_ITEM ( 'NONE', ( #382 ), #161 ) ;
#8 = FACE_OUTER_BOUND ( 'NONE', #182, .T. ) ;
#9 =( NAMED_UNIT ( * ) PLANE_ANGLE_UNIT ( ) SI_UNIT ( $, .RADIAN. ) );
#10 = PRESENTATION_LAYER_ASSIGNMENT (  '', '', ( #873 ) ) ;
#11 = VECTOR ( 'NONE', #260, 1000.000000000000000 ) ;
#12 =( LENGTH_UNIT ( ) NAMED_UNIT ( * ) SI_UNIT ( .MILLI., .METRE. ) );
#13 = SURFACE_STYLE_USAGE ( .BOTH. , #546 ) ;
#14 = ORIENTED_EDGE ( 'NONE', *, *, #334, .F. ) ;
#15 =( NAMED_UNIT ( * ) SI_UNIT ( $, .STERADIAN. ) SOLID_ANGLE_UNIT ( ) );
#16 = SURFACE_STYLE_FILL_AREA ( #1059 ) ;
#17 = FILL_AREA_STYLE_COLOUR ( '', #224 ) ;
#18 = VECTOR ( 'NONE', #980, 1000.000000000000000 ) ;
#19 = DIRECTION ( 'NONE',  ( 1.000000000000000000, 2.168404344971007882E-16, -0.000000000000000000 ) ) ;
#20 = VECTOR ( 'NONE', #1042, 1000.000000000000000 ) ;
#21 = PRESENTATION_STYLE_ASSIGNMENT (( #13 ) ) ;
#22 = ORIENTED_EDGE ( 'NONE', *, *, #355, .F. ) ;
#23 = MECHANICAL_DESIGN_GEOMETRIC_PRESENTATION_REPRESENTATION (  '', ( #892 ), #324 ) ;
#24 = FACE_OUTER_BOUND ( 'NONE', #741, .T. ) ;
#25 = VECTOR ( 'NONE', #526, 1000.000000000000000 ) ;
#26 = UNCERTAINTY_MEASURE_WITH_UNIT (LENGTH_MEASURE( 1.000000000000000082E-05 ), #434, 'distance_accuracy_value', 'NONE');
#27 = DIRECTION ( 'NONE',  ( 0.000000000000000000, 0.000000000000000000, 1.000000000000000000 ) ) ;
#28 = DIRECTION ( 'NONE',  ( -1.000000000000000000, -1.084202172485504927E-16, 0.000000000000000000 ) ) ;
#29 = ORIENTED_EDGE ( 'NONE', *, *, #1112, .T. ) ;
#30 = EDGE_CURVE ( 'NONE', #651, #774, #683, .T. ) ;
#31 = FILL_AREA_STYLE ('',( #826 ) ) ;
#32 = CARTESIAN_POINT ( 'NONE',  ( -5.999999999999999112, -1.200000000000000178, 0.1000000000000000056 ) ) ;
#33 = STYLED_ITEM ( 'NONE', ( #639 ), #709 ) ;
#34 = VECTOR ( 'NONE', #1010, 1000.000000000000000 ) ;
#35 = DIRECTION ( 'NONE',  ( 0.000000000000000000, -0.000000000000000000, -1.000000000000000000 ) ) ;
#36 = CARTESIAN_POINT ( 'NONE',  ( 5.999999999999999112, -1.199999999999998623, 0.1000000000000000056 ) ) ;
#37 = VERTEX_POINT ( 'NONE', #771 ) ;
#38 = DIRECTION ( 'NONE',  ( 2.168404344971008868E-16, -1.000000000000000000, 0.000000000000000000 ) ) ;
#39 = LINE ( 'NONE', #274, #838 ) ;
#40 = SURFACE_STYLE_FILL_AREA ( #747 ) ;
#41 =( GEOMETRIC_REPRESENTATION_CONTEXT ( 3 ) GLOBAL_UNCERTAINTY_ASSIGNED_CONTEXT ( ( #26 ) ) GLOBAL_UNIT_ASSIGNED_CONTEXT ( ( #434, #880, #132 ) ) REPRESENTATION_CONTEXT ( 'NONE', 'WORKASPACE' ) );
#42 = VERTEX_POINT ( 'NONE', #948 ) ;
#43 = DIRECTION ( 'NONE',  ( 1.000000000000000000, 0.000000000000000000, 0.000000000000000000 ) ) ;
#44 =( NAMED_UNIT ( * ) SI_UNIT ( $, .STERADIAN. ) SOLID_ANGLE_UNIT ( ) );
#45 = EDGE_CURVE ( 'NONE', #149, #102, #419, .T. ) ;
#46 = MECHANICAL_DESIGN_GEOMETRIC_PRESENTATION_REPRESENTATION (  '', ( #1109 ), #573 ) ;
#47 = PRESENTATION_STYLE_ASSIGNMENT (( #570 ) ) ;
#48 = ORIENTED_EDGE ( 'NONE', *, *, #1028, .T. ) ;
#49 = LINE ( 'NONE', #926, #629 ) ;
#50 = VERTEX_POINT ( 'NONE', #608 ) ;
#51 = MECHANICAL_DESIGN_GEOMETRIC_PRESENTATION_REPRESENTATION (  '', ( #33 ), #947 ) ;
#52 = VERTEX_POINT ( 'NONE', #1031 ) ;
#53 = ADVANCED_FACE ( 'NONE', ( #71 ), #783, .F. ) ;
#54 = ADVANCED_BREP_SHAPE_REPRESENTATION ( 'AFBR-S4N66P024M Mount', ( #922, #1116 ), #1104 ) ;
#55 = SURFACE_STYLE_FILL_AREA ( #233 ) ;
#56 = CARTESIAN_POINT ( 'NONE',  ( 4.299999999999999822, -1.199999999999998623, 0.1000000000000000056 ) ) ;
#57 = ORIENTED_EDGE ( 'NONE', *, *, #45, .F. ) ;
#58 = EDGE_CURVE ( 'NONE', #790, #475, #768, .T. ) ;
#59 = DIRECTION ( 'NONE',  ( -2.168404344971008868E-16, -1.000000000000000000, 0.000000000000000000 ) ) ;
#60 = FILL_AREA_STYLE_COLOUR ( '', #158 ) ;
#61 = ORIENTED_EDGE ( 'NONE', *, *, #235, .T. ) ;
#62 = STYLED_ITEM ( 'NONE', ( #208 ), #717 ) ;
#63 = LINE ( 'NONE', #767, #20 ) ;
#64 = AXIS2_PLACEMENT_3D ( 'NONE', #782, #344, #115 ) ;
#65 = LINE ( 'NONE', #414, #679 ) ;
#66 = DIRECTION ( 'NONE',  ( 1.000000000000000000, 2.168404344971008868E-16, -0.000000000000000000 ) ) ;
#67 = UNCERTAINTY_MEASURE_WITH_UNIT (LENGTH_MEASURE( 1.000000000000000082E-05 ), #1144, 'distance_accuracy_value', 'NONE');
#68 = ORIENTED_EDGE ( 'NONE', *, *, #822, .T. ) ;
#69 = AXIS2_PLACEMENT_3D ( 'NONE', #509, #678, #1117 ) ;
#70 = CARTESIAN_POINT ( 'NONE',  ( 4.299999999999999822, 2.799999999999999378, 0.000000000000000000 ) ) ;
#71 = FACE_OUTER_BOUND ( 'NONE', #173, .T. ) ;
#72 = LINE ( 'NONE', #431, #513 ) ;
#73 = ORIENTED_EDGE ( 'NONE', *, *, #439, .F. ) ;
#74 = VECTOR ( 'NONE', #297, 1000.000000000000000 ) ;
#75 = PRESENTATION_LAYER_ASSIGNMENT (  '', '', ( #757 ) ) ;
#76 = SURFACE_STYLE_USAGE ( .BOTH. , #257 ) ;
#77 = UNCERTAINTY_MEASURE_WITH_UNIT (LENGTH_MEASURE( 1.000000000000000082E-05 ), #559, 'distance_accuracy_value', 'NONE');
#78 = SURFACE_STYLE_FILL_AREA ( #603 ) ;
#79 = VERTEX_POINT ( 'NONE', #1027 ) ;
#80 = FACE_BOUND ( 'NONE', #1072, .T. ) ;
#81 = DIRECTION ( 'NONE',  ( -1.000000000000000000, 0.000000000000000000, -0.000000000000000000 ) ) ;
#82 = COLOUR_RGB ( '',1.000000000000000000, 0.9098039215686274384, 0.2156862745098039325 ) ;
#83 = CARTESIAN_POINT ( 'NONE',  ( -4.299999999999999822, 2.799999999999998490, 0.000000000000000000 ) ) ;
#84 = VECTOR ( 'NONE', #646, 1000.000000000000000 ) ;
#85 = ORIENTED_EDGE ( 'NONE', *, *, #848, .F. ) ;
#86 = CARTESIAN_POINT ( 'NONE',  ( 4.299999999999999822, -1.199999999999998623, 0.000000000000000000 ) ) ;
#87 = FACE_BOUND ( 'NONE', #672, .T. ) ;
#88 = EDGE_CURVE ( 'NONE', #612, #774, #242, .T. ) ;
#89 = LINE ( 'NONE', #435, #735 ) ;
#90 = SURFACE_STYLE_USAGE ( .BOTH. , #615 ) ;
#91 = DIRECTION ( 'NONE',  ( 1.000000000000000000, 0.000000000000000000, 0.000000000000000000 ) ) ;
#92 = ORIENTED_EDGE ( 'NONE', *, *, #913, .F. ) ;
#93 = CARTESIAN_POINT ( 'NONE',  ( 4.999999999999999112, -1.199999999999998845, 0.1000000000000000056 ) ) ;
#94 =( NAMED_UNIT ( * ) SI_UNIT ( $, .STERADIAN. ) SOLID_ANGLE_UNIT ( ) );
#95 = STYLED_ITEM ( 'NONE', ( #1142 ), #922 ) ;
#96 = ADVANCED_FACE ( 'NONE', ( #179 ), #505, .F. ) ;
#97 = SURFACE_STYLE_USAGE ( .BOTH. , #808 ) ;
#98 = FILL_AREA_STYLE_COLOUR ( '', #104 ) ;
#99 = SURFACE_STYLE_FILL_AREA ( #921 ) ;
#100 = LINE ( 'NONE', #93, #221 ) ;
#101 = DIRECTION ( 'NONE',  ( 1.000000000000000000, 0.000000000000000000, 0.000000000000000000 ) ) ;
#102 = VERTEX_POINT ( 'NONE', #803 ) ;
#103 = SURFACE_SIDE_STYLE ('',( #16 ) ) ;
#104 = COLOUR_RGB ( '',1.000000000000000000, 0.9098039215686274384, 0.2156862745098039325 ) ;
#105 = FILL_AREA_STYLE_COLOUR ( '', #1115 ) ;
#106 = PRODUCT_CONTEXT ( 'NONE', #234, 'mechanical' ) ;
#107 = MECHANICAL_DESIGN_GEOMETRIC_PRESENTATION_REPRESENTATION (  '', ( #62 ), #237 ) ;
#108 = VECTOR ( 'NONE', #541, 1000.000000000000000 ) ;
#109 = UNCERTAINTY_MEASURE_WITH_UNIT (LENGTH_MEASURE( 1.000000000000000082E-05 ), #793, 'distance_accuracy_value', 'NONE');
#110 = LINE ( 'NONE', #619, #74 ) ;
#111 = VERTEX_POINT ( 'NONE', #193 ) ;
#112 =( NAMED_UNIT ( * ) SI_UNIT ( $, .STERADIAN. ) SOLID_ANGLE_UNIT ( ) );
#113 = PLANE ( 'NONE',  #934 ) ;
#114 =( NAMED_UNIT ( * ) PLANE_ANGLE_UNIT ( ) SI_UNIT ( $, .RADIAN. ) );
#115 = DIRECTION ( 'NONE',  ( -2.628368902995162518E-16, 1.000000000000000000, 0.000000000000000000 ) ) ;
#116 = VECTOR ( 'NONE', #284, 1000.000000000000000 ) ;
#117 = DIRECTION ( 'NONE',  ( -0.000000000000000000, -0.000000000000000000, -1.000000000000000000 ) ) ;
#118 = ADVANCED_FACE ( 'NONE', ( #8 ), #2, .T. ) ;
#119 = LINE ( 'NONE', #477, #823 ) ;
#120 = ORIENTED_EDGE ( 'NONE', *, *, #216, .T. ) ;
#121 = SURFACE_STYLE_USAGE ( .BOTH. , #302 ) ;
#122 = CARTESIAN_POINT ( 'NONE',  ( -3.299999999999999822, 2.799999999999998490, 0.000000000000000000 ) ) ;
#123 = UNCERTAINTY_MEASURE_WITH_UNIT (LENGTH_MEASURE( 1.000000000000000082E-05 ), #532, 'distance_accuracy_value', 'NONE');
#124 = SURFACE_SIDE_STYLE ('',( #912 ) ) ;
#125 = PLANE ( 'NONE',  #264 ) ;
#126 = ORIENTED_EDGE ( 'NONE', *, *, #189, .T. ) ;
#127 = CARTESIAN_POINT ( 'NONE',  ( 5.999999999999999112, -1.199999999999998623, 0.1000000000000000056 ) ) ;
#128 = MECHANICAL_DESIGN_GEOMETRIC_PRESENTATION_REPRESENTATION (  '', ( #699 ), #617 ) ;
#129 =( GEOMETRIC_REPRESENTATION_CONTEXT ( 3 ) GLOBAL_UNCERTAINTY_ASSIGNED_CONTEXT ( ( #641 ) ) GLOBAL_UNIT_ASSIGNED_CONTEXT ( ( #12, #535, #188 ) ) REPRESENTATION_CONTEXT ( 'NONE', 'WORKASPACE' ) );
#130 = ORIENTED_EDGE ( 'NONE', *, *, #1007, .F. ) ;
#131 = EDGE_CURVE ( 'NONE', #756, #52, #376, .T. ) ;
#132 =( NAMED_UNIT ( * ) SI_UNIT ( $, .STERADIAN. ) SOLID_ANGLE_UNIT ( ) );
#133 = FILL_AREA_STYLE_COLOUR ( '', #564 ) ;
#134 = VECTOR ( 'NONE', #228, 1000.000000000000000 ) ;
#135 = ORIENTED_EDGE ( 'NONE', *, *, #492, .F. ) ;
#136 = VECTOR ( 'NONE', #503, 1000.000000000000000 ) ;
#137 = FILL_AREA_STYLE ('',( #502 ) ) ;
#138 = STYLED_ITEM ( 'NONE', ( #1096 ), #940 ) ;
#139 = ORIENTED_EDGE ( 'NONE', *, *, #203, .T. ) ;
#140 = SURFACE_STYLE_FILL_AREA ( #930 ) ;
#141 = EDGE_CURVE ( 'NONE', #165, #876, #199, .T. ) ;
#142 = CARTESIAN_POINT ( 'NONE',  ( -6.800000000000001599, 3.299999999999999822, -1.399999999999999911 ) ) ;
#143 = FACE_OUTER_BOUND ( 'NONE', #223, .T. ) ;
#144 = ORIENTED_EDGE ( 'NONE', *, *, #1118, .F. ) ;
#145 = VECTOR ( 'NONE', #840, 1000.000000000000000 ) ;
#146 = FACE_OUTER_BOUND ( 'NONE', #618, .T. ) ;
#147 = MECHANICAL_DESIGN_GEOMETRIC_PRESENTATION_REPRESENTATION (  '', ( #792 ), #841 ) ;
#148 = EDGE_CURVE ( 'NONE', #111, #992, #545, .T. ) ;
#149 = VERTEX_POINT ( 'NONE', #1140 ) ;
#150 = VECTOR ( 'NONE', #852, 1000.000000000000000 ) ;
#151 = DIRECTION ( 'NONE',  ( -0.000000000000000000, -0.000000000000000000, -1.000000000000000000 ) ) ;
#152 = PRESENTATION_LAYER_ASSIGNMENT (  '', '', ( #504 ) ) ;
#153 = ORIENTED_EDGE ( 'NONE', *, *, #777, .F. ) ;
#154 = DIRECTION ( 'NONE',  ( -2.168404344971008868E-16, 1.000000000000000000, 0.000000000000000000 ) ) ;
#155 = DIRECTION ( 'NONE',  ( 1.000000000000000000, -2.168404344971008868E-16, 0.000000000000000000 ) ) ;
#156 =( NAMED_UNIT ( * ) PLANE_ANGLE_UNIT ( ) SI_UNIT ( $, .RADIAN. ) );
#157 = ORIENTED_EDGE ( 'NONE', *, *, #439, .T. ) ;
#158 = COLOUR_RGB ( '',1.000000000000000000, 0.9098039215686274384, 0.2156862745098039325 ) ;
#159 = FILL_AREA_STYLE ('',( #252 ) ) ;
#160 = VECTOR ( 'NONE', #38, 1000.000000000000000 ) ;
#161 = ADVANCED_FACE ( 'NONE', ( #24 ), #893, .T. ) ;
#162 = PLANE ( 'NONE',  #64 ) ;
#163 =( NAMED_UNIT ( * ) PLANE_ANGLE_UNIT ( ) SI_UNIT ( $, .RADIAN. ) );
#164 = UNCERTAINTY_MEASURE_WITH_UNIT (LENGTH_MEASURE( 1.000000000000000082E-05 ), #521, 'distance_accuracy_value', 'NONE');
#165 = VERTEX_POINT ( 'NONE', #280 ) ;
#166 = COLOUR_RGB ( '',1.000000000000000000, 0.9098039215686274384, 0.2156862745098039325 ) ;
#167 = PRESENTATION_STYLE_ASSIGNMENT (( #1143 ) ) ;
#168 = CARTESIAN_POINT ( 'NONE',  ( 6.799999999999999822, -3.299999999999999822, -1.399999999999999911 ) ) ;
#169 =( GEOMETRIC_REPRESENTATION_CONTEXT ( 3 ) GLOBAL_UNCERTAINTY_ASSIGNED_CONTEXT ( ( #1079 ) ) GLOBAL_UNIT_ASSIGNED_CONTEXT ( ( #225, #114, #469 ) ) REPRESENTATION_CONTEXT ( 'NONE', 'WORKASPACE' ) );
#170 = DIRECTION ( 'NONE',  ( 2.168404344971008868E-16, 1.000000000000000000, 0.000000000000000000 ) ) ;
#171 = DIRECTION ( 'NONE',  ( -2.168404344971008868E-16, 1.000000000000000000, 0.000000000000000000 ) ) ;
#172 = DIRECTION ( 'NONE',  ( 0.000000000000000000, -0.000000000000000000, 1.000000000000000000 ) ) ;
#173 = EDGE_LOOP ( 'NONE', ( #970, #4, #981, #933 ) ) ;
#174 = COLOUR_RGB ( '',1.000000000000000000, 0.9098039215686274384, 0.2156862745098039325 ) ;
#175 = CARTESIAN_POINT ( 'NONE',  ( 5.999999999999999112, -1.199999999999998623, 0.1000000000000000056 ) ) ;
#176 = VECTOR ( 'NONE', #620, 1000.000000000000000 ) ;
#177 =( NAMED_UNIT ( * ) SI_UNIT ( $, .STERADIAN. ) SOLID_ANGLE_UNIT ( ) );
#178 =( LENGTH_UNIT ( ) NAMED_UNIT ( * ) SI_UNIT ( .MILLI., .METRE. ) );
#179 = FACE_OUTER_BOUND ( 'NONE', #883, .T. ) ;
#180 = LINE ( 'NONE', #804, #463 ) ;
#181 = ADVANCED_FACE ( 'NONE', ( #623 ), #598, .F. ) ;
#182 = EDGE_LOOP ( 'NONE', ( #298, #910, #1040, #898 ) ) ;
#183 = STYLED_ITEM ( 'NONE', ( #1038 ), #53 ) ;
#184 = AXIS2_PLACEMENT_3D ( 'NONE', #563, #609, #986 ) ;
#185 = CARTESIAN_POINT ( 'NONE',  ( -6.800000000000000711, -3.299999999999999822, -1.399999999999999911 ) ) ;
#186 = CARTESIAN_POINT ( 'NONE',  ( 0.000000000000000000, 0.000000000000000000, 0.000000000000000000 ) ) ;
#187 = ORIENTED_EDGE ( 'NONE', *, *, #674, .F. ) ;
#188 =( NAMED_UNIT ( * ) SI_UNIT ( $, .STERADIAN. ) SOLID_ANGLE_UNIT ( ) );
#189 = EDGE_CURVE ( 'NONE', #50, #945, #286, .T. ) ;
#190 = DIRECTION ( 'NONE',  ( 0.000000000000000000, -1.000000000000000000, 0.000000000000000000 ) ) ;
#191 = STYLED_ITEM ( 'NONE', ( #1108 ), #508 ) ;
#192 = SURFACE_STYLE_USAGE ( .BOTH. , #539 ) ;
#193 = CARTESIAN_POINT ( 'NONE',  ( -3.299999999999999822, 2.799999999999998490, 0.1000000000000000056 ) ) ;
#194 = APPLICATION_PROTOCOL_DEFINITION ( 'draft international standard', 'automotive_design', 1998, #988 ) ;
#195 = UNCERTAINTY_MEASURE_WITH_UNIT (LENGTH_MEASURE( 1.000000000000000082E-05 ), #204, 'distance_accuracy_value', 'NONE');
#196 = ORIENTED_EDGE ( 'NONE', *, *, #148, .F. ) ;
#197 = DIRECTION ( 'NONE',  ( 0.000000000000000000, 1.000000000000000000, 0.000000000000000000 ) ) ;
#198 = VECTOR ( 'NONE', #797, 1000.000000000000000 ) ;
#199 = LINE ( 'NONE', #828, #1012 ) ;
#200 = CARTESIAN_POINT ( 'NONE',  ( -3.299999999999999378, -1.199999999999999734, 0.000000000000000000 ) ) ;
#201 = DIRECTION ( 'NONE',  ( -0.000000000000000000, -0.000000000000000000, -1.000000000000000000 ) ) ;
#202 = EDGE_LOOP ( 'NONE', ( #997, #858, #494, #644 ) ) ;
#203 = EDGE_CURVE ( 'NONE', #444, #651, #886, .T. ) ;
#204 =( LENGTH_UNIT ( ) NAMED_UNIT ( * ) SI_UNIT ( .MILLI., .METRE. ) );
#205 = MECHANICAL_DESIGN_GEOMETRIC_PRESENTATION_REPRESENTATION (  '', ( #920 ), #1025 ) ;
#206 = DIRECTION ( 'NONE',  ( -2.628368902995162518E-16, 1.000000000000000000, -0.000000000000000000 ) ) ;
#207 = SURFACE_STYLE_FILL_AREA ( #1091 ) ;
#208 = PRESENTATION_STYLE_ASSIGNMENT (( #816 ) ) ;
#209 = LINE ( 'NONE', #1081, #84 ) ;
#210 = STYLED_ITEM ( 'NONE', ( #21 ), #555 ) ;
#211 = SURFACE_STYLE_FILL_AREA ( #755 ) ;
#212 = ORIENTED_EDGE ( 'NONE', *, *, #1048, .F. ) ;
#213 = FILL_AREA_STYLE ('',( #891 ) ) ;
#214 = SURFACE_STYLE_FILL_AREA ( #654 ) ;
#215 = CARTESIAN_POINT ( 'NONE',  ( 4.299999999999999822, 2.799999999999999378, 0.1000000000000000056 ) ) ;
#216 = EDGE_CURVE ( 'NONE', #815, #393, #983, .T. ) ;
#217 = CARTESIAN_POINT ( 'NONE',  ( 4.299999999999999822, 2.799999999999999378, 0.1000000000000000056 ) ) ;
#218 = ORIENTED_EDGE ( 'NONE', *, *, #355, .T. ) ;
#219 = LINE ( 'NONE', #32, #440 ) ;
#220 = PRESENTATION_LAYER_ASSIGNMENT (  '', '', ( #1101 ) ) ;
#221 = VECTOR ( 'NONE', #552, 1000.000000000000000 ) ;
#222 =( GEOMETRIC_REPRESENTATION_CONTEXT ( 3 ) GLOBAL_UNCERTAINTY_ASSIGNED_CONTEXT ( ( #954 ) ) GLOBAL_UNIT_ASSIGNED_CONTEXT ( ( #506, #163, #860 ) ) REPRESENTATION_CONTEXT ( 'NONE', 'WORKASPACE' ) );
#223 = EDGE_LOOP ( 'NONE', ( #769, #524, #57, #836 ) ) ;
#224 = COLOUR_RGB ( '',1.000000000000000000, 0.9098039215686274384, 0.2156862745098039325 ) ;
#225 =( LENGTH_UNIT ( ) NAMED_UNIT ( * ) SI_UNIT ( .MILLI., .METRE. ) );
#226 = DIRECTION ( 'NONE',  ( 0.000000000000000000, 1.000000000000000000, 0.000000000000000000 ) ) ;
#227 = ORIENTED_EDGE ( 'NONE', *, *, #900, .T. ) ;
#228 = DIRECTION ( 'NONE',  ( -2.168404344971008868E-16, -1.000000000000000000, 0.000000000000000000 ) ) ;
#229 = VECTOR ( 'NONE', #601, 1000.000000000000000 ) ;
#230 = CARTESIAN_POINT ( 'NONE',  ( 4.299999999999999822, 2.799999999999999378, 0.1000000000000000056 ) ) ;
#231 = ORIENTED_EDGE ( 'NONE', *, *, #919, .F. ) ;
#232 = DIRECTION ( 'NONE',  ( 1.000000000000000000, 0.000000000000000000, 0.000000000000000000 ) ) ;
#233 = FILL_AREA_STYLE ('',( #591 ) ) ;
#234 = APPLICATION_CONTEXT ( 'automotive_design' ) ;
#235 = EDGE_CURVE ( 'NONE', #815, #149, #89, .T. ) ;
#236 = PLANE ( 'NONE',  #409 ) ;
#237 =( GEOMETRIC_REPRESENTATION_CONTEXT ( 3 ) GLOBAL_UNCERTAINTY_ASSIGNED_CONTEXT ( ( #261 ) ) GLOBAL_UNIT_ASSIGNED_CONTEXT ( ( #637, #730, #15 ) ) REPRESENTATION_CONTEXT ( 'NONE', 'WORKASPACE' ) );
#238 = PRESENTATION_LAYER_ASSIGNMENT (  '', '', ( #1014 ) ) ;
#239 = EDGE_LOOP ( 'NONE', ( #925, #874, #73, #867 ) ) ;
#240 = SURFACE_STYLE_USAGE ( .BOTH. , #1017 ) ;
#241 = LINE ( 'NONE', #863, #288 ) ;
#242 = LINE ( 'NONE', #56, #995 ) ;
#243 = LINE ( 'NONE', #772, #229 ) ;
#244 = ORIENTED_EDGE ( 'NONE', *, *, #791, .F. ) ;
#245 = PRESENTATION_LAYER_ASSIGNMENT (  '', '', ( #585 ) ) ;
#246 = DIRECTION ( 'NONE',  ( 1.000000000000000000, 0.000000000000000000, 0.000000000000000000 ) ) ;
#247 = CARTESIAN_POINT ( 'NONE',  ( -4.299999999999999822, 2.799999999999998490, 0.1000000000000000056 ) ) ;
#248 = LINE ( 'NONE', #784, #11 ) ;
#249 =( GEOMETRIC_REPRESENTATION_CONTEXT ( 3 ) GLOBAL_UNCERTAINTY_ASSIGNED_CONTEXT ( ( #77 ) ) GLOBAL_UNIT_ASSIGNED_CONTEXT ( ( #559, #315, #326 ) ) REPRESENTATION_CONTEXT ( 'NONE', 'WORKASPACE' ) );
#250 = ORIENTED_EDGE ( 'NONE', *, *, #492, .T. ) ;
#251 = EDGE_CURVE ( 'NONE', #149, #1046, #966, .T. ) ;
#252 = FILL_AREA_STYLE_COLOUR ( '', #470 ) ;
#253 = VERTEX_POINT ( 'NONE', #453 ) ;
#254 = VECTOR ( 'NONE', #1050, 1000.000000000000000 ) ;
#255 = FACE_BOUND ( 'NONE', #1030, .T. ) ;
#256 = COLOUR_RGB ( '',1.000000000000000000, 0.9098039215686274384, 0.2156862745098039325 ) ;
#257 = SURFACE_SIDE_STYLE ('',( #278 ) ) ;
#258 = PRODUCT_DEFINITION_SHAPE ( 'NONE', 'NONE',  #968 ) ;
#259 = LINE ( 'NONE', #703, #515 ) ;
#260 = DIRECTION ( 'NONE',  ( 1.000000000000000000, 2.168404344971008868E-16, -0.000000000000000000 ) ) ;
#261 = UNCERTAINTY_MEASURE_WITH_UNIT (LENGTH_MEASURE( 1.000000000000000082E-05 ), #637, 'distance_accuracy_value', 'NONE');
#262 = FILL_AREA_STYLE_COLOUR ( '', #82 ) ;
#263 = ORIENTED_EDGE ( 'NONE', *, *, #418, .F. ) ;
#264 = AXIS2_PLACEMENT_3D ( 'NONE', #290, #28, #627 ) ;
#265 = EDGE_CURVE ( 'NONE', #50, #815, #957, .T. ) ;
#266 = CARTESIAN_POINT ( 'NONE',  ( -5.000000000000000000, 2.799999999999999822, 0.000000000000000000 ) ) ;
#267 = DIRECTION ( 'NONE',  ( -1.000000000000000000, 2.168404344971008868E-16, 0.000000000000000000 ) ) ;
#268 = SURFACE_STYLE_USAGE ( .BOTH. , #1062 ) ;
#269 = ORIENTED_EDGE ( 'NONE', *, *, #348, .T. ) ;
#270 = DIRECTION ( 'NONE',  ( 0.000000000000000000, -0.000000000000000000, -1.000000000000000000 ) ) ;
#271 = FILL_AREA_STYLE_COLOUR ( '', #923 ) ;
#272 = SURFACE_SIDE_STYLE ('',( #640 ) ) ;
#273 = ADVANCED_FACE ( 'NONE', ( #973 ), #708, .F. ) ;
#274 = CARTESIAN_POINT ( 'NONE',  ( 5.999999999999999112, -1.199999999999998623, 0.1000000000000000056 ) ) ;
#275 = ORIENTED_EDGE ( 'NONE', *, *, #586, .T. ) ;
#276 = CARTESIAN_POINT ( 'NONE',  ( 5.000000000000000000, 2.800000000000001155, 0.1000000000000000056 ) ) ;
#277 = AXIS2_PLACEMENT_3D ( 'NONE', #1055, #907, #795 ) ;
#278 = SURFACE_STYLE_FILL_AREA ( #630 ) ;
#279 =( NAMED_UNIT ( * ) PLANE_ANGLE_UNIT ( ) SI_UNIT ( $, .RADIAN. ) );
#280 = CARTESIAN_POINT ( 'NONE',  ( -5.000000000000000000, 2.799999999999999822, 0.1000000000000000056 ) ) ;
#281 = DIRECTION ( 'NONE',  ( 0.000000000000000000, 0.000000000000000000, 1.000000000000000000 ) ) ;
#282 = VECTOR ( 'NONE', #360, 1000.000000000000000 ) ;
#283 = CARTESIAN_POINT ( 'NONE',  ( 3.299999999999998934, 2.799999999999999378, 0.1000000000000000056 ) ) ;
#284 = DIRECTION ( 'NONE',  ( 1.000000000000000000, 0.000000000000000000, 0.000000000000000000 ) ) ;
#285 = ORIENTED_EDGE ( 'NONE', *, *, #599, .T. ) ;
#286 = LINE ( 'NONE', #168, #1078 ) ;
#287 = SURFACE_SIDE_STYLE ('',( #296 ) ) ;
#288 = VECTOR ( 'NONE', #425, 1000.000000000000000 ) ;
#289 = LINE ( 'NONE', #650, #1103 ) ;
#290 = CARTESIAN_POINT ( 'NONE',  ( -3.299999999999999822, 2.799999999999998490, 0.1000000000000000056 ) ) ;
#291 = EDGE_LOOP ( 'NONE', ( #805, #397, #130, #48 ) ) ;
#292 = FACE_OUTER_BOUND ( 'NONE', #1141, .T. ) ;
#293 = AXIS2_PLACEMENT_3D ( 'NONE', #230, #576, #35 ) ;
#294 = VECTOR ( 'NONE', #906, 1000.000000000000000 ) ;
#295 = SURFACE_STYLE_FILL_AREA ( #732 ) ;
#296 = SURFACE_STYLE_FILL_AREA ( #464 ) ;
#297 = DIRECTION ( 'NONE',  ( -0.000000000000000000, 1.000000000000000000, -0.000000000000000000 ) ) ;
#298 = ORIENTED_EDGE ( 'NONE', *, *, #1, .F. ) ;
#299 = SURFACE_STYLE_FILL_AREA ( #720 ) ;
#300 = EDGE_LOOP ( 'NONE', ( #861, #416, #61, #1139 ) ) ;
#301 =( LENGTH_UNIT ( ) NAMED_UNIT ( * ) SI_UNIT ( .MILLI., .METRE. ) );
#302 = SURFACE_SIDE_STYLE ('',( #386 ) ) ;
#303 = EDGE_CURVE ( 'NONE', #628, #561, #614, .T. ) ;
#304 = MECHANICAL_DESIGN_GEOMETRIC_PRESENTATION_REPRESENTATION (  '', ( #488 ), #41 ) ;
#305 = SURFACE_SIDE_STYLE ('',( #211 ) ) ;
#306 = SURFACE_STYLE_USAGE ( .BOTH. , #655 ) ;
#307 = MECHANICAL_DESIGN_GEOMETRIC_PRESENTATION_REPRESENTATION (  '', ( #504 ), #222 ) ;
#308 = EDGE_CURVE ( 'NONE', #37, #1053, #209, .T. ) ;
#309 = PRESENTATION_STYLE_ASSIGNMENT (( #493 ) ) ;
#310 =( NAMED_UNIT ( * ) PLANE_ANGLE_UNIT ( ) SI_UNIT ( $, .RADIAN. ) );
#311 = VERTEX_POINT ( 'NONE', #1074 ) ;
#312 =( NAMED_UNIT ( * ) SI_UNIT ( $, .STERADIAN. ) SOLID_ANGLE_UNIT ( ) );
#313 = PLANE ( 'NONE',  #69 ) ;
#314 = COLOUR_RGB ( '',1.000000000000000000, 0.9098039215686274384, 0.2156862745098039325 ) ;
#315 =( NAMED_UNIT ( * ) PLANE_ANGLE_UNIT ( ) SI_UNIT ( $, .RADIAN. ) );
#316 = VERTEX_POINT ( 'NONE', #468 ) ;
#317 = DIRECTION ( 'NONE',  ( -0.000000000000000000, 0.000000000000000000, 1.000000000000000000 ) ) ;
#318 = DIRECTION ( 'NONE',  ( 0.000000000000000000, 0.000000000000000000, -1.000000000000000000 ) ) ;
#319 =( GEOMETRIC_REPRESENTATION_CONTEXT ( 3 ) GLOBAL_UNCERTAINTY_ASSIGNED_CONTEXT ( ( #778 ) ) GLOBAL_UNIT_ASSIGNED_CONTEXT ( ( #467, #474, #835 ) ) REPRESENTATION_CONTEXT ( 'NONE', 'WORKASPACE' ) );
#320 = ORIENTED_EDGE ( 'NONE', *, *, #1048, .T. ) ;
#321 = STYLED_ITEM ( 'NONE', ( #167 ), #454 ) ;
#322 = ADVANCED_FACE ( 'NONE', ( #292 ), #113, .F. ) ;
#323 = DIRECTION ( 'NONE',  ( -0.000000000000000000, -0.000000000000000000, -1.000000000000000000 ) ) ;
#324 =( GEOMETRIC_REPRESENTATION_CONTEXT ( 3 ) GLOBAL_UNCERTAINTY_ASSIGNED_CONTEXT ( ( #342 ) ) GLOBAL_UNIT_ASSIGNED_CONTEXT ( ( #849, #853, #834 ) ) REPRESENTATION_CONTEXT ( 'NONE', 'WORKASPACE' ) );
#325 = MECHANICAL_DESIGN_GEOMETRIC_PRESENTATION_REPRESENTATION (  '', ( #675 ), #635 ) ;
#326 =( NAMED_UNIT ( * ) SI_UNIT ( $, .STERADIAN. ) SOLID_ANGLE_UNIT ( ) );
#327 = ORIENTED_EDGE ( 'NONE', *, *, #1112, .F. ) ;
#328 = FILL_AREA_STYLE_COLOUR ( '', #653 ) ;
#329 =( NAMED_UNIT ( * ) SI_UNIT ( $, .STERADIAN. ) SOLID_ANGLE_UNIT ( ) );
#330 = FACE_OUTER_BOUND ( 'NONE', #451, .T. ) ;
#331 = AXIS2_PLACEMENT_3D ( 'NONE', #959, #955, #172 ) ;
#332 = EDGE_LOOP ( 'NONE', ( #275, #666, #231, #547 ) ) ;
#333 = CARTESIAN_POINT ( 'NONE',  ( -6.800000000000001599, 3.299999999999999822, -1.399999999999999911 ) ) ;
#334 = EDGE_CURVE ( 'NONE', #165, #253, #396, .T. ) ;
#335 = CARTESIAN_POINT ( 'NONE',  ( -6.800000000000001599, 3.299999999999999822, 0.000000000000000000 ) ) ;
#336 = ORIENTED_EDGE ( 'NONE', *, *, #839, .T. ) ;
#337 = MECHANICAL_DESIGN_GEOMETRIC_PRESENTATION_REPRESENTATION (  '', ( #585 ), #353 ) ;
#338 = PRESENTATION_STYLE_ASSIGNMENT (( #794 ) ) ;
#339 = DIRECTION ( 'NONE',  ( 1.314184451497581259E-16, -1.000000000000000000, 0.000000000000000000 ) ) ;
#340 = CARTESIAN_POINT ( 'NONE',  ( -3.299999999999999822, 2.799999999999998490, 0.000000000000000000 ) ) ;
#341 = COLOUR_RGB ( '',0.7921568627450980005, 0.8196078431372548767, 0.9333333333333333481 ) ;
#342 = UNCERTAINTY_MEASURE_WITH_UNIT (LENGTH_MEASURE( 1.000000000000000082E-05 ), #849, 'distance_accuracy_value', 'NONE');
#343 = ORIENTED_EDGE ( 'NONE', *, *, #395, .F. ) ;
#344 = DIRECTION ( 'NONE',  ( 1.000000000000000000, 2.628368902995162518E-16, -0.000000000000000000 ) ) ;
#345 = SURFACE_SIDE_STYLE ('',( #1133 ) ) ;
#346 = SURFACE_SIDE_STYLE ('',( #935 ) ) ;
#347 = ORIENTED_EDGE ( 'NONE', *, *, #1065, .F. ) ;
#348 = EDGE_CURVE ( 'NONE', #79, #411, #219, .T. ) ;
#349 = CARTESIAN_POINT ( 'NONE',  ( 4.999999999999999112, -1.199999999999998845, 0.1000000000000000056 ) ) ;
#350 = CARTESIAN_POINT ( 'NONE',  ( 5.000000000000000000, 2.800000000000001155, 0.1000000000000000056 ) ) ;
#351 = FILL_AREA_STYLE_COLOUR ( '', #610 ) ;
#352 = ORIENTED_EDGE ( 'NONE', *, *, #674, .T. ) ;
#353 =( GEOMETRIC_REPRESENTATION_CONTEXT ( 3 ) GLOBAL_UNCERTAINTY_ASSIGNED_CONTEXT ( ( #443 ) ) GLOBAL_UNIT_ASSIGNED_CONTEXT ( ( #412, #583, #312 ) ) REPRESENTATION_CONTEXT ( 'NONE', 'WORKASPACE' ) );
#354 = CARTESIAN_POINT ( 'NONE',  ( -6.800000000000001599, 3.299999999999999822, -1.399999999999999911 ) ) ;
#355 = EDGE_CURVE ( 'NONE', #111, #587, #1089, .T. ) ;
#356 = FILL_AREA_STYLE ('',( #456 ) ) ;
#357 = EDGE_LOOP ( 'NONE', ( #507, #785, #796, #577 ) ) ;
#358 = SURFACE_STYLE_FILL_AREA ( #159 ) ;
#359 = FILL_AREA_STYLE_COLOUR ( '', #432 ) ;
#360 = DIRECTION ( 'NONE',  ( 1.000000000000000000, 0.000000000000000000, 0.000000000000000000 ) ) ;
#361 = DIRECTION ( 'NONE',  ( 0.000000000000000000, -1.000000000000000000, 0.000000000000000000 ) ) ;
#362 = DIRECTION ( 'NONE',  ( -0.000000000000000000, -0.000000000000000000, -1.000000000000000000 ) ) ;
#363 = ORIENTED_EDGE ( 'NONE', *, *, #982, .F. ) ;
#364 = DIRECTION ( 'NONE',  ( -1.000000000000000000, -0.000000000000000000, -0.000000000000000000 ) ) ;
#365 = PRESENTATION_LAYER_ASSIGNMENT (  '', '', ( #699 ) ) ;
#366 = DIRECTION ( 'NONE',  ( -0.000000000000000000, 0.000000000000000000, 1.000000000000000000 ) ) ;
#367 = SURFACE_STYLE_USAGE ( .BOTH. , #287 ) ;
#368 =( GEOMETRIC_REPRESENTATION_CONTEXT ( 3 ) GLOBAL_UNCERTAINTY_ASSIGNED_CONTEXT ( ( #1064 ) ) GLOBAL_UNIT_ASSIGNED_CONTEXT ( ( #178, #533, #449 ) ) REPRESENTATION_CONTEXT ( 'NONE', 'WORKASPACE' ) );
#369 = EDGE_CURVE ( 'NONE', #914, #992, #403, .T. ) ;
#370 = CARTESIAN_POINT ( 'NONE',  ( 4.299999999999999822, -1.199999999999998623, 0.1000000000000000056 ) ) ;
#371 = DIRECTION ( 'NONE',  ( -1.000000000000000000, 0.000000000000000000, 0.000000000000000000 ) ) ;
#372 = EDGE_LOOP ( 'NONE', ( #690, #285, #543, #1057 ) ) ;
#373 = FILL_AREA_STYLE ('',( #749 ) ) ;
#374 = DIRECTION ( 'NONE',  ( 0.000000000000000000, 0.000000000000000000, 1.000000000000000000 ) ) ;
#375 = CARTESIAN_POINT ( 'NONE',  ( 4.299999999999999822, -1.199999999999998623, 0.1000000000000000056 ) ) ;
#376 = LINE ( 'NONE', #733, #917 ) ;
#377 = CARTESIAN_POINT ( 'NONE',  ( 6.799999999999998046, 3.299999999999999822, 0.000000000000000000 ) ) ;
#378 = CARTESIAN_POINT ( 'NONE',  ( 0.000000000000000000, 0.000000000000000000, -1.399999999999999911 ) ) ;
#379 = ORIENTED_EDGE ( 'NONE', *, *, #131, .T. ) ;
#380 = VECTOR ( 'NONE', #1066, 1000.000000000000000 ) ;
#381 = VECTOR ( 'NONE', #447, 1000.000000000000000 ) ;
#382 = PRESENTATION_STYLE_ASSIGNMENT (( #727 ) ) ;
#383 = SURFACE_SIDE_STYLE ('',( #299 ) ) ;
#384 = CARTESIAN_POINT ( 'NONE',  ( 4.299999999999999822, 2.799999999999999378, 0.000000000000000000 ) ) ;
#385 = ORIENTED_EDGE ( 'NONE', *, *, #885, .F. ) ;
#386 = SURFACE_STYLE_FILL_AREA ( #31 ) ;
#387 = ADVANCED_FACE ( 'NONE', ( #1083 ), #313, .F. ) ;
#388 =( GEOMETRIC_REPRESENTATION_CONTEXT ( 3 ) GLOBAL_UNCERTAINTY_ASSIGNED_CONTEXT ( ( #164 ) ) GLOBAL_UNIT_ASSIGNED_CONTEXT ( ( #521, #156, #436 ) ) REPRESENTATION_CONTEXT ( 'NONE', 'WORKASPACE' ) );
#389 = DIRECTION ( 'NONE',  ( -1.084202172485504927E-16, 1.000000000000000000, -0.000000000000000000 ) ) ;
#390 = MECHANICAL_DESIGN_GEOMETRIC_PRESENTATION_REPRESENTATION (  '', ( #855 ), #129 ) ;
#391 = PRODUCT_DEFINITION_CONTEXT ( 'detailed design', #988, 'design' ) ;
#392 = CARTESIAN_POINT ( 'NONE',  ( 4.299999999999999822, 2.799999999999999378, 0.1000000000000000056 ) ) ;
#393 = VERTEX_POINT ( 'NONE', #1022 ) ;
#394 = FACE_OUTER_BOUND ( 'NONE', #832, .T. ) ;
#395 = EDGE_CURVE ( 'NONE', #253, #79, #941, .T. ) ;
#396 = LINE ( 'NONE', #1000, #145 ) ;
#397 = ORIENTED_EDGE ( 'NONE', *, *, #900, .F. ) ;
#398 = SURFACE_STYLE_FILL_AREA ( #137 ) ;
#399 = PRESENTATION_LAYER_ASSIGNMENT (  '', '', ( #892 ) ) ;
#400 = FILL_AREA_STYLE_COLOUR ( '', #1145 ) ;
#401 = ORIENTED_EDGE ( 'NONE', *, *, #141, .T. ) ;
#402 = CARTESIAN_POINT ( 'NONE',  ( 5.999999999999999112, -1.199999999999998623, 0.000000000000000000 ) ) ;
#403 = LINE ( 'NONE', #122, #580 ) ;
#404 = MECHANICAL_DESIGN_GEOMETRIC_PRESENTATION_REPRESENTATION (  '', ( #1101 ), #869 ) ;
#405 =( GEOMETRIC_REPRESENTATION_CONTEXT ( 3 ) GLOBAL_UNCERTAINTY_ASSIGNED_CONTEXT ( ( #989 ) ) GLOBAL_UNIT_ASSIGNED_CONTEXT ( ( #1075, #279, #726 ) ) REPRESENTATION_CONTEXT ( 'NONE', 'WORKASPACE' ) );
#406 = EDGE_CURVE ( 'NONE', #1023, #475, #63, .T. ) ;
#407 = FILL_AREA_STYLE_COLOUR ( '', #1004 ) ;
#408 = ORIENTED_EDGE ( 'NONE', *, *, #606, .T. ) ;
#409 = AXIS2_PLACEMENT_3D ( 'NONE', #378, #729, #101 ) ;
#410 = SURFACE_STYLE_FILL_AREA ( #924 ) ;
#411 = VERTEX_POINT ( 'NONE', #574 ) ;
#412 =( LENGTH_UNIT ( ) NAMED_UNIT ( * ) SI_UNIT ( .MILLI., .METRE. ) );
#413 = SURFACE_SIDE_STYLE ('',( #55 ) ) ;
#414 = CARTESIAN_POINT ( 'NONE',  ( -6.800000000000001599, 3.299999999999999822, 0.000000000000000000 ) ) ;
#415 = CARTESIAN_POINT ( 'NONE',  ( 4.299999999999999822, 2.799999999999999378, 0.1000000000000000056 ) ) ;
#416 = ORIENTED_EDGE ( 'NONE', *, *, #216, .F. ) ;
#417 =( LENGTH_UNIT ( ) NAMED_UNIT ( * ) SI_UNIT ( .MILLI., .METRE. ) );
#418 = EDGE_CURVE ( 'NONE', #1034, #1110, #241, .T. ) ;
#419 = LINE ( 'NONE', #333, #254 ) ;
#420 = PLANE ( 'NONE',  #682 ) ;
#421 = VECTOR ( 'NONE', #117, 1000.000000000000000 ) ;
#422 = UNCERTAINTY_MEASURE_WITH_UNIT (LENGTH_MEASURE( 1.000000000000000082E-05 ), #3, 'distance_accuracy_value', 'NONE');
#423 = VECTOR ( 'NONE', #19, 1000.000000000000000 ) ;
#424 = ORIENTED_EDGE ( 'NONE', *, *, #308, .F. ) ;
#425 = DIRECTION ( 'NONE',  ( 0.000000000000000000, -1.000000000000000000, 0.000000000000000000 ) ) ;
#426 = FILL_AREA_STYLE_COLOUR ( '', #314 ) ;
#427 = CARTESIAN_POINT ( 'NONE',  ( 6.000000000000000000, 2.800000000000001155, 0.000000000000000000 ) ) ;
#428 = ORIENTED_EDGE ( 'NONE', *, *, #203, .F. ) ;
#429 = SURFACE_SIDE_STYLE ('',( #358 ) ) ;
#430 = DIRECTION ( 'NONE',  ( 1.000000000000000000, 2.168404344971007882E-16, -0.000000000000000000 ) ) ;
#431 = CARTESIAN_POINT ( 'NONE',  ( 4.299999999999999822, 2.799999999999999378, 0.000000000000000000 ) ) ;
#432 = COLOUR_RGB ( '',1.000000000000000000, 0.9098039215686274384, 0.2156862745098039325 ) ;
#433 = ORIENTED_EDGE ( 'NONE', *, *, #189, .F. ) ;
#434 =( LENGTH_UNIT ( ) NAMED_UNIT ( * ) SI_UNIT ( .MILLI., .METRE. ) );
#435 = CARTESIAN_POINT ( 'NONE',  ( -6.800000000000001599, 3.299999999999999822, -1.399999999999999911 ) ) ;
#436 =( NAMED_UNIT ( * ) SI_UNIT ( $, .STERADIAN. ) SOLID_ANGLE_UNIT ( ) );
#437 = CARTESIAN_POINT ( 'NONE',  ( -4.299999999999999822, 2.799999999999998490, 0.1000000000000000056 ) ) ;
#438 = ORIENTED_EDGE ( 'NONE', *, *, #857, .T. ) ;
#439 = EDGE_CURVE ( 'NONE', #790, #628, #1037, .T. ) ;
#440 = VECTOR ( 'NONE', #1094, 1000.000000000000000 ) ;
#441 =( NAMED_UNIT ( * ) PLANE_ANGLE_UNIT ( ) SI_UNIT ( $, .RADIAN. ) );
#442 =( NAMED_UNIT ( * ) SI_UNIT ( $, .STERADIAN. ) SOLID_ANGLE_UNIT ( ) );
#443 = UNCERTAINTY_MEASURE_WITH_UNIT (LENGTH_MEASURE( 1.000000000000000082E-05 ), #412, 'distance_accuracy_value', 'NONE');
#444 = VERTEX_POINT ( 'NONE', #1123 ) ;
#445 = DIRECTION ( 'NONE',  ( 1.000000000000000000, 1.084202172485504927E-16, -0.000000000000000000 ) ) ;
#446 = MECHANICAL_DESIGN_GEOMETRIC_PRESENTATION_REPRESENTATION (  '', ( #191 ), #537 ) ;
#447 = DIRECTION ( 'NONE',  ( 0.000000000000000000, 0.000000000000000000, 1.000000000000000000 ) ) ;
#448 = PRESENTATION_STYLE_ASSIGNMENT (( #90 ) ) ;
#449 =( NAMED_UNIT ( * ) SI_UNIT ( $, .STERADIAN. ) SOLID_ANGLE_UNIT ( ) );
#450 =( NAMED_UNIT ( * ) SI_UNIT ( $, .STERADIAN. ) SOLID_ANGLE_UNIT ( ) );
#451 = EDGE_LOOP ( 'NONE', ( #1102, #1122, #343, #701 ) ) ;
#452 = VECTOR ( 'NONE', #714, 1000.000000000000000 ) ;
#453 = CARTESIAN_POINT ( 'NONE',  ( -6.000000000000000000, 2.799999999999999822, 0.1000000000000000056 ) ) ;
#454 = ADVANCED_FACE ( 'NONE', ( #692 ), #605, .F. ) ;
#455 = PRESENTATION_STYLE_ASSIGNMENT (( #97 ) ) ;
#456 = FILL_AREA_STYLE_COLOUR ( '', #512 ) ;
#457 = LINE ( 'NONE', #530, #462 ) ;
#458 = LINE ( 'NONE', #217, #818 ) ;
#459 = ORIENTED_EDGE ( 'NONE', *, *, #647, .T. ) ;
#460 = MECHANICAL_DESIGN_GEOMETRIC_PRESENTATION_REPRESENTATION (  '', ( #183 ), #388 ) ;
#461 = PLANE ( 'NONE',  #663 ) ;
#462 = VECTOR ( 'NONE', #728, 1000.000000000000000 ) ;
#463 = VECTOR ( 'NONE', #91, 1000.000000000000000 ) ;
#464 = FILL_AREA_STYLE ('',( #105 ) ) ;
#465 = PRESENTATION_LAYER_ASSIGNMENT (  '', '', ( #1015 ) ) ;
#466 = LINE ( 'NONE', #856, #634 ) ;
#467 =( LENGTH_UNIT ( ) NAMED_UNIT ( * ) SI_UNIT ( .MILLI., .METRE. ) );
#468 = CARTESIAN_POINT ( 'NONE',  ( -6.000000000000000000, 2.799999999999999822, 0.000000000000000000 ) ) ;
#469 =( NAMED_UNIT ( * ) SI_UNIT ( $, .STERADIAN. ) SOLID_ANGLE_UNIT ( ) );
#470 = COLOUR_RGB ( '',0.3294117647058823484, 0.5921568627450980449, 0.000000000000000000 ) ;
#471 = UNCERTAINTY_MEASURE_WITH_UNIT (LENGTH_MEASURE( 1.000000000000000082E-05 ), #581, 'distance_accuracy_value', 'NONE');
#472 = FILL_AREA_STYLE_COLOUR ( '', #341 ) ;
#473 = ADVANCED_FACE ( 'NONE', ( #1036, #518, #80, #87, #255 ), #525, .T. ) ;
#474 =( NAMED_UNIT ( * ) PLANE_ANGLE_UNIT ( ) SI_UNIT ( $, .RADIAN. ) );
#475 = VERTEX_POINT ( 'NONE', #569 ) ;
#476 = VECTOR ( 'NONE', #1090, 1000.000000000000000 ) ;
#477 = CARTESIAN_POINT ( 'NONE',  ( 6.000000000000000000, 2.800000000000001155, 0.000000000000000000 ) ) ;
#478 = ORIENTED_EDGE ( 'NONE', *, *, #303, .T. ) ;
#479 = EDGE_CURVE ( 'NONE', #1107, #889, #49, .T. ) ;
#480 = AXIS2_PLACEMENT_3D ( 'NONE', #961, #267, #1044 ) ;
#481 = PRESENTATION_LAYER_ASSIGNMENT (  '', '', ( #33 ) ) ;
#482 =( GEOMETRIC_REPRESENTATION_CONTEXT ( 3 ) GLOBAL_UNCERTAINTY_ASSIGNED_CONTEXT ( ( #422 ) ) GLOBAL_UNIT_ASSIGNED_CONTEXT ( ( #3, #9, #44 ) ) REPRESENTATION_CONTEXT ( 'NONE', 'WORKASPACE' ) );
#483 = PLANE ( 'NONE',  #293 ) ;
#484 = VECTOR ( 'NONE', #1126, 1000.000000000000000 ) ;
#485 = CARTESIAN_POINT ( 'NONE',  ( -5.999999999999999112, -1.200000000000000178, 0.000000000000000000 ) ) ;
#486 = ORIENTED_EDGE ( 'NONE', *, *, #58, .F. ) ;
#487 = PRESENTATION_STYLE_ASSIGNMENT (( #268 ) ) ;
#488 = STYLED_ITEM ( 'NONE', ( #597 ), #473 ) ;
#489 = ORIENTED_EDGE ( 'NONE', *, *, #868, .T. ) ;
#490 = DIRECTION ( 'NONE',  ( -0.000000000000000000, 0.000000000000000000, 1.000000000000000000 ) ) ;
#491 = VECTOR ( 'NONE', #607, 1000.000000000000000 ) ;
#492 = EDGE_CURVE ( 'NONE', #889, #651, #686, .T. ) ;
#493 = SURFACE_STYLE_USAGE ( .BOTH. , #124 ) ;
#494 = ORIENTED_EDGE ( 'NONE', *, *, #395, .T. ) ;
#495 =( NAMED_UNIT ( * ) SI_UNIT ( $, .STERADIAN. ) SOLID_ANGLE_UNIT ( ) );
#496 = ORIENTED_EDGE ( 'NONE', *, *, #579, .F. ) ;
#497 = CARTESIAN_POINT ( 'NONE',  ( 5.000000000000000000, 2.800000000000001155, 0.000000000000000000 ) ) ;
#498 = MECHANICAL_DESIGN_GEOMETRIC_PRESENTATION_REPRESENTATION (  '', ( #602 ), #952 ) ;
#499 = LINE ( 'NONE', #437, #877 ) ;
#500 = VERTEX_POINT ( 'NONE', #402 ) ;
#501 = EDGE_CURVE ( 'NONE', #475, #311, #1024, .T. ) ;
#502 = FILL_AREA_STYLE_COLOUR ( '', #689 ) ;
#503 = DIRECTION ( 'NONE',  ( 2.168404344971008868E-16, -1.000000000000000000, 0.000000000000000000 ) ) ;
#504 = STYLED_ITEM ( 'NONE', ( #1039 ), #1033 ) ;
#505 = PLANE ( 'NONE',  #1060 ) ;
#506 =( LENGTH_UNIT ( ) NAMED_UNIT ( * ) SI_UNIT ( .MILLI., .METRE. ) );
#507 = ORIENTED_EDGE ( 'NONE', *, *, #1088, .F. ) ;
#508 = ADVANCED_FACE ( 'NONE', ( #673 ), #572, .T. ) ;
#509 = CARTESIAN_POINT ( 'NONE',  ( 6.000000000000000000, 2.800000000000001155, 0.1000000000000000056 ) ) ;
#510 = LINE ( 'NONE', #266, #950 ) ;
#511 = PLANE ( 'NONE',  #1006 ) ;
#512 = COLOUR_RGB ( '',0.3294117647058823484, 0.5921568627450980449, 0.000000000000000000 ) ;
#513 = VECTOR ( 'NONE', #688, 1000.000000000000000 ) ;
#514 = ORIENTED_EDGE ( 'NONE', *, *, #1007, .T. ) ;
#515 = VECTOR ( 'NONE', #246, 1000.000000000000000 ) ;
#516 = CARTESIAN_POINT ( 'NONE',  ( -4.299999999999999822, 2.799999999999998490, 0.000000000000000000 ) ) ;
#517 = ORIENTED_EDGE ( 'NONE', *, *, #1088, .T. ) ;
#518 = FACE_BOUND ( 'NONE', #357, .T. ) ;
#519 = COLOUR_RGB ( '',1.000000000000000000, 0.9098039215686274384, 0.2156862745098039325 ) ;
#520 = SURFACE_STYLE_USAGE ( .BOTH. , #103 ) ;
#521 =( LENGTH_UNIT ( ) NAMED_UNIT ( * ) SI_UNIT ( .MILLI., .METRE. ) );
#522 = EDGE_CURVE ( 'NONE', #1021, #1023, #761, .T. ) ;
#523 = CARTESIAN_POINT ( 'NONE',  ( 6.000000000000000000, 2.800000000000001155, 0.1000000000000000056 ) ) ;
#524 = ORIENTED_EDGE ( 'NONE', *, *, #647, .F. ) ;
#525 = PLANE ( 'NONE',  #937 ) ;
#526 = DIRECTION ( 'NONE',  ( -2.628368902995162518E-16, 1.000000000000000000, -0.000000000000000000 ) ) ;
#527 =( NAMED_UNIT ( * ) SI_UNIT ( $, .STERADIAN. ) SOLID_ANGLE_UNIT ( ) );
#528 = LINE ( 'NONE', #894, #108 ) ;
#529 = EDGE_LOOP ( 'NONE', ( #844, #760, #244, #269 ) ) ;
#530 = CARTESIAN_POINT ( 'NONE',  ( -5.999999999999999112, -1.200000000000000178, 0.1000000000000000056 ) ) ;
#531 = PRESENTATION_LAYER_ASSIGNMENT (  '', '', ( #62 ) ) ;
#532 =( LENGTH_UNIT ( ) NAMED_UNIT ( * ) SI_UNIT ( .MILLI., .METRE. ) );
#533 =( NAMED_UNIT ( * ) PLANE_ANGLE_UNIT ( ) SI_UNIT ( $, .RADIAN. ) );
#534 = ORIENTED_EDGE ( 'NONE', *, *, #369, .T. ) ;
#535 =( NAMED_UNIT ( * ) PLANE_ANGLE_UNIT ( ) SI_UNIT ( $, .RADIAN. ) );
#536 = ADVANCED_FACE ( 'NONE', ( #146 ), #667, .F. ) ;
#537 =( GEOMETRIC_REPRESENTATION_CONTEXT ( 3 ) GLOBAL_UNCERTAINTY_ASSIGNED_CONTEXT ( ( #1052 ) ) GLOBAL_UNIT_ASSIGNED_CONTEXT ( ( #417, #660, #1099 ) ) REPRESENTATION_CONTEXT ( 'NONE', 'WORKASPACE' ) );
#538 = PRESENTATION_STYLE_ASSIGNMENT (( #76 ) ) ;
#539 = SURFACE_SIDE_STYLE ('',( #295 ) ) ;
#540 =( NAMED_UNIT ( * ) PLANE_ANGLE_UNIT ( ) SI_UNIT ( $, .RADIAN. ) );
#541 = DIRECTION ( 'NONE',  ( -1.000000000000000000, -0.000000000000000000, -0.000000000000000000 ) ) ;
#542 = LINE ( 'NONE', #1058, #380 ) ;
#543 = ORIENTED_EDGE ( 'NONE', *, *, #982, .T. ) ;
#544 = DIRECTION ( 'NONE',  ( 0.000000000000000000, 0.000000000000000000, -1.000000000000000000 ) ) ;
#545 = LINE ( 'NONE', #809, #421 ) ;
#546 = SURFACE_SIDE_STYLE ('',( #207 ) ) ;
#547 = ORIENTED_EDGE ( 'NONE', *, *, #88, .T. ) ;
#548 = CLOSED_SHELL ( 'NONE', ( #473, #680, #161, #118, #940, #551, #536, #273, #1002, #709, #508, #555, #96, #1100, #750, #717, #1033, #962, #766, #697, #181, #53, #387, #616, #454, #322 ) ) ;
#549 = AXIS2_PLACEMENT_3D ( 'NONE', #375, #819, #1061 ) ;
#550 = PLANE ( 'NONE',  #549 ) ;
#551 = ADVANCED_FACE ( 'NONE', ( #143 ), #236, .F. ) ;
#552 = DIRECTION ( 'NONE',  ( -0.000000000000000000, -0.000000000000000000, -1.000000000000000000 ) ) ;
#553 = ORIENTED_EDGE ( 'NONE', *, *, #369, .F. ) ;
#554 = CARTESIAN_POINT ( 'NONE',  ( 0.000000000000000000, 0.000000000000000000, 0.1000000000000000056 ) ) ;
#555 = ADVANCED_FACE ( 'NONE', ( #831 ), #125, .F. ) ;
#556 = DIRECTION ( 'NONE',  ( 0.000000000000000000, -0.000000000000000000, 1.000000000000000000 ) ) ;
#557 = SURFACE_SIDE_STYLE ('',( #214 ) ) ;
#558 = PRODUCT_RELATED_PRODUCT_CATEGORY ( 'part', '', ( #1131 ) ) ;
#559 =( LENGTH_UNIT ( ) NAMED_UNIT ( * ) SI_UNIT ( .MILLI., .METRE. ) );
#560 = SURFACE_SIDE_STYLE ('',( #78 ) ) ;
#561 = VERTEX_POINT ( 'NONE', #36 ) ;
#562 = PRESENTATION_LAYER_ASSIGNMENT (  '', '', ( #183 ) ) ;
#563 = CARTESIAN_POINT ( 'NONE',  ( -4.299999999999999822, 2.799999999999998490, 0.1000000000000000056 ) ) ;
#564 = COLOUR_RGB ( '',1.000000000000000000, 0.9098039215686274384, 0.2156862745098039325 ) ;
#565 = FILL_AREA_STYLE ('',( #400 ) ) ;
#566 = AXIS2_PLACEMENT_3D ( 'NONE', #710, #155, #170 ) ;
#567 = ORIENTED_EDGE ( 'NONE', *, *, #501, .F. ) ;
#568 = EDGE_CURVE ( 'NONE', #411, #52, #897, .T. ) ;
#569 = CARTESIAN_POINT ( 'NONE',  ( 5.000000000000000000, 2.800000000000001155, 0.000000000000000000 ) ) ;
#570 = SURFACE_STYLE_USAGE ( .BOTH. , #764 ) ;
#571 = EDGE_LOOP ( 'NONE', ( #719, #854, #153, #139 ) ) ;
#572 = PLANE ( 'NONE',  #1092 ) ;
#573 =( GEOMETRIC_REPRESENTATION_CONTEXT ( 3 ) GLOBAL_UNCERTAINTY_ASSIGNED_CONTEXT ( ( #833 ) ) GLOBAL_UNIT_ASSIGNED_CONTEXT ( ( #1029, #589, #1045 ) ) REPRESENTATION_CONTEXT ( 'NONE', 'WORKASPACE' ) );
#574 = CARTESIAN_POINT ( 'NONE',  ( -5.999999999999999112, -1.200000000000000178, 0.000000000000000000 ) ) ;
#575 =( GEOMETRIC_REPRESENTATION_CONTEXT ( 3 ) GLOBAL_UNCERTAINTY_ASSIGNED_CONTEXT ( ( #67 ) ) GLOBAL_UNIT_ASSIGNED_CONTEXT ( ( #1144, #724, #715 ) ) REPRESENTATION_CONTEXT ( 'NONE', 'WORKASPACE' ) );
#576 = DIRECTION ( 'NONE',  ( 0.000000000000000000, -1.000000000000000000, 0.000000000000000000 ) ) ;
#577 = ORIENTED_EDGE ( 'NONE', *, *, #737, .F. ) ;
#578 = CARTESIAN_POINT ( 'NONE',  ( 3.299999999999998934, 2.799999999999999378, 0.000000000000000000 ) ) ;
#579 = EDGE_CURVE ( 'NONE', #500, #1023, #119, .T. ) ;
#580 = VECTOR ( 'NONE', #389, 1000.000000000000000 ) ;
#581 =( LENGTH_UNIT ( ) NAMED_UNIT ( * ) SI_UNIT ( .MILLI., .METRE. ) );
#582 = EDGE_LOOP ( 'NONE', ( #320, #707, #596, #408 ) ) ;
#583 =( NAMED_UNIT ( * ) PLANE_ANGLE_UNIT ( ) SI_UNIT ( $, .RADIAN. ) );
#584 = FILL_AREA_STYLE ('',( #351 ) ) ;
#585 = STYLED_ITEM ( 'NONE', ( #754 ), #536 ) ;
#586 = EDGE_CURVE ( 'NONE', #774, #656, #904, .T. ) ;
#587 = VERTEX_POINT ( 'NONE', #991 ) ;
#588 = SURFACE_SIDE_STYLE ('',( #694 ) ) ;
#589 =( NAMED_UNIT ( * ) PLANE_ANGLE_UNIT ( ) SI_UNIT ( $, .RADIAN. ) );
#590 = ORIENTED_EDGE ( 'NONE', *, *, #1082, .F. ) ;
#591 = FILL_AREA_STYLE_COLOUR ( '', #631 ) ;
#592 = FILL_AREA_STYLE ('',( #271 ) ) ;
#593 =( GEOMETRIC_REPRESENTATION_CONTEXT ( 3 ) GLOBAL_UNCERTAINTY_ASSIGNED_CONTEXT ( ( #195 ) ) GLOBAL_UNIT_ASSIGNED_CONTEXT ( ( #204, #887, #1001 ) ) REPRESENTATION_CONTEXT ( 'NONE', 'WORKASPACE' ) );
#594 = VECTOR ( 'NONE', #734, 1000.000000000000000 ) ;
#595 = PRODUCT_DEFINITION_FORMATION_WITH_SPECIFIED_SOURCE ( 'Symmetric', '', #1131, .NOT_KNOWN. ) ;
#596 = ORIENTED_EDGE ( 'NONE', *, *, #599, .F. ) ;
#597 = PRESENTATION_STYLE_ASSIGNMENT (( #798 ) ) ;
#598 = PLANE ( 'NONE',  #987 ) ;
#599 = EDGE_CURVE ( 'NONE', #956, #1107, #643, .T. ) ;
#600 =( LENGTH_UNIT ( ) NAMED_UNIT ( * ) SI_UNIT ( .MILLI., .METRE. ) );
#601 = DIRECTION ( 'NONE',  ( 0.000000000000000000, -1.000000000000000000, 0.000000000000000000 ) ) ;
#602 = STYLED_ITEM ( 'NONE', ( #47 ), #551 ) ;
#603 = FILL_AREA_STYLE ('',( #262 ) ) ;
#604 = ORIENTED_EDGE ( 'NONE', *, *, #658, .F. ) ;
#605 = PLANE ( 'NONE',  #731 ) ;
#606 = EDGE_CURVE ( 'NONE', #956, #656, #458, .T. ) ;
#607 = DIRECTION ( 'NONE',  ( 0.000000000000000000, 0.000000000000000000, 1.000000000000000000 ) ) ;
#608 = CARTESIAN_POINT ( 'NONE',  ( 6.799999999999999822, -3.299999999999999822, -1.399999999999999911 ) ) ;
#609 = DIRECTION ( 'NONE',  ( 1.000000000000000000, 0.000000000000000000, -0.000000000000000000 ) ) ;
#610 = COLOUR_RGB ( '',1.000000000000000000, 0.9098039215686274384, 0.2156862745098039325 ) ;
#611 = UNCERTAINTY_MEASURE_WITH_UNIT (LENGTH_MEASURE( 1.000000000000000082E-05 ), #638, 'distance_accuracy_value', 'NONE');
#612 = VERTEX_POINT ( 'NONE', #736 ) ;
#613 =( LENGTH_UNIT ( ) NAMED_UNIT ( * ) SI_UNIT ( .MILLI., .METRE. ) );
#614 = LINE ( 'NONE', #127, #294 ) ;
#615 = SURFACE_SIDE_STYLE ('',( #1073 ) ) ;
#616 = ADVANCED_FACE ( 'NONE', ( #814 ), #693, .F. ) ;
#617 =( GEOMETRIC_REPRESENTATION_CONTEXT ( 3 ) GLOBAL_UNCERTAINTY_ASSIGNED_CONTEXT ( ( #700 ) ) GLOBAL_UNIT_ASSIGNED_CONTEXT ( ( #994, #540, #442 ) ) REPRESENTATION_CONTEXT ( 'NONE', 'WORKASPACE' ) );
#618 = EDGE_LOOP ( 'NONE', ( #696, #824, #590, #379 ) ) ;
#619 = CARTESIAN_POINT ( 'NONE',  ( 4.299999999999999822, 2.799999999999999378, 0.1000000000000000056 ) ) ;
#620 = DIRECTION ( 'NONE',  ( -0.000000000000000000, -0.000000000000000000, -1.000000000000000000 ) ) ;
#621 = PRESENTATION_LAYER_ASSIGNMENT (  '', '', ( #1119 ) ) ;
#622 = FILL_AREA_STYLE_COLOUR ( '', #256 ) ;
#623 = FACE_OUTER_BOUND ( 'NONE', #372, .T. ) ;
#624 = DIRECTION ( 'NONE',  ( 1.000000000000000000, 0.000000000000000000, 0.000000000000000000 ) ) ;
#625 = LINE ( 'NONE', #978, #1076 ) ;
#626 = EDGE_CURVE ( 'NONE', #52, #876, #510, .T. ) ;
#627 = DIRECTION ( 'NONE',  ( 1.084202172485504927E-16, -1.000000000000000000, 0.000000000000000000 ) ) ;
#628 = VERTEX_POINT ( 'NONE', #349 ) ;
#629 = VECTOR ( 'NONE', #151, 1000.000000000000000 ) ;
#630 = FILL_AREA_STYLE ('',( #359 ) ) ;
#631 = COLOUR_RGB ( '',1.000000000000000000, 0.9098039215686274384, 0.2156862745098039325 ) ;
#632 = FACE_OUTER_BOUND ( 'NONE', #571, .T. ) ;
#633 = LINE ( 'NONE', #884, #802 ) ;
#634 = VECTOR ( 'NONE', #676, 1000.000000000000000 ) ;
#635 =( GEOMETRIC_REPRESENTATION_CONTEXT ( 3 ) GLOBAL_UNCERTAINTY_ASSIGNED_CONTEXT ( ( #109 ) ) GLOBAL_UNIT_ASSIGNED_CONTEXT ( ( #793, #702, #94 ) ) REPRESENTATION_CONTEXT ( 'NONE', 'WORKASPACE' ) );
#636 = EDGE_LOOP ( 'NONE', ( #517, #92, #14, #401 ) ) ;
#637 =( LENGTH_UNIT ( ) NAMED_UNIT ( * ) SI_UNIT ( .MILLI., .METRE. ) );
#638 =( LENGTH_UNIT ( ) NAMED_UNIT ( * ) SI_UNIT ( .MILLI., .METRE. ) );
#639 = PRESENTATION_STYLE_ASSIGNMENT (( #192 ) ) ;
#640 = SURFACE_STYLE_FILL_AREA ( #356 ) ;
#641 = UNCERTAINTY_MEASURE_WITH_UNIT (LENGTH_MEASURE( 1.000000000000000082E-05 ), #12, 'distance_accuracy_value', 'NONE');
#642 = LINE ( 'NONE', #971, #452 ) ;
#643 = LINE ( 'NONE', #392, #668 ) ;
#644 = ORIENTED_EDGE ( 'NONE', *, *, #791, .T. ) ;
#645 = FACE_OUTER_BOUND ( 'NONE', #879, .T. ) ;
#646 = DIRECTION ( 'NONE',  ( 1.000000000000000000, 0.000000000000000000, 0.000000000000000000 ) ) ;
#647 = EDGE_CURVE ( 'NONE', #102, #50, #786, .T. ) ;
#648 = DIRECTION ( 'NONE',  ( 0.000000000000000000, -1.000000000000000000, 0.000000000000000000 ) ) ;
#649 = PRESENTATION_LAYER_ASSIGNMENT (  '', '', ( #792 ) ) ;
#650 = CARTESIAN_POINT ( 'NONE',  ( -6.800000000000001599, 3.299999999999999822, 0.000000000000000000 ) ) ;
#651 = VERTEX_POINT ( 'NONE', #953 ) ;
#652 =( NAMED_UNIT ( * ) PLANE_ANGLE_UNIT ( ) SI_UNIT ( $, .RADIAN. ) );
#653 = COLOUR_RGB ( '',1.000000000000000000, 0.9098039215686274384, 0.2156862745098039325 ) ;
#654 = FILL_AREA_STYLE ('',( #745 ) ) ;
#655 = SURFACE_SIDE_STYLE ('',( #40 ) ) ;
#656 = VERTEX_POINT ( 'NONE', #70 ) ;
#657 =( NAMED_UNIT ( * ) PLANE_ANGLE_UNIT ( ) SI_UNIT ( $, .RADIAN. ) );
#658 = EDGE_CURVE ( 'NONE', #992, #1034, #801, .T. ) ;
#659 = ORIENTED_EDGE ( 'NONE', *, *, #931, .T. ) ;
#660 =( NAMED_UNIT ( * ) PLANE_ANGLE_UNIT ( ) SI_UNIT ( $, .RADIAN. ) );
#661 = PRESENTATION_LAYER_ASSIGNMENT (  '', '', ( #7 ) ) ;
#662 = CARTESIAN_POINT ( 'NONE',  ( -4.299999999999999822, 2.799999999999998490, 0.1000000000000000056 ) ) ;
#663 = AXIS2_PLACEMENT_3D ( 'NONE', #825, #197, #742 ) ;
#664 = FACE_OUTER_BOUND ( 'NONE', #300, .T. ) ;
#665 = MECHANICAL_DESIGN_GEOMETRIC_PRESENTATION_REPRESENTATION (  '', ( #1119 ), #368 ) ;
#666 = ORIENTED_EDGE ( 'NONE', *, *, #606, .F. ) ;
#667 = PLANE ( 'NONE',  #762 ) ;
#668 = VECTOR ( 'NONE', #371, 1000.000000000000000 ) ;
#669 = SURFACE_STYLE_USAGE ( .BOTH. , #557 ) ;
#670 = MECHANICAL_DESIGN_GEOMETRIC_PRESENTATION_REPRESENTATION (  '', ( #827 ), #169 ) ;
#671 = CARTESIAN_POINT ( 'NONE',  ( -5.000000000000000000, 2.799999999999999822, 0.1000000000000000056 ) ) ;
#672 = EDGE_LOOP ( 'NONE', ( #212, #748, #765, #135 ) ) ;
#673 = FACE_OUTER_BOUND ( 'NONE', #202, .T. ) ;
#674 = EDGE_CURVE ( 'NONE', #42, #945, #259, .T. ) ;
#675 = STYLED_ITEM ( 'NONE', ( #538 ), #273 ) ;
#676 = DIRECTION ( 'NONE',  ( 2.168404344971008868E-16, 1.000000000000000000, -0.000000000000000000 ) ) ;
#677 = ORIENTED_EDGE ( 'NONE', *, *, #1028, .F. ) ;
#678 = DIRECTION ( 'NONE',  ( 0.000000000000000000, -1.000000000000000000, 0.000000000000000000 ) ) ;
#679 = VECTOR ( 'NONE', #339, 1000.000000000000000 ) ;
#680 = ADVANCED_FACE ( 'NONE', ( #960 ), #162, .T. ) ;
#681 = COLOUR_RGB ( '',1.000000000000000000, 0.9098039215686274384, 0.2156862745098039325 ) ;
#682 = AXIS2_PLACEMENT_3D ( 'NONE', #415, #684, #1121 ) ;
#683 = LINE ( 'NONE', #864, #946 ) ;
#684 = DIRECTION ( 'NONE',  ( -1.000000000000000000, 0.000000000000000000, 0.000000000000000000 ) ) ;
#685 = ORIENTED_EDGE ( 'NONE', *, *, #406, .T. ) ;
#686 = LINE ( 'NONE', #578, #150 ) ;
#687 = PRESENTATION_STYLE_ASSIGNMENT (( #704 ) ) ;
#688 = DIRECTION ( 'NONE',  ( -1.000000000000000000, 0.000000000000000000, 0.000000000000000000 ) ) ;
#689 = COLOUR_RGB ( '',1.000000000000000000, 0.9098039215686274384, 0.2156862745098039325 ) ;
#690 = ORIENTED_EDGE ( 'NONE', *, *, #919, .T. ) ;
#691 = DIRECTION ( 'NONE',  ( -1.000000000000000000, -2.168404344971008868E-16, 0.000000000000000000 ) ) ;
#692 = FACE_OUTER_BOUND ( 'NONE', #939, .T. ) ;
#693 = PLANE ( 'NONE',  #566 ) ;
#694 = SURFACE_STYLE_FILL_AREA ( #943 ) ;
#695 = PRESENTATION_STYLE_ASSIGNMENT (( #944 ) ) ;
#696 = ORIENTED_EDGE ( 'NONE', *, *, #626, .T. ) ;
#697 = ADVANCED_FACE ( 'NONE', ( #632 ), #550, .F. ) ;
#698 = SURFACE_STYLE_FILL_AREA ( #584 ) ;
#699 = STYLED_ITEM ( 'NONE', ( #711 ), #118 ) ;
#700 = UNCERTAINTY_MEASURE_WITH_UNIT (LENGTH_MEASURE( 1.000000000000000082E-05 ), #994, 'distance_accuracy_value', 'NONE');
#701 = ORIENTED_EDGE ( 'NONE', *, *, #913, .T. ) ;
#702 =( NAMED_UNIT ( * ) PLANE_ANGLE_UNIT ( ) SI_UNIT ( $, .RADIAN. ) );
#703 = CARTESIAN_POINT ( 'NONE',  ( -6.800000000000000711, -3.299999999999999822, 0.000000000000000000 ) ) ;
#704 = SURFACE_STYLE_USAGE ( .BOTH. , #345 ) ;
#705 = PLANE ( 'NONE',  #184 ) ;
#706 = FACE_OUTER_BOUND ( 'NONE', #722, .T. ) ;
#707 = ORIENTED_EDGE ( 'NONE', *, *, #479, .F. ) ;
#708 = PLANE ( 'NONE',  #781 ) ;
#709 = ADVANCED_FACE ( 'NONE', ( #984 ), #461, .F. ) ;
#710 = CARTESIAN_POINT ( 'NONE',  ( 5.000000000000000000, 2.800000000000001155, 0.1000000000000000056 ) ) ;
#711 = PRESENTATION_STYLE_ASSIGNMENT (( #367 ) ) ;
#712 = FACE_OUTER_BOUND ( 'NONE', #291, .T. ) ;
#713 = ORIENTED_EDGE ( 'NONE', *, *, #857, .F. ) ;
#714 = DIRECTION ( 'NONE',  ( -1.084202172485504927E-16, 1.000000000000000000, -0.000000000000000000 ) ) ;
#715 =( NAMED_UNIT ( * ) SI_UNIT ( $, .STERADIAN. ) SOLID_ANGLE_UNIT ( ) );
#716 = DIRECTION ( 'NONE',  ( 0.000000000000000000, -0.000000000000000000, -1.000000000000000000 ) ) ;
#717 = ADVANCED_FACE ( 'NONE', ( #645 ), #807, .T. ) ;
#718 = VECTOR ( 'NONE', #787, 1000.000000000000000 ) ;
#719 = ORIENTED_EDGE ( 'NONE', *, *, #30, .T. ) ;
#720 = FILL_AREA_STYLE ('',( #472 ) ) ;
#721 = AXIS2_PLACEMENT_3D ( 'NONE', #5, #366, #723 ) ;
#722 = EDGE_LOOP ( 'NONE', ( #250, #428, #363, #1114 ) ) ;
#723 = DIRECTION ( 'NONE',  ( 1.000000000000000000, 0.000000000000000000, 0.000000000000000000 ) ) ;
#724 =( NAMED_UNIT ( * ) PLANE_ANGLE_UNIT ( ) SI_UNIT ( $, .RADIAN. ) );
#725 = COLOUR_RGB ( '',1.000000000000000000, 0.9098039215686274384, 0.2156862745098039325 ) ;
#726 =( NAMED_UNIT ( * ) SI_UNIT ( $, .STERADIAN. ) SOLID_ANGLE_UNIT ( ) );
#727 = SURFACE_STYLE_USAGE ( .BOTH. , #272 ) ;
#728 = DIRECTION ( 'NONE',  ( 1.000000000000000000, 0.000000000000000000, 0.000000000000000000 ) ) ;
#729 = DIRECTION ( 'NONE',  ( -0.000000000000000000, 0.000000000000000000, 1.000000000000000000 ) ) ;
#730 =( NAMED_UNIT ( * ) PLANE_ANGLE_UNIT ( ) SI_UNIT ( $, .RADIAN. ) );
#731 = AXIS2_PLACEMENT_3D ( 'NONE', #175, #154, #691 ) ;
#732 = FILL_AREA_STYLE ('',( #622 ) ) ;
#733 = CARTESIAN_POINT ( 'NONE',  ( -4.999999999999999112, -1.200000000000000178, 0.1000000000000000056 ) ) ;
#734 = DIRECTION ( 'NONE',  ( -0.000000000000000000, -0.000000000000000000, -1.000000000000000000 ) ) ;
#735 = VECTOR ( 'NONE', #1137, 1000.000000000000000 ) ;
#736 = CARTESIAN_POINT ( 'NONE',  ( 4.299999999999999822, -1.199999999999998623, 0.1000000000000000056 ) ) ;
#737 = EDGE_CURVE ( 'NONE', #316, #411, #1005, .T. ) ;
#738 = SURFACE_STYLE_FILL_AREA ( #213 ) ;
#739 = DIRECTION ( 'NONE',  ( -1.084202172485504927E-16, 1.000000000000000000, 0.000000000000000000 ) ) ;
#740 = PRESENTATION_STYLE_ASSIGNMENT (( #306 ) ) ;
#741 = EDGE_LOOP ( 'NONE', ( #187, #385, #459, #126 ) ) ;
#742 = DIRECTION ( 'NONE',  ( 0.000000000000000000, -0.000000000000000000, 1.000000000000000000 ) ) ;
#743 = COLOUR_RGB ( '',1.000000000000000000, 0.9098039215686274384, 0.2156862745098039325 ) ;
#744 = PRESENTATION_STYLE_ASSIGNMENT (( #121 ) ) ;
#745 = FILL_AREA_STYLE_COLOUR ( '', #519 ) ;
#746 = CARTESIAN_POINT ( 'NONE',  ( 3.299999999999998934, 2.799999999999999378, 0.1000000000000000056 ) ) ;
#747 = FILL_AREA_STYLE ('',( #843 ) ) ;
#748 = ORIENTED_EDGE ( 'NONE', *, *, #586, .F. ) ;
#749 = FILL_AREA_STYLE_COLOUR ( '', #681 ) ;
#750 = ADVANCED_FACE ( 'NONE', ( #394 ), #974, .F. ) ;
#751 = FACE_OUTER_BOUND ( 'NONE', #582, .T. ) ;
#752 = COLOUR_RGB ( '',0.3294117647058823484, 0.5921568627450980449, 0.000000000000000000 ) ;
#753 = ORIENTED_EDGE ( 'NONE', *, *, #303, .F. ) ;
#754 = PRESENTATION_STYLE_ASSIGNMENT (( #240 ) ) ;
#755 = FILL_AREA_STYLE ('',( #759 ) ) ;
#756 = VERTEX_POINT ( 'NONE', #789 ) ;
#757 = STYLED_ITEM ( 'NONE', ( #1047 ), #181 ) ;
#758 = PRESENTATION_LAYER_ASSIGNMENT (  '', '', ( #855 ) ) ;
#759 = FILL_AREA_STYLE_COLOUR ( '', #752 ) ;
#760 = ORIENTED_EDGE ( 'NONE', *, *, #131, .F. ) ;
#761 = LINE ( 'NONE', #862, #1124 ) ;
#762 = AXIS2_PLACEMENT_3D ( 'NONE', #671, #1020, #1097 ) ;
#763 = CARTESIAN_POINT ( 'NONE',  ( 6.799999999999999822, -3.299999999999999822, 0.000000000000000000 ) ) ;
#764 = SURFACE_SIDE_STYLE ('',( #410 ) ) ;
#765 = ORIENTED_EDGE ( 'NONE', *, *, #30, .F. ) ;
#766 = ADVANCED_FACE ( 'NONE', ( #706 ), #890, .F. ) ;
#767 = CARTESIAN_POINT ( 'NONE',  ( 6.000000000000000000, 2.800000000000001155, 0.000000000000000000 ) ) ;
#768 = LINE ( 'NONE', #350, #718 ) ;
#769 = ORIENTED_EDGE ( 'NONE', *, *, #265, .F. ) ;
#770 = MECHANICAL_DESIGN_GEOMETRIC_PRESENTATION_REPRESENTATION (  '', ( #873 ), #405 ) ;
#771 = CARTESIAN_POINT ( 'NONE',  ( -4.299999999999999822, -1.199999999999999734, 0.1000000000000000056 ) ) ;
#772 = CARTESIAN_POINT ( 'NONE',  ( -4.299999999999999822, 2.799999999999998490, 0.1000000000000000056 ) ) ;
#773 =( GEOMETRIC_REPRESENTATION_CONTEXT ( 3 ) GLOBAL_UNCERTAINTY_ASSIGNED_CONTEXT ( ( #788 ) ) GLOBAL_UNIT_ASSIGNED_CONTEXT ( ( #996, #1086, #527 ) ) REPRESENTATION_CONTEXT ( 'NONE', 'WORKASPACE' ) );
#774 = VERTEX_POINT ( 'NONE', #86 ) ;
#775 = CARTESIAN_POINT ( 'NONE',  ( 5.000000000000000000, 2.800000000000001155, 0.1000000000000000056 ) ) ;
#776 = SURFACE_STYLE_USAGE ( .BOTH. , #588 ) ;
#777 = EDGE_CURVE ( 'NONE', #444, #612, #1070, .T. ) ;
#778 = UNCERTAINTY_MEASURE_WITH_UNIT (LENGTH_MEASURE( 1.000000000000000082E-05 ), #467, 'distance_accuracy_value', 'NONE');
#779 = MECHANICAL_DESIGN_GEOMETRIC_PRESENTATION_REPRESENTATION (  '', ( #321 ), #1071 ) ;
#780 = ORIENTED_EDGE ( 'NONE', *, *, #658, .T. ) ;
#781 = AXIS2_PLACEMENT_3D ( 'NONE', #1054, #190, #270 ) ;
#782 = CARTESIAN_POINT ( 'NONE',  ( 6.799999999999998046, 3.299999999999999822, -1.399999999999999911 ) ) ;
#783 = PLANE ( 'NONE',  #480 ) ;
#784 = CARTESIAN_POINT ( 'NONE',  ( 5.999999999999999112, -1.199999999999998623, 0.000000000000000000 ) ) ;
#785 = ORIENTED_EDGE ( 'NONE', *, *, #626, .F. ) ;
#786 = LINE ( 'NONE', #967, #282 ) ;
#787 = DIRECTION ( 'NONE',  ( -0.000000000000000000, -0.000000000000000000, -1.000000000000000000 ) ) ;
#788 = UNCERTAINTY_MEASURE_WITH_UNIT (LENGTH_MEASURE( 1.000000000000000082E-05 ), #996, 'distance_accuracy_value', 'NONE');
#789 = CARTESIAN_POINT ( 'NONE',  ( -4.999999999999999112, -1.200000000000000178, 0.1000000000000000056 ) ) ;
#790 = VERTEX_POINT ( 'NONE', #276 ) ;
#791 = EDGE_CURVE ( 'NONE', #79, #756, #457, .T. ) ;
#792 = STYLED_ITEM ( 'NONE', ( #744 ), #322 ) ;
#793 =( LENGTH_UNIT ( ) NAMED_UNIT ( * ) SI_UNIT ( .MILLI., .METRE. ) );
#794 = SURFACE_STYLE_USAGE ( .BOTH. , #1132 ) ;
#795 = DIRECTION ( 'NONE',  ( 1.314184451497581259E-16, -1.000000000000000000, 0.000000000000000000 ) ) ;
#796 = ORIENTED_EDGE ( 'NONE', *, *, #568, .F. ) ;
#797 = DIRECTION ( 'NONE',  ( -0.000000000000000000, -0.000000000000000000, -1.000000000000000000 ) ) ;
#798 = SURFACE_STYLE_USAGE ( .BOTH. , #429 ) ;
#799 = CARTESIAN_POINT ( 'NONE',  ( 6.799999999999998046, 3.299999999999999822, -1.399999999999999911 ) ) ;
#800 = EDGE_CURVE ( 'NONE', #628, #311, #100, .T. ) ;
#801 = LINE ( 'NONE', #83, #484 ) ;
#802 = VECTOR ( 'NONE', #990, 1000.000000000000000 ) ;
#803 = CARTESIAN_POINT ( 'NONE',  ( -6.800000000000000711, -3.299999999999999822, -1.399999999999999911 ) ) ;
#804 = CARTESIAN_POINT ( 'NONE',  ( -4.299999999999999822, -1.199999999999999734, 0.000000000000000000 ) ) ;
#805 = ORIENTED_EDGE ( 'NONE', *, *, #418, .T. ) ;
#806 = CARTESIAN_POINT ( 'NONE',  ( 6.799999999999998046, 3.299999999999999822, -1.399999999999999911 ) ) ;
#807 = PLANE ( 'NONE',  #721 ) ;
#808 = SURFACE_SIDE_STYLE ('',( #1069 ) ) ;
#809 = CARTESIAN_POINT ( 'NONE',  ( -3.299999999999999822, 2.799999999999998490, 0.1000000000000000056 ) ) ;
#810 = MECHANICAL_DESIGN_GEOMETRIC_PRESENTATION_REPRESENTATION (  '', ( #7 ), #593 ) ;
#811 = CARTESIAN_POINT ( 'NONE',  ( -3.299999999999999378, -1.199999999999999734, 0.1000000000000000056 ) ) ;
#812 = PRESENTATION_LAYER_ASSIGNMENT (  '', '', ( #920 ) ) ;
#813 = MECHANICAL_DESIGN_GEOMETRIC_PRESENTATION_REPRESENTATION (  '', ( #1014 ), #482 ) ;
#814 = FACE_OUTER_BOUND ( 'NONE', #239, .T. ) ;
#815 = VERTEX_POINT ( 'NONE', #806 ) ;
#816 = SURFACE_STYLE_USAGE ( .BOTH. , #998 ) ;
#817 = CARTESIAN_POINT ( 'NONE',  ( 0.000000000000000000, 0.000000000000000000, 0.1000000000000000056 ) ) ;
#818 = VECTOR ( 'NONE', #201, 1000.000000000000000 ) ;
#819 = DIRECTION ( 'NONE',  ( -2.168404344971008128E-16, 1.000000000000000000, 0.000000000000000000 ) ) ;
#820 = SHAPE_DEFINITION_REPRESENTATION ( #258, #54 ) ;
#821 = UNCERTAINTY_MEASURE_WITH_UNIT (LENGTH_MEASURE( 1.000000000000000082E-05 ), #842, 'distance_accuracy_value', 'NONE');
#822 = EDGE_CURVE ( 'NONE', #945, #393, #829, .T. ) ;
#823 = VECTOR ( 'NONE', #1008, 1000.000000000000000 ) ;
#824 = ORIENTED_EDGE ( 'NONE', *, *, #141, .F. ) ;
#825 = CARTESIAN_POINT ( 'NONE',  ( -5.999999999999999112, -1.200000000000000178, 0.1000000000000000056 ) ) ;
#826 = FILL_AREA_STYLE_COLOUR ( '', #999 ) ;
#827 = STYLED_ITEM ( 'NONE', ( #915 ), #387 ) ;
#828 = CARTESIAN_POINT ( 'NONE',  ( -5.000000000000000000, 2.799999999999999822, 0.1000000000000000056 ) ) ;
#829 = LINE ( 'NONE', #377, #870 ) ;
#830 = PRESENTATION_LAYER_ASSIGNMENT (  '', '', ( #675 ) ) ;
#831 = FACE_OUTER_BOUND ( 'NONE', #951, .T. ) ;
#832 = EDGE_LOOP ( 'NONE', ( #29, #85, #424, #227 ) ) ;
#833 = UNCERTAINTY_MEASURE_WITH_UNIT (LENGTH_MEASURE( 1.000000000000000082E-05 ), #1029, 'distance_accuracy_value', 'NONE');
#834 =( NAMED_UNIT ( * ) SI_UNIT ( $, .STERADIAN. ) SOLID_ANGLE_UNIT ( ) );
#835 =( NAMED_UNIT ( * ) SI_UNIT ( $, .STERADIAN. ) SOLID_ANGLE_UNIT ( ) );
#836 = ORIENTED_EDGE ( 'NONE', *, *, #235, .F. ) ;
#837 = CARTESIAN_POINT ( 'NONE',  ( -6.000000000000000000, 2.799999999999999822, 0.000000000000000000 ) ) ;
#838 = VECTOR ( 'NONE', #362, 1000.000000000000000 ) ;
#839 = EDGE_CURVE ( 'NONE', #393, #1046, #289, .T. ) ;
#840 = DIRECTION ( 'NONE',  ( -1.000000000000000000, -0.000000000000000000, -0.000000000000000000 ) ) ;
#841 =( GEOMETRIC_REPRESENTATION_CONTEXT ( 3 ) GLOBAL_UNCERTAINTY_ASSIGNED_CONTEXT ( ( #611 ) ) GLOBAL_UNIT_ASSIGNED_CONTEXT ( ( #638, #652, #993 ) ) REPRESENTATION_CONTEXT ( 'NONE', 'WORKASPACE' ) );
#842 =( LENGTH_UNIT ( ) NAMED_UNIT ( * ) SI_UNIT ( .MILLI., .METRE. ) );
#843 = FILL_AREA_STYLE_COLOUR ( '', #725 ) ;
#844 = ORIENTED_EDGE ( 'NONE', *, *, #568, .T. ) ;
#845 = SURFACE_SIDE_STYLE ('',( #140 ) ) ;
#846 = CARTESIAN_POINT ( 'NONE',  ( -5.000000000000000000, 2.799999999999999822, 0.1000000000000000056 ) ) ;
#847 = PRESENTATION_LAYER_ASSIGNMENT (  '', '', ( #191 ) ) ;
#848 = EDGE_CURVE ( 'NONE', #1053, #914, #903, .T. ) ;
#849 =( LENGTH_UNIT ( ) NAMED_UNIT ( * ) SI_UNIT ( .MILLI., .METRE. ) );
#850 = MECHANICAL_DESIGN_GEOMETRIC_PRESENTATION_REPRESENTATION (  '', ( #95 ), #1095 ) ;
#851 = ORIENTED_EDGE ( 'NONE', *, *, #1, .T. ) ;
#852 = DIRECTION ( 'NONE',  ( 1.084202172485504927E-16, -1.000000000000000000, 0.000000000000000000 ) ) ;
#853 =( NAMED_UNIT ( * ) PLANE_ANGLE_UNIT ( ) SI_UNIT ( $, .RADIAN. ) );
#854 = ORIENTED_EDGE ( 'NONE', *, *, #88, .F. ) ;
#855 = STYLED_ITEM ( 'NONE', ( #976 ), #766 ) ;
#856 = CARTESIAN_POINT ( 'NONE',  ( 6.000000000000000000, 2.800000000000001155, 0.1000000000000000056 ) ) ;
#857 = EDGE_CURVE ( 'NONE', #1021, #790, #542, .T. ) ;
#858 = ORIENTED_EDGE ( 'NONE', *, *, #334, .T. ) ;
#859 = CARTESIAN_POINT ( 'NONE',  ( 0.000000000000000000, 0.000000000000000000, 0.000000000000000000 ) ) ;
#860 =( NAMED_UNIT ( * ) SI_UNIT ( $, .STERADIAN. ) SOLID_ANGLE_UNIT ( ) );
#861 = ORIENTED_EDGE ( 'NONE', *, *, #839, .F. ) ;
#862 = CARTESIAN_POINT ( 'NONE',  ( 6.000000000000000000, 2.800000000000001155, 0.1000000000000000056 ) ) ;
#863 = CARTESIAN_POINT ( 'NONE',  ( -4.299999999999999822, 2.799999999999998490, 0.000000000000000000 ) ) ;
#864 = CARTESIAN_POINT ( 'NONE',  ( 4.299999999999999822, -1.199999999999998623, 0.000000000000000000 ) ) ;
#865 = FILL_AREA_STYLE ('',( #1134 ) ) ;
#866 = UNCERTAINTY_MEASURE_WITH_UNIT (LENGTH_MEASURE( 1.000000000000000082E-05 ), #613, 'distance_accuracy_value', 'NONE');
#867 = ORIENTED_EDGE ( 'NONE', *, *, #58, .T. ) ;
#868 = EDGE_CURVE ( 'NONE', #1053, #111, #642, .T. ) ;
#869 =( GEOMETRIC_REPRESENTATION_CONTEXT ( 3 ) GLOBAL_UNCERTAINTY_ASSIGNED_CONTEXT ( ( #1135 ) ) GLOBAL_UNIT_ASSIGNED_CONTEXT ( ( #600, #1113, #329 ) ) REPRESENTATION_CONTEXT ( 'NONE', 'WORKASPACE' ) );
#870 = VECTOR ( 'NONE', #206, 1000.000000000000000 ) ;
#871 = DIRECTION ( 'NONE',  ( -2.168404344971008868E-16, 1.000000000000000000, -0.000000000000000000 ) ) ;
#872 = FACE_OUTER_BOUND ( 'NONE', #332, .T. ) ;
#873 = STYLED_ITEM ( 'NONE', ( #455 ), #697 ) ;
#874 = ORIENTED_EDGE ( 'NONE', *, *, #800, .F. ) ;
#875 = PRESENTATION_LAYER_ASSIGNMENT (  '', '', ( #827 ) ) ;
#876 = VERTEX_POINT ( 'NONE', #908 ) ;
#877 = VECTOR ( 'NONE', #1138, 1000.000000000000000 ) ;
#878 = MECHANICAL_DESIGN_GEOMETRIC_PRESENTATION_REPRESENTATION (  '', ( #757 ), #575 ) ;
#879 = EDGE_LOOP ( 'NONE', ( #489, #218, #514, #1093 ) ) ;
#880 =( NAMED_UNIT ( * ) PLANE_ANGLE_UNIT ( ) SI_UNIT ( $, .RADIAN. ) );
#881 = DIRECTION ( 'NONE',  ( 0.000000000000000000, -0.000000000000000000, -1.000000000000000000 ) ) ;
#882 =( LENGTH_UNIT ( ) NAMED_UNIT ( * ) SI_UNIT ( .MILLI., .METRE. ) );
#883 = EDGE_LOOP ( 'NONE', ( #780, #677, #22, #918 ) ) ;
#884 = CARTESIAN_POINT ( 'NONE',  ( -4.299999999999999822, -1.199999999999999734, 0.1000000000000000056 ) ) ;
#885 = EDGE_CURVE ( 'NONE', #102, #42, #625, .T. ) ;
#886 = LINE ( 'NONE', #6, #176 ) ;
#887 =( NAMED_UNIT ( * ) PLANE_ANGLE_UNIT ( ) SI_UNIT ( $, .RADIAN. ) );
#888 =( NAMED_UNIT ( * ) PLANE_ANGLE_UNIT ( ) SI_UNIT ( $, .RADIAN. ) );
#889 = VERTEX_POINT ( 'NONE', #1084 ) ;
#890 = PLANE ( 'NONE',  #1063 ) ;
#891 = FILL_AREA_STYLE_COLOUR ( '', #743 ) ;
#892 = STYLED_ITEM ( 'NONE', ( #309 ), #962 ) ;
#893 = PLANE ( 'NONE',  #1043 ) ;
#894 = CARTESIAN_POINT ( 'NONE',  ( -6.000000000000000000, 2.799999999999999822, 0.000000000000000000 ) ) ;
#895 = UNCERTAINTY_MEASURE_WITH_UNIT (LENGTH_MEASURE( 1.000000000000000082E-05 ), #301, 'distance_accuracy_value', 'NONE');
#896 = LINE ( 'NONE', #1080, #198 ) ;
#897 = LINE ( 'NONE', #485, #116 ) ;
#898 = ORIENTED_EDGE ( 'NONE', *, *, #885, .T. ) ;
#899 = CARTESIAN_POINT ( 'NONE',  ( 6.799999999999998046, 3.299999999999999822, -1.399999999999999911 ) ) ;
#900 = EDGE_CURVE ( 'NONE', #37, #1110, #633, .T. ) ;
#901 = FILL_AREA_STYLE ('',( #17 ) ) ;
#902 = DIRECTION ( 'NONE',  ( -0.000000000000000000, -0.000000000000000000, -1.000000000000000000 ) ) ;
#903 = LINE ( 'NONE', #811, #594 ) ;
#904 = LINE ( 'NONE', #384, #18 ) ;
#905 =( NAMED_UNIT ( * ) PLANE_ANGLE_UNIT ( ) SI_UNIT ( $, .RADIAN. ) );
#906 = DIRECTION ( 'NONE',  ( 1.000000000000000000, 2.168404344971008868E-16, -0.000000000000000000 ) ) ;
#907 = DIRECTION ( 'NONE',  ( -1.000000000000000000, -1.314184451497581259E-16, 0.000000000000000000 ) ) ;
#908 = CARTESIAN_POINT ( 'NONE',  ( -5.000000000000000000, 2.799999999999999822, 0.000000000000000000 ) ) ;
#909 = PRESENTATION_LAYER_ASSIGNMENT (  '', '', ( #602 ) ) ;
#910 = ORIENTED_EDGE ( 'NONE', *, *, #251, .F. ) ;
#911 = DIRECTION ( 'NONE',  ( -1.000000000000000000, 0.000000000000000000, -0.000000000000000000 ) ) ;
#912 = SURFACE_STYLE_FILL_AREA ( #565 ) ;
#913 = EDGE_CURVE ( 'NONE', #253, #316, #896, .T. ) ;
#914 = VERTEX_POINT ( 'NONE', #200 ) ;
#915 = PRESENTATION_STYLE_ASSIGNMENT (( #669 ) ) ;
#916 = FILL_AREA_STYLE_COLOUR ( '', #166 ) ;
#917 = VECTOR ( 'NONE', #902, 1000.000000000000000 ) ;
#918 = ORIENTED_EDGE ( 'NONE', *, *, #148, .T. ) ;
#919 = EDGE_CURVE ( 'NONE', #612, #956, #110, .T. ) ;
#920 = STYLED_ITEM ( 'NONE', ( #448 ), #750 ) ;
#921 = FILL_AREA_STYLE ('',( #133 ) ) ;
#922 = MANIFOLD_SOLID_BREP ( 'Boss-Extrude2', #548 ) ;
#923 = COLOUR_RGB ( '',0.3294117647058823484, 0.5921568627450980449, 0.000000000000000000 ) ;
#924 = FILL_AREA_STYLE ('',( #407 ) ) ;
#925 = ORIENTED_EDGE ( 'NONE', *, *, #501, .T. ) ;
#926 = CARTESIAN_POINT ( 'NONE',  ( 3.299999999999998934, 2.799999999999999378, 0.1000000000000000056 ) ) ;
#927 = PRESENTATION_LAYER_ASSIGNMENT (  '', '', ( #488 ) ) ;
#928 = PRESENTATION_LAYER_ASSIGNMENT (  '', '', ( #1109 ) ) ;
#929 = ORIENTED_EDGE ( 'NONE', *, *, #522, .T. ) ;
#930 = FILL_AREA_STYLE ('',( #328 ) ) ;
#931 = EDGE_CURVE ( 'NONE', #561, #1021, #466, .T. ) ;
#932 = LINE ( 'NONE', #746, #476 ) ;
#933 = ORIENTED_EDGE ( 'NONE', *, *, #1118, .T. ) ;
#934 = AXIS2_PLACEMENT_3D ( 'NONE', #554, #318, #911 ) ;
#935 = SURFACE_STYLE_FILL_AREA ( #865 ) ;
#936 = ORIENTED_EDGE ( 'NONE', *, *, #868, .F. ) ;
#937 = AXIS2_PLACEMENT_3D ( 'NONE', #859, #490, #232 ) ;
#938 = SURFACE_SIDE_STYLE ('',( #698 ) ) ;
#939 = EDGE_LOOP ( 'NONE', ( #964, #144, #753, #1009 ) ) ;
#940 = ADVANCED_FACE ( 'NONE', ( #664 ), #1019, .T. ) ;
#941 = LINE ( 'NONE', #1026, #136 ) ;
#942 = SURFACE_STYLE_FILL_AREA ( #592 ) ;
#943 = FILL_AREA_STYLE ('',( #426 ) ) ;
#944 = SURFACE_STYLE_USAGE ( .BOTH. , #346 ) ;
#945 = VERTEX_POINT ( 'NONE', #763 ) ;
#946 = VECTOR ( 'NONE', #430, 1000.000000000000000 ) ;
#947 =( GEOMETRIC_REPRESENTATION_CONTEXT ( 3 ) GLOBAL_UNCERTAINTY_ASSIGNED_CONTEXT ( ( #895 ) ) GLOBAL_UNIT_ASSIGNED_CONTEXT ( ( #301, #905, #112 ) ) REPRESENTATION_CONTEXT ( 'NONE', 'WORKASPACE' ) );
#948 = CARTESIAN_POINT ( 'NONE',  ( -6.800000000000000711, -3.299999999999999822, 0.000000000000000000 ) ) ;
#949 = CARTESIAN_POINT ( 'NONE',  ( -6.000000000000000000, 2.799999999999999822, 0.1000000000000000056 ) ) ;
#950 = VECTOR ( 'NONE', #871, 1000.000000000000000 ) ;
#951 = EDGE_LOOP ( 'NONE', ( #534, #196, #936, #1087 ) ) ;
#952 =( GEOMETRIC_REPRESENTATION_CONTEXT ( 3 ) GLOBAL_UNCERTAINTY_ASSIGNED_CONTEXT ( ( #471 ) ) GLOBAL_UNIT_ASSIGNED_CONTEXT ( ( #581, #310, #1067 ) ) REPRESENTATION_CONTEXT ( 'NONE', 'WORKASPACE' ) );
#953 = CARTESIAN_POINT ( 'NONE',  ( 3.299999999999999378, -1.199999999999998845, 0.000000000000000000 ) ) ;
#954 = UNCERTAINTY_MEASURE_WITH_UNIT (LENGTH_MEASURE( 1.000000000000000082E-05 ), #506, 'distance_accuracy_value', 'NONE');
#955 = DIRECTION ( 'NONE',  ( 0.000000000000000000, 1.000000000000000000, 0.000000000000000000 ) ) ;
#956 = VERTEX_POINT ( 'NONE', #215 ) ;
#957 = LINE ( 'NONE', #799, #25 ) ;
#958 = AXIS2_PLACEMENT_3D ( 'NONE', #142, #226, #556 ) ;
#959 = CARTESIAN_POINT ( 'NONE',  ( -4.299999999999999822, -1.199999999999999734, 0.1000000000000000056 ) ) ;
#960 = FACE_OUTER_BOUND ( 'NONE', #1068, .T. ) ;
#961 = CARTESIAN_POINT ( 'NONE',  ( 6.000000000000000000, 2.800000000000001155, 0.1000000000000000056 ) ) ;
#962 = ADVANCED_FACE ( 'NONE', ( #751 ), #483, .F. ) ;
#963 = CARTESIAN_POINT ( 'NONE',  ( -4.299999999999999822, -1.199999999999999734, 0.000000000000000000 ) ) ;
#964 = ORIENTED_EDGE ( 'NONE', *, *, #1065, .T. ) ;
#965 =( NAMED_UNIT ( * ) SI_UNIT ( $, .STERADIAN. ) SOLID_ANGLE_UNIT ( ) );
#966 = LINE ( 'NONE', #354, #381 ) ;
#967 = CARTESIAN_POINT ( 'NONE',  ( -6.800000000000000711, -3.299999999999999822, -1.399999999999999911 ) ) ;
#968 = PRODUCT_DEFINITION ( 'General', '', #595, #391 ) ;
#969 = UNCERTAINTY_MEASURE_WITH_UNIT (LENGTH_MEASURE( 1.000000000000000082E-05 ), #882, 'distance_accuracy_value', 'NONE');
#970 = ORIENTED_EDGE ( 'NONE', *, *, #579, .T. ) ;
#971 = CARTESIAN_POINT ( 'NONE',  ( -3.299999999999999822, 2.799999999999998490, 0.1000000000000000056 ) ) ;
#972 = MECHANICAL_DESIGN_GEOMETRIC_PRESENTATION_REPRESENTATION (  '', ( #1015 ), #773 ) ;
#973 = FACE_OUTER_BOUND ( 'NONE', #636, .T. ) ;
#974 = PLANE ( 'NONE',  #331 ) ;
#975 = SURFACE_STYLE_USAGE ( .BOTH. , #560 ) ;
#976 = PRESENTATION_STYLE_ASSIGNMENT (( #975 ) ) ;
#977 = APPLICATION_PROTOCOL_DEFINITION ( 'draft international standard', 'automotive_design', 1998, #234 ) ;
#978 = CARTESIAN_POINT ( 'NONE',  ( -6.800000000000000711, -3.299999999999999822, -1.399999999999999911 ) ) ;
#979 = VECTOR ( 'NONE', #59, 1000.000000000000000 ) ;
#980 = DIRECTION ( 'NONE',  ( -0.000000000000000000, 1.000000000000000000, -0.000000000000000000 ) ) ;
#981 = ORIENTED_EDGE ( 'NONE', *, *, #931, .F. ) ;
#982 = EDGE_CURVE ( 'NONE', #1107, #444, #932, .T. ) ;
#983 = LINE ( 'NONE', #899, #491 ) ;
#984 = FACE_OUTER_BOUND ( 'NONE', #529, .T. ) ;
#985 = MECHANICAL_DESIGN_GEOMETRIC_PRESENTATION_REPRESENTATION (  '', ( #138 ), #249 ) ;
#986 = DIRECTION ( 'NONE',  ( -0.000000000000000000, 0.000000000000000000, -1.000000000000000000 ) ) ;
#987 = AXIS2_PLACEMENT_3D ( 'NONE', #817, #544, #81 ) ;
#988 = APPLICATION_CONTEXT ( 'automotive_design' ) ;
#989 = UNCERTAINTY_MEASURE_WITH_UNIT (LENGTH_MEASURE( 1.000000000000000082E-05 ), #1075, 'distance_accuracy_value', 'NONE');
#990 = DIRECTION ( 'NONE',  ( -0.000000000000000000, -0.000000000000000000, -1.000000000000000000 ) ) ;
#991 = CARTESIAN_POINT ( 'NONE',  ( -4.299999999999999822, 2.799999999999998490, 0.1000000000000000056 ) ) ;
#992 = VERTEX_POINT ( 'NONE', #340 ) ;
#993 =( NAMED_UNIT ( * ) SI_UNIT ( $, .STERADIAN. ) SOLID_ANGLE_UNIT ( ) );
#994 =( LENGTH_UNIT ( ) NAMED_UNIT ( * ) SI_UNIT ( .MILLI., .METRE. ) );
#995 = VECTOR ( 'NONE', #1120, 1000.000000000000000 ) ;
#996 =( LENGTH_UNIT ( ) NAMED_UNIT ( * ) SI_UNIT ( .MILLI., .METRE. ) );
#997 = ORIENTED_EDGE ( 'NONE', *, *, #1082, .T. ) ;
#998 = SURFACE_SIDE_STYLE ('',( #738 ) ) ;
#999 = COLOUR_RGB ( '',1.000000000000000000, 0.9098039215686274384, 0.2156862745098039325 ) ;
#1000 = CARTESIAN_POINT ( 'NONE',  ( -6.000000000000000000, 2.799999999999999822, 0.1000000000000000056 ) ) ;
#1001 =( NAMED_UNIT ( * ) SI_UNIT ( $, .STERADIAN. ) SOLID_ANGLE_UNIT ( ) );
#1002 = ADVANCED_FACE ( 'NONE', ( #330 ), #511, .F. ) ;
#1003 = SURFACE_STYLE_USAGE ( .BOTH. , #383 ) ;
#1004 = COLOUR_RGB ( '',0.3294117647058823484, 0.5921568627450980449, 0.000000000000000000 ) ;
#1005 = LINE ( 'NONE', #837, #160 ) ;
#1006 = AXIS2_PLACEMENT_3D ( 'NONE', #949, #66, #171 ) ;
#1007 = EDGE_CURVE ( 'NONE', #587, #37, #243, .T. ) ;
#1008 = DIRECTION ( 'NONE',  ( 2.168404344971008868E-16, 1.000000000000000000, -0.000000000000000000 ) ) ;
#1009 = ORIENTED_EDGE ( 'NONE', *, *, #800, .T. ) ;
#1010 = DIRECTION ( 'NONE',  ( -2.168404344971008868E-16, 1.000000000000000000, -0.000000000000000000 ) ) ;
#1011 = SURFACE_STYLE_USAGE ( .BOTH. , #305 ) ;
#1012 = VECTOR ( 'NONE', #1077, 1000.000000000000000 ) ;
#1013 = ORIENTED_EDGE ( 'NONE', *, *, #406, .F. ) ;
#1014 = STYLED_ITEM ( 'NONE', ( #487 ), #1100 ) ;
#1015 = STYLED_ITEM ( 'NONE', ( #740 ), #616 ) ;
#1016 = EDGE_LOOP ( 'NONE', ( #685, #486, #713, #929 ) ) ;
#1017 = SURFACE_SIDE_STYLE ('',( #398 ) ) ;
#1018 = DIRECTION ( 'NONE',  ( -1.000000000000000000, -0.000000000000000000, -0.000000000000000000 ) ) ;
#1019 = PLANE ( 'NONE',  #958 ) ;
#1020 = DIRECTION ( 'NONE',  ( -1.000000000000000000, -2.168404344971008868E-16, 0.000000000000000000 ) ) ;
#1021 = VERTEX_POINT ( 'NONE', #523 ) ;
#1022 = CARTESIAN_POINT ( 'NONE',  ( 6.799999999999998046, 3.299999999999999822, 0.000000000000000000 ) ) ;
#1023 = VERTEX_POINT ( 'NONE', #427 ) ;
#1024 = LINE ( 'NONE', #497, #134 ) ;
#1025 =( GEOMETRIC_REPRESENTATION_CONTEXT ( 3 ) GLOBAL_UNCERTAINTY_ASSIGNED_CONTEXT ( ( #123 ) ) GLOBAL_UNIT_ASSIGNED_CONTEXT ( ( #532, #441, #177 ) ) REPRESENTATION_CONTEXT ( 'NONE', 'WORKASPACE' ) );
#1026 = CARTESIAN_POINT ( 'NONE',  ( -6.000000000000000000, 2.799999999999999822, 0.1000000000000000056 ) ) ;
#1027 = CARTESIAN_POINT ( 'NONE',  ( -5.999999999999999112, -1.200000000000000178, 0.1000000000000000056 ) ) ;
#1028 = EDGE_CURVE ( 'NONE', #587, #1034, #499, .T. ) ;
#1029 =( LENGTH_UNIT ( ) NAMED_UNIT ( * ) SI_UNIT ( .MILLI., .METRE. ) );
#1030 = EDGE_LOOP ( 'NONE', ( #1013, #496, #347, #567 ) ) ;
#1031 = CARTESIAN_POINT ( 'NONE',  ( -4.999999999999999112, -1.200000000000000178, 0.000000000000000000 ) ) ;
#1032 = CARTESIAN_POINT ( 'NONE',  ( -3.299999999999999378, -1.199999999999999734, 0.1000000000000000056 ) ) ;
#1033 = ADVANCED_FACE ( 'NONE', ( #872 ), #420, .F. ) ;
#1034 = VERTEX_POINT ( 'NONE', #516 ) ;
#1035 = PRESENTATION_LAYER_ASSIGNMENT (  '', '', ( #95 ) ) ;
#1036 = FACE_OUTER_BOUND ( 'NONE', #1098, .T. ) ;
#1037 = LINE ( 'NONE', #775, #979 ) ;
#1038 = PRESENTATION_STYLE_ASSIGNMENT (( #776 ) ) ;
#1039 = PRESENTATION_STYLE_ASSIGNMENT (( #1128 ) ) ;
#1040 = ORIENTED_EDGE ( 'NONE', *, *, #45, .T. ) ;
#1041 =( NAMED_UNIT ( * ) PLANE_ANGLE_UNIT ( ) SI_UNIT ( $, .RADIAN. ) );
#1042 = DIRECTION ( 'NONE',  ( -1.000000000000000000, 0.000000000000000000, 0.000000000000000000 ) ) ;
#1043 = AXIS2_PLACEMENT_3D ( 'NONE', #185, #361, #716 ) ;
#1044 = DIRECTION ( 'NONE',  ( -2.168404344971008868E-16, -1.000000000000000000, 0.000000000000000000 ) ) ;
#1045 =( NAMED_UNIT ( * ) SI_UNIT ( $, .STERADIAN. ) SOLID_ANGLE_UNIT ( ) );
#1046 = VERTEX_POINT ( 'NONE', #335 ) ;
#1047 = PRESENTATION_STYLE_ASSIGNMENT (( #520 ) ) ;
#1048 = EDGE_CURVE ( 'NONE', #656, #889, #72, .T. ) ;
#1049 = MECHANICAL_DESIGN_GEOMETRIC_PRESENTATION_REPRESENTATION (  '', ( #210 ), #319 ) ;
#1050 = DIRECTION ( 'NONE',  ( 1.314184451497581259E-16, -1.000000000000000000, 0.000000000000000000 ) ) ;
#1051 = LINE ( 'NONE', #846, #34 ) ;
#1052 = UNCERTAINTY_MEASURE_WITH_UNIT (LENGTH_MEASURE( 1.000000000000000082E-05 ), #417, 'distance_accuracy_value', 'NONE');
#1053 = VERTEX_POINT ( 'NONE', #1032 ) ;
#1054 = CARTESIAN_POINT ( 'NONE',  ( -6.000000000000000000, 2.799999999999999822, 0.1000000000000000056 ) ) ;
#1055 = CARTESIAN_POINT ( 'NONE',  ( -6.800000000000001599, 3.299999999999999822, -1.399999999999999911 ) ) ;
#1056 = CARTESIAN_POINT ( 'NONE',  ( 3.299999999999998934, 2.799999999999999378, 0.1000000000000000056 ) ) ;
#1057 = ORIENTED_EDGE ( 'NONE', *, *, #777, .T. ) ;
#1058 = CARTESIAN_POINT ( 'NONE',  ( 6.000000000000000000, 2.800000000000001155, 0.1000000000000000056 ) ) ;
#1059 = FILL_AREA_STYLE ('',( #98 ) ) ;
#1060 = AXIS2_PLACEMENT_3D ( 'NONE', #247, #648, #881 ) ;
#1061 = DIRECTION ( 'NONE',  ( -1.000000000000000000, -2.168404344971008128E-16, 0.000000000000000000 ) ) ;
#1062 = SURFACE_SIDE_STYLE ('',( #99 ) ) ;
#1063 = AXIS2_PLACEMENT_3D ( 'NONE', #283, #445, #739 ) ;
#1064 = UNCERTAINTY_MEASURE_WITH_UNIT (LENGTH_MEASURE( 1.000000000000000082E-05 ), #178, 'distance_accuracy_value', 'NONE');
#1065 = EDGE_CURVE ( 'NONE', #311, #500, #248, .T. ) ;
#1066 = DIRECTION ( 'NONE',  ( -1.000000000000000000, 0.000000000000000000, 0.000000000000000000 ) ) ;
#1067 =( NAMED_UNIT ( * ) SI_UNIT ( $, .STERADIAN. ) SOLID_ANGLE_UNIT ( ) );
#1068 = EDGE_LOOP ( 'NONE', ( #1129, #433, #1136, #120 ) ) ;
#1069 = SURFACE_STYLE_FILL_AREA ( #901 ) ;
#1070 = LINE ( 'NONE', #370, #423 ) ;
#1071 =( GEOMETRIC_REPRESENTATION_CONTEXT ( 3 ) GLOBAL_UNCERTAINTY_ASSIGNED_CONTEXT ( ( #866 ) ) GLOBAL_UNIT_ASSIGNED_CONTEXT ( ( #613, #1041, #965 ) ) REPRESENTATION_CONTEXT ( 'NONE', 'WORKASPACE' ) );
#1072 = EDGE_LOOP ( 'NONE', ( #604, #553, #327, #263 ) ) ;
#1073 = SURFACE_STYLE_FILL_AREA ( #373 ) ;
#1074 = CARTESIAN_POINT ( 'NONE',  ( 4.999999999999999112, -1.199999999999998845, 0.000000000000000000 ) ) ;
#1075 =( LENGTH_UNIT ( ) NAMED_UNIT ( * ) SI_UNIT ( .MILLI., .METRE. ) );
#1076 = VECTOR ( 'NONE', #27, 1000.000000000000000 ) ;
#1077 = DIRECTION ( 'NONE',  ( -0.000000000000000000, -0.000000000000000000, -1.000000000000000000 ) ) ;
#1078 = VECTOR ( 'NONE', #374, 1000.000000000000000 ) ;
#1079 = UNCERTAINTY_MEASURE_WITH_UNIT (LENGTH_MEASURE( 1.000000000000000082E-05 ), #225, 'distance_accuracy_value', 'NONE');
#1080 = CARTESIAN_POINT ( 'NONE',  ( -6.000000000000000000, 2.799999999999999822, 0.1000000000000000056 ) ) ;
#1081 = CARTESIAN_POINT ( 'NONE',  ( -4.299999999999999822, -1.199999999999999734, 0.1000000000000000056 ) ) ;
#1082 = EDGE_CURVE ( 'NONE', #756, #165, #1051, .T. ) ;
#1083 = FACE_OUTER_BOUND ( 'NONE', #1016, .T. ) ;
#1084 = CARTESIAN_POINT ( 'NONE',  ( 3.299999999999998934, 2.799999999999999378, 0.000000000000000000 ) ) ;
#1085 = VECTOR ( 'NONE', #1018, 1000.000000000000000 ) ;
#1086 =( NAMED_UNIT ( * ) PLANE_ANGLE_UNIT ( ) SI_UNIT ( $, .RADIAN. ) );
#1087 = ORIENTED_EDGE ( 'NONE', *, *, #848, .T. ) ;
#1088 = EDGE_CURVE ( 'NONE', #876, #316, #528, .T. ) ;
#1089 = LINE ( 'NONE', #662, #1085 ) ;
#1090 = DIRECTION ( 'NONE',  ( 1.084202172485504927E-16, -1.000000000000000000, 0.000000000000000000 ) ) ;
#1091 = FILL_AREA_STYLE ('',( #916 ) ) ;
#1092 = AXIS2_PLACEMENT_3D ( 'NONE', #1105, #317, #43 ) ;
#1093 = ORIENTED_EDGE ( 'NONE', *, *, #308, .T. ) ;
#1094 = DIRECTION ( 'NONE',  ( -0.000000000000000000, -0.000000000000000000, -1.000000000000000000 ) ) ;
#1095 =( GEOMETRIC_REPRESENTATION_CONTEXT ( 3 ) GLOBAL_UNCERTAINTY_ASSIGNED_CONTEXT ( ( #821 ) ) GLOBAL_UNIT_ASSIGNED_CONTEXT ( ( #842, #657, #495 ) ) REPRESENTATION_CONTEXT ( 'NONE', 'WORKASPACE' ) );
#1096 = PRESENTATION_STYLE_ASSIGNMENT (( #1011 ) ) ;
#1097 = DIRECTION ( 'NONE',  ( 2.168404344971008868E-16, -1.000000000000000000, 0.000000000000000000 ) ) ;
#1098 = EDGE_LOOP ( 'NONE', ( #68, #336, #851, #352 ) ) ;
#1099 =( NAMED_UNIT ( * ) SI_UNIT ( $, .STERADIAN. ) SOLID_ANGLE_UNIT ( ) );
#1100 = ADVANCED_FACE ( 'NONE', ( #712 ), #705, .F. ) ;
#1101 = STYLED_ITEM ( 'NONE', ( #687 ), #96 ) ;
#1102 = ORIENTED_EDGE ( 'NONE', *, *, #737, .T. ) ;
#1103 = VECTOR ( 'NONE', #364, 1000.000000000000000 ) ;
#1104 =( GEOMETRIC_REPRESENTATION_CONTEXT ( 3 ) GLOBAL_UNCERTAINTY_ASSIGNED_CONTEXT ( ( #969 ) ) GLOBAL_UNIT_ASSIGNED_CONTEXT ( ( #882, #888, #450 ) ) REPRESENTATION_CONTEXT ( 'NONE', 'WORKASPACE' ) );
#1105 = CARTESIAN_POINT ( 'NONE',  ( 0.000000000000000000, 0.000000000000000000, 0.1000000000000000056 ) ) ;
#1106 = PRESENTATION_LAYER_ASSIGNMENT (  '', '', ( #210 ) ) ;
#1107 = VERTEX_POINT ( 'NONE', #1056 ) ;
#1108 = PRESENTATION_STYLE_ASSIGNMENT (( #1111 ) ) ;
#1109 = STYLED_ITEM ( 'NONE', ( #695 ), #1002 ) ;
#1110 = VERTEX_POINT ( 'NONE', #963 ) ;
#1111 = SURFACE_STYLE_USAGE ( .BOTH. , #845 ) ;
#1112 = EDGE_CURVE ( 'NONE', #1110, #914, #180, .T. ) ;
#1113 =( NAMED_UNIT ( * ) PLANE_ANGLE_UNIT ( ) SI_UNIT ( $, .RADIAN. ) );
#1114 = ORIENTED_EDGE ( 'NONE', *, *, #479, .T. ) ;
#1115 = COLOUR_RGB ( '',0.3294117647058823484, 0.5921568627450980449, 0.000000000000000000 ) ;
#1116 = AXIS2_PLACEMENT_3D ( 'NONE', #186, #281, #624 ) ;
#1117 = DIRECTION ( 'NONE',  ( 0.000000000000000000, -0.000000000000000000, -1.000000000000000000 ) ) ;
#1118 = EDGE_CURVE ( 'NONE', #561, #500, #39, .T. ) ;
#1119 = STYLED_ITEM ( 'NONE', ( #338 ), #680 ) ;
#1120 = DIRECTION ( 'NONE',  ( -0.000000000000000000, -0.000000000000000000, -1.000000000000000000 ) ) ;
#1121 = DIRECTION ( 'NONE',  ( 0.000000000000000000, 0.000000000000000000, 1.000000000000000000 ) ) ;
#1122 = ORIENTED_EDGE ( 'NONE', *, *, #348, .F. ) ;
#1123 = CARTESIAN_POINT ( 'NONE',  ( 3.299999999999999378, -1.199999999999998845, 0.1000000000000000056 ) ) ;
#1124 = VECTOR ( 'NONE', #323, 1000.000000000000000 ) ;
#1125 = PRESENTATION_LAYER_ASSIGNMENT (  '', '', ( #321 ) ) ;
#1126 = DIRECTION ( 'NONE',  ( -1.000000000000000000, -0.000000000000000000, -0.000000000000000000 ) ) ;
#1127 = FILL_AREA_STYLE ('',( #60 ) ) ;
#1128 = SURFACE_STYLE_USAGE ( .BOTH. , #938 ) ;
#1129 = ORIENTED_EDGE ( 'NONE', *, *, #822, .F. ) ;
#1130 = PRESENTATION_LAYER_ASSIGNMENT (  '', '', ( #138 ) ) ;
#1131 = PRODUCT ( 'AFBR-S4N66P024M Mount', 'AFBR-S4N66P024M Mount', '', ( #106 ) ) ;
#1132 = SURFACE_SIDE_STYLE ('',( #942 ) ) ;
#1133 = SURFACE_STYLE_FILL_AREA ( #1127 ) ;
#1134 = FILL_AREA_STYLE_COLOUR ( '', #174 ) ;
#1135 = UNCERTAINTY_MEASURE_WITH_UNIT (LENGTH_MEASURE( 1.000000000000000082E-05 ), #600, 'distance_accuracy_value', 'NONE');
#1136 = ORIENTED_EDGE ( 'NONE', *, *, #265, .T. ) ;
#1137 = DIRECTION ( 'NONE',  ( -1.000000000000000000, -0.000000000000000000, -0.000000000000000000 ) ) ;
#1138 = DIRECTION ( 'NONE',  ( -0.000000000000000000, -0.000000000000000000, -1.000000000000000000 ) ) ;
#1139 = ORIENTED_EDGE ( 'NONE', *, *, #251, .T. ) ;
#1140 = CARTESIAN_POINT ( 'NONE',  ( -6.800000000000001599, 3.299999999999999822, -1.399999999999999911 ) ) ;
#1141 = EDGE_LOOP ( 'NONE', ( #659, #438, #157, #478 ) ) ;
#1142 = PRESENTATION_STYLE_ASSIGNMENT (( #1003 ) ) ;
#1143 = SURFACE_STYLE_USAGE ( .BOTH. , #413 ) ;
#1144 =( LENGTH_UNIT ( ) NAMED_UNIT ( * ) SI_UNIT ( .MILLI., .METRE. ) );
#1145 = COLOUR_RGB ( '',1.000000000000000000, 0.9098039215686274384, 0.2156862745098039325 ) ;
ENDSEC;
END-ISO-10303-21;
