ISO-10303-21;
HEADER;
FILE_DESCRIPTION (( 'STEP AP214' ),
    '1' );
FILE_NAME ('HEPI Housing base.STEP',
    '2026-01-09T11:17:35',
    ( '' ),
    ( '' ),
    'SwSTEP 2.0',
    'SolidWorks 2024',
    '' );
FILE_SCHEMA (( 'AUTOMOTIVE_DESIGN' ));
ENDSEC;

DATA;
#1 = CYLINDRICAL_SURFACE ( 'NONE', #625, 0.5500000000000010436 ) ;
#2 = EDGE_CURVE ( 'NONE', #544, #730, #1189, .T. ) ;
#3 = ORIENTED_EDGE ( 'NONE', *, *, #909, .T. ) ;
#4 = CARTESIAN_POINT ( 'NONE',  ( 16.00000000000000000, 0.4999999999999995559, -1.749999999999999334 ) ) ;
#5 = CYLINDRICAL_SURFACE ( 'NONE', #1176, 1.499999999999999556 ) ;
#6 = CARTESIAN_POINT ( 'NONE',  ( -16.00000000000000000, 0.000000000000000000, -1.050000000000000266 ) ) ;
#7 = ORIENTED_EDGE ( 'NONE', *, *, #926, .T. ) ;
#8 = AXIS2_PLACEMENT_3D ( 'NONE', #1269, #1143, #514 ) ;
#9 = VERTEX_POINT ( 'NONE', #222 ) ;
#10 = DIRECTION ( 'NONE',  ( 0.000000000000000000, 0.000000000000000000, -1.000000000000000000 ) ) ;
#11 = AXIS2_PLACEMENT_3D ( 'NONE', #1071, #1307, #663 ) ;
#12 = ORIENTED_EDGE ( 'NONE', *, *, #435, .F. ) ;
#13 = DIRECTION ( 'NONE',  ( 0.000000000000000000, 0.000000000000000000, 1.000000000000000000 ) ) ;
#14 = DIRECTION ( 'NONE',  ( 0.000000000000000000, 0.000000000000000000, 1.000000000000000000 ) ) ;
#15 = CARTESIAN_POINT ( 'NONE',  ( -9.000000000000007105, 0.4999999999999995559, -10.50000000000000000 ) ) ;
#16 = ORIENTED_EDGE ( 'NONE', *, *, #978, .T. ) ;
#17 = VERTEX_POINT ( 'NONE', #1061 ) ;
#18 = ORIENTED_EDGE ( 'NONE', *, *, #743, .F. ) ;
#19 = CARTESIAN_POINT ( 'NONE',  ( 16.00000000000000000, 0.000000000000000000, -9.000000000000000000 ) ) ;
#20 = VERTEX_POINT ( 'NONE', #231 ) ;
#21 = FACE_OUTER_BOUND ( 'NONE', #1030, .T. ) ;
#22 = LINE ( 'NONE', #459, #49 ) ;
#23 = CARTESIAN_POINT ( 'NONE',  ( 13.99999999999999822, 0.000000000000000000, -0.2499999999999997780 ) ) ;
#24 = EDGE_LOOP ( 'NONE', ( #1153, #967, #491, #48 ) ) ;
#25 = VERTEX_POINT ( 'NONE', #959 ) ;
#26 = ORIENTED_EDGE ( 'NONE', *, *, #923, .T. ) ;
#27 = ORIENTED_EDGE ( 'NONE', *, *, #1072, .F. ) ;
#28 = CARTESIAN_POINT ( 'NONE',  ( 16.00000000000000000, 0.000000000000000000, 9.000000000000000000 ) ) ;
#29 = CARTESIAN_POINT ( 'NONE',  ( 16.00000000000000000, 0.4999999999999995559, -10.50000000000000355 ) ) ;
#30 = AXIS2_PLACEMENT_3D ( 'NONE', #502, #1253, #61 ) ;
#31 = DIRECTION ( 'NONE',  ( -1.000000000000000000, 0.000000000000000000, -4.956352788505166226E-16 ) ) ;
#32 = VERTEX_POINT ( 'NONE', #440 ) ;
#33 = EDGE_LOOP ( 'NONE', ( #318, #145, #196, #569 ) ) ;
#34 = ADVANCED_FACE ( 'NONE', ( #984 ), #526, .F. ) ;
#35 = VECTOR ( 'NONE', #693, 1000.000000000000000 ) ;
#36 = CARTESIAN_POINT ( 'NONE',  ( 17.50000000000000355, 0.4999999999999995559, -3.249999999999994227 ) ) ;
#37 = CARTESIAN_POINT ( 'NONE',  ( 15.50000000000000178, 0.4999999999999995559, 4.949999999999998401 ) ) ;
#38 = AXIS2_PLACEMENT_3D ( 'NONE', #19, #637, #331 ) ;
#39 = DIRECTION ( 'NONE',  ( 0.000000000000000000, -1.000000000000000000, 0.000000000000000000 ) ) ;
#40 = ORIENTED_EDGE ( 'NONE', *, *, #464, .T. ) ;
#41 = ADVANCED_FACE ( 'NONE', ( #448 ), #844, .T. ) ;
#42 = VERTEX_POINT ( 'NONE', #36 ) ;
#43 = CIRCLE ( 'NONE', #462, 1.500000000000000444 ) ;
#44 = DIRECTION ( 'NONE',  ( -0.000000000000000000, -1.000000000000000000, -0.000000000000000000 ) ) ;
#45 = CIRCLE ( 'NONE', #178, 1.049999999999998934 ) ;
#46 = FACE_OUTER_BOUND ( 'NONE', #633, .T. ) ;
#47 = ADVANCED_BREP_SHAPE_REPRESENTATION ( 'HEPI Housing base', ( #356, #475 ), #584 ) ;
#48 = ORIENTED_EDGE ( 'NONE', *, *, #1327, .F. ) ;
#49 = VECTOR ( 'NONE', #745, 1000.000000000000000 ) ;
#50 = DIRECTION ( 'NONE',  ( 1.652117596168387756E-16, 0.000000000000000000, -1.000000000000000000 ) ) ;
#51 = ADVANCED_FACE ( 'NONE', ( #139 ), #1, .F. ) ;
#52 = CARTESIAN_POINT ( 'NONE',  ( 15.50000000000000178, 0.000000000000000000, 3.799999999999999822 ) ) ;
#53 = VERTEX_POINT ( 'NONE', #270 ) ;
#54 = FACE_BOUND ( 'NONE', #1281, .T. ) ;
#55 = ADVANCED_FACE ( 'NONE', ( #654 ), #1082, .F. ) ;
#56 = VECTOR ( 'NONE', #327, 1000.000000000000000 ) ;
#57 = CARTESIAN_POINT ( 'NONE',  ( -16.00000000000000000, 0.4999999999999995559, 1.500000000000001998 ) ) ;
#58 = DIRECTION ( 'NONE',  ( 0.000000000000000000, 0.000000000000000000, 1.000000000000000000 ) ) ;
#59 = AXIS2_PLACEMENT_3D ( 'NONE', #1180, #1169, #1271 ) ;
#60 = DIRECTION ( 'NONE',  ( 0.000000000000000000, -1.000000000000000000, 0.000000000000000000 ) ) ;
#61 = DIRECTION ( 'NONE',  ( 0.000000000000000000, 0.000000000000000000, 1.000000000000000000 ) ) ;
#62 = AXIS2_PLACEMENT_3D ( 'NONE', #1284, #1182, #857 ) ;
#63 = CARTESIAN_POINT ( 'NONE',  ( 13.99999999999999822, 0.000000000000000000, 1.750000000000000888 ) ) ;
#64 = DIRECTION ( 'NONE',  ( -0.000000000000000000, -1.000000000000000000, -0.000000000000000000 ) ) ;
#65 = DIRECTION ( 'NONE',  ( -0.000000000000000000, -1.000000000000000000, -0.000000000000000000 ) ) ;
#66 = CARTESIAN_POINT ( 'NONE',  ( -12.00000000000000533, 0.000000000000000000, 3.000000000000003997 ) ) ;
#67 = EDGE_CURVE ( 'NONE', #232, #652, #543, .T. ) ;
#68 = CARTESIAN_POINT ( 'NONE',  ( -16.00000000000000000, 0.000000000000000000, -5.575896887068297953E-16 ) ) ;
#69 = PLANE ( 'NONE',  #402 ) ;
#70 = EDGE_CURVE ( 'NONE', #130, #935, #863, .T. ) ;
#71 = DIRECTION ( 'NONE',  ( -0.000000000000000000, 1.000000000000000000, -0.000000000000000000 ) ) ;
#72 = DIRECTION ( 'NONE',  ( -0.000000000000000000, -1.000000000000000000, -0.000000000000000000 ) ) ;
#73 = EDGE_CURVE ( 'NONE', #130, #1005, #607, .T. ) ;
#74 = DIRECTION ( 'NONE',  ( 0.000000000000000000, 0.000000000000000000, 1.000000000000000000 ) ) ;
#75 = FACE_OUTER_BOUND ( 'NONE', #336, .T. ) ;
#76 = EDGE_CURVE ( 'NONE', #915, #304, #457, .T. ) ;
#77 = FACE_BOUND ( 'NONE', #551, .T. ) ;
#78 = DIRECTION ( 'NONE',  ( -0.000000000000000000, 1.000000000000000000, -0.000000000000000000 ) ) ;
#79 = AXIS2_PLACEMENT_3D ( 'NONE', #756, #1316, #788 ) ;
#80 = DIRECTION ( 'NONE',  ( -0.000000000000000000, 1.000000000000000000, -0.000000000000000000 ) ) ;
#81 = DIRECTION ( 'NONE',  ( 0.000000000000000000, 1.000000000000000000, 0.000000000000000000 ) ) ;
#82 = CARTESIAN_POINT ( 'NONE',  ( -9.000000000000007105, 0.000000000000000000, 9.000000000000001776 ) ) ;
#83 = ORIENTED_EDGE ( 'NONE', *, *, #743, .T. ) ;
#84 = LINE ( 'NONE', #735, #578 ) ;
#85 = CARTESIAN_POINT ( 'NONE',  ( -16.00000000000000000, 0.000000000000000000, 0.000000000000000000 ) ) ;
#86 = VERTEX_POINT ( 'NONE', #458 ) ;
#87 = MECHANICAL_DESIGN_GEOMETRIC_PRESENTATION_REPRESENTATION (  '', ( #509 ), #379 ) ;
#88 = DIRECTION ( 'NONE',  ( -9.912705577010326782E-17, 0.000000000000000000, -1.000000000000000000 ) ) ;
#89 = AXIS2_PLACEMENT_3D ( 'NONE', #294, #170, #181 ) ;
#90 = MECHANICAL_DESIGN_GEOMETRIC_PRESENTATION_REPRESENTATION (  '', ( #366 ), #1234 ) ;
#91 = VERTEX_POINT ( 'NONE', #339 ) ;
#92 = DIRECTION ( 'NONE',  ( 0.000000000000000000, 0.000000000000000000, 1.000000000000000000 ) ) ;
#93 = PRODUCT ( 'HEPI Housing base', 'HEPI Housing base', '', ( #1091 ) ) ;
#94 = ORIENTED_EDGE ( 'NONE', *, *, #892, .T. ) ;
#95 = VERTEX_POINT ( 'NONE', #1300 ) ;
#96 = VERTEX_POINT ( 'NONE', #761 ) ;
#97 = DIRECTION ( 'NONE',  ( 0.000000000000000000, 1.000000000000000000, 0.000000000000000000 ) ) ;
#98 = CARTESIAN_POINT ( 'NONE',  ( 15.50000000000000178, 0.4999999999999995559, 3.249999999999998668 ) ) ;
#99 = VECTOR ( 'NONE', #660, 1000.000000000000000 ) ;
#100 = AXIS2_PLACEMENT_3D ( 'NONE', #1369, #88, #953 ) ;
#101 = FACE_OUTER_BOUND ( 'NONE', #552, .T. ) ;
#102 = ORIENTED_EDGE ( 'NONE', *, *, #1155, .T. ) ;
#103 = EDGE_CURVE ( 'NONE', #692, #1355, #388, .T. ) ;
#104 = CARTESIAN_POINT ( 'NONE',  ( 15.49999999999999822, 0.000000000000000000, -1.749999999999999112 ) ) ;
#105 = VERTEX_POINT ( 'NONE', #131 ) ;
#106 = VERTEX_POINT ( 'NONE', #770 ) ;
#107 = DIRECTION ( 'NONE',  ( 0.000000000000000000, 0.000000000000000000, 1.000000000000000000 ) ) ;
#108 = FACE_OUTER_BOUND ( 'NONE', #300, .T. ) ;
#109 = DIRECTION ( 'NONE',  ( 2.312964634635742661E-15, 0.000000000000000000, -1.000000000000000000 ) ) ;
#110 = ORIENTED_EDGE ( 'NONE', *, *, #516, .F. ) ;
#111 = VERTEX_POINT ( 'NONE', #880 ) ;
#112 = ADVANCED_FACE ( 'NONE', ( #372 ), #1199, .F. ) ;
#113 = DIRECTION ( 'NONE',  ( 0.000000000000000000, -1.000000000000000000, 0.000000000000000000 ) ) ;
#114 = VERTEX_POINT ( 'NONE', #798 ) ;
#115 = CARTESIAN_POINT ( 'NONE',  ( 16.00000000000000000, 0.000000000000000000, -10.50000000000000355 ) ) ;
#116 = CARTESIAN_POINT ( 'NONE',  ( 16.00000000000000000, 0.000000000000000000, 8.999999999999998224 ) ) ;
#117 = DIRECTION ( 'NONE',  ( -0.000000000000000000, -1.000000000000000000, -0.000000000000000000 ) ) ;
#118 = ORIENTED_EDGE ( 'NONE', *, *, #487, .T. ) ;
#119 = AXIS2_PLACEMENT_3D ( 'NONE', #505, #1166, #199 ) ;
#120 = ORIENTED_EDGE ( 'NONE', *, *, #380, .F. ) ;
#121 = DIRECTION ( 'NONE',  ( 0.000000000000000000, 1.000000000000000000, 0.000000000000000000 ) ) ;
#122 = VECTOR ( 'NONE', #920, 1000.000000000000000 ) ;
#123 = ORIENTED_EDGE ( 'NONE', *, *, #1159, .F. ) ;
#124 = LINE ( 'NONE', #1274, #629 ) ;
#125 = DIRECTION ( 'NONE',  ( -0.000000000000000000, -1.000000000000000000, -0.000000000000000000 ) ) ;
#126 = CARTESIAN_POINT ( 'NONE',  ( -10.50000000000000533, 0.000000000000000000, -10.49999999999999645 ) ) ;
#127 = EDGE_LOOP ( 'NONE', ( #777, #40, #110, #332 ) ) ;
#128 = AXIS2_PLACEMENT_3D ( 'NONE', #954, #81, #427 ) ;
#129 = ORIENTED_EDGE ( 'NONE', *, *, #892, .F. ) ;
#130 = VERTEX_POINT ( 'NONE', #1222 ) ;
#131 = CARTESIAN_POINT ( 'NONE',  ( 15.50000000000000178, 0.000000000000000000, -3.249999999999999112 ) ) ;
#132 = ORIENTED_EDGE ( 'NONE', *, *, #838, .F. ) ;
#133 = CYLINDRICAL_SURFACE ( 'NONE', #732, 1.049999999999998934 ) ;
#134 = DIRECTION ( 'NONE',  ( 0.000000000000000000, 1.000000000000000000, -0.000000000000000000 ) ) ;
#135 = EDGE_CURVE ( 'NONE', #205, #391, #321, .T. ) ;
#136 = CARTESIAN_POINT ( 'NONE',  ( -17.50000000000000000, 0.000000000000000000, 1.500000000000001332 ) ) ;
#137 = ORIENTED_EDGE ( 'NONE', *, *, #811, .F. ) ;
#138 = VERTEX_POINT ( 'NONE', #431 ) ;
#139 = FACE_OUTER_BOUND ( 'NONE', #1038, .T. ) ;
#140 = EDGE_CURVE ( 'NONE', #455, #344, #1254, .T. ) ;
#141 = CARTESIAN_POINT ( 'NONE',  ( -16.00000000000000000, 0.4999999999999995559, -5.575896887068297953E-16 ) ) ;
#142 = EDGE_CURVE ( 'NONE', #201, #424, #194, .T. ) ;
#143 = LINE ( 'NONE', #1193, #882 ) ;
#144 = ORIENTED_EDGE ( 'NONE', *, *, #1321, .T. ) ;
#145 = ORIENTED_EDGE ( 'NONE', *, *, #168, .T. ) ;
#146 = AXIS2_PLACEMENT_3D ( 'NONE', #282, #60, #1339 ) ;
#147 = ORIENTED_EDGE ( 'NONE', *, *, #635, .F. ) ;
#148 = SURFACE_STYLE_USAGE ( .BOTH. , #1319 ) ;
#149 = LINE ( 'NONE', #334, #396 ) ;
#150 = VECTOR ( 'NONE', #182, 1000.000000000000000 ) ;
#151 = FACE_OUTER_BOUND ( 'NONE', #465, .T. ) ;
#152 = ORIENTED_EDGE ( 'NONE', *, *, #1314, .F. ) ;
#153 = VECTOR ( 'NONE', #350, 1000.000000000000000 ) ;
#154 = EDGE_CURVE ( 'NONE', #1135, #391, #1023, .T. ) ;
#155 = DIRECTION ( 'NONE',  ( -0.000000000000000000, -1.000000000000000000, -0.000000000000000000 ) ) ;
#156 = CARTESIAN_POINT ( 'NONE',  ( 17.50000000000000000, 7.500000000000000000, 10.49999999999999645 ) ) ;
#157 = AXIS2_PLACEMENT_3D ( 'NONE', #444, #1075, #226 ) ;
#158 = ORIENTED_EDGE ( 'NONE', *, *, #795, .T. ) ;
#159 = LINE ( 'NONE', #492, #998 ) ;
#160 = CARTESIAN_POINT ( 'NONE',  ( -17.50000000000000000, 0.000000000000000000, 5.204170427930421283E-15 ) ) ;
#161 = AXIS2_PLACEMENT_3D ( 'NONE', #1328, #1220, #498 ) ;
#162 = LINE ( 'NONE', #896, #276 ) ;
#163 = DIRECTION ( 'NONE',  ( 0.000000000000000000, 0.000000000000000000, 1.000000000000000000 ) ) ;
#164 = AXIS2_PLACEMENT_3D ( 'NONE', #1132, #919, #474 ) ;
#165 = APPLICATION_PROTOCOL_DEFINITION ( 'draft international standard', 'automotive_design', 1998, #272 ) ;
#166 = CARTESIAN_POINT ( 'NONE',  ( 15.49999999999999822, 0.000000000000000000, -1.749999999999999112 ) ) ;
#167 = CARTESIAN_POINT ( 'NONE',  ( 16.00000000000000000, 0.000000000000000000, -7.950000000000000178 ) ) ;
#168 = EDGE_CURVE ( 'NONE', #205, #245, #193, .T. ) ;
#169 = EDGE_LOOP ( 'NONE', ( #1283, #1324, #942, #247 ) ) ;
#170 = DIRECTION ( 'NONE',  ( 0.000000000000000000, 1.000000000000000000, 0.000000000000000000 ) ) ;
#171 = CYLINDRICAL_SURFACE ( 'NONE', #653, 1.499999999999999556 ) ;
#172 = VECTOR ( 'NONE', #406, 1000.000000000000000 ) ;
#173 = VECTOR ( 'NONE', #1292, 1000.000000000000000 ) ;
#174 = AXIS2_PLACEMENT_3D ( 'NONE', #582, #1345, #58 ) ;
#175 = DIRECTION ( 'NONE',  ( 0.000000000000000000, 0.000000000000000000, -1.000000000000000000 ) ) ;
#176 = APPLICATION_CONTEXT ( 'automotive_design' ) ;
#177 = CARTESIAN_POINT ( 'NONE',  ( -12.00000000000000533, 0.000000000000000000, 1.500000000000004219 ) ) ;
#178 = AXIS2_PLACEMENT_3D ( 'NONE', #905, #44, #262 ) ;
#179 = EDGE_CURVE ( 'NONE', #20, #17, #990, .T. ) ;
#180 = ORIENTED_EDGE ( 'NONE', *, *, #619, .F. ) ;
#181 = DIRECTION ( 'NONE',  ( 0.000000000000000000, 0.000000000000000000, 1.000000000000000000 ) ) ;
#182 = DIRECTION ( 'NONE',  ( -0.000000000000000000, -1.000000000000000000, -0.000000000000000000 ) ) ;
#183 = AXIS2_PLACEMENT_3D ( 'NONE', #504, #606, #191 ) ;
#184 = CARTESIAN_POINT ( 'NONE',  ( -17.50000000000000000, 0.4999999999999995559, 1.500000000000001332 ) ) ;
#185 = EDGE_CURVE ( 'NONE', #853, #213, #716, .T. ) ;
#186 = SURFACE_STYLE_FILL_AREA ( #901 ) ;
#187 = LINE ( 'NONE', #1126, #1233 ) ;
#188 = CARTESIAN_POINT ( 'NONE',  ( 16.00000000000000000, 0.000000000000000000, 3.250000000000001332 ) ) ;
#189 = CIRCLE ( 'NONE', #1138, 1.500000000000000000 ) ;
#190 = ORIENTED_EDGE ( 'NONE', *, *, #816, .T. ) ;
#191 = DIRECTION ( 'NONE',  ( 0.000000000000000000, 0.000000000000000000, -1.000000000000000000 ) ) ;
#192 = CARTESIAN_POINT ( 'NONE',  ( 17.50000000000000000, 0.000000000000000000, 8.999999999999998224 ) ) ;
#193 = LINE ( 'NONE', #609, #150 ) ;
#194 = CIRCLE ( 'NONE', #963, 0.5500000000000014877 ) ;
#195 = EDGE_CURVE ( 'NONE', #281, #353, #1033, .T. ) ;
#196 = ORIENTED_EDGE ( 'NONE', *, *, #1213, .F. ) ;
#197 = CARTESIAN_POINT ( 'NONE',  ( 15.49999999999999822, 0.4999999999999995559, -1.749999999999999556 ) ) ;
#198 = UNCERTAINTY_MEASURE_WITH_UNIT (LENGTH_MEASURE( 1.000000000000000082E-05 ), #417, 'distance_accuracy_value', 'NONE');
#199 = DIRECTION ( 'NONE',  ( -1.652117596168387756E-16, 0.000000000000000000, 1.000000000000000000 ) ) ;
#200 = ORIENTED_EDGE ( 'NONE', *, *, #377, .T. ) ;
#201 = VERTEX_POINT ( 'NONE', #1111 ) ;
#202 = LINE ( 'NONE', #1356, #883 ) ;
#203 = ORIENTED_EDGE ( 'NONE', *, *, #782, .F. ) ;
#204 = DIRECTION ( 'NONE',  ( 1.000000000000000000, 0.000000000000000000, 4.956352788505165240E-16 ) ) ;
#205 = VERTEX_POINT ( 'NONE', #398 ) ;
#206 = ORIENTED_EDGE ( 'NONE', *, *, #1137, .F. ) ;
#207 = ORIENTED_EDGE ( 'NONE', *, *, #195, .F. ) ;
#208 = CARTESIAN_POINT ( 'NONE',  ( -10.50000000000000533, 0.4999999999999995559, 10.50000000000000355 ) ) ;
#209 = EDGE_CURVE ( 'NONE', #1005, #130, #588, .T. ) ;
#210 = CARTESIAN_POINT ( 'NONE',  ( 16.00000000000000000, 0.4999999999999995559, -3.249999999999999112 ) ) ;
#211 = ORIENTED_EDGE ( 'NONE', *, *, #441, .F. ) ;
#212 = AXIS2_PLACEMENT_3D ( 'NONE', #82, #1028, #506 ) ;
#213 = VERTEX_POINT ( 'NONE', #1118 ) ;
#214 = EDGE_LOOP ( 'NONE', ( #870, #897, #1066, #511 ) ) ;
#215 = CARTESIAN_POINT ( 'NONE',  ( -10.50000000000000533, 0.000000000000000000, 9.000000000000001776 ) ) ;
#216 = DIRECTION ( 'NONE',  ( -0.000000000000000000, 1.000000000000000000, -0.000000000000000000 ) ) ;
#217 = LINE ( 'NONE', #924, #894 ) ;
#218 = ORIENTED_EDGE ( 'NONE', *, *, #1299, .T. ) ;
#219 = ADVANCED_FACE ( 'NONE', ( #809 ), #171, .T. ) ;
#220 = ORIENTED_EDGE ( 'NONE', *, *, #421, .F. ) ;
#221 = VECTOR ( 'NONE', #587, 1000.000000000000000 ) ;
#222 = CARTESIAN_POINT ( 'NONE',  ( -17.50000000000000000, 0.4999999999999995559, 5.204170427930418128E-15 ) ) ;
#223 = AXIS2_PLACEMENT_3D ( 'NONE', #116, #426, #1192 ) ;
#224 = ORIENTED_EDGE ( 'NONE', *, *, #720, .T. ) ;
#225 = FACE_OUTER_BOUND ( 'NONE', #541, .T. ) ;
#226 = DIRECTION ( 'NONE',  ( 0.000000000000000000, 0.000000000000000000, 1.000000000000000000 ) ) ;
#227 = PLANE ( 'NONE',  #483 ) ;
#228 = ORIENTED_EDGE ( 'NONE', *, *, #1335, .T. ) ;
#229 = ORIENTED_EDGE ( 'NONE', *, *, #1072, .T. ) ;
#230 = ORIENTED_EDGE ( 'NONE', *, *, #1102, .T. ) ;
#231 = CARTESIAN_POINT ( 'NONE',  ( -10.50000000000000355, 0.4999999999999995559, -2.999999999999999112 ) ) ;
#232 = VERTEX_POINT ( 'NONE', #914 ) ;
#233 = CARTESIAN_POINT ( 'NONE',  ( 16.00000000000000000, 7.500000000000000000, 3.250000000000001332 ) ) ;
#234 = DIRECTION ( 'NONE',  ( 0.000000000000000000, 1.000000000000000000, 0.000000000000000000 ) ) ;
#235 = DIRECTION ( 'NONE',  ( -4.956352788505165240E-16, 0.000000000000000000, 1.000000000000000000 ) ) ;
#236 = ORIENTED_EDGE ( 'NONE', *, *, #1202, .T. ) ;
#237 = ORIENTED_EDGE ( 'NONE', *, *, #1000, .T. ) ;
#238 = DIRECTION ( 'NONE',  ( -0.000000000000000000, 1.000000000000000000, -0.000000000000000000 ) ) ;
#239 = ADVANCED_FACE ( 'NONE', ( #390 ), #283, .F. ) ;
#240 = CIRCLE ( 'NONE', #212, 1.499999999999999556 ) ;
#241 = ORIENTED_EDGE ( 'NONE', *, *, #140, .F. ) ;
#242 = CARTESIAN_POINT ( 'NONE',  ( 15.50000000000000178, 0.000000000000000000, 3.249999999999998668 ) ) ;
#243 = FACE_BOUND ( 'NONE', #643, .T. ) ;
#244 = PLANE ( 'NONE',  #1013 ) ;
#245 = VERTEX_POINT ( 'NONE', #821 ) ;
#246 = VECTOR ( 'NONE', #555, 1000.000000000000000 ) ;
#247 = ORIENTED_EDGE ( 'NONE', *, *, #516, .T. ) ;
#248 = ORIENTED_EDGE ( 'NONE', *, *, #726, .T. ) ;
#249 = EDGE_CURVE ( 'NONE', #105, #533, #813, .T. ) ;
#250 = DIRECTION ( 'NONE',  ( 0.000000000000000000, 0.000000000000000000, 1.000000000000000000 ) ) ;
#251 = EDGE_CURVE ( 'NONE', #53, #837, #1133, .T. ) ;
#252 = LINE ( 'NONE', #679, #221 ) ;
#253 = DIRECTION ( 'NONE',  ( -0.000000000000000000, -1.000000000000000000, -0.000000000000000000 ) ) ;
#254 = ORIENTED_EDGE ( 'NONE', *, *, #749, .T. ) ;
#255 = ORIENTED_EDGE ( 'NONE', *, *, #1122, .F. ) ;
#256 = VERTEX_POINT ( 'NONE', #275 ) ;
#257 = FACE_OUTER_BOUND ( 'NONE', #1089, .T. ) ;
#258 = CARTESIAN_POINT ( 'NONE',  ( 16.00000000000000000, 0.000000000000000000, -3.249999999999999112 ) ) ;
#259 = EDGE_CURVE ( 'NONE', #1150, #1288, #240, .T. ) ;
#260 = EDGE_LOOP ( 'NONE', ( #952, #118, #763, #453 ) ) ;
#261 =( NAMED_UNIT ( * ) SI_UNIT ( $, .STERADIAN. ) SOLID_ANGLE_UNIT ( ) );
#262 = DIRECTION ( 'NONE',  ( 0.000000000000000000, 0.000000000000000000, 1.000000000000000000 ) ) ;
#263 = VECTOR ( 'NONE', #1052, 1000.000000000000000 ) ;
#264 = CARTESIAN_POINT ( 'NONE',  ( -12.00000000000000533, 7.500000000000000000, 1.500000000000004219 ) ) ;
#265 = AXIS2_PLACEMENT_3D ( 'NONE', #299, #612, #1370 ) ;
#266 = ORIENTED_EDGE ( 'NONE', *, *, #771, .T. ) ;
#267 = DIRECTION ( 'NONE',  ( 1.652117596168387756E-16, 0.000000000000000000, -1.000000000000000000 ) ) ;
#268 = CARTESIAN_POINT ( 'NONE',  ( 15.49999999999999822, 0.4999999999999995559, 0.2500000000000009437 ) ) ;
#269 = CARTESIAN_POINT ( 'NONE',  ( -17.50000000000000000, 0.4999999999999995559, -10.50000000000000000 ) ) ;
#270 = CARTESIAN_POINT ( 'NONE',  ( 15.50000000000000178, 0.000000000000000000, -4.350000000000001421 ) ) ;
#271 = LINE ( 'NONE', #1336, #576 ) ;
#272 = APPLICATION_CONTEXT ( 'automotive_design' ) ;
#273 = DIRECTION ( 'NONE',  ( -0.000000000000000000, -1.000000000000000000, -0.000000000000000000 ) ) ;
#274 = PLANE ( 'NONE',  #1318 ) ;
#275 = CARTESIAN_POINT ( 'NONE',  ( 17.50000000000000000, 0.4999999999999995559, 3.250000000000002665 ) ) ;
#276 = VECTOR ( 'NONE', #1333, 1000.000000000000000 ) ;
#277 = PRODUCT_DEFINITION_FORMATION_WITH_SPECIFIED_SOURCE ( 'ANY', '', #93, .NOT_KNOWN. ) ;
#278 = CARTESIAN_POINT ( 'NONE',  ( -16.00000000000000000, 0.000000000000000000, 0.000000000000000000 ) ) ;
#279 = EDGE_CURVE ( 'NONE', #685, #95, #1272, .T. ) ;
#280 = DIRECTION ( 'NONE',  ( 0.000000000000000000, -1.000000000000000000, 0.000000000000000000 ) ) ;
#281 = VERTEX_POINT ( 'NONE', #925 ) ;
#282 = CARTESIAN_POINT ( 'NONE',  ( 16.00000000000000000, 0.000000000000000000, -9.000000000000005329 ) ) ;
#283 = CYLINDRICAL_SURFACE ( 'NONE', #829, 1.500000000000000444 ) ;
#284 = AXIS2_PLACEMENT_3D ( 'NONE', #626, #836, #1037 ) ;
#285 = CARTESIAN_POINT ( 'NONE',  ( 16.00000000000000000, 0.4999999999999995559, -9.000000000000000000 ) ) ;
#286 = ADVANCED_FACE ( 'NONE', ( #1011 ), #602, .F. ) ;
#287 = DIRECTION ( 'NONE',  ( -1.652117596168387756E-16, 0.000000000000000000, 1.000000000000000000 ) ) ;
#288 = VECTOR ( 'NONE', #134, 1000.000000000000000 ) ;
#289 = DIRECTION ( 'NONE',  ( 0.000000000000000000, 0.000000000000000000, -1.000000000000000000 ) ) ;
#290 = DIRECTION ( 'NONE',  ( 0.000000000000000000, 0.000000000000000000, 1.000000000000000000 ) ) ;
#291 = AXIS2_PLACEMENT_3D ( 'NONE', #1261, #631, #1047 ) ;
#292 = ORIENTED_EDGE ( 'NONE', *, *, #635, .T. ) ;
#293 = DIRECTION ( 'NONE',  ( 0.000000000000000000, 1.000000000000000000, 0.000000000000000000 ) ) ;
#294 = CARTESIAN_POINT ( 'NONE',  ( 15.50000000000000178, 0.000000000000000000, 3.799999999999999822 ) ) ;
#295 = CARTESIAN_POINT ( 'NONE',  ( -9.000000000000007105, 7.500000000000000000, -9.000000000000001776 ) ) ;
#296 = EDGE_CURVE ( 'NONE', #837, #533, #1238, .T. ) ;
#297 = PLANE ( 'NONE',  #100 ) ;
#298 = ADVANCED_FACE ( 'NONE', ( #1330 ), #803, .F. ) ;
#299 = CARTESIAN_POINT ( 'NONE',  ( -10.50000000000000533, 0.000000000000000000, 10.50000000000000355 ) ) ;
#300 = EDGE_LOOP ( 'NONE', ( #129, #1094, #931, #1087 ) ) ;
#301 = CIRCLE ( 'NONE', #79, 0.5500000000000010436 ) ;
#302 = ORIENTED_EDGE ( 'NONE', *, *, #2, .F. ) ;
#303 = CARTESIAN_POINT ( 'NONE',  ( 16.00000000000000000, 0.4999999999999995559, -9.000000000000005329 ) ) ;
#304 = VERTEX_POINT ( 'NONE', #167 ) ;
#305 = CARTESIAN_POINT ( 'NONE',  ( 15.49999999999999822, 0.4999999999999995559, 1.750000000000000666 ) ) ;
#306 = ORIENTED_EDGE ( 'NONE', *, *, #76, .F. ) ;
#307 = ADVANCED_FACE ( 'NONE', ( #800 ), #69, .F. ) ;
#308 = VERTEX_POINT ( 'NONE', #177 ) ;
#309 = CARTESIAN_POINT ( 'NONE',  ( 13.99999999999999822, 0.000000000000000000, -1.749999999999998890 ) ) ;
#310 = LINE ( 'NONE', #1048, #1123 ) ;
#311 = ORIENTED_EDGE ( 'NONE', *, *, #997, .T. ) ;
#312 = ADVANCED_FACE ( 'NONE', ( #895 ), #472, .F. ) ;
#313 = ORIENTED_EDGE ( 'NONE', *, *, #1179, .F. ) ;
#314 = CARTESIAN_POINT ( 'NONE',  ( -16.00000000000000000, 0.4999999999999995559, -1.050000000000000266 ) ) ;
#315 = CARTESIAN_POINT ( 'NONE',  ( 16.00000000000000000, 7.500000000000000000, -10.50000000000000355 ) ) ;
#316 = EDGE_CURVE ( 'NONE', #308, #1144, #589, .T. ) ;
#317 = CARTESIAN_POINT ( 'NONE',  ( 15.50000000000000178, 0.000000000000000000, -5.500000000000000000 ) ) ;
#318 = ORIENTED_EDGE ( 'NONE', *, *, #135, .F. ) ;
#319 = AXIS2_PLACEMENT_3D ( 'NONE', #951, #968, #347 ) ;
#320 = EDGE_CURVE ( 'NONE', #1073, #256, #686, .T. ) ;
#321 = LINE ( 'NONE', #740, #792 ) ;
#322 = VERTEX_POINT ( 'NONE', #374 ) ;
#323 = ORIENTED_EDGE ( 'NONE', *, *, #1266, .F. ) ;
#324 = DIRECTION ( 'NONE',  ( 0.000000000000000000, 0.000000000000000000, 1.000000000000000000 ) ) ;
#325 = DIRECTION ( 'NONE',  ( 0.000000000000000000, 1.000000000000000000, 0.000000000000000000 ) ) ;
#326 = AXIS2_PLACEMENT_3D ( 'NONE', #258, #39, #1100 ) ;
#327 = DIRECTION ( 'NONE',  ( 1.927470528863119295E-16, -0.000000000000000000, 1.000000000000000000 ) ) ;
#328 = EDGE_LOOP ( 'NONE', ( #753, #744, #518, #446 ) ) ;
#329 = ORIENTED_EDGE ( 'NONE', *, *, #2, .T. ) ;
#330 = ORIENTED_EDGE ( 'NONE', *, *, #487, .F. ) ;
#331 = DIRECTION ( 'NONE',  ( 0.000000000000000000, 0.000000000000000000, 1.000000000000000000 ) ) ;
#332 = ORIENTED_EDGE ( 'NONE', *, *, #890, .F. ) ;
#333 = CARTESIAN_POINT ( 'NONE',  ( -17.50000000000000000, 0.000000000000000000, 10.50000000000000000 ) ) ;
#334 = CARTESIAN_POINT ( 'NONE',  ( 16.00000000000000000, 7.500000000000000000, 10.49999999999999645 ) ) ;
#335 = DIRECTION ( 'NONE',  ( -0.000000000000000000, 1.000000000000000000, -0.000000000000000000 ) ) ;
#336 = EDGE_LOOP ( 'NONE', ( #1078, #983, #877, #861 ) ) ;
#337 = ORIENTED_EDGE ( 'NONE', *, *, #573, .F. ) ;
#338 = AXIS2_PLACEMENT_3D ( 'NONE', #688, #64, #1131 ) ;
#339 = CARTESIAN_POINT ( 'NONE',  ( 16.00000000000000000, 0.000000000000000000, 10.04999999999999893 ) ) ;
#340 = ORIENTED_EDGE ( 'NONE', *, *, #535, .F. ) ;
#341 = FACE_BOUND ( 'NONE', #991, .T. ) ;
#342 = AXIS2_PLACEMENT_3D ( 'NONE', #393, #497, #74 ) ;
#343 = CARTESIAN_POINT ( 'NONE',  ( 17.50000000000000355, 0.000000000000000000, -9.000000000000000000 ) ) ;
#344 = VERTEX_POINT ( 'NONE', #1116 ) ;
#345 = ORIENTED_EDGE ( 'NONE', *, *, #666, .F. ) ;
#346 = ORIENTED_EDGE ( 'NONE', *, *, #67, .T. ) ;
#347 = DIRECTION ( 'NONE',  ( 0.000000000000000000, 0.000000000000000000, 1.000000000000000000 ) ) ;
#348 = CARTESIAN_POINT ( 'NONE',  ( -16.00000000000000000, 0.4999999999999995559, 1.734723475976807094E-15 ) ) ;
#349 = DIRECTION ( 'NONE',  ( -1.000000000000000000, -0.000000000000000000, 9.912705577010325549E-17 ) ) ;
#350 = DIRECTION ( 'NONE',  ( 0.000000000000000000, 1.000000000000000000, 0.000000000000000000 ) ) ;
#351 = ORIENTED_EDGE ( 'NONE', *, *, #380, .T. ) ;
#352 = VECTOR ( 'NONE', #1210, 1000.000000000000000 ) ;
#353 = VERTEX_POINT ( 'NONE', #676 ) ;
#354 = ORIENTED_EDGE ( 'NONE', *, *, #1056, .T. ) ;
#355 = VECTOR ( 'NONE', #1315, 1000.000000000000000 ) ;
#356 = MANIFOLD_SOLID_BREP ( 'Cut-Extrude12', #850 ) ;
#357 = SHAPE_DEFINITION_REPRESENTATION ( #1044, #47 ) ;
#358 = CARTESIAN_POINT ( 'NONE',  ( 16.00000000000000000, 0.4999999999999995559, -10.04999999999999893 ) ) ;
#359 = CIRCLE ( 'NONE', #1129, 1.050000000000000266 ) ;
#360 = DIRECTION ( 'NONE',  ( -0.000000000000000000, -1.000000000000000000, -0.000000000000000000 ) ) ;
#361 = EDGE_LOOP ( 'NONE', ( #854, #613, #412, #302 ) ) ;
#362 = LINE ( 'NONE', #63, #943 ) ;
#363 = EDGE_CURVE ( 'NONE', #1303, #138, #807, .T. ) ;
#364 = CARTESIAN_POINT ( 'NONE',  ( 15.49999999999999822, 0.000000000000000000, 1.750000000000000666 ) ) ;
#365 = ORIENTED_EDGE ( 'NONE', *, *, #1344, .T. ) ;
#366 = STYLED_ITEM ( 'NONE', ( #670 ), #47 ) ;
#367 = VECTOR ( 'NONE', #1329, 1000.000000000000000 ) ;
#368 = DIRECTION ( 'NONE',  ( -0.000000000000000000, -1.000000000000000000, -0.000000000000000000 ) ) ;
#369 = VECTOR ( 'NONE', #1334, 1000.000000000000000 ) ;
#370 = ORIENTED_EDGE ( 'NONE', *, *, #725, .F. ) ;
#371 = CYLINDRICAL_SURFACE ( 'NONE', #1070, 0.5500000000000010436 ) ;
#372 = FACE_OUTER_BOUND ( 'NONE', #1211, .T. ) ;
#373 = DIRECTION ( 'NONE',  ( 1.652117596168387756E-16, 0.000000000000000000, -1.000000000000000000 ) ) ;
#374 = CARTESIAN_POINT ( 'NONE',  ( -16.00000000000000000, 0.000000000000000000, 1.500000000000001998 ) ) ;
#375 = FACE_OUTER_BOUND ( 'NONE', #1146, .T. ) ;
#376 = DIRECTION ( 'NONE',  ( 0.000000000000000000, 0.000000000000000000, -1.000000000000000000 ) ) ;
#377 = EDGE_CURVE ( 'NONE', #408, #567, #579, .T. ) ;
#378 = DIRECTION ( 'NONE',  ( -0.000000000000000000, -1.000000000000000000, -0.000000000000000000 ) ) ;
#379 =( GEOMETRIC_REPRESENTATION_CONTEXT ( 3 ) GLOBAL_UNCERTAINTY_ASSIGNED_CONTEXT ( ( #1026 ) ) GLOBAL_UNIT_ASSIGNED_CONTEXT ( ( #1025, #478, #1338 ) ) REPRESENTATION_CONTEXT ( 'NONE', 'WORKASPACE' ) );
#380 = EDGE_CURVE ( 'NONE', #105, #53, #758, .T. ) ;
#381 = CARTESIAN_POINT ( 'NONE',  ( 16.00000000000000000, 0.000000000000000000, 9.000000000000000000 ) ) ;
#382 = CARTESIAN_POINT ( 'NONE',  ( 16.00000000000000000, 0.4999999999999995559, 8.999999999999998224 ) ) ;
#383 = EDGE_CURVE ( 'NONE', #1079, #205, #927, .T. ) ;
#384 = VECTOR ( 'NONE', #1012, 1000.000000000000000 ) ;
#385 = COLOUR_RGB ( '',0.7921568627450980005, 0.8196078431372548767, 0.9333333333333333481 ) ;
#386 = CARTESIAN_POINT ( 'NONE',  ( 17.50000000000000000, 0.4999999999999995559, 10.49999999999999645 ) ) ;
#387 = DIRECTION ( 'NONE',  ( 0.000000000000000000, 0.000000000000000000, 1.000000000000000000 ) ) ;
#388 = CIRCLE ( 'NONE', #11, 0.5500000000000014877 ) ;
#389 = CARTESIAN_POINT ( 'NONE',  ( 17.50000000000000000, 0.4999999999999995559, 8.999999999999998224 ) ) ;
#390 = FACE_OUTER_BOUND ( 'NONE', #960, .T. ) ;
#391 = VERTEX_POINT ( 'NONE', #493 ) ;
#392 = AXIS2_PLACEMENT_3D ( 'NONE', #348, #443, #847 ) ;
#393 = CARTESIAN_POINT ( 'NONE',  ( 15.50000000000000178, 0.4999999999999995559, 3.799999999999999822 ) ) ;
#394 = PRESENTATION_STYLE_ASSIGNMENT (( #1021 ) ) ;
#395 = EDGE_CURVE ( 'NONE', #114, #523, #43, .T. ) ;
#396 = VECTOR ( 'NONE', #671, 1000.000000000000000 ) ;
#397 = DIRECTION ( 'NONE',  ( 0.000000000000000000, 0.000000000000000000, 1.000000000000000000 ) ) ;
#398 = CARTESIAN_POINT ( 'NONE',  ( 13.99999999999999822, 0.4999999999999995559, 0.2500000000000002220 ) ) ;
#399 = CIRCLE ( 'NONE', #1058, 1.499999999999999556 ) ;
#400 = ORIENTED_EDGE ( 'NONE', *, *, #1276, .F. ) ;
#401 = DIRECTION ( 'NONE',  ( -1.000000000000000000, 0.000000000000000000, 0.000000000000000000 ) ) ;
#402 = AXIS2_PLACEMENT_3D ( 'NONE', #156, #1109, #287 ) ;
#403 = LINE ( 'NONE', #6, #742 ) ;
#404 = DIRECTION ( 'NONE',  ( 0.000000000000000000, 0.000000000000000000, 1.000000000000000000 ) ) ;
#405 = ORIENTED_EDGE ( 'NONE', *, *, #749, .F. ) ;
#406 = DIRECTION ( 'NONE',  ( 0.000000000000000000, -1.000000000000000000, -0.000000000000000000 ) ) ;
#407 = CYLINDRICAL_SURFACE ( 'NONE', #938, 1.050000000000000266 ) ;
#408 = VERTEX_POINT ( 'NONE', #160 ) ;
#409 = AXIS2_PLACEMENT_3D ( 'NONE', #188, #825, #585 ) ;
#410 = ADVANCED_FACE ( 'NONE', ( #75 ), #918, .F. ) ;
#411 = AXIS2_PLACEMENT_3D ( 'NONE', #936, #1364, #824 ) ;
#412 = ORIENTED_EDGE ( 'NONE', *, *, #816, .F. ) ;
#413 = LINE ( 'NONE', #1136, #172 ) ;
#414 = DIRECTION ( 'NONE',  ( 0.000000000000000000, 0.000000000000000000, 1.000000000000000000 ) ) ;
#415 = ORIENTED_EDGE ( 'NONE', *, *, #168, .F. ) ;
#416 = EDGE_CURVE ( 'NONE', #281, #344, #1216, .T. ) ;
#417 =( LENGTH_UNIT ( ) NAMED_UNIT ( * ) SI_UNIT ( .MILLI., .METRE. ) );
#418 = CARTESIAN_POINT ( 'NONE',  ( -9.000000000000007105, 0.4999999999999995559, 10.50000000000000000 ) ) ;
#419 = CYLINDRICAL_SURFACE ( 'NONE', #1188, 0.5500000000000010436 ) ;
#420 = EDGE_LOOP ( 'NONE', ( #266, #1245, #646, #860, #237, #739, #709, #642, #869, #846, #845, #974, #241, #1101, #1160, #1167, #759, #292, #1185, #463, #230, #102, #1259 ) ) ;
#421 = EDGE_CURVE ( 'NONE', #95, #256, #945, .T. ) ;
#422 = ADVANCED_FACE ( 'NONE', ( #1147 ), #297, .F. ) ;
#423 = CARTESIAN_POINT ( 'NONE',  ( 15.50000000000000178, 0.4999999999999995559, -5.500000000000000000 ) ) ;
#424 = VERTEX_POINT ( 'NONE', #98 ) ;
#425 = DIRECTION ( 'NONE',  ( 1.000000000000000000, 0.000000000000000000, -9.912705577010325549E-17 ) ) ;
#426 = DIRECTION ( 'NONE',  ( 0.000000000000000000, -1.000000000000000000, 0.000000000000000000 ) ) ;
#427 = DIRECTION ( 'NONE',  ( 0.000000000000000000, 0.000000000000000000, 1.000000000000000000 ) ) ;
#428 = ORIENTED_EDGE ( 'NONE', *, *, #142, .T. ) ;
#429 = AXIS2_PLACEMENT_3D ( 'NONE', #423, #534, #250 ) ;
#430 = EDGE_LOOP ( 'NONE', ( #224, #1062 ) ) ;
#431 = CARTESIAN_POINT ( 'NONE',  ( -16.00000000000000000, 0.4999999999999995559, 1.050000000000000266 ) ) ;
#432 = ORIENTED_EDGE ( 'NONE', *, *, #838, .T. ) ;
#433 = CARTESIAN_POINT ( 'NONE',  ( 15.50000000000000178, 0.000000000000000000, 4.350000000000001421 ) ) ;
#434 = CYLINDRICAL_SURFACE ( 'NONE', #636, 1.500000000000000000 ) ;
#435 = EDGE_CURVE ( 'NONE', #17, #1049, #202, .T. ) ;
#436 = DIRECTION ( 'NONE',  ( 1.000000000000000000, 0.000000000000000000, -1.858632295689434870E-16 ) ) ;
#437 = ORIENTED_EDGE ( 'NONE', *, *, #795, .F. ) ;
#438 = ORIENTED_EDGE ( 'NONE', *, *, #573, .T. ) ;
#439 = ORIENTED_EDGE ( 'NONE', *, *, #316, .T. ) ;
#440 = CARTESIAN_POINT ( 'NONE',  ( 16.00000000000000000, 0.000000000000000000, 7.950000000000000178 ) ) ;
#441 = EDGE_CURVE ( 'NONE', #1073, #685, #413, .T. ) ;
#442 = VERTEX_POINT ( 'NONE', #1256 ) ;
#443 = DIRECTION ( 'NONE',  ( -0.000000000000000000, -1.000000000000000000, -0.000000000000000000 ) ) ;
#444 = CARTESIAN_POINT ( 'NONE',  ( 15.50000000000000178, 0.4999999999999995559, -5.500000000000000000 ) ) ;
#445 = CARTESIAN_POINT ( 'NONE',  ( -16.00000000000000000, 0.000000000000000000, -1.500000000000000666 ) ) ;
#446 = ORIENTED_EDGE ( 'NONE', *, *, #485, .F. ) ;
#447 = ORIENTED_EDGE ( 'NONE', *, *, #1265, .T. ) ;
#448 = FACE_OUTER_BOUND ( 'NONE', #620, .T. ) ;
#449 = CYLINDRICAL_SURFACE ( 'NONE', #1069, 1.050000000000000266 ) ;
#450 = LINE ( 'NONE', #874, #525 ) ;
#451 = AXIS2_PLACEMENT_3D ( 'NONE', #913, #494, #1242 ) ;
#452 = LINE ( 'NONE', #566, #519 ) ;
#453 = ORIENTED_EDGE ( 'NONE', *, *, #789, .F. ) ;
#454 = ORIENTED_EDGE ( 'NONE', *, *, #1247, .T. ) ;
#455 = VERTEX_POINT ( 'NONE', #418 ) ;
#456 = EDGE_CURVE ( 'NONE', #853, #955, #1351, .T. ) ;
#457 = CIRCLE ( 'NONE', #59, 1.049999999999998934 ) ;
#458 = CARTESIAN_POINT ( 'NONE',  ( 16.00000000000000000, 0.4999999999999995559, 7.950000000000000178 ) ) ;
#459 = CARTESIAN_POINT ( 'NONE',  ( -10.50000000000000533, 0.000000000000000000, 9.000000000000001776 ) ) ;
#460 = FACE_OUTER_BOUND ( 'NONE', #697, .T. ) ;
#461 = AXIS2_PLACEMENT_3D ( 'NONE', #1368, #97, #13 ) ;
#462 = AXIS2_PLACEMENT_3D ( 'NONE', #911, #1240, #704 ) ;
#463 = ORIENTED_EDGE ( 'NONE', *, *, #135, .T. ) ;
#464 = EDGE_CURVE ( 'NONE', #651, #96, #517, .T. ) ;
#465 = EDGE_LOOP ( 'NONE', ( #1194, #1171, #83, #340 ) ) ;
#466 = CIRCLE ( 'NONE', #1367, 1.499999999999999556 ) ;
#467 = EDGE_CURVE ( 'NONE', #651, #1359, #710, .T. ) ;
#468 = LINE ( 'NONE', #484, #565 ) ;
#469 = VECTOR ( 'NONE', #80, 1000.000000000000000 ) ;
#470 = LINE ( 'NONE', #1077, #99 ) ;
#471 = CARTESIAN_POINT ( 'NONE',  ( 16.00000000000000000, 0.000000000000000000, 10.49999999999999645 ) ) ;
#472 = CYLINDRICAL_SURFACE ( 'NONE', #1294, 0.5500000000000014877 ) ;
#473 = ORIENTED_EDGE ( 'NONE', *, *, #103, .T. ) ;
#474 = DIRECTION ( 'NONE',  ( 0.000000000000000000, 0.000000000000000000, 1.000000000000000000 ) ) ;
#475 = AXIS2_PLACEMENT_3D ( 'NONE', #1325, #793, #1224 ) ;
#476 = AXIS2_PLACEMENT_3D ( 'NONE', #802, #1022, #289 ) ;
#477 = CARTESIAN_POINT ( 'NONE',  ( 15.50000000000000178, 0.000000000000000000, -4.949999999999998401 ) ) ;
#478 =( NAMED_UNIT ( * ) PLANE_ANGLE_UNIT ( ) SI_UNIT ( $, .RADIAN. ) );
#479 = ADVANCED_FACE ( 'NONE', ( #934 ), #929, .T. ) ;
#480 = ORIENTED_EDGE ( 'NONE', *, *, #1321, .F. ) ;
#481 = FACE_BOUND ( 'NONE', #1018, .T. ) ;
#482 = DIRECTION ( 'NONE',  ( -0.000000000000000000, -1.000000000000000000, -0.000000000000000000 ) ) ;
#483 = AXIS2_PLACEMENT_3D ( 'NONE', #1184, #235, #1203 ) ;
#484 = CARTESIAN_POINT ( 'NONE',  ( -17.50000000000000000, 7.500000000000000000, 1.734723475976807094E-15 ) ) ;
#485 = EDGE_CURVE ( 'NONE', #111, #106, #399, .T. ) ;
#486 = FILL_AREA_STYLE_COLOUR ( '', #1231 ) ;
#487 = EDGE_CURVE ( 'NONE', #25, #652, #84, .T. ) ;
#488 = ORIENTED_EDGE ( 'NONE', *, *, #383, .F. ) ;
#489 = FACE_OUTER_BOUND ( 'NONE', #361, .T. ) ;
#490 = DIRECTION ( 'NONE',  ( -0.000000000000000000, -1.000000000000000000, -0.000000000000000000 ) ) ;
#491 = ORIENTED_EDGE ( 'NONE', *, *, #142, .F. ) ;
#492 = CARTESIAN_POINT ( 'NONE',  ( 17.50000000000000000, 0.4999999999999995559, 10.49999999999999645 ) ) ;
#493 = CARTESIAN_POINT ( 'NONE',  ( 13.99999999999999822, 0.4999999999999995559, -0.2499999999999997780 ) ) ;
#494 = DIRECTION ( 'NONE',  ( 0.000000000000000000, -1.000000000000000000, 0.000000000000000000 ) ) ;
#495 = CARTESIAN_POINT ( 'NONE',  ( 13.99999999999999822, 7.500000000000000000, -0.2499999999999993616 ) ) ;
#496 = EDGE_CURVE ( 'NONE', #523, #111, #715, .T. ) ;
#497 = DIRECTION ( 'NONE',  ( -0.000000000000000000, -1.000000000000000000, -0.000000000000000000 ) ) ;
#498 = DIRECTION ( 'NONE',  ( 0.000000000000000000, 0.000000000000000000, 1.000000000000000000 ) ) ;
#499 = VECTOR ( 'NONE', #78, 1000.000000000000000 ) ;
#500 = PRODUCT_DEFINITION_CONTEXT ( 'detailed design', #272, 'design' ) ;
#501 = FACE_OUTER_BOUND ( 'NONE', #718, .T. ) ;
#502 = CARTESIAN_POINT ( 'NONE',  ( 15.50000000000000178, 0.4999999999999995559, -3.799999999999999822 ) ) ;
#503 = VECTOR ( 'NONE', #117, 1000.000000000000000 ) ;
#504 = CARTESIAN_POINT ( 'NONE',  ( 16.00000000000000000, 7.500000000000000000, -9.000000000000005329 ) ) ;
#505 = CARTESIAN_POINT ( 'NONE',  ( 17.50000000000000000, 7.500000000000000000, 10.49999999999999645 ) ) ;
#506 = DIRECTION ( 'NONE',  ( 0.000000000000000000, 0.000000000000000000, -1.000000000000000000 ) ) ;
#507 = ORIENTED_EDGE ( 'NONE', *, *, #682, .F. ) ;
#508 = CARTESIAN_POINT ( 'NONE',  ( 15.50000000000000178, 0.000000000000000000, -4.949999999999998401 ) ) ;
#509 = STYLED_ITEM ( 'NONE', ( #394 ), #356 ) ;
#510 = PLANE ( 'NONE',  #119 ) ;
#511 = ORIENTED_EDGE ( 'NONE', *, *, #377, .F. ) ;
#512 = AXIS2_PLACEMENT_3D ( 'NONE', #1113, #810, #1239 ) ;
#513 = CARTESIAN_POINT ( 'NONE',  ( 15.50000000000000178, 0.4999999999999995559, -3.249999999999999112 ) ) ;
#514 = DIRECTION ( 'NONE',  ( 0.000000000000000000, 0.000000000000000000, 1.000000000000000000 ) ) ;
#515 = ORIENTED_EDGE ( 'NONE', *, *, #395, .T. ) ;
#516 = EDGE_CURVE ( 'NONE', #1187, #96, #834, .T. ) ;
#517 = CIRCLE ( 'NONE', #1304, 1.499999999999999556 ) ;
#518 = ORIENTED_EDGE ( 'NONE', *, *, #1015, .F. ) ;
#519 = VECTOR ( 'NONE', #995, 1000.000000000000000 ) ;
#520 = CARTESIAN_POINT ( 'NONE',  ( -10.50000000000000533, 0.000000000000000000, 10.50000000000000355 ) ) ;
#521 = DIRECTION ( 'NONE',  ( 0.000000000000000000, 0.000000000000000000, 1.000000000000000000 ) ) ;
#522 = DIRECTION ( 'NONE',  ( 1.000000000000000000, 0.000000000000000000, -9.912705577010326782E-17 ) ) ;
#523 = VERTEX_POINT ( 'NONE', #721 ) ;
#524 = ADVANCED_FACE ( 'NONE', ( #1250 ), #1040, .F. ) ;
#525 = VECTOR ( 'NONE', #349, 1000.000000000000000 ) ;
#526 = PLANE ( 'NONE',  #1141 ) ;
#527 = ORIENTED_EDGE ( 'NONE', *, *, #678, .F. ) ;
#528 = ORIENTED_EDGE ( 'NONE', *, *, #251, .F. ) ;
#529 = FACE_OUTER_BOUND ( 'NONE', #822, .T. ) ;
#530 = DIRECTION ( 'NONE',  ( 0.000000000000000000, 0.000000000000000000, 1.000000000000000000 ) ) ;
#531 = DIRECTION ( 'NONE',  ( 0.000000000000000000, 0.000000000000000000, -1.000000000000000000 ) ) ;
#532 = ORIENTED_EDGE ( 'NONE', *, *, #496, .T. ) ;
#533 = VERTEX_POINT ( 'NONE', #513 ) ;
#534 = DIRECTION ( 'NONE',  ( -0.000000000000000000, -1.000000000000000000, -0.000000000000000000 ) ) ;
#535 = EDGE_CURVE ( 'NONE', #605, #442, #888, .T. ) ;
#536 = EDGE_LOOP ( 'NONE', ( #768, #94, #144, #1107 ) ) ;
#537 = CARTESIAN_POINT ( 'NONE',  ( -16.00000000000000000, 0.000000000000000000, 0.000000000000000000 ) ) ;
#538 = VECTOR ( 'NONE', #1010, 1000.000000000000000 ) ;
#539 = DIRECTION ( 'NONE',  ( 0.000000000000000000, 0.000000000000000000, 1.000000000000000000 ) ) ;
#540 = CARTESIAN_POINT ( 'NONE',  ( -12.00000000000000355, 0.000000000000000000, -1.499999999999998446 ) ) ;
#541 = EDGE_LOOP ( 'NONE', ( #211, #1148, #220, #1059 ) ) ;
#542 = ORIENTED_EDGE ( 'NONE', *, *, #736, .F. ) ;
#543 = CIRCLE ( 'NONE', #429, 0.5500000000000010436 ) ;
#544 = VERTEX_POINT ( 'NONE', #197 ) ;
#545 = ADVANCED_FACE ( 'NONE', ( #828 ), #624, .F. ) ;
#546 = CARTESIAN_POINT ( 'NONE',  ( -17.50000000000000000, 7.500000000000000000, -10.50000000000000000 ) ) ;
#547 = VERTEX_POINT ( 'NONE', #508 ) ;
#548 = DIRECTION ( 'NONE',  ( -0.000000000000000000, 1.000000000000000000, -0.000000000000000000 ) ) ;
#549 = DIRECTION ( 'NONE',  ( 0.000000000000000000, 0.000000000000000000, 1.000000000000000000 ) ) ;
#550 = DIRECTION ( 'NONE',  ( 1.000000000000000000, 0.000000000000000000, -1.927470528863119295E-16 ) ) ;
#551 = EDGE_LOOP ( 'NONE', ( #937, #1279 ) ) ;
#552 = EDGE_LOOP ( 'NONE', ( #27, #989, #833, #203 ) ) ;
#553 = ORIENTED_EDGE ( 'NONE', *, *, #1000, .F. ) ;
#554 = DIRECTION ( 'NONE',  ( 0.000000000000000000, 0.000000000000000000, 1.000000000000000000 ) ) ;
#555 = DIRECTION ( 'NONE',  ( -0.000000000000000000, 1.000000000000000000, -0.000000000000000000 ) ) ;
#556 = DIRECTION ( 'NONE',  ( -0.000000000000000000, 1.000000000000000000, -0.000000000000000000 ) ) ;
#557 = DIRECTION ( 'NONE',  ( 4.956352788505166226E-16, 0.000000000000000000, -1.000000000000000000 ) ) ;
#558 = EDGE_LOOP ( 'NONE', ( #815, #982, #345, #337 ) ) ;
#559 = ADVANCED_FACE ( 'NONE', ( #108 ), #5, .T. ) ;
#560 = ORIENTED_EDGE ( 'NONE', *, *, #1223, .T. ) ;
#561 = ORIENTED_EDGE ( 'NONE', *, *, #904, .F. ) ;
#562 = DIRECTION ( 'NONE',  ( 0.000000000000000000, 0.000000000000000000, -1.000000000000000000 ) ) ;
#563 = CARTESIAN_POINT ( 'NONE',  ( -16.00000000000000000, 0.000000000000000000, -1.500000000000000666 ) ) ;
#564 = ADVANCED_FACE ( 'NONE', ( #1098 ), #434, .T. ) ;
#565 = VECTOR ( 'NONE', #702, 1000.000000000000000 ) ;
#566 = CARTESIAN_POINT ( 'NONE',  ( -17.50000000000000000, 0.000000000000000000, 1.500000000000001332 ) ) ;
#567 = VERTEX_POINT ( 'NONE', #563 ) ;
#568 = EDGE_CURVE ( 'NONE', #1288, #344, #22, .T. ) ;
#569 = ORIENTED_EDGE ( 'NONE', *, *, #154, .T. ) ;
#570 = AXIS2_PLACEMENT_3D ( 'NONE', #66, #699, #376 ) ;
#571 = CARTESIAN_POINT ( 'NONE',  ( 16.00000000000000000, 0.000000000000000000, -1.749999999999999334 ) ) ;
#572 = CARTESIAN_POINT ( 'NONE',  ( 16.00000000000000000, 0.000000000000000000, -9.000000000000000000 ) ) ;
#573 = EDGE_CURVE ( 'NONE', #955, #778, #819, .T. ) ;
#574 = AXIS2_PLACEMENT_3D ( 'NONE', #979, #1164, #1173 ) ;
#575 = ORIENTED_EDGE ( 'NONE', *, *, #672, .F. ) ;
#576 = VECTOR ( 'NONE', #1104, 1000.000000000000000 ) ;
#577 = LINE ( 'NONE', #899, #1310 ) ;
#578 = VECTOR ( 'NONE', #216, 1000.000000000000000 ) ;
#579 = CIRCLE ( 'NONE', #1354, 1.500000000000000000 ) ;
#580 = CARTESIAN_POINT ( 'NONE',  ( -12.00000000000000533, 0.4999999999999995559, 3.000000000000003997 ) ) ;
#581 = EDGE_CURVE ( 'NONE', #652, #232, #999, .T. ) ;
#582 = CARTESIAN_POINT ( 'NONE',  ( 15.50000000000000178, 0.000000000000000000, 5.500000000000000000 ) ) ;
#583 = DIRECTION ( 'NONE',  ( 0.000000000000000000, 0.000000000000000000, -1.000000000000000000 ) ) ;
#584 =( GEOMETRIC_REPRESENTATION_CONTEXT ( 3 ) GLOBAL_UNCERTAINTY_ASSIGNED_CONTEXT ( ( #198 ) ) GLOBAL_UNIT_ASSIGNED_CONTEXT ( ( #417, #1267, #1054 ) ) REPRESENTATION_CONTEXT ( 'NONE', 'WORKASPACE' ) );
#585 = DIRECTION ( 'NONE',  ( 0.000000000000000000, 0.000000000000000000, -1.000000000000000000 ) ) ;
#586 = EDGE_CURVE ( 'NONE', #996, #1291, #1275, .T. ) ;
#587 = DIRECTION ( 'NONE',  ( -0.000000000000000000, 1.000000000000000000, -0.000000000000000000 ) ) ;
#588 = CIRCLE ( 'NONE', #1076, 0.5500000000000010436 ) ;
#589 = LINE ( 'NONE', #264, #1112 ) ;
#590 = DIRECTION ( 'NONE',  ( 0.000000000000000000, 1.000000000000000000, 0.000000000000000000 ) ) ;
#591 = CARTESIAN_POINT ( 'NONE',  ( 15.50000000000000178, 0.000000000000000000, -4.350000000000001421 ) ) ;
#592 = VECTOR ( 'NONE', #425, 1000.000000000000000 ) ;
#593 = ORIENTED_EDGE ( 'NONE', *, *, #586, .T. ) ;
#594 = DIRECTION ( 'NONE',  ( 0.000000000000000000, 1.000000000000000000, 0.000000000000000000 ) ) ;
#595 = DIRECTION ( 'NONE',  ( 0.000000000000000000, 0.000000000000000000, 1.000000000000000000 ) ) ;
#596 = FACE_OUTER_BOUND ( 'NONE', #1305, .T. ) ;
#597 = DIRECTION ( 'NONE',  ( -1.156482317317871331E-15, 0.000000000000000000, 1.000000000000000000 ) ) ;
#598 = EDGE_CURVE ( 'NONE', #9, #1049, #751, .T. ) ;
#599 = CYLINDRICAL_SURFACE ( 'NONE', #1298, 1.500000000000000000 ) ;
#600 = PRODUCT_DEFINITION ( 'UNKNOWN', '', #277, #500 ) ;
#601 = LINE ( 'NONE', #812, #958 ) ;
#602 = CYLINDRICAL_SURFACE ( 'NONE', #570, 1.500000000000000000 ) ;
#603 = AXIS2_PLACEMENT_3D ( 'NONE', #1057, #1263, #531 ) ;
#604 = EDGE_CURVE ( 'NONE', #138, #1278, #359, .T. ) ;
#605 = VERTEX_POINT ( 'NONE', #358 ) ;
#606 = DIRECTION ( 'NONE',  ( 0.000000000000000000, -1.000000000000000000, 0.000000000000000000 ) ) ;
#607 = CIRCLE ( 'NONE', #1322, 0.5500000000000010436 ) ;
#608 = FACE_OUTER_BOUND ( 'NONE', #169, .T. ) ;
#609 = CARTESIAN_POINT ( 'NONE',  ( 13.99999999999999822, 0.000000000000000000, 0.2500000000000009437 ) ) ;
#610 = ORIENTED_EDGE ( 'NONE', *, *, #909, .F. ) ;
#611 = DIRECTION ( 'NONE',  ( 0.000000000000000000, 0.000000000000000000, 1.000000000000000000 ) ) ;
#612 = DIRECTION ( 'NONE',  ( 1.000000000000000000, 0.000000000000000000, 0.000000000000000000 ) ) ;
#613 = ORIENTED_EDGE ( 'NONE', *, *, #154, .F. ) ;
#614 = CARTESIAN_POINT ( 'NONE',  ( 17.50000000000000000, 7.500000000000000000, 8.999999999999998224 ) ) ;
#615 = ADVANCED_FACE ( 'NONE', ( #848, #866, #1174, #993, #1293, #341, #243, #640 ), #657, .T. ) ;
#616 = DIRECTION ( 'NONE',  ( 0.000000000000000000, 1.000000000000000000, 0.000000000000000000 ) ) ;
#617 = ORIENTED_EDGE ( 'NONE', *, *, #923, .F. ) ;
#618 = CIRCLE ( 'NONE', #512, 1.050000000000000266 ) ;
#619 = EDGE_CURVE ( 'NONE', #1196, #1079, #962, .T. ) ;
#620 = EDGE_LOOP ( 'NONE', ( #1186, #228, #1080, #617 ) ) ;
#621 = VERTEX_POINT ( 'NONE', #37 ) ;
#622 = ADVANCED_FACE ( 'NONE', ( #257 ), #665, .F. ) ;
#623 = DIRECTION ( 'NONE',  ( -0.000000000000000000, 1.000000000000000000, -0.000000000000000000 ) ) ;
#624 = PLANE ( 'NONE',  #291 ) ;
#625 = AXIS2_PLACEMENT_3D ( 'NONE', #871, #238, #1282 ) ;
#626 = CARTESIAN_POINT ( 'NONE',  ( 15.49999999999999822, 0.4999999999999995559, -0.2499999999999993616 ) ) ;
#627 = ORIENTED_EDGE ( 'NONE', *, *, #1260, .F. ) ;
#628 = ORIENTED_EDGE ( 'NONE', *, *, #956, .F. ) ;
#629 = VECTOR ( 'NONE', #548, 1000.000000000000000 ) ;
#630 = EDGE_LOOP ( 'NONE', ( #346, #1342 ) ) ;
#631 = DIRECTION ( 'NONE',  ( -1.858632295689434870E-16, 0.000000000000000000, -1.000000000000000000 ) ) ;
#632 = FACE_OUTER_BOUND ( 'NONE', #260, .T. ) ;
#633 = EDGE_LOOP ( 'NONE', ( #330, #400, #1262, #1083 ) ) ;
#634 = AXIS2_PLACEMENT_3D ( 'NONE', #580, #368, #794 ) ;
#635 = EDGE_CURVE ( 'NONE', #1073, #1079, #1183, .T. ) ;
#636 = AXIS2_PLACEMENT_3D ( 'NONE', #649, #1309, #14 ) ;
#637 = DIRECTION ( 'NONE',  ( -0.000000000000000000, 1.000000000000000000, -0.000000000000000000 ) ) ;
#638 = ORIENTED_EDGE ( 'NONE', *, *, #1155, .F. ) ;
#639 = LINE ( 'NONE', #333, #592 ) ;
#640 = FACE_BOUND ( 'NONE', #835, .T. ) ;
#641 = FACE_OUTER_BOUND ( 'NONE', #757, .T. ) ;
#642 = ORIENTED_EDGE ( 'NONE', *, *, #598, .F. ) ;
#643 = EDGE_LOOP ( 'NONE', ( #158, #750 ) ) ;
#644 = ORIENTED_EDGE ( 'NONE', *, *, #1179, .T. ) ;
#645 = CARTESIAN_POINT ( 'NONE',  ( 15.50000000000000178, 0.000000000000000000, 6.050000000000000711 ) ) ;
#646 = ORIENTED_EDGE ( 'NONE', *, *, #956, .T. ) ;
#647 = DIRECTION ( 'NONE',  ( -0.000000000000000000, 1.000000000000000000, -0.000000000000000000 ) ) ;
#648 = AXIS2_PLACEMENT_3D ( 'NONE', #381, #1236, #907 ) ;
#649 = CARTESIAN_POINT ( 'NONE',  ( 16.00000000000000000, 0.000000000000000000, -3.249999999999999112 ) ) ;
#650 = FACE_OUTER_BOUND ( 'NONE', #1205, .T. ) ;
#651 = VERTEX_POINT ( 'NONE', #29 ) ;
#652 = VERTEX_POINT ( 'NONE', #1301 ) ;
#653 = AXIS2_PLACEMENT_3D ( 'NONE', #295, #1340, #404 ) ;
#654 = FACE_OUTER_BOUND ( 'NONE', #1206, .T. ) ;
#655 = ORIENTED_EDGE ( 'NONE', *, *, #1095, .F. ) ;
#656 = LINE ( 'NONE', #520, #1257 ) ;
#657 = PLANE ( 'NONE',  #817 ) ;
#658 = VECTOR ( 'NONE', #623, 1000.000000000000000 ) ;
#659 = EDGE_CURVE ( 'NONE', #1359, #106, #450, .T. ) ;
#660 = DIRECTION ( 'NONE',  ( 0.000000000000000000, 0.000000000000000000, 1.000000000000000000 ) ) ;
#661 = ORIENTED_EDGE ( 'NONE', *, *, #456, .T. ) ;
#662 = ORIENTED_EDGE ( 'NONE', *, *, #1137, .T. ) ;
#663 = DIRECTION ( 'NONE',  ( 0.000000000000000000, 0.000000000000000000, 1.000000000000000000 ) ) ;
#664 = FILL_AREA_STYLE ('',( #986 ) ) ;
#665 = CYLINDRICAL_SURFACE ( 'NONE', #1053, 0.5500000000000010436 ) ;
#666 = EDGE_CURVE ( 'NONE', #778, #213, #149, .T. ) ;
#667 = DIRECTION ( 'NONE',  ( 0.000000000000000000, 0.000000000000000000, 1.000000000000000000 ) ) ;
#668 = ORIENTED_EDGE ( 'NONE', *, *, #441, .T. ) ;
#669 = ORIENTED_EDGE ( 'NONE', *, *, #1050, .F. ) ;
#670 = PRESENTATION_STYLE_ASSIGNMENT (( #148 ) ) ;
#671 = DIRECTION ( 'NONE',  ( -0.000000000000000000, 1.000000000000000000, -0.000000000000000000 ) ) ;
#672 = EDGE_CURVE ( 'NONE', #91, #32, #1348, .T. ) ;
#673 = DIRECTION ( 'NONE',  ( -1.927470528863119295E-16, 0.000000000000000000, -1.000000000000000000 ) ) ;
#674 = ORIENTED_EDGE ( 'NONE', *, *, #695, .F. ) ;
#675 = LINE ( 'NONE', #477, #384 ) ;
#676 = CARTESIAN_POINT ( 'NONE',  ( -10.50000000000000533, 0.000000000000000000, 3.000000000000004441 ) ) ;
#677 = CIRCLE ( 'NONE', #1081, 1.049999999999998934 ) ;
#678 = EDGE_CURVE ( 'NONE', #91, #769, #252, .T. ) ;
#679 = CARTESIAN_POINT ( 'NONE',  ( 16.00000000000000000, 0.000000000000000000, 10.04999999999999893 ) ) ;
#680 = DIRECTION ( 'NONE',  ( 0.000000000000000000, 0.000000000000000000, -1.000000000000000000 ) ) ;
#681 = ORIENTED_EDGE ( 'NONE', *, *, #1134, .T. ) ;
#682 = EDGE_CURVE ( 'NONE', #747, #1144, #889, .T. ) ;
#683 = FACE_BOUND ( 'NONE', #887, .T. ) ;
#684 = CARTESIAN_POINT ( 'NONE',  ( -12.00000000000000355, 0.4999999999999995559, -2.999999999999998224 ) ) ;
#685 = VERTEX_POINT ( 'NONE', #893 ) ;
#686 = CIRCLE ( 'NONE', #338, 1.499999999999999556 ) ;
#687 = LINE ( 'NONE', #386, #703 ) ;
#688 = CARTESIAN_POINT ( 'NONE',  ( 16.00000000000000000, 0.4999999999999995559, 3.250000000000001332 ) ) ;
#689 = CIRCLE ( 'NONE', #146, 1.499999999999999556 ) ;
#690 = CARTESIAN_POINT ( 'NONE',  ( 13.99999999999999822, 0.000000000000000000, 1.750000000000000888 ) ) ;
#691 = DIRECTION ( 'NONE',  ( 0.000000000000000000, 0.000000000000000000, 1.000000000000000000 ) ) ;
#692 = VERTEX_POINT ( 'NONE', #1108 ) ;
#693 = DIRECTION ( 'NONE',  ( -0.000000000000000000, 1.000000000000000000, 0.000000000000000000 ) ) ;
#694 = DIRECTION ( 'NONE',  ( 0.000000000000000000, 0.000000000000000000, 1.000000000000000000 ) ) ;
#695 = EDGE_CURVE ( 'NONE', #853, #256, #159, .T. ) ;
#696 = VECTOR ( 'NONE', #922, 1000.000000000000000 ) ;
#697 = EDGE_LOOP ( 'NONE', ( #553, #7, #727, #714 ) ) ;
#698 = PLANE ( 'NONE',  #451 ) ;
#699 = DIRECTION ( 'NONE',  ( 0.000000000000000000, -1.000000000000000000, 0.000000000000000000 ) ) ;
#700 = CIRCLE ( 'NONE', #574, 1.049999999999998934 ) ;
#701 = EDGE_CURVE ( 'NONE', #790, #1151, #466, .T. ) ;
#702 = DIRECTION ( 'NONE',  ( 0.000000000000000000, 1.000000000000000000, 0.000000000000000000 ) ) ;
#703 = VECTOR ( 'NONE', #50, 1000.000000000000000 ) ;
#704 = DIRECTION ( 'NONE',  ( 1.156482317317871133E-15, 0.000000000000000000, -1.000000000000000000 ) ) ;
#705 = VECTOR ( 'NONE', #818, 1000.000000000000000 ) ;
#706 = EDGE_CURVE ( 'NONE', #1365, #1187, #799, .T. ) ;
#707 = FACE_BOUND ( 'NONE', #1317, .T. ) ;
#708 = DIRECTION ( 'NONE',  ( 0.000000000000000000, -1.000000000000000000, 0.000000000000000000 ) ) ;
#709 = ORIENTED_EDGE ( 'NONE', *, *, #435, .T. ) ;
#710 = LINE ( 'NONE', #315, #696 ) ;
#711 = CARTESIAN_POINT ( 'NONE',  ( 15.50000000000000178, 0.4999999999999995559, 6.050000000000000711 ) ) ;
#712 = DIRECTION ( 'NONE',  ( -0.000000000000000000, 1.000000000000000000, -0.000000000000000000 ) ) ;
#713 = CIRCLE ( 'NONE', #1251, 1.500000000000000000 ) ;
#714 = ORIENTED_EDGE ( 'NONE', *, *, #811, .T. ) ;
#715 = LINE ( 'NONE', #1362, #705 ) ;
#716 = CIRCLE ( 'NONE', #1161, 1.499999999999999556 ) ;
#717 = CYLINDRICAL_SURFACE ( 'NONE', #603, 1.499999999999999556 ) ;
#718 = EDGE_LOOP ( 'NONE', ( #610, #438, #480, #734, #969, #941, #878, #26, #200, #311, #515, #532, #852, #1297, #868, #933, #662, #733, #190, #975, #1255, #254, #965 ) ) ;
#719 = CIRCLE ( 'NONE', #994, 0.5500000000000010436 ) ;
#720 = EDGE_CURVE ( 'NONE', #1303, #1350, #1172, .T. ) ;
#721 = CARTESIAN_POINT ( 'NONE',  ( -10.50000000000000355, 0.000000000000000000, -2.999999999999999112 ) ) ;
#722 = ORIENTED_EDGE ( 'NONE', *, *, #947, .F. ) ;
#723 = CARTESIAN_POINT ( 'NONE',  ( -10.50000000000000533, 0.4999999999999995559, -10.49999999999999645 ) ) ;
#724 = ORIENTED_EDGE ( 'NONE', *, *, #1029, .F. ) ;
#725 = EDGE_CURVE ( 'NONE', #1144, #281, #886, .T. ) ;
#726 = EDGE_CURVE ( 'NONE', #86, #769, #45, .T. ) ;
#727 = ORIENTED_EDGE ( 'NONE', *, *, #496, .F. ) ;
#728 = DIRECTION ( 'NONE',  ( -1.000000000000000000, 0.000000000000000000, -4.956352788505165240E-16 ) ) ;
#729 = CARTESIAN_POINT ( 'NONE',  ( 16.00000000000000000, 0.000000000000000000, -1.749999999999999334 ) ) ;
#730 = VERTEX_POINT ( 'NONE', #166 ) ;
#731 = AXIS2_PLACEMENT_3D ( 'NONE', #1346, #590, #397 ) ;
#732 = AXIS2_PLACEMENT_3D ( 'NONE', #28, #647, #324 ) ;
#733 = ORIENTED_EDGE ( 'NONE', *, *, #947, .T. ) ;
#734 = ORIENTED_EDGE ( 'NONE', *, *, #259, .T. ) ;
#735 = CARTESIAN_POINT ( 'NONE',  ( 15.50000000000000178, 0.000000000000000000, -6.050000000000000711 ) ) ;
#736 = EDGE_CURVE ( 'NONE', #1005, #621, #577, .T. ) ;
#737 = AXIS2_PLACEMENT_3D ( 'NONE', #1090, #113, #562 ) ;
#738 = DIRECTION ( 'NONE',  ( -0.000000000000000000, 1.000000000000000000, -0.000000000000000000 ) ) ;
#739 = ORIENTED_EDGE ( 'NONE', *, *, #179, .T. ) ;
#740 = CARTESIAN_POINT ( 'NONE',  ( 13.99999999999999822, 0.4999999999999995559, -1.749999999999998890 ) ) ;
#741 = EDGE_LOOP ( 'NONE', ( #1097, #949, #627, #879 ) ) ;
#742 = VECTOR ( 'NONE', #738, 1000.000000000000000 ) ;
#743 = EDGE_CURVE ( 'NONE', #304, #442, #271, .T. ) ;
#744 = ORIENTED_EDGE ( 'NONE', *, *, #701, .T. ) ;
#745 = DIRECTION ( 'NONE',  ( -0.000000000000000000, 1.000000000000000000, 0.000000000000000000 ) ) ;
#746 = CARTESIAN_POINT ( 'NONE',  ( 15.50000000000000178, 0.000000000000000000, 4.949999999999998401 ) ) ;
#747 = VERTEX_POINT ( 'NONE', #57 ) ;
#748 = AXIS2_PLACEMENT_3D ( 'NONE', #755, #773, #1201 ) ;
#749 = EDGE_CURVE ( 'NONE', #1196, #685, #362, .T. ) ;
#750 = ORIENTED_EDGE ( 'NONE', *, *, #535, .T. ) ;
#751 = CIRCLE ( 'NONE', #948, 1.500000000000000000 ) ;
#752 = DIRECTION ( 'NONE',  ( -0.000000000000000000, 1.000000000000000000, -0.000000000000000000 ) ) ;
#753 = ORIENTED_EDGE ( 'NONE', *, *, #926, .F. ) ;
#754 = CARTESIAN_POINT ( 'NONE',  ( -16.00000000000000000, 0.000000000000000000, -1.050000000000000266 ) ) ;
#755 = CARTESIAN_POINT ( 'NONE',  ( 16.00000000000000000, 0.000000000000000000, 9.000000000000000000 ) ) ;
#756 = CARTESIAN_POINT ( 'NONE',  ( 15.50000000000000178, 0.4999999999999995559, -3.799999999999999822 ) ) ;
#757 = EDGE_LOOP ( 'NONE', ( #12, #644, #1157, #681 ) ) ;
#758 = CIRCLE ( 'NONE', #161, 0.5500000000000010436 ) ;
#759 = ORIENTED_EDGE ( 'NONE', *, *, #320, .F. ) ;
#760 = ORIENTED_EDGE ( 'NONE', *, *, #76, .T. ) ;
#761 = CARTESIAN_POINT ( 'NONE',  ( 17.50000000000000000, 0.4999999999999995559, -9.000000000000000000 ) ) ;
#762 = AXIS2_PLACEMENT_3D ( 'NONE', #285, #378, #1225 ) ;
#763 = ORIENTED_EDGE ( 'NONE', *, *, #67, .F. ) ;
#764 = CARTESIAN_POINT ( 'NONE',  ( -16.00000000000000000, 0.000000000000000000, 1.050000000000000266 ) ) ;
#765 = CARTESIAN_POINT ( 'NONE',  ( -9.000000000000007105, 0.000000000000000000, 9.000000000000001776 ) ) ;
#766 = PLANE ( 'NONE',  #1105 ) ;
#767 = EDGE_LOOP ( 'NONE', ( #638, #329, #722, #593 ) ) ;
#768 = ORIENTED_EDGE ( 'NONE', *, *, #1119, .F. ) ;
#769 = VERTEX_POINT ( 'NONE', #1232 ) ;
#770 = CARTESIAN_POINT ( 'NONE',  ( -9.000000000000007105, 0.000000000000000000, -10.50000000000000000 ) ) ;
#771 = EDGE_CURVE ( 'NONE', #42, #96, #687, .T. ) ;
#772 = DIRECTION ( 'NONE',  ( 0.000000000000000000, 1.000000000000000000, 0.000000000000000000 ) ) ;
#773 = DIRECTION ( 'NONE',  ( 0.000000000000000000, 1.000000000000000000, 0.000000000000000000 ) ) ;
#774 = CIRCLE ( 'NONE', #62, 1.500000000000000000 ) ;
#775 = VECTOR ( 'NONE', #530, 1000.000000000000000 ) ;
#776 = DIRECTION ( 'NONE',  ( 0.000000000000000000, 1.000000000000000000, 0.000000000000000000 ) ) ;
#777 = ORIENTED_EDGE ( 'NONE', *, *, #467, .F. ) ;
#778 = VERTEX_POINT ( 'NONE', #471 ) ;
#779 = VECTOR ( 'NONE', #858, 1000.000000000000000 ) ;
#780 = PRODUCT_RELATED_PRODUCT_CATEGORY ( 'part', '', ( #93 ) ) ;
#781 = AXIS2_PLACEMENT_3D ( 'NONE', #309, #401, #1142 ) ;
#782 = EDGE_CURVE ( 'NONE', #1278, #138, #618, .T. ) ;
#783 = CARTESIAN_POINT ( 'NONE',  ( 0.000000000000000000, 0.4999999999999995559, 0.000000000000000000 ) ) ;
#784 = CARTESIAN_POINT ( 'NONE',  ( -9.000000000000007105, 0.000000000000000000, 10.50000000000000000 ) ) ;
#785 = ORIENTED_EDGE ( 'NONE', *, *, #395, .F. ) ;
#786 = DIRECTION ( 'NONE',  ( 0.000000000000000000, 1.000000000000000000, 0.000000000000000000 ) ) ;
#787 = AXIS2_PLACEMENT_3D ( 'NONE', #930, #1352, #109 ) ;
#788 = DIRECTION ( 'NONE',  ( 0.000000000000000000, 0.000000000000000000, 1.000000000000000000 ) ) ;
#789 = EDGE_CURVE ( 'NONE', #547, #232, #675, .T. ) ;
#790 = VERTEX_POINT ( 'NONE', #1326 ) ;
#791 = ORIENTED_EDGE ( 'NONE', *, *, #251, .T. ) ;
#792 = VECTOR ( 'NONE', #10, 1000.000000000000000 ) ;
#793 = DIRECTION ( 'NONE',  ( 0.000000000000000000, 0.000000000000000000, 1.000000000000000000 ) ) ;
#794 = DIRECTION ( 'NONE',  ( 0.000000000000000000, 0.000000000000000000, 1.000000000000000000 ) ) ;
#795 = EDGE_CURVE ( 'NONE', #442, #605, #985, .T. ) ;
#796 = CARTESIAN_POINT ( 'NONE',  ( -16.00000000000000000, 0.000000000000000000, -5.575896887068297953E-16 ) ) ;
#797 = CARTESIAN_POINT ( 'NONE',  ( 15.50000000000000178, 0.000000000000000000, -3.799999999999999822 ) ) ;
#798 = CARTESIAN_POINT ( 'NONE',  ( -12.00000000000000355, 0.000000000000000000, -1.499999999999998446 ) ) ;
#799 = LINE ( 'NONE', #1007, #1128 ) ;
#800 = FACE_OUTER_BOUND ( 'NONE', #906, .T. ) ;
#801 = ORIENTED_EDGE ( 'NONE', *, *, #619, .T. ) ;
#802 = CARTESIAN_POINT ( 'NONE',  ( 15.49999999999999822, 0.000000000000000000, -0.2499999999999993616 ) ) ;
#803 = CYLINDRICAL_SURFACE ( 'NONE', #1039, 0.5500000000000014877 ) ;
#804 = EDGE_CURVE ( 'NONE', #408, #9, #468, .T. ) ;
#805 = PRESENTATION_LAYER_ASSIGNMENT (  '', '', ( #509 ) ) ;
#806 = CARTESIAN_POINT ( 'NONE',  ( -10.50000000000000355, 7.500000000000000000, -2.999999999999998668 ) ) ;
#807 = LINE ( 'NONE', #1124, #1152 ) ;
#808 = CYLINDRICAL_SURFACE ( 'NONE', #476, 1.500000000000000000 ) ;
#809 = FACE_OUTER_BOUND ( 'NONE', #328, .T. ) ;
#810 = DIRECTION ( 'NONE',  ( -0.000000000000000000, -1.000000000000000000, -0.000000000000000000 ) ) ;
#811 = EDGE_CURVE ( 'NONE', #523, #20, #1331, .T. ) ;
#812 = CARTESIAN_POINT ( 'NONE',  ( -10.50000000000000533, 0.000000000000000000, -9.000000000000001776 ) ) ;
#813 = LINE ( 'NONE', #1243, #916 ) ;
#814 = VECTOR ( 'NONE', #436, 1000.000000000000000 ) ;
#815 = ORIENTED_EDGE ( 'NONE', *, *, #456, .F. ) ;
#816 = EDGE_CURVE ( 'NONE', #730, #1135, #1158, .T. ) ;
#817 = AXIS2_PLACEMENT_3D ( 'NONE', #783, #1092, #1208 ) ;
#818 = DIRECTION ( 'NONE',  ( -1.927470528863119049E-16, -0.000000000000000000, -1.000000000000000000 ) ) ;
#819 = CIRCLE ( 'NONE', #223, 1.499999999999999556 ) ;
#820 = DIRECTION ( 'NONE',  ( 0.000000000000000000, -1.000000000000000000, 0.000000000000000000 ) ) ;
#821 = CARTESIAN_POINT ( 'NONE',  ( 13.99999999999999822, 0.000000000000000000, 0.2500000000000002220 ) ) ;
#822 = EDGE_LOOP ( 'NONE', ( #123, #218, #724, #527 ) ) ;
#823 = DIRECTION ( 'NONE',  ( 0.000000000000000000, -1.000000000000000000, 0.000000000000000000 ) ) ;
#824 = DIRECTION ( 'NONE',  ( 0.000000000000000000, 0.000000000000000000, 1.000000000000000000 ) ) ;
#825 = DIRECTION ( 'NONE',  ( 0.000000000000000000, -1.000000000000000000, 0.000000000000000000 ) ) ;
#826 = ADVANCED_FACE ( 'NONE', ( #1019 ), #599, .T. ) ;
#827 = VECTOR ( 'NONE', #204, 1000.000000000000000 ) ;
#828 = FACE_OUTER_BOUND ( 'NONE', #767, .T. ) ;
#829 = AXIS2_PLACEMENT_3D ( 'NONE', #903, #708, #1353 ) ;
#830 = DIRECTION ( 'NONE',  ( -0.000000000000000000, -1.000000000000000000, -0.000000000000000000 ) ) ;
#831 = ORIENTED_EDGE ( 'NONE', *, *, #209, .T. ) ;
#832 = AXIS2_PLACEMENT_3D ( 'NONE', #233, #772, #107 ) ;
#833 = ORIENTED_EDGE ( 'NONE', *, *, #363, .T. ) ;
#834 = LINE ( 'NONE', #1031, #469 ) ;
#835 = EDGE_LOOP ( 'NONE', ( #1067, #248 ) ) ;
#836 = DIRECTION ( 'NONE',  ( -0.000000000000000000, -1.000000000000000000, -0.000000000000000000 ) ) ;
#837 = VERTEX_POINT ( 'NONE', #1343 ) ;
#838 = EDGE_CURVE ( 'NONE', #424, #201, #872, .T. ) ;
#839 = EDGE_LOOP ( 'NONE', ( #1218, #454 ) ) ;
#840 = DIRECTION ( 'NONE',  ( 0.000000000000000000, 0.000000000000000000, -1.000000000000000000 ) ) ;
#841 = FACE_OUTER_BOUND ( 'NONE', #558, .T. ) ;
#842 = ORIENTED_EDGE ( 'NONE', *, *, #1015, .T. ) ;
#843 = ADVANCED_FACE ( 'NONE', ( #1024, #54, #481, #707, #683, #77, #1027, #501 ), #698, .T. ) ;
#844 = CYLINDRICAL_SURFACE ( 'NONE', #319, 1.500000000000000000 ) ;
#845 = ORIENTED_EDGE ( 'NONE', *, *, #725, .T. ) ;
#846 = ORIENTED_EDGE ( 'NONE', *, *, #682, .T. ) ;
#847 = DIRECTION ( 'NONE',  ( 0.000000000000000000, 0.000000000000000000, 1.000000000000000000 ) ) ;
#848 = FACE_BOUND ( 'NONE', #839, .T. ) ;
#849 = EDGE_CURVE ( 'NONE', #935, #621, #1115, .T. ) ;
#850 = CLOSED_SHELL ( 'NONE', ( #410, #298, #1020, #622, #1366, #55, #1360, #307, #422, #992, #34, #1145, #1228, #1241, #1099, #972, #524, #545, #912, #1163, #1114, #1034, #1308, #112, #939, #564, #479, #219, #559, #239, #41, #826, #286, #950, #1209, #312, #51, #843, #615 ) ) ;
#851 = PLANE ( 'NONE',  #265 ) ;
#852 = ORIENTED_EDGE ( 'NONE', *, *, #485, .T. ) ;
#853 = VERTEX_POINT ( 'NONE', #389 ) ;
#854 = ORIENTED_EDGE ( 'NONE', *, *, #1102, .F. ) ;
#855 = DIRECTION ( 'NONE',  ( 1.000000000000000000, 0.000000000000000000, -9.912705577010326782E-17 ) ) ;
#856 = EDGE_LOOP ( 'NONE', ( #351, #354 ) ) ;
#857 = DIRECTION ( 'NONE',  ( 0.000000000000000000, 0.000000000000000000, -1.000000000000000000 ) ) ;
#858 = DIRECTION ( 'NONE',  ( -1.000000000000000000, 0.000000000000000000, 1.239088197126289831E-16 ) ) ;
#859 = LINE ( 'NONE', #445, #153 ) ;
#860 = ORIENTED_EDGE ( 'NONE', *, *, #701, .F. ) ;
#861 = ORIENTED_EDGE ( 'NONE', *, *, #70, .F. ) ;
#862 = ORIENTED_EDGE ( 'NONE', *, *, #1327, .T. ) ;
#863 = LINE ( 'NONE', #645, #1217 ) ;
#864 = ORIENTED_EDGE ( 'NONE', *, *, #249, .T. ) ;
#865 = LINE ( 'NONE', #1200, #658 ) ;
#866 = FACE_BOUND ( 'NONE', #1270, .T. ) ;
#867 = DIRECTION ( 'NONE',  ( 0.000000000000000000, 0.000000000000000000, 1.000000000000000000 ) ) ;
#868 = ORIENTED_EDGE ( 'NONE', *, *, #890, .T. ) ;
#869 = ORIENTED_EDGE ( 'NONE', *, *, #1335, .F. ) ;
#870 = ORIENTED_EDGE ( 'NONE', *, *, #804, .T. ) ;
#871 = CARTESIAN_POINT ( 'NONE',  ( 15.50000000000000178, 0.000000000000000000, 5.500000000000000000 ) ) ;
#872 = CIRCLE ( 'NONE', #342, 0.5500000000000014877 ) ;
#873 = PRESENTATION_LAYER_ASSIGNMENT (  '', '', ( #366 ) ) ;
#874 = CARTESIAN_POINT ( 'NONE',  ( -17.50000000000000000, 0.000000000000000000, -10.50000000000000000 ) ) ;
#875 = LINE ( 'NONE', #540, #503 ) ;
#876 = EDGE_CURVE ( 'NONE', #25, #547, #932, .T. ) ;
#877 = ORIENTED_EDGE ( 'NONE', *, *, #849, .F. ) ;
#878 = ORIENTED_EDGE ( 'NONE', *, *, #1122, .T. ) ;
#879 = ORIENTED_EDGE ( 'NONE', *, *, #568, .T. ) ;
#880 = CARTESIAN_POINT ( 'NONE',  ( -10.50000000000000533, 0.000000000000000000, -9.000000000000001776 ) ) ;
#881 = DIRECTION ( 'NONE',  ( -0.000000000000000000, -1.000000000000000000, -0.000000000000000000 ) ) ;
#882 = VECTOR ( 'NONE', #360, 1000.000000000000000 ) ;
#883 = VECTOR ( 'NONE', #728, 1000.000000000000000 ) ;
#884 = CYLINDRICAL_SURFACE ( 'NONE', #900, 1.049999999999998934 ) ;
#885 = EDGE_LOOP ( 'NONE', ( #1060, #16, #1125, #206 ) ) ;
#886 = CIRCLE ( 'NONE', #634, 1.500000000000000000 ) ;
#887 = EDGE_LOOP ( 'NONE', ( #1361, #1170 ) ) ;
#888 = CIRCLE ( 'NONE', #1313, 1.049999999999998934 ) ;
#889 = LINE ( 'NONE', #184, #355 ) ;
#890 = EDGE_CURVE ( 'NONE', #1359, #1187, #689, .T. ) ;
#891 = CARTESIAN_POINT ( 'NONE',  ( -16.00000000000000000, 0.000000000000000000, 1.500000000000001998 ) ) ;
#892 = EDGE_CURVE ( 'NONE', #455, #1150, #162, .T. ) ;
#893 = CARTESIAN_POINT ( 'NONE',  ( 16.00000000000000000, 0.000000000000000000, 1.750000000000000666 ) ) ;
#894 = VECTOR ( 'NONE', #616, 1000.000000000000000 ) ;
#895 = FACE_OUTER_BOUND ( 'NONE', #1181, .T. ) ;
#896 = CARTESIAN_POINT ( 'NONE',  ( -9.000000000000007105, 7.500000000000000000, 10.50000000000000000 ) ) ;
#897 = ORIENTED_EDGE ( 'NONE', *, *, #598, .T. ) ;
#898 = AXIS2_PLACEMENT_3D ( 'NONE', #684, #72, #597 ) ;
#899 = CARTESIAN_POINT ( 'NONE',  ( 15.50000000000000178, 0.000000000000000000, 4.949999999999998401 ) ) ;
#900 = AXIS2_PLACEMENT_3D ( 'NONE', #572, #988, #1295 ) ;
#901 = FILL_AREA_STYLE ('',( #486 ) ) ;
#902 = DIRECTION ( 'NONE',  ( 1.652117596168387756E-16, 0.000000000000000000, -1.000000000000000000 ) ) ;
#903 = CARTESIAN_POINT ( 'NONE',  ( -12.00000000000000355, 0.000000000000000000, -2.999999999999998224 ) ) ;
#904 = EDGE_CURVE ( 'NONE', #1355, #692, #1043, .T. ) ;
#905 = CARTESIAN_POINT ( 'NONE',  ( 16.00000000000000000, 0.4999999999999995559, 9.000000000000000000 ) ) ;
#906 = EDGE_LOOP ( 'NONE', ( #674, #661, #3, #1106 ) ) ;
#907 = DIRECTION ( 'NONE',  ( 0.000000000000000000, 0.000000000000000000, 1.000000000000000000 ) ) ;
#908 = CARTESIAN_POINT ( 'NONE',  ( 15.50000000000000178, 0.000000000000000000, 5.500000000000000000 ) ) ;
#909 = EDGE_CURVE ( 'NONE', #955, #95, #187, .T. ) ;
#910 = DIRECTION ( 'NONE',  ( 0.000000000000000000, 0.000000000000000000, 1.000000000000000000 ) ) ;
#911 = CARTESIAN_POINT ( 'NONE',  ( -12.00000000000000355, 0.000000000000000000, -2.999999999999998224 ) ) ;
#912 = ADVANCED_FACE ( 'NONE', ( #596 ), #1110, .F. ) ;
#913 = CARTESIAN_POINT ( 'NONE',  ( 0.000000000000000000, 0.000000000000000000, 0.000000000000000000 ) ) ;
#914 = CARTESIAN_POINT ( 'NONE',  ( 15.50000000000000178, 0.4999999999999995559, -4.949999999999998401 ) ) ;
#915 = VERTEX_POINT ( 'NONE', #1248 ) ;
#916 = VECTOR ( 'NONE', #712, 1000.000000000000000 ) ;
#917 = DIRECTION ( 'NONE',  ( 0.000000000000000000, 0.000000000000000000, 1.000000000000000000 ) ) ;
#918 = CYLINDRICAL_SURFACE ( 'NONE', #174, 0.5500000000000010436 ) ;
#919 = DIRECTION ( 'NONE',  ( -0.000000000000000000, -1.000000000000000000, -0.000000000000000000 ) ) ;
#920 = DIRECTION ( 'NONE',  ( -0.000000000000000000, -1.000000000000000000, 0.000000000000000000 ) ) ;
#921 = CIRCLE ( 'NONE', #411, 1.050000000000000266 ) ;
#922 = DIRECTION ( 'NONE',  ( 0.000000000000000000, -1.000000000000000000, 0.000000000000000000 ) ) ;
#923 = EDGE_CURVE ( 'NONE', #322, #408, #189, .T. ) ;
#924 = CARTESIAN_POINT ( 'NONE',  ( -9.000000000000007105, 7.500000000000000000, -10.50000000000000000 ) ) ;
#925 = CARTESIAN_POINT ( 'NONE',  ( -10.50000000000000533, 0.4999999999999995559, 3.000000000000004441 ) ) ;
#926 = EDGE_CURVE ( 'NONE', #790, #111, #601, .T. ) ;
#927 = CIRCLE ( 'NONE', #1198, 1.500000000000000000 ) ;
#928 = ORIENTED_EDGE ( 'NONE', *, *, #296, .T. ) ;
#929 = CYLINDRICAL_SURFACE ( 'NONE', #183, 1.499999999999999556 ) ;
#930 = CARTESIAN_POINT ( 'NONE',  ( -12.00000000000000533, 0.000000000000000000, 3.000000000000003997 ) ) ;
#931 = ORIENTED_EDGE ( 'NONE', *, *, #568, .F. ) ;
#932 = CIRCLE ( 'NONE', #731, 0.5500000000000010436 ) ;
#933 = ORIENTED_EDGE ( 'NONE', *, *, #706, .F. ) ;
#934 = FACE_OUTER_BOUND ( 'NONE', #127, .T. ) ;
#935 = VERTEX_POINT ( 'NONE', #711 ) ;
#936 = CARTESIAN_POINT ( 'NONE',  ( -16.00000000000000000, 0.000000000000000000, 0.000000000000000000 ) ) ;
#937 = ORIENTED_EDGE ( 'NONE', *, *, #1276, .T. ) ;
#938 = AXIS2_PLACEMENT_3D ( 'NONE', #85, #1358, #414 ) ;
#939 = ADVANCED_FACE ( 'NONE', ( #489 ), #808, .F. ) ;
#940 = VECTOR ( 'NONE', #293, 1000.000000000000000 ) ;
#941 = ORIENTED_EDGE ( 'NONE', *, *, #1050, .T. ) ;
#942 = ORIENTED_EDGE ( 'NONE', *, *, #706, .T. ) ;
#943 = VECTOR ( 'NONE', #1002, 1000.000000000000000 ) ;
#944 = DIRECTION ( 'NONE',  ( 0.000000000000000000, 0.000000000000000000, -1.000000000000000000 ) ) ;
#945 = LINE ( 'NONE', #1246, #940 ) ;
#946 = CARTESIAN_POINT ( 'NONE',  ( 16.00000000000000000, 0.4999999999999995559, 1.750000000000001110 ) ) ;
#947 = EDGE_CURVE ( 'NONE', #996, #730, #1016, .T. ) ;
#948 = AXIS2_PLACEMENT_3D ( 'NONE', #141, #881, #539 ) ;
#949 = ORIENTED_EDGE ( 'NONE', *, *, #195, .T. ) ;
#950 = ADVANCED_FACE ( 'NONE', ( #1323 ), #371, .F. ) ;
#951 = CARTESIAN_POINT ( 'NONE',  ( -16.00000000000000000, 7.500000000000000000, 1.734723475976807094E-15 ) ) ;
#952 = ORIENTED_EDGE ( 'NONE', *, *, #876, .F. ) ;
#953 = DIRECTION ( 'NONE',  ( -1.000000000000000000, 0.000000000000000000, 9.912705577010326782E-17 ) ) ;
#954 = CARTESIAN_POINT ( 'NONE',  ( 15.50000000000000178, 0.000000000000000000, -3.799999999999999822 ) ) ;
#955 = VERTEX_POINT ( 'NONE', #192 ) ;
#956 = EDGE_CURVE ( 'NONE', #651, #1151, #1004, .T. ) ;
#957 = ORIENTED_EDGE ( 'NONE', *, *, #363, .F. ) ;
#958 = VECTOR ( 'NONE', #65, 1000.000000000000000 ) ;
#959 = CARTESIAN_POINT ( 'NONE',  ( 15.50000000000000178, 0.000000000000000000, -6.050000000000000711 ) ) ;
#960 = EDGE_LOOP ( 'NONE', ( #976, #137, #785, #313 ) ) ;
#961 = DIRECTION ( 'NONE',  ( -0.000000000000000000, 1.000000000000000000, -0.000000000000000000 ) ) ;
#962 = LINE ( 'NONE', #1085, #288 ) ;
#963 = AXIS2_PLACEMENT_3D ( 'NONE', #1140, #490, #1347 ) ;
#964 = CARTESIAN_POINT ( 'NONE',  ( 15.50000000000000178, 0.000000000000000000, -5.500000000000000000 ) ) ;
#965 = ORIENTED_EDGE ( 'NONE', *, *, #279, .T. ) ;
#966 = ORIENTED_EDGE ( 'NONE', *, *, #1299, .F. ) ;
#967 = ORIENTED_EDGE ( 'NONE', *, *, #1314, .T. ) ;
#968 = DIRECTION ( 'NONE',  ( 0.000000000000000000, 1.000000000000000000, 0.000000000000000000 ) ) ;
#969 = ORIENTED_EDGE ( 'NONE', *, *, #1260, .T. ) ;
#970 = CARTESIAN_POINT ( 'NONE',  ( 17.50000000000000355, 0.000000000000000000, -3.249999999999994227 ) ) ;
#971 = DIRECTION ( 'NONE',  ( 0.000000000000000000, 0.000000000000000000, 1.000000000000000000 ) ) ;
#972 = ADVANCED_FACE ( 'NONE', ( #375 ), #274, .F. ) ;
#973 = CARTESIAN_POINT ( 'NONE',  ( 16.00000000000000000, 0.000000000000000000, 9.000000000000000000 ) ) ;
#974 = ORIENTED_EDGE ( 'NONE', *, *, #416, .T. ) ;
#975 = ORIENTED_EDGE ( 'NONE', *, *, #1213, .T. ) ;
#976 = ORIENTED_EDGE ( 'NONE', *, *, #179, .F. ) ;
#977 = DIRECTION ( 'NONE',  ( 9.912705577010326782E-17, -0.000000000000000000, 1.000000000000000000 ) ) ;
#978 = EDGE_CURVE ( 'NONE', #42, #1291, #713, .T. ) ;
#979 = CARTESIAN_POINT ( 'NONE',  ( 16.00000000000000000, 0.000000000000000000, -9.000000000000000000 ) ) ;
#980 = CARTESIAN_POINT ( 'NONE',  ( 13.99999999999999822, 0.4999999999999995559, 1.750000000000000888 ) ) ;
#981 = DIRECTION ( 'NONE',  ( 0.000000000000000000, 0.000000000000000000, 1.000000000000000000 ) ) ;
#982 = ORIENTED_EDGE ( 'NONE', *, *, #185, .T. ) ;
#983 = ORIENTED_EDGE ( 'NONE', *, *, #736, .T. ) ;
#984 = FACE_OUTER_BOUND ( 'NONE', #1068, .T. ) ;
#985 = CIRCLE ( 'NONE', #762, 1.049999999999998934 ) ;
#986 = FILL_AREA_STYLE_COLOUR ( '', #385 ) ;
#987 = CARTESIAN_POINT ( 'NONE',  ( -16.00000000000000000, 0.4999999999999995559, 0.000000000000000000 ) ) ;
#988 = DIRECTION ( 'NONE',  ( -0.000000000000000000, 1.000000000000000000, -0.000000000000000000 ) ) ;
#989 = ORIENTED_EDGE ( 'NONE', *, *, #720, .F. ) ;
#990 = CIRCLE ( 'NONE', #898, 1.500000000000000000 ) ;
#991 = EDGE_LOOP ( 'NONE', ( #1177, #1195 ) ) ;
#992 = ADVANCED_FACE ( 'NONE', ( #608 ), #510, .F. ) ;
#993 = FACE_BOUND ( 'NONE', #1287, .T. ) ;
#994 = AXIS2_PLACEMENT_3D ( 'NONE', #1302, #253, #667 ) ;
#995 = DIRECTION ( 'NONE',  ( -1.000000000000000000, -0.000000000000000000, -4.956352788505166226E-16 ) ) ;
#996 = VERTEX_POINT ( 'NONE', #729 ) ;
#997 = EDGE_CURVE ( 'NONE', #567, #114, #1041, .T. ) ;
#998 = VECTOR ( 'NONE', #373, 1000.000000000000000 ) ;
#999 = CIRCLE ( 'NONE', #157, 0.5500000000000010436 ) ;
#1000 = EDGE_CURVE ( 'NONE', #790, #20, #1258, .T. ) ;
#1001 = APPLICATION_PROTOCOL_DEFINITION ( 'draft international standard', 'automotive_design', 1998, #176 ) ;
#1002 = DIRECTION ( 'NONE',  ( 1.000000000000000000, 0.000000000000000000, -1.239088197126289831E-16 ) ) ;
#1003 = ORIENTED_EDGE ( 'NONE', *, *, #70, .T. ) ;
#1004 = LINE ( 'NONE', #269, #538 ) ;
#1005 = VERTEX_POINT ( 'NONE', #746 ) ;
#1006 =( NAMED_UNIT ( * ) PLANE_ANGLE_UNIT ( ) SI_UNIT ( $, .RADIAN. ) );
#1007 = CARTESIAN_POINT ( 'NONE',  ( 17.50000000000000000, 0.000000000000000000, 10.49999999999999645 ) ) ;
#1008 = CIRCLE ( 'NONE', #8, 1.049999999999998934 ) ;
#1009 = DIRECTION ( 'NONE',  ( -0.000000000000000000, 1.000000000000000000, -0.000000000000000000 ) ) ;
#1010 = DIRECTION ( 'NONE',  ( -1.000000000000000000, 0.000000000000000000, 9.912705577010326782E-17 ) ) ;
#1011 = FACE_OUTER_BOUND ( 'NONE', #1296, .T. ) ;
#1012 = DIRECTION ( 'NONE',  ( -0.000000000000000000, 1.000000000000000000, -0.000000000000000000 ) ) ;
#1013 = AXIS2_PLACEMENT_3D ( 'NONE', #136, #557, #31 ) ;
#1014 = DIRECTION ( 'NONE',  ( -0.000000000000000000, 1.000000000000000000, 0.000000000000000000 ) ) ;
#1015 = EDGE_CURVE ( 'NONE', #106, #1151, #217, .T. ) ;
#1016 = LINE ( 'NONE', #1139, #367 ) ;
#1017 = CARTESIAN_POINT ( 'NONE',  ( 15.50000000000000178, 0.000000000000000000, 3.799999999999999822 ) ) ;
#1018 = EDGE_LOOP ( 'NONE', ( #1289, #473 ) ) ;
#1019 = FACE_OUTER_BOUND ( 'NONE', #214, .T. ) ;
#1020 = ADVANCED_FACE ( 'NONE', ( #632 ), #419, .F. ) ;
#1021 = SURFACE_STYLE_USAGE ( .BOTH. , #1226 ) ;
#1022 = DIRECTION ( 'NONE',  ( 0.000000000000000000, -1.000000000000000000, 0.000000000000000000 ) ) ;
#1023 = LINE ( 'NONE', #495, #369 ) ;
#1024 = FACE_BOUND ( 'NONE', #430, .T. ) ;
#1025 =( LENGTH_UNIT ( ) NAMED_UNIT ( * ) SI_UNIT ( .MILLI., .METRE. ) );
#1026 = UNCERTAINTY_MEASURE_WITH_UNIT (LENGTH_MEASURE( 1.000000000000000082E-05 ), #1025, 'distance_accuracy_value', 'NONE');
#1027 = FACE_BOUND ( 'NONE', #856, .T. ) ;
#1028 = DIRECTION ( 'NONE',  ( 0.000000000000000000, -1.000000000000000000, 0.000000000000000000 ) ) ;
#1029 = EDGE_CURVE ( 'NONE', #769, #86, #1008, .T. ) ;
#1030 = EDGE_LOOP ( 'NONE', ( #655, #229, #1371, #957 ) ) ;
#1031 = CARTESIAN_POINT ( 'NONE',  ( 17.50000000000000355, 7.500000000000000000, -9.000000000000007105 ) ) ;
#1032 = DIRECTION ( 'NONE',  ( -0.000000000000000000, 1.000000000000000000, -0.000000000000000000 ) ) ;
#1033 = LINE ( 'NONE', #1237, #122 ) ;
#1034 = ADVANCED_FACE ( 'NONE', ( #841 ), #717, .T. ) ;
#1035 = ORIENTED_EDGE ( 'NONE', *, *, #678, .T. ) ;
#1036 = CARTESIAN_POINT ( 'NONE',  ( 16.00000000000000000, 0.4999999999999995559, -9.000000000000000000 ) ) ;
#1037 = DIRECTION ( 'NONE',  ( 0.000000000000000000, 0.000000000000000000, 1.000000000000000000 ) ) ;
#1038 = EDGE_LOOP ( 'NONE', ( #542, #1042, #1003, #1045 ) ) ;
#1039 = AXIS2_PLACEMENT_3D ( 'NONE', #1017, #1009, #387 ) ;
#1040 = PLANE ( 'NONE',  #781 ) ;
#1041 = LINE ( 'NONE', #1277, #827 ) ;
#1042 = ORIENTED_EDGE ( 'NONE', *, *, #73, .F. ) ;
#1043 = CIRCLE ( 'NONE', #89, 0.5500000000000014877 ) ;
#1044 = PRODUCT_DEFINITION_SHAPE ( 'NONE', 'NONE',  #600 ) ;
#1045 = ORIENTED_EDGE ( 'NONE', *, *, #1247, .F. ) ;
#1046 = DIRECTION ( 'NONE',  ( 0.000000000000000000, 0.000000000000000000, 1.000000000000000000 ) ) ;
#1047 = DIRECTION ( 'NONE',  ( -1.000000000000000000, 0.000000000000000000, 1.858632295689434870E-16 ) ) ;
#1048 = CARTESIAN_POINT ( 'NONE',  ( -17.50000000000000000, 0.4999999999999995559, 10.50000000000000000 ) ) ;
#1049 = VERTEX_POINT ( 'NONE', #1156 ) ;
#1050 = EDGE_CURVE ( 'NONE', #353, #308, #1212, .T. ) ;
#1051 = CIRCLE ( 'NONE', #284, 1.500000000000000000 ) ;
#1052 = DIRECTION ( 'NONE',  ( -0.000000000000000000, -1.000000000000000000, -0.000000000000000000 ) ) ;
#1053 = AXIS2_PLACEMENT_3D ( 'NONE', #1064, #556, #1285 ) ;
#1054 =( NAMED_UNIT ( * ) SI_UNIT ( $, .STERADIAN. ) SOLID_ANGLE_UNIT ( ) );
#1055 = CARTESIAN_POINT ( 'NONE',  ( -9.000000000000007105, 0.000000000000000000, -9.000000000000001776 ) ) ;
#1056 = EDGE_CURVE ( 'NONE', #53, #105, #1280, .T. ) ;
#1057 = CARTESIAN_POINT ( 'NONE',  ( 16.00000000000000000, 7.500000000000000000, 8.999999999999998224 ) ) ;
#1058 = AXIS2_PLACEMENT_3D ( 'NONE', #1055, #1154, #840 ) ;
#1059 = ORIENTED_EDGE ( 'NONE', *, *, #279, .F. ) ;
#1060 = ORIENTED_EDGE ( 'NONE', *, *, #1207, .F. ) ;
#1061 = CARTESIAN_POINT ( 'NONE',  ( -12.00000000000000355, 0.4999999999999995559, -1.499999999999998446 ) ) ;
#1062 = ORIENTED_EDGE ( 'NONE', *, *, #1095, .T. ) ;
#1063 = CARTESIAN_POINT ( 'NONE',  ( 15.50000000000000178, 0.000000000000000000, 4.350000000000001421 ) ) ;
#1064 = CARTESIAN_POINT ( 'NONE',  ( 15.50000000000000178, 0.000000000000000000, -3.799999999999999822 ) ) ;
#1065 = CARTESIAN_POINT ( 'NONE',  ( -12.00000000000000533, 0.4999999999999995559, 1.500000000000004219 ) ) ;
#1066 = ORIENTED_EDGE ( 'NONE', *, *, #1134, .F. ) ;
#1067 = ORIENTED_EDGE ( 'NONE', *, *, #1029, .T. ) ;
#1068 = EDGE_LOOP ( 'NONE', ( #628, #1273, #1204, #842 ) ) ;
#1069 = AXIS2_PLACEMENT_3D ( 'NONE', #537, #961, #1046 ) ;
#1070 = AXIS2_PLACEMENT_3D ( 'NONE', #797, #71, #1221 ) ;
#1071 = CARTESIAN_POINT ( 'NONE',  ( 15.50000000000000178, 0.000000000000000000, 3.799999999999999822 ) ) ;
#1072 = EDGE_CURVE ( 'NONE', #1350, #1278, #403, .T. ) ;
#1073 = VERTEX_POINT ( 'NONE', #946 ) ;
#1074 = CYLINDRICAL_SURFACE ( 'NONE', #832, 1.499999999999999556 ) ;
#1075 = DIRECTION ( 'NONE',  ( -0.000000000000000000, -1.000000000000000000, -0.000000000000000000 ) ) ;
#1076 = AXIS2_PLACEMENT_3D ( 'NONE', #908, #1249, #163 ) ;
#1077 = CARTESIAN_POINT ( 'NONE',  ( 13.99999999999999822, 0.000000000000000000, -1.749999999999998890 ) ) ;
#1078 = ORIENTED_EDGE ( 'NONE', *, *, #209, .F. ) ;
#1079 = VERTEX_POINT ( 'NONE', #305 ) ;
#1080 = ORIENTED_EDGE ( 'NONE', *, *, #804, .F. ) ;
#1081 = AXIS2_PLACEMENT_3D ( 'NONE', #973, #776, #867 ) ;
#1082 = CYLINDRICAL_SURFACE ( 'NONE', #38, 1.049999999999998934 ) ;
#1083 = ORIENTED_EDGE ( 'NONE', *, *, #581, .F. ) ;
#1084 = LINE ( 'NONE', #242, #246 ) ;
#1085 = CARTESIAN_POINT ( 'NONE',  ( 15.49999999999999822, 7.500000000000000000, 1.750000000000000666 ) ) ;
#1086 = CARTESIAN_POINT ( 'NONE',  ( 13.99999999999999822, 0.4999999999999995559, -1.749999999999998890 ) ) ;
#1087 = ORIENTED_EDGE ( 'NONE', *, *, #259, .F. ) ;
#1088 = ORIENTED_EDGE ( 'NONE', *, *, #726, .F. ) ;
#1089 = EDGE_LOOP ( 'NONE', ( #1264, #791, #1162, #1190 ) ) ;
#1090 = CARTESIAN_POINT ( 'NONE',  ( 15.49999999999999822, 0.000000000000000000, 0.2500000000000009437 ) ) ;
#1091 = PRODUCT_CONTEXT ( 'NONE', #176, 'mechanical' ) ;
#1092 = DIRECTION ( 'NONE',  ( 0.000000000000000000, 1.000000000000000000, 0.000000000000000000 ) ) ;
#1093 = LINE ( 'NONE', #1086, #814 ) ;
#1094 = ORIENTED_EDGE ( 'NONE', *, *, #140, .T. ) ;
#1095 = EDGE_CURVE ( 'NONE', #1350, #1303, #921, .T. ) ;
#1096 = ORIENTED_EDGE ( 'NONE', *, *, #73, .T. ) ;
#1097 = ORIENTED_EDGE ( 'NONE', *, *, #416, .F. ) ;
#1098 = FACE_OUTER_BOUND ( 'NONE', #885, .T. ) ;
#1099 = ADVANCED_FACE ( 'NONE', ( #1252 ), #851, .F. ) ;
#1100 = DIRECTION ( 'NONE',  ( 0.000000000000000000, 0.000000000000000000, -1.000000000000000000 ) ) ;
#1101 = ORIENTED_EDGE ( 'NONE', *, *, #1119, .T. ) ;
#1102 = EDGE_CURVE ( 'NONE', #391, #544, #1051, .T. ) ;
#1103 = SURFACE_STYLE_FILL_AREA ( #664 ) ;
#1104 = DIRECTION ( 'NONE',  ( -0.000000000000000000, 1.000000000000000000, -0.000000000000000000 ) ) ;
#1105 = AXIS2_PLACEMENT_3D ( 'NONE', #126, #550, #673 ) ;
#1106 = ORIENTED_EDGE ( 'NONE', *, *, #421, .T. ) ;
#1107 = ORIENTED_EDGE ( 'NONE', *, *, #666, .T. ) ;
#1108 = CARTESIAN_POINT ( 'NONE',  ( 15.50000000000000178, 0.000000000000000000, 3.249999999999998668 ) ) ;
#1109 = DIRECTION ( 'NONE',  ( -1.000000000000000000, 0.000000000000000000, -1.652117596168387756E-16 ) ) ;
#1110 = CYLINDRICAL_SURFACE ( 'NONE', #648, 1.049999999999998934 ) ;
#1111 = CARTESIAN_POINT ( 'NONE',  ( 15.50000000000000178, 0.4999999999999995559, 4.350000000000001421 ) ) ;
#1112 = VECTOR ( 'NONE', #1014, 1000.000000000000000 ) ;
#1113 = CARTESIAN_POINT ( 'NONE',  ( -16.00000000000000000, 0.4999999999999995559, 0.000000000000000000 ) ) ;
#1114 = ADVANCED_FACE ( 'NONE', ( #101 ), #407, .F. ) ;
#1115 = CIRCLE ( 'NONE', #164, 0.5500000000000010436 ) ;
#1116 = CARTESIAN_POINT ( 'NONE',  ( -10.50000000000000533, 0.4999999999999995559, 9.000000000000001776 ) ) ;
#1117 = DIRECTION ( 'NONE',  ( 1.239088197126289831E-16, 0.000000000000000000, 1.000000000000000000 ) ) ;
#1118 = CARTESIAN_POINT ( 'NONE',  ( 16.00000000000000000, 0.4999999999999995559, 10.49999999999999645 ) ) ;
#1119 = EDGE_CURVE ( 'NONE', #455, #213, #310, .T. ) ;
#1120 = VECTOR ( 'NONE', #823, 1000.000000000000000 ) ;
#1121 = DIRECTION ( 'NONE',  ( -0.000000000000000000, 1.000000000000000000, -0.000000000000000000 ) ) ;
#1122 = EDGE_CURVE ( 'NONE', #308, #322, #452, .T. ) ;
#1123 = VECTOR ( 'NONE', #522, 1000.000000000000000 ) ;
#1124 = CARTESIAN_POINT ( 'NONE',  ( -16.00000000000000000, 0.000000000000000000, 1.050000000000000266 ) ) ;
#1125 = ORIENTED_EDGE ( 'NONE', *, *, #586, .F. ) ;
#1126 = CARTESIAN_POINT ( 'NONE',  ( 17.50000000000000000, 0.000000000000000000, 10.49999999999999645 ) ) ;
#1127 = DIRECTION ( 'NONE',  ( -0.000000000000000000, -1.000000000000000000, -0.000000000000000000 ) ) ;
#1128 = VECTOR ( 'NONE', #267, 1000.000000000000000 ) ;
#1129 = AXIS2_PLACEMENT_3D ( 'NONE', #987, #125, #971 ) ;
#1130 = CARTESIAN_POINT ( 'NONE',  ( 15.49999999999999822, 0.000000000000000000, -0.2499999999999993616 ) ) ;
#1131 = DIRECTION ( 'NONE',  ( 0.000000000000000000, 0.000000000000000000, 1.000000000000000000 ) ) ;
#1132 = CARTESIAN_POINT ( 'NONE',  ( 15.50000000000000178, 0.4999999999999995559, 5.500000000000000000 ) ) ;
#1133 = LINE ( 'NONE', #591, #499 ) ;
#1134 = EDGE_CURVE ( 'NONE', #567, #1049, #859, .T. ) ;
#1135 = VERTEX_POINT ( 'NONE', #23 ) ;
#1136 = CARTESIAN_POINT ( 'NONE',  ( 16.00000000000000000, 0.000000000000000000, 1.750000000000000666 ) ) ;
#1137 = EDGE_CURVE ( 'NONE', #1365, #996, #1168, .T. ) ;
#1138 = AXIS2_PLACEMENT_3D ( 'NONE', #1229, #820, #583 ) ;
#1139 = CARTESIAN_POINT ( 'NONE',  ( 13.99999999999999822, 0.000000000000000000, -1.749999999999998890 ) ) ;
#1140 = CARTESIAN_POINT ( 'NONE',  ( 15.50000000000000178, 0.4999999999999995559, 3.799999999999999822 ) ) ;
#1141 = AXIS2_PLACEMENT_3D ( 'NONE', #546, #977, #855 ) ;
#1142 = DIRECTION ( 'NONE',  ( 0.000000000000000000, 0.000000000000000000, 1.000000000000000000 ) ) ;
#1143 = DIRECTION ( 'NONE',  ( -0.000000000000000000, -1.000000000000000000, -0.000000000000000000 ) ) ;
#1144 = VERTEX_POINT ( 'NONE', #1065 ) ;
#1145 = ADVANCED_FACE ( 'NONE', ( #460 ), #766, .F. ) ;
#1146 = EDGE_LOOP ( 'NONE', ( #147, #668, #405, #801 ) ) ;
#1147 = FACE_OUTER_BOUND ( 'NONE', #536, .T. ) ;
#1148 = ORIENTED_EDGE ( 'NONE', *, *, #320, .T. ) ;
#1149 = DIRECTION ( 'NONE',  ( 2.312964634635742661E-15, 0.000000000000000000, 1.000000000000000000 ) ) ;
#1150 = VERTEX_POINT ( 'NONE', #784 ) ;
#1151 = VERTEX_POINT ( 'NONE', #15 ) ;
#1152 = VECTOR ( 'NONE', #1235, 1000.000000000000000 ) ;
#1153 = ORIENTED_EDGE ( 'NONE', *, *, #103, .F. ) ;
#1154 = DIRECTION ( 'NONE',  ( 0.000000000000000000, -1.000000000000000000, 0.000000000000000000 ) ) ;
#1155 = EDGE_CURVE ( 'NONE', #544, #1291, #1093, .T. ) ;
#1156 = CARTESIAN_POINT ( 'NONE',  ( -16.00000000000000000, 0.4999999999999995559, -1.500000000000000666 ) ) ;
#1157 = ORIENTED_EDGE ( 'NONE', *, *, #997, .F. ) ;
#1158 = CIRCLE ( 'NONE', #1337, 1.500000000000000000 ) ;
#1159 = EDGE_CURVE ( 'NONE', #32, #91, #677, .T. ) ;
#1160 = ORIENTED_EDGE ( 'NONE', *, *, #185, .F. ) ;
#1161 = AXIS2_PLACEMENT_3D ( 'NONE', #382, #482, #290 ) ;
#1162 = ORIENTED_EDGE ( 'NONE', *, *, #1223, .F. ) ;
#1163 = ADVANCED_FACE ( 'NONE', ( #151 ), #884, .F. ) ;
#1164 = DIRECTION ( 'NONE',  ( 0.000000000000000000, 1.000000000000000000, 0.000000000000000000 ) ) ;
#1165 = DIRECTION ( 'NONE',  ( -0.000000000000000000, -1.000000000000000000, -0.000000000000000000 ) ) ;
#1166 = DIRECTION ( 'NONE',  ( -1.000000000000000000, 0.000000000000000000, -1.652117596168387756E-16 ) ) ;
#1167 = ORIENTED_EDGE ( 'NONE', *, *, #695, .T. ) ;
#1168 = CIRCLE ( 'NONE', #326, 1.500000000000000000 ) ;
#1169 = DIRECTION ( 'NONE',  ( 0.000000000000000000, 1.000000000000000000, 0.000000000000000000 ) ) ;
#1170 = ORIENTED_EDGE ( 'NONE', *, *, #1159, .T. ) ;
#1171 = ORIENTED_EDGE ( 'NONE', *, *, #1344, .F. ) ;
#1172 = CIRCLE ( 'NONE', #1244, 1.050000000000000266 ) ;
#1173 = DIRECTION ( 'NONE',  ( 0.000000000000000000, 0.000000000000000000, 1.000000000000000000 ) ) ;
#1174 = FACE_BOUND ( 'NONE', #630, .T. ) ;
#1175 = DIRECTION ( 'NONE',  ( 1.000000000000000000, 0.000000000000000000, -1.239088197126289831E-16 ) ) ;
#1176 = AXIS2_PLACEMENT_3D ( 'NONE', #765, #234, #549 ) ;
#1177 = ORIENTED_EDGE ( 'NONE', *, *, #604, .T. ) ;
#1178 = EDGE_LOOP ( 'NONE', ( #528, #120, #864, #1227 ) ) ;
#1179 = EDGE_CURVE ( 'NONE', #17, #114, #875, .T. ) ;
#1180 = CARTESIAN_POINT ( 'NONE',  ( 16.00000000000000000, 0.000000000000000000, -9.000000000000000000 ) ) ;
#1181 = EDGE_LOOP ( 'NONE', ( #152, #561, #862, #132 ) ) ;
#1182 = DIRECTION ( 'NONE',  ( -0.000000000000000000, 1.000000000000000000, -0.000000000000000000 ) ) ;
#1183 = LINE ( 'NONE', #980, #779 ) ;
#1184 = CARTESIAN_POINT ( 'NONE',  ( -17.50000000000000000, 0.000000000000000000, -1.500000000000001332 ) ) ;
#1185 = ORIENTED_EDGE ( 'NONE', *, *, #383, .T. ) ;
#1186 = ORIENTED_EDGE ( 'NONE', *, *, #1202, .F. ) ;
#1187 = VERTEX_POINT ( 'NONE', #343 ) ;
#1188 = AXIS2_PLACEMENT_3D ( 'NONE', #317, #1032, #92 ) ;
#1189 = LINE ( 'NONE', #104, #263 ) ;
#1190 = ORIENTED_EDGE ( 'NONE', *, *, #249, .F. ) ;
#1191 = LINE ( 'NONE', #433, #173 ) ;
#1192 = DIRECTION ( 'NONE',  ( 0.000000000000000000, 0.000000000000000000, -1.000000000000000000 ) ) ;
#1193 = CARTESIAN_POINT ( 'NONE',  ( 17.50000000000000355, 7.500000000000000000, -3.249999999999997780 ) ) ;
#1194 = ORIENTED_EDGE ( 'NONE', *, *, #1265, .F. ) ;
#1195 = ORIENTED_EDGE ( 'NONE', *, *, #782, .T. ) ;
#1196 = VERTEX_POINT ( 'NONE', #364 ) ;
#1197 = CIRCLE ( 'NONE', #461, 0.5500000000000010436 ) ;
#1198 = AXIS2_PLACEMENT_3D ( 'NONE', #268, #273, #694 ) ;
#1199 = CYLINDRICAL_SURFACE ( 'NONE', #737, 1.500000000000000000 ) ;
#1200 = CARTESIAN_POINT ( 'NONE',  ( 16.00000000000000000, 0.000000000000000000, -10.04999999999999893 ) ) ;
#1201 = DIRECTION ( 'NONE',  ( 0.000000000000000000, 0.000000000000000000, 1.000000000000000000 ) ) ;
#1202 = EDGE_CURVE ( 'NONE', #747, #322, #1311, .T. ) ;
#1203 = DIRECTION ( 'NONE',  ( 1.000000000000000000, 0.000000000000000000, 4.956352788505165240E-16 ) ) ;
#1204 = ORIENTED_EDGE ( 'NONE', *, *, #659, .T. ) ;
#1205 = EDGE_LOOP ( 'NONE', ( #507, #236, #255, #439 ) ) ;
#1206 = EDGE_LOOP ( 'NONE', ( #306, #447, #437, #18 ) ) ;
#1207 = EDGE_CURVE ( 'NONE', #42, #1365, #143, .T. ) ;
#1208 = DIRECTION ( 'NONE',  ( 0.000000000000000000, -0.000000000000000000, 1.000000000000000000 ) ) ;
#1209 = ADVANCED_FACE ( 'NONE', ( #46 ), #1286, .F. ) ;
#1210 = DIRECTION ( 'NONE',  ( -0.000000000000000000, -1.000000000000000000, -0.000000000000000000 ) ) ;
#1211 = EDGE_LOOP ( 'NONE', ( #488, #180, #323, #415 ) ) ;
#1212 = CIRCLE ( 'NONE', #787, 1.500000000000000000 ) ;
#1213 = EDGE_CURVE ( 'NONE', #1135, #245, #470, .T. ) ;
#1214 =( LENGTH_UNIT ( ) NAMED_UNIT ( * ) SI_UNIT ( .MILLI., .METRE. ) );
#1215 = CARTESIAN_POINT ( 'NONE',  ( -9.000000000000007105, 0.4999999999999995559, -9.000000000000001776 ) ) ;
#1216 = LINE ( 'NONE', #208, #775 ) ;
#1217 = VECTOR ( 'NONE', #752, 1000.000000000000000 ) ;
#1218 = ORIENTED_EDGE ( 'NONE', *, *, #849, .T. ) ;
#1219 = DIRECTION ( 'NONE',  ( -0.000000000000000000, 1.000000000000000000, -0.000000000000000000 ) ) ;
#1220 = DIRECTION ( 'NONE',  ( 0.000000000000000000, 1.000000000000000000, 0.000000000000000000 ) ) ;
#1221 = DIRECTION ( 'NONE',  ( 0.000000000000000000, 0.000000000000000000, 1.000000000000000000 ) ) ;
#1222 = CARTESIAN_POINT ( 'NONE',  ( 15.50000000000000178, 0.000000000000000000, 6.050000000000000711 ) ) ;
#1223 = EDGE_CURVE ( 'NONE', #533, #837, #301, .T. ) ;
#1224 = DIRECTION ( 'NONE',  ( 1.000000000000000000, 0.000000000000000000, 0.000000000000000000 ) ) ;
#1225 = DIRECTION ( 'NONE',  ( 0.000000000000000000, 0.000000000000000000, 1.000000000000000000 ) ) ;
#1226 = SURFACE_SIDE_STYLE ('',( #186 ) ) ;
#1227 = ORIENTED_EDGE ( 'NONE', *, *, #296, .F. ) ;
#1228 = ADVANCED_FACE ( 'NONE', ( #641 ), #227, .F. ) ;
#1229 = CARTESIAN_POINT ( 'NONE',  ( -16.00000000000000000, 0.000000000000000000, 1.734723475976807094E-15 ) ) ;
#1230 = CARTESIAN_POINT ( 'NONE',  ( -9.000000000000007105, 0.4999999999999995559, 9.000000000000001776 ) ) ;
#1231 = COLOUR_RGB ( '',0.7921568627450980005, 0.8196078431372548767, 0.9333333333333333481 ) ;
#1232 = CARTESIAN_POINT ( 'NONE',  ( 16.00000000000000000, 0.4999999999999995559, 10.04999999999999893 ) ) ;
#1233 = VECTOR ( 'NONE', #902, 1000.000000000000000 ) ;
#1234 =( GEOMETRIC_REPRESENTATION_CONTEXT ( 3 ) GLOBAL_UNCERTAINTY_ASSIGNED_CONTEXT ( ( #1357 ) ) GLOBAL_UNIT_ASSIGNED_CONTEXT ( ( #1214, #1006, #261 ) ) REPRESENTATION_CONTEXT ( 'NONE', 'WORKASPACE' ) );
#1235 = DIRECTION ( 'NONE',  ( -0.000000000000000000, 1.000000000000000000, -0.000000000000000000 ) ) ;
#1236 = DIRECTION ( 'NONE',  ( -0.000000000000000000, 1.000000000000000000, -0.000000000000000000 ) ) ;
#1237 = CARTESIAN_POINT ( 'NONE',  ( -10.50000000000000533, 0.000000000000000000, 3.000000000000003997 ) ) ;
#1238 = CIRCLE ( 'NONE', #30, 0.5500000000000010436 ) ;
#1239 = DIRECTION ( 'NONE',  ( 0.000000000000000000, 0.000000000000000000, 1.000000000000000000 ) ) ;
#1240 = DIRECTION ( 'NONE',  ( -0.000000000000000000, 1.000000000000000000, -0.000000000000000000 ) ) ;
#1241 = ADVANCED_FACE ( 'NONE', ( #650 ), #244, .F. ) ;
#1242 = DIRECTION ( 'NONE',  ( 0.000000000000000000, -0.000000000000000000, -1.000000000000000000 ) ) ;
#1243 = CARTESIAN_POINT ( 'NONE',  ( 15.50000000000000178, 0.000000000000000000, -3.249999999999999112 ) ) ;
#1244 = AXIS2_PLACEMENT_3D ( 'NONE', #278, #594, #910 ) ;
#1245 = ORIENTED_EDGE ( 'NONE', *, *, #464, .F. ) ;
#1246 = CARTESIAN_POINT ( 'NONE',  ( 17.50000000000000000, 7.500000000000000000, 3.250000000000001332 ) ) ;
#1247 = EDGE_CURVE ( 'NONE', #621, #935, #719, .T. ) ;
#1248 = CARTESIAN_POINT ( 'NONE',  ( 16.00000000000000000, 0.000000000000000000, -10.04999999999999893 ) ) ;
#1249 = DIRECTION ( 'NONE',  ( 0.000000000000000000, 1.000000000000000000, 0.000000000000000000 ) ) ;
#1250 = FACE_OUTER_BOUND ( 'NONE', #33, .T. ) ;
#1251 = AXIS2_PLACEMENT_3D ( 'NONE', #210, #830, #1149 ) ;
#1252 = FACE_OUTER_BOUND ( 'NONE', #741, .T. ) ;
#1253 = DIRECTION ( 'NONE',  ( -0.000000000000000000, -1.000000000000000000, -0.000000000000000000 ) ) ;
#1254 = CIRCLE ( 'NONE', #1341, 1.499999999999999556 ) ;
#1255 = ORIENTED_EDGE ( 'NONE', *, *, #1266, .T. ) ;
#1256 = CARTESIAN_POINT ( 'NONE',  ( 16.00000000000000000, 0.4999999999999995559, -7.950000000000000178 ) ) ;
#1257 = VECTOR ( 'NONE', #944, 1000.000000000000000 ) ;
#1258 = LINE ( 'NONE', #723, #56 ) ;
#1259 = ORIENTED_EDGE ( 'NONE', *, *, #978, .F. ) ;
#1260 = EDGE_CURVE ( 'NONE', #1288, #353, #656, .T. ) ;
#1261 = CARTESIAN_POINT ( 'NONE',  ( 13.99999999999999822, 0.000000000000000000, -1.749999999999998890 ) ) ;
#1262 = ORIENTED_EDGE ( 'NONE', *, *, #789, .T. ) ;
#1263 = DIRECTION ( 'NONE',  ( 0.000000000000000000, -1.000000000000000000, 0.000000000000000000 ) ) ;
#1264 = ORIENTED_EDGE ( 'NONE', *, *, #1056, .F. ) ;
#1265 = EDGE_CURVE ( 'NONE', #915, #605, #865, .T. ) ;
#1266 = EDGE_CURVE ( 'NONE', #245, #1196, #774, .T. ) ;
#1267 =( NAMED_UNIT ( * ) PLANE_ANGLE_UNIT ( ) SI_UNIT ( $, .RADIAN. ) );
#1268 = DIRECTION ( 'NONE',  ( -0.000000000000000000, -1.000000000000000000, -0.000000000000000000 ) ) ;
#1269 = CARTESIAN_POINT ( 'NONE',  ( 16.00000000000000000, 0.4999999999999995559, 9.000000000000000000 ) ) ;
#1270 = EDGE_LOOP ( 'NONE', ( #428, #432 ) ) ;
#1271 = DIRECTION ( 'NONE',  ( 0.000000000000000000, 0.000000000000000000, 1.000000000000000000 ) ) ;
#1272 = CIRCLE ( 'NONE', #409, 1.500000000000000000 ) ;
#1273 = ORIENTED_EDGE ( 'NONE', *, *, #467, .T. ) ;
#1274 = CARTESIAN_POINT ( 'NONE',  ( 16.00000000000000000, 0.000000000000000000, 7.950000000000000178 ) ) ;
#1275 = LINE ( 'NONE', #571, #1349 ) ;
#1276 = EDGE_CURVE ( 'NONE', #547, #25, #1197, .T. ) ;
#1277 = CARTESIAN_POINT ( 'NONE',  ( -17.50000000000000000, 0.000000000000000000, -1.500000000000001332 ) ) ;
#1278 = VERTEX_POINT ( 'NONE', #314 ) ;
#1279 = ORIENTED_EDGE ( 'NONE', *, *, #876, .T. ) ;
#1280 = CIRCLE ( 'NONE', #128, 0.5500000000000010436 ) ;
#1281 = EDGE_LOOP ( 'NONE', ( #1096, #831 ) ) ;
#1282 = DIRECTION ( 'NONE',  ( 0.000000000000000000, 0.000000000000000000, 1.000000000000000000 ) ) ;
#1283 = ORIENTED_EDGE ( 'NONE', *, *, #771, .F. ) ;
#1284 = CARTESIAN_POINT ( 'NONE',  ( 15.49999999999999822, 0.000000000000000000, 0.2500000000000009437 ) ) ;
#1285 = DIRECTION ( 'NONE',  ( 0.000000000000000000, 0.000000000000000000, 1.000000000000000000 ) ) ;
#1286 = CYLINDRICAL_SURFACE ( 'NONE', #1363, 0.5500000000000010436 ) ;
#1287 = EDGE_LOOP ( 'NONE', ( #560, #928 ) ) ;
#1288 = VERTEX_POINT ( 'NONE', #215 ) ;
#1289 = ORIENTED_EDGE ( 'NONE', *, *, #904, .T. ) ;
#1290 = CARTESIAN_POINT ( 'NONE',  ( 15.50000000000000178, 0.000000000000000000, 5.500000000000000000 ) ) ;
#1291 = VERTEX_POINT ( 'NONE', #4 ) ;
#1292 = DIRECTION ( 'NONE',  ( -0.000000000000000000, 1.000000000000000000, -0.000000000000000000 ) ) ;
#1293 = FACE_OUTER_BOUND ( 'NONE', #420, .T. ) ;
#1294 = AXIS2_PLACEMENT_3D ( 'NONE', #52, #1332, #595 ) ;
#1295 = DIRECTION ( 'NONE',  ( 0.000000000000000000, 0.000000000000000000, 1.000000000000000000 ) ) ;
#1296 = EDGE_LOOP ( 'NONE', ( #370, #1312, #669, #207 ) ) ;
#1297 = ORIENTED_EDGE ( 'NONE', *, *, #659, .F. ) ;
#1298 = AXIS2_PLACEMENT_3D ( 'NONE', #68, #786, #917 ) ;
#1299 = EDGE_CURVE ( 'NONE', #32, #86, #124, .T. ) ;
#1300 = CARTESIAN_POINT ( 'NONE',  ( 17.50000000000000000, 0.000000000000000000, 3.250000000000002665 ) ) ;
#1301 = CARTESIAN_POINT ( 'NONE',  ( 15.50000000000000178, 0.4999999999999995559, -6.050000000000000711 ) ) ;
#1302 = CARTESIAN_POINT ( 'NONE',  ( 15.50000000000000178, 0.4999999999999995559, 5.500000000000000000 ) ) ;
#1303 = VERTEX_POINT ( 'NONE', #764 ) ;
#1304 = AXIS2_PLACEMENT_3D ( 'NONE', #303, #1268, #611 ) ;
#1305 = EDGE_LOOP ( 'NONE', ( #966, #575, #1035, #1088 ) ) ;
#1306 = CIRCLE ( 'NONE', #392, 1.500000000000000000 ) ;
#1307 = DIRECTION ( 'NONE',  ( 0.000000000000000000, 1.000000000000000000, 0.000000000000000000 ) ) ;
#1308 = ADVANCED_FACE ( 'NONE', ( #225 ), #1074, .T. ) ;
#1309 = DIRECTION ( 'NONE',  ( 0.000000000000000000, 1.000000000000000000, 0.000000000000000000 ) ) ;
#1310 = VECTOR ( 'NONE', #1219, 1000.000000000000000 ) ;
#1311 = LINE ( 'NONE', #891, #352 ) ;
#1312 = ORIENTED_EDGE ( 'NONE', *, *, #316, .F. ) ;
#1313 = AXIS2_PLACEMENT_3D ( 'NONE', #1036, #1165, #521 ) ;
#1314 = EDGE_CURVE ( 'NONE', #692, #424, #1084, .T. ) ;
#1315 = DIRECTION ( 'NONE',  ( 1.000000000000000000, -0.000000000000000000, 4.956352788505166226E-16 ) ) ;
#1316 = DIRECTION ( 'NONE',  ( -0.000000000000000000, -1.000000000000000000, -0.000000000000000000 ) ) ;
#1317 = EDGE_LOOP ( 'NONE', ( #365, #760 ) ) ;
#1318 = AXIS2_PLACEMENT_3D ( 'NONE', #690, #1117, #1175 ) ;
#1319 = SURFACE_SIDE_STYLE ('',( #1103 ) ) ;
#1320 = DIRECTION ( 'NONE',  ( 0.000000000000000000, 0.000000000000000000, 1.000000000000000000 ) ) ;
#1321 = EDGE_CURVE ( 'NONE', #1150, #778, #639, .T. ) ;
#1322 = AXIS2_PLACEMENT_3D ( 'NONE', #1290, #121, #554 ) ;
#1323 = FACE_OUTER_BOUND ( 'NONE', #1178, .T. ) ;
#1324 = ORIENTED_EDGE ( 'NONE', *, *, #1207, .T. ) ;
#1325 = CARTESIAN_POINT ( 'NONE',  ( 0.000000000000000000, 0.000000000000000000, 0.000000000000000000 ) ) ;
#1326 = CARTESIAN_POINT ( 'NONE',  ( -10.50000000000000533, 0.4999999999999995559, -9.000000000000001776 ) ) ;
#1327 = EDGE_CURVE ( 'NONE', #1355, #201, #1191, .T. ) ;
#1328 = CARTESIAN_POINT ( 'NONE',  ( 15.50000000000000178, 0.000000000000000000, -3.799999999999999822 ) ) ;
#1329 = DIRECTION ( 'NONE',  ( -1.000000000000000000, -0.000000000000000000, 1.858632295689434870E-16 ) ) ;
#1330 = FACE_OUTER_BOUND ( 'NONE', #24, .T. ) ;
#1331 = LINE ( 'NONE', #806, #35 ) ;
#1332 = DIRECTION ( 'NONE',  ( -0.000000000000000000, 1.000000000000000000, -0.000000000000000000 ) ) ;
#1333 = DIRECTION ( 'NONE',  ( -0.000000000000000000, -1.000000000000000000, -0.000000000000000000 ) ) ;
#1334 = DIRECTION ( 'NONE',  ( 0.000000000000000000, 1.000000000000000000, 0.000000000000000000 ) ) ;
#1335 = EDGE_CURVE ( 'NONE', #747, #9, #1306, .T. ) ;
#1336 = CARTESIAN_POINT ( 'NONE',  ( 16.00000000000000000, 0.000000000000000000, -7.950000000000000178 ) ) ;
#1337 = AXIS2_PLACEMENT_3D ( 'NONE', #1130, #1121, #175 ) ;
#1338 =( NAMED_UNIT ( * ) SI_UNIT ( $, .STERADIAN. ) SOLID_ANGLE_UNIT ( ) );
#1339 = DIRECTION ( 'NONE',  ( 0.000000000000000000, 0.000000000000000000, -1.000000000000000000 ) ) ;
#1340 = DIRECTION ( 'NONE',  ( 0.000000000000000000, 1.000000000000000000, 0.000000000000000000 ) ) ;
#1341 = AXIS2_PLACEMENT_3D ( 'NONE', #1230, #1127, #691 ) ;
#1342 = ORIENTED_EDGE ( 'NONE', *, *, #581, .T. ) ;
#1343 = CARTESIAN_POINT ( 'NONE',  ( 15.50000000000000178, 0.4999999999999995559, -4.350000000000001421 ) ) ;
#1344 = EDGE_CURVE ( 'NONE', #304, #915, #700, .T. ) ;
#1345 = DIRECTION ( 'NONE',  ( -0.000000000000000000, 1.000000000000000000, -0.000000000000000000 ) ) ;
#1346 = CARTESIAN_POINT ( 'NONE',  ( 15.50000000000000178, 0.000000000000000000, -5.500000000000000000 ) ) ;
#1347 = DIRECTION ( 'NONE',  ( 0.000000000000000000, 0.000000000000000000, 1.000000000000000000 ) ) ;
#1348 = CIRCLE ( 'NONE', #748, 1.049999999999998934 ) ;
#1349 = VECTOR ( 'NONE', #325, 1000.000000000000000 ) ;
#1350 = VERTEX_POINT ( 'NONE', #754 ) ;
#1351 = LINE ( 'NONE', #614, #1120 ) ;
#1352 = DIRECTION ( 'NONE',  ( -0.000000000000000000, 1.000000000000000000, -0.000000000000000000 ) ) ;
#1353 = DIRECTION ( 'NONE',  ( 0.000000000000000000, 0.000000000000000000, -1.000000000000000000 ) ) ;
#1354 = AXIS2_PLACEMENT_3D ( 'NONE', #796, #280, #680 ) ;
#1355 = VERTEX_POINT ( 'NONE', #1063 ) ;
#1356 = CARTESIAN_POINT ( 'NONE',  ( -17.50000000000000000, 0.4999999999999995559, -1.500000000000001332 ) ) ;
#1357 = UNCERTAINTY_MEASURE_WITH_UNIT (LENGTH_MEASURE( 1.000000000000000082E-05 ), #1214, 'distance_accuracy_value', 'NONE');
#1358 = DIRECTION ( 'NONE',  ( -0.000000000000000000, 1.000000000000000000, -0.000000000000000000 ) ) ;
#1359 = VERTEX_POINT ( 'NONE', #115 ) ;
#1360 = ADVANCED_FACE ( 'NONE', ( #529 ), #133, .F. ) ;
#1361 = ORIENTED_EDGE ( 'NONE', *, *, #672, .T. ) ;
#1362 = CARTESIAN_POINT ( 'NONE',  ( -10.50000000000000533, 0.000000000000000000, -10.49999999999999645 ) ) ;
#1363 = AXIS2_PLACEMENT_3D ( 'NONE', #964, #335, #981 ) ;
#1364 = DIRECTION ( 'NONE',  ( 0.000000000000000000, 1.000000000000000000, 0.000000000000000000 ) ) ;
#1365 = VERTEX_POINT ( 'NONE', #970 ) ;
#1366 = ADVANCED_FACE ( 'NONE', ( #21 ), #449, .F. ) ;
#1367 = AXIS2_PLACEMENT_3D ( 'NONE', #1215, #155, #1320 ) ;
#1368 = CARTESIAN_POINT ( 'NONE',  ( 15.50000000000000178, 0.000000000000000000, -5.500000000000000000 ) ) ;
#1369 = CARTESIAN_POINT ( 'NONE',  ( -17.50000000000000000, 7.500000000000000000, 10.50000000000000000 ) ) ;
#1370 = DIRECTION ( 'NONE',  ( 0.000000000000000000, 0.000000000000000000, -1.000000000000000000 ) ) ;
#1371 = ORIENTED_EDGE ( 'NONE', *, *, #604, .F. ) ;
ENDSEC;
END-ISO-10303-21;
