ISO-10303-21;
HEADER;
FILE_DESCRIPTION (( 'STEP AP214' ),
    '1' );
FILE_NAME ('HEPI-PbF2.STEP',
    '2026-01-09T11:17:35',
    ( '' ),
    ( '' ),
    'SwSTEP 2.0',
    'SolidWorks 2024',
    '' );
FILE_SCHEMA (( 'AUTOMOTIVE_DESIGN' ));
ENDSEC;

DATA;
#1 = DOCUMENT_FILE ( 'HEPI Housing.STEP' , '', '', #51, '' ,$ ) ;
#2 =( NAMED_UNIT ( * ) SI_UNIT ( $, .STERADIAN. ) SOLID_ANGLE_UNIT ( ) );
#3 = AXIS2_PLACEMENT_3D ( 'NONE', #127, #26, #105 ) ;
#4 = PRODUCT_RELATED_PRODUCT_CATEGORY ( 'part', '', ( #63 ) ) ;
#5 = PRODUCT_DEFINITION_FORMATION_WITH_SPECIFIED_SOURCE ( 'Symmetric', '', #126, .NOT_KNOWN. ) ;
#6 = DOCUMENT_TYPE ( 'geometry' ) ;
#7 = PRODUCT_DEFINITION ( 'General', '', #19, #33 ) ;
#8 = SHAPE_REPRESENTATION ( 'HEPI-PbF2', ( #23, #15, #66, #42 ), #86 ) ;
#9 = CARTESIAN_POINT ( 'NONE',  ( 0.000000000000000000, 0.000000000000000000, 0.000000000000000000 ) ) ;
#10 = PROPERTY_DEFINITION_REPRESENTATION ( #89, #129 ) ;
#11 = DIRECTION ( 'NONE',  ( 1.000000000000000000, 0.000000000000000000, 0.000000000000000000 ) ) ;
#12 = UNCERTAINTY_MEASURE_WITH_UNIT (LENGTH_MEASURE( 1.000000000000000082E-05 ), #37, 'distance_accuracy_value', 'NONE');
#13 = APPLICATION_PROTOCOL_DEFINITION ( 'draft international standard', 'automotive_design', 1998, #113 ) ;
#14 = APPLICATION_CONTEXT ( 'automotive_design' ) ;
#15 = AXIS2_PLACEMENT_3D ( 'NONE', #145, #55, #49 ) ;
#16 = DIRECTION ( 'NONE',  ( 0.000000000000000000, 0.000000000000000000, 1.000000000000000000 ) ) ;
#17 = UNCERTAINTY_MEASURE_WITH_UNIT (LENGTH_MEASURE( 1.000000000000000082E-05 ), #128, 'distance_accuracy_value', 'NONE');
#18 = DIRECTION ( 'NONE',  ( 1.000000000000000000, 0.000000000000000000, 0.000000000000000000 ) ) ;
#19 = PRODUCT_DEFINITION_FORMATION_WITH_SPECIFIED_SOURCE ( 'Symmetric', '', #103, .NOT_KNOWN. ) ;
#20 = PROPERTY_DEFINITION_REPRESENTATION ( #111, #74 ) ;
#21 = APPLICATION_PROTOCOL_DEFINITION ( 'draft international standard', 'automotive_design', 1998, #53 ) ;
#22 = PRODUCT_CONTEXT ( 'NONE', #71, 'mechanical' ) ;
#23 = AXIS2_PLACEMENT_3D ( 'NONE', #9, #99, #138 ) ;
#24 = PROPERTY_DEFINITION_REPRESENTATION ( #40, #144 ) ;
#25 = PRODUCT_DEFINITION_CONTEXT ( 'detailed design', #14, 'design' ) ;
#26 = DIRECTION ( 'NONE',  ( 0.000000000000000000, 0.000000000000000000, 1.000000000000000000 ) ) ;
#27 = PRODUCT_DEFINITION_SHAPE ( 'NONE', 'NONE',  #124 ) ;
#28 = APPLIED_EXTERNAL_IDENTIFICATION_ASSIGNMENT ( 'HEPI Housing base.STEP' , #82, #83,( #148) ) ;
#29 = EXTERNAL_SOURCE (IDENTIFIER('') ) ;
#30 = CARTESIAN_POINT ( 'NONE',  ( 0.000000000000000000, 0.000000000000000000, 0.000000000000000000 ) ) ;
#31 = PRODUCT ( 'HEPI Housing base', 'HEPI Housing base', '', ( #56 ) ) ;
#32 = APPLICATION_CONTEXT ( 'automotive_design' ) ;
#33 = PRODUCT_DEFINITION_CONTEXT ( 'detailed design', #113, 'design' ) ;
#34 = APPLIED_EXTERNAL_IDENTIFICATION_ASSIGNMENT ( 'PbF2+SiPM+PTFE.STEP' , #35, #29,( #84) ) ;
#35 = IDENTIFICATION_ROLE ( 'external document id and location', $) ;
#36 = CONTEXT_DEPENDENT_SHAPE_REPRESENTATION ( #91, #59 ) ;
#37 =( LENGTH_UNIT ( ) NAMED_UNIT ( * ) SI_UNIT ( .MILLI., .METRE. ) );
#38 = CARTESIAN_POINT ( 'NONE',  ( -19.97434152639470639, -0.8418290610425175347, 30.37057002075016499 ) ) ;
#39 = DIRECTION ( 'NONE',  ( -3.652049423109067827E-16, 0.000000000000000000, -1.000000000000000000 ) ) ;
#40 = PROPERTY_DEFINITION ('external definition','', #148 ) ;
#41 = AXIS2_PLACEMENT_3D ( 'NONE', #147, #16, #64 ) ;
#42 = AXIS2_PLACEMENT_3D ( 'NONE', #137, #39, #131 ) ;
#43 = APPLICATION_CONTEXT ( 'automotive_design' ) ;
#44 = PROPERTY_DEFINITION_REPRESENTATION ( #76, #74 ) ;
#45 = OBJECT_ROLE ('mandatory',$ ) ;
#46 = APPLIED_DOCUMENT_REFERENCE ( #1,'',( #7) ) ;
#47 =( GEOMETRIC_REPRESENTATION_CONTEXT ( 3 ) GLOBAL_UNCERTAINTY_ASSIGNED_CONTEXT ( ( #132 ) ) GLOBAL_UNIT_ASSIGNED_CONTEXT ( ( #94, #77, #90 ) ) REPRESENTATION_CONTEXT ( 'NONE', 'WORKASPACE' ) );
#48 = PRODUCT_RELATED_PRODUCT_CATEGORY ( 'part', '', ( #126 ) ) ;
#49 = DIRECTION ( 'NONE',  ( 1.000000000000000000, 0.000000000000000000, 0.000000000000000000 ) ) ;
#50 = PRODUCT_CONTEXT ( 'NONE', #43, 'mechanical' ) ;
#51 = DOCUMENT_TYPE ( 'geometry' ) ;
#52 = PRODUCT_DEFINITION_SHAPE ( 'NONE', 'NONE',  #7 ) ;
#53 = APPLICATION_CONTEXT ( 'automotive_design' ) ;
#54 = SHAPE_DEFINITION_REPRESENTATION ( #79, #144 ) ;
#55 = DIRECTION ( 'NONE',  ( 0.000000000000000000, 0.000000000000000000, 1.000000000000000000 ) ) ;
#56 = PRODUCT_CONTEXT ( 'NONE', #98, 'mechanical' ) ;
#57 = ITEM_DEFINED_TRANSFORMATION ( 'NONE', 'NONE', #15,  #116 ) ;
#58 = EXTERNAL_SOURCE (IDENTIFIER('') ) ;
#59 = PRODUCT_DEFINITION_SHAPE ( 'NONE', 'NONE',  #151 ) ;
#60 = APPLICATION_CONTEXT ( 'automotive_design' ) ;
#61 =( REPRESENTATION_RELATIONSHIP ('NONE','NONE', #8, #74 ) REPRESENTATION_RELATIONSHIP_WITH_TRANSFORMATION ( #75 )SHAPE_REPRESENTATION_RELATIONSHIP( ) );
#62 =( LENGTH_UNIT ( ) NAMED_UNIT ( * ) SI_UNIT ( .MILLI., .METRE. ) );
#63 = PRODUCT ( 'PbF2+SiPM+PTFE', 'PbF2+SiPM+PTFE', '', ( #119 ) ) ;
#64 = DIRECTION ( 'NONE',  ( 1.000000000000000000, 0.000000000000000000, 0.000000000000000000 ) ) ;
#65 = DOCUMENT_TYPE ( 'geometry' ) ;
#66 = AXIS2_PLACEMENT_3D ( 'NONE', #38, #69, #11 ) ;
#67 = UNCERTAINTY_MEASURE_WITH_UNIT (LENGTH_MEASURE( 1.000000000000000082E-05 ), #62, 'distance_accuracy_value', 'NONE');
#68 = ITEM_DEFINED_TRANSFORMATION ( 'NONE', 'NONE', #42,  #3 ) ;
#69 = DIRECTION ( 'NONE',  ( 0.000000000000000000, 0.000000000000000000, 1.000000000000000000 ) ) ;
#70 = APPLIED_DOCUMENT_REFERENCE ( #148,'',( #78) ) ;
#71 = APPLICATION_CONTEXT ( 'automotive_design' ) ;
#72 = SHAPE_DEFINITION_REPRESENTATION ( #52, #74 ) ;
#73 = IDENTIFICATION_ROLE ( 'external document id and location', $) ;
#74 = SHAPE_REPRESENTATION ( 'HEPI Housing', ( #41 ), #47 ) ;
#75 = ITEM_DEFINED_TRANSFORMATION ( 'NONE', 'NONE', #66,  #41 ) ;
#76 = PROPERTY_DEFINITION ('document property','', #1 ) ;
#77 =( NAMED_UNIT ( * ) PLANE_ANGLE_UNIT ( ) SI_UNIT ( $, .RADIAN. ) );
#78 = PRODUCT_DEFINITION ( 'General', '', #110, #25 ) ;
#79 = PRODUCT_DEFINITION_SHAPE ( 'NONE', 'NONE',  #78 ) ;
#80 =( NAMED_UNIT ( * ) PLANE_ANGLE_UNIT ( ) SI_UNIT ( $, .RADIAN. ) );
#81 = ROLE_ASSOCIATION ( #45, #46 ) ;
#82 = IDENTIFICATION_ROLE ( 'external document id and location', $) ;
#83 = EXTERNAL_SOURCE (IDENTIFIER('') ) ;
#84 = DOCUMENT_FILE ( 'PbF2+SiPM+PTFE.STEP' , '', '', #65, '' ,$ ) ;
#85 = APPLICATION_PROTOCOL_DEFINITION ( 'draft international standard', 'automotive_design', 1998, #32 ) ;
#86 =( GEOMETRIC_REPRESENTATION_CONTEXT ( 3 ) GLOBAL_UNCERTAINTY_ASSIGNED_CONTEXT ( ( #12 ) ) GLOBAL_UNIT_ASSIGNED_CONTEXT ( ( #37, #122, #109 ) ) REPRESENTATION_CONTEXT ( 'NONE', 'WORKASPACE' ) );
#87 = SHAPE_DEFINITION_REPRESENTATION ( #27, #129 ) ;
#88 = OBJECT_ROLE ('mandatory',$ ) ;
#89 = PROPERTY_DEFINITION ('document property','', #84 ) ;
#90 =( NAMED_UNIT ( * ) SI_UNIT ( $, .STERADIAN. ) SOLID_ANGLE_UNIT ( ) );
#91 =( REPRESENTATION_RELATIONSHIP ('NONE','NONE', #8, #129 ) REPRESENTATION_RELATIONSHIP_WITH_TRANSFORMATION ( #68 )SHAPE_REPRESENTATION_RELATIONSHIP( ) );
#92 = PRODUCT_DEFINITION_SHAPE ( 'NONE', 'NONE',  #149 ) ;
#93 = PRODUCT_DEFINITION_FORMATION_WITH_SPECIFIED_SOURCE ( 'Symmetric', '', #63, .NOT_KNOWN. ) ;
#94 =( LENGTH_UNIT ( ) NAMED_UNIT ( * ) SI_UNIT ( .MILLI., .METRE. ) );
#95 =( NAMED_UNIT ( * ) SI_UNIT ( $, .STERADIAN. ) SOLID_ANGLE_UNIT ( ) );
#96 =( GEOMETRIC_REPRESENTATION_CONTEXT ( 3 ) GLOBAL_UNCERTAINTY_ASSIGNED_CONTEXT ( ( #17 ) ) GLOBAL_UNIT_ASSIGNED_CONTEXT ( ( #128, #80, #2 ) ) REPRESENTATION_CONTEXT ( 'NONE', 'WORKASPACE' ) );
#97 = ROLE_ASSOCIATION ( #101, #70 ) ;
#98 = APPLICATION_CONTEXT ( 'automotive_design' ) ;
#99 = DIRECTION ( 'NONE',  ( 0.000000000000000000, 0.000000000000000000, 1.000000000000000000 ) ) ;
#100 = PROPERTY_DEFINITION_REPRESENTATION ( #135, #144 ) ;
#101 = OBJECT_ROLE ('mandatory',$ ) ;
#102 = APPLICATION_PROTOCOL_DEFINITION ( 'draft international standard', 'automotive_design', 1998, #60 ) ;
#103 = PRODUCT ( 'HEPI Housing', 'HEPI Housing', '', ( #22 ) ) ;
#104 =( GEOMETRIC_REPRESENTATION_CONTEXT ( 3 ) GLOBAL_UNCERTAINTY_ASSIGNED_CONTEXT ( ( #67 ) ) GLOBAL_UNIT_ASSIGNED_CONTEXT ( ( #62, #136, #95 ) ) REPRESENTATION_CONTEXT ( 'NONE', 'WORKASPACE' ) );
#105 = DIRECTION ( 'NONE',  ( 1.000000000000000000, 0.000000000000000000, 0.000000000000000000 ) ) ;
#106 = PRODUCT_RELATED_PRODUCT_CATEGORY ( 'part', '', ( #103 ) ) ;
#107 = CONTEXT_DEPENDENT_SHAPE_REPRESENTATION ( #61, #134 ) ;
#108 = ROLE_ASSOCIATION ( #88, #130 ) ;
#109 =( NAMED_UNIT ( * ) SI_UNIT ( $, .STERADIAN. ) SOLID_ANGLE_UNIT ( ) );
#110 = PRODUCT_DEFINITION_FORMATION_WITH_SPECIFIED_SOURCE ( 'Symmetric', '', #31, .NOT_KNOWN. ) ;
#111 = PROPERTY_DEFINITION ('external definition','', #1 ) ;
#112 = DIRECTION ( 'NONE',  ( 0.000000000000000000, 0.000000000000000000, 1.000000000000000000 ) ) ;
#113 = APPLICATION_CONTEXT ( 'automotive_design' ) ;
#114 = PRODUCT_DEFINITION_CONTEXT ( 'detailed design', #60, 'design' ) ;
#115 = PRODUCT_RELATED_PRODUCT_CATEGORY ( 'part', '', ( #31 ) ) ;
#116 = AXIS2_PLACEMENT_3D ( 'NONE', #30, #112, #18 ) ;
#117 =( REPRESENTATION_RELATIONSHIP ('NONE','NONE', #8, #144 ) REPRESENTATION_RELATIONSHIP_WITH_TRANSFORMATION ( #57 )SHAPE_REPRESENTATION_RELATIONSHIP( ) );
#118 = SHAPE_DEFINITION_REPRESENTATION ( #146, #8 ) ;
#119 = PRODUCT_CONTEXT ( 'NONE', #32, 'mechanical' ) ;
#120 = PROPERTY_DEFINITION_REPRESENTATION ( #133, #129 ) ;
#121 = APPLICATION_PROTOCOL_DEFINITION ( 'draft international standard', 'automotive_design', 1998, #98 ) ;
#122 =( NAMED_UNIT ( * ) PLANE_ANGLE_UNIT ( ) SI_UNIT ( $, .RADIAN. ) );
#123 = PRODUCT_DEFINITION ( 'General', '', #5, #114 ) ;
#124 = PRODUCT_DEFINITION ( 'General', '', #93, #143 ) ;
#125 = APPLICATION_PROTOCOL_DEFINITION ( 'draft international standard', 'automotive_design', 1998, #43 ) ;
#126 = PRODUCT ( 'HEPI-PbF2', 'HEPI-PbF2', '', ( #50 ) ) ;
#127 = CARTESIAN_POINT ( 'NONE',  ( 0.000000000000000000, 0.000000000000000000, 0.000000000000000000 ) ) ;
#128 =( LENGTH_UNIT ( ) NAMED_UNIT ( * ) SI_UNIT ( .MILLI., .METRE. ) );
#129 = SHAPE_REPRESENTATION ( 'PbF2+SiPM+PTFE', ( #3 ), #104 ) ;
#130 = APPLIED_DOCUMENT_REFERENCE ( #84,'',( #124) ) ;
#131 = DIRECTION ( 'NONE',  ( 1.000000000000000000, 0.000000000000000000, -3.652049423109067827E-16 ) ) ;
#132 = UNCERTAINTY_MEASURE_WITH_UNIT (LENGTH_MEASURE( 1.000000000000000082E-05 ), #94, 'distance_accuracy_value', 'NONE');
#133 = PROPERTY_DEFINITION ('external definition','', #84 ) ;
#134 = PRODUCT_DEFINITION_SHAPE ( 'NONE', 'NONE',  #150 ) ;
#135 = PROPERTY_DEFINITION ('document property','', #148 ) ;
#136 =( NAMED_UNIT ( * ) PLANE_ANGLE_UNIT ( ) SI_UNIT ( $, .RADIAN. ) );
#137 = CARTESIAN_POINT ( 'NONE',  ( -24.81639144120233098, 10.87941776518712089, 40.39527391377605170 ) ) ;
#138 = DIRECTION ( 'NONE',  ( 1.000000000000000000, 0.000000000000000000, 0.000000000000000000 ) ) ;
#139 = APPLIED_EXTERNAL_IDENTIFICATION_ASSIGNMENT ( 'HEPI Housing.STEP' , #73, #58,( #1) ) ;
#140 = APPLICATION_PROTOCOL_DEFINITION ( 'draft international standard', 'automotive_design', 1998, #14 ) ;
#141 = APPLICATION_PROTOCOL_DEFINITION ( 'draft international standard', 'automotive_design', 1998, #71 ) ;
#142 = CONTEXT_DEPENDENT_SHAPE_REPRESENTATION ( #117, #92 ) ;
#143 = PRODUCT_DEFINITION_CONTEXT ( 'detailed design', #53, 'design' ) ;
#144 = SHAPE_REPRESENTATION ( 'HEPI Housing base', ( #116 ), #96 ) ;
#145 = CARTESIAN_POINT ( 'NONE',  ( -19.97434152639470639, 6.658170938957482576, 30.37057002075016499 ) ) ;
#146 = PRODUCT_DEFINITION_SHAPE ( 'NONE', 'NONE',  #123 ) ;
#147 = CARTESIAN_POINT ( 'NONE',  ( 0.000000000000000000, 0.000000000000000000, 0.000000000000000000 ) ) ;
#148 = DOCUMENT_FILE ( 'HEPI Housing base.STEP' , '', '', #6, '' ,$ ) ;
#149 = NEXT_ASSEMBLY_USAGE_OCCURRENCE ( 'NAUO7', ' ', ' ', #123, #78, $ ) ;
#150 = NEXT_ASSEMBLY_USAGE_OCCURRENCE ( 'NAUO8', ' ', ' ', #123, #7, $ ) ;
#151 = NEXT_ASSEMBLY_USAGE_OCCURRENCE ( 'NAUO9', ' ', ' ', #123, #124, $ ) ;
ENDSEC;
END-ISO-10303-21;
