ISO-10303-21;
HEADER;
FILE_DESCRIPTION (( 'STEP AP214' ),
    '1' );
FILE_NAME ('PbF2 Radiator.STEP',
    '2026-01-09T11:17:35',
    ( '' ),
    ( '' ),
    'SwSTEP 2.0',
    'SolidWorks 2024',
    '' );
FILE_SCHEMA (( 'AUTOMOTIVE_DESIGN' ));
ENDSEC;

DATA;
#1 = VECTOR ( 'NONE', #109, 1000.000000000000000 ) ;
#2 = ORIENTED_EDGE ( 'NONE', *, *, #168, .T. ) ;
#3 = CARTESIAN_POINT ( 'NONE',  ( -8.999999999999998224, 6.000000000000000000, 8.999999999999998224 ) ) ;
#4 = CARTESIAN_POINT ( 'NONE',  ( -8.999999999999998224, 6.000000000000000000, 8.999999999999998224 ) ) ;
#5 = CARTESIAN_POINT ( 'NONE',  ( -9.000000000000000000, 0.000000000000000000, -9.000000000000001776 ) ) ;
#6 = VECTOR ( 'NONE', #171, 1000.000000000000000 ) ;
#7 = EDGE_CURVE ( 'NONE', #82, #72, #128, .T. ) ;
#8 = SHAPE_DEFINITION_REPRESENTATION ( #132, #27 ) ;
#9 = CARTESIAN_POINT ( 'NONE',  ( -8.999999999999998224, 0.000000000000000000, 8.999999999999998224 ) ) ;
#10 = AXIS2_PLACEMENT_3D ( 'NONE', #105, #133, #65 ) ;
#11 = PRESENTATION_STYLE_ASSIGNMENT (( #96 ) ) ;
#12 = EDGE_CURVE ( 'NONE', #20, #101, #37, .T. ) ;
#13 = DIRECTION ( 'NONE',  ( 1.000000000000000000, 0.000000000000000000, -9.637352644315595243E-17 ) ) ;
#14 = UNCERTAINTY_MEASURE_WITH_UNIT (LENGTH_MEASURE( 1.000000000000000082E-05 ), #121, 'distance_accuracy_value', 'NONE');
#15 = ORIENTED_EDGE ( 'NONE', *, *, #147, .T. ) ;
#16 = ORIENTED_EDGE ( 'NONE', *, *, #104, .F. ) ;
#17 = VECTOR ( 'NONE', #106, 1000.000000000000000 ) ;
#18 = CARTESIAN_POINT ( 'NONE',  ( 9.000000000000001776, 6.000000000000000000, 8.999999999999998224 ) ) ;
#19 = PLANE ( 'NONE',  #160 ) ;
#20 = VERTEX_POINT ( 'NONE', #116 ) ;
#21 = DIRECTION ( 'NONE',  ( -0.000000000000000000, -1.000000000000000000, -0.000000000000000000 ) ) ;
#22 = ADVANCED_FACE ( 'NONE', ( #53 ), #140, .F. ) ;
#23 = UNCERTAINTY_MEASURE_WITH_UNIT (LENGTH_MEASURE( 1.000000000000000082E-05 ), #118, 'distance_accuracy_value', 'NONE');
#24 = CARTESIAN_POINT ( 'NONE',  ( -9.000000000000000000, 6.000000000000000000, -9.000000000000001776 ) ) ;
#25 = PRODUCT_DEFINITION_FORMATION_WITH_SPECIFIED_SOURCE ( 'Symmetric', '', #40, .NOT_KNOWN. ) ;
#26 = CARTESIAN_POINT ( 'NONE',  ( -9.000000000000000000, 0.000000000000000000, -9.000000000000001776 ) ) ;
#27 = ADVANCED_BREP_SHAPE_REPRESENTATION ( 'PbF2 Radiator', ( #131, #119 ), #43 ) ;
#28 = EDGE_CURVE ( 'NONE', #167, #60, #173, .T. ) ;
#29 = VECTOR ( 'NONE', #108, 1000.000000000000000 ) ;
#30 = ORIENTED_EDGE ( 'NONE', *, *, #7, .T. ) ;
#31 = VECTOR ( 'NONE', #102, 1000.000000000000000 ) ;
#32 = ORIENTED_EDGE ( 'NONE', *, *, #12, .T. ) ;
#33 = ORIENTED_EDGE ( 'NONE', *, *, #147, .F. ) ;
#34 = PLANE ( 'NONE',  #122 ) ;
#35 = ADVANCED_FACE ( 'NONE', ( #156 ), #34, .T. ) ;
#36 = PRODUCT_CONTEXT ( 'NONE', #49, 'mechanical' ) ;
#37 = LINE ( 'NONE', #4, #91 ) ;
#38 = LINE ( 'NONE', #26, #29 ) ;
#39 = DIRECTION ( 'NONE',  ( 9.637352644315595243E-17, 0.000000000000000000, 1.000000000000000000 ) ) ;
#40 = PRODUCT ( 'PbF2 Radiator', 'PbF2 Radiator', '', ( #36 ) ) ;
#41 = DIRECTION ( 'NONE',  ( 1.000000000000000000, 0.000000000000000000, 0.000000000000000000 ) ) ;
#42 = APPLICATION_PROTOCOL_DEFINITION ( 'draft international standard', 'automotive_design', 1998, #49 ) ;
#43 =( GEOMETRIC_REPRESENTATION_CONTEXT ( 3 ) GLOBAL_UNCERTAINTY_ASSIGNED_CONTEXT ( ( #23 ) ) GLOBAL_UNIT_ASSIGNED_CONTEXT ( ( #118, #180, #93 ) ) REPRESENTATION_CONTEXT ( 'NONE', 'WORKASPACE' ) );
#44 = CARTESIAN_POINT ( 'NONE',  ( 9.000000000000000000, 0.000000000000000000, -9.000000000000001776 ) ) ;
#45 = FACE_OUTER_BOUND ( 'NONE', #138, .T. ) ;
#46 = SURFACE_STYLE_FILL_AREA ( #135 ) ;
#47 = EDGE_CURVE ( 'NONE', #72, #98, #55, .T. ) ;
#48 = ORIENTED_EDGE ( 'NONE', *, *, #185, .T. ) ;
#49 = APPLICATION_CONTEXT ( 'automotive_design' ) ;
#50 = COLOUR_RGB ( '',0.9960784313725490335, 0.9058823529411764719, 1.000000000000000000 ) ;
#51 = EDGE_CURVE ( 'NONE', #60, #158, #78, .T. ) ;
#52 = ORIENTED_EDGE ( 'NONE', *, *, #152, .T. ) ;
#53 = FACE_OUTER_BOUND ( 'NONE', #170, .T. ) ;
#54 = CARTESIAN_POINT ( 'NONE',  ( 9.000000000000000000, 6.000000000000000000, -9.000000000000001776 ) ) ;
#55 = LINE ( 'NONE', #177, #164 ) ;
#56 = AXIS2_PLACEMENT_3D ( 'NONE', #80, #13, #183 ) ;
#57 = CARTESIAN_POINT ( 'NONE',  ( -8.999999999999998224, 0.000000000000000000, 8.999999999999998224 ) ) ;
#58 = DIRECTION ( 'NONE',  ( 1.000000000000000000, 0.000000000000000000, 0.000000000000000000 ) ) ;
#59 = DIRECTION ( 'NONE',  ( -1.000000000000000000, -0.000000000000000000, -0.000000000000000000 ) ) ;
#60 = VERTEX_POINT ( 'NONE', #129 ) ;
#61 = PRODUCT_RELATED_PRODUCT_CATEGORY ( 'part', '', ( #40 ) ) ;
#62 = DIRECTION ( 'NONE',  ( -0.000000000000000000, -1.000000000000000000, -0.000000000000000000 ) ) ;
#63 = VECTOR ( 'NONE', #39, 1000.000000000000000 ) ;
#64 = DIRECTION ( 'NONE',  ( 0.000000000000000000, 1.000000000000000000, 0.000000000000000000 ) ) ;
#65 = DIRECTION ( 'NONE',  ( 0.000000000000000000, -0.000000000000000000, 1.000000000000000000 ) ) ;
#66 = CARTESIAN_POINT ( 'NONE',  ( 9.000000000000001776, 6.000000000000000000, 8.999999999999998224 ) ) ;
#67 = CARTESIAN_POINT ( 'NONE',  ( 0.000000000000000000, 0.000000000000000000, 0.000000000000000000 ) ) ;
#68 = DIRECTION ( 'NONE',  ( 1.000000000000000000, 0.000000000000000000, 0.000000000000000000 ) ) ;
#69 = LINE ( 'NONE', #162, #63 ) ;
#70 = VECTOR ( 'NONE', #59, 1000.000000000000000 ) ;
#71 = ORIENTED_EDGE ( 'NONE', *, *, #77, .F. ) ;
#72 = VERTEX_POINT ( 'NONE', #157 ) ;
#73 = DIRECTION ( 'NONE',  ( -1.000000000000000000, 0.000000000000000000, 9.637352644315595243E-17 ) ) ;
#74 = CARTESIAN_POINT ( 'NONE',  ( 9.000000000000000000, 6.000000000000000000, -9.000000000000001776 ) ) ;
#75 = PRODUCT_DEFINITION_CONTEXT ( 'detailed design', #166, 'design' ) ;
#76 = CARTESIAN_POINT ( 'NONE',  ( 9.000000000000000000, 0.000000000000000000, -9.000000000000001776 ) ) ;
#77 = EDGE_CURVE ( 'NONE', #98, #101, #38, .T. ) ;
#78 = LINE ( 'NONE', #44, #1 ) ;
#79 = PLANE ( 'NONE',  #56 ) ;
#80 = CARTESIAN_POINT ( 'NONE',  ( -9.000000000000000000, 6.000000000000000000, -9.000000000000001776 ) ) ;
#81 = CLOSED_SHELL ( 'NONE', ( #22, #159, #125, #111, #35, #97 ) ) ;
#82 = VERTEX_POINT ( 'NONE', #74 ) ;
#83 = ORIENTED_EDGE ( 'NONE', *, *, #104, .T. ) ;
#84 = AXIS2_PLACEMENT_3D ( 'NONE', #88, #73, #85 ) ;
#85 = DIRECTION ( 'NONE',  ( 9.637352644315595243E-17, 0.000000000000000000, 1.000000000000000000 ) ) ;
#86 = CARTESIAN_POINT ( 'NONE',  ( 0.000000000000000000, 6.000000000000000000, 0.000000000000000000 ) ) ;
#87 = LINE ( 'NONE', #92, #107 ) ;
#88 = CARTESIAN_POINT ( 'NONE',  ( 9.000000000000000000, 6.000000000000000000, -9.000000000000001776 ) ) ;
#89 = FACE_OUTER_BOUND ( 'NONE', #154, .T. ) ;
#90 = EDGE_CURVE ( 'NONE', #20, #167, #87, .T. ) ;
#91 = VECTOR ( 'NONE', #62, 1000.000000000000000 ) ;
#92 = CARTESIAN_POINT ( 'NONE',  ( -8.999999999999998224, 6.000000000000000000, 8.999999999999998224 ) ) ;
#93 =( NAMED_UNIT ( * ) SI_UNIT ( $, .STERADIAN. ) SOLID_ANGLE_UNIT ( ) );
#94 = LINE ( 'NONE', #54, #17 ) ;
#95 = LINE ( 'NONE', #175, #70 ) ;
#96 = SURFACE_STYLE_USAGE ( .BOTH. , #123 ) ;
#97 = ADVANCED_FACE ( 'NONE', ( #141 ), #145, .F. ) ;
#98 = VERTEX_POINT ( 'NONE', #5 ) ;
#99 = ORIENTED_EDGE ( 'NONE', *, *, #90, .F. ) ;
#100 = ORIENTED_EDGE ( 'NONE', *, *, #152, .F. ) ;
#101 = VERTEX_POINT ( 'NONE', #9 ) ;
#102 = DIRECTION ( 'NONE',  ( -0.000000000000000000, -1.000000000000000000, -0.000000000000000000 ) ) ;
#103 = ORIENTED_EDGE ( 'NONE', *, *, #12, .F. ) ;
#104 = EDGE_CURVE ( 'NONE', #101, #60, #117, .T. ) ;
#105 = CARTESIAN_POINT ( 'NONE',  ( 0.000000000000000000, 0.000000000000000000, 0.000000000000000000 ) ) ;
#106 = DIRECTION ( 'NONE',  ( -0.000000000000000000, -1.000000000000000000, -0.000000000000000000 ) ) ;
#107 = VECTOR ( 'NONE', #41, 1000.000000000000000 ) ;
#108 = DIRECTION ( 'NONE',  ( 9.637352644315595243E-17, 0.000000000000000000, 1.000000000000000000 ) ) ;
#109 = DIRECTION ( 'NONE',  ( -9.637352644315595243E-17, -0.000000000000000000, -1.000000000000000000 ) ) ;
#110 = APPLICATION_PROTOCOL_DEFINITION ( 'draft international standard', 'automotive_design', 1998, #166 ) ;
#111 = ADVANCED_FACE ( 'NONE', ( #89 ), #19, .F. ) ;
#112 =( NAMED_UNIT ( * ) SI_UNIT ( $, .STERADIAN. ) SOLID_ANGLE_UNIT ( ) );
#113 = AXIS2_PLACEMENT_3D ( 'NONE', #130, #120, #134 ) ;
#114 = ORIENTED_EDGE ( 'NONE', *, *, #185, .F. ) ;
#115 =( GEOMETRIC_REPRESENTATION_CONTEXT ( 3 ) GLOBAL_UNCERTAINTY_ASSIGNED_CONTEXT ( ( #14 ) ) GLOBAL_UNIT_ASSIGNED_CONTEXT ( ( #121, #165, #112 ) ) REPRESENTATION_CONTEXT ( 'NONE', 'WORKASPACE' ) );
#116 = CARTESIAN_POINT ( 'NONE',  ( -8.999999999999998224, 6.000000000000000000, 8.999999999999998224 ) ) ;
#117 = LINE ( 'NONE', #57, #126 ) ;
#118 =( LENGTH_UNIT ( ) NAMED_UNIT ( * ) SI_UNIT ( .MILLI., .METRE. ) );
#119 = AXIS2_PLACEMENT_3D ( 'NONE', #67, #142, #58 ) ;
#120 = DIRECTION ( 'NONE',  ( 0.000000000000000000, 0.000000000000000000, 1.000000000000000000 ) ) ;
#121 =( LENGTH_UNIT ( ) NAMED_UNIT ( * ) SI_UNIT ( .MILLI., .METRE. ) );
#122 = AXIS2_PLACEMENT_3D ( 'NONE', #86, #64, #161 ) ;
#123 = SURFACE_SIDE_STYLE ('',( #46 ) ) ;
#124 = ORIENTED_EDGE ( 'NONE', *, *, #168, .F. ) ;
#125 = ADVANCED_FACE ( 'NONE', ( #144 ), #79, .F. ) ;
#126 = VECTOR ( 'NONE', #68, 1000.000000000000000 ) ;
#127 = ORIENTED_EDGE ( 'NONE', *, *, #51, .F. ) ;
#128 = LINE ( 'NONE', #24, #6 ) ;
#129 = CARTESIAN_POINT ( 'NONE',  ( 9.000000000000001776, 0.000000000000000000, 8.999999999999998224 ) ) ;
#130 = CARTESIAN_POINT ( 'NONE',  ( -9.000000000000000000, 6.000000000000000000, -9.000000000000001776 ) ) ;
#131 = MANIFOLD_SOLID_BREP ( 'Boss-Extrude1', #81 ) ;
#132 = PRODUCT_DEFINITION_SHAPE ( 'NONE', 'NONE',  #176 ) ;
#133 = DIRECTION ( 'NONE',  ( 0.000000000000000000, 1.000000000000000000, 0.000000000000000000 ) ) ;
#134 = DIRECTION ( 'NONE',  ( 1.000000000000000000, 0.000000000000000000, -0.000000000000000000 ) ) ;
#135 = FILL_AREA_STYLE ('',( #146 ) ) ;
#136 = ORIENTED_EDGE ( 'NONE', *, *, #77, .T. ) ;
#137 = STYLED_ITEM ( 'NONE', ( #11 ), #131 ) ;
#138 = EDGE_LOOP ( 'NONE', ( #48, #139, #143, #52 ) ) ;
#139 = ORIENTED_EDGE ( 'NONE', *, *, #47, .F. ) ;
#140 = PLANE ( 'NONE',  #84 ) ;
#141 = FACE_OUTER_BOUND ( 'NONE', #187, .T. ) ;
#142 = DIRECTION ( 'NONE',  ( 0.000000000000000000, 0.000000000000000000, 1.000000000000000000 ) ) ;
#143 = ORIENTED_EDGE ( 'NONE', *, *, #7, .F. ) ;
#144 = FACE_OUTER_BOUND ( 'NONE', #169, .T. ) ;
#145 = PLANE ( 'NONE',  #10 ) ;
#146 = FILL_AREA_STYLE_COLOUR ( '', #50 ) ;
#147 = EDGE_CURVE ( 'NONE', #167, #82, #182, .T. ) ;
#148 = DIRECTION ( 'NONE',  ( -9.637352644315595243E-17, -0.000000000000000000, -1.000000000000000000 ) ) ;
#149 = MECHANICAL_DESIGN_GEOMETRIC_PRESENTATION_REPRESENTATION (  '', ( #137 ), #115 ) ;
#150 = ORIENTED_EDGE ( 'NONE', *, *, #47, .T. ) ;
#151 = EDGE_LOOP ( 'NONE', ( #15, #30, #2, #184 ) ) ;
#152 = EDGE_CURVE ( 'NONE', #82, #158, #94, .T. ) ;
#153 = ORIENTED_EDGE ( 'NONE', *, *, #28, .T. ) ;
#154 = EDGE_LOOP ( 'NONE', ( #83, #186, #99, #32 ) ) ;
#155 = ORIENTED_EDGE ( 'NONE', *, *, #51, .T. ) ;
#156 = FACE_OUTER_BOUND ( 'NONE', #151, .T. ) ;
#157 = CARTESIAN_POINT ( 'NONE',  ( -9.000000000000000000, 6.000000000000000000, -9.000000000000001776 ) ) ;
#158 = VERTEX_POINT ( 'NONE', #76 ) ;
#159 = ADVANCED_FACE ( 'NONE', ( #45 ), #178, .F. ) ;
#160 = AXIS2_PLACEMENT_3D ( 'NONE', #3, #172, #174 ) ;
#161 = DIRECTION ( 'NONE',  ( 0.000000000000000000, -0.000000000000000000, 1.000000000000000000 ) ) ;
#162 = CARTESIAN_POINT ( 'NONE',  ( -9.000000000000000000, 6.000000000000000000, -9.000000000000001776 ) ) ;
#163 = CARTESIAN_POINT ( 'NONE',  ( 9.000000000000000000, 6.000000000000000000, -9.000000000000001776 ) ) ;
#164 = VECTOR ( 'NONE', #21, 1000.000000000000000 ) ;
#165 =( NAMED_UNIT ( * ) PLANE_ANGLE_UNIT ( ) SI_UNIT ( $, .RADIAN. ) );
#166 = APPLICATION_CONTEXT ( 'automotive_design' ) ;
#167 = VERTEX_POINT ( 'NONE', #66 ) ;
#168 = EDGE_CURVE ( 'NONE', #72, #20, #69, .T. ) ;
#169 = EDGE_LOOP ( 'NONE', ( #136, #103, #124, #150 ) ) ;
#170 = EDGE_LOOP ( 'NONE', ( #155, #100, #33, #153 ) ) ;
#171 = DIRECTION ( 'NONE',  ( -1.000000000000000000, -0.000000000000000000, -0.000000000000000000 ) ) ;
#172 = DIRECTION ( 'NONE',  ( 0.000000000000000000, 0.000000000000000000, -1.000000000000000000 ) ) ;
#173 = LINE ( 'NONE', #18, #31 ) ;
#174 = DIRECTION ( 'NONE',  ( -1.000000000000000000, 0.000000000000000000, -0.000000000000000000 ) ) ;
#175 = CARTESIAN_POINT ( 'NONE',  ( -9.000000000000000000, 0.000000000000000000, -9.000000000000001776 ) ) ;
#176 = PRODUCT_DEFINITION ( 'General', '', #25, #75 ) ;
#177 = CARTESIAN_POINT ( 'NONE',  ( -9.000000000000000000, 6.000000000000000000, -9.000000000000001776 ) ) ;
#178 = PLANE ( 'NONE',  #113 ) ;
#179 = VECTOR ( 'NONE', #148, 1000.000000000000000 ) ;
#180 =( NAMED_UNIT ( * ) PLANE_ANGLE_UNIT ( ) SI_UNIT ( $, .RADIAN. ) );
#181 = PRESENTATION_LAYER_ASSIGNMENT (  '', '', ( #137 ) ) ;
#182 = LINE ( 'NONE', #163, #179 ) ;
#183 = DIRECTION ( 'NONE',  ( -9.637352644315595243E-17, 0.000000000000000000, -1.000000000000000000 ) ) ;
#184 = ORIENTED_EDGE ( 'NONE', *, *, #90, .T. ) ;
#185 = EDGE_CURVE ( 'NONE', #158, #98, #95, .T. ) ;
#186 = ORIENTED_EDGE ( 'NONE', *, *, #28, .F. ) ;
#187 = EDGE_LOOP ( 'NONE', ( #127, #16, #71, #114 ) ) ;
ENDSEC;
END-ISO-10303-21;
