ISO-10303-21;
HEADER;
FILE_DESCRIPTION (( 'STEP AP214' ),
    '1' );
FILE_NAME ('PbF2+SiPM+PTFE.STEP',
    '2026-01-09T11:17:35',
    ( '' ),
    ( '' ),
    'SwSTEP 2.0',
    'SolidWorks 2024',
    '' );
FILE_SCHEMA (( 'AUTOMOTIVE_DESIGN' ));
ENDSEC;

DATA;
#1 = PRODUCT_CONTEXT ( 'NONE', #71, 'mechanical' ) ;
#2 = AXIS2_PLACEMENT_3D ( 'NONE', #50, #86, #67 ) ;
#3 = PROPERTY_DEFINITION_REPRESENTATION ( #166, #84 ) ;
#4 = PROPERTY_DEFINITION_REPRESENTATION ( #170, #39 ) ;
#5 = APPLICATION_PROTOCOL_DEFINITION ( 'draft international standard', 'automotive_design', 1998, #57 ) ;
#6 = DIRECTION ( 'NONE',  ( 0.000000000000000000, 0.000000000000000000, 1.000000000000000000 ) ) ;
#7 = IDENTIFICATION_ROLE ( 'external document id and location', $) ;
#8 = AXIS2_PLACEMENT_3D ( 'NONE', #11, #90, #42 ) ;
#9 =( REPRESENTATION_RELATIONSHIP ('NONE','NONE', #116, #84 ) REPRESENTATION_RELATIONSHIP_WITH_TRANSFORMATION ( #123 )SHAPE_REPRESENTATION_RELATIONSHIP( ) );
#10 =( LENGTH_UNIT ( ) NAMED_UNIT ( * ) SI_UNIT ( .MILLI., .METRE. ) );
#11 = CARTESIAN_POINT ( 'NONE',  ( 11.11887872680208744, 9.992951749970384157, 8.385486885166194782 ) ) ;
#12 = CARTESIAN_POINT ( 'NONE',  ( 16.59204991480768498, 7.721246826229926086, 10.02470389302552789 ) ) ;
#13 = DIRECTION ( 'NONE',  ( 1.000000000000000000, 0.000000000000000000, -9.637352644315592778E-17 ) ) ;
#14 = OBJECT_ROLE ('mandatory',$ ) ;
#15 = AXIS2_PLACEMENT_3D ( 'NONE', #59, #13, #136 ) ;
#16 = EXTERNAL_SOURCE (IDENTIFIER('') ) ;
#17 = ITEM_DEFINED_TRANSFORMATION ( 'NONE', 'NONE', #15,  #107 ) ;
#18 = UNCERTAINTY_MEASURE_WITH_UNIT (LENGTH_MEASURE( 1.000000000000000082E-05 ), #10, 'distance_accuracy_value', 'NONE');
#19 = DIRECTION ( 'NONE',  ( 0.000000000000000000, 0.000000000000000000, 1.000000000000000000 ) ) ;
#20 = APPLICATION_PROTOCOL_DEFINITION ( 'draft international standard', 'automotive_design', 1998, #24 ) ;
#21 = AXIS2_PLACEMENT_3D ( 'NONE', #188, #19, #33 ) ;
#22 = PRODUCT_DEFINITION_CONTEXT ( 'detailed design', #178, 'design' ) ;
#23 =( NAMED_UNIT ( * ) SI_UNIT ( $, .STERADIAN. ) SOLID_ANGLE_UNIT ( ) );
#24 = APPLICATION_CONTEXT ( 'automotive_design' ) ;
#25 = DIRECTION ( 'NONE',  ( 0.000000000000000000, 0.000000000000000000, 1.000000000000000000 ) ) ;
#26 =( NAMED_UNIT ( * ) PLANE_ANGLE_UNIT ( ) SI_UNIT ( $, .RADIAN. ) );
#27 = UNCERTAINTY_MEASURE_WITH_UNIT (LENGTH_MEASURE( 1.000000000000000082E-05 ), #53, 'distance_accuracy_value', 'NONE');
#28 = EXTERNAL_SOURCE (IDENTIFIER('') ) ;
#29 = IDENTIFICATION_ROLE ( 'external document id and location', $) ;
#30 = APPLIED_DOCUMENT_REFERENCE ( #64,'',( #106) ) ;
#31 = APPLIED_EXTERNAL_IDENTIFICATION_ASSIGNMENT ( 'PTFE Wrap.STEP' , #56, #28,( #61) ) ;
#32 = PROPERTY_DEFINITION_REPRESENTATION ( #173, #129 ) ;
#33 = DIRECTION ( 'NONE',  ( 1.000000000000000000, 0.000000000000000000, 0.000000000000000000 ) ) ;
#34 = CONTEXT_DEPENDENT_SHAPE_REPRESENTATION ( #93, #91 ) ;
#35 = PROPERTY_DEFINITION ('external definition','', #44 ) ;
#36 =( LENGTH_UNIT ( ) NAMED_UNIT ( * ) SI_UNIT ( .MILLI., .METRE. ) );
#37 = OBJECT_ROLE ('mandatory',$ ) ;
#38 = PRODUCT_DEFINITION_SHAPE ( 'NONE', 'NONE',  #162 ) ;
#39 = SHAPE_REPRESENTATION ( 'PTFE Wrap', ( #107 ), #138 ) ;
#40 = DOCUMENT_TYPE ( 'geometry' ) ;
#41 = APPLICATION_CONTEXT ( 'automotive_design' ) ;
#42 = DIRECTION ( 'NONE',  ( 1.406229888181569112E-14, -6.982962677686060818E-15, 1.000000000000000000 ) ) ;
#43 = PRODUCT_DEFINITION_FORMATION_WITH_SPECIFIED_SOURCE ( 'Symmetric', '', #158, .NOT_KNOWN. ) ;
#44 = DOCUMENT_FILE ( 'AFBR-S4N66P024M Mount.STEP' , '', '', #183, '' ,$ ) ;
#45 = PRODUCT_DEFINITION_CONTEXT ( 'detailed design', #41, 'design' ) ;
#46 = ITEM_DEFINED_TRANSFORMATION ( 'NONE', 'NONE', #87,  #21 ) ;
#47 = CONTEXT_DEPENDENT_SHAPE_REPRESENTATION ( #187, #77 ) ;
#48 = ROLE_ASSOCIATION ( #14, #30 ) ;
#49 = PRODUCT_DEFINITION_SHAPE ( 'NONE', 'NONE',  #99 ) ;
#50 = CARTESIAN_POINT ( 'NONE',  ( 0.000000000000000000, 0.000000000000000000, 0.000000000000000000 ) ) ;
#51 =( GEOMETRIC_REPRESENTATION_CONTEXT ( 3 ) GLOBAL_UNCERTAINTY_ASSIGNED_CONTEXT ( ( #168 ) ) GLOBAL_UNIT_ASSIGNED_CONTEXT ( ( #125, #70, #189 ) ) REPRESENTATION_CONTEXT ( 'NONE', 'WORKASPACE' ) );
#52 =( NAMED_UNIT ( * ) PLANE_ANGLE_UNIT ( ) SI_UNIT ( $, .RADIAN. ) );
#53 =( LENGTH_UNIT ( ) NAMED_UNIT ( * ) SI_UNIT ( .MILLI., .METRE. ) );
#54 = EXTERNAL_SOURCE (IDENTIFIER('') ) ;
#55 =( NAMED_UNIT ( * ) PLANE_ANGLE_UNIT ( ) SI_UNIT ( $, .RADIAN. ) );
#56 = IDENTIFICATION_ROLE ( 'external document id and location', $) ;
#57 = APPLICATION_CONTEXT ( 'automotive_design' ) ;
#58 = PRODUCT_CONTEXT ( 'NONE', #73, 'mechanical' ) ;
#59 = CARTESIAN_POINT ( 'NONE',  ( 13.84204991480762637, 7.721246826229637428, 10.02470389302588494 ) ) ;
#60 = APPLICATION_PROTOCOL_DEFINITION ( 'draft international standard', 'automotive_design', 1998, #178 ) ;
#61 = DOCUMENT_FILE ( 'PTFE Wrap.STEP' , '', '', #118, '' ,$ ) ;
#62 = APPLICATION_CONTEXT ( 'automotive_design' ) ;
#63 = APPLIED_DOCUMENT_REFERENCE ( #78,'',( #135) ) ;
#64 = DOCUMENT_FILE ( 'PbF2 Radiator.STEP' , '', '', #40, '' ,$ ) ;
#65 = PRODUCT_DEFINITION_FORMATION_WITH_SPECIFIED_SOURCE ( 'Symmetric', '', #186, .NOT_KNOWN. ) ;
#66 = CONTEXT_DEPENDENT_SHAPE_REPRESENTATION ( #9, #94 ) ;
#67 = DIRECTION ( 'NONE',  ( 1.000000000000000000, 0.000000000000000000, 0.000000000000000000 ) ) ;
#68 = PRODUCT_DEFINITION_SHAPE ( 'NONE', 'NONE',  #155 ) ;
#69 = PRODUCT_RELATED_PRODUCT_CATEGORY ( 'part', '', ( #186 ) ) ;
#70 =( NAMED_UNIT ( * ) PLANE_ANGLE_UNIT ( ) SI_UNIT ( $, .RADIAN. ) );
#71 = APPLICATION_CONTEXT ( 'automotive_design' ) ;
#72 = PRODUCT_CONTEXT ( 'NONE', #122, 'mechanical' ) ;
#73 = APPLICATION_CONTEXT ( 'automotive_design' ) ;
#74 = SHAPE_DEFINITION_REPRESENTATION ( #38, #116 ) ;
#75 = PRODUCT_CONTEXT ( 'NONE', #145, 'mechanical' ) ;
#76 =( NAMED_UNIT ( * ) SI_UNIT ( $, .STERADIAN. ) SOLID_ANGLE_UNIT ( ) );
#77 = PRODUCT_DEFINITION_SHAPE ( 'NONE', 'NONE',  #193 ) ;
#78 = DOCUMENT_FILE ( 'SiPM 2x1.STEP' , '', '', #167, '' ,$ ) ;
#79 = UNCERTAINTY_MEASURE_WITH_UNIT (LENGTH_MEASURE( 1.000000000000000082E-05 ), #119, 'distance_accuracy_value', 'NONE');
#80 = EXTERNAL_SOURCE (IDENTIFIER('') ) ;
#81 =( GEOMETRIC_REPRESENTATION_CONTEXT ( 3 ) GLOBAL_UNCERTAINTY_ASSIGNED_CONTEXT ( ( #182 ) ) GLOBAL_UNIT_ASSIGNED_CONTEXT ( ( #36, #52, #95 ) ) REPRESENTATION_CONTEXT ( 'NONE', 'WORKASPACE' ) );
#82 =( NAMED_UNIT ( * ) SI_UNIT ( $, .STERADIAN. ) SOLID_ANGLE_UNIT ( ) );
#83 = PRODUCT_DEFINITION_SHAPE ( 'NONE', 'NONE',  #106 ) ;
#84 = SHAPE_REPRESENTATION ( 'SiPM 2x1', ( #2 ), #51 ) ;
#85 =( REPRESENTATION_RELATIONSHIP ('NONE','NONE', #116, #129 ) REPRESENTATION_RELATIONSHIP_WITH_TRANSFORMATION ( #46 )SHAPE_REPRESENTATION_RELATIONSHIP( ) );
#86 = DIRECTION ( 'NONE',  ( 0.000000000000000000, 0.000000000000000000, 1.000000000000000000 ) ) ;
#87 = AXIS2_PLACEMENT_3D ( 'NONE', #12, #89, #134 ) ;
#88 = SHAPE_DEFINITION_REPRESENTATION ( #68, #129 ) ;
#89 = DIRECTION ( 'NONE',  ( 1.000000000000000000, -1.396592535537253342E-14, -3.491481338843133355E-15 ) ) ;
#90 = DIRECTION ( 'NONE',  ( 1.000000000000000000, 3.491481338843179898E-15, -1.406229888181566588E-14 ) ) ;
#91 = PRODUCT_DEFINITION_SHAPE ( 'NONE', 'NONE',  #194 ) ;
#92 = AXIS2_PLACEMENT_3D ( 'NONE', #105, #100, #101 ) ;
#93 =( REPRESENTATION_RELATIONSHIP ('NONE','NONE', #116, #39 ) REPRESENTATION_RELATIONSHIP_WITH_TRANSFORMATION ( #17 )SHAPE_REPRESENTATION_RELATIONSHIP( ) );
#94 = PRODUCT_DEFINITION_SHAPE ( 'NONE', 'NONE',  #192 ) ;
#95 =( NAMED_UNIT ( * ) SI_UNIT ( $, .STERADIAN. ) SOLID_ANGLE_UNIT ( ) );
#96 = PRODUCT_DEFINITION_FORMATION_WITH_SPECIFIED_SOURCE ( 'Symmetric', '', #112, .NOT_KNOWN. ) ;
#97 = PRODUCT ( 'AFBR-S4N66P024M Mount', 'AFBR-S4N66P024M Mount', '', ( #58 ) ) ;
#98 = CARTESIAN_POINT ( 'NONE',  ( 0.000000000000000000, 0.000000000000000000, 0.000000000000000000 ) ) ;
#99 = PRODUCT_DEFINITION ( 'General', '', #96, #147 ) ;
#100 = DIRECTION ( 'NONE',  ( 0.000000000000000000, 0.000000000000000000, 1.000000000000000000 ) ) ;
#101 = DIRECTION ( 'NONE',  ( 1.000000000000000000, 0.000000000000000000, 0.000000000000000000 ) ) ;
#102 = OBJECT_ROLE ('mandatory',$ ) ;
#103 = OBJECT_ROLE ('mandatory',$ ) ;
#104 = DIRECTION ( 'NONE',  ( 1.000000000000000000, 0.000000000000000000, 0.000000000000000000 ) ) ;
#105 = CARTESIAN_POINT ( 'NONE',  ( 4.842049914807622812, 4.721246826229636540, 10.02470389302588494 ) ) ;
#106 = PRODUCT_DEFINITION ( 'General', '', #120, #153 ) ;
#107 = AXIS2_PLACEMENT_3D ( 'NONE', #159, #6, #185 ) ;
#108 = ITEM_DEFINED_TRANSFORMATION ( 'NONE', 'NONE', #92,  #176 ) ;
#109 = PRODUCT_DEFINITION_CONTEXT ( 'detailed design', #24, 'design' ) ;
#110 = PROPERTY_DEFINITION_REPRESENTATION ( #137, #84 ) ;
#111 = PROPERTY_DEFINITION_REPRESENTATION ( #121, #131 ) ;
#112 = PRODUCT ( 'PTFE Wrap', 'PTFE Wrap', '', ( #75 ) ) ;
#113 = APPLIED_EXTERNAL_IDENTIFICATION_ASSIGNMENT ( 'PbF2 Radiator.STEP' , #7, #54,( #64) ) ;
#114 = CONTEXT_DEPENDENT_SHAPE_REPRESENTATION ( #85, #174 ) ;
#115 =( GEOMETRIC_REPRESENTATION_CONTEXT ( 3 ) GLOBAL_UNCERTAINTY_ASSIGNED_CONTEXT ( ( #18 ) ) GLOBAL_UNIT_ASSIGNED_CONTEXT ( ( #10, #26, #76 ) ) REPRESENTATION_CONTEXT ( 'NONE', 'WORKASPACE' ) );
#116 = SHAPE_REPRESENTATION ( 'PbF2+SiPM+PTFE', ( #127, #87, #8, #92, #15 ), #115 ) ;
#117 = APPLICATION_PROTOCOL_DEFINITION ( 'draft international standard', 'automotive_design', 1998, #122 ) ;
#118 = DOCUMENT_TYPE ( 'geometry' ) ;
#119 =( LENGTH_UNIT ( ) NAMED_UNIT ( * ) SI_UNIT ( .MILLI., .METRE. ) );
#120 = PRODUCT_DEFINITION_FORMATION_WITH_SPECIFIED_SOURCE ( 'Symmetric', '', #142, .NOT_KNOWN. ) ;
#121 = PROPERTY_DEFINITION ('external definition','', #64 ) ;
#122 = APPLICATION_CONTEXT ( 'automotive_design' ) ;
#123 = ITEM_DEFINED_TRANSFORMATION ( 'NONE', 'NONE', #8,  #2 ) ;
#124 = PROPERTY_DEFINITION_REPRESENTATION ( #154, #131 ) ;
#125 =( LENGTH_UNIT ( ) NAMED_UNIT ( * ) SI_UNIT ( .MILLI., .METRE. ) );
#126 = PRODUCT_DEFINITION_SHAPE ( 'NONE', 'NONE',  #135 ) ;
#127 = AXIS2_PLACEMENT_3D ( 'NONE', #128, #25, #104 ) ;
#128 = CARTESIAN_POINT ( 'NONE',  ( 0.000000000000000000, 0.000000000000000000, 0.000000000000000000 ) ) ;
#129 = SHAPE_REPRESENTATION ( 'AFBR-S4N66P024M Mount', ( #21 ), #81 ) ;
#130 = PRODUCT_RELATED_PRODUCT_CATEGORY ( 'part', '', ( #158 ) ) ;
#131 = SHAPE_REPRESENTATION ( 'PbF2 Radiator', ( #176 ), #157 ) ;
#132 = APPLICATION_PROTOCOL_DEFINITION ( 'draft international standard', 'automotive_design', 1998, #73 ) ;
#133 = APPLIED_DOCUMENT_REFERENCE ( #44,'',( #155) ) ;
#134 = DIRECTION ( 'NONE',  ( -3.491481338843133355E-15, 0.000000000000000000, -1.000000000000000000 ) ) ;
#135 = PRODUCT_DEFINITION ( 'General', '', #43, #22 ) ;
#136 = DIRECTION ( 'NONE',  ( 9.637352644315592778E-17, 0.000000000000000000, 1.000000000000000000 ) ) ;
#137 = PROPERTY_DEFINITION ('external definition','', #78 ) ;
#138 =( GEOMETRIC_REPRESENTATION_CONTEXT ( 3 ) GLOBAL_UNCERTAINTY_ASSIGNED_CONTEXT ( ( #79 ) ) GLOBAL_UNIT_ASSIGNED_CONTEXT ( ( #119, #55, #23 ) ) REPRESENTATION_CONTEXT ( 'NONE', 'WORKASPACE' ) );
#139 = PROPERTY_DEFINITION ('document property','', #61 ) ;
#140 = APPLIED_DOCUMENT_REFERENCE ( #61,'',( #99) ) ;
#141 = APPLIED_EXTERNAL_IDENTIFICATION_ASSIGNMENT ( 'SiPM 2x1.STEP' , #29, #16,( #78) ) ;
#142 = PRODUCT ( 'PbF2 Radiator', 'PbF2 Radiator', '', ( #190 ) ) ;
#143 = DIRECTION ( 'NONE',  ( 1.000000000000000000, 0.000000000000000000, 0.000000000000000000 ) ) ;
#144 =( NAMED_UNIT ( * ) PLANE_ANGLE_UNIT ( ) SI_UNIT ( $, .RADIAN. ) );
#145 = APPLICATION_CONTEXT ( 'automotive_design' ) ;
#146 = DIRECTION ( 'NONE',  ( 0.000000000000000000, 0.000000000000000000, 1.000000000000000000 ) ) ;
#147 = PRODUCT_DEFINITION_CONTEXT ( 'detailed design', #57, 'design' ) ;
#148 = PRODUCT_RELATED_PRODUCT_CATEGORY ( 'part', '', ( #112 ) ) ;
#149 = PRODUCT_DEFINITION_FORMATION_WITH_SPECIFIED_SOURCE ( 'Symmetric', '', #97, .NOT_KNOWN. ) ;
#150 = APPLICATION_PROTOCOL_DEFINITION ( 'draft international standard', 'automotive_design', 1998, #156 ) ;
#151 = APPLIED_EXTERNAL_IDENTIFICATION_ASSIGNMENT ( 'AFBR-S4N66P024M Mount.STEP' , #163, #80,( #44) ) ;
#152 = APPLICATION_PROTOCOL_DEFINITION ( 'draft international standard', 'automotive_design', 1998, #41 ) ;
#153 = PRODUCT_DEFINITION_CONTEXT ( 'detailed design', #156, 'design' ) ;
#154 = PROPERTY_DEFINITION ('document property','', #64 ) ;
#155 = PRODUCT_DEFINITION ( 'General', '', #149, #109 ) ;
#156 = APPLICATION_CONTEXT ( 'automotive_design' ) ;
#157 =( GEOMETRIC_REPRESENTATION_CONTEXT ( 3 ) GLOBAL_UNCERTAINTY_ASSIGNED_CONTEXT ( ( #27 ) ) GLOBAL_UNIT_ASSIGNED_CONTEXT ( ( #53, #144, #82 ) ) REPRESENTATION_CONTEXT ( 'NONE', 'WORKASPACE' ) );
#158 = PRODUCT ( 'SiPM 2x1', 'SiPM 2x1', '', ( #1 ) ) ;
#159 = CARTESIAN_POINT ( 'NONE',  ( 0.000000000000000000, 0.000000000000000000, 0.000000000000000000 ) ) ;
#160 = SHAPE_DEFINITION_REPRESENTATION ( #49, #39 ) ;
#161 = ROLE_ASSOCIATION ( #37, #133 ) ;
#162 = PRODUCT_DEFINITION ( 'General', '', #65, #45 ) ;
#163 = IDENTIFICATION_ROLE ( 'external document id and location', $) ;
#164 = SHAPE_DEFINITION_REPRESENTATION ( #83, #131 ) ;
#165 = APPLICATION_PROTOCOL_DEFINITION ( 'draft international standard', 'automotive_design', 1998, #145 ) ;
#166 = PROPERTY_DEFINITION ('document property','', #78 ) ;
#167 = DOCUMENT_TYPE ( 'geometry' ) ;
#168 = UNCERTAINTY_MEASURE_WITH_UNIT (LENGTH_MEASURE( 1.000000000000000082E-05 ), #125, 'distance_accuracy_value', 'NONE');
#169 = ROLE_ASSOCIATION ( #102, #140 ) ;
#170 = PROPERTY_DEFINITION ('external definition','', #61 ) ;
#171 = PROPERTY_DEFINITION_REPRESENTATION ( #139, #39 ) ;
#172 = PROPERTY_DEFINITION_REPRESENTATION ( #35, #129 ) ;
#173 = PROPERTY_DEFINITION ('document property','', #44 ) ;
#174 = PRODUCT_DEFINITION_SHAPE ( 'NONE', 'NONE',  #191 ) ;
#175 = APPLICATION_PROTOCOL_DEFINITION ( 'draft international standard', 'automotive_design', 1998, #62 ) ;
#176 = AXIS2_PLACEMENT_3D ( 'NONE', #98, #146, #143 ) ;
#177 = PRODUCT_RELATED_PRODUCT_CATEGORY ( 'part', '', ( #142 ) ) ;
#178 = APPLICATION_CONTEXT ( 'automotive_design' ) ;
#179 = APPLICATION_PROTOCOL_DEFINITION ( 'draft international standard', 'automotive_design', 1998, #71 ) ;
#180 = SHAPE_DEFINITION_REPRESENTATION ( #126, #84 ) ;
#181 = PRODUCT_RELATED_PRODUCT_CATEGORY ( 'part', '', ( #97 ) ) ;
#182 = UNCERTAINTY_MEASURE_WITH_UNIT (LENGTH_MEASURE( 1.000000000000000082E-05 ), #36, 'distance_accuracy_value', 'NONE');
#183 = DOCUMENT_TYPE ( 'geometry' ) ;
#184 = ROLE_ASSOCIATION ( #103, #63 ) ;
#185 = DIRECTION ( 'NONE',  ( 1.000000000000000000, 0.000000000000000000, 0.000000000000000000 ) ) ;
#186 = PRODUCT ( 'PbF2+SiPM+PTFE', 'PbF2+SiPM+PTFE', '', ( #72 ) ) ;
#187 =( REPRESENTATION_RELATIONSHIP ('NONE','NONE', #116, #131 ) REPRESENTATION_RELATIONSHIP_WITH_TRANSFORMATION ( #108 )SHAPE_REPRESENTATION_RELATIONSHIP( ) );
#188 = CARTESIAN_POINT ( 'NONE',  ( 0.000000000000000000, 0.000000000000000000, 0.000000000000000000 ) ) ;
#189 =( NAMED_UNIT ( * ) SI_UNIT ( $, .STERADIAN. ) SOLID_ANGLE_UNIT ( ) );
#190 = PRODUCT_CONTEXT ( 'NONE', #62, 'mechanical' ) ;
#191 = NEXT_ASSEMBLY_USAGE_OCCURRENCE ( 'NAUO3', ' ', ' ', #162, #155, $ ) ;
#192 = NEXT_ASSEMBLY_USAGE_OCCURRENCE ( 'NAUO4', ' ', ' ', #162, #135, $ ) ;
#193 = NEXT_ASSEMBLY_USAGE_OCCURRENCE ( 'NAUO5', ' ', ' ', #162, #106, $ ) ;
#194 = NEXT_ASSEMBLY_USAGE_OCCURRENCE ( 'NAUO6', ' ', ' ', #162, #99, $ ) ;
ENDSEC;
END-ISO-10303-21;
