ISO-10303-21;
HEADER;
FILE_DESCRIPTION (( 'STEP AP214' ),
    '1' );
FILE_NAME ('PTFE Wrap.STEP',
    '2026-01-09T11:17:35',
    ( '' ),
    ( '' ),
    'SwSTEP 2.0',
    'SolidWorks 2024',
    '' );
FILE_SCHEMA (( 'AUTOMOTIVE_DESIGN' ));
ENDSEC;

DATA;
#1 = EDGE_CURVE ( 'NONE', #572, #304, #956, .T. ) ;
#2 = DIRECTION ( 'NONE',  ( 0.000000000000000000, 0.000000000000000000, 1.000000000000000000 ) ) ;
#3 = DIRECTION ( 'NONE',  ( 0.000000000000000000, 0.000000000000000000, -1.000000000000000000 ) ) ;
#4 = ORIENTED_EDGE ( 'NONE', *, *, #747, .T. ) ;
#5 = CARTESIAN_POINT ( 'NONE',  ( 6.769999999999996909, 3.500000000000000888, 0.2500000000000000000 ) ) ;
#6 = EDGE_CURVE ( 'NONE', #571, #73, #676, .T. ) ;
#7 = CYLINDRICAL_SURFACE ( 'NONE', #477, 0.2500000000000002220 ) ;
#8 = VECTOR ( 'NONE', #483, 1000.000000000000000 ) ;
#9 = FACE_OUTER_BOUND ( 'NONE', #959, .T. ) ;
#10 = EDGE_LOOP ( 'NONE', ( #604, #51, #1056, #481, #1077, #928, #645, #484 ) ) ;
#11 = DIRECTION ( 'NONE',  ( -1.000000000000000000, -0.000000000000000000, -0.000000000000000000 ) ) ;
#12 = DIRECTION ( 'NONE',  ( 0.000000000000000000, 0.000000000000000000, 1.000000000000000000 ) ) ;
#13 = CYLINDRICAL_SURFACE ( 'NONE', #216, 0.2500000000000002220 ) ;
#14 = VERTEX_POINT ( 'NONE', #163 ) ;
#15 = DIRECTION ( 'NONE',  ( 1.000000000000000000, 1.239088197126291063E-16, 0.000000000000000000 ) ) ;
#16 = CARTESIAN_POINT ( 'NONE',  ( -9.000000000000000000, 2.999999999999999556, 0.000000000000000000 ) ) ;
#17 = FACE_OUTER_BOUND ( 'NONE', #261, .T. ) ;
#18 = ORIENTED_EDGE ( 'NONE', *, *, #540, .T. ) ;
#19 = CIRCLE ( 'NONE', #934, 0.2500000000000002220 ) ;
#20 = DIRECTION ( 'NONE',  ( 1.000000000000000000, 0.000000000000000000, -0.000000000000000000 ) ) ;
#21 = VECTOR ( 'NONE', #510, 1000.000000000000000 ) ;
#22 = CARTESIAN_POINT ( 'NONE',  ( 9.000000000000000000, -3.000000000000000444, -18.00000000000000000 ) ) ;
#23 = DIRECTION ( 'NONE',  ( 1.000000000000000000, 0.000000000000000000, 0.000000000000000000 ) ) ;
#24 = AXIS2_PLACEMENT_3D ( 'NONE', #794, #623, #1033 ) ;
#25 = EDGE_CURVE ( 'NONE', #776, #401, #345, .T. ) ;
#26 = PLANE ( 'NONE',  #983 ) ;
#27 = EDGE_CURVE ( 'NONE', #563, #501, #902, .T. ) ;
#28 = CARTESIAN_POINT ( 'NONE',  ( 9.000000000000000000, 2.999999999999999556, -18.00000000000000000 ) ) ;
#29 = CIRCLE ( 'NONE', #785, 0.2500000000000000000 ) ;
#30 = AXIS2_PLACEMENT_3D ( 'NONE', #129, #384, #714 ) ;
#31 = DIRECTION ( 'NONE',  ( -0.000000000000000000, 0.000000000000000000, 1.000000000000000000 ) ) ;
#32 = CARTESIAN_POINT ( 'NONE',  ( 9.499999999999998224, 3.249999999999999556, -18.50000000000000000 ) ) ;
#33 = EDGE_CURVE ( 'NONE', #678, #71, #833, .T. ) ;
#34 = VECTOR ( 'NONE', #184, 1000.000000000000000 ) ;
#35 = DIRECTION ( 'NONE',  ( -1.000000000000000000, -0.000000000000000000, -0.000000000000000000 ) ) ;
#36 = ORIENTED_EDGE ( 'NONE', *, *, #444, .F. ) ;
#37 = CARTESIAN_POINT ( 'NONE',  ( 0.000000000000000000, 0.000000000000000000, 0.000000000000000000 ) ) ;
#38 = LINE ( 'NONE', #624, #502 ) ;
#39 = ADVANCED_FACE ( 'NONE', ( #686 ), #172, .T. ) ;
#40 = DIRECTION ( 'NONE',  ( -0.000000000000000000, 1.000000000000000000, 0.000000000000000000 ) ) ;
#41 = VECTOR ( 'NONE', #673, 1000.000000000000000 ) ;
#42 = ORIENTED_EDGE ( 'NONE', *, *, #836, .T. ) ;
#43 = FACE_OUTER_BOUND ( 'NONE', #224, .T. ) ;
#44 = PRODUCT ( 'PTFE Wrap', 'PTFE Wrap', '', ( #960 ) ) ;
#45 = ORIENTED_EDGE ( 'NONE', *, *, #754, .F. ) ;
#46 = EDGE_CURVE ( 'NONE', #412, #771, #839, .T. ) ;
#47 = CARTESIAN_POINT ( 'NONE',  ( 6.769999999999997797, -3.250000000000000000, 0.5000000000000000000 ) ) ;
#48 = LINE ( 'NONE', #474, #811 ) ;
#49 = ORIENTED_EDGE ( 'NONE', *, *, #935, .T. ) ;
#50 = EDGE_CURVE ( 'NONE', #141, #683, #996, .T. ) ;
#51 = ORIENTED_EDGE ( 'NONE', *, *, #394, .T. ) ;
#52 = DIRECTION ( 'NONE',  ( -1.000000000000000000, -0.000000000000000000, -0.000000000000000000 ) ) ;
#53 = CYLINDRICAL_SURFACE ( 'NONE', #605, 0.2500000000000000000 ) ;
#54 = CARTESIAN_POINT ( 'NONE',  ( 9.000000000000000000, -3.000000000000000444, -18.00000000000000000 ) ) ;
#55 = CIRCLE ( 'NONE', #206, 0.2500000000000002220 ) ;
#56 = ORIENTED_EDGE ( 'NONE', *, *, #286, .F. ) ;
#57 = EDGE_CURVE ( 'NONE', #141, #89, #179, .T. ) ;
#58 = EDGE_LOOP ( 'NONE', ( #1057, #458, #1082, #337 ) ) ;
#59 = PLANE ( 'NONE',  #777 ) ;
#60 = CARTESIAN_POINT ( 'NONE',  ( -9.000000000000000000, -3.000000000000000444, 0.000000000000000000 ) ) ;
#61 = VERTEX_POINT ( 'NONE', #91 ) ;
#62 = VERTEX_POINT ( 'NONE', #769 ) ;
#63 = DIRECTION ( 'NONE',  ( -0.000000000000000000, 1.000000000000000000, -0.000000000000000000 ) ) ;
#64 = VERTEX_POINT ( 'NONE', #420 ) ;
#65 = EDGE_LOOP ( 'NONE', ( #818, #80, #586 ) ) ;
#66 = AXIS2_PLACEMENT_3D ( 'NONE', #280, #860, #843 ) ;
#67 = CARTESIAN_POINT ( 'NONE',  ( 6.769999999999996909, 3.249999999999999556, 0.5000000000000000000 ) ) ;
#68 = AXIS2_PLACEMENT_3D ( 'NONE', #915, #81, #244 ) ;
#69 = DIRECTION ( 'NONE',  ( -1.000000000000000000, 0.000000000000000000, 0.000000000000000000 ) ) ;
#70 = ADVANCED_FACE ( 'NONE', ( #245 ), #7, .T. ) ;
#71 = VERTEX_POINT ( 'NONE', #156 ) ;
#72 = CYLINDRICAL_SURFACE ( 'NONE', #631, 0.2500000000000002220 ) ;
#73 = VERTEX_POINT ( 'NONE', #681 ) ;
#74 = DIRECTION ( 'NONE',  ( -1.000000000000000000, -1.239088197126291063E-16, -0.000000000000000000 ) ) ;
#75 = CARTESIAN_POINT ( 'NONE',  ( -9.000000000000000000, -3.000000000000000444, -18.00000000000000000 ) ) ;
#76 = DIRECTION ( 'NONE',  ( 1.000000000000000000, 0.000000000000000000, -0.000000000000000000 ) ) ;
#77 = DIRECTION ( 'NONE',  ( 1.000000000000000000, 0.000000000000000000, 0.000000000000000000 ) ) ;
#78 = EDGE_LOOP ( 'NONE', ( #217, #710, #726, #554 ) ) ;
#79 = AXIS2_PLACEMENT_3D ( 'NONE', #801, #291, #220 ) ;
#80 = ORIENTED_EDGE ( 'NONE', *, *, #209, .T. ) ;
#81 = DIRECTION ( 'NONE',  ( -1.000000000000000000, -0.000000000000000000, -0.000000000000000000 ) ) ;
#82 = EDGE_CURVE ( 'NONE', #883, #130, #1018, .T. ) ;
#83 = DIRECTION ( 'NONE',  ( 1.000000000000000000, 0.000000000000000000, 0.000000000000000000 ) ) ;
#84 = VECTOR ( 'NONE', #936, 1000.000000000000000 ) ;
#85 = CARTESIAN_POINT ( 'NONE',  ( 9.249999999999998224, -3.249999999999999556, -18.50000000000000000 ) ) ;
#86 = CARTESIAN_POINT ( 'NONE',  ( 9.249999999999998224, -3.499999999999999556, -18.50000000000000000 ) ) ;
#87 = ORIENTED_EDGE ( 'NONE', *, *, #894, .T. ) ;
#88 = EDGE_CURVE ( 'NONE', #210, #571, #269, .T. ) ;
#89 = VERTEX_POINT ( 'NONE', #509 ) ;
#90 = CARTESIAN_POINT ( 'NONE',  ( -9.500000000000001776, -3.249999999999999556, -18.50000000000000000 ) ) ;
#91 = CARTESIAN_POINT ( 'NONE',  ( 9.000000000000000000, 2.999999999999999556, 0.000000000000000000 ) ) ;
#92 = DIRECTION ( 'NONE',  ( -0.000000000000000000, -0.000000000000000000, -1.000000000000000000 ) ) ;
#93 = ORIENTED_EDGE ( 'NONE', *, *, #399, .T. ) ;
#94 = FILL_AREA_STYLE ('',( #356 ) ) ;
#95 = FACE_OUTER_BOUND ( 'NONE', #847, .T. ) ;
#96 = AXIS2_PLACEMENT_3D ( 'NONE', #660, #1000, #251 ) ;
#97 = DIRECTION ( 'NONE',  ( 0.000000000000000000, 0.000000000000000000, 1.000000000000000000 ) ) ;
#98 = ORIENTED_EDGE ( 'NONE', *, *, #858, .F. ) ;
#99 = CARTESIAN_POINT ( 'NONE',  ( 0.000000000000000000, -3.249999999999999556, 0.2500000000000000000 ) ) ;
#100 = LINE ( 'NONE', #273, #617 ) ;
#101 = FACE_OUTER_BOUND ( 'NONE', #1046, .T. ) ;
#102 = CARTESIAN_POINT ( 'NONE',  ( 9.249999999999998224, 3.249999999999999556, -18.50000000000000000 ) ) ;
#103 = EDGE_LOOP ( 'NONE', ( #759, #142, #877 ) ) ;
#104 = LINE ( 'NONE', #205, #701 ) ;
#105 = DIRECTION ( 'NONE',  ( 0.000000000000000000, -0.000000000000000000, -1.000000000000000000 ) ) ;
#106 = CARTESIAN_POINT ( 'NONE',  ( -9.250000000000001776, 3.249999999999999556, 0.2500000000000000000 ) ) ;
#107 = EDGE_CURVE ( 'NONE', #937, #537, #1011, .T. ) ;
#108 = ADVANCED_FACE ( 'NONE', ( #185 ), #1080, .F. ) ;
#109 = CARTESIAN_POINT ( 'NONE',  ( -6.770000000000003126, 3.249999999999999556, 0.2500000000000000000 ) ) ;
#110 = AXIS2_PLACEMENT_3D ( 'NONE', #846, #931, #764 ) ;
#111 = AXIS2_PLACEMENT_3D ( 'NONE', #85, #577, #918 ) ;
#112 = CARTESIAN_POINT ( 'NONE',  ( -9.000000000000000000, -3.000000000000000444, -18.00000000000000000 ) ) ;
#113 = DIRECTION ( 'NONE',  ( -0.000000000000000000, -0.000000000000000000, 1.000000000000000000 ) ) ;
#114 = VECTOR ( 'NONE', #1021, 1000.000000000000000 ) ;
#115 = LINE ( 'NONE', #593, #885 ) ;
#116 = ADVANCED_FACE ( 'NONE', ( #95 ), #432, .T. ) ;
#117 = CARTESIAN_POINT ( 'NONE',  ( -9.500000000000001776, -3.249999999999999556, -18.25000000000000000 ) ) ;
#118 = ADVANCED_FACE ( 'NONE', ( #410 ), #1075, .F. ) ;
#119 = ORIENTED_EDGE ( 'NONE', *, *, #747, .F. ) ;
#120 = CARTESIAN_POINT ( 'NONE',  ( 9.249999999999998224, -3.249999999999999556, 0.2500000000000000000 ) ) ;
#121 = FACE_OUTER_BOUND ( 'NONE', #235, .T. ) ;
#122 = CIRCLE ( 'NONE', #66, 0.2500000000000002220 ) ;
#123 = VECTOR ( 'NONE', #1047, 1000.000000000000000 ) ;
#124 = APPLICATION_CONTEXT ( 'automotive_design' ) ;
#125 = ORIENTED_EDGE ( 'NONE', *, *, #288, .T. ) ;
#126 = CARTESIAN_POINT ( 'NONE',  ( -9.000000000000000000, 2.999999999999999556, 0.000000000000000000 ) ) ;
#127 = CARTESIAN_POINT ( 'NONE',  ( 9.249999999999998224, 3.249999999999999556, -18.25000000000000000 ) ) ;
#128 = AXIS2_PLACEMENT_3D ( 'NONE', #707, #779, #878 ) ;
#129 = CARTESIAN_POINT ( 'NONE',  ( 9.249999999999998224, 3.249999999999999556, 0.2500000000000000000 ) ) ;
#130 = VERTEX_POINT ( 'NONE', #908 ) ;
#131 = AXIS2_PLACEMENT_3D ( 'NONE', #539, #879, #465 ) ;
#132 = CARTESIAN_POINT ( 'NONE',  ( 6.769999999999996909, 3.500000000000000888, 0.000000000000000000 ) ) ;
#133 = DIRECTION ( 'NONE',  ( 0.000000000000000000, -0.000000000000000000, -1.000000000000000000 ) ) ;
#134 = CIRCLE ( 'NONE', #748, 0.2500000000000002220 ) ;
#135 = VECTOR ( 'NONE', #954, 1000.000000000000000 ) ;
#136 = CARTESIAN_POINT ( 'NONE',  ( -9.000000000000000000, 2.999999999999999556, 0.000000000000000000 ) ) ;
#137 = ORIENTED_EDGE ( 'NONE', *, *, #921, .T. ) ;
#138 = FACE_OUTER_BOUND ( 'NONE', #841, .T. ) ;
#139 = DIRECTION ( 'NONE',  ( 0.000000000000000000, 0.000000000000000000, -1.000000000000000000 ) ) ;
#140 = ADVANCED_FACE ( 'NONE', ( #488 ), #335, .F. ) ;
#141 = VERTEX_POINT ( 'NONE', #1024 ) ;
#142 = ORIENTED_EDGE ( 'NONE', *, *, #252, .T. ) ;
#143 = PLANE ( 'NONE',  #780 ) ;
#144 = CARTESIAN_POINT ( 'NONE',  ( 9.249999999999998224, -3.249999999999999556, -18.50000000000000000 ) ) ;
#145 = DIRECTION ( 'NONE',  ( 1.239088197126290817E-16, -1.000000000000000000, 0.000000000000000000 ) ) ;
#146 = ORIENTED_EDGE ( 'NONE', *, *, #6, .F. ) ;
#147 = ORIENTED_EDGE ( 'NONE', *, *, #858, .T. ) ;
#148 = AXIS2_PLACEMENT_3D ( 'NONE', #364, #697, #1036 ) ;
#149 = CARTESIAN_POINT ( 'NONE',  ( 9.249999999999998224, 3.499999999999999556, -18.25000000000000000 ) ) ;
#150 = EDGE_CURVE ( 'NONE', #299, #1004, #437, .T. ) ;
#151 = CARTESIAN_POINT ( 'NONE',  ( 0.000000000000000000, -3.249999999999999556, 0.5000000000000000000 ) ) ;
#152 = ORIENTED_EDGE ( 'NONE', *, *, #1059, .T. ) ;
#153 = ORIENTED_EDGE ( 'NONE', *, *, #150, .T. ) ;
#154 = EDGE_CURVE ( 'NONE', #89, #304, #602, .T. ) ;
#155 = CARTESIAN_POINT ( 'NONE',  ( -9.250000000000001776, 3.249999999999999556, -18.50000000000000000 ) ) ;
#156 = CARTESIAN_POINT ( 'NONE',  ( 9.249999999999998224, 3.249999999999999556, 0.5000000000000000000 ) ) ;
#157 = FACE_OUTER_BOUND ( 'NONE', #78, .T. ) ;
#158 = ORIENTED_EDGE ( 'NONE', *, *, #88, .F. ) ;
#159 = DIRECTION ( 'NONE',  ( -1.000000000000000000, 0.000000000000000000, 0.000000000000000000 ) ) ;
#160 = VERTEX_POINT ( 'NONE', #596 ) ;
#161 = CARTESIAN_POINT ( 'NONE',  ( 6.769999999999996909, 3.500000000000000888, 0.000000000000000000 ) ) ;
#162 = AXIS2_PLACEMENT_3D ( 'NONE', #127, #551, #301 ) ;
#163 = CARTESIAN_POINT ( 'NONE',  ( -6.770000000000002238, -3.499999999999999112, 0.2500000000000000000 ) ) ;
#164 = CYLINDRICAL_SURFACE ( 'NONE', #111, 0.2500000000000002220 ) ;
#165 = AXIS2_PLACEMENT_3D ( 'NONE', #234, #557, #2 ) ;
#166 = DIRECTION ( 'NONE',  ( 0.000000000000000000, 0.000000000000000000, 1.000000000000000000 ) ) ;
#167 = ORIENTED_EDGE ( 'NONE', *, *, #1079, .F. ) ;
#168 = AXIS2_PLACEMENT_3D ( 'NONE', #249, #564, #744 ) ;
#169 = ADVANCED_FACE ( 'NONE', ( #198 ), #518, .T. ) ;
#170 = VERTEX_POINT ( 'NONE', #861 ) ;
#171 = VECTOR ( 'NONE', #718, 1000.000000000000000 ) ;
#172 = PLANE ( 'NONE',  #559 ) ;
#173 = DIRECTION ( 'NONE',  ( -0.000000000000000000, -0.000000000000000000, 1.000000000000000000 ) ) ;
#174 = EDGE_CURVE ( 'NONE', #1034, #313, #284, .T. ) ;
#175 = CARTESIAN_POINT ( 'NONE',  ( -9.000000000000000000, 2.999999999999999556, 0.000000000000000000 ) ) ;
#176 = VERTEX_POINT ( 'NONE', #609 ) ;
#177 = ORIENTED_EDGE ( 'NONE', *, *, #613, .T. ) ;
#178 = SPHERICAL_SURFACE ( 'NONE', #734, 0.2500000000000000000 ) ;
#179 = LINE ( 'NONE', #426, #495 ) ;
#180 = VECTOR ( 'NONE', #379, 1000.000000000000000 ) ;
#181 = LINE ( 'NONE', #428, #689 ) ;
#182 = ORIENTED_EDGE ( 'NONE', *, *, #889, .T. ) ;
#183 = UNCERTAINTY_MEASURE_WITH_UNIT (LENGTH_MEASURE( 1.000000000000000082E-05 ), #386, 'distance_accuracy_value', 'NONE');
#184 = DIRECTION ( 'NONE',  ( -0.000000000000000000, -0.000000000000000000, 1.000000000000000000 ) ) ;
#185 = FACE_OUTER_BOUND ( 'NONE', #10, .T. ) ;
#186 = VECTOR ( 'NONE', #944, 1000.000000000000000 ) ;
#187 = CARTESIAN_POINT ( 'NONE',  ( -9.250000000000001776, -3.499999999999999556, -18.50000000000000000 ) ) ;
#188 = ORIENTED_EDGE ( 'NONE', *, *, #1, .F. ) ;
#189 = ADVANCED_BREP_SHAPE_REPRESENTATION ( 'PTFE Wrap', ( #636, #361 ), #693 ) ;
#190 = DIRECTION ( 'NONE',  ( 0.000000000000000000, 0.000000000000000000, -1.000000000000000000 ) ) ;
#191 = EDGE_CURVE ( 'NONE', #771, #130, #100, .T. ) ;
#192 = AXIS2_PLACEMENT_3D ( 'NONE', #212, #40, #870 ) ;
#193 = CARTESIAN_POINT ( 'NONE',  ( 9.499999999999998224, 3.249999999999999556, 0.2500000000000000000 ) ) ;
#194 = ORIENTED_EDGE ( 'NONE', *, *, #657, .F. ) ;
#195 =( NAMED_UNIT ( * ) PLANE_ANGLE_UNIT ( ) SI_UNIT ( $, .RADIAN. ) );
#196 = FACE_OUTER_BOUND ( 'NONE', #260, .T. ) ;
#197 = EDGE_CURVE ( 'NONE', #563, #683, #580, .T. ) ;
#198 = FACE_OUTER_BOUND ( 'NONE', #824, .T. ) ;
#199 = EDGE_CURVE ( 'NONE', #496, #678, #852, .T. ) ;
#200 = DIRECTION ( 'NONE',  ( -0.000000000000000000, 0.000000000000000000, -1.000000000000000000 ) ) ;
#201 = CARTESIAN_POINT ( 'NONE',  ( -9.000000000000000000, 2.999999999999999556, -18.00000000000000000 ) ) ;
#202 = CARTESIAN_POINT ( 'NONE',  ( -9.500000000000001776, 3.499999999999999556, 0.2500000000000002220 ) ) ;
#203 = CARTESIAN_POINT ( 'NONE',  ( -9.500000000000001776, 3.499999999999999556, -18.50000000000000000 ) ) ;
#204 = ADVANCED_FACE ( 'NONE', ( #618 ), #784, .F. ) ;
#205 = CARTESIAN_POINT ( 'NONE',  ( -9.000000000000000000, 2.999999999999999556, 0.000000000000000000 ) ) ;
#206 = AXIS2_PLACEMENT_3D ( 'NONE', #259, #331, #319 ) ;
#207 = DIRECTION ( 'NONE',  ( 0.000000000000000000, 0.000000000000000000, 1.000000000000000000 ) ) ;
#208 = AXIS2_PLACEMENT_3D ( 'NONE', #203, #366, #947 ) ;
#209 = EDGE_CURVE ( 'NONE', #71, #809, #942, .T. ) ;
#210 = VERTEX_POINT ( 'NONE', #452 ) ;
#211 = CARTESIAN_POINT ( 'NONE',  ( 6.769999999999996909, 3.500000000000000888, 0.000000000000000000 ) ) ;
#212 = CARTESIAN_POINT ( 'NONE',  ( 9.249999999999998224, 0.000000000000000000, 0.2500000000000000000 ) ) ;
#213 = EDGE_LOOP ( 'NONE', ( #1072, #125, #395 ) ) ;
#214 = CARTESIAN_POINT ( 'NONE',  ( -9.000000000000000000, 2.999999999999999556, -18.00000000000000000 ) ) ;
#215 = DIRECTION ( 'NONE',  ( -1.239088197126290817E-16, 1.000000000000000000, -0.000000000000000000 ) ) ;
#216 = AXIS2_PLACEMENT_3D ( 'NONE', #102, #682, #770 ) ;
#217 = ORIENTED_EDGE ( 'NONE', *, *, #721, .T. ) ;
#218 = APPLICATION_PROTOCOL_DEFINITION ( 'draft international standard', 'automotive_design', 1998, #124 ) ;
#219 = VECTOR ( 'NONE', #736, 1000.000000000000000 ) ;
#220 = DIRECTION ( 'NONE',  ( 0.000000000000000000, 0.000000000000000000, 1.000000000000000000 ) ) ;
#221 = VECTOR ( 'NONE', #464, 1000.000000000000000 ) ;
#222 = DIRECTION ( 'NONE',  ( -0.000000000000000000, 1.000000000000000000, 0.000000000000000000 ) ) ;
#223 = LINE ( 'NONE', #136, #927 ) ;
#224 = EDGE_LOOP ( 'NONE', ( #871, #804, #813, #632 ) ) ;
#225 = FACE_OUTER_BOUND ( 'NONE', #957, .T. ) ;
#226 = CARTESIAN_POINT ( 'NONE',  ( -9.250000000000001776, -3.249999999999999556, 0.2500000000000000000 ) ) ;
#227 = ADVANCED_FACE ( 'NONE', ( #101 ), #963, .T. ) ;
#228 = CARTESIAN_POINT ( 'NONE',  ( -9.250000000000001776, -3.249999999999999556, -18.25000000000000000 ) ) ;
#229 = ADVANCED_FACE ( 'NONE', ( #292 ), #438, .T. ) ;
#230 = ORIENTED_EDGE ( 'NONE', *, *, #1, .T. ) ;
#231 = CIRCLE ( 'NONE', #30, 0.2500000000000002220 ) ;
#232 = ORIENTED_EDGE ( 'NONE', *, *, #961, .T. ) ;
#233 = LINE ( 'NONE', #469, #541 ) ;
#234 = CARTESIAN_POINT ( 'NONE',  ( -9.250000000000001776, 3.249999999999999556, -18.25000000000000000 ) ) ;
#235 = EDGE_LOOP ( 'NONE', ( #18, #1069, #336, #888, #1073, #743, #615, #738 ) ) ;
#236 = ORIENTED_EDGE ( 'NONE', *, *, #154, .F. ) ;
#237 = ADVANCED_FACE ( 'NONE', ( #121 ), #377, .T. ) ;
#238 = DIRECTION ( 'NONE',  ( 1.000000000000000000, 0.000000000000000000, -0.000000000000000000 ) ) ;
#239 = DIRECTION ( 'NONE',  ( -0.000000000000000000, 0.000000000000000000, 1.000000000000000000 ) ) ;
#240 = EDGE_LOOP ( 'NONE', ( #923, #722, #416, #895, #591, #652 ) ) ;
#241 = ADVANCED_FACE ( 'NONE', ( #17 ), #519, .F. ) ;
#242 = ORIENTED_EDGE ( 'NONE', *, *, #935, .F. ) ;
#243 = AXIS2_PLACEMENT_3D ( 'NONE', #939, #190, #513 ) ;
#244 = DIRECTION ( 'NONE',  ( 0.000000000000000000, 0.000000000000000000, 1.000000000000000000 ) ) ;
#245 = FACE_OUTER_BOUND ( 'NONE', #1051, .T. ) ;
#246 = CARTESIAN_POINT ( 'NONE',  ( 9.249999999999998224, 3.249999999999999556, 0.2500000000000000000 ) ) ;
#247 = ORIENTED_EDGE ( 'NONE', *, *, #50, .T. ) ;
#248 = PRODUCT_DEFINITION_CONTEXT ( 'detailed design', #124, 'design' ) ;
#249 = CARTESIAN_POINT ( 'NONE',  ( 9.249999999999998224, -3.249999999999999556, -18.25000000000000000 ) ) ;
#250 = ORIENTED_EDGE ( 'NONE', *, *, #524, .F. ) ;
#251 = DIRECTION ( 'NONE',  ( 0.000000000000000000, -0.000000000000000000, 1.000000000000000000 ) ) ;
#252 = EDGE_CURVE ( 'NONE', #413, #359, #919, .T. ) ;
#253 = CARTESIAN_POINT ( 'NONE',  ( 9.499999999999998224, -3.249999999999999556, 0.2500000000000000000 ) ) ;
#254 = ORIENTED_EDGE ( 'NONE', *, *, #894, .F. ) ;
#255 = EDGE_LOOP ( 'NONE', ( #1078, #662, #658, #581 ) ) ;
#256 = ADVANCED_FACE ( 'NONE', ( #648 ), #324, .F. ) ;
#257 = DIRECTION ( 'NONE',  ( -0.000000000000000000, 1.000000000000000000, 0.000000000000000000 ) ) ;
#258 = AXIS2_PLACEMENT_3D ( 'NONE', #246, #675, #742 ) ;
#259 = CARTESIAN_POINT ( 'NONE',  ( -9.250000000000001776, -3.249999999999999556, 0.2500000000000000000 ) ) ;
#260 = EDGE_LOOP ( 'NONE', ( #922, #979, #1027, #670 ) ) ;
#261 = EDGE_LOOP ( 'NONE', ( #476, #232, #146, #355 ) ) ;
#262 = VECTOR ( 'NONE', #589, 1000.000000000000000 ) ;
#263 = CARTESIAN_POINT ( 'NONE',  ( -9.250000000000001776, -3.249999999999999556, 0.2500000000000000000 ) ) ;
#264 = EDGE_CURVE ( 'NONE', #64, #1004, #48, .T. ) ;
#265 = CARTESIAN_POINT ( 'NONE',  ( -6.770000000000003126, 3.500000000000000888, 0.000000000000000000 ) ) ;
#266 = CARTESIAN_POINT ( 'NONE',  ( 6.769999999999997797, -3.499999999999999112, 0.000000000000000000 ) ) ;
#267 = ORIENTED_EDGE ( 'NONE', *, *, #864, .T. ) ;
#268 = CARTESIAN_POINT ( 'NONE',  ( -9.500000000000001776, -3.499999999999999556, 0.2500000000000002220 ) ) ;
#269 = LINE ( 'NONE', #575, #41 ) ;
#270 = CARTESIAN_POINT ( 'NONE',  ( -9.250000000000001776, -3.499999999999999556, 0.2500000000000000000 ) ) ;
#271 = ORIENTED_EDGE ( 'NONE', *, *, #306, .T. ) ;
#272 = DIRECTION ( 'NONE',  ( 0.000000000000000000, -1.000000000000000000, 0.000000000000000000 ) ) ;
#273 = CARTESIAN_POINT ( 'NONE',  ( 6.769999999999997797, -3.499999999999999112, 0.000000000000000000 ) ) ;
#274 = VECTOR ( 'NONE', #425, 1000.000000000000000 ) ;
#275 = DIRECTION ( 'NONE',  ( 0.000000000000000000, -1.000000000000000000, 0.000000000000000000 ) ) ;
#276 = VERTEX_POINT ( 'NONE', #1061 ) ;
#277 = VECTOR ( 'NONE', #1064, 1000.000000000000000 ) ;
#278 = EDGE_CURVE ( 'NONE', #694, #515, #389, .T. ) ;
#279 = LINE ( 'NONE', #60, #277 ) ;
#280 = CARTESIAN_POINT ( 'NONE',  ( 9.249999999999998224, 3.249999999999999556, -18.25000000000000000 ) ) ;
#281 = ORIENTED_EDGE ( 'NONE', *, *, #490, .T. ) ;
#282 = DIRECTION ( 'NONE',  ( 1.000000000000000000, 0.000000000000000000, 0.000000000000000000 ) ) ;
#283 = DIRECTION ( 'NONE',  ( 0.000000000000000000, 1.000000000000000000, -0.000000000000000000 ) ) ;
#284 = LINE ( 'NONE', #202, #293 ) ;
#285 = AXIS2_PLACEMENT_3D ( 'NONE', #109, #15, #272 ) ;
#286 = EDGE_CURVE ( 'NONE', #515, #745, #470, .T. ) ;
#287 = CARTESIAN_POINT ( 'NONE',  ( 9.249999999999998224, -3.499999999999999556, -18.25000000000000000 ) ) ;
#288 = EDGE_CURVE ( 'NONE', #170, #501, #309, .T. ) ;
#289 = FACE_OUTER_BOUND ( 'NONE', #333, .T. ) ;
#290 = ORIENTED_EDGE ( 'NONE', *, *, #107, .F. ) ;
#291 = DIRECTION ( 'NONE',  ( -0.000000000000000000, 1.000000000000000000, 0.000000000000000000 ) ) ;
#292 = FACE_OUTER_BOUND ( 'NONE', #719, .T. ) ;
#293 = VECTOR ( 'NONE', #521, 1000.000000000000000 ) ;
#294 = LINE ( 'NONE', #867, #180 ) ;
#295 = ORIENTED_EDGE ( 'NONE', *, *, #851, .F. ) ;
#296 = APPLICATION_PROTOCOL_DEFINITION ( 'draft international standard', 'automotive_design', 1998, #387 ) ;
#297 = LINE ( 'NONE', #713, #946 ) ;
#298 = DIRECTION ( 'NONE',  ( 1.000000000000000000, 0.000000000000000000, -0.000000000000000000 ) ) ;
#299 = VERTEX_POINT ( 'NONE', #54 ) ;
#300 = CARTESIAN_POINT ( 'NONE',  ( 9.249999999999998224, 3.249999999999999556, -18.25000000000000000 ) ) ;
#301 = DIRECTION ( 'NONE',  ( 0.000000000000000000, 0.000000000000000000, -1.000000000000000000 ) ) ;
#302 = VECTOR ( 'NONE', #1060, 1000.000000000000000 ) ;
#303 = ADVANCED_FACE ( 'NONE', ( #891 ), #400, .T. ) ;
#304 = VERTEX_POINT ( 'NONE', #144 ) ;
#305 = CARTESIAN_POINT ( 'NONE',  ( -9.000000000000000000, 2.999999999999999556, -18.00000000000000000 ) ) ;
#306 = EDGE_CURVE ( 'NONE', #64, #463, #832, .T. ) ;
#307 = FACE_OUTER_BOUND ( 'NONE', #58, .T. ) ;
#308 = EDGE_LOOP ( 'NONE', ( #295, #281, #315 ) ) ;
#309 = CIRCLE ( 'NONE', #447, 0.2500000000000002220 ) ;
#310 = ORIENTED_EDGE ( 'NONE', *, *, #191, .F. ) ;
#311 = SPHERICAL_SURFACE ( 'NONE', #489, 0.2500000000000000000 ) ;
#312 = CARTESIAN_POINT ( 'NONE',  ( -9.250000000000001776, -3.249999999999999556, 0.5000000000000000000 ) ) ;
#313 = VERTEX_POINT ( 'NONE', #756 ) ;
#314 = VECTOR ( 'NONE', #679, 1000.000000000000000 ) ;
#315 = ORIENTED_EDGE ( 'NONE', *, *, #399, .F. ) ;
#316 = DIRECTION ( 'NONE',  ( 0.000000000000000000, 0.000000000000000000, -1.000000000000000000 ) ) ;
#317 = CARTESIAN_POINT ( 'NONE',  ( -6.770000000000003126, 3.500000000000000888, 0.2500000000000000000 ) ) ;
#318 = EDGE_CURVE ( 'NONE', #130, #496, #735, .T. ) ;
#319 = DIRECTION ( 'NONE',  ( 1.000000000000000000, 0.000000000000000000, 0.000000000000000000 ) ) ;
#320 = ORIENTED_EDGE ( 'NONE', *, *, #33, .F. ) ;
#321 = VECTOR ( 'NONE', #850, 1000.000000000000000 ) ;
#322 = AXIS2_PLACEMENT_3D ( 'NONE', #482, #239, #897 ) ;
#323 = ORIENTED_EDGE ( 'NONE', *, *, #57, .T. ) ;
#324 = PLANE ( 'NONE',  #638 ) ;
#325 = LINE ( 'NONE', #151, #219 ) ;
#326 = ORIENTED_EDGE ( 'NONE', *, *, #531, .T. ) ;
#327 = ORIENTED_EDGE ( 'NONE', *, *, #427, .F. ) ;
#328 = AXIS2_PLACEMENT_3D ( 'NONE', #263, #562, #12 ) ;
#329 = DIRECTION ( 'NONE',  ( 1.000000000000000000, 0.000000000000000000, 0.000000000000000000 ) ) ;
#330 = DIRECTION ( 'NONE',  ( 1.000000000000000000, -0.000000000000000000, 0.000000000000000000 ) ) ;
#331 = DIRECTION ( 'NONE',  ( -0.000000000000000000, -0.000000000000000000, -1.000000000000000000 ) ) ;
#332 = ORIENTED_EDGE ( 'NONE', *, *, #1001, .F. ) ;
#333 = EDGE_LOOP ( 'NONE', ( #799, #230, #332 ) ) ;
#334 = DIRECTION ( 'NONE',  ( -1.239088197126291063E-16, 1.000000000000000000, 0.000000000000000000 ) ) ;
#335 = PLANE ( 'NONE',  #898 ) ;
#336 = ORIENTED_EDGE ( 'NONE', *, *, #845, .T. ) ;
#337 = ORIENTED_EDGE ( 'NONE', *, *, #608, .F. ) ;
#338 = ADVANCED_FACE ( 'NONE', ( #994 ), #59, .F. ) ;
#339 = FACE_OUTER_BOUND ( 'NONE', #887, .T. ) ;
#340 = EDGE_CURVE ( 'NONE', #176, #170, #690, .T. ) ;
#341 = CARTESIAN_POINT ( 'NONE',  ( -6.770000000000002238, -3.499999999999999112, 0.000000000000000000 ) ) ;
#342 = CARTESIAN_POINT ( 'NONE',  ( 9.000000000000000000, 2.999999999999999556, 0.000000000000000000 ) ) ;
#343 = ORIENTED_EDGE ( 'NONE', *, *, #448, .F. ) ;
#344 = VERTEX_POINT ( 'NONE', #317 ) ;
#345 = CIRCLE ( 'NONE', #328, 0.2500000000000000000 ) ;
#346 = LINE ( 'NONE', #370, #321 ) ;
#347 = DIRECTION ( 'NONE',  ( 0.000000000000000000, 0.000000000000000000, 1.000000000000000000 ) ) ;
#348 = FACE_OUTER_BOUND ( 'NONE', #385, .T. ) ;
#349 = EDGE_LOOP ( 'NONE', ( #594, #500, #152, #664 ) ) ;
#350 = CARTESIAN_POINT ( 'NONE',  ( 9.249999999999998224, -3.249999999999999556, -18.25000000000000000 ) ) ;
#351 = CARTESIAN_POINT ( 'NONE',  ( -9.500000000000001776, -3.499999999999999556, -18.50000000000000000 ) ) ;
#352 = DIRECTION ( 'NONE',  ( 0.000000000000000000, 0.000000000000000000, 1.000000000000000000 ) ) ;
#353 = EDGE_CURVE ( 'NONE', #809, #694, #567, .T. ) ;
#354 = DIRECTION ( 'NONE',  ( -0.000000000000000000, 1.000000000000000000, -0.000000000000000000 ) ) ;
#355 = ORIENTED_EDGE ( 'NONE', *, *, #619, .F. ) ;
#356 = FILL_AREA_STYLE_COLOUR ( '', #419 ) ;
#357 = VECTOR ( 'NONE', #514, 1000.000000000000000 ) ;
#358 = AXIS2_PLACEMENT_3D ( 'NONE', #155, #647, #329 ) ;
#359 = VERTEX_POINT ( 'NONE', #1084 ) ;
#360 = CIRCLE ( 'NONE', #862, 0.2500000000000000000 ) ;
#361 = AXIS2_PLACEMENT_3D ( 'NONE', #37, #716, #381 ) ;
#362 = LINE ( 'NONE', #859, #135 ) ;
#363 = DIRECTION ( 'NONE',  ( 0.000000000000000000, -0.000000000000000000, -1.000000000000000000 ) ) ;
#364 = CARTESIAN_POINT ( 'NONE',  ( -9.500000000000001776, 3.499999999999999556, -18.50000000000000000 ) ) ;
#365 = ADVANCED_FACE ( 'NONE', ( #901 ), #907, .T. ) ;
#366 = DIRECTION ( 'NONE',  ( 0.000000000000000000, 1.000000000000000000, 0.000000000000000000 ) ) ;
#367 = CIRCLE ( 'NONE', #79, 0.2500000000000002220 ) ;
#368 = PRESENTATION_STYLE_ASSIGNMENT (( #855 ) ) ;
#369 = ADVANCED_FACE ( 'NONE', ( #339 ), #659, .F. ) ;
#370 = CARTESIAN_POINT ( 'NONE',  ( 9.499999999999998224, -3.499999999999999556, -18.25000000000000000 ) ) ;
#371 = DIRECTION ( 'NONE',  ( 0.000000000000000000, 1.000000000000000000, 0.000000000000000000 ) ) ;
#372 = ORIENTED_EDGE ( 'NONE', *, *, #199, .T. ) ;
#373 = LINE ( 'NONE', #211, #968 ) ;
#374 = VERTEX_POINT ( 'NONE', #67 ) ;
#375 = DIRECTION ( 'NONE',  ( 1.000000000000000000, 0.000000000000000000, 0.000000000000000000 ) ) ;
#376 = CARTESIAN_POINT ( 'NONE',  ( 6.769999999999996909, 2.999999999999999556, 0.000000000000000000 ) ) ;
#377 = PLANE ( 'NONE',  #208 ) ;
#378 = ADVANCED_FACE ( 'NONE', ( #486 ), #409, .T. ) ;
#379 = DIRECTION ( 'NONE',  ( -0.000000000000000000, -0.000000000000000000, 1.000000000000000000 ) ) ;
#380 = ORIENTED_EDGE ( 'NONE', *, *, #540, .F. ) ;
#381 = DIRECTION ( 'NONE',  ( 1.000000000000000000, 0.000000000000000000, 0.000000000000000000 ) ) ;
#382 = FACE_OUTER_BOUND ( 'NONE', #349, .T. ) ;
#383 = EDGE_CURVE ( 'NONE', #276, #683, #708, .T. ) ;
#384 = DIRECTION ( 'NONE',  ( -0.000000000000000000, -0.000000000000000000, -1.000000000000000000 ) ) ;
#385 = EDGE_LOOP ( 'NONE', ( #981, #822, #434, #688 ) ) ;
#386 =( LENGTH_UNIT ( ) NAMED_UNIT ( * ) SI_UNIT ( .MILLI., .METRE. ) );
#387 = APPLICATION_CONTEXT ( 'automotive_design' ) ;
#388 = CARTESIAN_POINT ( 'NONE',  ( -6.770000000000002238, -3.499999999999999112, 0.000000000000000000 ) ) ;
#389 = LINE ( 'NONE', #875, #171 ) ;
#390 = ORIENTED_EDGE ( 'NONE', *, *, #695, .T. ) ;
#391 = ORIENTED_EDGE ( 'NONE', *, *, #1079, .T. ) ;
#392 =( GEOMETRIC_REPRESENTATION_CONTEXT ( 3 ) GLOBAL_UNCERTAINTY_ASSIGNED_CONTEXT ( ( #842 ) ) GLOBAL_UNIT_ASSIGNED_CONTEXT ( ( #588, #195, #600 ) ) REPRESENTATION_CONTEXT ( 'NONE', 'WORKASPACE' ) );
#393 = DIRECTION ( 'NONE',  ( 0.000000000000000000, 0.000000000000000000, -1.000000000000000000 ) ) ;
#394 = EDGE_CURVE ( 'NONE', #620, #14, #1028, .T. ) ;
#395 = ORIENTED_EDGE ( 'NONE', *, *, #695, .F. ) ;
#396 = VECTOR ( 'NONE', #1031, 1000.000000000000000 ) ;
#397 = ORIENTED_EDGE ( 'NONE', *, *, #523, .F. ) ;
#398 = DIRECTION ( 'NONE',  ( -0.000000000000000000, 1.000000000000000000, 0.000000000000000000 ) ) ;
#399 = EDGE_CURVE ( 'NONE', #694, #883, #19, .T. ) ;
#400 = SPHERICAL_SURFACE ( 'NONE', #407, 0.2500000000000000000 ) ;
#401 = VERTEX_POINT ( 'NONE', #312 ) ;
#402 = ORIENTED_EDGE ( 'NONE', *, *, #1005, .F. ) ;
#403 = DIRECTION ( 'NONE',  ( -0.000000000000000000, -1.000000000000000000, -0.000000000000000000 ) ) ;
#404 = CARTESIAN_POINT ( 'NONE',  ( -6.770000000000003126, 3.500000000000000888, 0.5000000000000000000 ) ) ;
#405 = ORIENTED_EDGE ( 'NONE', *, *, #417, .F. ) ;
#406 = VECTOR ( 'NONE', #11, 1000.000000000000000 ) ;
#407 = AXIS2_PLACEMENT_3D ( 'NONE', #729, #556, #746 ) ;
#408 = ORIENTED_EDGE ( 'NONE', *, *, #306, .F. ) ;
#409 = CYLINDRICAL_SURFACE ( 'NONE', #456, 0.2500000000000002220 ) ;
#410 = FACE_OUTER_BOUND ( 'NONE', #854, .T. ) ;
#411 = VECTOR ( 'NONE', #173, 1000.000000000000000 ) ;
#412 = VERTEX_POINT ( 'NONE', #388 ) ;
#413 = VERTEX_POINT ( 'NONE', #970 ) ;
#414 = CARTESIAN_POINT ( 'NONE',  ( 0.000000000000000000, 0.000000000000000000, -18.00000000000000000 ) ) ;
#415 = FACE_OUTER_BOUND ( 'NONE', #560, .T. ) ;
#416 = ORIENTED_EDGE ( 'NONE', *, *, #264, .T. ) ;
#417 = EDGE_CURVE ( 'NONE', #276, #89, #629, .T. ) ;
#418 = ORIENTED_EDGE ( 'NONE', *, *, #921, .F. ) ;
#419 = COLOUR_RGB ( '',1.000000000000000000, 1.000000000000000000, 1.000000000000000000 ) ;
#420 = CARTESIAN_POINT ( 'NONE',  ( 6.769999999999997797, -3.000000000000000444, 0.000000000000000000 ) ) ;
#421 = LINE ( 'NONE', #265, #411 ) ;
#422 = LINE ( 'NONE', #758, #21 ) ;
#423 = ORIENTED_EDGE ( 'NONE', *, *, #584, .F. ) ;
#424 = ORIENTED_EDGE ( 'NONE', *, *, #754, .T. ) ;
#425 = DIRECTION ( 'NONE',  ( -1.000000000000000000, 0.000000000000000000, -0.000000000000000000 ) ) ;
#426 = CARTESIAN_POINT ( 'NONE',  ( 9.499999999999998224, 3.249999999999999556, -18.50000000000000000 ) ) ;
#427 = EDGE_CURVE ( 'NONE', #745, #809, #545, .T. ) ;
#428 = CARTESIAN_POINT ( 'NONE',  ( -9.500000000000001776, -3.249999999999999556, -18.50000000000000000 ) ) ;
#429 = DIRECTION ( 'NONE',  ( 1.000000000000000000, 0.000000000000000000, 0.000000000000000000 ) ) ;
#430 = DIRECTION ( 'NONE',  ( 0.000000000000000000, 1.000000000000000000, 0.000000000000000000 ) ) ;
#431 = EDGE_CURVE ( 'NONE', #771, #64, #373, .T. ) ;
#432 = CYLINDRICAL_SURFACE ( 'NONE', #526, 0.2500000000000000000 ) ;
#433 = CARTESIAN_POINT ( 'NONE',  ( -9.250000000000001776, 0.000000000000000000, 0.2500000000000000000 ) ) ;
#434 = ORIENTED_EDGE ( 'NONE', *, *, #775, .F. ) ;
#435 = ORIENTED_EDGE ( 'NONE', *, *, #417, .T. ) ;
#436 = CARTESIAN_POINT ( 'NONE',  ( 9.249999999999998224, -3.499999999999999556, 0.2500000000000000000 ) ) ;
#437 = LINE ( 'NONE', #22, #396 ) ;
#438 = CYLINDRICAL_SURFACE ( 'NONE', #192, 0.2500000000000000000 ) ;
#439 = ORIENTED_EDGE ( 'NONE', *, *, #340, .F. ) ;
#440 = ADVANCED_FACE ( 'NONE', ( #43 ), #53, .T. ) ;
#441 = SPHERICAL_SURFACE ( 'NONE', #607, 0.2500000000000000000 ) ;
#442 = PLANE ( 'NONE',  #592 ) ;
#443 = VECTOR ( 'NONE', #145, 1000.000000000000000 ) ;
#444 = EDGE_CURVE ( 'NONE', #683, #359, #297, .T. ) ;
#445 = CARTESIAN_POINT ( 'NONE',  ( -9.000000000000000000, -3.000000000000000444, 0.000000000000000000 ) ) ;
#446 = DIRECTION ( 'NONE',  ( -1.000000000000000000, -1.239088197126291063E-16, -0.000000000000000000 ) ) ;
#447 = AXIS2_PLACEMENT_3D ( 'NONE', #228, #991, #806 ) ;
#448 = EDGE_CURVE ( 'NONE', #745, #89, #367, .T. ) ;
#449 = CARTESIAN_POINT ( 'NONE',  ( -9.250000000000001776, 3.249999999999999556, 0.2500000000000000000 ) ) ;
#450 = DIRECTION ( 'NONE',  ( 1.000000000000000000, 1.239088197126291063E-16, 0.000000000000000000 ) ) ;
#451 = AXIS2_PLACEMENT_3D ( 'NONE', #449, #1039, #282 ) ;
#452 = CARTESIAN_POINT ( 'NONE',  ( -9.000000000000000000, -3.000000000000000444, -18.00000000000000000 ) ) ;
#453 = ORIENTED_EDGE ( 'NONE', *, *, #584, .T. ) ;
#454 = CARTESIAN_POINT ( 'NONE',  ( -6.770000000000002238, -3.249999999999999556, 0.2500000000000000000 ) ) ;
#455 = CIRCLE ( 'NONE', #967, 0.2500000000000002220 ) ;
#456 = AXIS2_PLACEMENT_3D ( 'NONE', #149, #826, #740 ) ;
#457 = PRODUCT_DEFINITION_SHAPE ( 'NONE', 'NONE',  #467 ) ;
#458 = ORIENTED_EDGE ( 'NONE', *, *, #1053, .F. ) ;
#459 =( NAMED_UNIT ( * ) PLANE_ANGLE_UNIT ( ) SI_UNIT ( $, .RADIAN. ) );
#460 = CARTESIAN_POINT ( 'NONE',  ( -9.250000000000001776, 3.249999999999999556, 0.2500000000000000000 ) ) ;
#461 = EDGE_CURVE ( 'NONE', #313, #359, #134, .T. ) ;
#462 = AXIS2_PLACEMENT_3D ( 'NONE', #857, #522, #698 ) ;
#463 = VERTEX_POINT ( 'NONE', #376 ) ;
#464 = DIRECTION ( 'NONE',  ( -1.000000000000000000, -0.000000000000000000, -0.000000000000000000 ) ) ;
#465 = DIRECTION ( 'NONE',  ( 0.000000000000000000, 0.000000000000000000, -1.000000000000000000 ) ) ;
#466 = ORIENTED_EDGE ( 'NONE', *, *, #209, .F. ) ;
#467 = PRODUCT_DEFINITION ( 'General', '', #1055, #248 ) ;
#468 = FACE_OUTER_BOUND ( 'NONE', #308, .T. ) ;
#469 = CARTESIAN_POINT ( 'NONE',  ( 6.769999999999996909, 3.500000000000000888, 0.000000000000000000 ) ) ;
#470 = LINE ( 'NONE', #971, #782 ) ;
#471 = ORIENTED_EDGE ( 'NONE', *, *, #154, .T. ) ;
#472 = ADVANCED_FACE ( 'NONE', ( #382 ), #641, .T. ) ;
#473 = ORIENTED_EDGE ( 'NONE', *, *, #761, .T. ) ;
#474 = CARTESIAN_POINT ( 'NONE',  ( -9.000000000000000000, -3.000000000000000444, 0.000000000000000000 ) ) ;
#475 = CARTESIAN_POINT ( 'NONE',  ( -9.250000000000001776, 3.499999999999999556, -18.25000000000000000 ) ) ;
#476 = ORIENTED_EDGE ( 'NONE', *, *, #531, .F. ) ;
#477 = AXIS2_PLACEMENT_3D ( 'NONE', #666, #569, #347 ) ;
#478 = ORIENTED_EDGE ( 'NONE', *, *, #667, .T. ) ;
#479 = CARTESIAN_POINT ( 'NONE',  ( 9.249999999999998224, -3.249999999999999556, -18.25000000000000000 ) ) ;
#480 = ORIENTED_EDGE ( 'NONE', *, *, #197, .F. ) ;
#481 = ORIENTED_EDGE ( 'NONE', *, *, #836, .F. ) ;
#482 = CARTESIAN_POINT ( 'NONE',  ( 0.000000000000000000, 0.000000000000000000, -18.50000000000000000 ) ) ;
#483 = DIRECTION ( 'NONE',  ( -1.000000000000000000, -0.000000000000000000, -0.000000000000000000 ) ) ;
#484 = ORIENTED_EDGE ( 'NONE', *, *, #628, .T. ) ;
#485 = ORIENTED_EDGE ( 'NONE', *, *, #448, .T. ) ;
#486 = FACE_OUTER_BOUND ( 'NONE', #599, .T. ) ;
#487 = VECTOR ( 'NONE', #499, 1000.000000000000000 ) ;
#488 = FACE_OUTER_BOUND ( 'NONE', #240, .T. ) ;
#489 = AXIS2_PLACEMENT_3D ( 'NONE', #712, #375, #316 ) ;
#490 = EDGE_CURVE ( 'NONE', #678, #883, #29, .T. ) ;
#491 = CARTESIAN_POINT ( 'NONE',  ( 0.000000000000000000, 0.000000000000000000, 0.5000000000000000000 ) ) ;
#492 = DIRECTION ( 'NONE',  ( 1.000000000000000000, 0.000000000000000000, 0.000000000000000000 ) ) ;
#493 = ADVANCED_FACE ( 'NONE', ( #793 ), #1050, .T. ) ;
#494 = ORIENTED_EDGE ( 'NONE', *, *, #431, .F. ) ;
#495 = VECTOR ( 'NONE', #330, 1000.000000000000000 ) ;
#496 = VERTEX_POINT ( 'NONE', #47 ) ;
#497 = DIRECTION ( 'NONE',  ( 1.239088197126291063E-16, -1.000000000000000000, 0.000000000000000000 ) ) ;
#498 = CARTESIAN_POINT ( 'NONE',  ( -6.770000000000003126, 3.500000000000000888, 0.000000000000000000 ) ) ;
#499 = DIRECTION ( 'NONE',  ( -1.000000000000000000, -0.000000000000000000, -0.000000000000000000 ) ) ;
#500 = ORIENTED_EDGE ( 'NONE', *, *, #1006, .T. ) ;
#501 = VERTEX_POINT ( 'NONE', #117 ) ;
#502 = VECTOR ( 'NONE', #790, 1000.000000000000000 ) ;
#503 = CARTESIAN_POINT ( 'NONE',  ( 9.249999999999998224, 0.000000000000000000, 0.5000000000000000000 ) ) ;
#504 = DIRECTION ( 'NONE',  ( -0.000000000000000000, 0.000000000000000000, -1.000000000000000000 ) ) ;
#505 = ORIENTED_EDGE ( 'NONE', *, *, #191, .T. ) ;
#506 = EDGE_CURVE ( 'NONE', #463, #1062, #233, .T. ) ;
#507 = AXIS2_PLACEMENT_3D ( 'NONE', #840, #762, #783 ) ;
#508 = DIRECTION ( 'NONE',  ( 1.000000000000000000, 0.000000000000000000, 0.000000000000000000 ) ) ;
#509 = CARTESIAN_POINT ( 'NONE',  ( 9.249999999999998224, 3.249999999999999556, -18.50000000000000000 ) ) ;
#510 = DIRECTION ( 'NONE',  ( 0.000000000000000000, -1.000000000000000000, 0.000000000000000000 ) ) ;
#511 = ORIENTED_EDGE ( 'NONE', *, *, #610, .F. ) ;
#512 = LINE ( 'NONE', #612, #84 ) ;
#513 = DIRECTION ( 'NONE',  ( -1.000000000000000000, 0.000000000000000000, 0.000000000000000000 ) ) ;
#514 = DIRECTION ( 'NONE',  ( 1.239088197126290817E-16, -1.000000000000000000, 0.000000000000000000 ) ) ;
#515 = VERTEX_POINT ( 'NONE', #805 ) ;
#516 = ADVANCED_FACE ( 'NONE', ( #307 ), #616, .T. ) ;
#517 = PLANE ( 'NONE',  #630 ) ;
#518 = PLANE ( 'NONE',  #148 ) ;
#519 = PLANE ( 'NONE',  #462 ) ;
#520 = CARTESIAN_POINT ( 'NONE',  ( 0.000000000000000000, 3.249999999999999556, 0.5000000000000000000 ) ) ;
#521 = DIRECTION ( 'NONE',  ( -0.000000000000000000, 1.000000000000000000, -0.000000000000000000 ) ) ;
#522 = DIRECTION ( 'NONE',  ( 0.000000000000000000, 0.000000000000000000, 1.000000000000000000 ) ) ;
#523 = EDGE_CURVE ( 'NONE', #1034, #401, #1081, .T. ) ;
#524 = EDGE_CURVE ( 'NONE', #313, #563, #38, .T. ) ;
#525 = CARTESIAN_POINT ( 'NONE',  ( 9.499999999999998224, 3.499999999999999556, -18.50000000000000000 ) ) ;
#526 = AXIS2_PLACEMENT_3D ( 'NONE', #819, #69, #827 ) ;
#527 = ORIENTED_EDGE ( 'NONE', *, *, #851, .T. ) ;
#528 = EDGE_CURVE ( 'NONE', #537, #809, #231, .T. ) ;
#529 = DIRECTION ( 'NONE',  ( -0.000000000000000000, 0.000000000000000000, -1.000000000000000000 ) ) ;
#530 = CARTESIAN_POINT ( 'NONE',  ( 9.249999999999998224, 3.499999999999999556, 0.2500000000000000000 ) ) ;
#531 = EDGE_CURVE ( 'NONE', #160, #912, #223, .T. ) ;
#532 = ORIENTED_EDGE ( 'NONE', *, *, #634, .T. ) ;
#533 = LINE ( 'NONE', #646, #221 ) ;
#534 = DIRECTION ( 'NONE',  ( 0.000000000000000000, -1.000000000000000000, 0.000000000000000000 ) ) ;
#535 = DIRECTION ( 'NONE',  ( 1.000000000000000000, 0.000000000000000000, 0.000000000000000000 ) ) ;
#536 = VECTOR ( 'NONE', #52, 1000.000000000000000 ) ;
#537 = VERTEX_POINT ( 'NONE', #530 ) ;
#538 = SHAPE_DEFINITION_REPRESENTATION ( #457, #189 ) ;
#539 = CARTESIAN_POINT ( 'NONE',  ( -9.500000000000001776, 3.249999999999999556, -18.25000000000000000 ) ) ;
#540 = EDGE_CURVE ( 'NONE', #1062, #937, #614, .T. ) ;
#541 = VECTOR ( 'NONE', #717, 1000.000000000000000 ) ;
#542 = CARTESIAN_POINT ( 'NONE',  ( 6.769999999999996909, 3.500000000000000888, 0.000000000000000000 ) ) ;
#543 = ORIENTED_EDGE ( 'NONE', *, *, #197, .T. ) ;
#544 = CARTESIAN_POINT ( 'NONE',  ( -6.770000000000003126, 3.500000000000000888, 0.000000000000000000 ) ) ;
#545 = LINE ( 'NONE', #32, #123 ) ;
#546 = EDGE_CURVE ( 'NONE', #412, #14, #294, .T. ) ;
#547 = PRESENTATION_LAYER_ASSIGNMENT (  '', '', ( #1038 ) ) ;
#548 = ORIENTED_EDGE ( 'NONE', *, *, #705, .F. ) ;
#549 = ORIENTED_EDGE ( 'NONE', *, *, #46, .F. ) ;
#550 = DIRECTION ( 'NONE',  ( -1.000000000000000000, -0.000000000000000000, -0.000000000000000000 ) ) ;
#551 = DIRECTION ( 'NONE',  ( -1.000000000000000000, 0.000000000000000000, -0.000000000000000000 ) ) ;
#552 = DIRECTION ( 'NONE',  ( 0.000000000000000000, 1.000000000000000000, 0.000000000000000000 ) ) ;
#553 = ORIENTED_EDGE ( 'NONE', *, *, #506, .F. ) ;
#554 = ORIENTED_EDGE ( 'NONE', *, *, #802, .F. ) ;
#555 = DIRECTION ( 'NONE',  ( 0.000000000000000000, 0.000000000000000000, 1.000000000000000000 ) ) ;
#556 = DIRECTION ( 'NONE',  ( 1.000000000000000000, 0.000000000000000000, 0.000000000000000000 ) ) ;
#557 = DIRECTION ( 'NONE',  ( 0.000000000000000000, 1.000000000000000000, 0.000000000000000000 ) ) ;
#558 = ORIENTED_EDGE ( 'NONE', *, *, #546, .T. ) ;
#559 = AXIS2_PLACEMENT_3D ( 'NONE', #414, #757, #83 ) ;
#560 = EDGE_LOOP ( 'NONE', ( #188, #1014, #439, #242 ) ) ;
#561 = CARTESIAN_POINT ( 'NONE',  ( 6.769999999999997797, -3.249999999999999556, 0.2500000000000000000 ) ) ;
#562 = DIRECTION ( 'NONE',  ( -1.000000000000000000, 0.000000000000000000, 0.000000000000000000 ) ) ;
#563 = VERTEX_POINT ( 'NONE', #1042 ) ;
#564 = DIRECTION ( 'NONE',  ( -0.000000000000000000, 1.000000000000000000, -0.000000000000000000 ) ) ;
#565 = ORIENTED_EDGE ( 'NONE', *, *, #880, .F. ) ;
#566 = ADVANCED_FACE ( 'NONE', ( #289 ), #441, .T. ) ;
#567 = LINE ( 'NONE', #990, #1070 ) ;
#568 = ADVANCED_FACE ( 'NONE', ( #964 ), #1022, .T. ) ;
#569 = DIRECTION ( 'NONE',  ( 0.000000000000000000, 1.000000000000000000, 0.000000000000000000 ) ) ;
#570 = CARTESIAN_POINT ( 'NONE',  ( -9.250000000000001776, -3.249999999999999556, -18.25000000000000000 ) ) ;
#571 = VERTEX_POINT ( 'NONE', #445 ) ;
#572 = VERTEX_POINT ( 'NONE', #287 ) ;
#573 = DIRECTION ( 'NONE',  ( 1.000000000000000000, 1.239088197126291063E-16, 0.000000000000000000 ) ) ;
#574 = CIRCLE ( 'NONE', #110, 0.2500000000000000000 ) ;
#575 = CARTESIAN_POINT ( 'NONE',  ( -9.000000000000000000, -3.000000000000000444, -18.00000000000000000 ) ) ;
#576 = AXIS2_PLACEMENT_3D ( 'NONE', #300, #398, #890 ) ;
#577 = DIRECTION ( 'NONE',  ( 0.000000000000000000, 0.000000000000000000, 1.000000000000000000 ) ) ;
#578 = DIRECTION ( 'NONE',  ( 0.000000000000000000, 0.000000000000000000, 1.000000000000000000 ) ) ;
#579 = EDGE_LOOP ( 'NONE', ( #730, #391, #532, #267 ) ) ;
#580 = CIRCLE ( 'NONE', #243, 0.2500000000000002220 ) ;
#581 = ORIENTED_EDGE ( 'NONE', *, *, #353, .T. ) ;
#582 = DIRECTION ( 'NONE',  ( 0.000000000000000000, -1.000000000000000000, 0.000000000000000000 ) ) ;
#583 = LINE ( 'NONE', #498, #825 ) ;
#584 = EDGE_CURVE ( 'NONE', #176, #141, #1035, .T. ) ;
#585 = CARTESIAN_POINT ( 'NONE',  ( -6.770000000000003126, 3.500000000000000888, 0.000000000000000000 ) ) ;
#586 = ORIENTED_EDGE ( 'NONE', *, *, #528, .F. ) ;
#587 = AXIS2_PLACEMENT_3D ( 'NONE', #1052, #635, #977 ) ;
#588 =( LENGTH_UNIT ( ) NAMED_UNIT ( * ) SI_UNIT ( .MILLI., .METRE. ) );
#589 = DIRECTION ( 'NONE',  ( 1.000000000000000000, -0.000000000000000000, -0.000000000000000000 ) ) ;
#590 = CYLINDRICAL_SURFACE ( 'NONE', #989, 0.2500000000000000000 ) ;
#591 = ORIENTED_EDGE ( 'NONE', *, *, #864, .F. ) ;
#592 = AXIS2_PLACEMENT_3D ( 'NONE', #351, #838, #363 ) ;
#593 = CARTESIAN_POINT ( 'NONE',  ( -9.000000000000000000, 2.999999999999999556, -18.00000000000000000 ) ) ;
#594 = ORIENTED_EDGE ( 'NONE', *, *, #506, .T. ) ;
#595 = CYLINDRICAL_SURFACE ( 'NONE', #792, 0.2500000000000000000 ) ;
#596 = CARTESIAN_POINT ( 'NONE',  ( -6.770000000000003126, 2.999999999999999556, 0.000000000000000000 ) ) ;
#597 = AXIS2_PLACEMENT_3D ( 'NONE', #491, #828, #76 ) ;
#598 = LINE ( 'NONE', #187, #820 ) ;
#599 = EDGE_LOOP ( 'NONE', ( #992, #236, #343, #56 ) ) ;
#600 =( NAMED_UNIT ( * ) SI_UNIT ( $, .STERADIAN. ) SOLID_ANGLE_UNIT ( ) );
#601 = LINE ( 'NONE', #201, #186 ) ;
#602 = LINE ( 'NONE', #952, #1012 ) ;
#603 = ADVANCED_FACE ( 'NONE', ( #700 ), #26, .T. ) ;
#604 = ORIENTED_EDGE ( 'NONE', *, *, #711, .T. ) ;
#605 = AXIS2_PLACEMENT_3D ( 'NONE', #627, #874, #393 ) ;
#606 = DIRECTION ( 'NONE',  ( 0.000000000000000000, 0.000000000000000000, -1.000000000000000000 ) ) ;
#607 = AXIS2_PLACEMENT_3D ( 'NONE', #350, #950, #606 ) ;
#608 = EDGE_CURVE ( 'NONE', #830, #413, #865, .T. ) ;
#609 = CARTESIAN_POINT ( 'NONE',  ( -9.250000000000001776, -3.249999999999999556, -18.50000000000000000 ) ) ;
#610 = EDGE_CURVE ( 'NONE', #71, #374, #512, .T. ) ;
#611 = CARTESIAN_POINT ( 'NONE',  ( 9.249999999999998224, 3.249999999999999556, 0.2500000000000000000 ) ) ;
#612 = CARTESIAN_POINT ( 'NONE',  ( 0.000000000000000000, 3.249999999999999556, 0.5000000000000000000 ) ) ;
#613 = EDGE_CURVE ( 'NONE', #496, #374, #362, .T. ) ;
#614 = LINE ( 'NONE', #542, #1065 ) ;
#615 = ORIENTED_EDGE ( 'NONE', *, *, #955, .F. ) ;
#616 = CYLINDRICAL_SURFACE ( 'NONE', #587, 0.2500000000000000000 ) ;
#617 = VECTOR ( 'NONE', #113, 1000.000000000000000 ) ;
#618 = FACE_OUTER_BOUND ( 'NONE', #703, .T. ) ;
#619 = EDGE_CURVE ( 'NONE', #912, #571, #104, .T. ) ;
#620 = VERTEX_POINT ( 'NONE', #849 ) ;
#621 = FACE_OUTER_BOUND ( 'NONE', #986, .T. ) ;
#622 = CARTESIAN_POINT ( 'NONE',  ( 9.249999999999998224, -3.249999999999999556, 0.2500000000000000000 ) ) ;
#623 = DIRECTION ( 'NONE',  ( -1.000000000000000000, 0.000000000000000000, -0.000000000000000000 ) ) ;
#624 = CARTESIAN_POINT ( 'NONE',  ( -9.500000000000001776, 3.249999999999999556, -18.50000000000000000 ) ) ;
#625 = ORIENTED_EDGE ( 'NONE', *, *, #461, .T. ) ;
#626 = CARTESIAN_POINT ( 'NONE',  ( -9.500000000000001776, 3.499999999999999556, 0.2500000000000002220 ) ) ;
#627 = CARTESIAN_POINT ( 'NONE',  ( 0.000000000000000000, -3.249999999999999556, 0.2500000000000000000 ) ) ;
#628 = EDGE_CURVE ( 'NONE', #344, #830, #752, .T. ) ;
#629 = CIRCLE ( 'NONE', #162, 0.2500000000000002220 ) ;
#630 = AXIS2_PLACEMENT_3D ( 'NONE', #1029, #31, #684 ) ;
#631 = AXIS2_PLACEMENT_3D ( 'NONE', #663, #159, #1003 ) ;
#632 = ORIENTED_EDGE ( 'NONE', *, *, #199, .F. ) ;
#633 = DIRECTION ( 'NONE',  ( 1.000000000000000000, -0.000000000000000000, -0.000000000000000000 ) ) ;
#634 = EDGE_CURVE ( 'NONE', #1068, #210, #115, .T. ) ;
#635 = DIRECTION ( 'NONE',  ( -1.000000000000000000, 0.000000000000000000, 0.000000000000000000 ) ) ;
#636 = MANIFOLD_SOLID_BREP ( 'Fillet1', #866 ) ;
#637 = CARTESIAN_POINT ( 'NONE',  ( 9.000000000000000000, 2.999999999999999556, -18.00000000000000000 ) ) ;
#638 = AXIS2_PLACEMENT_3D ( 'NONE', #637, #535, #995 ) ;
#639 = ORIENTED_EDGE ( 'NONE', *, *, #705, .T. ) ;
#640 = ORIENTED_EDGE ( 'NONE', *, *, #845, .F. ) ;
#641 = PLANE ( 'NONE',  #699 ) ;
#642 = ADVANCED_FACE ( 'NONE', ( #767 ), #517, .T. ) ;
#643 = AXIS2_PLACEMENT_3D ( 'NONE', #226, #886, #139 ) ;
#644 = EDGE_LOOP ( 'NONE', ( #4, #98, #893, #153 ) ) ;
#645 = ORIENTED_EDGE ( 'NONE', *, *, #955, .T. ) ;
#646 = CARTESIAN_POINT ( 'NONE',  ( -6.770000000000003126, 3.500000000000000888, 0.000000000000000000 ) ) ;
#647 = DIRECTION ( 'NONE',  ( 0.000000000000000000, -0.000000000000000000, 1.000000000000000000 ) ) ;
#648 = FACE_OUTER_BOUND ( 'NONE', #644, .T. ) ;
#649 = VECTOR ( 'NONE', #508, 1000.000000000000000 ) ;
#650 = CYLINDRICAL_SURFACE ( 'NONE', #913, 0.2500000000000002220 ) ;
#651 = ORIENTED_EDGE ( 'NONE', *, *, #383, .F. ) ;
#652 = ORIENTED_EDGE ( 'NONE', *, *, #88, .T. ) ;
#653 = ADVANCED_FACE ( 'NONE', ( #691 ), #661, .T. ) ;
#654 = CARTESIAN_POINT ( 'NONE',  ( 6.769999999999996909, 3.500000000000000888, 0.000000000000000000 ) ) ;
#655 = ORIENTED_EDGE ( 'NONE', *, *, #634, .F. ) ;
#656 = VECTOR ( 'NONE', #298, 1000.000000000000000 ) ;
#657 = EDGE_CURVE ( 'NONE', #141, #563, #671, .T. ) ;
#658 = ORIENTED_EDGE ( 'NONE', *, *, #427, .T. ) ;
#659 = PLANE ( 'NONE',  #322 ) ;
#660 = CARTESIAN_POINT ( 'NONE',  ( -9.000000000000000000, 2.999999999999999556, -18.00000000000000000 ) ) ;
#661 = SPHERICAL_SURFACE ( 'NONE', #258, 0.2500000000000000000 ) ;
#662 = ORIENTED_EDGE ( 'NONE', *, *, #286, .T. ) ;
#663 = CARTESIAN_POINT ( 'NONE',  ( -9.500000000000001776, -3.249999999999999556, -18.25000000000000000 ) ) ;
#664 = ORIENTED_EDGE ( 'NONE', *, *, #1015, .F. ) ;
#665 = DIRECTION ( 'NONE',  ( -1.239088197126290817E-16, 1.000000000000000000, -0.000000000000000000 ) ) ;
#666 = CARTESIAN_POINT ( 'NONE',  ( -9.250000000000001776, 3.499999999999999556, -18.25000000000000000 ) ) ;
#667 = EDGE_CURVE ( 'NONE', #401, #620, #325, .T. ) ;
#668 = LINE ( 'NONE', #342, #823 ) ;
#669 = ORIENTED_EDGE ( 'NONE', *, *, #608, .T. ) ;
#670 = ORIENTED_EDGE ( 'NONE', *, *, #949, .F. ) ;
#671 = CIRCLE ( 'NONE', #165, 0.2500000000000002220 ) ;
#672 = EDGE_CURVE ( 'NONE', #515, #572, #1009, .T. ) ;
#673 = DIRECTION ( 'NONE',  ( -0.000000000000000000, -0.000000000000000000, 1.000000000000000000 ) ) ;
#674 = FACE_OUTER_BOUND ( 'NONE', #999, .T. ) ;
#675 = DIRECTION ( 'NONE',  ( 0.000000000000000000, 1.000000000000000000, 0.000000000000000000 ) ) ;
#676 = LINE ( 'NONE', #765, #114 ) ;
#677 = AXIS2_PLACEMENT_3D ( 'NONE', #611, #371, #207 ) ;
#678 = VERTEX_POINT ( 'NONE', #1071 ) ;
#679 = DIRECTION ( 'NONE',  ( -1.000000000000000000, 0.000000000000000000, 0.000000000000000000 ) ) ;
#680 = LINE ( 'NONE', #90, #274 ) ;
#681 = CARTESIAN_POINT ( 'NONE',  ( -6.770000000000003126, -3.000000000000000444, 0.000000000000000000 ) ) ;
#682 = DIRECTION ( 'NONE',  ( 0.000000000000000000, -0.000000000000000000, 1.000000000000000000 ) ) ;
#683 = VERTEX_POINT ( 'NONE', #475 ) ;
#684 = DIRECTION ( 'NONE',  ( 1.000000000000000000, 0.000000000000000000, 0.000000000000000000 ) ) ;
#685 = DIRECTION ( 'NONE',  ( 0.000000000000000000, 0.000000000000000000, 1.000000000000000000 ) ) ;
#686 = FACE_OUTER_BOUND ( 'NONE', #579, .T. ) ;
#687 = CARTESIAN_POINT ( 'NONE',  ( -6.770000000000003126, 3.249999999999999556, 0.5000000000000000000 ) ) ;
#688 = ORIENTED_EDGE ( 'NONE', *, *, #174, .F. ) ;
#689 = VECTOR ( 'NONE', #97, 1000.000000000000000 ) ;
#690 = CIRCLE ( 'NONE', #68, 0.2500000000000002220 ) ;
#691 = FACE_OUTER_BOUND ( 'NONE', #65, .T. ) ;
#692 = LINE ( 'NONE', #112, #649 ) ;
#693 =( GEOMETRIC_REPRESENTATION_CONTEXT ( 3 ) GLOBAL_UNCERTAINTY_ASSIGNED_CONTEXT ( ( #183 ) ) GLOBAL_UNIT_ASSIGNED_CONTEXT ( ( #386, #459, #796 ) ) REPRESENTATION_CONTEXT ( 'NONE', 'WORKASPACE' ) );
#694 = VERTEX_POINT ( 'NONE', #253 ) ;
#695 = EDGE_CURVE ( 'NONE', #176, #501, #972, .T. ) ;
#696 = SURFACE_SIDE_STYLE ('',( #943 ) ) ;
#697 = DIRECTION ( 'NONE',  ( -1.000000000000000000, 0.000000000000000000, 0.000000000000000000 ) ) ;
#698 = DIRECTION ( 'NONE',  ( 1.000000000000000000, 0.000000000000000000, -0.000000000000000000 ) ) ;
#699 = AXIS2_PLACEMENT_3D ( 'NONE', #869, #958, #1044 ) ;
#700 = FACE_OUTER_BOUND ( 'NONE', #255, .T. ) ;
#701 = VECTOR ( 'NONE', #772, 1000.000000000000000 ) ;
#702 = FACE_OUTER_BOUND ( 'NONE', #904, .T. ) ;
#703 = EDGE_LOOP ( 'NONE', ( #837, #158, #655, #1049 ) ) ;
#704 = DIRECTION ( 'NONE',  ( 1.000000000000000000, 0.000000000000000000, -0.000000000000000000 ) ) ;
#705 = EDGE_CURVE ( 'NONE', #572, #883, #997, .T. ) ;
#706 = ORIENTED_EDGE ( 'NONE', *, *, #33, .T. ) ;
#707 = CARTESIAN_POINT ( 'NONE',  ( 0.000000000000000000, 0.000000000000000000, 0.000000000000000000 ) ) ;
#708 = LINE ( 'NONE', #789, #302 ) ;
#709 = AXIS2_PLACEMENT_3D ( 'NONE', #835, #429, #3 ) ;
#710 = ORIENTED_EDGE ( 'NONE', *, *, #798, .F. ) ;
#711 = EDGE_CURVE ( 'NONE', #830, #620, #1076, .T. ) ;
#712 = CARTESIAN_POINT ( 'NONE',  ( 9.249999999999998224, -3.249999999999999556, 0.2500000000000000000 ) ) ;
#713 = CARTESIAN_POINT ( 'NONE',  ( -9.250000000000001776, 3.499999999999999556, -18.50000000000000000 ) ) ;
#714 = DIRECTION ( 'NONE',  ( 1.000000000000000000, 0.000000000000000000, 0.000000000000000000 ) ) ;
#715 = ORIENTED_EDGE ( 'NONE', *, *, #949, .T. ) ;
#716 = DIRECTION ( 'NONE',  ( 0.000000000000000000, 0.000000000000000000, 1.000000000000000000 ) ) ;
#717 = DIRECTION ( 'NONE',  ( -1.239088197126290817E-16, 1.000000000000000000, -0.000000000000000000 ) ) ;
#718 = DIRECTION ( 'NONE',  ( -0.000000000000000000, -0.000000000000000000, -1.000000000000000000 ) ) ;
#719 = EDGE_LOOP ( 'NONE', ( #527, #831, #466, #320 ) ) ;
#720 = VECTOR ( 'NONE', #354, 1000.000000000000000 ) ;
#721 = EDGE_CURVE ( 'NONE', #776, #1034, #55, .T. ) ;
#722 = ORIENTED_EDGE ( 'NONE', *, *, #1005, .T. ) ;
#723 = CARTESIAN_POINT ( 'NONE',  ( -6.770000000000003126, 3.500000000000000888, 0.000000000000000000 ) ) ;
#724 = DIRECTION ( 'NONE',  ( 1.000000000000000000, 0.000000000000000000, 0.000000000000000000 ) ) ;
#725 = VECTOR ( 'NONE', #763, 1000.000000000000000 ) ;
#726 = ORIENTED_EDGE ( 'NONE', *, *, #288, .F. ) ;
#727 = ORIENTED_EDGE ( 'NONE', *, *, #524, .T. ) ;
#728 = SPHERICAL_SURFACE ( 'NONE', #576, 0.2500000000000000000 ) ;
#729 = CARTESIAN_POINT ( 'NONE',  ( -9.250000000000001776, -3.249999999999999556, -18.25000000000000000 ) ) ;
#730 = ORIENTED_EDGE ( 'NONE', *, *, #787, .T. ) ;
#731 = EDGE_CURVE ( 'NONE', #537, #71, #360, .T. ) ;
#732 = ORIENTED_EDGE ( 'NONE', *, *, #431, .T. ) ;
#733 = ADVANCED_FACE ( 'NONE', ( #157 ), #650, .T. ) ;
#734 = AXIS2_PLACEMENT_3D ( 'NONE', #951, #283, #685 ) ;
#735 = CIRCLE ( 'NONE', #910, 0.2500000000000002220 ) ;
#736 = DIRECTION ( 'NONE',  ( 1.000000000000000000, 0.000000000000000000, -0.000000000000000000 ) ) ;
#737 = ORIENTED_EDGE ( 'NONE', *, *, #27, .T. ) ;
#738 = ORIENTED_EDGE ( 'NONE', *, *, #1006, .F. ) ;
#739 = VECTOR ( 'NONE', #633, 1000.000000000000000 ) ;
#740 = DIRECTION ( 'NONE',  ( 0.000000000000000000, 0.000000000000000000, -1.000000000000000000 ) ) ;
#741 = CARTESIAN_POINT ( 'NONE',  ( -6.770000000000003126, 3.500000000000000888, 0.000000000000000000 ) ) ;
#742 = DIRECTION ( 'NONE',  ( 1.000000000000000000, 0.000000000000000000, 0.000000000000000000 ) ) ;
#743 = ORIENTED_EDGE ( 'NONE', *, *, #1053, .T. ) ;
#744 = DIRECTION ( 'NONE',  ( 0.000000000000000000, 0.000000000000000000, -1.000000000000000000 ) ) ;
#745 = VERTEX_POINT ( 'NONE', #751 ) ;
#746 = DIRECTION ( 'NONE',  ( 0.000000000000000000, 0.000000000000000000, -1.000000000000000000 ) ) ;
#747 = EDGE_CURVE ( 'NONE', #1004, #61, #668, .T. ) ;
#748 = AXIS2_PLACEMENT_3D ( 'NONE', #460, #529, #724 ) ;
#749 = CARTESIAN_POINT ( 'NONE',  ( -9.500000000000001776, -3.499999999999999556, -18.25000000000000000 ) ) ;
#750 = DIRECTION ( 'NONE',  ( 1.239088197126290817E-16, -1.000000000000000000, 0.000000000000000000 ) ) ;
#751 = CARTESIAN_POINT ( 'NONE',  ( 9.499999999999998224, 3.249999999999999556, -18.25000000000000000 ) ) ;
#752 = CIRCLE ( 'NONE', #285, 0.2500000000000002220 ) ;
#753 = EDGE_LOOP ( 'NONE', ( #558, #715, #933, #182, #639, #899, #310, #549 ) ) ;
#754 = EDGE_CURVE ( 'NONE', #61, #463, #920, .T. ) ;
#755 = ORIENTED_EDGE ( 'NONE', *, *, #610, .T. ) ;
#756 = CARTESIAN_POINT ( 'NONE',  ( -9.500000000000001776, 3.249999999999999556, 0.2500000000000000000 ) ) ;
#757 = DIRECTION ( 'NONE',  ( -0.000000000000000000, 0.000000000000000000, 1.000000000000000000 ) ) ;
#758 = CARTESIAN_POINT ( 'NONE',  ( -9.250000000000001776, 0.000000000000000000, 0.5000000000000000000 ) ) ;
#759 = ORIENTED_EDGE ( 'NONE', *, *, #775, .T. ) ;
#760 = ORIENTED_EDGE ( 'NONE', *, *, #278, .F. ) ;
#761 = EDGE_CURVE ( 'NONE', #413, #401, #422, .T. ) ;
#762 = DIRECTION ( 'NONE',  ( -0.000000000000000000, 1.000000000000000000, -0.000000000000000000 ) ) ;
#763 = DIRECTION ( 'NONE',  ( 1.000000000000000000, 0.000000000000000000, 0.000000000000000000 ) ) ;
#764 = DIRECTION ( 'NONE',  ( 0.000000000000000000, 0.000000000000000000, 1.000000000000000000 ) ) ;
#765 = CARTESIAN_POINT ( 'NONE',  ( -9.000000000000000000, -3.000000000000000444, 0.000000000000000000 ) ) ;
#766 = AXIS2_PLACEMENT_3D ( 'NONE', #741, #844, #497 ) ;
#767 = FACE_OUTER_BOUND ( 'NONE', #803, .T. ) ;
#768 = DIRECTION ( 'NONE',  ( 0.000000000000000000, 0.000000000000000000, -1.000000000000000000 ) ) ;
#769 = CARTESIAN_POINT ( 'NONE',  ( 9.000000000000000000, 2.999999999999999556, -18.00000000000000000 ) ) ;
#770 = DIRECTION ( 'NONE',  ( 1.000000000000000000, 0.000000000000000000, 0.000000000000000000 ) ) ;
#771 = VERTEX_POINT ( 'NONE', #266 ) ;
#772 = DIRECTION ( 'NONE',  ( 0.000000000000000000, -1.000000000000000000, 0.000000000000000000 ) ) ;
#773 = DIRECTION ( 'NONE',  ( 1.000000000000000000, 0.000000000000000000, -0.000000000000000000 ) ) ;
#774 = CARTESIAN_POINT ( 'NONE',  ( 0.000000000000000000, -3.249999999999999556, 0.5000000000000000000 ) ) ;
#775 = EDGE_CURVE ( 'NONE', #313, #413, #574, .T. ) ;
#776 = VERTEX_POINT ( 'NONE', #270 ) ;
#777 = AXIS2_PLACEMENT_3D ( 'NONE', #161, #573, #334 ) ;
#778 = AXIS2_PLACEMENT_3D ( 'NONE', #479, #1067, #816 ) ;
#779 = DIRECTION ( 'NONE',  ( 0.000000000000000000, 0.000000000000000000, 1.000000000000000000 ) ) ;
#780 = AXIS2_PLACEMENT_3D ( 'NONE', #988, #555, #238 ) ;
#781 = CARTESIAN_POINT ( 'NONE',  ( -9.250000000000001776, 3.499999999999999556, -18.50000000000000000 ) ) ;
#782 = VECTOR ( 'NONE', #222, 1000.000000000000000 ) ;
#783 = DIRECTION ( 'NONE',  ( 0.000000000000000000, 0.000000000000000000, -1.000000000000000000 ) ) ;
#784 = PLANE ( 'NONE',  #24 ) ;
#785 = AXIS2_PLACEMENT_3D ( 'NONE', #120, #704, #984 ) ;
#786 = DIRECTION ( 'NONE',  ( 0.000000000000000000, -1.000000000000000000, 0.000000000000000000 ) ) ;
#787 = EDGE_CURVE ( 'NONE', #299, #62, #1013, .T. ) ;
#788 = VECTOR ( 'NONE', #1016, 1000.000000000000000 ) ;
#789 = CARTESIAN_POINT ( 'NONE',  ( -9.500000000000001776, 3.499999999999999556, -18.25000000000000000 ) ) ;
#790 = DIRECTION ( 'NONE',  ( -0.000000000000000000, -0.000000000000000000, -1.000000000000000000 ) ) ;
#791 = ORIENTED_EDGE ( 'NONE', *, *, #721, .F. ) ;
#792 = AXIS2_PLACEMENT_3D ( 'NONE', #99, #773, #768 ) ;
#793 = FACE_OUTER_BOUND ( 'NONE', #914, .T. ) ;
#794 = CARTESIAN_POINT ( 'NONE',  ( -9.000000000000000000, 2.999999999999999556, -18.00000000000000000 ) ) ;
#795 = ORIENTED_EDGE ( 'NONE', *, *, #731, .F. ) ;
#796 =( NAMED_UNIT ( * ) SI_UNIT ( $, .STERADIAN. ) SOLID_ANGLE_UNIT ( ) );
#797 = DIRECTION ( 'NONE',  ( 1.000000000000000000, 0.000000000000000000, 0.000000000000000000 ) ) ;
#798 = EDGE_CURVE ( 'NONE', #501, #1034, #181, .T. ) ;
#799 = ORIENTED_EDGE ( 'NONE', *, *, #672, .T. ) ;
#800 = LINE ( 'NONE', #723, #1030 ) ;
#801 = CARTESIAN_POINT ( 'NONE',  ( 9.249999999999998224, 3.249999999999999556, -18.25000000000000000 ) ) ;
#802 = EDGE_CURVE ( 'NONE', #776, #170, #598, .T. ) ;
#803 = EDGE_LOOP ( 'NONE', ( #42, #998, #732, #402 ) ) ;
#804 = ORIENTED_EDGE ( 'NONE', *, *, #82, .F. ) ;
#805 = CARTESIAN_POINT ( 'NONE',  ( 9.499999999999998224, -3.249999999999999556, -18.25000000000000000 ) ) ;
#806 = DIRECTION ( 'NONE',  ( -1.000000000000000000, 0.000000000000000000, 0.000000000000000000 ) ) ;
#807 = ORIENTED_EDGE ( 'NONE', *, *, #50, .F. ) ;
#808 = AXIS2_PLACEMENT_3D ( 'NONE', #570, #552, #892 ) ;
#809 = VERTEX_POINT ( 'NONE', #193 ) ;
#810 = ADVANCED_FACE ( 'NONE', ( #348 ), #590, .T. ) ;
#811 = VECTOR ( 'NONE', #978, 1000.000000000000000 ) ;
#812 = DIRECTION ( 'NONE',  ( 0.000000000000000000, 0.000000000000000000, -1.000000000000000000 ) ) ;
#813 = ORIENTED_EDGE ( 'NONE', *, *, #490, .F. ) ;
#814 = ORIENTED_EDGE ( 'NONE', *, *, #657, .T. ) ;
#815 = ADVANCED_FACE ( 'NONE', ( #9 ), #13, .T. ) ;
#816 = DIRECTION ( 'NONE',  ( -1.000000000000000000, 0.000000000000000000, 0.000000000000000000 ) ) ;
#817 = ORIENTED_EDGE ( 'NONE', *, *, #318, .T. ) ;
#818 = ORIENTED_EDGE ( 'NONE', *, *, #731, .T. ) ;
#819 = CARTESIAN_POINT ( 'NONE',  ( 0.000000000000000000, 3.249999999999999556, 0.2500000000000000000 ) ) ;
#820 = VECTOR ( 'NONE', #92, 1000.000000000000000 ) ;
#821 = AXIS2_PLACEMENT_3D ( 'NONE', #454, #450, #534 ) ;
#822 = ORIENTED_EDGE ( 'NONE', *, *, #761, .F. ) ;
#823 = VECTOR ( 'NONE', #63, 1000.000000000000000 ) ;
#824 = EDGE_LOOP ( 'NONE', ( #727, #737, #1008, #941 ) ) ;
#825 = VECTOR ( 'NONE', #750, 1000.000000000000000 ) ;
#826 = DIRECTION ( 'NONE',  ( 0.000000000000000000, -1.000000000000000000, 0.000000000000000000 ) ) ;
#827 = DIRECTION ( 'NONE',  ( 0.000000000000000000, 0.000000000000000000, 1.000000000000000000 ) ) ;
#828 = DIRECTION ( 'NONE',  ( 0.000000000000000000, 0.000000000000000000, 1.000000000000000000 ) ) ;
#829 = AXIS2_PLACEMENT_3D ( 'NONE', #106, #1037, #1066 ) ;
#830 = VERTEX_POINT ( 'NONE', #687 ) ;
#831 = ORIENTED_EDGE ( 'NONE', *, *, #353, .F. ) ;
#832 = LINE ( 'NONE', #654, #872 ) ;
#833 = LINE ( 'NONE', #503, #1045 ) ;
#834 = MECHANICAL_DESIGN_GEOMETRIC_PRESENTATION_REPRESENTATION (  '', ( #1038 ), #392 ) ;
#835 = CARTESIAN_POINT ( 'NONE',  ( 9.249999999999998224, -3.249999999999999556, -18.25000000000000000 ) ) ;
#836 = EDGE_CURVE ( 'NONE', #73, #412, #1025, .T. ) ;
#837 = ORIENTED_EDGE ( 'NONE', *, *, #619, .T. ) ;
#838 = DIRECTION ( 'NONE',  ( 0.000000000000000000, -1.000000000000000000, 0.000000000000000000 ) ) ;
#839 = LINE ( 'NONE', #341, #725 ) ;
#840 = CARTESIAN_POINT ( 'NONE',  ( 9.249999999999998224, -3.249999999999999556, 0.2500000000000000000 ) ) ;
#841 = EDGE_LOOP ( 'NONE', ( #137, #485, #405 ) ) ;
#842 = UNCERTAINTY_MEASURE_WITH_UNIT (LENGTH_MEASURE( 1.000000000000000082E-05 ), #588, 'distance_accuracy_value', 'NONE');
#843 = DIRECTION ( 'NONE',  ( -1.000000000000000000, 0.000000000000000000, 0.000000000000000000 ) ) ;
#844 = DIRECTION ( 'NONE',  ( -1.000000000000000000, -1.239088197126291063E-16, 0.000000000000000000 ) ) ;
#845 = EDGE_CURVE ( 'NONE', #537, #276, #853, .T. ) ;
#846 = CARTESIAN_POINT ( 'NONE',  ( -9.250000000000001776, 3.249999999999999556, 0.2500000000000000000 ) ) ;
#847 = EDGE_LOOP ( 'NONE', ( #254, #511, #795, #290 ) ) ;
#848 = AXIS2_PLACEMENT_3D ( 'NONE', #863, #1041, #23 ) ;
#849 = CARTESIAN_POINT ( 'NONE',  ( -6.770000000000002238, -3.250000000000000000, 0.5000000000000000000 ) ) ;
#850 = DIRECTION ( 'NONE',  ( 1.000000000000000000, 0.000000000000000000, -0.000000000000000000 ) ) ;
#851 = EDGE_CURVE ( 'NONE', #678, #694, #1026, .T. ) ;
#852 = LINE ( 'NONE', #774, #656 ) ;
#853 = LINE ( 'NONE', #926, #932 ) ;
#854 = EDGE_LOOP ( 'NONE', ( #424, #993, #326, #565, #167, #147 ) ) ;
#855 = SURFACE_STYLE_USAGE ( .BOTH. , #696 ) ;
#856 = LINE ( 'NONE', #28, #34 ) ;
#857 = CARTESIAN_POINT ( 'NONE',  ( 0.000000000000000000, 0.000000000000000000, 0.000000000000000000 ) ) ;
#858 = EDGE_CURVE ( 'NONE', #62, #61, #856, .T. ) ;
#859 = CARTESIAN_POINT ( 'NONE',  ( 6.769999999999996909, 3.500000000000000888, 0.5000000000000000000 ) ) ;
#860 = DIRECTION ( 'NONE',  ( 0.000000000000000000, 0.000000000000000000, -1.000000000000000000 ) ) ;
#861 = CARTESIAN_POINT ( 'NONE',  ( -9.250000000000001776, -3.499999999999999556, -18.25000000000000000 ) ) ;
#862 = AXIS2_PLACEMENT_3D ( 'NONE', #911, #77, #812 ) ;
#863 = CARTESIAN_POINT ( 'NONE',  ( -9.250000000000001776, -3.249999999999999556, 0.2500000000000000000 ) ) ;
#864 = EDGE_CURVE ( 'NONE', #210, #299, #692, .T. ) ;
#865 = LINE ( 'NONE', #520, #314 ) ;
#866 = CLOSED_SHELL ( 'NONE', ( #1019, #603, #917, #169, #237, #369, #965, #642, #338, #108, #472, #1032, #39, #118, #204, #140, #256, #241, #440, #881, #1048, #227, #953, #229, #116, #516, #810, #733, #985, #566, #653, #568, #303, #378, #815, #365, #70, #1040, #929, #493 ) ) ;
#867 = CARTESIAN_POINT ( 'NONE',  ( -6.770000000000002238, -3.499999999999999112, 0.000000000000000000 ) ) ;
#868 = ORIENTED_EDGE ( 'NONE', *, *, #672, .F. ) ;
#869 = CARTESIAN_POINT ( 'NONE',  ( 0.000000000000000000, 0.000000000000000000, 0.000000000000000000 ) ) ;
#870 = DIRECTION ( 'NONE',  ( 0.000000000000000000, 0.000000000000000000, 1.000000000000000000 ) ) ;
#871 = ORIENTED_EDGE ( 'NONE', *, *, #318, .F. ) ;
#872 = VECTOR ( 'NONE', #665, 1000.000000000000000 ) ;
#873 = LINE ( 'NONE', #126, #973 ) ;
#874 = DIRECTION ( 'NONE',  ( 1.000000000000000000, 0.000000000000000000, -0.000000000000000000 ) ) ;
#875 = CARTESIAN_POINT ( 'NONE',  ( 9.499999999999998224, -3.249999999999999556, -18.50000000000000000 ) ) ;
#876 = CIRCLE ( 'NONE', #168, 0.2500000000000002220 ) ;
#877 = ORIENTED_EDGE ( 'NONE', *, *, #461, .F. ) ;
#878 = DIRECTION ( 'NONE',  ( 1.000000000000000000, 0.000000000000000000, -0.000000000000000000 ) ) ;
#879 = DIRECTION ( 'NONE',  ( 1.000000000000000000, -0.000000000000000000, 0.000000000000000000 ) ) ;
#880 = EDGE_CURVE ( 'NONE', #1068, #912, #601, .T. ) ;
#881 = ADVANCED_FACE ( 'NONE', ( #196 ), #595, .T. ) ;
#882 = DIRECTION ( 'NONE',  ( -0.000000000000000000, -0.000000000000000000, 1.000000000000000000 ) ) ;
#883 = VERTEX_POINT ( 'NONE', #436 ) ;
#884 = CARTESIAN_POINT ( 'NONE',  ( -9.500000000000001776, -3.249999999999999556, 0.2500000000000000000 ) ) ;
#885 = VECTOR ( 'NONE', #786, 1000.000000000000000 ) ;
#886 = DIRECTION ( 'NONE',  ( -0.000000000000000000, 1.000000000000000000, -0.000000000000000000 ) ) ;
#887 = EDGE_LOOP ( 'NONE', ( #323, #471, #49, #453 ) ) ;
#888 = ORIENTED_EDGE ( 'NONE', *, *, #383, .T. ) ;
#889 = EDGE_CURVE ( 'NONE', #170, #572, #346, .T. ) ;
#890 = DIRECTION ( 'NONE',  ( 0.000000000000000000, 0.000000000000000000, -1.000000000000000000 ) ) ;
#891 = FACE_OUTER_BOUND ( 'NONE', #213, .T. ) ;
#892 = DIRECTION ( 'NONE',  ( 0.000000000000000000, 0.000000000000000000, -1.000000000000000000 ) ) ;
#893 = ORIENTED_EDGE ( 'NONE', *, *, #787, .F. ) ;
#894 = EDGE_CURVE ( 'NONE', #374, #937, #455, .T. ) ;
#895 = ORIENTED_EDGE ( 'NONE', *, *, #150, .F. ) ;
#896 = LINE ( 'NONE', #305, #536 ) ;
#897 = DIRECTION ( 'NONE',  ( 1.000000000000000000, 0.000000000000000000, 0.000000000000000000 ) ) ;
#898 = AXIS2_PLACEMENT_3D ( 'NONE', #75, #1007, #105 ) ;
#899 = ORIENTED_EDGE ( 'NONE', *, *, #82, .T. ) ;
#900 = ORIENTED_EDGE ( 'NONE', *, *, #57, .F. ) ;
#901 = FACE_OUTER_BOUND ( 'NONE', #1010, .T. ) ;
#902 = LINE ( 'NONE', #749, #976 ) ;
#903 = CARTESIAN_POINT ( 'NONE',  ( -9.250000000000001776, -3.249999999999999556, -18.50000000000000000 ) ) ;
#904 = EDGE_LOOP ( 'NONE', ( #814, #543, #807 ) ) ;
#905 = CARTESIAN_POINT ( 'NONE',  ( 9.000000000000000000, -3.000000000000000444, 0.000000000000000000 ) ) ;
#906 = EDGE_LOOP ( 'NONE', ( #473, #478, #966, #669 ) ) ;
#907 = CYLINDRICAL_SURFACE ( 'NONE', #358, 0.2500000000000002220 ) ;
#908 = CARTESIAN_POINT ( 'NONE',  ( 6.769999999999997797, -3.499999999999999112, 0.2500000000000000000 ) ) ;
#909 = PLANE ( 'NONE',  #597 ) ;
#910 = AXIS2_PLACEMENT_3D ( 'NONE', #561, #74, #1074 ) ;
#911 = CARTESIAN_POINT ( 'NONE',  ( 9.249999999999998224, 3.249999999999999556, 0.2500000000000000000 ) ) ;
#912 = VERTEX_POINT ( 'NONE', #16 ) ;
#913 = AXIS2_PLACEMENT_3D ( 'NONE', #903, #166, #492 ) ;
#914 = EDGE_LOOP ( 'NONE', ( #435, #900, #247, #651 ) ) ;
#915 = CARTESIAN_POINT ( 'NONE',  ( -9.250000000000001776, -3.249999999999999556, -18.25000000000000000 ) ) ;
#916 = CARTESIAN_POINT ( 'NONE',  ( -9.500000000000001776, 3.499999999999999556, 0.2500000000000002220 ) ) ;
#917 = ADVANCED_FACE ( 'NONE', ( #1023 ), #442, .T. ) ;
#918 = DIRECTION ( 'NONE',  ( 1.000000000000000000, 0.000000000000000000, 0.000000000000000000 ) ) ;
#919 = CIRCLE ( 'NONE', #829, 0.2500000000000000000 ) ;
#920 = LINE ( 'NONE', #175, #487 ) ;
#921 = EDGE_CURVE ( 'NONE', #276, #745, #122, .T. ) ;
#922 = ORIENTED_EDGE ( 'NONE', *, *, #394, .F. ) ;
#923 = ORIENTED_EDGE ( 'NONE', *, *, #6, .T. ) ;
#924 = CARTESIAN_POINT ( 'NONE',  ( -9.250000000000001776, 3.249999999999999556, -18.25000000000000000 ) ) ;
#925 = FACE_OUTER_BOUND ( 'NONE', #906, .T. ) ;
#926 = CARTESIAN_POINT ( 'NONE',  ( 9.249999999999998224, 3.499999999999999556, -18.50000000000000000 ) ) ;
#927 = VECTOR ( 'NONE', #35, 1000.000000000000000 ) ;
#928 = ORIENTED_EDGE ( 'NONE', *, *, #1059, .F. ) ;
#929 = ADVANCED_FACE ( 'NONE', ( #702 ), #178, .T. ) ;
#930 = DIRECTION ( 'NONE',  ( 1.000000000000000000, -0.000000000000000000, -0.000000000000000000 ) ) ;
#931 = DIRECTION ( 'NONE',  ( 0.000000000000000000, 1.000000000000000000, -0.000000000000000000 ) ) ;
#932 = VECTOR ( 'NONE', #504, 1000.000000000000000 ) ;
#933 = ORIENTED_EDGE ( 'NONE', *, *, #802, .T. ) ;
#934 = AXIS2_PLACEMENT_3D ( 'NONE', #622, #133, #797 ) ;
#935 = EDGE_CURVE ( 'NONE', #304, #176, #680, .T. ) ;
#936 = DIRECTION ( 'NONE',  ( -1.000000000000000000, 0.000000000000000000, 0.000000000000000000 ) ) ;
#937 = VERTEX_POINT ( 'NONE', #5 ) ;
#938 = CARTESIAN_POINT ( 'NONE',  ( 6.769999999999996909, 3.249999999999999556, 0.2500000000000000000 ) ) ;
#939 = CARTESIAN_POINT ( 'NONE',  ( -9.250000000000001776, 3.249999999999999556, -18.25000000000000000 ) ) ;
#940 = DIRECTION ( 'NONE',  ( 0.000000000000000000, 0.000000000000000000, -1.000000000000000000 ) ) ;
#941 = ORIENTED_EDGE ( 'NONE', *, *, #174, .T. ) ;
#942 = CIRCLE ( 'NONE', #677, 0.2500000000000000000 ) ;
#943 = SURFACE_STYLE_FILL_AREA ( #94 ) ;
#944 = DIRECTION ( 'NONE',  ( -0.000000000000000000, -0.000000000000000000, 1.000000000000000000 ) ) ;
#945 = DIRECTION ( 'NONE',  ( -0.000000000000000000, -1.000000000000000000, 0.000000000000000000 ) ) ;
#946 = VECTOR ( 'NONE', #962, 1000.000000000000000 ) ;
#947 = DIRECTION ( 'NONE',  ( 0.000000000000000000, -0.000000000000000000, 1.000000000000000000 ) ) ;
#948 = ORIENTED_EDGE ( 'NONE', *, *, #264, .F. ) ;
#949 = EDGE_CURVE ( 'NONE', #14, #776, #1017, .T. ) ;
#950 = DIRECTION ( 'NONE',  ( 1.000000000000000000, 0.000000000000000000, 0.000000000000000000 ) ) ;
#951 = CARTESIAN_POINT ( 'NONE',  ( -9.250000000000001776, 3.249999999999999556, -18.25000000000000000 ) ) ;
#952 = CARTESIAN_POINT ( 'NONE',  ( 9.249999999999998224, -3.499999999999999556, -18.50000000000000000 ) ) ;
#953 = ADVANCED_FACE ( 'NONE', ( #674 ), #164, .T. ) ;
#954 = DIRECTION ( 'NONE',  ( -1.239088197126290817E-16, 1.000000000000000000, -0.000000000000000000 ) ) ;
#955 = EDGE_CURVE ( 'NONE', #1083, #344, #421, .T. ) ;
#956 = CIRCLE ( 'NONE', #709, 0.2500000000000002220 ) ;
#957 = EDGE_LOOP ( 'NONE', ( #1002, #372, #706, #755 ) ) ;
#958 = DIRECTION ( 'NONE',  ( -0.000000000000000000, 0.000000000000000000, 1.000000000000000000 ) ) ;
#959 = EDGE_LOOP ( 'NONE', ( #1043, #327, #418, #640 ) ) ;
#960 = PRODUCT_CONTEXT ( 'NONE', #387, 'mechanical' ) ;
#961 = EDGE_CURVE ( 'NONE', #160, #73, #583, .T. ) ;
#962 = DIRECTION ( 'NONE',  ( 0.000000000000000000, -0.000000000000000000, 1.000000000000000000 ) ) ;
#963 = SPHERICAL_SURFACE ( 'NONE', #848, 0.2500000000000000000 ) ;
#964 = FACE_OUTER_BOUND ( 'NONE', #103, .T. ) ;
#965 = ADVANCED_FACE ( 'NONE', ( #925 ), #909, .T. ) ;
#966 = ORIENTED_EDGE ( 'NONE', *, *, #711, .F. ) ;
#967 = AXIS2_PLACEMENT_3D ( 'NONE', #938, #446, #430 ) ;
#968 = VECTOR ( 'NONE', #215, 1000.000000000000000 ) ;
#969 = LINE ( 'NONE', #626, #739 ) ;
#970 = CARTESIAN_POINT ( 'NONE',  ( -9.250000000000001776, 3.249999999999999556, 0.5000000000000000000 ) ) ;
#971 = CARTESIAN_POINT ( 'NONE',  ( 9.499999999999998224, 3.499999999999999556, -18.25000000000000000 ) ) ;
#972 = CIRCLE ( 'NONE', #808, 0.2500000000000002220 ) ;
#973 = VECTOR ( 'NONE', #550, 1000.000000000000000 ) ;
#974 = ORIENTED_EDGE ( 'NONE', *, *, #27, .F. ) ;
#975 = DIRECTION ( 'NONE',  ( 1.239088197126290817E-16, -1.000000000000000000, 0.000000000000000000 ) ) ;
#976 = VECTOR ( 'NONE', #582, 1000.000000000000000 ) ;
#977 = DIRECTION ( 'NONE',  ( 0.000000000000000000, 0.000000000000000000, 1.000000000000000000 ) ) ;
#978 = DIRECTION ( 'NONE',  ( 1.000000000000000000, 0.000000000000000000, 0.000000000000000000 ) ) ;
#979 = ORIENTED_EDGE ( 'NONE', *, *, #667, .F. ) ;
#980 = PRODUCT_RELATED_PRODUCT_CATEGORY ( 'part', '', ( #44 ) ) ;
#981 = ORIENTED_EDGE ( 'NONE', *, *, #523, .T. ) ;
#982 = PLANE ( 'NONE',  #128 ) ;
#983 = AXIS2_PLACEMENT_3D ( 'NONE', #525, #20, #200 ) ;
#984 = DIRECTION ( 'NONE',  ( 0.000000000000000000, 0.000000000000000000, -1.000000000000000000 ) ) ;
#985 = ADVANCED_FACE ( 'NONE', ( #415 ), #72, .T. ) ;
#986 = EDGE_LOOP ( 'NONE', ( #948, #271, #45, #119 ) ) ;
#987 = ORIENTED_EDGE ( 'NONE', *, *, #25, .T. ) ;
#988 = CARTESIAN_POINT ( 'NONE',  ( 0.000000000000000000, 0.000000000000000000, 0.5000000000000000000 ) ) ;
#989 = AXIS2_PLACEMENT_3D ( 'NONE', #433, #275, #940 ) ;
#990 = CARTESIAN_POINT ( 'NONE',  ( 9.499999999999998224, 3.499999999999999556, 0.2500000000000002220 ) ) ;
#991 = DIRECTION ( 'NONE',  ( -0.000000000000000000, -0.000000000000000000, -1.000000000000000000 ) ) ;
#992 = ORIENTED_EDGE ( 'NONE', *, *, #1001, .T. ) ;
#993 = ORIENTED_EDGE ( 'NONE', *, *, #1015, .T. ) ;
#994 = FACE_OUTER_BOUND ( 'NONE', #1063, .T. ) ;
#995 = DIRECTION ( 'NONE',  ( 0.000000000000000000, 0.000000000000000000, -1.000000000000000000 ) ) ;
#996 = CIRCLE ( 'NONE', #1058, 0.2500000000000002220 ) ;
#997 = LINE ( 'NONE', #86, #1054 ) ;
#998 = ORIENTED_EDGE ( 'NONE', *, *, #46, .T. ) ;
#999 = EDGE_LOOP ( 'NONE', ( #93, #548, #868, #760 ) ) ;
#1000 = DIRECTION ( 'NONE',  ( -0.000000000000000000, 1.000000000000000000, 0.000000000000000000 ) ) ;
#1001 = EDGE_CURVE ( 'NONE', #515, #304, #876, .T. ) ;
#1002 = ORIENTED_EDGE ( 'NONE', *, *, #613, .F. ) ;
#1003 = DIRECTION ( 'NONE',  ( 0.000000000000000000, 0.000000000000000000, 1.000000000000000000 ) ) ;
#1004 = VERTEX_POINT ( 'NONE', #905 ) ;
#1005 = EDGE_CURVE ( 'NONE', #73, #64, #279, .T. ) ;
#1006 = EDGE_CURVE ( 'NONE', #1062, #1083, #533, .T. ) ;
#1007 = DIRECTION ( 'NONE',  ( 0.000000000000000000, -1.000000000000000000, 0.000000000000000000 ) ) ;
#1008 = ORIENTED_EDGE ( 'NONE', *, *, #798, .T. ) ;
#1009 = CIRCLE ( 'NONE', #778, 0.2500000000000002220 ) ;
#1010 = EDGE_LOOP ( 'NONE', ( #625, #36, #480, #250 ) ) ;
#1011 = LINE ( 'NONE', #916, #262 ) ;
#1012 = VECTOR ( 'NONE', #945, 1000.000000000000000 ) ;
#1013 = LINE ( 'NONE', #1020, #720 ) ;
#1014 = ORIENTED_EDGE ( 'NONE', *, *, #889, .F. ) ;
#1015 = EDGE_CURVE ( 'NONE', #463, #160, #873, .T. ) ;
#1016 = DIRECTION ( 'NONE',  ( -0.000000000000000000, 1.000000000000000000, -0.000000000000000000 ) ) ;
#1017 = LINE ( 'NONE', #268, #406 ) ;
#1018 = LINE ( 'NONE', #1085, #8 ) ;
#1019 = ADVANCED_FACE ( 'NONE', ( #225 ), #143, .T. ) ;
#1020 = CARTESIAN_POINT ( 'NONE',  ( 9.000000000000000000, 2.999999999999999556, -18.00000000000000000 ) ) ;
#1021 = DIRECTION ( 'NONE',  ( 1.000000000000000000, 0.000000000000000000, 0.000000000000000000 ) ) ;
#1022 = SPHERICAL_SURFACE ( 'NONE', #451, 0.2500000000000000000 ) ;
#1023 = FACE_OUTER_BOUND ( 'NONE', #753, .T. ) ;
#1024 = CARTESIAN_POINT ( 'NONE',  ( -9.250000000000001776, 3.249999999999999556, -18.50000000000000000 ) ) ;
#1025 = LINE ( 'NONE', #585, #357 ) ;
#1026 = CIRCLE ( 'NONE', #507, 0.2500000000000000000 ) ;
#1027 = ORIENTED_EDGE ( 'NONE', *, *, #25, .F. ) ;
#1028 = CIRCLE ( 'NONE', #821, 0.2500000000000002220 ) ;
#1029 = CARTESIAN_POINT ( 'NONE',  ( 0.000000000000000000, 0.000000000000000000, 0.000000000000000000 ) ) ;
#1030 = VECTOR ( 'NONE', #975, 1000.000000000000000 ) ;
#1031 = DIRECTION ( 'NONE',  ( -0.000000000000000000, -0.000000000000000000, 1.000000000000000000 ) ) ;
#1032 = ADVANCED_FACE ( 'NONE', ( #621 ), #982, .F. ) ;
#1033 = DIRECTION ( 'NONE',  ( -0.000000000000000000, 0.000000000000000000, 1.000000000000000000 ) ) ;
#1034 = VERTEX_POINT ( 'NONE', #884 ) ;
#1035 = LINE ( 'NONE', #781, #788 ) ;
#1036 = DIRECTION ( 'NONE',  ( 0.000000000000000000, 0.000000000000000000, 1.000000000000000000 ) ) ;
#1037 = DIRECTION ( 'NONE',  ( -1.000000000000000000, 0.000000000000000000, 0.000000000000000000 ) ) ;
#1038 = STYLED_ITEM ( 'NONE', ( #368 ), #636 ) ;
#1039 = DIRECTION ( 'NONE',  ( 0.000000000000000000, 1.000000000000000000, 0.000000000000000000 ) ) ;
#1040 = ADVANCED_FACE ( 'NONE', ( #138 ), #728, .T. ) ;
#1041 = DIRECTION ( 'NONE',  ( 0.000000000000000000, 1.000000000000000000, 0.000000000000000000 ) ) ;
#1042 = CARTESIAN_POINT ( 'NONE',  ( -9.500000000000001776, 3.249999999999999556, -18.25000000000000000 ) ) ;
#1043 = ORIENTED_EDGE ( 'NONE', *, *, #528, .T. ) ;
#1044 = DIRECTION ( 'NONE',  ( 1.000000000000000000, 0.000000000000000000, 0.000000000000000000 ) ) ;
#1045 = VECTOR ( 'NONE', #257, 1000.000000000000000 ) ;
#1046 = EDGE_LOOP ( 'NONE', ( #791, #987, #397 ) ) ;
#1047 = DIRECTION ( 'NONE',  ( 0.000000000000000000, -0.000000000000000000, 1.000000000000000000 ) ) ;
#1048 = ADVANCED_FACE ( 'NONE', ( #468 ), #311, .T. ) ;
#1049 = ORIENTED_EDGE ( 'NONE', *, *, #880, .T. ) ;
#1050 = CYLINDRICAL_SURFACE ( 'NONE', #131, 0.2500000000000002220 ) ;
#1051 = EDGE_LOOP ( 'NONE', ( #390, #974, #194, #423 ) ) ;
#1052 = CARTESIAN_POINT ( 'NONE',  ( 0.000000000000000000, 3.249999999999999556, 0.2500000000000000000 ) ) ;
#1053 = EDGE_CURVE ( 'NONE', #359, #344, #969, .T. ) ;
#1054 = VECTOR ( 'NONE', #578, 1000.000000000000000 ) ;
#1055 = PRODUCT_DEFINITION_FORMATION_WITH_SPECIFIED_SOURCE ( 'Symmetric', '', #44, .NOT_KNOWN. ) ;
#1056 = ORIENTED_EDGE ( 'NONE', *, *, #546, .F. ) ;
#1057 = ORIENTED_EDGE ( 'NONE', *, *, #628, .F. ) ;
#1058 = AXIS2_PLACEMENT_3D ( 'NONE', #924, #930, #352 ) ;
#1059 = EDGE_CURVE ( 'NONE', #1083, #160, #800, .T. ) ;
#1060 = DIRECTION ( 'NONE',  ( -1.000000000000000000, 0.000000000000000000, -0.000000000000000000 ) ) ;
#1061 = CARTESIAN_POINT ( 'NONE',  ( 9.249999999999998224, 3.499999999999999556, -18.25000000000000000 ) ) ;
#1062 = VERTEX_POINT ( 'NONE', #132 ) ;
#1063 = EDGE_LOOP ( 'NONE', ( #505, #817, #177, #87, #380, #553, #408, #494 ) ) ;
#1064 = DIRECTION ( 'NONE',  ( 1.000000000000000000, 0.000000000000000000, 0.000000000000000000 ) ) ;
#1065 = VECTOR ( 'NONE', #882, 1000.000000000000000 ) ;
#1066 = DIRECTION ( 'NONE',  ( 0.000000000000000000, 0.000000000000000000, 1.000000000000000000 ) ) ;
#1067 = DIRECTION ( 'NONE',  ( 0.000000000000000000, 0.000000000000000000, -1.000000000000000000 ) ) ;
#1068 = VERTEX_POINT ( 'NONE', #214 ) ;
#1069 = ORIENTED_EDGE ( 'NONE', *, *, #107, .T. ) ;
#1070 = VECTOR ( 'NONE', #403, 1000.000000000000000 ) ;
#1071 = CARTESIAN_POINT ( 'NONE',  ( 9.249999999999998224, -3.249999999999999556, 0.5000000000000000000 ) ) ;
#1072 = ORIENTED_EDGE ( 'NONE', *, *, #340, .T. ) ;
#1073 = ORIENTED_EDGE ( 'NONE', *, *, #444, .T. ) ;
#1074 = DIRECTION ( 'NONE',  ( 0.000000000000000000, 1.000000000000000000, 0.000000000000000000 ) ) ;
#1075 = PLANE ( 'NONE',  #96 ) ;
#1076 = LINE ( 'NONE', #404, #443 ) ;
#1077 = ORIENTED_EDGE ( 'NONE', *, *, #961, .F. ) ;
#1078 = ORIENTED_EDGE ( 'NONE', *, *, #278, .T. ) ;
#1079 = EDGE_CURVE ( 'NONE', #62, #1068, #896, .T. ) ;
#1080 = PLANE ( 'NONE',  #766 ) ;
#1081 = CIRCLE ( 'NONE', #643, 0.2500000000000000000 ) ;
#1082 = ORIENTED_EDGE ( 'NONE', *, *, #252, .F. ) ;
#1083 = VERTEX_POINT ( 'NONE', #544 ) ;
#1084 = CARTESIAN_POINT ( 'NONE',  ( -9.250000000000001776, 3.499999999999999556, 0.2500000000000000000 ) ) ;
#1085 = CARTESIAN_POINT ( 'NONE',  ( -9.500000000000001776, -3.499999999999999556, 0.2500000000000002220 ) ) ;
ENDSEC;
END-ISO-10303-21;
