ISO-10303-21;
HEADER;
FILE_DESCRIPTION (( 'STEP AP214' ),
    '1' );
FILE_NAME ('SiPM lens 2x1.STEP',
    '2026-01-09T11:17:35',
    ( '' ),
    ( '' ),
    'SwSTEP 2.0',
    'SolidWorks 2024',
    '' );
FILE_SCHEMA (( 'AUTOMOTIVE_DESIGN' ));
ENDSEC;

DATA;
#1 = CARTESIAN_POINT ( 'NONE',  ( -6.769999999999998685, 0.7500000000000000000, -3.270000000000000018 ) ) ;
#2 = DIRECTION ( 'NONE',  ( 0.000000000000000000, -0.000000000000000000, 1.000000000000000000 ) ) ;
#3 = VECTOR ( 'NONE', #262, 1000.000000000000000 ) ;
#4 = LINE ( 'NONE', #331, #253 ) ;
#5 = ORIENTED_EDGE ( 'NONE', *, *, #43, .F. ) ;
#6 = DIRECTION ( 'NONE',  ( -0.000000000000000000, 1.000000000000000000, -0.000000000000000000 ) ) ;
#7 = ORIENTED_EDGE ( 'NONE', *, *, #125, .F. ) ;
#8 = VECTOR ( 'NONE', #40, 1000.000000000000000 ) ;
#9 = EDGE_LOOP ( 'NONE', ( #154, #327, #216, #102 ) ) ;
#10 = EDGE_CURVE ( 'NONE', #356, #329, #231, .T. ) ;
#11 = VECTOR ( 'NONE', #386, 1000.000000000000000 ) ;
#12 = EDGE_CURVE ( 'NONE', #405, #336, #117, .T. ) ;
#13 = EDGE_LOOP ( 'NONE', ( #115, #219, #180, #250 ) ) ;
#14 = ORIENTED_EDGE ( 'NONE', *, *, #291, .F. ) ;
#15 = CARTESIAN_POINT ( 'NONE',  ( 0.4300000000000014366, 0.1750000000000000167, -3.069999999999999840 ) ) ;
#16 = VECTOR ( 'NONE', #467, 1000.000000000000000 ) ;
#17 = ORIENTED_EDGE ( 'NONE', *, *, #221, .F. ) ;
#18 = CARTESIAN_POINT ( 'NONE',  ( 0.000000000000000000, 0.000000000000000000, 0.000000000000000000 ) ) ;
#19 =( NAMED_UNIT ( * ) SI_UNIT ( $, .STERADIAN. ) SOLID_ANGLE_UNIT ( ) );
#20 = ORIENTED_EDGE ( 'NONE', *, *, #158, .T. ) ;
#21 = DIRECTION ( 'NONE',  ( 1.236061108696829207E-16, 0.000000000000000000, 1.000000000000000000 ) ) ;
#22 = EDGE_CURVE ( 'NONE', #226, #286, #124, .T. ) ;
#23 = CARTESIAN_POINT ( 'NONE',  ( 0.4300000000000022138, 0.7500000000000000000, 3.070000000000000284 ) ) ;
#24 = FACE_OUTER_BOUND ( 'NONE', #152, .T. ) ;
#25 = CARTESIAN_POINT ( 'NONE',  ( -6.569999999999999396, 0.7500000000000000000, 3.070000000000000284 ) ) ;
#26 = ORIENTED_EDGE ( 'NONE', *, *, #396, .F. ) ;
#27 = EDGE_CURVE ( 'NONE', #335, #283, #260, .T. ) ;
#28 =( NAMED_UNIT ( * ) PLANE_ANGLE_UNIT ( ) SI_UNIT ( $, .RADIAN. ) );
#29 = CARTESIAN_POINT ( 'NONE',  ( -6.769999999999997797, 0.7500000000000000000, 3.270000000000000018 ) ) ;
#30 = CARTESIAN_POINT ( 'NONE',  ( 0.4300000000000014366, 0.7500000000000000000, -3.069999999999999840 ) ) ;
#31 = CARTESIAN_POINT ( 'NONE',  ( -6.769999999999998685, 0.7500000000000000000, -3.270000000000000018 ) ) ;
#32 = ORIENTED_EDGE ( 'NONE', *, *, #307, .T. ) ;
#33 = DIRECTION ( 'NONE',  ( 1.000000000000000000, 0.000000000000000000, -1.236061108696829207E-16 ) ) ;
#34 = CARTESIAN_POINT ( 'NONE',  ( 0.000000000000000000, 0.1750000000000000167, 0.000000000000000000 ) ) ;
#35 = ORIENTED_EDGE ( 'NONE', *, *, #298, .F. ) ;
#36 = DIRECTION ( 'NONE',  ( 1.000000000000000000, 0.000000000000000000, -1.326241189584715037E-16 ) ) ;
#37 = EDGE_CURVE ( 'NONE', #336, #368, #302, .T. ) ;
#38 = ORIENTED_EDGE ( 'NONE', *, *, #54, .F. ) ;
#39 =( GEOMETRIC_REPRESENTATION_CONTEXT ( 3 ) GLOBAL_UNCERTAINTY_ASSIGNED_CONTEXT ( ( #345 ) ) GLOBAL_UNIT_ASSIGNED_CONTEXT ( ( #277, #28, #19 ) ) REPRESENTATION_CONTEXT ( 'NONE', 'WORKASPACE' ) );
#40 = DIRECTION ( 'NONE',  ( 1.326241189584715037E-16, 0.000000000000000000, 1.000000000000000000 ) ) ;
#41 = ORIENTED_EDGE ( 'NONE', *, *, #118, .T. ) ;
#42 = ORIENTED_EDGE ( 'NONE', *, *, #125, .T. ) ;
#43 = EDGE_CURVE ( 'NONE', #185, #405, #451, .T. ) ;
#44 = APPLICATION_CONTEXT ( 'automotive_design' ) ;
#45 = EDGE_CURVE ( 'NONE', #217, #214, #377, .T. ) ;
#46 = ORIENTED_EDGE ( 'NONE', *, *, #37, .F. ) ;
#47 = AXIS2_PLACEMENT_3D ( 'NONE', #225, #304, #121 ) ;
#48 = ORIENTED_EDGE ( 'NONE', *, *, #240, .T. ) ;
#49 = ORIENTED_EDGE ( 'NONE', *, *, #232, .F. ) ;
#50 = FACE_OUTER_BOUND ( 'NONE', #9, .T. ) ;
#51 = PLANE ( 'NONE',  #105 ) ;
#52 = EDGE_LOOP ( 'NONE', ( #259, #76, #49, #254 ) ) ;
#53 = LINE ( 'NONE', #343, #164 ) ;
#54 = EDGE_CURVE ( 'NONE', #368, #185, #53, .T. ) ;
#55 = PLANE ( 'NONE',  #123 ) ;
#56 = ORIENTED_EDGE ( 'NONE', *, *, #276, .F. ) ;
#57 = CARTESIAN_POINT ( 'NONE',  ( -6.769999999999998685, 0.7500000000000000000, -3.270000000000000018 ) ) ;
#58 = CARTESIAN_POINT ( 'NONE',  ( -6.569999999999999396, 0.7500000000000000000, -3.069999999999999396 ) ) ;
#59 = AXIS2_PLACEMENT_3D ( 'NONE', #279, #244, #468 ) ;
#60 = DIRECTION ( 'NONE',  ( 0.000000000000000000, 0.000000000000000000, -1.000000000000000000 ) ) ;
#61 = DIRECTION ( 'NONE',  ( 1.000000000000000000, 0.000000000000000000, 0.000000000000000000 ) ) ;
#62 = ORIENTED_EDGE ( 'NONE', *, *, #104, .F. ) ;
#63 = SHAPE_DEFINITION_REPRESENTATION ( #389, #268 ) ;
#64 = DIRECTION ( 'NONE',  ( -0.000000000000000000, 1.000000000000000000, -0.000000000000000000 ) ) ;
#65 = FACE_OUTER_BOUND ( 'NONE', #375, .T. ) ;
#66 = SURFACE_STYLE_USAGE ( .BOTH. , #314 ) ;
#67 = DIRECTION ( 'NONE',  ( -0.000000000000000000, 0.000000000000000000, 1.000000000000000000 ) ) ;
#68 = ORIENTED_EDGE ( 'NONE', *, *, #27, .T. ) ;
#69 = VECTOR ( 'NONE', #417, 1000.000000000000000 ) ;
#70 = APPLICATION_PROTOCOL_DEFINITION ( 'draft international standard', 'automotive_design', 1998, #424 ) ;
#71 = DIRECTION ( 'NONE',  ( -0.000000000000000000, 1.000000000000000000, -0.000000000000000000 ) ) ;
#72 = CARTESIAN_POINT ( 'NONE',  ( -0.4299999999999999378, 0.7500000000000000000, -3.069999999999999396 ) ) ;
#73 = VERTEX_POINT ( 'NONE', #415 ) ;
#74 = ADVANCED_FACE ( 'NONE', ( #452 ), #127, .T. ) ;
#75 = DIRECTION ( 'NONE',  ( 1.000000000000000000, 0.000000000000000000, 0.000000000000000000 ) ) ;
#76 = ORIENTED_EDGE ( 'NONE', *, *, #10, .F. ) ;
#77 = CARTESIAN_POINT ( 'NONE',  ( 6.770000000000000462, 0.000000000000000000, -3.270000000000000018 ) ) ;
#78 = ORIENTED_EDGE ( 'NONE', *, *, #186, .T. ) ;
#79 = VECTOR ( 'NONE', #342, 1000.000000000000000 ) ;
#80 = ADVANCED_FACE ( 'NONE', ( #162 ), #88, .F. ) ;
#81 = VERTEX_POINT ( 'NONE', #120 ) ;
#82 = EDGE_LOOP ( 'NONE', ( #447, #7, #206, #372 ) ) ;
#83 = EDGE_LOOP ( 'NONE', ( #91, #203, #410, #113 ) ) ;
#84 = VECTOR ( 'NONE', #161, 1000.000000000000000 ) ;
#85 = DIRECTION ( 'NONE',  ( 1.000000000000000000, 0.000000000000000000, 0.000000000000000000 ) ) ;
#86 = CARTESIAN_POINT ( 'NONE',  ( 0.000000000000000000, 0.1750000000000000167, 0.000000000000000000 ) ) ;
#87 = CARTESIAN_POINT ( 'NONE',  ( -0.4299999999999999378, 0.7500000000000000000, -3.069999999999999396 ) ) ;
#88 = PLANE ( 'NONE',  #47 ) ;
#89 = ADVANCED_FACE ( 'NONE', ( #50 ), #189, .F. ) ;
#90 = LINE ( 'NONE', #126, #84 ) ;
#91 = ORIENTED_EDGE ( 'NONE', *, *, #43, .T. ) ;
#92 = DIRECTION ( 'NONE',  ( 0.000000000000000000, 0.000000000000000000, 1.000000000000000000 ) ) ;
#93 = PLANE ( 'NONE',  #309 ) ;
#94 = CARTESIAN_POINT ( 'NONE',  ( 0.4300000000000014366, 0.1750000000000000167, -3.069999999999999840 ) ) ;
#95 = CARTESIAN_POINT ( 'NONE',  ( -6.569999999999999396, 0.7500000000000000000, -3.069999999999999396 ) ) ;
#96 = VECTOR ( 'NONE', #85, 1000.000000000000000 ) ;
#97 = ORIENTED_EDGE ( 'NONE', *, *, #324, .T. ) ;
#98 = PRESENTATION_STYLE_ASSIGNMENT (( #66 ) ) ;
#99 = CARTESIAN_POINT ( 'NONE',  ( -6.769999999999998685, 0.000000000000000000, -3.270000000000000018 ) ) ;
#100 = ORIENTED_EDGE ( 'NONE', *, *, #122, .T. ) ;
#101 = DIRECTION ( 'NONE',  ( 0.000000000000000000, -0.000000000000000000, 1.000000000000000000 ) ) ;
#102 = ORIENTED_EDGE ( 'NONE', *, *, #207, .T. ) ;
#103 = CARTESIAN_POINT ( 'NONE',  ( -6.769999999999998685, 0.000000000000000000, -3.270000000000000018 ) ) ;
#104 = EDGE_CURVE ( 'NONE', #109, #368, #263, .T. ) ;
#105 = AXIS2_PLACEMENT_3D ( 'NONE', #18, #160, #453 ) ;
#106 = PRODUCT_RELATED_PRODUCT_CATEGORY ( 'part', '', ( #463 ) ) ;
#107 = VERTEX_POINT ( 'NONE', #87 ) ;
#108 = FACE_OUTER_BOUND ( 'NONE', #411, .T. ) ;
#109 = VERTEX_POINT ( 'NONE', #15 ) ;
#110 = AXIS2_PLACEMENT_3D ( 'NONE', #1, #36, #294 ) ;
#111 = DIRECTION ( 'NONE',  ( -1.236061108696829207E-16, 0.000000000000000000, -1.000000000000000000 ) ) ;
#112 = ADVANCED_FACE ( 'NONE', ( #227 ), #51, .F. ) ;
#113 = ORIENTED_EDGE ( 'NONE', *, *, #412, .T. ) ;
#114 = DIRECTION ( 'NONE',  ( -0.000000000000000000, 1.000000000000000000, -0.000000000000000000 ) ) ;
#115 = ORIENTED_EDGE ( 'NONE', *, *, #425, .F. ) ;
#116 = ORIENTED_EDGE ( 'NONE', *, *, #27, .F. ) ;
#117 = LINE ( 'NONE', #197, #3 ) ;
#118 = EDGE_CURVE ( 'NONE', #443, #73, #205, .T. ) ;
#119 = VECTOR ( 'NONE', #241, 1000.000000000000000 ) ;
#120 = CARTESIAN_POINT ( 'NONE',  ( 6.570000000000001172, 0.1750000000000000167, -3.069999999999999840 ) ) ;
#121 = DIRECTION ( 'NONE',  ( 0.000000000000000000, 0.000000000000000000, 1.000000000000000000 ) ) ;
#122 = EDGE_CURVE ( 'NONE', #286, #335, #320, .T. ) ;
#123 = AXIS2_PLACEMENT_3D ( 'NONE', #94, #196, #21 ) ;
#124 = LINE ( 'NONE', #346, #199 ) ;
#125 = EDGE_CURVE ( 'NONE', #352, #395, #398, .T. ) ;
#126 = CARTESIAN_POINT ( 'NONE',  ( 6.770000000000000462, 0.7500000000000000000, -3.270000000000000018 ) ) ;
#127 = PLANE ( 'NONE',  #261 ) ;
#128 = DIRECTION ( 'NONE',  ( -0.000000000000000000, 1.000000000000000000, -0.000000000000000000 ) ) ;
#129 = CARTESIAN_POINT ( 'NONE',  ( 0.4300000000000022138, 0.1750000000000000167, 3.070000000000000284 ) ) ;
#130 = FACE_OUTER_BOUND ( 'NONE', #148, .T. ) ;
#131 = VECTOR ( 'NONE', #174, 1000.000000000000000 ) ;
#132 = CARTESIAN_POINT ( 'NONE',  ( 0.000000000000000000, 0.7500000000000000000, 0.000000000000000000 ) ) ;
#133 = PLANE ( 'NONE',  #247 ) ;
#134 = VECTOR ( 'NONE', #308, 1000.000000000000000 ) ;
#135 = ORIENTED_EDGE ( 'NONE', *, *, #186, .F. ) ;
#136 = FACE_OUTER_BOUND ( 'NONE', #220, .T. ) ;
#137 = CARTESIAN_POINT ( 'NONE',  ( 0.4300000000000022138, 0.1750000000000000167, 3.070000000000000284 ) ) ;
#138 = PLANE ( 'NONE',  #264 ) ;
#139 = ADVANCED_FACE ( 'NONE', ( #165, #234, #394 ), #93, .T. ) ;
#140 = DIRECTION ( 'NONE',  ( -0.000000000000000000, 1.000000000000000000, -0.000000000000000000 ) ) ;
#141 = LINE ( 'NONE', #77, #149 ) ;
#142 = LINE ( 'NONE', #429, #347 ) ;
#143 = ORIENTED_EDGE ( 'NONE', *, *, #276, .T. ) ;
#144 = AXIS2_PLACEMENT_3D ( 'NONE', #201, #60, #390 ) ;
#145 = DIRECTION ( 'NONE',  ( 1.000000000000000000, 0.000000000000000000, 0.000000000000000000 ) ) ;
#146 = ORIENTED_EDGE ( 'NONE', *, *, #22, .T. ) ;
#147 = LINE ( 'NONE', #444, #131 ) ;
#148 = EDGE_LOOP ( 'NONE', ( #177, #299, #26, #258 ) ) ;
#149 = VECTOR ( 'NONE', #292, 1000.000000000000000 ) ;
#150 = CARTESIAN_POINT ( 'NONE',  ( 0.000000000000000000, 0.000000000000000000, 0.000000000000000000 ) ) ;
#151 = EDGE_LOOP ( 'NONE', ( #378, #35, #296, #438 ) ) ;
#152 = EDGE_LOOP ( 'NONE', ( #448, #116, #369, #366 ) ) ;
#153 = ADVANCED_FACE ( 'NONE', ( #24 ), #133, .F. ) ;
#154 = ORIENTED_EDGE ( 'NONE', *, *, #12, .T. ) ;
#155 = CARTESIAN_POINT ( 'NONE',  ( 6.770000000000000462, 0.7500000000000000000, -3.270000000000000018 ) ) ;
#156 = VECTOR ( 'NONE', #128, 1000.000000000000000 ) ;
#157 = DIRECTION ( 'NONE',  ( 0.000000000000000000, -0.000000000000000000, 1.000000000000000000 ) ) ;
#158 = EDGE_CURVE ( 'NONE', #283, #107, #383, .T. ) ;
#159 = ADVANCED_FACE ( 'NONE', ( #65 ), #318, .F. ) ;
#160 = DIRECTION ( 'NONE',  ( 0.000000000000000000, 1.000000000000000000, 0.000000000000000000 ) ) ;
#161 = DIRECTION ( 'NONE',  ( -0.000000000000000000, -0.000000000000000000, -1.000000000000000000 ) ) ;
#162 = FACE_OUTER_BOUND ( 'NONE', #52, .T. ) ;
#163 = LINE ( 'NONE', #306, #303 ) ;
#164 = VECTOR ( 'NONE', #455, 1000.000000000000000 ) ;
#165 = FACE_BOUND ( 'NONE', #387, .T. ) ;
#166 = PLANE ( 'NONE',  #224 ) ;
#167 = FILL_AREA_STYLE ('',( #289 ) ) ;
#168 = AXIS2_PLACEMENT_3D ( 'NONE', #271, #422, #92 ) ;
#169 = FACE_OUTER_BOUND ( 'NONE', #83, .T. ) ;
#170 = ORIENTED_EDGE ( 'NONE', *, *, #459, .F. ) ;
#171 = DIRECTION ( 'NONE',  ( -1.000000000000000000, -0.000000000000000000, -0.000000000000000000 ) ) ;
#172 = DIRECTION ( 'NONE',  ( -1.236061108696829207E-16, -0.000000000000000000, -1.000000000000000000 ) ) ;
#173 = ADVANCED_FACE ( 'NONE', ( #282 ), #166, .F. ) ;
#174 = DIRECTION ( 'NONE',  ( 1.236061108696829207E-16, 0.000000000000000000, 1.000000000000000000 ) ) ;
#175 = DIRECTION ( 'NONE',  ( -1.000000000000000000, -0.000000000000000000, -0.000000000000000000 ) ) ;
#176 = EDGE_CURVE ( 'NONE', #107, #183, #311, .T. ) ;
#177 = ORIENTED_EDGE ( 'NONE', *, *, #54, .T. ) ;
#178 = PLANE ( 'NONE',  #266 ) ;
#179 = CARTESIAN_POINT ( 'NONE',  ( -6.569999999999999396, 0.7500000000000000000, 3.070000000000000284 ) ) ;
#180 = ORIENTED_EDGE ( 'NONE', *, *, #416, .F. ) ;
#181 = AXIS2_PLACEMENT_3D ( 'NONE', #380, #338, #421 ) ;
#182 = LINE ( 'NONE', #321, #392 ) ;
#183 = VERTEX_POINT ( 'NONE', #213 ) ;
#184 = ORIENTED_EDGE ( 'NONE', *, *, #45, .F. ) ;
#185 = VERTEX_POINT ( 'NONE', #23 ) ;
#186 = EDGE_CURVE ( 'NONE', #280, #226, #359, .T. ) ;
#187 = EDGE_CURVE ( 'NONE', #356, #431, #423, .T. ) ;
#188 = VERTEX_POINT ( 'NONE', #25 ) ;
#189 = PLANE ( 'NONE',  #181 ) ;
#190 = PRODUCT_DEFINITION_FORMATION_WITH_SPECIFIED_SOURCE ( 'Symmetric', '', #463, .NOT_KNOWN. ) ;
#191 = CARTESIAN_POINT ( 'NONE',  ( 0.4300000000000014366, 0.7500000000000000000, -3.069999999999999840 ) ) ;
#192 = EDGE_CURVE ( 'NONE', #329, #195, #470, .T. ) ;
#193 = VECTOR ( 'NONE', #175, 1000.000000000000000 ) ;
#194 = DIRECTION ( 'NONE',  ( -0.000000000000000000, -1.000000000000000000, -0.000000000000000000 ) ) ;
#195 = VERTEX_POINT ( 'NONE', #99 ) ;
#196 = DIRECTION ( 'NONE',  ( -1.000000000000000000, 0.000000000000000000, 1.236061108696829207E-16 ) ) ;
#197 = CARTESIAN_POINT ( 'NONE',  ( 6.570000000000001172, 0.7500000000000000000, -3.069999999999999840 ) ) ;
#198 = CARTESIAN_POINT ( 'NONE',  ( -6.569999999999999396, 0.1750000000000000167, 3.070000000000000284 ) ) ;
#199 = VECTOR ( 'NONE', #339, 1000.000000000000000 ) ;
#200 = LINE ( 'NONE', #427, #357 ) ;
#201 = CARTESIAN_POINT ( 'NONE',  ( -6.769999999999997797, 0.7500000000000000000, 3.270000000000000018 ) ) ;
#202 = CARTESIAN_POINT ( 'NONE',  ( 6.770000000000000462, 0.7500000000000000000, 3.270000000000000018 ) ) ;
#203 = ORIENTED_EDGE ( 'NONE', *, *, #207, .F. ) ;
#204 = CARTESIAN_POINT ( 'NONE',  ( -6.569999999999999396, 0.1750000000000000167, 3.070000000000000284 ) ) ;
#205 = LINE ( 'NONE', #137, #413 ) ;
#206 = ORIENTED_EDGE ( 'NONE', *, *, #324, .F. ) ;
#207 = EDGE_CURVE ( 'NONE', #73, #405, #200, .T. ) ;
#208 = ADVANCED_FACE ( 'NONE', ( #169 ), #458, .F. ) ;
#209 = CARTESIAN_POINT ( 'NONE',  ( 6.770000000000000462, 0.7500000000000000000, -3.270000000000000018 ) ) ;
#210 = VECTOR ( 'NONE', #430, 1000.000000000000000 ) ;
#211 = DIRECTION ( 'NONE',  ( 0.000000000000000000, 0.000000000000000000, 1.000000000000000000 ) ) ;
#212 = LINE ( 'NONE', #297, #8 ) ;
#213 = CARTESIAN_POINT ( 'NONE',  ( -6.569999999999999396, 0.7500000000000000000, -3.069999999999999396 ) ) ;
#214 = VERTEX_POINT ( 'NONE', #349 ) ;
#215 = DIRECTION ( 'NONE',  ( -1.412641267082090664E-16, -0.000000000000000000, -1.000000000000000000 ) ) ;
#216 = ORIENTED_EDGE ( 'NONE', *, *, #373, .F. ) ;
#217 = VERTEX_POINT ( 'NONE', #202 ) ;
#218 = COLOUR_RGB ( '',0.7529411764705882248, 1.000000000000000000, 1.000000000000000000 ) ;
#219 = ORIENTED_EDGE ( 'NONE', *, *, #307, .F. ) ;
#220 = EDGE_LOOP ( 'NONE', ( #275, #300, #135, #143 ) ) ;
#221 = EDGE_CURVE ( 'NONE', #183, #188, #461, .T. ) ;
#222 = ADVANCED_FACE ( 'NONE', ( #351 ), #178, .T. ) ;
#223 = ORIENTED_EDGE ( 'NONE', *, *, #221, .T. ) ;
#224 = AXIS2_PLACEMENT_3D ( 'NONE', #313, #211, #272 ) ;
#225 = CARTESIAN_POINT ( 'NONE',  ( 6.770000000000000462, 0.7500000000000000000, -3.270000000000000018 ) ) ;
#226 = VERTEX_POINT ( 'NONE', #323 ) ;
#227 = FACE_OUTER_BOUND ( 'NONE', #13, .T. ) ;
#228 = DIRECTION ( 'NONE',  ( -1.000000000000000000, -0.000000000000000000, -0.000000000000000000 ) ) ;
#229 = MANIFOLD_SOLID_BREP ( 'Cut-Extrude1', #456 ) ;
#230 = CARTESIAN_POINT ( 'NONE',  ( -6.569999999999999396, 0.1750000000000000167, -3.069999999999999396 ) ) ;
#231 = LINE ( 'NONE', #155, #134 ) ;
#232 = EDGE_CURVE ( 'NONE', #217, #356, #90, .T. ) ;
#233 = LINE ( 'NONE', #325, #295 ) ;
#234 = FACE_BOUND ( 'NONE', #265, .T. ) ;
#235 = CARTESIAN_POINT ( 'NONE',  ( -0.4299999999999991607, 0.1750000000000000167, 3.070000000000000284 ) ) ;
#236 = STYLED_ITEM ( 'NONE', ( #98 ), #229 ) ;
#237 = CARTESIAN_POINT ( 'NONE',  ( -6.569999999999999396, 0.1750000000000000167, 3.070000000000000284 ) ) ;
#238 = ORIENTED_EDGE ( 'NONE', *, *, #396, .T. ) ;
#239 = PLANE ( 'NONE',  #144 ) ;
#240 = EDGE_CURVE ( 'NONE', #81, #109, #142, .T. ) ;
#241 = DIRECTION ( 'NONE',  ( 1.000000000000000000, 0.000000000000000000, 0.000000000000000000 ) ) ;
#242 = PRODUCT_DEFINITION ( 'General', '', #190, #404 ) ;
#243 = CARTESIAN_POINT ( 'NONE',  ( -6.769999999999997797, 0.000000000000000000, 3.270000000000000018 ) ) ;
#244 = DIRECTION ( 'NONE',  ( 0.000000000000000000, 0.000000000000000000, -1.000000000000000000 ) ) ;
#245 = EDGE_LOOP ( 'NONE', ( #441, #48, #238, #41 ) ) ;
#246 = LINE ( 'NONE', #364, #462 ) ;
#247 = AXIS2_PLACEMENT_3D ( 'NONE', #274, #67, #61 ) ;
#248 = DIRECTION ( 'NONE',  ( 1.000000000000000000, 0.000000000000000000, 0.000000000000000000 ) ) ;
#249 = ORIENTED_EDGE ( 'NONE', *, *, #232, .T. ) ;
#250 = ORIENTED_EDGE ( 'NONE', *, *, #192, .F. ) ;
#251 = APPLICATION_PROTOCOL_DEFINITION ( 'draft international standard', 'automotive_design', 1998, #44 ) ;
#252 = LINE ( 'NONE', #179, #353 ) ;
#253 = VECTOR ( 'NONE', #114, 1000.000000000000000 ) ;
#254 = ORIENTED_EDGE ( 'NONE', *, *, #45, .T. ) ;
#255 = LINE ( 'NONE', #409, #418 ) ;
#256 = EDGE_LOOP ( 'NONE', ( #249, #401, #97, #370 ) ) ;
#257 = DIRECTION ( 'NONE',  ( 1.000000000000000000, 0.000000000000000000, 0.000000000000000000 ) ) ;
#258 = ORIENTED_EDGE ( 'NONE', *, *, #104, .T. ) ;
#259 = ORIENTED_EDGE ( 'NONE', *, *, #425, .T. ) ;
#260 = LINE ( 'NONE', #301, #367 ) ;
#261 = AXIS2_PLACEMENT_3D ( 'NONE', #86, #382, #157 ) ;
#262 = DIRECTION ( 'NONE',  ( -1.412641267082090664E-16, -0.000000000000000000, -1.000000000000000000 ) ) ;
#263 = LINE ( 'NONE', #305, #69 ) ;
#264 = AXIS2_PLACEMENT_3D ( 'NONE', #361, #33, #111 ) ;
#265 = EDGE_LOOP ( 'NONE', ( #293, #5, #38, #46 ) ) ;
#266 = AXIS2_PLACEMENT_3D ( 'NONE', #34, #362, #2 ) ;
#267 = LINE ( 'NONE', #317, #428 ) ;
#268 = ADVANCED_BREP_SHAPE_REPRESENTATION ( 'SiPM lens 2x1', ( #229, #403 ), #332 ) ;
#269 = ORIENTED_EDGE ( 'NONE', *, *, #466, .T. ) ;
#270 = ADVANCED_FACE ( 'NONE', ( #460 ), #239, .F. ) ;
#271 = CARTESIAN_POINT ( 'NONE',  ( -6.569999999999999396, 0.1750000000000000167, -3.069999999999999396 ) ) ;
#272 = DIRECTION ( 'NONE',  ( 1.000000000000000000, 0.000000000000000000, -0.000000000000000000 ) ) ;
#273 = CARTESIAN_POINT ( 'NONE',  ( -0.4299999999999999378, 0.1750000000000000167, -3.069999999999999396 ) ) ;
#274 = CARTESIAN_POINT ( 'NONE',  ( -6.569999999999999396, 0.1750000000000000167, 3.070000000000000284 ) ) ;
#275 = ORIENTED_EDGE ( 'NONE', *, *, #176, .T. ) ;
#276 = EDGE_CURVE ( 'NONE', #280, #107, #163, .T. ) ;
#277 =( LENGTH_UNIT ( ) NAMED_UNIT ( * ) SI_UNIT ( .MILLI., .METRE. ) );
#278 = AXIS2_PLACEMENT_3D ( 'NONE', #230, #432, #393 ) ;
#279 = CARTESIAN_POINT ( 'NONE',  ( 0.4300000000000014366, 0.1750000000000000167, -3.069999999999999840 ) ) ;
#280 = VERTEX_POINT ( 'NONE', #273 ) ;
#281 = PLANE ( 'NONE',  #278 ) ;
#282 = FACE_OUTER_BOUND ( 'NONE', #151, .T. ) ;
#283 = VERTEX_POINT ( 'NONE', #454 ) ;
#284 = PLANE ( 'NONE',  #110 ) ;
#285 = DIRECTION ( 'NONE',  ( -0.000000000000000000, 0.000000000000000000, 1.000000000000000000 ) ) ;
#286 = VERTEX_POINT ( 'NONE', #204 ) ;
#287 =( NAMED_UNIT ( * ) PLANE_ANGLE_UNIT ( ) SI_UNIT ( $, .RADIAN. ) );
#288 = VECTOR ( 'NONE', #355, 1000.000000000000000 ) ;
#289 = FILL_AREA_STYLE_COLOUR ( '', #218 ) ;
#290 = ORIENTED_EDGE ( 'NONE', *, *, #22, .F. ) ;
#291 = EDGE_CURVE ( 'NONE', #286, #188, #354, .T. ) ;
#292 = DIRECTION ( 'NONE',  ( -0.000000000000000000, -0.000000000000000000, -1.000000000000000000 ) ) ;
#293 = ORIENTED_EDGE ( 'NONE', *, *, #12, .F. ) ;
#294 = DIRECTION ( 'NONE',  ( -1.326241189584715037E-16, 0.000000000000000000, -1.000000000000000000 ) ) ;
#295 = VECTOR ( 'NONE', #6, 1000.000000000000000 ) ;
#296 = ORIENTED_EDGE ( 'NONE', *, *, #187, .F. ) ;
#297 = CARTESIAN_POINT ( 'NONE',  ( -6.769999999999998685, 0.000000000000000000, -3.270000000000000018 ) ) ;
#298 = EDGE_CURVE ( 'NONE', #431, #195, #267, .T. ) ;
#299 = ORIENTED_EDGE ( 'NONE', *, *, #412, .F. ) ;
#300 = ORIENTED_EDGE ( 'NONE', *, *, #341, .F. ) ;
#301 = CARTESIAN_POINT ( 'NONE',  ( -0.4299999999999991607, 0.1750000000000000167, 3.070000000000000284 ) ) ;
#302 = LINE ( 'NONE', #191, #407 ) ;
#303 = VECTOR ( 'NONE', #64, 1000.000000000000000 ) ;
#304 = DIRECTION ( 'NONE',  ( -1.000000000000000000, 0.000000000000000000, 0.000000000000000000 ) ) ;
#305 = CARTESIAN_POINT ( 'NONE',  ( 0.4300000000000014366, 0.1750000000000000167, -3.069999999999999840 ) ) ;
#306 = CARTESIAN_POINT ( 'NONE',  ( -0.4299999999999999378, 0.1750000000000000167, -3.069999999999999396 ) ) ;
#307 = EDGE_CURVE ( 'NONE', #395, #214, #426, .T. ) ;
#308 = DIRECTION ( 'NONE',  ( -0.000000000000000000, -1.000000000000000000, -0.000000000000000000 ) ) ;
#309 = AXIS2_PLACEMENT_3D ( 'NONE', #132, #464, #101 ) ;
#310 = FACE_OUTER_BOUND ( 'NONE', #316, .T. ) ;
#311 = LINE ( 'NONE', #58, #326 ) ;
#312 = LINE ( 'NONE', #57, #79 ) ;
#313 = CARTESIAN_POINT ( 'NONE',  ( -6.769999999999998685, 0.7500000000000000000, -3.270000000000000018 ) ) ;
#314 = SURFACE_SIDE_STYLE ('',( #348 ) ) ;
#315 = DIRECTION ( 'NONE',  ( -0.000000000000000000, -1.000000000000000000, -0.000000000000000000 ) ) ;
#316 = EDGE_LOOP ( 'NONE', ( #223, #14, #290, #399 ) ) ;
#317 = CARTESIAN_POINT ( 'NONE',  ( -6.769999999999998685, 0.7500000000000000000, -3.270000000000000018 ) ) ;
#318 = PLANE ( 'NONE',  #59 ) ;
#319 = CARTESIAN_POINT ( 'NONE',  ( 0.4300000000000022138, 0.1750000000000000167, 3.070000000000000284 ) ) ;
#320 = LINE ( 'NONE', #237, #119 ) ;
#321 = CARTESIAN_POINT ( 'NONE',  ( 6.570000000000001172, 0.1750000000000000167, -3.069999999999999840 ) ) ;
#322 = ADVANCED_FACE ( 'NONE', ( #136 ), #281, .F. ) ;
#323 = CARTESIAN_POINT ( 'NONE',  ( -6.569999999999999396, 0.1750000000000000167, -3.069999999999999396 ) ) ;
#324 = EDGE_CURVE ( 'NONE', #431, #352, #312, .T. ) ;
#325 = CARTESIAN_POINT ( 'NONE',  ( -6.569999999999999396, 0.1750000000000000167, -3.069999999999999396 ) ) ;
#326 = VECTOR ( 'NONE', #434, 1000.000000000000000 ) ;
#327 = ORIENTED_EDGE ( 'NONE', *, *, #435, .F. ) ;
#328 = FACE_OUTER_BOUND ( 'NONE', #82, .T. ) ;
#329 = VERTEX_POINT ( 'NONE', #381 ) ;
#330 = ADVANCED_FACE ( 'NONE', ( #130 ), #55, .F. ) ;
#331 = CARTESIAN_POINT ( 'NONE',  ( 6.570000000000001172, 0.1750000000000000167, -3.069999999999999840 ) ) ;
#332 =( GEOMETRIC_REPRESENTATION_CONTEXT ( 3 ) GLOBAL_UNCERTAINTY_ASSIGNED_CONTEXT ( ( #365 ) ) GLOBAL_UNIT_ASSIGNED_CONTEXT ( ( #406, #287, #440 ) ) REPRESENTATION_CONTEXT ( 'NONE', 'WORKASPACE' ) );
#333 = ORIENTED_EDGE ( 'NONE', *, *, #158, .F. ) ;
#334 = MECHANICAL_DESIGN_GEOMETRIC_PRESENTATION_REPRESENTATION (  '', ( #236 ), #39 ) ;
#335 = VERTEX_POINT ( 'NONE', #235 ) ;
#336 = VERTEX_POINT ( 'NONE', #385 ) ;
#337 = ADVANCED_FACE ( 'NONE', ( #310 ), #457, .F. ) ;
#338 = DIRECTION ( 'NONE',  ( 1.000000000000000000, 0.000000000000000000, -1.412641267082090664E-16 ) ) ;
#339 = DIRECTION ( 'NONE',  ( 0.000000000000000000, 0.000000000000000000, 1.000000000000000000 ) ) ;
#340 = CARTESIAN_POINT ( 'NONE',  ( 0.4300000000000022138, 0.7500000000000000000, 3.070000000000000284 ) ) ;
#341 = EDGE_CURVE ( 'NONE', #226, #183, #233, .T. ) ;
#342 = DIRECTION ( 'NONE',  ( 1.326241189584715037E-16, 0.000000000000000000, 1.000000000000000000 ) ) ;
#343 = CARTESIAN_POINT ( 'NONE',  ( 0.4300000000000014366, 0.7500000000000000000, -3.069999999999999840 ) ) ;
#344 = DIRECTION ( 'NONE',  ( -0.000000000000000000, -1.000000000000000000, -0.000000000000000000 ) ) ;
#345 = UNCERTAINTY_MEASURE_WITH_UNIT (LENGTH_MEASURE( 1.000000000000000082E-05 ), #277, 'distance_accuracy_value', 'NONE');
#346 = CARTESIAN_POINT ( 'NONE',  ( -6.569999999999999396, 0.1750000000000000167, -3.069999999999999396 ) ) ;
#347 = VECTOR ( 'NONE', #171, 1000.000000000000000 ) ;
#348 = SURFACE_STYLE_FILL_AREA ( #167 ) ;
#349 = CARTESIAN_POINT ( 'NONE',  ( 6.770000000000000462, 0.000000000000000000, 3.270000000000000018 ) ) ;
#350 = EDGE_LOOP ( 'NONE', ( #269, #78, #146, #100 ) ) ;
#351 = FACE_OUTER_BOUND ( 'NONE', #245, .T. ) ;
#352 = VERTEX_POINT ( 'NONE', #400 ) ;
#353 = VECTOR ( 'NONE', #145, 1000.000000000000000 ) ;
#354 = LINE ( 'NONE', #198, #156 ) ;
#355 = DIRECTION ( 'NONE',  ( -1.000000000000000000, -0.000000000000000000, -0.000000000000000000 ) ) ;
#356 = VERTEX_POINT ( 'NONE', #209 ) ;
#357 = VECTOR ( 'NONE', #140, 1000.000000000000000 ) ;
#358 = CARTESIAN_POINT ( 'NONE',  ( 6.570000000000002061, 0.7500000000000000000, 3.070000000000000284 ) ) ;
#359 = LINE ( 'NONE', #391, #288 ) ;
#360 = EDGE_CURVE ( 'NONE', #352, #217, #246, .T. ) ;
#361 = CARTESIAN_POINT ( 'NONE',  ( -0.4299999999999999378, 0.1750000000000000167, -3.069999999999999396 ) ) ;
#362 = DIRECTION ( 'NONE',  ( 0.000000000000000000, 1.000000000000000000, 0.000000000000000000 ) ) ;
#363 = ORIENTED_EDGE ( 'NONE', *, *, #360, .F. ) ;
#364 = CARTESIAN_POINT ( 'NONE',  ( -6.769999999999997797, 0.7500000000000000000, 3.270000000000000018 ) ) ;
#365 = UNCERTAINTY_MEASURE_WITH_UNIT (LENGTH_MEASURE( 1.000000000000000082E-05 ), #406, 'distance_accuracy_value', 'NONE');
#366 = ORIENTED_EDGE ( 'NONE', *, *, #291, .T. ) ;
#367 = VECTOR ( 'NONE', #414, 1000.000000000000000 ) ;
#368 = VERTEX_POINT ( 'NONE', #30 ) ;
#369 = ORIENTED_EDGE ( 'NONE', *, *, #122, .F. ) ;
#370 = ORIENTED_EDGE ( 'NONE', *, *, #360, .T. ) ;
#371 = AXIS2_PLACEMENT_3D ( 'NONE', #129, #285, #437 ) ;
#372 = ORIENTED_EDGE ( 'NONE', *, *, #298, .T. ) ;
#373 = EDGE_CURVE ( 'NONE', #73, #81, #182, .T. ) ;
#374 = ORIENTED_EDGE ( 'NONE', *, *, #240, .F. ) ;
#375 = EDGE_LOOP ( 'NONE', ( #471, #62, #374, #449 ) ) ;
#376 = VECTOR ( 'NONE', #71, 1000.000000000000000 ) ;
#377 = LINE ( 'NONE', #419, #439 ) ;
#378 = ORIENTED_EDGE ( 'NONE', *, *, #192, .T. ) ;
#379 = ADVANCED_FACE ( 'NONE', ( #328 ), #284, .F. ) ;
#380 = CARTESIAN_POINT ( 'NONE',  ( 6.570000000000001172, 0.1750000000000000167, -3.069999999999999840 ) ) ;
#381 = CARTESIAN_POINT ( 'NONE',  ( 6.770000000000000462, 0.000000000000000000, -3.270000000000000018 ) ) ;
#382 = DIRECTION ( 'NONE',  ( 0.000000000000000000, 1.000000000000000000, 0.000000000000000000 ) ) ;
#383 = LINE ( 'NONE', #72, #450 ) ;
#384 = PRESENTATION_LAYER_ASSIGNMENT (  '', '', ( #236 ) ) ;
#385 = CARTESIAN_POINT ( 'NONE',  ( 6.570000000000001172, 0.7500000000000000000, -3.069999999999999840 ) ) ;
#386 = DIRECTION ( 'NONE',  ( 0.000000000000000000, 0.000000000000000000, 1.000000000000000000 ) ) ;
#387 = EDGE_LOOP ( 'NONE', ( #333, #170, #17, #445 ) ) ;
#388 = PRODUCT_CONTEXT ( 'NONE', #44, 'mechanical' ) ;
#389 = PRODUCT_DEFINITION_SHAPE ( 'NONE', 'NONE',  #242 ) ;
#390 = DIRECTION ( 'NONE',  ( -1.000000000000000000, 0.000000000000000000, -0.000000000000000000 ) ) ;
#391 = CARTESIAN_POINT ( 'NONE',  ( -6.569999999999999396, 0.1750000000000000167, -3.069999999999999396 ) ) ;
#392 = VECTOR ( 'NONE', #215, 1000.000000000000000 ) ;
#393 = DIRECTION ( 'NONE',  ( -1.000000000000000000, 0.000000000000000000, -0.000000000000000000 ) ) ;
#394 = FACE_OUTER_BOUND ( 'NONE', #256, .T. ) ;
#395 = VERTEX_POINT ( 'NONE', #397 ) ;
#396 = EDGE_CURVE ( 'NONE', #109, #443, #147, .T. ) ;
#397 = CARTESIAN_POINT ( 'NONE',  ( -6.769999999999997797, 0.000000000000000000, 3.270000000000000018 ) ) ;
#398 = LINE ( 'NONE', #29, #420 ) ;
#399 = ORIENTED_EDGE ( 'NONE', *, *, #341, .T. ) ;
#400 = CARTESIAN_POINT ( 'NONE',  ( -6.769999999999997797, 0.7500000000000000000, 3.270000000000000018 ) ) ;
#401 = ORIENTED_EDGE ( 'NONE', *, *, #187, .T. ) ;
#402 = DIRECTION ( 'NONE',  ( -1.236061108696829207E-16, -0.000000000000000000, -1.000000000000000000 ) ) ;
#403 = AXIS2_PLACEMENT_3D ( 'NONE', #150, #446, #257 ) ;
#404 = PRODUCT_DEFINITION_CONTEXT ( 'detailed design', #424, 'design' ) ;
#405 = VERTEX_POINT ( 'NONE', #358 ) ;
#406 =( LENGTH_UNIT ( ) NAMED_UNIT ( * ) SI_UNIT ( .MILLI., .METRE. ) );
#407 = VECTOR ( 'NONE', #228, 1000.000000000000000 ) ;
#408 = ORIENTED_EDGE ( 'NONE', *, *, #466, .F. ) ;
#409 = CARTESIAN_POINT ( 'NONE',  ( -0.4299999999999999378, 0.1750000000000000167, -3.069999999999999396 ) ) ;
#410 = ORIENTED_EDGE ( 'NONE', *, *, #118, .F. ) ;
#411 = EDGE_LOOP ( 'NONE', ( #20, #56, #408, #68 ) ) ;
#412 = EDGE_CURVE ( 'NONE', #443, #185, #442, .T. ) ;
#413 = VECTOR ( 'NONE', #248, 1000.000000000000000 ) ;
#414 = DIRECTION ( 'NONE',  ( -0.000000000000000000, 1.000000000000000000, -0.000000000000000000 ) ) ;
#415 = CARTESIAN_POINT ( 'NONE',  ( 6.570000000000002061, 0.1750000000000000167, 3.070000000000000284 ) ) ;
#416 = EDGE_CURVE ( 'NONE', #195, #395, #212, .T. ) ;
#417 = DIRECTION ( 'NONE',  ( -0.000000000000000000, 1.000000000000000000, -0.000000000000000000 ) ) ;
#418 = VECTOR ( 'NONE', #402, 1000.000000000000000 ) ;
#419 = CARTESIAN_POINT ( 'NONE',  ( 6.770000000000000462, 0.7500000000000000000, 3.270000000000000018 ) ) ;
#420 = VECTOR ( 'NONE', #315, 1000.000000000000000 ) ;
#421 = DIRECTION ( 'NONE',  ( -1.412641267082090664E-16, 0.000000000000000000, -1.000000000000000000 ) ) ;
#422 = DIRECTION ( 'NONE',  ( -1.000000000000000000, 0.000000000000000000, 0.000000000000000000 ) ) ;
#423 = LINE ( 'NONE', #31, #193 ) ;
#424 = APPLICATION_CONTEXT ( 'automotive_design' ) ;
#425 = EDGE_CURVE ( 'NONE', #214, #329, #141, .T. ) ;
#426 = LINE ( 'NONE', #243, #16 ) ;
#427 = CARTESIAN_POINT ( 'NONE',  ( 6.570000000000002061, 0.1750000000000000167, 3.070000000000000284 ) ) ;
#428 = VECTOR ( 'NONE', #344, 1000.000000000000000 ) ;
#429 = CARTESIAN_POINT ( 'NONE',  ( 0.4300000000000014366, 0.1750000000000000167, -3.069999999999999840 ) ) ;
#430 = DIRECTION ( 'NONE',  ( -1.000000000000000000, -0.000000000000000000, -0.000000000000000000 ) ) ;
#431 = VERTEX_POINT ( 'NONE', #469 ) ;
#432 = DIRECTION ( 'NONE',  ( 0.000000000000000000, 0.000000000000000000, -1.000000000000000000 ) ) ;
#433 = ADVANCED_FACE ( 'NONE', ( #108 ), #138, .F. ) ;
#434 = DIRECTION ( 'NONE',  ( -1.000000000000000000, -0.000000000000000000, -0.000000000000000000 ) ) ;
#435 = EDGE_CURVE ( 'NONE', #81, #336, #4, .T. ) ;
#436 = CARTESIAN_POINT ( 'NONE',  ( 0.4300000000000022138, 0.1750000000000000167, 3.070000000000000284 ) ) ;
#437 = DIRECTION ( 'NONE',  ( 1.000000000000000000, 0.000000000000000000, 0.000000000000000000 ) ) ;
#438 = ORIENTED_EDGE ( 'NONE', *, *, #10, .T. ) ;
#439 = VECTOR ( 'NONE', #194, 1000.000000000000000 ) ;
#440 =( NAMED_UNIT ( * ) SI_UNIT ( $, .STERADIAN. ) SOLID_ANGLE_UNIT ( ) );
#441 = ORIENTED_EDGE ( 'NONE', *, *, #373, .T. ) ;
#442 = LINE ( 'NONE', #319, #376 ) ;
#443 = VERTEX_POINT ( 'NONE', #436 ) ;
#444 = CARTESIAN_POINT ( 'NONE',  ( 0.4300000000000014366, 0.1750000000000000167, -3.069999999999999840 ) ) ;
#445 = ORIENTED_EDGE ( 'NONE', *, *, #176, .F. ) ;
#446 = DIRECTION ( 'NONE',  ( 0.000000000000000000, 0.000000000000000000, 1.000000000000000000 ) ) ;
#447 = ORIENTED_EDGE ( 'NONE', *, *, #416, .T. ) ;
#448 = ORIENTED_EDGE ( 'NONE', *, *, #459, .T. ) ;
#449 = ORIENTED_EDGE ( 'NONE', *, *, #435, .T. ) ;
#450 = VECTOR ( 'NONE', #172, 1000.000000000000000 ) ;
#451 = LINE ( 'NONE', #340, #96 ) ;
#452 = FACE_OUTER_BOUND ( 'NONE', #350, .T. ) ;
#453 = DIRECTION ( 'NONE',  ( 0.000000000000000000, -0.000000000000000000, 1.000000000000000000 ) ) ;
#454 = CARTESIAN_POINT ( 'NONE',  ( -0.4299999999999991607, 0.7500000000000000000, 3.070000000000000284 ) ) ;
#455 = DIRECTION ( 'NONE',  ( 1.236061108696829207E-16, 0.000000000000000000, 1.000000000000000000 ) ) ;
#456 = CLOSED_SHELL ( 'NONE', ( #80, #173, #379, #270, #139, #112, #89, #208, #330, #159, #222, #433, #153, #337, #322, #74 ) ) ;
#457 = PLANE ( 'NONE',  #168 ) ;
#458 = PLANE ( 'NONE',  #371 ) ;
#459 = EDGE_CURVE ( 'NONE', #188, #283, #252, .T. ) ;
#460 = FACE_OUTER_BOUND ( 'NONE', #465, .T. ) ;
#461 = LINE ( 'NONE', #95, #11 ) ;
#462 = VECTOR ( 'NONE', #75, 1000.000000000000000 ) ;
#463 = PRODUCT ( 'SiPM lens 2x1', 'SiPM lens 2x1', '', ( #388 ) ) ;
#464 = DIRECTION ( 'NONE',  ( 0.000000000000000000, 1.000000000000000000, 0.000000000000000000 ) ) ;
#465 = EDGE_LOOP ( 'NONE', ( #32, #184, #363, #42 ) ) ;
#466 = EDGE_CURVE ( 'NONE', #335, #280, #255, .T. ) ;
#467 = DIRECTION ( 'NONE',  ( 1.000000000000000000, 0.000000000000000000, 0.000000000000000000 ) ) ;
#468 = DIRECTION ( 'NONE',  ( -1.000000000000000000, 0.000000000000000000, -0.000000000000000000 ) ) ;
#469 = CARTESIAN_POINT ( 'NONE',  ( -6.769999999999998685, 0.7500000000000000000, -3.270000000000000018 ) ) ;
#470 = LINE ( 'NONE', #103, #210 ) ;
#471 = ORIENTED_EDGE ( 'NONE', *, *, #37, .T. ) ;
ENDSEC;
END-ISO-10303-21;
