ISO-10303-21;
HEADER;
FILE_DESCRIPTION (( 'STEP AP214' ),
    '1' );
FILE_NAME ('SiPM 2x1.STEP',
    '2026-01-09T11:17:35',
    ( '' ),
    ( '' ),
    'SwSTEP 2.0',
    'SolidWorks 2024',
    '' );
FILE_SCHEMA (( 'AUTOMOTIVE_DESIGN' ));
ENDSEC;

DATA;
#1 =( NAMED_UNIT ( * ) SI_UNIT ( $, .STERADIAN. ) SOLID_ANGLE_UNIT ( ) );
#2 = PRODUCT_RELATED_PRODUCT_CATEGORY ( 'part', '', ( #62 ) ) ;
#3 = PRODUCT_CONTEXT ( 'NONE', #72, 'mechanical' ) ;
#4 = EXTERNAL_SOURCE (IDENTIFIER('') ) ;
#5 = APPLICATION_CONTEXT ( 'automotive_design' ) ;
#6 = PRODUCT_DEFINITION_CONTEXT ( 'detailed design', #24, 'design' ) ;
#7 = APPLICATION_PROTOCOL_DEFINITION ( 'draft international standard', 'automotive_design', 1998, #96 ) ;
#8 = ITEM_DEFINED_TRANSFORMATION ( 'NONE', 'NONE', #95,  #58 ) ;
#9 = OBJECT_ROLE ('mandatory',$ ) ;
#10 = UNCERTAINTY_MEASURE_WITH_UNIT (LENGTH_MEASURE( 1.000000000000000082E-05 ), #92, 'distance_accuracy_value', 'NONE');
#11 = APPLIED_DOCUMENT_REFERENCE ( #50,'',( #103) ) ;
#12 =( REPRESENTATION_RELATIONSHIP ('NONE','NONE', #86, #28 ) REPRESENTATION_RELATIONSHIP_WITH_TRANSFORMATION ( #101 )SHAPE_REPRESENTATION_RELATIONSHIP( ) );
#13 =( GEOMETRIC_REPRESENTATION_CONTEXT ( 3 ) GLOBAL_UNCERTAINTY_ASSIGNED_CONTEXT ( ( #43 ) ) GLOBAL_UNIT_ASSIGNED_CONTEXT ( ( #66, #74, #1 ) ) REPRESENTATION_CONTEXT ( 'NONE', 'WORKASPACE' ) );
#14 = PRODUCT_RELATED_PRODUCT_CATEGORY ( 'part', '', ( #31 ) ) ;
#15 =( NAMED_UNIT ( * ) PLANE_ANGLE_UNIT ( ) SI_UNIT ( $, .RADIAN. ) );
#16 = AXIS2_PLACEMENT_3D ( 'NONE', #80, #26, #41 ) ;
#17 = DIRECTION ( 'NONE',  ( -1.000000000000000000, 6.982962677686471814E-15, 1.396592535537250660E-14 ) ) ;
#18 = DOCUMENT_TYPE ( 'geometry' ) ;
#19 = APPLICATION_PROTOCOL_DEFINITION ( 'draft international standard', 'automotive_design', 1998, #47 ) ;
#20 = ROLE_ASSOCIATION ( #9, #11 ) ;
#21 = APPLICATION_PROTOCOL_DEFINITION ( 'draft international standard', 'automotive_design', 1998, #5 ) ;
#22 = CONTEXT_DEPENDENT_SHAPE_REPRESENTATION ( #75, #93 ) ;
#23 = PRODUCT_DEFINITION_SHAPE ( 'NONE', 'NONE',  #103 ) ;
#24 = APPLICATION_CONTEXT ( 'automotive_design' ) ;
#25 = PROPERTY_DEFINITION ('external definition','', #50 ) ;
#26 = DIRECTION ( 'NONE',  ( 1.577721810442023611E-30, 9.829871458033890529E-31, 1.000000000000000000 ) ) ;
#27 = DIRECTION ( 'NONE',  ( 6.982962677686062396E-15, 1.000000000000000000, -3.491481338843181476E-15 ) ) ;
#28 = SHAPE_REPRESENTATION ( 'SiPM base 2x1', ( #63 ), #105 ) ;
#29 = SHAPE_DEFINITION_REPRESENTATION ( #23, #69 ) ;
#30 = PROPERTY_DEFINITION_REPRESENTATION ( #44, #28 ) ;
#31 = PRODUCT ( 'SiPM base 2x1', 'SiPM base 2x1', '', ( #42 ) ) ;
#32 = PRODUCT_DEFINITION_FORMATION_WITH_SPECIFIED_SOURCE ( 'Symmetric', '', #71, .NOT_KNOWN. ) ;
#33 = DIRECTION ( 'NONE',  ( 0.000000000000000000, 0.000000000000000000, 1.000000000000000000 ) ) ;
#34 = PRODUCT_RELATED_PRODUCT_CATEGORY ( 'part', '', ( #71 ) ) ;
#35 = APPLICATION_PROTOCOL_DEFINITION ( 'draft international standard', 'automotive_design', 1998, #72 ) ;
#36 = AXIS2_PLACEMENT_3D ( 'NONE', #97, #33, #57 ) ;
#37 = APPLICATION_PROTOCOL_DEFINITION ( 'draft international standard', 'automotive_design', 1998, #24 ) ;
#38 = PROPERTY_DEFINITION ('document property','', #59 ) ;
#39 =( NAMED_UNIT ( * ) SI_UNIT ( $, .STERADIAN. ) SOLID_ANGLE_UNIT ( ) );
#40 = DIRECTION ( 'NONE',  ( 0.000000000000000000, 0.000000000000000000, 1.000000000000000000 ) ) ;
#41 = DIRECTION ( 'NONE',  ( 1.000000000000000000, -1.806491472956117034E-28, 1.577721810442023611E-30 ) ) ;
#42 = PRODUCT_CONTEXT ( 'NONE', #54, 'mechanical' ) ;
#43 = UNCERTAINTY_MEASURE_WITH_UNIT (LENGTH_MEASURE( 1.000000000000000082E-05 ), #66, 'distance_accuracy_value', 'NONE');
#44 = PROPERTY_DEFINITION ('external definition','', #59 ) ;
#45 =( NAMED_UNIT ( * ) SI_UNIT ( $, .STERADIAN. ) SOLID_ANGLE_UNIT ( ) );
#46 = DIRECTION ( 'NONE',  ( 1.000000000000000000, 0.000000000000000000, 0.000000000000000000 ) ) ;
#47 = APPLICATION_CONTEXT ( 'automotive_design' ) ;
#48 = PROPERTY_DEFINITION_REPRESENTATION ( #25, #69 ) ;
#49 = APPLIED_DOCUMENT_REFERENCE ( #59,'',( #55) ) ;
#50 = DOCUMENT_FILE ( 'SiPM lens 2x1.STEP' , '', '', #18, '' ,$ ) ;
#51 = PRODUCT_DEFINITION ( 'General', '', #53, #64 ) ;
#52 = PRODUCT_DEFINITION_SHAPE ( 'NONE', 'NONE',  #55 ) ;
#53 = PRODUCT_DEFINITION_FORMATION_WITH_SPECIFIED_SOURCE ( 'Symmetric', '', #62, .NOT_KNOWN. ) ;
#54 = APPLICATION_CONTEXT ( 'automotive_design' ) ;
#55 = PRODUCT_DEFINITION ( 'General', '', #73, #6 ) ;
#56 = PRODUCT_DEFINITION_CONTEXT ( 'detailed design', #5, 'design' ) ;
#57 = DIRECTION ( 'NONE',  ( 1.000000000000000000, 0.000000000000000000, 0.000000000000000000 ) ) ;
#58 = AXIS2_PLACEMENT_3D ( 'NONE', #106, #40, #99 ) ;
#59 = DOCUMENT_FILE ( 'SiPM base 2x1.STEP' , '', '', #77, '' ,$ ) ;
#60 = APPLICATION_PROTOCOL_DEFINITION ( 'draft international standard', 'automotive_design', 1998, #54 ) ;
#61 = PROPERTY_DEFINITION_REPRESENTATION ( #38, #28 ) ;
#62 = PRODUCT ( 'SiPM 2x1', 'SiPM 2x1', '', ( #81 ) ) ;
#63 = AXIS2_PLACEMENT_3D ( 'NONE', #87, #82, #46 ) ;
#64 = PRODUCT_DEFINITION_CONTEXT ( 'detailed design', #96, 'design' ) ;
#65 = APPLIED_EXTERNAL_IDENTIFICATION_ASSIGNMENT ( 'SiPM lens 2x1.STEP' , #79, #4,( #50) ) ;
#66 =( LENGTH_UNIT ( ) NAMED_UNIT ( * ) SI_UNIT ( .MILLI., .METRE. ) );
#67 = EXTERNAL_SOURCE (IDENTIFIER('') ) ;
#68 =( NAMED_UNIT ( * ) PLANE_ANGLE_UNIT ( ) SI_UNIT ( $, .RADIAN. ) );
#69 = SHAPE_REPRESENTATION ( 'SiPM lens 2x1', ( #58 ), #13 ) ;
#70 =( GEOMETRIC_REPRESENTATION_CONTEXT ( 3 ) GLOBAL_UNCERTAINTY_ASSIGNED_CONTEXT ( ( #10 ) ) GLOBAL_UNIT_ASSIGNED_CONTEXT ( ( #92, #68, #39 ) ) REPRESENTATION_CONTEXT ( 'NONE', 'WORKASPACE' ) );
#71 = PRODUCT ( 'SiPM lens 2x1', 'SiPM lens 2x1', '', ( #3 ) ) ;
#72 = APPLICATION_CONTEXT ( 'automotive_design' ) ;
#73 = PRODUCT_DEFINITION_FORMATION_WITH_SPECIFIED_SOURCE ( 'Symmetric', '', #31, .NOT_KNOWN. ) ;
#74 =( NAMED_UNIT ( * ) PLANE_ANGLE_UNIT ( ) SI_UNIT ( $, .RADIAN. ) );
#75 =( REPRESENTATION_RELATIONSHIP ('NONE','NONE', #86, #69 ) REPRESENTATION_RELATIONSHIP_WITH_TRANSFORMATION ( #8 )SHAPE_REPRESENTATION_RELATIONSHIP( ) );
#76 = SHAPE_DEFINITION_REPRESENTATION ( #94, #86 ) ;
#77 = DOCUMENT_TYPE ( 'geometry' ) ;
#78 = PROPERTY_DEFINITION ('document property','', #50 ) ;
#79 = IDENTIFICATION_ROLE ( 'external document id and location', $) ;
#80 = CARTESIAN_POINT ( 'NONE',  ( 1.639217007859704367, 2.271704923740746285, 3.973171188005537591 ) ) ;
#81 = PRODUCT_CONTEXT ( 'NONE', #47, 'mechanical' ) ;
#82 = DIRECTION ( 'NONE',  ( 0.000000000000000000, 0.000000000000000000, 1.000000000000000000 ) ) ;
#83 = IDENTIFICATION_ROLE ( 'external document id and location', $) ;
#84 = PROPERTY_DEFINITION_REPRESENTATION ( #78, #69 ) ;
#85 = SHAPE_DEFINITION_REPRESENTATION ( #52, #28 ) ;
#86 = SHAPE_REPRESENTATION ( 'SiPM 2x1', ( #36, #16, #95 ), #70 ) ;
#87 = CARTESIAN_POINT ( 'NONE',  ( 0.000000000000000000, 0.000000000000000000, 0.000000000000000000 ) ) ;
#88 = CARTESIAN_POINT ( 'NONE',  ( 1.639217007859759878, 2.271704923740745397, 2.723171188005505172 ) ) ;
#89 = APPLIED_EXTERNAL_IDENTIFICATION_ASSIGNMENT ( 'SiPM base 2x1.STEP' , #83, #67,( #59) ) ;
#90 =( LENGTH_UNIT ( ) NAMED_UNIT ( * ) SI_UNIT ( .MILLI., .METRE. ) );
#91 = OBJECT_ROLE ('mandatory',$ ) ;
#92 =( LENGTH_UNIT ( ) NAMED_UNIT ( * ) SI_UNIT ( .MILLI., .METRE. ) );
#93 = PRODUCT_DEFINITION_SHAPE ( 'NONE', 'NONE',  #108 ) ;
#94 = PRODUCT_DEFINITION_SHAPE ( 'NONE', 'NONE',  #51 ) ;
#95 = AXIS2_PLACEMENT_3D ( 'NONE', #88, #27, #17 ) ;
#96 = APPLICATION_CONTEXT ( 'automotive_design' ) ;
#97 = CARTESIAN_POINT ( 'NONE',  ( 0.000000000000000000, 0.000000000000000000, 0.000000000000000000 ) ) ;
#98 = UNCERTAINTY_MEASURE_WITH_UNIT (LENGTH_MEASURE( 1.000000000000000082E-05 ), #90, 'distance_accuracy_value', 'NONE');
#99 = DIRECTION ( 'NONE',  ( 1.000000000000000000, 0.000000000000000000, 0.000000000000000000 ) ) ;
#100 = CONTEXT_DEPENDENT_SHAPE_REPRESENTATION ( #12, #104 ) ;
#101 = ITEM_DEFINED_TRANSFORMATION ( 'NONE', 'NONE', #16,  #63 ) ;
#102 = ROLE_ASSOCIATION ( #91, #49 ) ;
#103 = PRODUCT_DEFINITION ( 'General', '', #32, #56 ) ;
#104 = PRODUCT_DEFINITION_SHAPE ( 'NONE', 'NONE',  #107 ) ;
#105 =( GEOMETRIC_REPRESENTATION_CONTEXT ( 3 ) GLOBAL_UNCERTAINTY_ASSIGNED_CONTEXT ( ( #98 ) ) GLOBAL_UNIT_ASSIGNED_CONTEXT ( ( #90, #15, #45 ) ) REPRESENTATION_CONTEXT ( 'NONE', 'WORKASPACE' ) );
#106 = CARTESIAN_POINT ( 'NONE',  ( 0.000000000000000000, 0.000000000000000000, 0.000000000000000000 ) ) ;
#107 = NEXT_ASSEMBLY_USAGE_OCCURRENCE ( 'NAUO1', ' ', ' ', #51, #55, $ ) ;
#108 = NEXT_ASSEMBLY_USAGE_OCCURRENCE ( 'NAUO2', ' ', ' ', #51, #103, $ ) ;
ENDSEC;
END-ISO-10303-21;
