ISO-10303-21;
HEADER;
FILE_DESCRIPTION (( 'STEP AP214' ),
    '1' );
FILE_NAME ('AFBR-S4N66P024M Mount.STEP',
    '2026-01-09T11:21:24',
    ( '' ),
    ( '' ),
    'SwSTEP 2.0',
    'SolidWorks 2024',
    '' );
FILE_SCHEMA (( 'AUTOMOTIVE_DESIGN' ));
ENDSEC;

DATA;
#1 = UNCERTAINTY_MEASURE_WITH_UNIT (LENGTH_MEASURE( 1.000000000000000082E-05 ), #588, 'distance_accuracy_value', 'NONE');
#2 = VERTEX_POINT ( 'NONE', #1083 ) ;
#3 = LINE ( 'NONE', #92, #711 ) ;
#4 = CARTESIAN_POINT ( 'NONE',  ( 0.000000000000000000, 0.000000000000000000, 0.1000000000000000056 ) ) ;
#5 = STYLED_ITEM ( 'NONE', ( #746 ), #196 ) ;
#6 = CARTESIAN_POINT ( 'NONE',  ( -3.299999999999999822, 2.799999999999998490, 0.1000000000000000056 ) ) ;
#7 = AXIS2_PLACEMENT_3D ( 'NONE', #4, #188, #716 ) ;
#8 = CARTESIAN_POINT ( 'NONE',  ( -4.299999999999999822, -1.199999999999999734, 0.000000000000000000 ) ) ;
#9 = VECTOR ( 'NONE', #57, 1000.000000000000000 ) ;
#10 = VECTOR ( 'NONE', #99, 1000.000000000000000 ) ;
#11 = PLANE ( 'NONE',  #1134 ) ;
#12 =( LENGTH_UNIT ( ) NAMED_UNIT ( * ) SI_UNIT ( .MILLI., .METRE. ) );
#13 = LINE ( 'NONE', #472, #1053 ) ;
#14 =( LENGTH_UNIT ( ) NAMED_UNIT ( * ) SI_UNIT ( .MILLI., .METRE. ) );
#15 = VERTEX_POINT ( 'NONE', #463 ) ;
#16 = DIRECTION ( 'NONE',  ( -2.628368902995162518E-16, 1.000000000000000000, -0.000000000000000000 ) ) ;
#17 = EDGE_CURVE ( 'NONE', #636, #1057, #285, .T. ) ;
#18 = ORIENTED_EDGE ( 'NONE', *, *, #986, .T. ) ;
#19 = CARTESIAN_POINT ( 'NONE',  ( -4.299999999999999822, 2.799999999999998490, 0.000000000000000000 ) ) ;
#20 = PRESENTATION_LAYER_ASSIGNMENT (  '', '', ( #414 ) ) ;
#21 =( NAMED_UNIT ( * ) PLANE_ANGLE_UNIT ( ) SI_UNIT ( $, .RADIAN. ) );
#22 = FILL_AREA_STYLE_COLOUR ( '', #60 ) ;
#23 = EDGE_CURVE ( 'NONE', #766, #843, #359, .T. ) ;
#24 = ORIENTED_EDGE ( 'NONE', *, *, #564, .F. ) ;
#25 = COLOUR_RGB ( '',1.000000000000000000, 0.9098039215686274384, 0.2156862745098039325 ) ;
#26 = DIRECTION ( 'NONE',  ( -1.000000000000000000, -0.000000000000000000, -0.000000000000000000 ) ) ;
#27 = COLOUR_RGB ( '',1.000000000000000000, 0.9098039215686274384, 0.2156862745098039325 ) ;
#28 = AXIS2_PLACEMENT_3D ( 'NONE', #1013, #943, #214 ) ;
#29 = DIRECTION ( 'NONE',  ( 0.000000000000000000, -1.000000000000000000, 0.000000000000000000 ) ) ;
#30 =( NAMED_UNIT ( * ) PLANE_ANGLE_UNIT ( ) SI_UNIT ( $, .RADIAN. ) );
#31 = ORIENTED_EDGE ( 'NONE', *, *, #995, .F. ) ;
#32 = DIRECTION ( 'NONE',  ( -2.168404344971008868E-16, -1.000000000000000000, 0.000000000000000000 ) ) ;
#33 = EDGE_CURVE ( 'NONE', #1057, #909, #816, .T. ) ;
#34 = SURFACE_SIDE_STYLE ('',( #826 ) ) ;
#35 = FACE_BOUND ( 'NONE', #1066, .T. ) ;
#36 = DIRECTION ( 'NONE',  ( -0.000000000000000000, -0.000000000000000000, -1.000000000000000000 ) ) ;
#37 = ORIENTED_EDGE ( 'NONE', *, *, #966, .T. ) ;
#38 = DIRECTION ( 'NONE',  ( 2.168404344971008868E-16, -1.000000000000000000, 0.000000000000000000 ) ) ;
#39 = ADVANCED_FACE ( 'NONE', ( #901 ), #802, .F. ) ;
#40 = DIRECTION ( 'NONE',  ( -0.000000000000000000, -0.000000000000000000, -1.000000000000000000 ) ) ;
#41 = MECHANICAL_DESIGN_GEOMETRIC_PRESENTATION_REPRESENTATION (  '', ( #452 ), #639 ) ;
#42 = FACE_OUTER_BOUND ( 'NONE', #1090, .T. ) ;
#43 = CARTESIAN_POINT ( 'NONE',  ( -3.299999999999999822, 2.799999999999998490, 0.000000000000000000 ) ) ;
#44 = ORIENTED_EDGE ( 'NONE', *, *, #557, .T. ) ;
#45 = CARTESIAN_POINT ( 'NONE',  ( 6.000000000000000000, 2.800000000000001155, 0.1000000000000000056 ) ) ;
#46 = PRESENTATION_LAYER_ASSIGNMENT (  '', '', ( #1039 ) ) ;
#47 = MECHANICAL_DESIGN_GEOMETRIC_PRESENTATION_REPRESENTATION (  '', ( #357 ), #955 ) ;
#48 = VECTOR ( 'NONE', #220, 1000.000000000000000 ) ;
#49 = AXIS2_PLACEMENT_3D ( 'NONE', #1075, #376, #204 ) ;
#50 = EDGE_CURVE ( 'NONE', #159, #343, #13, .T. ) ;
#51 = SURFACE_STYLE_FILL_AREA ( #492 ) ;
#52 = PRESENTATION_STYLE_ASSIGNMENT (( #828 ) ) ;
#53 = ORIENTED_EDGE ( 'NONE', *, *, #1006, .T. ) ;
#54 =( NAMED_UNIT ( * ) SI_UNIT ( $, .STERADIAN. ) SOLID_ANGLE_UNIT ( ) );
#55 =( LENGTH_UNIT ( ) NAMED_UNIT ( * ) SI_UNIT ( .MILLI., .METRE. ) );
#56 = SURFACE_STYLE_FILL_AREA ( #320 ) ;
#57 = DIRECTION ( 'NONE',  ( -0.000000000000000000, -0.000000000000000000, -1.000000000000000000 ) ) ;
#58 = VERTEX_POINT ( 'NONE', #648 ) ;
#59 = FILL_AREA_STYLE_COLOUR ( '', #630 ) ;
#60 = COLOUR_RGB ( '',1.000000000000000000, 0.9098039215686274384, 0.2156862745098039325 ) ;
#61 =( GEOMETRIC_REPRESENTATION_CONTEXT ( 3 ) GLOBAL_UNCERTAINTY_ASSIGNED_CONTEXT ( ( #1 ) ) GLOBAL_UNIT_ASSIGNED_CONTEXT ( ( #588, #491, #582 ) ) REPRESENTATION_CONTEXT ( 'NONE', 'WORKASPACE' ) );
#62 = CARTESIAN_POINT ( 'NONE',  ( 6.799999999999998046, 3.299999999999999822, 0.000000000000000000 ) ) ;
#63 = ORIENTED_EDGE ( 'NONE', *, *, #490, .F. ) ;
#64 = ADVANCED_FACE ( 'NONE', ( #199 ), #205, .F. ) ;
#65 = SURFACE_STYLE_USAGE ( .BOTH. , #228 ) ;
#66 = PRESENTATION_STYLE_ASSIGNMENT (( #325 ) ) ;
#67 = AXIS2_PLACEMENT_3D ( 'NONE', #143, #1027, #1032 ) ;
#68 = AXIS2_PLACEMENT_3D ( 'NONE', #250, #1043, #430 ) ;
#69 = VECTOR ( 'NONE', #908, 1000.000000000000000 ) ;
#70 = VERTEX_POINT ( 'NONE', #667 ) ;
#71 = SURFACE_SIDE_STYLE ('',( #426 ) ) ;
#72 = EDGE_CURVE ( 'NONE', #87, #305, #1109, .T. ) ;
#73 = DIRECTION ( 'NONE',  ( 0.000000000000000000, -0.000000000000000000, -1.000000000000000000 ) ) ;
#74 = ORIENTED_EDGE ( 'NONE', *, *, #698, .F. ) ;
#75 = FILL_AREA_STYLE_COLOUR ( '', #857 ) ;
#76 =( LENGTH_UNIT ( ) NAMED_UNIT ( * ) SI_UNIT ( .MILLI., .METRE. ) );
#77 = ORIENTED_EDGE ( 'NONE', *, *, #518, .T. ) ;
#78 =( GEOMETRIC_REPRESENTATION_CONTEXT ( 3 ) GLOBAL_UNCERTAINTY_ASSIGNED_CONTEXT ( ( #447 ) ) GLOBAL_UNIT_ASSIGNED_CONTEXT ( ( #558, #806, #1068 ) ) REPRESENTATION_CONTEXT ( 'NONE', 'WORKASPACE' ) );
#79 = FILL_AREA_STYLE ('',( #614 ) ) ;
#80 = CARTESIAN_POINT ( 'NONE',  ( -6.800000000000000711, -3.299999999999999822, -1.399999999999999911 ) ) ;
#81 =( NAMED_UNIT ( * ) SI_UNIT ( $, .STERADIAN. ) SOLID_ANGLE_UNIT ( ) );
#82 = SURFACE_SIDE_STYLE ('',( #445 ) ) ;
#83 =( GEOMETRIC_REPRESENTATION_CONTEXT ( 3 ) GLOBAL_UNCERTAINTY_ASSIGNED_CONTEXT ( ( #304 ) ) GLOBAL_UNIT_ASSIGNED_CONTEXT ( ( #171, #525, #427 ) ) REPRESENTATION_CONTEXT ( 'NONE', 'WORKASPACE' ) );
#84 = VECTOR ( 'NONE', #904, 1000.000000000000000 ) ;
#85 = ADVANCED_FACE ( 'NONE', ( #42, #398, #1103, #391, #35 ), #315, .T. ) ;
#86 = UNCERTAINTY_MEASURE_WITH_UNIT (LENGTH_MEASURE( 1.000000000000000082E-05 ), #369, 'distance_accuracy_value', 'NONE');
#87 = VERTEX_POINT ( 'NONE', #915 ) ;
#88 = COLOUR_RGB ( '',1.000000000000000000, 0.9098039215686274384, 0.2156862745098039325 ) ;
#89 = LINE ( 'NONE', #789, #302 ) ;
#90 = FILL_AREA_STYLE ('',( #198 ) ) ;
#91 = EDGE_LOOP ( 'NONE', ( #685, #1084, #623, #125 ) ) ;
#92 = CARTESIAN_POINT ( 'NONE',  ( -4.299999999999999822, -1.199999999999999734, 0.1000000000000000056 ) ) ;
#93 = DIRECTION ( 'NONE',  ( -2.168404344971008868E-16, 1.000000000000000000, -0.000000000000000000 ) ) ;
#94 = CARTESIAN_POINT ( 'NONE',  ( 4.299999999999999822, 2.799999999999999378, 0.1000000000000000056 ) ) ;
#95 = PLANE ( 'NONE',  #308 ) ;
#96 = EDGE_CURVE ( 'NONE', #804, #705, #925, .T. ) ;
#97 = VECTOR ( 'NONE', #514, 1000.000000000000000 ) ;
#98 =( LENGTH_UNIT ( ) NAMED_UNIT ( * ) SI_UNIT ( .MILLI., .METRE. ) );
#99 = DIRECTION ( 'NONE',  ( 0.000000000000000000, -1.000000000000000000, 0.000000000000000000 ) ) ;
#100 = AXIS2_PLACEMENT_3D ( 'NONE', #976, #528, #784 ) ;
#101 = COLOUR_RGB ( '',1.000000000000000000, 0.9098039215686274384, 0.2156862745098039325 ) ;
#102 = DIRECTION ( 'NONE',  ( -1.000000000000000000, 0.000000000000000000, 0.000000000000000000 ) ) ;
#103 = COLOUR_RGB ( '',1.000000000000000000, 0.9098039215686274384, 0.2156862745098039325 ) ;
#104 = FILL_AREA_STYLE_COLOUR ( '', #626 ) ;
#105 = PRESENTATION_STYLE_ASSIGNMENT (( #538 ) ) ;
#106 = ORIENTED_EDGE ( 'NONE', *, *, #776, .T. ) ;
#107 = CARTESIAN_POINT ( 'NONE',  ( 6.000000000000000000, 2.800000000000001155, 0.000000000000000000 ) ) ;
#108 = FACE_OUTER_BOUND ( 'NONE', #929, .T. ) ;
#109 = CARTESIAN_POINT ( 'NONE',  ( -6.800000000000001599, 3.299999999999999822, -1.399999999999999911 ) ) ;
#110 = EDGE_CURVE ( 'NONE', #1057, #385, #219, .T. ) ;
#111 =( NAMED_UNIT ( * ) PLANE_ANGLE_UNIT ( ) SI_UNIT ( $, .RADIAN. ) );
#112 = LINE ( 'NONE', #981, #719 ) ;
#113 = ORIENTED_EDGE ( 'NONE', *, *, #261, .F. ) ;
#114 = DIRECTION ( 'NONE',  ( 0.000000000000000000, 0.000000000000000000, 1.000000000000000000 ) ) ;
#115 = LINE ( 'NONE', #478, #175 ) ;
#116 = VECTOR ( 'NONE', #794, 1000.000000000000000 ) ;
#117 = ADVANCED_FACE ( 'NONE', ( #123 ), #827, .F. ) ;
#118 = ORIENTED_EDGE ( 'NONE', *, *, #23, .F. ) ;
#119 = STYLED_ITEM ( 'NONE', ( #706 ), #332 ) ;
#120 = DIRECTION ( 'NONE',  ( -1.000000000000000000, -0.000000000000000000, -0.000000000000000000 ) ) ;
#121 = PRESENTATION_LAYER_ASSIGNMENT (  '', '', ( #753 ) ) ;
#122 = FILL_AREA_STYLE_COLOUR ( '', #496 ) ;
#123 = FACE_OUTER_BOUND ( 'NONE', #691, .T. ) ;
#124 = CARTESIAN_POINT ( 'NONE',  ( 4.299999999999999822, -1.199999999999998623, 0.000000000000000000 ) ) ;
#125 = ORIENTED_EDGE ( 'NONE', *, *, #1064, .F. ) ;
#126 = EDGE_CURVE ( 'NONE', #58, #804, #375, .T. ) ;
#127 = LINE ( 'NONE', #387, #645 ) ;
#128 = PRESENTATION_STYLE_ASSIGNMENT (( #849 ) ) ;
#129 = CARTESIAN_POINT ( 'NONE',  ( 3.299999999999998934, 2.799999999999999378, 0.1000000000000000056 ) ) ;
#130 = UNCERTAINTY_MEASURE_WITH_UNIT (LENGTH_MEASURE( 1.000000000000000082E-05 ), #98, 'distance_accuracy_value', 'NONE');
#131 = ORIENTED_EDGE ( 'NONE', *, *, #830, .T. ) ;
#132 = PRESENTATION_STYLE_ASSIGNMENT (( #670 ) ) ;
#133 = ADVANCED_FACE ( 'NONE', ( #108 ), #740, .F. ) ;
#134 = VECTOR ( 'NONE', #296, 1000.000000000000000 ) ;
#135 = COLOUR_RGB ( '',1.000000000000000000, 0.9098039215686274384, 0.2156862745098039325 ) ;
#136 = DIRECTION ( 'NONE',  ( -0.000000000000000000, -0.000000000000000000, -1.000000000000000000 ) ) ;
#137 =( NAMED_UNIT ( * ) SI_UNIT ( $, .STERADIAN. ) SOLID_ANGLE_UNIT ( ) );
#138 = ORIENTED_EDGE ( 'NONE', *, *, #846, .F. ) ;
#139 = SURFACE_SIDE_STYLE ('',( #1106 ) ) ;
#140 = MECHANICAL_DESIGN_GEOMETRIC_PRESENTATION_REPRESENTATION (  '', ( #1100 ), #607 ) ;
#141 = STYLED_ITEM ( 'NONE', ( #768 ), #679 ) ;
#142 = FACE_OUTER_BOUND ( 'NONE', #1035, .T. ) ;
#143 = CARTESIAN_POINT ( 'NONE',  ( -5.999999999999999112, -1.200000000000000178, 0.1000000000000000056 ) ) ;
#144 =( GEOMETRIC_REPRESENTATION_CONTEXT ( 3 ) GLOBAL_UNCERTAINTY_ASSIGNED_CONTEXT ( ( #858 ) ) GLOBAL_UNIT_ASSIGNED_CONTEXT ( ( #153, #1121, #137 ) ) REPRESENTATION_CONTEXT ( 'NONE', 'WORKASPACE' ) );
#145 =( LENGTH_UNIT ( ) NAMED_UNIT ( * ) SI_UNIT ( .MILLI., .METRE. ) );
#146 = LINE ( 'NONE', #224, #9 ) ;
#147 = UNCERTAINTY_MEASURE_WITH_UNIT (LENGTH_MEASURE( 1.000000000000000082E-05 ), #1088, 'distance_accuracy_value', 'NONE');
#148 = VERTEX_POINT ( 'NONE', #1082 ) ;
#149 = DIRECTION ( 'NONE',  ( 2.168404344971008868E-16, 1.000000000000000000, -0.000000000000000000 ) ) ;
#150 = DIRECTION ( 'NONE',  ( 0.000000000000000000, 0.000000000000000000, 1.000000000000000000 ) ) ;
#151 = PLANE ( 'NONE',  #67 ) ;
#152 = EDGE_CURVE ( 'NONE', #385, #993, #115, .T. ) ;
#153 =( LENGTH_UNIT ( ) NAMED_UNIT ( * ) SI_UNIT ( .MILLI., .METRE. ) );
#154 = EDGE_LOOP ( 'NONE', ( #880, #574, #547, #694 ) ) ;
#155 = LINE ( 'NONE', #45, #1058 ) ;
#156 = DIRECTION ( 'NONE',  ( -0.000000000000000000, -0.000000000000000000, -1.000000000000000000 ) ) ;
#157 = STYLED_ITEM ( 'NONE', ( #128 ), #236 ) ;
#158 = UNCERTAINTY_MEASURE_WITH_UNIT (LENGTH_MEASURE( 1.000000000000000082E-05 ), #437, 'distance_accuracy_value', 'NONE');
#159 = VERTEX_POINT ( 'NONE', #1087 ) ;
#160 = FILL_AREA_STYLE ('',( #170 ) ) ;
#161 = PLANE ( 'NONE',  #891 ) ;
#162 = LINE ( 'NONE', #855, #181 ) ;
#163 = AXIS2_PLACEMENT_3D ( 'NONE', #94, #967, #878 ) ;
#164 = VERTEX_POINT ( 'NONE', #894 ) ;
#165 =( NAMED_UNIT ( * ) PLANE_ANGLE_UNIT ( ) SI_UNIT ( $, .RADIAN. ) );
#166 = LINE ( 'NONE', #695, #116 ) ;
#167 = LINE ( 'NONE', #341, #284 ) ;
#168 = UNCERTAINTY_MEASURE_WITH_UNIT (LENGTH_MEASURE( 1.000000000000000082E-05 ), #920, 'distance_accuracy_value', 'NONE');
#169 = EDGE_LOOP ( 'NONE', ( #890, #31, #613, #743 ) ) ;
#170 = FILL_AREA_STYLE_COLOUR ( '', #571 ) ;
#171 =( LENGTH_UNIT ( ) NAMED_UNIT ( * ) SI_UNIT ( .MILLI., .METRE. ) );
#172 = SURFACE_STYLE_FILL_AREA ( #542 ) ;
#173 = MECHANICAL_DESIGN_GEOMETRIC_PRESENTATION_REPRESENTATION (  '', ( #414 ), #319 ) ;
#174 = ORIENTED_EDGE ( 'NONE', *, *, #190, .F. ) ;
#175 = VECTOR ( 'NONE', #644, 1000.000000000000000 ) ;
#176 = FACE_OUTER_BOUND ( 'NONE', #851, .T. ) ;
#177 = SURFACE_STYLE_USAGE ( .BOTH. , #951 ) ;
#178 =( NAMED_UNIT ( * ) SI_UNIT ( $, .STERADIAN. ) SOLID_ANGLE_UNIT ( ) );
#179 = FACE_OUTER_BOUND ( 'NONE', #1024, .T. ) ;
#180 = EDGE_CURVE ( 'NONE', #843, #937, #1092, .T. ) ;
#181 = VECTOR ( 'NONE', #410, 1000.000000000000000 ) ;
#182 = VECTOR ( 'NONE', #26, 1000.000000000000000 ) ;
#183 = UNCERTAINTY_MEASURE_WITH_UNIT (LENGTH_MEASURE( 1.000000000000000082E-05 ), #233, 'distance_accuracy_value', 'NONE');
#184 = EDGE_LOOP ( 'NONE', ( #864, #1000, #699, #131 ) ) ;
#185 = AXIS2_PLACEMENT_3D ( 'NONE', #1130, #255, #868 ) ;
#186 = PLANE ( 'NONE',  #68 ) ;
#187 =( NAMED_UNIT ( * ) PLANE_ANGLE_UNIT ( ) SI_UNIT ( $, .RADIAN. ) );
#188 = DIRECTION ( 'NONE',  ( 0.000000000000000000, 0.000000000000000000, -1.000000000000000000 ) ) ;
#189 = DIRECTION ( 'NONE',  ( 0.000000000000000000, -1.000000000000000000, 0.000000000000000000 ) ) ;
#190 = EDGE_CURVE ( 'NONE', #1105, #2, #300, .T. ) ;
#191 = ORIENTED_EDGE ( 'NONE', *, *, #564, .T. ) ;
#192 = PRESENTATION_STYLE_ASSIGNMENT (( #1065 ) ) ;
#193 = PRESENTATION_STYLE_ASSIGNMENT (( #1128 ) ) ;
#194 = CARTESIAN_POINT ( 'NONE',  ( -4.299999999999999822, 2.799999999999998490, 0.000000000000000000 ) ) ;
#195 = ORIENTED_EDGE ( 'NONE', *, *, #606, .T. ) ;
#196 = ADVANCED_FACE ( 'NONE', ( #569 ), #913, .F. ) ;
#197 = CARTESIAN_POINT ( 'NONE',  ( 5.000000000000000000, 2.800000000000001155, 0.000000000000000000 ) ) ;
#198 = FILL_AREA_STYLE_COLOUR ( '', #877 ) ;
#199 = FACE_OUTER_BOUND ( 'NONE', #393, .T. ) ;
#200 =( LENGTH_UNIT ( ) NAMED_UNIT ( * ) SI_UNIT ( .MILLI., .METRE. ) );
#201 = EDGE_LOOP ( 'NONE', ( #113, #409, #77, #482 ) ) ;
#202 = CARTESIAN_POINT ( 'NONE',  ( -4.299999999999999822, -1.199999999999999734, 0.000000000000000000 ) ) ;
#203 = SURFACE_STYLE_FILL_AREA ( #990 ) ;
#204 = DIRECTION ( 'NONE',  ( 1.000000000000000000, 0.000000000000000000, 0.000000000000000000 ) ) ;
#205 = PLANE ( 'NONE',  #395 ) ;
#206 = FILL_AREA_STYLE ('',( #297 ) ) ;
#207 = ORIENTED_EDGE ( 'NONE', *, *, #96, .T. ) ;
#208 = DIRECTION ( 'NONE',  ( -0.000000000000000000, -0.000000000000000000, -1.000000000000000000 ) ) ;
#209 = EDGE_CURVE ( 'NONE', #2, #148, #310, .T. ) ;
#210 = DIRECTION ( 'NONE',  ( -2.168404344971008868E-16, 1.000000000000000000, 0.000000000000000000 ) ) ;
#211 = ORIENTED_EDGE ( 'NONE', *, *, #336, .F. ) ;
#212 = CARTESIAN_POINT ( 'NONE',  ( -4.299999999999999822, 2.799999999999998490, 0.1000000000000000056 ) ) ;
#213 = SURFACE_STYLE_USAGE ( .BOTH. , #487 ) ;
#214 = DIRECTION ( 'NONE',  ( -0.000000000000000000, 0.000000000000000000, -1.000000000000000000 ) ) ;
#215 = ORIENTED_EDGE ( 'NONE', *, *, #50, .T. ) ;
#216 = VECTOR ( 'NONE', #831, 1000.000000000000000 ) ;
#217 = CARTESIAN_POINT ( 'NONE',  ( -3.299999999999999378, -1.199999999999999734, 0.000000000000000000 ) ) ;
#218 = VECTOR ( 'NONE', #760, 1000.000000000000000 ) ;
#219 = LINE ( 'NONE', #408, #1054 ) ;
#220 = DIRECTION ( 'NONE',  ( -0.000000000000000000, -0.000000000000000000, -1.000000000000000000 ) ) ;
#221 = ORIENTED_EDGE ( 'NONE', *, *, #50, .F. ) ;
#222 = FILL_AREA_STYLE_COLOUR ( '', #282 ) ;
#223 =( NAMED_UNIT ( * ) PLANE_ANGLE_UNIT ( ) SI_UNIT ( $, .RADIAN. ) );
#224 = CARTESIAN_POINT ( 'NONE',  ( -3.299999999999999378, -1.199999999999999734, 0.1000000000000000056 ) ) ;
#225 = UNCERTAINTY_MEASURE_WITH_UNIT (LENGTH_MEASURE( 1.000000000000000082E-05 ), #1011, 'distance_accuracy_value', 'NONE');
#226 = ORIENTED_EDGE ( 'NONE', *, *, #96, .F. ) ;
#227 = FACE_OUTER_BOUND ( 'NONE', #982, .T. ) ;
#228 = SURFACE_SIDE_STYLE ('',( #854 ) ) ;
#229 =( NAMED_UNIT ( * ) SI_UNIT ( $, .STERADIAN. ) SOLID_ANGLE_UNIT ( ) );
#230 = COLOUR_RGB ( '',1.000000000000000000, 0.9098039215686274384, 0.2156862745098039325 ) ;
#231 = DIRECTION ( 'NONE',  ( -2.168404344971008868E-16, 1.000000000000000000, -0.000000000000000000 ) ) ;
#232 = VERTEX_POINT ( 'NONE', #1031 ) ;
#233 =( LENGTH_UNIT ( ) NAMED_UNIT ( * ) SI_UNIT ( .MILLI., .METRE. ) );
#234 =( GEOMETRIC_REPRESENTATION_CONTEXT ( 3 ) GLOBAL_UNCERTAINTY_ASSIGNED_CONTEXT ( ( #348 ) ) GLOBAL_UNIT_ASSIGNED_CONTEXT ( ( #961, #1048, #178 ) ) REPRESENTATION_CONTEXT ( 'NONE', 'WORKASPACE' ) );
#235 = VECTOR ( 'NONE', #102, 1000.000000000000000 ) ;
#236 = ADVANCED_FACE ( 'NONE', ( #924 ), #671, .T. ) ;
#237 = PRODUCT_DEFINITION_FORMATION_WITH_SPECIFIED_SOURCE ( 'ANY', '', #732, .NOT_KNOWN. ) ;
#238 = CARTESIAN_POINT ( 'NONE',  ( 3.299999999999999378, -1.199999999999998845, 0.1000000000000000056 ) ) ;
#239 = FILL_AREA_STYLE ('',( #316 ) ) ;
#240 = ORIENTED_EDGE ( 'NONE', *, *, #830, .F. ) ;
#241 = LINE ( 'NONE', #870, #1005 ) ;
#242 = VERTEX_POINT ( 'NONE', #932 ) ;
#243 = CARTESIAN_POINT ( 'NONE',  ( -5.000000000000000000, 2.799999999999999822, 0.1000000000000000056 ) ) ;
#244 = DIRECTION ( 'NONE',  ( 0.000000000000000000, -1.000000000000000000, 0.000000000000000000 ) ) ;
#245 = SURFACE_SIDE_STYLE ('',( #1118 ) ) ;
#246 = EDGE_CURVE ( 'NONE', #909, #993, #680, .T. ) ;
#247 = MECHANICAL_DESIGN_GEOMETRIC_PRESENTATION_REPRESENTATION (  '', ( #930 ), #78 ) ;
#248 = ADVANCED_BREP_SHAPE_REPRESENTATION ( 'AFBR-S4N66P024M Mount', ( #467, #49 ), #938 ) ;
#249 = ORIENTED_EDGE ( 'NONE', *, *, #152, .F. ) ;
#250 = CARTESIAN_POINT ( 'NONE',  ( 5.000000000000000000, 2.800000000000001155, 0.1000000000000000056 ) ) ;
#251 = DIRECTION ( 'NONE',  ( 1.000000000000000000, 0.000000000000000000, 0.000000000000000000 ) ) ;
#252 = SURFACE_STYLE_FILL_AREA ( #1038 ) ;
#253 = STYLED_ITEM ( 'NONE', ( #105 ), #1033 ) ;
#254 = EDGE_LOOP ( 'NONE', ( #585, #221, #417, #638 ) ) ;
#255 = DIRECTION ( 'NONE',  ( 0.000000000000000000, 1.000000000000000000, 0.000000000000000000 ) ) ;
#256 = EDGE_CURVE ( 'NONE', #1069, #305, #837, .T. ) ;
#257 = SURFACE_STYLE_FILL_AREA ( #709 ) ;
#258 = SURFACE_STYLE_USAGE ( .BOTH. , #335 ) ;
#259 = ORIENTED_EDGE ( 'NONE', *, *, #621, .F. ) ;
#260 = FACE_OUTER_BOUND ( 'NONE', #950, .T. ) ;
#261 = EDGE_CURVE ( 'NONE', #871, #843, #757, .T. ) ;
#262 = PRESENTATION_LAYER_ASSIGNMENT (  '', '', ( #795 ) ) ;
#263 = VERTEX_POINT ( 'NONE', #413 ) ;
#264 =( GEOMETRIC_REPRESENTATION_CONTEXT ( 3 ) GLOBAL_UNCERTAINTY_ASSIGNED_CONTEXT ( ( #130 ) ) GLOBAL_UNIT_ASSIGNED_CONTEXT ( ( #98, #362, #549 ) ) REPRESENTATION_CONTEXT ( 'NONE', 'WORKASPACE' ) );
#265 =( NAMED_UNIT ( * ) PLANE_ANGLE_UNIT ( ) SI_UNIT ( $, .RADIAN. ) );
#266 = PRESENTATION_LAYER_ASSIGNMENT (  '', '', ( #770 ) ) ;
#267 =( NAMED_UNIT ( * ) SI_UNIT ( $, .STERADIAN. ) SOLID_ANGLE_UNIT ( ) );
#268 = ADVANCED_FACE ( 'NONE', ( #142 ), #946, .T. ) ;
#269 = PRESENTATION_LAYER_ASSIGNMENT (  '', '', ( #773 ) ) ;
#270 = EDGE_LOOP ( 'NONE', ( #669, #761, #249, #917 ) ) ;
#271 = MECHANICAL_DESIGN_GEOMETRIC_PRESENTATION_REPRESENTATION (  '', ( #253 ), #914 ) ;
#272 = AXIS2_PLACEMENT_3D ( 'NONE', #973, #1145, #796 ) ;
#273 = CARTESIAN_POINT ( 'NONE',  ( -5.000000000000000000, 2.799999999999999822, 0.1000000000000000056 ) ) ;
#274 = SURFACE_STYLE_FILL_AREA ( #545 ) ;
#275 = SURFACE_SIDE_STYLE ('',( #803 ) ) ;
#276 = ORIENTED_EDGE ( 'NONE', *, *, #1034, .F. ) ;
#277 = DIRECTION ( 'NONE',  ( -1.000000000000000000, -0.000000000000000000, -0.000000000000000000 ) ) ;
#278 = DIRECTION ( 'NONE',  ( 2.168404344971008868E-16, -1.000000000000000000, 0.000000000000000000 ) ) ;
#279 = ORIENTED_EDGE ( 'NONE', *, *, #17, .T. ) ;
#280 =( GEOMETRIC_REPRESENTATION_CONTEXT ( 3 ) GLOBAL_UNCERTAINTY_ASSIGNED_CONTEXT ( ( #592 ) ) GLOBAL_UNIT_ASSIGNED_CONTEXT ( ( #290, #111, #364 ) ) REPRESENTATION_CONTEXT ( 'NONE', 'WORKASPACE' ) );
#281 = LINE ( 'NONE', #899, #84 ) ;
#282 = COLOUR_RGB ( '',0.3294117647058823484, 0.5921568627450980449, 0.000000000000000000 ) ;
#283 = DIRECTION ( 'NONE',  ( 1.000000000000000000, 0.000000000000000000, 0.000000000000000000 ) ) ;
#284 = VECTOR ( 'NONE', #93, 1000.000000000000000 ) ;
#285 = LINE ( 'NONE', #741, #852 ) ;
#286 = ORIENTED_EDGE ( 'NONE', *, *, #521, .F. ) ;
#287 = DIRECTION ( 'NONE',  ( -0.000000000000000000, -0.000000000000000000, -1.000000000000000000 ) ) ;
#288 =( NAMED_UNIT ( * ) SI_UNIT ( $, .STERADIAN. ) SOLID_ANGLE_UNIT ( ) );
#289 = CARTESIAN_POINT ( 'NONE',  ( 6.000000000000000000, 2.800000000000001155, 0.1000000000000000056 ) ) ;
#290 =( LENGTH_UNIT ( ) NAMED_UNIT ( * ) SI_UNIT ( .MILLI., .METRE. ) );
#291 = LINE ( 'NONE', #655, #235 ) ;
#292 = ORIENTED_EDGE ( 'NONE', *, *, #152, .T. ) ;
#293 = LINE ( 'NONE', #568, #985 ) ;
#294 = EDGE_CURVE ( 'NONE', #513, #475, #166, .T. ) ;
#295 = CARTESIAN_POINT ( 'NONE',  ( -6.800000000000001599, 3.299999999999999822, 0.000000000000000000 ) ) ;
#296 = DIRECTION ( 'NONE',  ( 0.000000000000000000, 0.000000000000000000, 1.000000000000000000 ) ) ;
#297 = FILL_AREA_STYLE_COLOUR ( '', #88 ) ;
#298 = ORIENTED_EDGE ( 'NONE', *, *, #1085, .T. ) ;
#299 = LINE ( 'NONE', #202, #666 ) ;
#300 = LINE ( 'NONE', #212, #997 ) ;
#301 = EDGE_CURVE ( 'NONE', #70, #242, #3, .T. ) ;
#302 = VECTOR ( 'NONE', #862, 1000.000000000000000 ) ;
#303 = LINE ( 'NONE', #507, #1042 ) ;
#304 = UNCERTAINTY_MEASURE_WITH_UNIT (LENGTH_MEASURE( 1.000000000000000082E-05 ), #171, 'distance_accuracy_value', 'NONE');
#305 = VERTEX_POINT ( 'NONE', #541 ) ;
#306 = VECTOR ( 'NONE', #978, 1000.000000000000000 ) ;
#307 = FILL_AREA_STYLE ('',( #412 ) ) ;
#308 = AXIS2_PLACEMENT_3D ( 'NONE', #889, #635, #977 ) ;
#309 =( GEOMETRIC_REPRESENTATION_CONTEXT ( 3 ) GLOBAL_UNCERTAINTY_ASSIGNED_CONTEXT ( ( #501 ) ) GLOBAL_UNIT_ASSIGNED_CONTEXT ( ( #774, #21, #653 ) ) REPRESENTATION_CONTEXT ( 'NONE', 'WORKASPACE' ) );
#310 = LINE ( 'NONE', #919, #661 ) ;
#311 = SURFACE_STYLE_USAGE ( .BOTH. , #1012 ) ;
#312 = EDGE_CURVE ( 'NONE', #829, #159, #334, .T. ) ;
#313 = DIRECTION ( 'NONE',  ( -0.000000000000000000, -0.000000000000000000, -1.000000000000000000 ) ) ;
#314 = ORIENTED_EDGE ( 'NONE', *, *, #318, .T. ) ;
#315 = PLANE ( 'NONE',  #964 ) ;
#316 = FILL_AREA_STYLE_COLOUR ( '', #522 ) ;
#317 = VERTEX_POINT ( 'NONE', #80 ) ;
#318 = EDGE_CURVE ( 'NONE', #87, #829, #702, .T. ) ;
#319 =( GEOMETRIC_REPRESENTATION_CONTEXT ( 3 ) GLOBAL_UNCERTAINTY_ASSIGNED_CONTEXT ( ( #512 ) ) GLOBAL_UNIT_ASSIGNED_CONTEXT ( ( #145, #1016, #1096 ) ) REPRESENTATION_CONTEXT ( 'NONE', 'WORKASPACE' ) );
#320 = FILL_AREA_STYLE ('',( #754 ) ) ;
#321 = CARTESIAN_POINT ( 'NONE',  ( -4.999999999999999112, -1.200000000000000178, 0.000000000000000000 ) ) ;
#322 = ORIENTED_EDGE ( 'NONE', *, *, #484, .F. ) ;
#323 = SURFACE_SIDE_STYLE ('',( #629 ) ) ;
#324 = AXIS2_PLACEMENT_3D ( 'NONE', #243, #1099, #38 ) ;
#325 = SURFACE_STYLE_USAGE ( .BOTH. , #422 ) ;
#326 = VECTOR ( 'NONE', #1023, 1000.000000000000000 ) ;
#327 = CARTESIAN_POINT ( 'NONE',  ( -4.299999999999999822, 2.799999999999998490, 0.1000000000000000056 ) ) ;
#328 = ORIENTED_EDGE ( 'NONE', *, *, #1070, .T. ) ;
#329 = FILL_AREA_STYLE ('',( #598 ) ) ;
#330 = CARTESIAN_POINT ( 'NONE',  ( -6.800000000000001599, 3.299999999999999822, -1.399999999999999911 ) ) ;
#331 = FACE_OUTER_BOUND ( 'NONE', #465, .T. ) ;
#332 = ADVANCED_FACE ( 'NONE', ( #616 ), #161, .F. ) ;
#333 = ORIENTED_EDGE ( 'NONE', *, *, #484, .T. ) ;
#334 = LINE ( 'NONE', #882, #433 ) ;
#335 = SURFACE_SIDE_STYLE ('',( #172 ) ) ;
#336 = EDGE_CURVE ( 'NONE', #705, #962, #1127, .T. ) ;
#337 = UNCERTAINTY_MEASURE_WITH_UNIT (LENGTH_MEASURE( 1.000000000000000082E-05 ), #403, 'distance_accuracy_value', 'NONE');
#338 = ORIENTED_EDGE ( 'NONE', *, *, #301, .T. ) ;
#339 = DIRECTION ( 'NONE',  ( 1.000000000000000000, 1.084202172485504927E-16, -0.000000000000000000 ) ) ;
#340 = FILL_AREA_STYLE_COLOUR ( '', #1133 ) ;
#341 = CARTESIAN_POINT ( 'NONE',  ( -5.000000000000000000, 2.799999999999999822, 0.000000000000000000 ) ) ;
#342 = PRESENTATION_LAYER_ASSIGNMENT (  '', '', ( #956 ) ) ;
#343 = VERTEX_POINT ( 'NONE', #523 ) ;
#344 = EDGE_CURVE ( 'NONE', #232, #649, #89, .T. ) ;
#345 = FILL_AREA_STYLE ('',( #603 ) ) ;
#346 = PRESENTATION_STYLE_ASSIGNMENT (( #258 ) ) ;
#347 = CARTESIAN_POINT ( 'NONE',  ( 3.299999999999998934, 2.799999999999999378, 0.000000000000000000 ) ) ;
#348 = UNCERTAINTY_MEASURE_WITH_UNIT (LENGTH_MEASURE( 1.000000000000000082E-05 ), #961, 'distance_accuracy_value', 'NONE');
#349 = ORIENTED_EDGE ( 'NONE', *, *, #521, .T. ) ;
#350 = DIRECTION ( 'NONE',  ( -1.084202172485504927E-16, 1.000000000000000000, 0.000000000000000000 ) ) ;
#351 = LINE ( 'NONE', #455, #972 ) ;
#352 = EDGE_LOOP ( 'NONE', ( #328, #381, #74, #944 ) ) ;
#353 = VECTOR ( 'NONE', #1107, 1000.000000000000000 ) ;
#354 =( NAMED_UNIT ( * ) SI_UNIT ( $, .STERADIAN. ) SOLID_ANGLE_UNIT ( ) );
#355 = CARTESIAN_POINT ( 'NONE',  ( 4.299999999999999822, -1.199999999999998623, 0.1000000000000000056 ) ) ;
#356 = MECHANICAL_DESIGN_GEOMETRIC_PRESENTATION_REPRESENTATION (  '', ( #714 ), #736 ) ;
#357 = STYLED_ITEM ( 'NONE', ( #443 ), #745 ) ;
#358 =( GEOMETRIC_REPRESENTATION_CONTEXT ( 3 ) GLOBAL_UNCERTAINTY_ASSIGNED_CONTEXT ( ( #612 ) ) GLOBAL_UNIT_ASSIGNED_CONTEXT ( ( #1136, #793, #474 ) ) REPRESENTATION_CONTEXT ( 'NONE', 'WORKASPACE' ) );
#359 = LINE ( 'NONE', #998, #134 ) ;
#360 =( GEOMETRIC_REPRESENTATION_CONTEXT ( 3 ) GLOBAL_UNCERTAINTY_ASSIGNED_CONTEXT ( ( #928 ) ) GLOBAL_UNIT_ASSIGNED_CONTEXT ( ( #440, #531, #267 ) ) REPRESENTATION_CONTEXT ( 'NONE', 'WORKASPACE' ) );
#361 = FACE_OUTER_BOUND ( 'NONE', #968, .T. ) ;
#362 =( NAMED_UNIT ( * ) PLANE_ANGLE_UNIT ( ) SI_UNIT ( $, .RADIAN. ) );
#363 = DIRECTION ( 'NONE',  ( 1.314184451497581259E-16, -1.000000000000000000, 0.000000000000000000 ) ) ;
#364 =( NAMED_UNIT ( * ) SI_UNIT ( $, .STERADIAN. ) SOLID_ANGLE_UNIT ( ) );
#365 = PRESENTATION_STYLE_ASSIGNMENT (( #565 ) ) ;
#366 = ORIENTED_EDGE ( 'NONE', *, *, #996, .F. ) ;
#367 = CARTESIAN_POINT ( 'NONE',  ( -6.800000000000001599, 3.299999999999999822, 0.000000000000000000 ) ) ;
#368 =( NAMED_UNIT ( * ) SI_UNIT ( $, .STERADIAN. ) SOLID_ANGLE_UNIT ( ) );
#369 =( LENGTH_UNIT ( ) NAMED_UNIT ( * ) SI_UNIT ( .MILLI., .METRE. ) );
#370 = VECTOR ( 'NONE', #136, 1000.000000000000000 ) ;
#371 =( NAMED_UNIT ( * ) SI_UNIT ( $, .STERADIAN. ) SOLID_ANGLE_UNIT ( ) );
#372 = ORIENTED_EDGE ( 'NONE', *, *, #557, .F. ) ;
#373 = AXIS2_PLACEMENT_3D ( 'NONE', #510, #693, #150 ) ;
#374 = CARTESIAN_POINT ( 'NONE',  ( -3.299999999999999822, 2.799999999999998490, 0.1000000000000000056 ) ) ;
#375 = LINE ( 'NONE', #987, #836 ) ;
#376 = DIRECTION ( 'NONE',  ( 0.000000000000000000, 0.000000000000000000, 1.000000000000000000 ) ) ;
#377 = STYLED_ITEM ( 'NONE', ( #444 ), #388 ) ;
#378 = CARTESIAN_POINT ( 'NONE',  ( 5.999999999999999112, -1.199999999999998623, 0.1000000000000000056 ) ) ;
#379 = VECTOR ( 'NONE', #287, 1000.000000000000000 ) ;
#380 = DIRECTION ( 'NONE',  ( 1.000000000000000000, 2.628368902995162518E-16, -0.000000000000000000 ) ) ;
#381 = ORIENTED_EDGE ( 'NONE', *, *, #986, .F. ) ;
#382 = PRESENTATION_LAYER_ASSIGNMENT (  '', '', ( #404 ) ) ;
#383 = PRESENTATION_STYLE_ASSIGNMENT (( #819 ) ) ;
#384 = CARTESIAN_POINT ( 'NONE',  ( 6.799999999999998046, 3.299999999999999822, -1.399999999999999911 ) ) ;
#385 = VERTEX_POINT ( 'NONE', #611 ) ;
#386 = EDGE_CURVE ( 'NONE', #263, #871, #625, .T. ) ;
#387 = CARTESIAN_POINT ( 'NONE',  ( -6.000000000000000000, 2.799999999999999822, 0.1000000000000000056 ) ) ;
#388 = ADVANCED_FACE ( 'NONE', ( #260 ), #619, .T. ) ;
#389 = SURFACE_STYLE_USAGE ( .BOTH. , #34 ) ;
#390 = DIRECTION ( 'NONE',  ( -1.000000000000000000, 2.168404344971008868E-16, 0.000000000000000000 ) ) ;
#391 = FACE_BOUND ( 'NONE', #539, .T. ) ;
#392 = CARTESIAN_POINT ( 'NONE',  ( -6.800000000000001599, 3.299999999999999822, 0.000000000000000000 ) ) ;
#393 = EDGE_LOOP ( 'NONE', ( #835, #954, #211, #533 ) ) ;
#394 =( NAMED_UNIT ( * ) SI_UNIT ( $, .STERADIAN. ) SOLID_ANGLE_UNIT ( ) );
#395 = AXIS2_PLACEMENT_3D ( 'NONE', #378, #210, #583 ) ;
#396 = PRESENTATION_LAYER_ASSIGNMENT (  '', '', ( #979 ) ) ;
#397 = ADVANCED_FACE ( 'NONE', ( #863 ), #151, .F. ) ;
#398 = FACE_BOUND ( 'NONE', #270, .T. ) ;
#399 = COLOUR_RGB ( '',0.7921568627450980005, 0.8196078431372548767, 0.9333333333333333481 ) ;
#400 = FACE_OUTER_BOUND ( 'NONE', #154, .T. ) ;
#401 = ORIENTED_EDGE ( 'NONE', *, *, #256, .T. ) ;
#402 = PRESENTATION_LAYER_ASSIGNMENT (  '', '', ( #357 ) ) ;
#403 =( LENGTH_UNIT ( ) NAMED_UNIT ( * ) SI_UNIT ( .MILLI., .METRE. ) );
#404 = STYLED_ITEM ( 'NONE', ( #192 ), #769 ) ;
#405 = CARTESIAN_POINT ( 'NONE',  ( 3.299999999999998934, 2.799999999999999378, 0.000000000000000000 ) ) ;
#406 = SURFACE_STYLE_FILL_AREA ( #675 ) ;
#407 = ADVANCED_FACE ( 'NONE', ( #331 ), #505, .F. ) ;
#408 = CARTESIAN_POINT ( 'NONE',  ( -5.999999999999999112, -1.200000000000000178, 0.1000000000000000056 ) ) ;
#409 = ORIENTED_EDGE ( 'NONE', *, *, #386, .F. ) ;
#410 = DIRECTION ( 'NONE',  ( -0.000000000000000000, -0.000000000000000000, -1.000000000000000000 ) ) ;
#411 = ORIENTED_EDGE ( 'NONE', *, *, #621, .T. ) ;
#412 = FILL_AREA_STYLE_COLOUR ( '', #101 ) ;
#413 = CARTESIAN_POINT ( 'NONE',  ( 6.799999999999999822, -3.299999999999999822, -1.399999999999999911 ) ) ;
#414 = STYLED_ITEM ( 'NONE', ( #572 ), #85 ) ;
#415 = AXIS2_PLACEMENT_3D ( 'NONE', #563, #29, #468 ) ;
#416 = CARTESIAN_POINT ( 'NONE',  ( 5.000000000000000000, 2.800000000000001155, 0.1000000000000000056 ) ) ;
#417 = ORIENTED_EDGE ( 'NONE', *, *, #312, .F. ) ;
#418 = VECTOR ( 'NONE', #1132, 1000.000000000000000 ) ;
#419 =( LENGTH_UNIT ( ) NAMED_UNIT ( * ) SI_UNIT ( .MILLI., .METRE. ) );
#420 = EDGE_CURVE ( 'NONE', #962, #1078, #162, .T. ) ;
#421 =( GEOMETRIC_REPRESENTATION_CONTEXT ( 3 ) GLOBAL_UNCERTAINTY_ASSIGNED_CONTEXT ( ( #183 ) ) GLOBAL_UNIT_ASSIGNED_CONTEXT ( ( #233, #750, #394 ) ) REPRESENTATION_CONTEXT ( 'NONE', 'WORKASPACE' ) );
#422 = SURFACE_SIDE_STYLE ('',( #406 ) ) ;
#423 = AXIS2_PLACEMENT_3D ( 'NONE', #384, #380, #742 ) ;
#424 = PRODUCT_DEFINITION_CONTEXT ( 'detailed design', #809, 'design' ) ;
#425 = ORIENTED_EDGE ( 'NONE', *, *, #312, .T. ) ;
#426 = SURFACE_STYLE_FILL_AREA ( #160 ) ;
#427 =( NAMED_UNIT ( * ) SI_UNIT ( $, .STERADIAN. ) SOLID_ANGLE_UNIT ( ) );
#428 = ADVANCED_FACE ( 'NONE', ( #942 ), #1113, .T. ) ;
#429 = ORIENTED_EDGE ( 'NONE', *, *, #665, .T. ) ;
#430 = DIRECTION ( 'NONE',  ( 2.168404344971008868E-16, 1.000000000000000000, 0.000000000000000000 ) ) ;
#431 = CARTESIAN_POINT ( 'NONE',  ( -6.000000000000000000, 2.799999999999999822, 0.1000000000000000056 ) ) ;
#432 = STYLED_ITEM ( 'NONE', ( #888 ), #39 ) ;
#433 = VECTOR ( 'NONE', #1062, 1000.000000000000000 ) ;
#434 = ORIENTED_EDGE ( 'NONE', *, *, #776, .F. ) ;
#435 = PRESENTATION_STYLE_ASSIGNMENT (( #608 ) ) ;
#436 = DIRECTION ( 'NONE',  ( 1.000000000000000000, 2.168404344971008868E-16, -0.000000000000000000 ) ) ;
#437 =( LENGTH_UNIT ( ) NAMED_UNIT ( * ) SI_UNIT ( .MILLI., .METRE. ) );
#438 =( GEOMETRIC_REPRESENTATION_CONTEXT ( 3 ) GLOBAL_UNCERTAINTY_ASSIGNED_CONTEXT ( ( #672 ) ) GLOBAL_UNIT_ASSIGNED_CONTEXT ( ( #689, #497, #229 ) ) REPRESENTATION_CONTEXT ( 'NONE', 'WORKASPACE' ) );
#439 = MECHANICAL_DESIGN_GEOMETRIC_PRESENTATION_REPRESENTATION (  '', ( #141 ), #1119 ) ;
#440 =( LENGTH_UNIT ( ) NAMED_UNIT ( * ) SI_UNIT ( .MILLI., .METRE. ) );
#441 = STYLED_ITEM ( 'NONE', ( #1025 ), #1142 ) ;
#442 = ORIENTED_EDGE ( 'NONE', *, *, #518, .F. ) ;
#443 = PRESENTATION_STYLE_ASSIGNMENT (( #713 ) ) ;
#444 = PRESENTATION_STYLE_ASSIGNMENT (( #534 ) ) ;
#445 = SURFACE_STYLE_FILL_AREA ( #90 ) ;
#446 = DIRECTION ( 'NONE',  ( 1.000000000000000000, 2.168404344971008868E-16, -0.000000000000000000 ) ) ;
#447 = UNCERTAINTY_MEASURE_WITH_UNIT (LENGTH_MEASURE( 1.000000000000000082E-05 ), #558, 'distance_accuracy_value', 'NONE');
#448 = ORIENTED_EDGE ( 'NONE', *, *, #72, .T. ) ;
#449 = EDGE_CURVE ( 'NONE', #993, #232, #167, .T. ) ;
#450 = DIRECTION ( 'NONE',  ( 0.000000000000000000, -0.000000000000000000, 1.000000000000000000 ) ) ;
#451 = PRESENTATION_STYLE_ASSIGNMENT (( #633 ) ) ;
#452 = STYLED_ITEM ( 'NONE', ( #577 ), #117 ) ;
#453 = SURFACE_SIDE_STYLE ('',( #1139 ) ) ;
#454 = AXIS2_PLACEMENT_3D ( 'NONE', #952, #838, #1108 ) ;
#455 = CARTESIAN_POINT ( 'NONE',  ( 6.000000000000000000, 2.800000000000001155, 0.000000000000000000 ) ) ;
#456 = DIRECTION ( 'NONE',  ( -2.168404344971008868E-16, -1.000000000000000000, 0.000000000000000000 ) ) ;
#457 = MECHANICAL_DESIGN_GEOMETRIC_PRESENTATION_REPRESENTATION (  '', ( #404 ), #610 ) ;
#458 = DIRECTION ( 'NONE',  ( -2.168404344971008128E-16, 1.000000000000000000, 0.000000000000000000 ) ) ;
#459 = FILL_AREA_STYLE ('',( #724 ) ) ;
#460 = VERTEX_POINT ( 'NONE', #273 ) ;
#461 = CARTESIAN_POINT ( 'NONE',  ( -6.800000000000000711, -3.299999999999999822, 0.000000000000000000 ) ) ;
#462 = SHAPE_DEFINITION_REPRESENTATION ( #470, #248 ) ;
#463 = CARTESIAN_POINT ( 'NONE',  ( 3.299999999999998934, 2.799999999999999378, 0.1000000000000000056 ) ) ;
#464 =( NAMED_UNIT ( * ) PLANE_ANGLE_UNIT ( ) SI_UNIT ( $, .RADIAN. ) );
#465 = EDGE_LOOP ( 'NONE', ( #37, #824, #1129, #544 ) ) ;
#466 = DIRECTION ( 'NONE',  ( -1.084202172485504927E-16, 1.000000000000000000, -0.000000000000000000 ) ) ;
#467 = MANIFOLD_SOLID_BREP ( 'Boss-Extrude2', #473 ) ;
#468 = DIRECTION ( 'NONE',  ( 0.000000000000000000, -0.000000000000000000, -1.000000000000000000 ) ) ;
#469 = DIRECTION ( 'NONE',  ( 1.314184451497581259E-16, -1.000000000000000000, 0.000000000000000000 ) ) ;
#470 = PRODUCT_DEFINITION_SHAPE ( 'NONE', 'NONE',  #923 ) ;
#471 = ADVANCED_FACE ( 'NONE', ( #703 ), #1144, .F. ) ;
#472 = CARTESIAN_POINT ( 'NONE',  ( 4.299999999999999822, 2.799999999999999378, 0.1000000000000000056 ) ) ;
#473 = CLOSED_SHELL ( 'NONE', ( #85, #767, #236, #388, #268, #133, #679, #332, #769, #397, #1055, #407, #117, #948, #745, #428, #196, #1033, #718, #39, #658, #1142, #800, #721, #64, #471 ) ) ;
#474 =( NAMED_UNIT ( * ) SI_UNIT ( $, .STERADIAN. ) SOLID_ANGLE_UNIT ( ) );
#475 = VERTEX_POINT ( 'NONE', #918 ) ;
#476 = MECHANICAL_DESIGN_GEOMETRIC_PRESENTATION_REPRESENTATION (  '', ( #979 ), #1095 ) ;
#477 = LINE ( 'NONE', #812, #1081 ) ;
#478 = CARTESIAN_POINT ( 'NONE',  ( -5.999999999999999112, -1.200000000000000178, 0.000000000000000000 ) ) ;
#479 = PRESENTATION_LAYER_ASSIGNMENT (  '', '', ( #119 ) ) ;
#480 = SURFACE_SIDE_STYLE ('',( #274 ) ) ;
#481 = VECTOR ( 'NONE', #466, 1000.000000000000000 ) ;
#482 = ORIENTED_EDGE ( 'NONE', *, *, #23, .T. ) ;
#483 = MECHANICAL_DESIGN_GEOMETRIC_PRESENTATION_REPRESENTATION (  '', ( #628 ), #144 ) ;
#484 = EDGE_CURVE ( 'NONE', #725, #871, #562, .T. ) ;
#485 = DIRECTION ( 'NONE',  ( 1.000000000000000000, 0.000000000000000000, 0.000000000000000000 ) ) ;
#486 = FILL_AREA_STYLE ('',( #122 ) ) ;
#487 = SURFACE_SIDE_STYLE ('',( #56 ) ) ;
#488 = CARTESIAN_POINT ( 'NONE',  ( -6.000000000000000000, 2.799999999999999822, 0.1000000000000000056 ) ) ;
#489 = ORIENTED_EDGE ( 'NONE', *, *, #449, .T. ) ;
#490 = EDGE_CURVE ( 'NONE', #475, #164, #726, .T. ) ;
#491 =( NAMED_UNIT ( * ) PLANE_ANGLE_UNIT ( ) SI_UNIT ( $, .RADIAN. ) );
#492 = FILL_AREA_STYLE ('',( #759 ) ) ;
#493 = LINE ( 'NONE', #488, #48 ) ;
#494 = ORIENTED_EDGE ( 'NONE', *, *, #33, .F. ) ;
#495 = EDGE_CURVE ( 'NONE', #705, #164, #1091, .T. ) ;
#496 = COLOUR_RGB ( '',1.000000000000000000, 0.9098039215686274384, 0.2156862745098039325 ) ;
#497 =( NAMED_UNIT ( * ) PLANE_ANGLE_UNIT ( ) SI_UNIT ( $, .RADIAN. ) );
#498 = CARTESIAN_POINT ( 'NONE',  ( 5.000000000000000000, 2.800000000000001155, 0.1000000000000000056 ) ) ;
#499 = PRESENTATION_LAYER_ASSIGNMENT (  '', '', ( #714 ) ) ;
#500 = FACE_OUTER_BOUND ( 'NONE', #867, .T. ) ;
#501 = UNCERTAINTY_MEASURE_WITH_UNIT (LENGTH_MEASURE( 1.000000000000000082E-05 ), #774, 'distance_accuracy_value', 'NONE');
#502 = EDGE_LOOP ( 'NONE', ( #292, #605, #494, #1122 ) ) ;
#503 = COLOUR_RGB ( '',1.000000000000000000, 0.9098039215686274384, 0.2156862745098039325 ) ;
#504 = PRESENTATION_STYLE_ASSIGNMENT (( #65 ) ) ;
#505 = PLANE ( 'NONE',  #454 ) ;
#506 = DIRECTION ( 'NONE',  ( -0.000000000000000000, 0.000000000000000000, 1.000000000000000000 ) ) ;
#507 = CARTESIAN_POINT ( 'NONE',  ( -3.299999999999999822, 2.799999999999998490, 0.000000000000000000 ) ) ;
#508 = ORIENTED_EDGE ( 'NONE', *, *, #72, .F. ) ;
#509 =( NAMED_UNIT ( * ) SI_UNIT ( $, .STERADIAN. ) SOLID_ANGLE_UNIT ( ) );
#510 = CARTESIAN_POINT ( 'NONE',  ( 4.299999999999999822, 2.799999999999999378, 0.1000000000000000056 ) ) ;
#511 = FILL_AREA_STYLE_COLOUR ( '', #103 ) ;
#512 = UNCERTAINTY_MEASURE_WITH_UNIT (LENGTH_MEASURE( 1.000000000000000082E-05 ), #145, 'distance_accuracy_value', 'NONE');
#513 = VERTEX_POINT ( 'NONE', #107 ) ;
#514 = DIRECTION ( 'NONE',  ( 1.084202172485504927E-16, -1.000000000000000000, 0.000000000000000000 ) ) ;
#515 = AXIS2_PLACEMENT_3D ( 'NONE', #654, #458, #738 ) ;
#516 = PRESENTATION_LAYER_ASSIGNMENT (  '', '', ( #5 ) ) ;
#517 = ORIENTED_EDGE ( 'NONE', *, *, #495, .F. ) ;
#518 = EDGE_CURVE ( 'NONE', #263, #766, #1001, .T. ) ;
#519 = VECTOR ( 'NONE', #436, 1000.000000000000000 ) ;
#520 = VECTOR ( 'NONE', #744, 1000.000000000000000 ) ;
#521 = EDGE_CURVE ( 'NONE', #937, #725, #575, .T. ) ;
#522 = COLOUR_RGB ( '',1.000000000000000000, 0.9098039215686274384, 0.2156862745098039325 ) ;
#523 = CARTESIAN_POINT ( 'NONE',  ( 4.299999999999999822, 2.799999999999999378, 0.000000000000000000 ) ) ;
#524 = ORIENTED_EDGE ( 'NONE', *, *, #126, .T. ) ;
#525 =( NAMED_UNIT ( * ) PLANE_ANGLE_UNIT ( ) SI_UNIT ( $, .RADIAN. ) );
#526 = ORIENTED_EDGE ( 'NONE', *, *, #336, .T. ) ;
#527 = DIRECTION ( 'NONE',  ( 0.000000000000000000, -1.000000000000000000, 0.000000000000000000 ) ) ;
#528 = DIRECTION ( 'NONE',  ( -0.000000000000000000, 0.000000000000000000, 1.000000000000000000 ) ) ;
#529 = EDGE_CURVE ( 'NONE', #898, #148, #805, .T. ) ;
#530 = COLOUR_RGB ( '',0.3294117647058823484, 0.5921568627450980449, 0.000000000000000000 ) ;
#531 =( NAMED_UNIT ( * ) PLANE_ANGLE_UNIT ( ) SI_UNIT ( $, .RADIAN. ) );
#532 = AXIS2_PLACEMENT_3D ( 'NONE', #1010, #244, #1026 ) ;
#533 = ORIENTED_EDGE ( 'NONE', *, *, #495, .T. ) ;
#534 = SURFACE_STYLE_USAGE ( .BOTH. , #965 ) ;
#535 =( NAMED_UNIT ( * ) SI_UNIT ( $, .STERADIAN. ) SOLID_ANGLE_UNIT ( ) );
#536 =( GEOMETRIC_REPRESENTATION_CONTEXT ( 3 ) GLOBAL_UNCERTAINTY_ASSIGNED_CONTEXT ( ( #158 ) ) GLOBAL_UNIT_ASSIGNED_CONTEXT ( ( #437, #866, #535 ) ) REPRESENTATION_CONTEXT ( 'NONE', 'WORKASPACE' ) );
#537 = MECHANICAL_DESIGN_GEOMETRIC_PRESENTATION_REPRESENTATION (  '', ( #874 ), #421 ) ;
#538 = SURFACE_STYLE_USAGE ( .BOTH. , #886 ) ;
#539 = EDGE_LOOP ( 'NONE', ( #1014, #1030, #259, #748 ) ) ;
#540 = CARTESIAN_POINT ( 'NONE',  ( 6.799999999999998046, 3.299999999999999822, -1.399999999999999911 ) ) ;
#541 = CARTESIAN_POINT ( 'NONE',  ( 3.299999999999999378, -1.199999999999998845, 0.000000000000000000 ) ) ;
#542 = FILL_AREA_STYLE ('',( #1045 ) ) ;
#543 = UNCERTAINTY_MEASURE_WITH_UNIT (LENGTH_MEASURE( 1.000000000000000082E-05 ), #970, 'distance_accuracy_value', 'NONE');
#544 = ORIENTED_EDGE ( 'NONE', *, *, #995, .T. ) ;
#545 = FILL_AREA_STYLE ('',( #22 ) ) ;
#546 = PRESENTATION_LAYER_ASSIGNMENT (  '', '', ( #452 ) ) ;
#547 = ORIENTED_EDGE ( 'NONE', *, *, #1085, .F. ) ;
#548 = CARTESIAN_POINT ( 'NONE',  ( -6.000000000000000000, 2.799999999999999822, 0.1000000000000000056 ) ) ;
#549 =( NAMED_UNIT ( * ) SI_UNIT ( $, .STERADIAN. ) SOLID_ANGLE_UNIT ( ) );
#550 = CARTESIAN_POINT ( 'NONE',  ( 5.999999999999999112, -1.199999999999998623, 0.000000000000000000 ) ) ;
#551 =( NAMED_UNIT ( * ) SI_UNIT ( $, .STERADIAN. ) SOLID_ANGLE_UNIT ( ) );
#552 = MECHANICAL_DESIGN_GEOMETRIC_PRESENTATION_REPRESENTATION (  '', ( #1061 ), #358 ) ;
#553 = FILL_AREA_STYLE ('',( #822 ) ) ;
#554 = DIRECTION ( 'NONE',  ( -0.000000000000000000, -0.000000000000000000, -1.000000000000000000 ) ) ;
#555 = EDGE_LOOP ( 'NONE', ( #195, #1041, #298, #338 ) ) ;
#556 = LINE ( 'NONE', #799, #609 ) ;
#557 = EDGE_CURVE ( 'NONE', #15, #1069, #281, .T. ) ;
#558 =( LENGTH_UNIT ( ) NAMED_UNIT ( * ) SI_UNIT ( .MILLI., .METRE. ) );
#559 = SURFACE_STYLE_USAGE ( .BOTH. , #884 ) ;
#560 = CARTESIAN_POINT ( 'NONE',  ( 6.000000000000000000, 2.800000000000001155, 0.1000000000000000056 ) ) ;
#561 = ORIENTED_EDGE ( 'NONE', *, *, #786, .F. ) ;
#562 = LINE ( 'NONE', #461, #912 ) ;
#563 = CARTESIAN_POINT ( 'NONE',  ( -4.299999999999999822, 2.799999999999998490, 0.1000000000000000056 ) ) ;
#564 = EDGE_CURVE ( 'NONE', #460, #636, #127, .T. ) ;
#565 = SURFACE_STYLE_USAGE ( .BOTH. , #275 ) ;
#566 = ORIENTED_EDGE ( 'NONE', *, *, #1006, .F. ) ;
#567 = PRESENTATION_LAYER_ASSIGNMENT (  '', '', ( #157 ) ) ;
#568 = CARTESIAN_POINT ( 'NONE',  ( -6.800000000000000711, -3.299999999999999822, -1.399999999999999911 ) ) ;
#569 = FACE_OUTER_BOUND ( 'NONE', #254, .T. ) ;
#570 = COLOUR_RGB ( '',1.000000000000000000, 0.9098039215686274384, 0.2156862745098039325 ) ;
#571 = COLOUR_RGB ( '',1.000000000000000000, 0.9098039215686274384, 0.2156862745098039325 ) ;
#572 = PRESENTATION_STYLE_ASSIGNMENT (( #213 ) ) ;
#573 = EDGE_CURVE ( 'NONE', #317, #725, #293, .T. ) ;
#574 = ORIENTED_EDGE ( 'NONE', *, *, #641, .F. ) ;
#575 = LINE ( 'NONE', #367, #840 ) ;
#576 = DIRECTION ( 'NONE',  ( -1.000000000000000000, -0.000000000000000000, -0.000000000000000000 ) ) ;
#577 = PRESENTATION_STYLE_ASSIGNMENT (( #311 ) ) ;
#578 = LINE ( 'NONE', #921, #1102 ) ;
#579 = UNCERTAINTY_MEASURE_WITH_UNIT (LENGTH_MEASURE( 1.000000000000000082E-05 ), #76, 'distance_accuracy_value', 'NONE');
#580 = VERTEX_POINT ( 'NONE', #637 ) ;
#581 = FACE_OUTER_BOUND ( 'NONE', #660, .T. ) ;
#582 =( NAMED_UNIT ( * ) SI_UNIT ( $, .STERADIAN. ) SOLID_ANGLE_UNIT ( ) );
#583 = DIRECTION ( 'NONE',  ( -1.000000000000000000, -2.168404344971008868E-16, 0.000000000000000000 ) ) ;
#584 = CARTESIAN_POINT ( 'NONE',  ( 6.799999999999999822, -3.299999999999999822, 0.000000000000000000 ) ) ;
#585 = ORIENTED_EDGE ( 'NONE', *, *, #817, .T. ) ;
#586 = DIRECTION ( 'NONE',  ( 0.000000000000000000, 0.000000000000000000, -1.000000000000000000 ) ) ;
#587 = EDGE_CURVE ( 'NONE', #1105, #898, #731, .T. ) ;
#588 =( LENGTH_UNIT ( ) NAMED_UNIT ( * ) SI_UNIT ( .MILLI., .METRE. ) );
#589 = FILL_AREA_STYLE_COLOUR ( '', #856 ) ;
#590 = MECHANICAL_DESIGN_GEOMETRIC_PRESENTATION_REPRESENTATION (  '', ( #119 ), #83 ) ;
#591 = CARTESIAN_POINT ( 'NONE',  ( 4.299999999999999822, 2.799999999999999378, 0.000000000000000000 ) ) ;
#592 = UNCERTAINTY_MEASURE_WITH_UNIT (LENGTH_MEASURE( 1.000000000000000082E-05 ), #290, 'distance_accuracy_value', 'NONE');
#593 = ORIENTED_EDGE ( 'NONE', *, *, #996, .T. ) ;
#594 = PRESENTATION_LAYER_ASSIGNMENT (  '', '', ( #874 ) ) ;
#595 = FILL_AREA_STYLE ('',( #1015 ) ) ;
#596 = CARTESIAN_POINT ( 'NONE',  ( -6.800000000000001599, 3.299999999999999822, -1.399999999999999911 ) ) ;
#597 = ORIENTED_EDGE ( 'NONE', *, *, #957, .T. ) ;
#598 = FILL_AREA_STYLE_COLOUR ( '', #27 ) ;
#599 = FILL_AREA_STYLE ('',( #222 ) ) ;
#600 = PLANE ( 'NONE',  #272 ) ;
#601 = ORIENTED_EDGE ( 'NONE', *, *, #318, .F. ) ;
#602 = PLANE ( 'NONE',  #971 ) ;
#603 = FILL_AREA_STYLE_COLOUR ( '', #1079 ) ;
#604 = VECTOR ( 'NONE', #40, 1000.000000000000000 ) ;
#605 = ORIENTED_EDGE ( 'NONE', *, *, #246, .F. ) ;
#606 = EDGE_CURVE ( 'NONE', #242, #1105, #1086, .T. ) ;
#607 =( GEOMETRIC_REPRESENTATION_CONTEXT ( 3 ) GLOBAL_UNCERTAINTY_ASSIGNED_CONTEXT ( ( #579 ) ) GLOBAL_UNIT_ASSIGNED_CONTEXT ( ( #76, #265, #81 ) ) REPRESENTATION_CONTEXT ( 'NONE', 'WORKASPACE' ) );
#608 = SURFACE_STYLE_USAGE ( .BOTH. , #881 ) ;
#609 = VECTOR ( 'NONE', #662, 1000.000000000000000 ) ;
#610 =( GEOMETRIC_REPRESENTATION_CONTEXT ( 3 ) GLOBAL_UNCERTAINTY_ASSIGNED_CONTEXT ( ( #622 ) ) GLOBAL_UNIT_ASSIGNED_CONTEXT ( ( #14, #1071, #885 ) ) REPRESENTATION_CONTEXT ( 'NONE', 'WORKASPACE' ) );
#611 = CARTESIAN_POINT ( 'NONE',  ( -5.999999999999999112, -1.200000000000000178, 0.000000000000000000 ) ) ;
#612 = UNCERTAINTY_MEASURE_WITH_UNIT (LENGTH_MEASURE( 1.000000000000000082E-05 ), #1136, 'distance_accuracy_value', 'NONE');
#613 = ORIENTED_EDGE ( 'NONE', *, *, #301, .F. ) ;
#614 = FILL_AREA_STYLE_COLOUR ( '', #1060 ) ;
#615 = EDGE_CURVE ( 'NONE', #791, #640, #299, .T. ) ;
#616 = FACE_OUTER_BOUND ( 'NONE', #756, .T. ) ;
#617 = ORIENTED_EDGE ( 'NONE', *, *, #846, .T. ) ;
#618 = PLANE ( 'NONE',  #185 ) ;
#619 = PLANE ( 'NONE',  #752 ) ;
#620 = PRESENTATION_STYLE_ASSIGNMENT (( #632 ) ) ;
#621 = EDGE_CURVE ( 'NONE', #305, #811, #556, .T. ) ;
#622 = UNCERTAINTY_MEASURE_WITH_UNIT (LENGTH_MEASURE( 1.000000000000000082E-05 ), #14, 'distance_accuracy_value', 'NONE');
#623 = ORIENTED_EDGE ( 'NONE', *, *, #615, .F. ) ;
#624 = SURFACE_STYLE_FILL_AREA ( #79 ) ;
#625 = LINE ( 'NONE', #783, #418 ) ;
#626 = COLOUR_RGB ( '',1.000000000000000000, 0.9098039215686274384, 0.2156862745098039325 ) ;
#627 = CARTESIAN_POINT ( 'NONE',  ( 5.000000000000000000, 2.800000000000001155, 0.1000000000000000056 ) ) ;
#628 = STYLED_ITEM ( 'NONE', ( #52 ), #948 ) ;
#629 = SURFACE_STYLE_FILL_AREA ( #939 ) ;
#630 = COLOUR_RGB ( '',1.000000000000000000, 0.9098039215686274384, 0.2156862745098039325 ) ;
#631 = ORIENTED_EDGE ( 'NONE', *, *, #180, .F. ) ;
#632 = SURFACE_STYLE_USAGE ( .BOTH. , #958 ) ;
#633 = SURFACE_STYLE_USAGE ( .BOTH. , #82 ) ;
#634 = EDGE_CURVE ( 'NONE', #766, #580, #735, .T. ) ;
#635 = DIRECTION ( 'NONE',  ( 1.000000000000000000, 2.168404344971008868E-16, -0.000000000000000000 ) ) ;
#636 = VERTEX_POINT ( 'NONE', #548 ) ;
#637 = CARTESIAN_POINT ( 'NONE',  ( -6.800000000000001599, 3.299999999999999822, -1.399999999999999911 ) ) ;
#638 = ORIENTED_EDGE ( 'NONE', *, *, #786, .T. ) ;
#639 =( GEOMETRIC_REPRESENTATION_CONTEXT ( 3 ) GLOBAL_UNCERTAINTY_ASSIGNED_CONTEXT ( ( #168 ) ) GLOBAL_UNIT_ASSIGNED_CONTEXT ( ( #920, #832, #288 ) ) REPRESENTATION_CONTEXT ( 'NONE', 'WORKASPACE' ) );
#640 = VERTEX_POINT ( 'NONE', #217 ) ;
#641 = EDGE_CURVE ( 'NONE', #70, #791, #477, .T. ) ;
#642 = FILL_AREA_STYLE ('',( #104 ) ) ;
#643 = COLOUR_RGB ( '',1.000000000000000000, 0.9098039215686274384, 0.2156862745098039325 ) ;
#644 = DIRECTION ( 'NONE',  ( 1.000000000000000000, 0.000000000000000000, 0.000000000000000000 ) ) ;
#645 = VECTOR ( 'NONE', #277, 1000.000000000000000 ) ;
#646 =( NAMED_UNIT ( * ) PLANE_ANGLE_UNIT ( ) SI_UNIT ( $, .RADIAN. ) );
#647 = MECHANICAL_DESIGN_GEOMETRIC_PRESENTATION_REPRESENTATION (  '', ( #1004 ), #875 ) ;
#648 = CARTESIAN_POINT ( 'NONE',  ( 6.000000000000000000, 2.800000000000001155, 0.1000000000000000056 ) ) ;
#649 = VERTEX_POINT ( 'NONE', #1073 ) ;
#650 = EDGE_CURVE ( 'NONE', #317, #263, #892, .T. ) ;
#651 = CARTESIAN_POINT ( 'NONE',  ( -6.800000000000000711, -3.299999999999999822, -1.399999999999999911 ) ) ;
#652 = PRESENTATION_STYLE_ASSIGNMENT (( #821 ) ) ;
#653 =( NAMED_UNIT ( * ) SI_UNIT ( $, .STERADIAN. ) SOLID_ANGLE_UNIT ( ) );
#654 = CARTESIAN_POINT ( 'NONE',  ( 4.299999999999999822, -1.199999999999998623, 0.1000000000000000056 ) ) ;
#655 = CARTESIAN_POINT ( 'NONE',  ( 4.299999999999999822, 2.799999999999999378, 0.1000000000000000056 ) ) ;
#656 = FACE_OUTER_BOUND ( 'NONE', #712, .T. ) ;
#657 = DIRECTION ( 'NONE',  ( -1.000000000000000000, -0.000000000000000000, -0.000000000000000000 ) ) ;
#658 = ADVANCED_FACE ( 'NONE', ( #656 ), #11, .F. ) ;
#659 = DIRECTION ( 'NONE',  ( 1.000000000000000000, 0.000000000000000000, 0.000000000000000000 ) ) ;
#660 = EDGE_LOOP ( 'NONE', ( #401, #508, #787, #44 ) ) ;
#661 = VECTOR ( 'NONE', #156, 1000.000000000000000 ) ;
#662 = DIRECTION ( 'NONE',  ( 1.000000000000000000, 2.168404344971007882E-16, -0.000000000000000000 ) ) ;
#663 = FILL_AREA_STYLE_COLOUR ( '', #749 ) ;
#664 = PRESENTATION_LAYER_ASSIGNMENT (  '', '', ( #377 ) ) ;
#665 = EDGE_CURVE ( 'NONE', #343, #1069, #931, .T. ) ;
#666 = VECTOR ( 'NONE', #485, 1000.000000000000000 ) ;
#667 = CARTESIAN_POINT ( 'NONE',  ( -4.299999999999999822, -1.199999999999999734, 0.1000000000000000056 ) ) ;
#668 = SURFACE_SIDE_STYLE ('',( #1097 ) ) ;
#669 = ORIENTED_EDGE ( 'NONE', *, *, #344, .F. ) ;
#670 = SURFACE_STYLE_USAGE ( .BOTH. , #844 ) ;
#671 = PLANE ( 'NONE',  #532 ) ;
#672 = UNCERTAINTY_MEASURE_WITH_UNIT (LENGTH_MEASURE( 1.000000000000000082E-05 ), #689, 'distance_accuracy_value', 'NONE');
#673 = ORIENTED_EDGE ( 'NONE', *, *, #209, .F. ) ;
#674 =( NAMED_UNIT ( * ) PLANE_ANGLE_UNIT ( ) SI_UNIT ( $, .RADIAN. ) );
#675 = FILL_AREA_STYLE ('',( #845 ) ) ;
#676 = CARTESIAN_POINT ( 'NONE',  ( -4.999999999999999112, -1.200000000000000178, 0.1000000000000000056 ) ) ;
#677 = ORIENTED_EDGE ( 'NONE', *, *, #261, .T. ) ;
#678 = CARTESIAN_POINT ( 'NONE',  ( 3.299999999999998934, 2.799999999999999378, 0.1000000000000000056 ) ) ;
#679 = ADVANCED_FACE ( 'NONE', ( #227 ), #945, .F. ) ;
#680 = LINE ( 'NONE', #1019, #604 ) ;
#681 = FILL_AREA_STYLE_COLOUR ( '', #643 ) ;
#682 = DIRECTION ( 'NONE',  ( 1.000000000000000000, 0.000000000000000000, 0.000000000000000000 ) ) ;
#683 = PRESENTATION_LAYER_ASSIGNMENT (  '', '', ( #934 ) ) ;
#684 = CARTESIAN_POINT ( 'NONE',  ( 5.999999999999999112, -1.199999999999998623, 0.1000000000000000056 ) ) ;
#685 = ORIENTED_EDGE ( 'NONE', *, *, #529, .F. ) ;
#686 = SURFACE_STYLE_USAGE ( .BOTH. , #323 ) ;
#687 = DIRECTION ( 'NONE',  ( -1.000000000000000000, 0.000000000000000000, -0.000000000000000000 ) ) ;
#688 = VECTOR ( 'NONE', #313, 1000.000000000000000 ) ;
#689 =( LENGTH_UNIT ( ) NAMED_UNIT ( * ) SI_UNIT ( .MILLI., .METRE. ) );
#690 = LINE ( 'NONE', #627, #861 ) ;
#691 = EDGE_LOOP ( 'NONE', ( #980, #673, #174, #848 ) ) ;
#692 = CARTESIAN_POINT ( 'NONE',  ( 4.299999999999999822, 2.799999999999999378, 0.000000000000000000 ) ) ;
#693 = DIRECTION ( 'NONE',  ( -1.000000000000000000, 0.000000000000000000, 0.000000000000000000 ) ) ;
#694 = ORIENTED_EDGE ( 'NONE', *, *, #209, .T. ) ;
#695 = CARTESIAN_POINT ( 'NONE',  ( 6.000000000000000000, 2.800000000000001155, 0.000000000000000000 ) ) ;
#696 = FILL_AREA_STYLE_COLOUR ( '', #399 ) ;
#697 = MECHANICAL_DESIGN_GEOMETRIC_PRESENTATION_REPRESENTATION (  '', ( #5 ), #264 ) ;
#698 = EDGE_CURVE ( 'NONE', #962, #58, #155, .T. ) ;
#699 = ORIENTED_EDGE ( 'NONE', *, *, #17, .F. ) ;
#700 = FACE_OUTER_BOUND ( 'NONE', #169, .T. ) ;
#701 = PRESENTATION_LAYER_ASSIGNMENT (  '', '', ( #253 ) ) ;
#702 = LINE ( 'NONE', #355, #983 ) ;
#703 = FACE_OUTER_BOUND ( 'NONE', #1111, .T. ) ;
#704 = VECTOR ( 'NONE', #189, 1000.000000000000000 ) ;
#705 = VERTEX_POINT ( 'NONE', #853 ) ;
#706 = PRESENTATION_STYLE_ASSIGNMENT (( #177 ) ) ;
#707 = LINE ( 'NONE', #194, #10 ) ;
#708 = ORIENTED_EDGE ( 'NONE', *, *, #650, .T. ) ;
#709 = FILL_AREA_STYLE ('',( #340 ) ) ;
#710 = LINE ( 'NONE', #327, #704 ) ;
#711 = VECTOR ( 'NONE', #251, 1000.000000000000000 ) ;
#712 = EDGE_LOOP ( 'NONE', ( #425, #106, #597, #314 ) ) ;
#713 = SURFACE_STYLE_USAGE ( .BOTH. , #1047 ) ;
#714 = STYLED_ITEM ( 'NONE', ( #933 ), #407 ) ;
#715 = DIRECTION ( 'NONE',  ( 1.000000000000000000, 2.168404344971007882E-16, -0.000000000000000000 ) ) ;
#716 = DIRECTION ( 'NONE',  ( -1.000000000000000000, 0.000000000000000000, -0.000000000000000000 ) ) ;
#717 = VECTOR ( 'NONE', #32, 1000.000000000000000 ) ;
#718 = ADVANCED_FACE ( 'NONE', ( #581 ), #602, .F. ) ;
#719 = VECTOR ( 'NONE', #554, 1000.000000000000000 ) ;
#720 = CARTESIAN_POINT ( 'NONE',  ( 5.999999999999999112, -1.199999999999998623, 0.000000000000000000 ) ) ;
#721 = ADVANCED_FACE ( 'NONE', ( #176 ), #186, .F. ) ;
#722 = FACE_OUTER_BOUND ( 'NONE', #352, .T. ) ;
#723 = SURFACE_STYLE_USAGE ( .BOTH. , #480 ) ;
#724 = FILL_AREA_STYLE_COLOUR ( '', #503 ) ;
#725 = VERTEX_POINT ( 'NONE', #860 ) ;
#726 = LINE ( 'NONE', #197, #717 ) ;
#727 = DIRECTION ( 'NONE',  ( 2.168404344971008868E-16, 1.000000000000000000, -0.000000000000000000 ) ) ;
#728 = PRODUCT_RELATED_PRODUCT_CATEGORY ( 'part', '', ( #732 ) ) ;
#729 = DIRECTION ( 'NONE',  ( -0.000000000000000000, -0.000000000000000000, -1.000000000000000000 ) ) ;
#730 = ORIENTED_EDGE ( 'NONE', *, *, #1093, .T. ) ;
#731 = LINE ( 'NONE', #989, #306 ) ;
#732 = PRODUCT ( 'AFBR-S4N66P024M Mount', 'AFBR-S4N66P024M Mount', '', ( #814 ) ) ;
#733 = AXIS2_PLACEMENT_3D ( 'NONE', #813, #906, #283 ) ;
#734 = EDGE_LOOP ( 'NONE', ( #411, #561, #601, #448 ) ) ;
#735 = LINE ( 'NONE', #1080, #1020 ) ;
#736 =( GEOMETRIC_REPRESENTATION_CONTEXT ( 3 ) GLOBAL_UNCERTAINTY_ASSIGNED_CONTEXT ( ( #225 ) ) GLOBAL_UNIT_ASSIGNED_CONTEXT ( ( #1011, #223, #763 ) ) REPRESENTATION_CONTEXT ( 'NONE', 'WORKASPACE' ) );
#737 = PRESENTATION_LAYER_ASSIGNMENT (  '', '', ( #1004 ) ) ;
#738 = DIRECTION ( 'NONE',  ( -1.000000000000000000, -2.168404344971008128E-16, 0.000000000000000000 ) ) ;
#739 = DIRECTION ( 'NONE',  ( 1.314184451497581259E-16, -1.000000000000000000, 0.000000000000000000 ) ) ;
#740 = PLANE ( 'NONE',  #733 ) ;
#741 = CARTESIAN_POINT ( 'NONE',  ( -6.000000000000000000, 2.799999999999999822, 0.1000000000000000056 ) ) ;
#742 = DIRECTION ( 'NONE',  ( -2.628368902995162518E-16, 1.000000000000000000, 0.000000000000000000 ) ) ;
#743 = ORIENTED_EDGE ( 'NONE', *, *, #641, .T. ) ;
#744 = DIRECTION ( 'NONE',  ( 1.000000000000000000, 0.000000000000000000, 0.000000000000000000 ) ) ;
#745 = ADVANCED_FACE ( 'NONE', ( #700 ), #618, .F. ) ;
#746 = PRESENTATION_STYLE_ASSIGNMENT (( #389 ) ) ;
#747 = LINE ( 'NONE', #833, #688 ) ;
#748 = ORIENTED_EDGE ( 'NONE', *, *, #256, .F. ) ;
#749 = COLOUR_RGB ( '',0.3294117647058823484, 0.5921568627450980449, 0.000000000000000000 ) ;
#750 =( NAMED_UNIT ( * ) PLANE_ANGLE_UNIT ( ) SI_UNIT ( $, .RADIAN. ) );
#751 = SURFACE_STYLE_FILL_AREA ( #599 ) ;
#752 = AXIS2_PLACEMENT_3D ( 'NONE', #109, #807, #469 ) ;
#753 = STYLED_ITEM ( 'NONE', ( #132 ), #718 ) ;
#754 = FILL_AREA_STYLE_COLOUR ( '', #530 ) ;
#755 = VECTOR ( 'NONE', #36, 1000.000000000000000 ) ;
#756 = EDGE_LOOP ( 'NONE', ( #974, #240, #24, #593 ) ) ;
#757 = LINE ( 'NONE', #1112, #353 ) ;
#758 = SURFACE_STYLE_USAGE ( .BOTH. , #245 ) ;
#759 = FILL_AREA_STYLE_COLOUR ( '', #135 ) ;
#760 = DIRECTION ( 'NONE',  ( 1.084202172485504927E-16, -1.000000000000000000, 0.000000000000000000 ) ) ;
#761 = ORIENTED_EDGE ( 'NONE', *, *, #449, .F. ) ;
#762 = SURFACE_STYLE_FILL_AREA ( #307 ) ;
#763 =( NAMED_UNIT ( * ) SI_UNIT ( $, .STERADIAN. ) SOLID_ANGLE_UNIT ( ) );
#764 = CARTESIAN_POINT ( 'NONE',  ( 0.000000000000000000, 0.000000000000000000, 0.000000000000000000 ) ) ;
#765 = CARTESIAN_POINT ( 'NONE',  ( 4.299999999999999822, -1.199999999999998623, 0.1000000000000000056 ) ) ;
#766 = VERTEX_POINT ( 'NONE', #540 ) ;
#767 = ADVANCED_FACE ( 'NONE', ( #1141 ), #1036, .T. ) ;
#768 = PRESENTATION_STYLE_ASSIGNMENT (( #1009 ) ) ;
#769 = ADVANCED_FACE ( 'NONE', ( #975 ), #95, .F. ) ;
#770 = STYLED_ITEM ( 'NONE', ( #66 ), #397 ) ;
#771 =( GEOMETRIC_REPRESENTATION_CONTEXT ( 3 ) GLOBAL_UNCERTAINTY_ASSIGNED_CONTEXT ( ( #790 ) ) GLOBAL_UNIT_ASSIGNED_CONTEXT ( ( #1143, #187, #368 ) ) REPRESENTATION_CONTEXT ( 'NONE', 'WORKASPACE' ) );
#772 = ORIENTED_EDGE ( 'NONE', *, *, #246, .T. ) ;
#773 = STYLED_ITEM ( 'NONE', ( #1059 ), #721 ) ;
#774 =( LENGTH_UNIT ( ) NAMED_UNIT ( * ) SI_UNIT ( .MILLI., .METRE. ) );
#775 = PRESENTATION_LAYER_ASSIGNMENT (  '', '', ( #628 ) ) ;
#776 = EDGE_CURVE ( 'NONE', #159, #15, #291, .T. ) ;
#777 =( NAMED_UNIT ( * ) PLANE_ANGLE_UNIT ( ) SI_UNIT ( $, .RADIAN. ) );
#778 = ORIENTED_EDGE ( 'NONE', *, *, #126, .F. ) ;
#779 = PLANE ( 'NONE',  #823 ) ;
#780 = SURFACE_STYLE_FILL_AREA ( #960 ) ;
#781 = EDGE_CURVE ( 'NONE', #649, #385, #1077, .T. ) ;
#782 = ORIENTED_EDGE ( 'NONE', *, *, #490, .T. ) ;
#783 = CARTESIAN_POINT ( 'NONE',  ( 6.799999999999999822, -3.299999999999999822, -1.399999999999999911 ) ) ;
#784 = DIRECTION ( 'NONE',  ( 1.000000000000000000, 0.000000000000000000, 0.000000000000000000 ) ) ;
#785 = PRESENTATION_LAYER_ASSIGNMENT (  '', '', ( #930 ) ) ;
#786 = EDGE_CURVE ( 'NONE', #829, #811, #112, .T. ) ;
#787 = ORIENTED_EDGE ( 'NONE', *, *, #957, .F. ) ;
#788 = MECHANICAL_DESIGN_GEOMETRIC_PRESENTATION_REPRESENTATION (  '', ( #753 ), #935 ) ;
#789 = CARTESIAN_POINT ( 'NONE',  ( -6.000000000000000000, 2.799999999999999822, 0.000000000000000000 ) ) ;
#790 = UNCERTAINTY_MEASURE_WITH_UNIT (LENGTH_MEASURE( 1.000000000000000082E-05 ), #1143, 'distance_accuracy_value', 'NONE');
#791 = VERTEX_POINT ( 'NONE', #8 ) ;
#792 = ORIENTED_EDGE ( 'NONE', *, *, #573, .F. ) ;
#793 =( NAMED_UNIT ( * ) PLANE_ANGLE_UNIT ( ) SI_UNIT ( $, .RADIAN. ) );
#794 = DIRECTION ( 'NONE',  ( -1.000000000000000000, 0.000000000000000000, 0.000000000000000000 ) ) ;
#795 = STYLED_ITEM ( 'NONE', ( #991 ), #64 ) ;
#796 = DIRECTION ( 'NONE',  ( 1.000000000000000000, 0.000000000000000000, 0.000000000000000000 ) ) ;
#797 = COLOUR_RGB ( '',0.3294117647058823484, 0.5921568627450980449, 0.000000000000000000 ) ;
#798 = CARTESIAN_POINT ( 'NONE',  ( -6.000000000000000000, 2.799999999999999822, 0.000000000000000000 ) ) ;
#799 = CARTESIAN_POINT ( 'NONE',  ( 4.299999999999999822, -1.199999999999998623, 0.000000000000000000 ) ) ;
#800 = ADVANCED_FACE ( 'NONE', ( #361 ), #988, .F. ) ;
#801 = MECHANICAL_DESIGN_GEOMETRIC_PRESENTATION_REPRESENTATION (  '', ( #441 ), #309 ) ;
#802 = PLANE ( 'NONE',  #515 ) ;
#803 = SURFACE_STYLE_FILL_AREA ( #459 ) ;
#804 = VERTEX_POINT ( 'NONE', #416 ) ;
#805 = LINE ( 'NONE', #19, #182 ) ;
#806 =( NAMED_UNIT ( * ) PLANE_ANGLE_UNIT ( ) SI_UNIT ( $, .RADIAN. ) );
#807 = DIRECTION ( 'NONE',  ( -1.000000000000000000, -1.314184451497581259E-16, 0.000000000000000000 ) ) ;
#808 = CARTESIAN_POINT ( 'NONE',  ( -5.999999999999999112, -1.200000000000000178, 0.1000000000000000056 ) ) ;
#809 = APPLICATION_CONTEXT ( 'automotive_design' ) ;
#810 = CARTESIAN_POINT ( 'NONE',  ( -5.999999999999999112, -1.200000000000000178, 0.1000000000000000056 ) ) ;
#811 = VERTEX_POINT ( 'NONE', #124 ) ;
#812 = CARTESIAN_POINT ( 'NONE',  ( -4.299999999999999822, -1.199999999999999734, 0.1000000000000000056 ) ) ;
#813 = CARTESIAN_POINT ( 'NONE',  ( 0.000000000000000000, 0.000000000000000000, -1.399999999999999911 ) ) ;
#814 = PRODUCT_CONTEXT ( 'NONE', #905, 'mechanical' ) ;
#815 = MECHANICAL_DESIGN_GEOMETRIC_PRESENTATION_REPRESENTATION (  '', ( #157 ), #61 ) ;
#816 = LINE ( 'NONE', #810, #1115 ) ;
#817 = EDGE_CURVE ( 'NONE', #811, #343, #847, .T. ) ;
#818 = ORIENTED_EDGE ( 'NONE', *, *, #386, .T. ) ;
#819 = SURFACE_STYLE_USAGE ( .BOTH. , #984 ) ;
#820 = MECHANICAL_DESIGN_GEOMETRIC_PRESENTATION_REPRESENTATION (  '', ( #934 ), #234 ) ;
#821 = SURFACE_STYLE_USAGE ( .BOTH. , #1003 ) ;
#822 = FILL_AREA_STYLE_COLOUR ( '', #230 ) ;
#823 = AXIS2_PLACEMENT_3D ( 'NONE', #289, #390, #456 ) ;
#824 = ORIENTED_EDGE ( 'NONE', *, *, #587, .F. ) ;
#825 = DIRECTION ( 'NONE',  ( 1.000000000000000000, 0.000000000000000000, 0.000000000000000000 ) ) ;
#826 = SURFACE_STYLE_FILL_AREA ( #486 ) ;
#827 = PLANE ( 'NONE',  #415 ) ;
#828 = SURFACE_STYLE_USAGE ( .BOTH. , #668 ) ;
#829 = VERTEX_POINT ( 'NONE', #765 ) ;
#830 = EDGE_CURVE ( 'NONE', #636, #649, #493, .T. ) ;
#831 = DIRECTION ( 'NONE',  ( -1.000000000000000000, 0.000000000000000000, 0.000000000000000000 ) ) ;
#832 =( NAMED_UNIT ( * ) PLANE_ANGLE_UNIT ( ) SI_UNIT ( $, .RADIAN. ) );
#833 = CARTESIAN_POINT ( 'NONE',  ( -5.000000000000000000, 2.799999999999999822, 0.1000000000000000056 ) ) ;
#834 = UNCERTAINTY_MEASURE_WITH_UNIT (LENGTH_MEASURE( 1.000000000000000082E-05 ), #55, 'distance_accuracy_value', 'NONE');
#835 = ORIENTED_EDGE ( 'NONE', *, *, #1125, .T. ) ;
#836 = VECTOR ( 'NONE', #1074, 1000.000000000000000 ) ;
#837 = LINE ( 'NONE', #405, #97 ) ;
#838 = DIRECTION ( 'NONE',  ( -1.000000000000000000, -1.084202172485504927E-16, 0.000000000000000000 ) ) ;
#839 = MECHANICAL_DESIGN_GEOMETRIC_PRESENTATION_REPRESENTATION (  '', ( #1039 ), #536 ) ;
#840 = VECTOR ( 'NONE', #739, 1000.000000000000000 ) ;
#841 = VECTOR ( 'NONE', #1110, 1000.000000000000000 ) ;
#842 = PLANE ( 'NONE',  #163 ) ;
#843 = VERTEX_POINT ( 'NONE', #62 ) ;
#844 = SURFACE_SIDE_STYLE ('',( #762 ) ) ;
#845 = FILL_AREA_STYLE_COLOUR ( '', #570 ) ;
#846 = EDGE_CURVE ( 'NONE', #909, #460, #578, .T. ) ;
#847 = LINE ( 'NONE', #591, #841 ) ;
#848 = ORIENTED_EDGE ( 'NONE', *, *, #587, .T. ) ;
#849 = SURFACE_STYLE_USAGE ( .BOTH. , #1101 ) ;
#850 = FILL_AREA_STYLE ('',( #681 ) ) ;
#851 = EDGE_LOOP ( 'NONE', ( #782, #517, #226, #730 ) ) ;
#852 = VECTOR ( 'NONE', #278, 1000.000000000000000 ) ;
#853 = CARTESIAN_POINT ( 'NONE',  ( 4.999999999999999112, -1.199999999999998845, 0.1000000000000000056 ) ) ;
#854 = SURFACE_STYLE_FILL_AREA ( #595 ) ;
#855 = CARTESIAN_POINT ( 'NONE',  ( 5.999999999999999112, -1.199999999999998623, 0.1000000000000000056 ) ) ;
#856 = COLOUR_RGB ( '',1.000000000000000000, 0.9098039215686274384, 0.2156862745098039325 ) ;
#857 = COLOUR_RGB ( '',1.000000000000000000, 0.9098039215686274384, 0.2156862745098039325 ) ;
#858 = UNCERTAINTY_MEASURE_WITH_UNIT (LENGTH_MEASURE( 1.000000000000000082E-05 ), #153, 'distance_accuracy_value', 'NONE');
#859 = ORIENTED_EDGE ( 'NONE', *, *, #634, .F. ) ;
#860 = CARTESIAN_POINT ( 'NONE',  ( -6.800000000000000711, -3.299999999999999822, 0.000000000000000000 ) ) ;
#861 = VECTOR ( 'NONE', #883, 1000.000000000000000 ) ;
#862 = DIRECTION ( 'NONE',  ( -1.000000000000000000, -0.000000000000000000, -0.000000000000000000 ) ) ;
#863 = FACE_OUTER_BOUND ( 'NONE', #502, .T. ) ;
#864 = ORIENTED_EDGE ( 'NONE', *, *, #781, .T. ) ;
#865 =( NAMED_UNIT ( * ) PLANE_ANGLE_UNIT ( ) SI_UNIT ( $, .RADIAN. ) );
#866 =( NAMED_UNIT ( * ) PLANE_ANGLE_UNIT ( ) SI_UNIT ( $, .RADIAN. ) );
#867 = EDGE_LOOP ( 'NONE', ( #429, #372, #434, #215 ) ) ;
#868 = DIRECTION ( 'NONE',  ( 0.000000000000000000, -0.000000000000000000, 1.000000000000000000 ) ) ;
#869 = MECHANICAL_DESIGN_GEOMETRIC_PRESENTATION_REPRESENTATION (  '', ( #795 ), #907 ) ;
#870 = CARTESIAN_POINT ( 'NONE',  ( -6.800000000000001599, 3.299999999999999822, -1.399999999999999911 ) ) ;
#871 = VERTEX_POINT ( 'NONE', #584 ) ;
#872 = MECHANICAL_DESIGN_GEOMETRIC_PRESENTATION_REPRESENTATION (  '', ( #377 ), #771 ) ;
#873 = SURFACE_STYLE_USAGE ( .BOTH. , #71 ) ;
#874 = STYLED_ITEM ( 'NONE', ( #383 ), #658 ) ;
#875 =( GEOMETRIC_REPRESENTATION_CONTEXT ( 3 ) GLOBAL_UNCERTAINTY_ASSIGNED_CONTEXT ( ( #879 ) ) GLOBAL_UNIT_ASSIGNED_CONTEXT ( ( #200, #464, #371 ) ) REPRESENTATION_CONTEXT ( 'NONE', 'WORKASPACE' ) );
#876 = CARTESIAN_POINT ( 'NONE',  ( 5.999999999999999112, -1.199999999999998623, 0.1000000000000000056 ) ) ;
#877 = COLOUR_RGB ( '',1.000000000000000000, 0.9098039215686274384, 0.2156862745098039325 ) ;
#878 = DIRECTION ( 'NONE',  ( 0.000000000000000000, -0.000000000000000000, -1.000000000000000000 ) ) ;
#879 = UNCERTAINTY_MEASURE_WITH_UNIT (LENGTH_MEASURE( 1.000000000000000082E-05 ), #200, 'distance_accuracy_value', 'NONE');
#880 = ORIENTED_EDGE ( 'NONE', *, *, #1064, .T. ) ;
#881 = SURFACE_SIDE_STYLE ('',( #624 ) ) ;
#882 = CARTESIAN_POINT ( 'NONE',  ( 4.299999999999999822, 2.799999999999999378, 0.1000000000000000056 ) ) ;
#883 = DIRECTION ( 'NONE',  ( -0.000000000000000000, -0.000000000000000000, -1.000000000000000000 ) ) ;
#884 = SURFACE_SIDE_STYLE ('',( #897 ) ) ;
#885 =( NAMED_UNIT ( * ) SI_UNIT ( $, .STERADIAN. ) SOLID_ANGLE_UNIT ( ) );
#886 = SURFACE_SIDE_STYLE ('',( #949 ) ) ;
#887 = VECTOR ( 'NONE', #657, 1000.000000000000000 ) ;
#888 = PRESENTATION_STYLE_ASSIGNMENT (( #723 ) ) ;
#889 = CARTESIAN_POINT ( 'NONE',  ( -6.000000000000000000, 2.799999999999999822, 0.1000000000000000056 ) ) ;
#890 = ORIENTED_EDGE ( 'NONE', *, *, #615, .T. ) ;
#891 = AXIS2_PLACEMENT_3D ( 'NONE', #431, #527, #73 ) ;
#892 = LINE ( 'NONE', #651, #520 ) ;
#893 = MECHANICAL_DESIGN_GEOMETRIC_PRESENTATION_REPRESENTATION (  '', ( #773 ), #1040 ) ;
#894 = CARTESIAN_POINT ( 'NONE',  ( 4.999999999999999112, -1.199999999999998845, 0.000000000000000000 ) ) ;
#895 = FILL_AREA_STYLE ('',( #511 ) ) ;
#896 = APPLICATION_PROTOCOL_DEFINITION ( 'draft international standard', 'automotive_design', 1998, #809 ) ;
#897 = SURFACE_STYLE_FILL_AREA ( #553 ) ;
#898 = VERTEX_POINT ( 'NONE', #43 ) ;
#899 = CARTESIAN_POINT ( 'NONE',  ( 3.299999999999998934, 2.799999999999999378, 0.1000000000000000056 ) ) ;
#900 = APPLICATION_PROTOCOL_DEFINITION ( 'draft international standard', 'automotive_design', 1998, #905 ) ;
#901 = FACE_OUTER_BOUND ( 'NONE', #734, .T. ) ;
#902 = DIRECTION ( 'NONE',  ( 0.000000000000000000, -1.000000000000000000, 0.000000000000000000 ) ) ;
#903 = ORIENTED_EDGE ( 'NONE', *, *, #294, .F. ) ;
#904 = DIRECTION ( 'NONE',  ( -0.000000000000000000, -0.000000000000000000, -1.000000000000000000 ) ) ;
#905 = APPLICATION_CONTEXT ( 'automotive_design' ) ;
#906 = DIRECTION ( 'NONE',  ( -0.000000000000000000, 0.000000000000000000, 1.000000000000000000 ) ) ;
#907 =( GEOMETRIC_REPRESENTATION_CONTEXT ( 3 ) GLOBAL_UNCERTAINTY_ASSIGNED_CONTEXT ( ( #86 ) ) GLOBAL_UNIT_ASSIGNED_CONTEXT ( ( #369, #30, #1076 ) ) REPRESENTATION_CONTEXT ( 'NONE', 'WORKASPACE' ) );
#908 = DIRECTION ( 'NONE',  ( 2.168404344971008868E-16, -1.000000000000000000, 0.000000000000000000 ) ) ;
#909 = VERTEX_POINT ( 'NONE', #676 ) ;
#910 = CARTESIAN_POINT ( 'NONE',  ( 6.799999999999998046, 3.299999999999999822, -1.399999999999999911 ) ) ;
#911 = MECHANICAL_DESIGN_GEOMETRIC_PRESENTATION_REPRESENTATION (  '', ( #770 ), #438 ) ;
#912 = VECTOR ( 'NONE', #825, 1000.000000000000000 ) ;
#913 = PLANE ( 'NONE',  #373 ) ;
#914 =( GEOMETRIC_REPRESENTATION_CONTEXT ( 3 ) GLOBAL_UNCERTAINTY_ASSIGNED_CONTEXT ( ( #1104 ) ) GLOBAL_UNIT_ASSIGNED_CONTEXT ( ( #12, #1056, #1049 ) ) REPRESENTATION_CONTEXT ( 'NONE', 'WORKASPACE' ) );
#915 = CARTESIAN_POINT ( 'NONE',  ( 3.299999999999999378, -1.199999999999998845, 0.1000000000000000056 ) ) ;
#916 = CARTESIAN_POINT ( 'NONE',  ( 6.000000000000000000, 2.800000000000001155, 0.1000000000000000056 ) ) ;
#917 = ORIENTED_EDGE ( 'NONE', *, *, #781, .F. ) ;
#918 = CARTESIAN_POINT ( 'NONE',  ( 5.000000000000000000, 2.800000000000001155, 0.000000000000000000 ) ) ;
#919 = CARTESIAN_POINT ( 'NONE',  ( -4.299999999999999822, 2.799999999999998490, 0.1000000000000000056 ) ) ;
#920 =( LENGTH_UNIT ( ) NAMED_UNIT ( * ) SI_UNIT ( .MILLI., .METRE. ) );
#921 = CARTESIAN_POINT ( 'NONE',  ( -5.000000000000000000, 2.799999999999999822, 0.1000000000000000056 ) ) ;
#922 = ORIENTED_EDGE ( 'NONE', *, *, #1070, .F. ) ;
#923 = PRODUCT_DEFINITION ( 'UNKNOWN', '', #237, #424 ) ;
#924 = FACE_OUTER_BOUND ( 'NONE', #1051, .T. ) ;
#925 = LINE ( 'NONE', #498, #1037 ) ;
#926 = MECHANICAL_DESIGN_GEOMETRIC_PRESENTATION_REPRESENTATION (  '', ( #432 ), #280 ) ;
#927 = LINE ( 'NONE', #596, #326 ) ;
#928 = UNCERTAINTY_MEASURE_WITH_UNIT (LENGTH_MEASURE( 1.000000000000000082E-05 ), #440, 'distance_accuracy_value', 'NONE');
#929 = EDGE_LOOP ( 'NONE', ( #442, #1098, #276, #859 ) ) ;
#930 = STYLED_ITEM ( 'NONE', ( #652 ), #133 ) ;
#931 = LINE ( 'NONE', #692, #216 ) ;
#932 = CARTESIAN_POINT ( 'NONE',  ( -3.299999999999999378, -1.199999999999999734, 0.1000000000000000056 ) ) ;
#933 = PRESENTATION_STYLE_ASSIGNMENT (( #758 ) ) ;
#934 = STYLED_ITEM ( 'NONE', ( #346 ), #471 ) ;
#935 =( GEOMETRIC_REPRESENTATION_CONTEXT ( 3 ) GLOBAL_UNCERTAINTY_ASSIGNED_CONTEXT ( ( #337 ) ) GLOBAL_UNIT_ASSIGNED_CONTEXT ( ( #403, #674, #54 ) ) REPRESENTATION_CONTEXT ( 'NONE', 'WORKASPACE' ) );
#936 = LINE ( 'NONE', #916, #755 ) ;
#937 = VERTEX_POINT ( 'NONE', #392 ) ;
#938 =( GEOMETRIC_REPRESENTATION_CONTEXT ( 3 ) GLOBAL_UNCERTAINTY_ASSIGNED_CONTEXT ( ( #147 ) ) GLOBAL_UNIT_ASSIGNED_CONTEXT ( ( #1088, #646, #551 ) ) REPRESENTATION_CONTEXT ( 'NONE', 'WORKASPACE' ) );
#939 = FILL_AREA_STYLE ('',( #59 ) ) ;
#940 = CARTESIAN_POINT ( 'NONE',  ( 0.000000000000000000, 0.000000000000000000, 0.1000000000000000056 ) ) ;
#941 =( NAMED_UNIT ( * ) SI_UNIT ( $, .STERADIAN. ) SOLID_ANGLE_UNIT ( ) );
#942 = FACE_OUTER_BOUND ( 'NONE', #555, .T. ) ;
#943 = DIRECTION ( 'NONE',  ( 1.000000000000000000, 0.000000000000000000, -0.000000000000000000 ) ) ;
#944 = ORIENTED_EDGE ( 'NONE', *, *, #420, .T. ) ;
#945 = PLANE ( 'NONE',  #324 ) ;
#946 = PLANE ( 'NONE',  #1131 ) ;
#947 = FILL_AREA_STYLE ('',( #589 ) ) ;
#948 = ADVANCED_FACE ( 'NONE', ( #400 ), #999, .F. ) ;
#949 = SURFACE_STYLE_FILL_AREA ( #895 ) ;
#950 = EDGE_LOOP ( 'NONE', ( #286, #566, #1018, #1008 ) ) ;
#951 = SURFACE_SIDE_STYLE ('',( #1044 ) ) ;
#952 = CARTESIAN_POINT ( 'NONE',  ( -3.299999999999999822, 2.799999999999998490, 0.1000000000000000056 ) ) ;
#953 = PRESENTATION_LAYER_ASSIGNMENT (  '', '', ( #141 ) ) ;
#954 = ORIENTED_EDGE ( 'NONE', *, *, #420, .F. ) ;
#955 =( GEOMETRIC_REPRESENTATION_CONTEXT ( 3 ) GLOBAL_UNCERTAINTY_ASSIGNED_CONTEXT ( ( #543 ) ) GLOBAL_UNIT_ASSIGNED_CONTEXT ( ( #970, #165, #1052 ) ) REPRESENTATION_CONTEXT ( 'NONE', 'WORKASPACE' ) );
#956 = STYLED_ITEM ( 'NONE', ( #451 ), #1055 ) ;
#957 = EDGE_CURVE ( 'NONE', #15, #87, #1116, .T. ) ;
#958 = SURFACE_SIDE_STYLE ('',( #252 ) ) ;
#959 = ORIENTED_EDGE ( 'NONE', *, *, #294, .T. ) ;
#960 = FILL_AREA_STYLE ('',( #75 ) ) ;
#961 =( LENGTH_UNIT ( ) NAMED_UNIT ( * ) SI_UNIT ( .MILLI., .METRE. ) );
#962 = VERTEX_POINT ( 'NONE', #684 ) ;
#963 =( LENGTH_UNIT ( ) NAMED_UNIT ( * ) SI_UNIT ( .MILLI., .METRE. ) );
#964 = AXIS2_PLACEMENT_3D ( 'NONE', #764, #506, #682 ) ;
#965 = SURFACE_SIDE_STYLE ('',( #257 ) ) ;
#966 = EDGE_CURVE ( 'NONE', #640, #898, #303, .T. ) ;
#967 = DIRECTION ( 'NONE',  ( 0.000000000000000000, -1.000000000000000000, 0.000000000000000000 ) ) ;
#968 = EDGE_LOOP ( 'NONE', ( #959, #1072, #778, #18 ) ) ;
#969 = PRESENTATION_LAYER_ASSIGNMENT (  '', '', ( #1100 ) ) ;
#970 =( LENGTH_UNIT ( ) NAMED_UNIT ( * ) SI_UNIT ( .MILLI., .METRE. ) );
#971 = AXIS2_PLACEMENT_3D ( 'NONE', #678, #339, #350 ) ;
#972 = VECTOR ( 'NONE', #727, 1000.000000000000000 ) ;
#973 = CARTESIAN_POINT ( 'NONE',  ( 0.000000000000000000, 0.000000000000000000, 0.1000000000000000056 ) ) ;
#974 = ORIENTED_EDGE ( 'NONE', *, *, #344, .T. ) ;
#975 = FACE_OUTER_BOUND ( 'NONE', #184, .T. ) ;
#976 = CARTESIAN_POINT ( 'NONE',  ( 0.000000000000000000, 0.000000000000000000, 0.1000000000000000056 ) ) ;
#977 = DIRECTION ( 'NONE',  ( -2.168404344971008868E-16, 1.000000000000000000, 0.000000000000000000 ) ) ;
#978 = DIRECTION ( 'NONE',  ( -0.000000000000000000, -0.000000000000000000, -1.000000000000000000 ) ) ;
#979 = STYLED_ITEM ( 'NONE', ( #504 ), #268 ) ;
#980 = ORIENTED_EDGE ( 'NONE', *, *, #529, .T. ) ;
#981 = CARTESIAN_POINT ( 'NONE',  ( 4.299999999999999822, -1.199999999999998623, 0.1000000000000000056 ) ) ;
#982 = EDGE_LOOP ( 'NONE', ( #489, #366, #138, #772 ) ) ;
#983 = VECTOR ( 'NONE', #715, 1000.000000000000000 ) ;
#984 = SURFACE_SIDE_STYLE ('',( #994 ) ) ;
#985 = VECTOR ( 'NONE', #114, 1000.000000000000000 ) ;
#986 = EDGE_CURVE ( 'NONE', #58, #513, #936, .T. ) ;
#987 = CARTESIAN_POINT ( 'NONE',  ( 6.000000000000000000, 2.800000000000001155, 0.1000000000000000056 ) ) ;
#988 = PLANE ( 'NONE',  #1022 ) ;
#989 = CARTESIAN_POINT ( 'NONE',  ( -3.299999999999999822, 2.799999999999998490, 0.1000000000000000056 ) ) ;
#990 = FILL_AREA_STYLE ('',( #663 ) ) ;
#991 = PRESENTATION_STYLE_ASSIGNMENT (( #559 ) ) ;
#992 = SURFACE_STYLE_FILL_AREA ( #206 ) ;
#993 = VERTEX_POINT ( 'NONE', #321 ) ;
#994 = SURFACE_STYLE_FILL_AREA ( #642 ) ;
#995 = EDGE_CURVE ( 'NONE', #242, #640, #146, .T. ) ;
#996 = EDGE_CURVE ( 'NONE', #460, #232, #747, .T. ) ;
#997 = VECTOR ( 'NONE', #576, 1000.000000000000000 ) ;
#998 = CARTESIAN_POINT ( 'NONE',  ( 6.799999999999998046, 3.299999999999999822, -1.399999999999999911 ) ) ;
#999 = PLANE ( 'NONE',  #28 ) ;
#1000 = ORIENTED_EDGE ( 'NONE', *, *, #110, .F. ) ;
#1001 = LINE ( 'NONE', #910, #1002 ) ;
#1002 = VECTOR ( 'NONE', #16, 1000.000000000000000 ) ;
#1003 = SURFACE_SIDE_STYLE ('',( #203 ) ) ;
#1004 = STYLED_ITEM ( 'NONE', ( #365 ), #800 ) ;
#1005 = VECTOR ( 'NONE', #363, 1000.000000000000000 ) ;
#1006 = EDGE_CURVE ( 'NONE', #580, #937, #927, .T. ) ;
#1007 = DIRECTION ( 'NONE',  ( 0.000000000000000000, -0.000000000000000000, -1.000000000000000000 ) ) ;
#1008 = ORIENTED_EDGE ( 'NONE', *, *, #573, .T. ) ;
#1009 = SURFACE_STYLE_USAGE ( .BOTH. , #139 ) ;
#1010 = CARTESIAN_POINT ( 'NONE',  ( -6.800000000000000711, -3.299999999999999822, -1.399999999999999911 ) ) ;
#1011 =( LENGTH_UNIT ( ) NAMED_UNIT ( * ) SI_UNIT ( .MILLI., .METRE. ) );
#1012 = SURFACE_SIDE_STYLE ('',( #51 ) ) ;
#1013 = CARTESIAN_POINT ( 'NONE',  ( -4.299999999999999822, 2.799999999999998490, 0.1000000000000000056 ) ) ;
#1014 = ORIENTED_EDGE ( 'NONE', *, *, #665, .F. ) ;
#1015 = FILL_AREA_STYLE_COLOUR ( '', #797 ) ;
#1016 =( NAMED_UNIT ( * ) PLANE_ANGLE_UNIT ( ) SI_UNIT ( $, .RADIAN. ) );
#1017 = DIRECTION ( 'NONE',  ( -1.084202172485504927E-16, 1.000000000000000000, -0.000000000000000000 ) ) ;
#1018 = ORIENTED_EDGE ( 'NONE', *, *, #1034, .T. ) ;
#1019 = CARTESIAN_POINT ( 'NONE',  ( -4.999999999999999112, -1.200000000000000178, 0.1000000000000000056 ) ) ;
#1020 = VECTOR ( 'NONE', #120, 1000.000000000000000 ) ;
#1021 = DIRECTION ( 'NONE',  ( -0.000000000000000000, -0.000000000000000000, -1.000000000000000000 ) ) ;
#1022 = AXIS2_PLACEMENT_3D ( 'NONE', #560, #902, #1007 ) ;
#1023 = DIRECTION ( 'NONE',  ( 0.000000000000000000, 0.000000000000000000, 1.000000000000000000 ) ) ;
#1024 = EDGE_LOOP ( 'NONE', ( #617, #191, #279, #1135 ) ) ;
#1025 = PRESENTATION_STYLE_ASSIGNMENT (( #686 ) ) ;
#1026 = DIRECTION ( 'NONE',  ( 0.000000000000000000, -0.000000000000000000, -1.000000000000000000 ) ) ;
#1027 = DIRECTION ( 'NONE',  ( 0.000000000000000000, 1.000000000000000000, 0.000000000000000000 ) ) ;
#1028 = LINE ( 'NONE', #720, #1137 ) ;
#1029 = UNCERTAINTY_MEASURE_WITH_UNIT (LENGTH_MEASURE( 1.000000000000000082E-05 ), #963, 'distance_accuracy_value', 'NONE');
#1030 = ORIENTED_EDGE ( 'NONE', *, *, #817, .F. ) ;
#1031 = CARTESIAN_POINT ( 'NONE',  ( -5.000000000000000000, 2.799999999999999822, 0.000000000000000000 ) ) ;
#1032 = DIRECTION ( 'NONE',  ( 0.000000000000000000, -0.000000000000000000, 1.000000000000000000 ) ) ;
#1033 = ADVANCED_FACE ( 'NONE', ( #500 ), #842, .F. ) ;
#1034 = EDGE_CURVE ( 'NONE', #580, #317, #241, .T. ) ;
#1035 = EDGE_LOOP ( 'NONE', ( #631, #118, #1046, #53 ) ) ;
#1036 = PLANE ( 'NONE',  #423 ) ;
#1037 = VECTOR ( 'NONE', #1114, 1000.000000000000000 ) ;
#1038 = FILL_AREA_STYLE ('',( #696 ) ) ;
#1039 = STYLED_ITEM ( 'NONE', ( #620 ), #467 ) ;
#1040 =( GEOMETRIC_REPRESENTATION_CONTEXT ( 3 ) GLOBAL_UNCERTAINTY_ASSIGNED_CONTEXT ( ( #1029 ) ) GLOBAL_UNIT_ASSIGNED_CONTEXT ( ( #963, #865, #354 ) ) REPRESENTATION_CONTEXT ( 'NONE', 'WORKASPACE' ) );
#1041 = ORIENTED_EDGE ( 'NONE', *, *, #190, .T. ) ;
#1042 = VECTOR ( 'NONE', #1017, 1000.000000000000000 ) ;
#1043 = DIRECTION ( 'NONE',  ( 1.000000000000000000, -2.168404344971008868E-16, 0.000000000000000000 ) ) ;
#1044 = SURFACE_STYLE_FILL_AREA ( #345 ) ;
#1045 = FILL_AREA_STYLE_COLOUR ( '', #25 ) ;
#1046 = ORIENTED_EDGE ( 'NONE', *, *, #634, .T. ) ;
#1047 = SURFACE_SIDE_STYLE ('',( #780 ) ) ;
#1048 =( NAMED_UNIT ( * ) PLANE_ANGLE_UNIT ( ) SI_UNIT ( $, .RADIAN. ) );
#1049 =( NAMED_UNIT ( * ) SI_UNIT ( $, .STERADIAN. ) SOLID_ANGLE_UNIT ( ) );
#1050 = UNCERTAINTY_MEASURE_WITH_UNIT (LENGTH_MEASURE( 1.000000000000000082E-05 ), #419, 'distance_accuracy_value', 'NONE');
#1051 = EDGE_LOOP ( 'NONE', ( #322, #792, #708, #818 ) ) ;
#1052 =( NAMED_UNIT ( * ) SI_UNIT ( $, .STERADIAN. ) SOLID_ANGLE_UNIT ( ) );
#1053 = VECTOR ( 'NONE', #729, 1000.000000000000000 ) ;
#1054 = VECTOR ( 'NONE', #1021, 1000.000000000000000 ) ;
#1055 = ADVANCED_FACE ( 'NONE', ( #179 ), #600, .T. ) ;
#1056 =( NAMED_UNIT ( * ) PLANE_ANGLE_UNIT ( ) SI_UNIT ( $, .RADIAN. ) );
#1057 = VERTEX_POINT ( 'NONE', #808 ) ;
#1058 = VECTOR ( 'NONE', #149, 1000.000000000000000 ) ;
#1059 = PRESENTATION_STYLE_ASSIGNMENT (( #873 ) ) ;
#1060 = COLOUR_RGB ( '',0.3294117647058823484, 0.5921568627450980449, 0.000000000000000000 ) ;
#1061 = STYLED_ITEM ( 'NONE', ( #435 ), #767 ) ;
#1062 = DIRECTION ( 'NONE',  ( -0.000000000000000000, 1.000000000000000000, -0.000000000000000000 ) ) ;
#1063 = PRESENTATION_LAYER_ASSIGNMENT (  '', '', ( #441 ) ) ;
#1064 = EDGE_CURVE ( 'NONE', #148, #791, #707, .T. ) ;
#1065 = SURFACE_STYLE_USAGE ( .BOTH. , #1089 ) ;
#1066 = EDGE_LOOP ( 'NONE', ( #903, #922, #1126, #63 ) ) ;
#1067 = CARTESIAN_POINT ( 'NONE',  ( 4.999999999999999112, -1.199999999999998845, 0.1000000000000000056 ) ) ;
#1068 =( NAMED_UNIT ( * ) SI_UNIT ( $, .STERADIAN. ) SOLID_ANGLE_UNIT ( ) );
#1069 = VERTEX_POINT ( 'NONE', #347 ) ;
#1070 = EDGE_CURVE ( 'NONE', #1078, #513, #351, .T. ) ;
#1071 =( NAMED_UNIT ( * ) PLANE_ANGLE_UNIT ( ) SI_UNIT ( $, .RADIAN. ) );
#1072 = ORIENTED_EDGE ( 'NONE', *, *, #1093, .F. ) ;
#1073 = CARTESIAN_POINT ( 'NONE',  ( -6.000000000000000000, 2.799999999999999822, 0.000000000000000000 ) ) ;
#1074 = DIRECTION ( 'NONE',  ( -1.000000000000000000, 0.000000000000000000, 0.000000000000000000 ) ) ;
#1075 = CARTESIAN_POINT ( 'NONE',  ( 0.000000000000000000, 0.000000000000000000, 0.000000000000000000 ) ) ;
#1076 =( NAMED_UNIT ( * ) SI_UNIT ( $, .STERADIAN. ) SOLID_ANGLE_UNIT ( ) );
#1077 = LINE ( 'NONE', #798, #69 ) ;
#1078 = VERTEX_POINT ( 'NONE', #550 ) ;
#1079 = COLOUR_RGB ( '',1.000000000000000000, 0.9098039215686274384, 0.2156862745098039325 ) ;
#1080 = CARTESIAN_POINT ( 'NONE',  ( -6.800000000000001599, 3.299999999999999822, -1.399999999999999911 ) ) ;
#1081 = VECTOR ( 'NONE', #208, 1000.000000000000000 ) ;
#1082 = CARTESIAN_POINT ( 'NONE',  ( -4.299999999999999822, 2.799999999999998490, 0.000000000000000000 ) ) ;
#1083 = CARTESIAN_POINT ( 'NONE',  ( -4.299999999999999822, 2.799999999999998490, 0.1000000000000000056 ) ) ;
#1084 = ORIENTED_EDGE ( 'NONE', *, *, #966, .F. ) ;
#1085 = EDGE_CURVE ( 'NONE', #2, #70, #710, .T. ) ;
#1086 = LINE ( 'NONE', #374, #481 ) ;
#1087 = CARTESIAN_POINT ( 'NONE',  ( 4.299999999999999822, 2.799999999999999378, 0.1000000000000000056 ) ) ;
#1088 =( LENGTH_UNIT ( ) NAMED_UNIT ( * ) SI_UNIT ( .MILLI., .METRE. ) );
#1089 = SURFACE_SIDE_STYLE ('',( #992 ) ) ;
#1090 = EDGE_LOOP ( 'NONE', ( #677, #1140, #349, #333 ) ) ;
#1091 = LINE ( 'NONE', #1067, #379 ) ;
#1092 = LINE ( 'NONE', #295, #887 ) ;
#1093 = EDGE_CURVE ( 'NONE', #804, #475, #690, .T. ) ;
#1094 = PRESENTATION_LAYER_ASSIGNMENT (  '', '', ( #432 ) ) ;
#1095 =( GEOMETRIC_REPRESENTATION_CONTEXT ( 3 ) GLOBAL_UNCERTAINTY_ASSIGNED_CONTEXT ( ( #834 ) ) GLOBAL_UNIT_ASSIGNED_CONTEXT ( ( #55, #777, #941 ) ) REPRESENTATION_CONTEXT ( 'NONE', 'WORKASPACE' ) );
#1096 =( NAMED_UNIT ( * ) SI_UNIT ( $, .STERADIAN. ) SOLID_ANGLE_UNIT ( ) );
#1097 = SURFACE_STYLE_FILL_AREA ( #239 ) ;
#1098 = ORIENTED_EDGE ( 'NONE', *, *, #650, .F. ) ;
#1099 = DIRECTION ( 'NONE',  ( -1.000000000000000000, -2.168404344971008868E-16, 0.000000000000000000 ) ) ;
#1100 = STYLED_ITEM ( 'NONE', ( #193 ), #428 ) ;
#1101 = SURFACE_SIDE_STYLE ('',( #751 ) ) ;
#1102 = VECTOR ( 'NONE', #231, 1000.000000000000000 ) ;
#1103 = FACE_BOUND ( 'NONE', #91, .T. ) ;
#1104 = UNCERTAINTY_MEASURE_WITH_UNIT (LENGTH_MEASURE( 1.000000000000000082E-05 ), #12, 'distance_accuracy_value', 'NONE');
#1105 = VERTEX_POINT ( 'NONE', #6 ) ;
#1106 = SURFACE_STYLE_FILL_AREA ( #329 ) ;
#1107 = DIRECTION ( 'NONE',  ( -2.628368902995162518E-16, 1.000000000000000000, -0.000000000000000000 ) ) ;
#1108 = DIRECTION ( 'NONE',  ( 1.084202172485504927E-16, -1.000000000000000000, 0.000000000000000000 ) ) ;
#1109 = LINE ( 'NONE', #238, #370 ) ;
#1110 = DIRECTION ( 'NONE',  ( -0.000000000000000000, 1.000000000000000000, -0.000000000000000000 ) ) ;
#1111 = EDGE_LOOP ( 'NONE', ( #1117, #524, #207, #526 ) ) ;
#1112 = CARTESIAN_POINT ( 'NONE',  ( 6.799999999999998046, 3.299999999999999822, 0.000000000000000000 ) ) ;
#1113 = PLANE ( 'NONE',  #100 ) ;
#1114 = DIRECTION ( 'NONE',  ( -2.168404344971008868E-16, -1.000000000000000000, 0.000000000000000000 ) ) ;
#1115 = VECTOR ( 'NONE', #659, 1000.000000000000000 ) ;
#1116 = LINE ( 'NONE', #129, #218 ) ;
#1117 = ORIENTED_EDGE ( 'NONE', *, *, #698, .T. ) ;
#1118 = SURFACE_STYLE_FILL_AREA ( #947 ) ;
#1119 =( GEOMETRIC_REPRESENTATION_CONTEXT ( 3 ) GLOBAL_UNCERTAINTY_ASSIGNED_CONTEXT ( ( #1050 ) ) GLOBAL_UNIT_ASSIGNED_CONTEXT ( ( #419, #1124, #509 ) ) REPRESENTATION_CONTEXT ( 'NONE', 'WORKASPACE' ) );
#1120 = PRESENTATION_LAYER_ASSIGNMENT (  '', '', ( #1061 ) ) ;
#1121 =( NAMED_UNIT ( * ) PLANE_ANGLE_UNIT ( ) SI_UNIT ( $, .RADIAN. ) );
#1122 = ORIENTED_EDGE ( 'NONE', *, *, #110, .T. ) ;
#1123 = MECHANICAL_DESIGN_GEOMETRIC_PRESENTATION_REPRESENTATION (  '', ( #956 ), #360 ) ;
#1124 =( NAMED_UNIT ( * ) PLANE_ANGLE_UNIT ( ) SI_UNIT ( $, .RADIAN. ) );
#1125 = EDGE_CURVE ( 'NONE', #164, #1078, #1028, .T. ) ;
#1126 = ORIENTED_EDGE ( 'NONE', *, *, #1125, .F. ) ;
#1127 = LINE ( 'NONE', #876, #519 ) ;
#1128 = SURFACE_STYLE_USAGE ( .BOTH. , #453 ) ;
#1129 = ORIENTED_EDGE ( 'NONE', *, *, #606, .F. ) ;
#1130 = CARTESIAN_POINT ( 'NONE',  ( -4.299999999999999822, -1.199999999999999734, 0.1000000000000000056 ) ) ;
#1131 = AXIS2_PLACEMENT_3D ( 'NONE', #330, #1138, #450 ) ;
#1132 = DIRECTION ( 'NONE',  ( 0.000000000000000000, 0.000000000000000000, 1.000000000000000000 ) ) ;
#1133 = COLOUR_RGB ( '',0.3294117647058823484, 0.5921568627450980449, 0.000000000000000000 ) ;
#1134 = AXIS2_PLACEMENT_3D ( 'NONE', #940, #586, #687 ) ;
#1135 = ORIENTED_EDGE ( 'NONE', *, *, #33, .T. ) ;
#1136 =( LENGTH_UNIT ( ) NAMED_UNIT ( * ) SI_UNIT ( .MILLI., .METRE. ) );
#1137 = VECTOR ( 'NONE', #446, 1000.000000000000000 ) ;
#1138 = DIRECTION ( 'NONE',  ( 0.000000000000000000, 1.000000000000000000, 0.000000000000000000 ) ) ;
#1139 = SURFACE_STYLE_FILL_AREA ( #850 ) ;
#1140 = ORIENTED_EDGE ( 'NONE', *, *, #180, .T. ) ;
#1141 = FACE_OUTER_BOUND ( 'NONE', #201, .T. ) ;
#1142 = ADVANCED_FACE ( 'NONE', ( #722 ), #779, .F. ) ;
#1143 =( LENGTH_UNIT ( ) NAMED_UNIT ( * ) SI_UNIT ( .MILLI., .METRE. ) );
#1144 = PLANE ( 'NONE',  #7 ) ;
#1145 = DIRECTION ( 'NONE',  ( -0.000000000000000000, 0.000000000000000000, 1.000000000000000000 ) ) ;
ENDSEC;
END-ISO-10303-21;
