ISO-10303-21;
HEADER;
FILE_DESCRIPTION (( 'STEP AP214' ),
    '1' );
FILE_NAME ('HEPI Housing base.STEP',
    '2026-01-09T11:21:24',
    ( '' ),
    ( '' ),
    'SwSTEP 2.0',
    'SolidWorks 2024',
    '' );
FILE_SCHEMA (( 'AUTOMOTIVE_DESIGN' ));
ENDSEC;

DATA;
#1 = EDGE_LOOP ( 'NONE', ( #844, #39, #1009, #577 ) ) ;
#2 = ORIENTED_EDGE ( 'NONE', *, *, #556, .F. ) ;
#3 = DIRECTION ( 'NONE',  ( 0.000000000000000000, -1.000000000000000000, 0.000000000000000000 ) ) ;
#4 = AXIS2_PLACEMENT_3D ( 'NONE', #975, #22, #1298 ) ;
#5 = CARTESIAN_POINT ( 'NONE',  ( -16.00000000000000000, 0.000000000000000000, -5.575896887068297953E-16 ) ) ;
#6 = EDGE_CURVE ( 'NONE', #1282, #824, #550, .T. ) ;
#7 = LINE ( 'NONE', #439, #246 ) ;
#8 = VECTOR ( 'NONE', #924, 1000.000000000000000 ) ;
#9 = ORIENTED_EDGE ( 'NONE', *, *, #947, .T. ) ;
#10 = CIRCLE ( 'NONE', #391, 1.499999999999999556 ) ;
#11 = VECTOR ( 'NONE', #1352, 1000.000000000000000 ) ;
#12 = LINE ( 'NONE', #1283, #1229 ) ;
#13 = DIRECTION ( 'NONE',  ( -0.000000000000000000, -1.000000000000000000, -0.000000000000000000 ) ) ;
#14 = ORIENTED_EDGE ( 'NONE', *, *, #295, .F. ) ;
#15 = ORIENTED_EDGE ( 'NONE', *, *, #141, .F. ) ;
#16 = DIRECTION ( 'NONE',  ( 0.000000000000000000, 1.000000000000000000, 0.000000000000000000 ) ) ;
#17 = CYLINDRICAL_SURFACE ( 'NONE', #4, 1.500000000000000000 ) ;
#18 = DIRECTION ( 'NONE',  ( 0.000000000000000000, 1.000000000000000000, 0.000000000000000000 ) ) ;
#19 = EDGE_CURVE ( 'NONE', #1259, #1302, #958, .T. ) ;
#20 = ORIENTED_EDGE ( 'NONE', *, *, #556, .T. ) ;
#21 = DIRECTION ( 'NONE',  ( -0.000000000000000000, 1.000000000000000000, -0.000000000000000000 ) ) ;
#22 = DIRECTION ( 'NONE',  ( 0.000000000000000000, 1.000000000000000000, 0.000000000000000000 ) ) ;
#23 = DIRECTION ( 'NONE',  ( 0.000000000000000000, 0.000000000000000000, 1.000000000000000000 ) ) ;
#24 = LINE ( 'NONE', #863, #737 ) ;
#25 = EDGE_LOOP ( 'NONE', ( #434, #1114, #940, #604 ) ) ;
#26 = EDGE_CURVE ( 'NONE', #46, #1069, #7, .T. ) ;
#27 = VECTOR ( 'NONE', #535, 1000.000000000000000 ) ;
#28 = PLANE ( 'NONE',  #650 ) ;
#29 = AXIS2_PLACEMENT_3D ( 'NONE', #376, #601, #491 ) ;
#30 = CARTESIAN_POINT ( 'NONE',  ( -9.000000000000007105, 0.4999999999999995559, 9.000000000000001776 ) ) ;
#31 = DIRECTION ( 'NONE',  ( 0.000000000000000000, 0.000000000000000000, 1.000000000000000000 ) ) ;
#32 = EDGE_LOOP ( 'NONE', ( #289, #595 ) ) ;
#33 = CARTESIAN_POINT ( 'NONE',  ( 15.50000000000000178, 0.4999999999999995559, -3.799999999999999822 ) ) ;
#34 = EDGE_CURVE ( 'NONE', #859, #976, #441, .T. ) ;
#35 = EDGE_CURVE ( 'NONE', #494, #1069, #862, .T. ) ;
#36 = CYLINDRICAL_SURFACE ( 'NONE', #142, 1.500000000000000444 ) ;
#37 =( NAMED_UNIT ( * ) PLANE_ANGLE_UNIT ( ) SI_UNIT ( $, .RADIAN. ) );
#38 = DIRECTION ( 'NONE',  ( 0.000000000000000000, 0.000000000000000000, 1.000000000000000000 ) ) ;
#39 = ORIENTED_EDGE ( 'NONE', *, *, #65, .T. ) ;
#40 = ORIENTED_EDGE ( 'NONE', *, *, #656, .T. ) ;
#41 = CARTESIAN_POINT ( 'NONE',  ( 13.99999999999999822, 0.000000000000000000, -1.749999999999998890 ) ) ;
#42 = DIRECTION ( 'NONE',  ( -1.000000000000000000, 0.000000000000000000, -4.956352788505166226E-16 ) ) ;
#43 = EDGE_CURVE ( 'NONE', #1282, #174, #293, .T. ) ;
#44 = CARTESIAN_POINT ( 'NONE',  ( 17.50000000000000000, 7.500000000000000000, 10.49999999999999645 ) ) ;
#45 = LINE ( 'NONE', #471, #855 ) ;
#46 = VERTEX_POINT ( 'NONE', #775 ) ;
#47 = ORIENTED_EDGE ( 'NONE', *, *, #83, .T. ) ;
#48 = FACE_BOUND ( 'NONE', #1058, .T. ) ;
#49 = AXIS2_PLACEMENT_3D ( 'NONE', #1350, #1049, #201 ) ;
#50 = DIRECTION ( 'NONE',  ( 0.000000000000000000, 0.000000000000000000, -1.000000000000000000 ) ) ;
#51 = AXIS2_PLACEMENT_3D ( 'NONE', #884, #674, #780 ) ;
#52 = DIRECTION ( 'NONE',  ( 0.000000000000000000, 0.000000000000000000, 1.000000000000000000 ) ) ;
#53 = CARTESIAN_POINT ( 'NONE',  ( 16.00000000000000000, 0.000000000000000000, -9.000000000000000000 ) ) ;
#54 = ADVANCED_FACE ( 'NONE', ( #1285 ), #249, .T. ) ;
#55 = EDGE_LOOP ( 'NONE', ( #103, #440, #188, #735 ) ) ;
#56 = ORIENTED_EDGE ( 'NONE', *, *, #93, .T. ) ;
#57 = FACE_BOUND ( 'NONE', #260, .T. ) ;
#58 = DIRECTION ( 'NONE',  ( 1.000000000000000000, 0.000000000000000000, -9.912705577010325549E-17 ) ) ;
#59 = CARTESIAN_POINT ( 'NONE',  ( -16.00000000000000000, 0.000000000000000000, -1.050000000000000266 ) ) ;
#60 = DIRECTION ( 'NONE',  ( -0.000000000000000000, 1.000000000000000000, -0.000000000000000000 ) ) ;
#61 = VERTEX_POINT ( 'NONE', #868 ) ;
#62 = ADVANCED_FACE ( 'NONE', ( #454 ), #219, .F. ) ;
#63 = VERTEX_POINT ( 'NONE', #353 ) ;
#64 = CARTESIAN_POINT ( 'NONE',  ( 17.50000000000000355, 0.000000000000000000, -3.249999999999994227 ) ) ;
#65 = EDGE_CURVE ( 'NONE', #400, #1125, #489, .T. ) ;
#66 = DIRECTION ( 'NONE',  ( -0.000000000000000000, 1.000000000000000000, -0.000000000000000000 ) ) ;
#67 = CARTESIAN_POINT ( 'NONE',  ( 15.50000000000000178, 0.000000000000000000, -5.500000000000000000 ) ) ;
#68 = DIRECTION ( 'NONE',  ( 0.000000000000000000, 0.000000000000000000, 1.000000000000000000 ) ) ;
#69 = AXIS2_PLACEMENT_3D ( 'NONE', #67, #806, #1117 ) ;
#70 = ORIENTED_EDGE ( 'NONE', *, *, #352, .T. ) ;
#71 =( GEOMETRIC_REPRESENTATION_CONTEXT ( 3 ) GLOBAL_UNCERTAINTY_ASSIGNED_CONTEXT ( ( #419 ) ) GLOBAL_UNIT_ASSIGNED_CONTEXT ( ( #997, #37, #1219 ) ) REPRESENTATION_CONTEXT ( 'NONE', 'WORKASPACE' ) );
#72 = ORIENTED_EDGE ( 'NONE', *, *, #1295, .F. ) ;
#73 = CARTESIAN_POINT ( 'NONE',  ( -9.000000000000007105, 7.500000000000000000, 10.50000000000000000 ) ) ;
#74 = ADVANCED_FACE ( 'NONE', ( #1067 ), #1195, .F. ) ;
#75 = DIRECTION ( 'NONE',  ( -0.000000000000000000, -1.000000000000000000, -0.000000000000000000 ) ) ;
#76 = CIRCLE ( 'NONE', #1157, 1.049999999999998934 ) ;
#77 = PLANE ( 'NONE',  #1062 ) ;
#78 = AXIS2_PLACEMENT_3D ( 'NONE', #1286, #1176, #229 ) ;
#79 = DIRECTION ( 'NONE',  ( 1.652117596168387756E-16, 0.000000000000000000, -1.000000000000000000 ) ) ;
#80 = VERTEX_POINT ( 'NONE', #1280 ) ;
#81 = ORIENTED_EDGE ( 'NONE', *, *, #1281, .T. ) ;
#82 = CYLINDRICAL_SURFACE ( 'NONE', #1028, 0.5500000000000014877 ) ;
#83 = EDGE_CURVE ( 'NONE', #1163, #777, #658, .T. ) ;
#84 = ADVANCED_FACE ( 'NONE', ( #745 ), #1169, .F. ) ;
#85 = DIRECTION ( 'NONE',  ( 1.000000000000000000, 0.000000000000000000, -9.912705577010326782E-17 ) ) ;
#86 = DIRECTION ( 'NONE',  ( 1.000000000000000000, 0.000000000000000000, 0.000000000000000000 ) ) ;
#87 = ORIENTED_EDGE ( 'NONE', *, *, #370, .T. ) ;
#88 = PRODUCT_DEFINITION_CONTEXT ( 'detailed design', #212, 'design' ) ;
#89 = ORIENTED_EDGE ( 'NONE', *, *, #675, .F. ) ;
#90 = CARTESIAN_POINT ( 'NONE',  ( 13.99999999999999822, 0.4999999999999995559, -1.749999999999998890 ) ) ;
#91 = FACE_OUTER_BOUND ( 'NONE', #1348, .T. ) ;
#92 = PRESENTATION_STYLE_ASSIGNMENT (( #107 ) ) ;
#93 = EDGE_CURVE ( 'NONE', #727, #208, #956, .T. ) ;
#94 = ORIENTED_EDGE ( 'NONE', *, *, #225, .F. ) ;
#95 = ORIENTED_EDGE ( 'NONE', *, *, #313, .F. ) ;
#96 = AXIS2_PLACEMENT_3D ( 'NONE', #30, #549, #767 ) ;
#97 = DIRECTION ( 'NONE',  ( -0.000000000000000000, 1.000000000000000000, -0.000000000000000000 ) ) ;
#98 = CARTESIAN_POINT ( 'NONE',  ( 16.00000000000000000, 7.500000000000000000, -10.50000000000000355 ) ) ;
#99 = VECTOR ( 'NONE', #396, 1000.000000000000000 ) ;
#100 = EDGE_LOOP ( 'NONE', ( #584, #178 ) ) ;
#101 = AXIS2_PLACEMENT_3D ( 'NONE', #799, #1339, #68 ) ;
#102 = EDGE_CURVE ( 'NONE', #1349, #1207, #1101, .T. ) ;
#103 = ORIENTED_EDGE ( 'NONE', *, *, #757, .T. ) ;
#104 = CARTESIAN_POINT ( 'NONE',  ( 15.50000000000000178, 0.4999999999999995559, 5.500000000000000000 ) ) ;
#105 = ORIENTED_EDGE ( 'NONE', *, *, #995, .T. ) ;
#106 = LINE ( 'NONE', #729, #406 ) ;
#107 = SURFACE_STYLE_USAGE ( .BOTH. , #1154 ) ;
#108 = EDGE_LOOP ( 'NONE', ( #160, #945 ) ) ;
#109 = ORIENTED_EDGE ( 'NONE', *, *, #19, .T. ) ;
#110 = CARTESIAN_POINT ( 'NONE',  ( -10.50000000000000533, 0.4999999999999995559, 9.000000000000001776 ) ) ;
#111 = ORIENTED_EDGE ( 'NONE', *, *, #739, .T. ) ;
#112 = FACE_OUTER_BOUND ( 'NONE', #910, .T. ) ;
#113 =( NAMED_UNIT ( * ) SI_UNIT ( $, .STERADIAN. ) SOLID_ANGLE_UNIT ( ) );
#114 = DIRECTION ( 'NONE',  ( 0.000000000000000000, 1.000000000000000000, 0.000000000000000000 ) ) ;
#115 = ORIENTED_EDGE ( 'NONE', *, *, #1208, .T. ) ;
#116 = AXIS2_PLACEMENT_3D ( 'NONE', #761, #18, #31 ) ;
#117 = CARTESIAN_POINT ( 'NONE',  ( 15.50000000000000178, 0.4999999999999995559, -5.500000000000000000 ) ) ;
#118 = EDGE_CURVE ( 'NONE', #1069, #817, #978, .T. ) ;
#119 = DIRECTION ( 'NONE',  ( 0.000000000000000000, 0.000000000000000000, -1.000000000000000000 ) ) ;
#120 = VERTEX_POINT ( 'NONE', #367 ) ;
#121 = VECTOR ( 'NONE', #1086, 1000.000000000000000 ) ;
#122 = ORIENTED_EDGE ( 'NONE', *, *, #1165, .F. ) ;
#123 = VECTOR ( 'NONE', #540, 1000.000000000000000 ) ;
#124 = VECTOR ( 'NONE', #1242, 1000.000000000000000 ) ;
#125 = DIRECTION ( 'NONE',  ( 0.000000000000000000, 0.000000000000000000, 1.000000000000000000 ) ) ;
#126 = CYLINDRICAL_SURFACE ( 'NONE', #1199, 1.499999999999999556 ) ;
#127 = EDGE_CURVE ( 'NONE', #789, #404, #792, .T. ) ;
#128 = VERTEX_POINT ( 'NONE', #990 ) ;
#129 = ORIENTED_EDGE ( 'NONE', *, *, #155, .T. ) ;
#130 = PLANE ( 'NONE',  #960 ) ;
#131 = DIRECTION ( 'NONE',  ( -0.000000000000000000, -1.000000000000000000, -0.000000000000000000 ) ) ;
#132 = EDGE_CURVE ( 'NONE', #1037, #1201, #1109, .T. ) ;
#133 = ORIENTED_EDGE ( 'NONE', *, *, #315, .T. ) ;
#134 = ORIENTED_EDGE ( 'NONE', *, *, #1072, .F. ) ;
#135 = PLANE ( 'NONE',  #671 ) ;
#136 = CARTESIAN_POINT ( 'NONE',  ( 16.00000000000000000, 0.000000000000000000, 3.250000000000001332 ) ) ;
#137 = CIRCLE ( 'NONE', #1222, 1.500000000000000000 ) ;
#138 = DIRECTION ( 'NONE',  ( 0.000000000000000000, -1.000000000000000000, 0.000000000000000000 ) ) ;
#139 = DIRECTION ( 'NONE',  ( 0.000000000000000000, 1.000000000000000000, 0.000000000000000000 ) ) ;
#140 = VERTEX_POINT ( 'NONE', #691 ) ;
#141 = EDGE_CURVE ( 'NONE', #1201, #208, #1014, .T. ) ;
#142 = AXIS2_PLACEMENT_3D ( 'NONE', #797, #804, #50 ) ;
#143 = FACE_OUTER_BOUND ( 'NONE', #898, .T. ) ;
#144 = AXIS2_PLACEMENT_3D ( 'NONE', #446, #139, #38 ) ;
#145 = CARTESIAN_POINT ( 'NONE',  ( 16.00000000000000000, 7.500000000000000000, 10.49999999999999645 ) ) ;
#146 = ORIENTED_EDGE ( 'NONE', *, *, #802, .T. ) ;
#147 = ADVANCED_FACE ( 'NONE', ( #677 ), #582, .F. ) ;
#148 = CYLINDRICAL_SURFACE ( 'NONE', #563, 1.500000000000000000 ) ;
#149 = DIRECTION ( 'NONE',  ( -0.000000000000000000, -1.000000000000000000, -0.000000000000000000 ) ) ;
#150 = CARTESIAN_POINT ( 'NONE',  ( 17.50000000000000000, 0.4999999999999995559, 3.250000000000002665 ) ) ;
#151 = VERTEX_POINT ( 'NONE', #683 ) ;
#152 = ORIENTED_EDGE ( 'NONE', *, *, #479, .T. ) ;
#153 = DIRECTION ( 'NONE',  ( 1.000000000000000000, 0.000000000000000000, -9.912705577010326782E-17 ) ) ;
#154 = CARTESIAN_POINT ( 'NONE',  ( 13.99999999999999822, 0.4999999999999995559, -1.749999999999998890 ) ) ;
#155 = EDGE_CURVE ( 'NONE', #80, #1215, #666, .T. ) ;
#156 = DIRECTION ( 'NONE',  ( 0.000000000000000000, 0.000000000000000000, 1.000000000000000000 ) ) ;
#157 = PLANE ( 'NONE',  #1030 ) ;
#158 = AXIS2_PLACEMENT_3D ( 'NONE', #524, #411, #937 ) ;
#159 = ORIENTED_EDGE ( 'NONE', *, *, #1311, .T. ) ;
#160 = ORIENTED_EDGE ( 'NONE', *, *, #925, .T. ) ;
#161 = DIRECTION ( 'NONE',  ( -0.000000000000000000, 1.000000000000000000, -0.000000000000000000 ) ) ;
#162 = VECTOR ( 'NONE', #284, 1000.000000000000000 ) ;
#163 = DIRECTION ( 'NONE',  ( 4.956352788505166226E-16, 0.000000000000000000, -1.000000000000000000 ) ) ;
#164 = VECTOR ( 'NONE', #876, 1000.000000000000000 ) ;
#165 = DIRECTION ( 'NONE',  ( 1.652117596168387756E-16, 0.000000000000000000, -1.000000000000000000 ) ) ;
#166 = CARTESIAN_POINT ( 'NONE',  ( -16.00000000000000000, 0.000000000000000000, 1.050000000000000266 ) ) ;
#167 = ORIENTED_EDGE ( 'NONE', *, *, #766, .F. ) ;
#168 = ORIENTED_EDGE ( 'NONE', *, *, #1098, .F. ) ;
#169 = CARTESIAN_POINT ( 'NONE',  ( -17.50000000000000000, 0.000000000000000000, 1.500000000000001332 ) ) ;
#170 = SURFACE_SIDE_STYLE ('',( #908 ) ) ;
#171 = CARTESIAN_POINT ( 'NONE',  ( 13.99999999999999822, 0.000000000000000000, -0.2499999999999997780 ) ) ;
#172 = ORIENTED_EDGE ( 'NONE', *, *, #552, .F. ) ;
#173 = EDGE_CURVE ( 'NONE', #927, #1238, #1197, .T. ) ;
#174 = VERTEX_POINT ( 'NONE', #59 ) ;
#175 = CARTESIAN_POINT ( 'NONE',  ( 15.50000000000000178, 0.000000000000000000, 3.799999999999999822 ) ) ;
#176 = FACE_OUTER_BOUND ( 'NONE', #297, .T. ) ;
#177 = LINE ( 'NONE', #393, #985 ) ;
#178 = ORIENTED_EDGE ( 'NONE', *, *, #360, .T. ) ;
#179 = AXIS2_PLACEMENT_3D ( 'NONE', #347, #1187, #210 ) ;
#180 = ORIENTED_EDGE ( 'NONE', *, *, #207, .T. ) ;
#181 = CARTESIAN_POINT ( 'NONE',  ( 16.00000000000000000, 0.4999999999999995559, 9.000000000000000000 ) ) ;
#182 = VECTOR ( 'NONE', #1369, 1000.000000000000000 ) ;
#183 = DIRECTION ( 'NONE',  ( 0.000000000000000000, 0.000000000000000000, 1.000000000000000000 ) ) ;
#184 = CIRCLE ( 'NONE', #606, 1.500000000000000000 ) ;
#185 = CARTESIAN_POINT ( 'NONE',  ( 13.99999999999999822, 0.4999999999999995559, -0.2499999999999997780 ) ) ;
#186 = MANIFOLD_SOLID_BREP ( 'Cut-Extrude12', #1313 ) ;
#187 = ORIENTED_EDGE ( 'NONE', *, *, #939, .T. ) ;
#188 = ORIENTED_EDGE ( 'NONE', *, *, #853, .F. ) ;
#189 = DIRECTION ( 'NONE',  ( 0.000000000000000000, -1.000000000000000000, -0.000000000000000000 ) ) ;
#190 = CARTESIAN_POINT ( 'NONE',  ( -9.000000000000007105, 0.4999999999999995559, 10.50000000000000000 ) ) ;
#191 = CARTESIAN_POINT ( 'NONE',  ( 16.00000000000000000, 0.000000000000000000, -7.950000000000000178 ) ) ;
#192 = ORIENTED_EDGE ( 'NONE', *, *, #747, .T. ) ;
#193 = APPLICATION_CONTEXT ( 'automotive_design' ) ;
#194 = VERTEX_POINT ( 'NONE', #470 ) ;
#195 = DIRECTION ( 'NONE',  ( 1.652117596168387756E-16, 0.000000000000000000, -1.000000000000000000 ) ) ;
#196 = DIRECTION ( 'NONE',  ( 0.000000000000000000, 1.000000000000000000, 0.000000000000000000 ) ) ;
#197 = APPLICATION_PROTOCOL_DEFINITION ( 'draft international standard', 'automotive_design', 1998, #193 ) ;
#198 = ORIENTED_EDGE ( 'NONE', *, *, #553, .F. ) ;
#199 = ORIENTED_EDGE ( 'NONE', *, *, #1255, .T. ) ;
#200 = VECTOR ( 'NONE', #1039, 1000.000000000000000 ) ;
#201 = DIRECTION ( 'NONE',  ( 0.000000000000000000, 0.000000000000000000, 1.000000000000000000 ) ) ;
#202 = DIRECTION ( 'NONE',  ( -0.000000000000000000, -1.000000000000000000, -0.000000000000000000 ) ) ;
#203 = ADVANCED_FACE ( 'NONE', ( #893 ), #575, .F. ) ;
#204 = AXIS2_PLACEMENT_3D ( 'NONE', #104, #421, #1186 ) ;
#205 = EDGE_LOOP ( 'NONE', ( #480, #732, #934, #1191 ) ) ;
#206 = AXIS2_PLACEMENT_3D ( 'NONE', #641, #654, #743 ) ;
#207 = EDGE_CURVE ( 'NONE', #174, #1282, #557, .T. ) ;
#208 = VERTEX_POINT ( 'NONE', #1241 ) ;
#209 = CARTESIAN_POINT ( 'NONE',  ( 15.50000000000000178, 0.4999999999999995559, 3.799999999999999822 ) ) ;
#210 = DIRECTION ( 'NONE',  ( 2.312964634635742661E-15, 0.000000000000000000, 1.000000000000000000 ) ) ;
#211 =( LENGTH_UNIT ( ) NAMED_UNIT ( * ) SI_UNIT ( .MILLI., .METRE. ) );
#212 = APPLICATION_CONTEXT ( 'automotive_design' ) ;
#213 = ORIENTED_EDGE ( 'NONE', *, *, #603, .T. ) ;
#214 = ADVANCED_FACE ( 'NONE', ( #176 ), #291, .F. ) ;
#215 = ORIENTED_EDGE ( 'NONE', *, *, #1033, .T. ) ;
#216 = FACE_OUTER_BOUND ( 'NONE', #205, .T. ) ;
#217 = EDGE_LOOP ( 'NONE', ( #935, #180 ) ) ;
#218 = DIRECTION ( 'NONE',  ( 0.000000000000000000, -1.000000000000000000, 0.000000000000000000 ) ) ;
#219 = CYLINDRICAL_SURFACE ( 'NONE', #1042, 1.500000000000000000 ) ;
#220 = EDGE_LOOP ( 'NONE', ( #72, #1075, #2, #770 ) ) ;
#221 = ADVANCED_FACE ( 'NONE', ( #1138 ), #600, .F. ) ;
#222 = EDGE_CURVE ( 'NONE', #976, #859, #1081, .T. ) ;
#223 = LINE ( 'NONE', #661, #252 ) ;
#224 = VECTOR ( 'NONE', #518, 1000.000000000000000 ) ;
#225 = EDGE_CURVE ( 'NONE', #321, #318, #296, .T. ) ;
#226 = ORIENTED_EDGE ( 'NONE', *, *, #659, .T. ) ;
#227 = DIRECTION ( 'NONE',  ( 0.000000000000000000, -1.000000000000000000, 0.000000000000000000 ) ) ;
#228 = CARTESIAN_POINT ( 'NONE',  ( 16.00000000000000000, 7.500000000000000000, 8.999999999999998224 ) ) ;
#229 = DIRECTION ( 'NONE',  ( 2.312964634635742661E-15, 0.000000000000000000, -1.000000000000000000 ) ) ;
#230 = CIRCLE ( 'NONE', #537, 1.500000000000000000 ) ;
#231 = ORIENTED_EDGE ( 'NONE', *, *, #313, .T. ) ;
#232 = VECTOR ( 'NONE', #746, 1000.000000000000000 ) ;
#233 = COLOUR_RGB ( '',0.7921568627450980005, 0.8196078431372548767, 0.9333333333333333481 ) ;
#234 = DIRECTION ( 'NONE',  ( -0.000000000000000000, 1.000000000000000000, -0.000000000000000000 ) ) ;
#235 = FACE_OUTER_BOUND ( 'NONE', #903, .T. ) ;
#236 = EDGE_LOOP ( 'NONE', ( #94, #465, #1252, #1022 ) ) ;
#237 = FACE_BOUND ( 'NONE', #108, .T. ) ;
#238 = ORIENTED_EDGE ( 'NONE', *, *, #675, .T. ) ;
#239 = LINE ( 'NONE', #346, #182 ) ;
#240 = CYLINDRICAL_SURFACE ( 'NONE', #442, 0.5500000000000014877 ) ;
#241 = ADVANCED_FACE ( 'NONE', ( #615 ), #845, .F. ) ;
#242 = ORIENTED_EDGE ( 'NONE', *, *, #118, .T. ) ;
#243 = FACE_OUTER_BOUND ( 'NONE', #414, .T. ) ;
#244 = ORIENTED_EDGE ( 'NONE', *, *, #774, .T. ) ;
#245 = CARTESIAN_POINT ( 'NONE',  ( -17.50000000000000000, 0.4999999999999995559, 1.500000000000001332 ) ) ;
#246 = VECTOR ( 'NONE', #964, 1000.000000000000000 ) ;
#247 = FACE_OUTER_BOUND ( 'NONE', #377, .T. ) ;
#248 = AXIS2_PLACEMENT_3D ( 'NONE', #417, #13, #962 ) ;
#249 = CYLINDRICAL_SURFACE ( 'NONE', #624, 1.499999999999999556 ) ;
#250 = DIRECTION ( 'NONE',  ( -0.000000000000000000, -1.000000000000000000, -0.000000000000000000 ) ) ;
#251 = VERTEX_POINT ( 'NONE', #190 ) ;
#252 = VECTOR ( 'NONE', #16, 1000.000000000000000 ) ;
#253 = CIRCLE ( 'NONE', #760, 0.5500000000000010436 ) ;
#254 = CARTESIAN_POINT ( 'NONE',  ( -17.50000000000000000, 0.4999999999999995559, 10.50000000000000000 ) ) ;
#255 = CIRCLE ( 'NONE', #609, 1.499999999999999556 ) ;
#256 = DIRECTION ( 'NONE',  ( 0.000000000000000000, 1.000000000000000000, 0.000000000000000000 ) ) ;
#257 = DIRECTION ( 'NONE',  ( -1.000000000000000000, 0.000000000000000000, -1.652117596168387756E-16 ) ) ;
#258 = CARTESIAN_POINT ( 'NONE',  ( 15.49999999999999822, 0.000000000000000000, -0.2499999999999993616 ) ) ;
#259 = ORIENTED_EDGE ( 'NONE', *, *, #1098, .T. ) ;
#260 = EDGE_LOOP ( 'NONE', ( #818, #129 ) ) ;
#261 = CARTESIAN_POINT ( 'NONE',  ( 15.49999999999999822, 0.4999999999999995559, -1.749999999999999556 ) ) ;
#262 = LINE ( 'NONE', #996, #605 ) ;
#263 = DIRECTION ( 'NONE',  ( -0.000000000000000000, -1.000000000000000000, -0.000000000000000000 ) ) ;
#264 = DIRECTION ( 'NONE',  ( 0.000000000000000000, 1.000000000000000000, 0.000000000000000000 ) ) ;
#265 = ORIENTED_EDGE ( 'NONE', *, *, #405, .F. ) ;
#266 = ORIENTED_EDGE ( 'NONE', *, *, #617, .F. ) ;
#267 = PLANE ( 'NONE',  #1340 ) ;
#268 = LINE ( 'NONE', #688, #121 ) ;
#269 = VECTOR ( 'NONE', #881, 1000.000000000000000 ) ;
#270 = ADVANCED_FACE ( 'NONE', ( #622 ), #705, .F. ) ;
#271 = DIRECTION ( 'NONE',  ( 0.000000000000000000, 0.000000000000000000, 1.000000000000000000 ) ) ;
#272 = ORIENTED_EDGE ( 'NONE', *, *, #34, .F. ) ;
#273 = EDGE_LOOP ( 'NONE', ( #1291, #379, #215, #122 ) ) ;
#274 = DIRECTION ( 'NONE',  ( 0.000000000000000000, 0.000000000000000000, 1.000000000000000000 ) ) ;
#275 = CARTESIAN_POINT ( 'NONE',  ( -9.000000000000007105, 0.4999999999999995559, -10.50000000000000000 ) ) ;
#276 = ADVANCED_FACE ( 'NONE', ( #1044 ), #77, .F. ) ;
#277 = AXIS2_PLACEMENT_3D ( 'NONE', #902, #264, #1236 ) ;
#278 = AXIS2_PLACEMENT_3D ( 'NONE', #917, #594, #692 ) ;
#279 = DIRECTION ( 'NONE',  ( -0.000000000000000000, 1.000000000000000000, -0.000000000000000000 ) ) ;
#280 = EDGE_CURVE ( 'NONE', #727, #578, #926, .T. ) ;
#281 = DIRECTION ( 'NONE',  ( 0.000000000000000000, 0.000000000000000000, 1.000000000000000000 ) ) ;
#282 = ORIENTED_EDGE ( 'NONE', *, *, #724, .F. ) ;
#283 = ORIENTED_EDGE ( 'NONE', *, *, #714, .F. ) ;
#284 = DIRECTION ( 'NONE',  ( -0.000000000000000000, 1.000000000000000000, -0.000000000000000000 ) ) ;
#285 = DIRECTION ( 'NONE',  ( 9.912705577010326782E-17, -0.000000000000000000, 1.000000000000000000 ) ) ;
#286 = FACE_OUTER_BOUND ( 'NONE', #1308, .T. ) ;
#287 = ADVANCED_FACE ( 'NONE', ( #91 ), #300, .T. ) ;
#288 = ORIENTED_EDGE ( 'NONE', *, *, #788, .T. ) ;
#289 = ORIENTED_EDGE ( 'NONE', *, *, #887, .T. ) ;
#290 = DIRECTION ( 'NONE',  ( -1.000000000000000000, 0.000000000000000000, 1.239088197126289831E-16 ) ) ;
#291 = PLANE ( 'NONE',  #711 ) ;
#292 = CYLINDRICAL_SURFACE ( 'NONE', #719, 0.5500000000000010436 ) ;
#293 = CIRCLE ( 'NONE', #1355, 1.050000000000000266 ) ;
#294 = ORIENTED_EDGE ( 'NONE', *, *, #966, .F. ) ;
#295 = EDGE_CURVE ( 'NONE', #194, #999, #106, .T. ) ;
#296 = CIRCLE ( 'NONE', #492, 0.5500000000000014877 ) ;
#297 = EDGE_LOOP ( 'NONE', ( #752, #618, #665, #70 ) ) ;
#298 = CARTESIAN_POINT ( 'NONE',  ( 16.00000000000000000, 0.000000000000000000, -3.249999999999999112 ) ) ;
#299 = AXIS2_PLACEMENT_3D ( 'NONE', #567, #989, #358 ) ;
#300 = CYLINDRICAL_SURFACE ( 'NONE', #779, 1.499999999999999556 ) ;
#301 = VECTOR ( 'NONE', #871, 1000.000000000000000 ) ;
#302 = AXIS2_PLACEMENT_3D ( 'NONE', #1094, #1333, #1111 ) ;
#303 = ORIENTED_EDGE ( 'NONE', *, *, #914, .T. ) ;
#304 = VERTEX_POINT ( 'NONE', #398 ) ;
#305 = EDGE_CURVE ( 'NONE', #46, #516, #847, .T. ) ;
#306 = LINE ( 'NONE', #942, #1178 ) ;
#307 = CARTESIAN_POINT ( 'NONE',  ( -12.00000000000000533, 0.000000000000000000, 3.000000000000003997 ) ) ;
#308 = CARTESIAN_POINT ( 'NONE',  ( -16.00000000000000000, 0.4999999999999995559, -1.500000000000000666 ) ) ;
#309 = ORIENTED_EDGE ( 'NONE', *, *, #948, .F. ) ;
#310 = VERTEX_POINT ( 'NONE', #1249 ) ;
#311 = CYLINDRICAL_SURFACE ( 'NONE', #1360, 0.5500000000000010436 ) ;
#312 = ADVANCED_FACE ( 'NONE', ( #1034 ), #511, .F. ) ;
#313 = EDGE_CURVE ( 'NONE', #304, #680, #950, .T. ) ;
#314 = CARTESIAN_POINT ( 'NONE',  ( 15.50000000000000178, 0.000000000000000000, -3.799999999999999822 ) ) ;
#315 = EDGE_CURVE ( 'NONE', #727, #516, #726, .T. ) ;
#316 = ORIENTED_EDGE ( 'NONE', *, *, #127, .F. ) ;
#317 = VECTOR ( 'NONE', #165, 1000.000000000000000 ) ;
#318 = VERTEX_POINT ( 'NONE', #943 ) ;
#319 = AXIS2_PLACEMENT_3D ( 'NONE', #710, #1026, #1144 ) ;
#320 = DIRECTION ( 'NONE',  ( -0.000000000000000000, 1.000000000000000000, -0.000000000000000000 ) ) ;
#321 = VERTEX_POINT ( 'NONE', #1365 ) ;
#322 = CARTESIAN_POINT ( 'NONE',  ( -10.50000000000000533, 0.4999999999999995559, 3.000000000000004441 ) ) ;
#323 = AXIS2_PLACEMENT_3D ( 'NONE', #907, #256, #699 ) ;
#324 = AXIS2_PLACEMENT_3D ( 'NONE', #892, #149, #1225 ) ;
#325 = EDGE_CURVE ( 'NONE', #742, #1232, #869, .T. ) ;
#326 = ORIENTED_EDGE ( 'NONE', *, *, #1368, .F. ) ;
#327 = AXIS2_PLACEMENT_3D ( 'NONE', #209, #636, #1054 ) ;
#328 = VERTEX_POINT ( 'NONE', #758 ) ;
#329 = CARTESIAN_POINT ( 'NONE',  ( 17.50000000000000355, 7.500000000000000000, -3.249999999999997780 ) ) ;
#330 = ORIENTED_EDGE ( 'NONE', *, *, #469, .F. ) ;
#331 = DIRECTION ( 'NONE',  ( 0.000000000000000000, 0.000000000000000000, 1.000000000000000000 ) ) ;
#332 = DIRECTION ( 'NONE',  ( 1.000000000000000000, 0.000000000000000000, -1.927470528863119295E-16 ) ) ;
#333 = EDGE_LOOP ( 'NONE', ( #1148, #282, #570, #509 ) ) ;
#334 = ADVANCED_FACE ( 'NONE', ( #235 ), #1077, .F. ) ;
#335 = LINE ( 'NONE', #866, #1133 ) ;
#336 = CARTESIAN_POINT ( 'NONE',  ( -16.00000000000000000, 0.000000000000000000, 0.000000000000000000 ) ) ;
#337 = ORIENTED_EDGE ( 'NONE', *, *, #914, .F. ) ;
#338 = ORIENTED_EDGE ( 'NONE', *, *, #1237, .T. ) ;
#339 = AXIS2_PLACEMENT_3D ( 'NONE', #1183, #332, #857 ) ;
#340 = EDGE_CURVE ( 'NONE', #61, #703, #979, .T. ) ;
#341 = DIRECTION ( 'NONE',  ( 1.239088197126289831E-16, 0.000000000000000000, 1.000000000000000000 ) ) ;
#342 = CARTESIAN_POINT ( 'NONE',  ( -16.00000000000000000, 0.4999999999999995559, 0.000000000000000000 ) ) ;
#343 = DIRECTION ( 'NONE',  ( 0.000000000000000000, 0.000000000000000000, 1.000000000000000000 ) ) ;
#344 = VECTOR ( 'NONE', #195, 1000.000000000000000 ) ;
#345 = ORIENTED_EDGE ( 'NONE', *, *, #102, .T. ) ;
#346 = CARTESIAN_POINT ( 'NONE',  ( 15.50000000000000178, 0.000000000000000000, 3.249999999999998668 ) ) ;
#347 = CARTESIAN_POINT ( 'NONE',  ( 16.00000000000000000, 0.4999999999999995559, -3.249999999999999112 ) ) ;
#348 = CARTESIAN_POINT ( 'NONE',  ( 16.00000000000000000, 0.000000000000000000, 9.000000000000000000 ) ) ;
#349 = CARTESIAN_POINT ( 'NONE',  ( 15.49999999999999822, 0.000000000000000000, -0.2499999999999993616 ) ) ;
#350 = ORIENTED_EDGE ( 'NONE', *, *, #469, .T. ) ;
#351 = DIRECTION ( 'NONE',  ( 0.000000000000000000, -0.000000000000000000, 1.000000000000000000 ) ) ;
#352 = EDGE_CURVE ( 'NONE', #151, #516, #444, .T. ) ;
#353 = CARTESIAN_POINT ( 'NONE',  ( -9.000000000000007105, 0.000000000000000000, 10.50000000000000000 ) ) ;
#354 = LINE ( 'NONE', #455, #164 ) ;
#355 = ADVANCED_FACE ( 'NONE', ( #749 ), #240, .F. ) ;
#356 = ORIENTED_EDGE ( 'NONE', *, *, #552, .T. ) ;
#357 = DIRECTION ( 'NONE',  ( 0.000000000000000000, 1.000000000000000000, 0.000000000000000000 ) ) ;
#358 = DIRECTION ( 'NONE',  ( 0.000000000000000000, 0.000000000000000000, 1.000000000000000000 ) ) ;
#359 = CIRCLE ( 'NONE', #96, 1.499999999999999556 ) ;
#360 = EDGE_CURVE ( 'NONE', #640, #824, #385, .T. ) ;
#361 = CYLINDRICAL_SURFACE ( 'NONE', #364, 1.049999999999998934 ) ;
#362 = VERTEX_POINT ( 'NONE', #1278 ) ;
#363 = VECTOR ( 'NONE', #974, 1000.000000000000000 ) ;
#364 = AXIS2_PLACEMENT_3D ( 'NONE', #53, #502, #271 ) ;
#365 = LINE ( 'NONE', #245, #716 ) ;
#366 = LINE ( 'NONE', #169, #894 ) ;
#367 = CARTESIAN_POINT ( 'NONE',  ( 13.99999999999999822, 0.000000000000000000, 0.2500000000000002220 ) ) ;
#368 = DIRECTION ( 'NONE',  ( 0.000000000000000000, 1.000000000000000000, -0.000000000000000000 ) ) ;
#369 = EDGE_LOOP ( 'NONE', ( #115, #418 ) ) ;
#370 = EDGE_CURVE ( 'NONE', #1246, #912, #137, .T. ) ;
#371 = ORIENTED_EDGE ( 'NONE', *, *, #35, .T. ) ;
#372 = CARTESIAN_POINT ( 'NONE',  ( 16.00000000000000000, 0.4999999999999995559, -1.749999999999999334 ) ) ;
#373 = EDGE_CURVE ( 'NONE', #824, #640, #803, .T. ) ;
#374 = CARTESIAN_POINT ( 'NONE',  ( 15.50000000000000178, 0.4999999999999995559, -3.249999999999999112 ) ) ;
#375 = DIRECTION ( 'NONE',  ( -0.000000000000000000, 1.000000000000000000, -0.000000000000000000 ) ) ;
#376 = CARTESIAN_POINT ( 'NONE',  ( -9.000000000000007105, 0.000000000000000000, 9.000000000000001776 ) ) ;
#377 = EDGE_LOOP ( 'NONE', ( #1343, #9, #1185, #1262 ) ) ;
#378 = ADVANCED_FACE ( 'NONE', ( #112 ), #126, .T. ) ;
#379 = ORIENTED_EDGE ( 'NONE', *, *, #1208, .F. ) ;
#380 = DIRECTION ( 'NONE',  ( -1.000000000000000000, 0.000000000000000000, 1.858632295689434870E-16 ) ) ;
#381 = CARTESIAN_POINT ( 'NONE',  ( -12.00000000000000355, 0.000000000000000000, -2.999999999999998224 ) ) ;
#382 = VECTOR ( 'NONE', #1320, 1000.000000000000000 ) ;
#383 = DIRECTION ( 'NONE',  ( -1.652117596168387756E-16, 0.000000000000000000, 1.000000000000000000 ) ) ;
#384 = CARTESIAN_POINT ( 'NONE',  ( 17.50000000000000000, 7.500000000000000000, 8.999999999999998224 ) ) ;
#385 = CIRCLE ( 'NONE', #827, 1.050000000000000266 ) ;
#386 = VERTEX_POINT ( 'NONE', #1168 ) ;
#387 = ORIENTED_EDGE ( 'NONE', *, *, #673, .T. ) ;
#388 = CARTESIAN_POINT ( 'NONE',  ( 16.00000000000000000, 0.4999999999999995559, 10.49999999999999645 ) ) ;
#389 = AXIS2_PLACEMENT_3D ( 'NONE', #1193, #163, #42 ) ;
#390 = DIRECTION ( 'NONE',  ( 0.000000000000000000, 0.000000000000000000, 1.000000000000000000 ) ) ;
#391 = AXIS2_PLACEMENT_3D ( 'NONE', #1060, #3, #765 ) ;
#392 = DIRECTION ( 'NONE',  ( -0.000000000000000000, -1.000000000000000000, -0.000000000000000000 ) ) ;
#393 = CARTESIAN_POINT ( 'NONE',  ( -17.50000000000000000, 0.000000000000000000, -10.50000000000000000 ) ) ;
#394 = ORIENTED_EDGE ( 'NONE', *, *, #1099, .T. ) ;
#395 = EDGE_LOOP ( 'NONE', ( #1011, #870, #14, #294 ) ) ;
#396 = DIRECTION ( 'NONE',  ( 0.000000000000000000, 1.000000000000000000, 0.000000000000000000 ) ) ;
#397 = EDGE_CURVE ( 'NONE', #685, #151, #1106, .T. ) ;
#398 = CARTESIAN_POINT ( 'NONE',  ( 16.00000000000000000, 0.000000000000000000, 7.950000000000000178 ) ) ;
#399 = ORIENTED_EDGE ( 'NONE', *, *, #132, .T. ) ;
#400 = VERTEX_POINT ( 'NONE', #544 ) ;
#401 = CARTESIAN_POINT ( 'NONE',  ( 16.00000000000000000, 0.000000000000000000, 10.49999999999999645 ) ) ;
#402 = DIRECTION ( 'NONE',  ( 0.000000000000000000, -1.000000000000000000, 0.000000000000000000 ) ) ;
#403 = CARTESIAN_POINT ( 'NONE',  ( 17.50000000000000000, 0.000000000000000000, 8.999999999999998224 ) ) ;
#404 = VERTEX_POINT ( 'NONE', #1268 ) ;
#405 = EDGE_CURVE ( 'NONE', #251, #865, #359, .T. ) ;
#406 = VECTOR ( 'NONE', #506, 1000.000000000000000 ) ;
#407 = UNCERTAINTY_MEASURE_WITH_UNIT (LENGTH_MEASURE( 1.000000000000000082E-05 ), #1359, 'distance_accuracy_value', 'NONE');
#408 = EDGE_LOOP ( 'NONE', ( #283, #146, #1073, #105, #345, #786, #437, #1353, #152, #47, #554, #394, #1164, #612, #723, #1140, #883, #639, #199, #187, #596, #795, #87 ) ) ;
#409 = FACE_OUTER_BOUND ( 'NONE', #545, .T. ) ;
#410 = VECTOR ( 'NONE', #189, 1000.000000000000000 ) ;
#411 = DIRECTION ( 'NONE',  ( 1.000000000000000000, 0.000000000000000000, 0.000000000000000000 ) ) ;
#412 = CIRCLE ( 'NONE', #475, 0.5500000000000010436 ) ;
#413 =( NAMED_UNIT ( * ) PLANE_ANGLE_UNIT ( ) SI_UNIT ( $, .RADIAN. ) );
#414 = EDGE_LOOP ( 'NONE', ( #1263, #1147, #585, #1000 ) ) ;
#415 = ADVANCED_FACE ( 'NONE', ( #969 ), #17, .T. ) ;
#416 = DIRECTION ( 'NONE',  ( 0.000000000000000000, 1.000000000000000000, 0.000000000000000000 ) ) ;
#417 = CARTESIAN_POINT ( 'NONE',  ( 15.49999999999999822, 0.4999999999999995559, 0.2500000000000009437 ) ) ;
#418 = ORIENTED_EDGE ( 'NONE', *, *, #607, .T. ) ;
#419 = UNCERTAINTY_MEASURE_WITH_UNIT (LENGTH_MEASURE( 1.000000000000000082E-05 ), #997, 'distance_accuracy_value', 'NONE');
#420 = ORIENTED_EDGE ( 'NONE', *, *, #352, .F. ) ;
#421 = DIRECTION ( 'NONE',  ( -0.000000000000000000, -1.000000000000000000, -0.000000000000000000 ) ) ;
#422 = VERTEX_POINT ( 'NONE', #322 ) ;
#423 = DIRECTION ( 'NONE',  ( 0.000000000000000000, 0.000000000000000000, 1.000000000000000000 ) ) ;
#424 = DIRECTION ( 'NONE',  ( 0.000000000000000000, 0.000000000000000000, 1.000000000000000000 ) ) ;
#425 = EDGE_LOOP ( 'NONE', ( #259, #1045 ) ) ;
#426 = ORIENTED_EDGE ( 'NONE', *, *, #102, .F. ) ;
#427 = VECTOR ( 'NONE', #453, 1000.000000000000000 ) ;
#428 = CARTESIAN_POINT ( 'NONE',  ( -12.00000000000000355, 0.4999999999999995559, -1.499999999999998446 ) ) ;
#429 = DIRECTION ( 'NONE',  ( 0.000000000000000000, -1.000000000000000000, 0.000000000000000000 ) ) ;
#430 = CIRCLE ( 'NONE', #1203, 0.5500000000000010436 ) ;
#431 = CARTESIAN_POINT ( 'NONE',  ( -10.50000000000000355, 7.500000000000000000, -2.999999999999998668 ) ) ;
#432 = ORIENTED_EDGE ( 'NONE', *, *, #26, .T. ) ;
#433 = LINE ( 'NONE', #1172, #363 ) ;
#434 = ORIENTED_EDGE ( 'NONE', *, *, #1181, .F. ) ;
#435 = DIRECTION ( 'NONE',  ( 0.000000000000000000, 0.000000000000000000, 1.000000000000000000 ) ) ;
#436 = CARTESIAN_POINT ( 'NONE',  ( -16.00000000000000000, 0.000000000000000000, 0.000000000000000000 ) ) ;
#437 = ORIENTED_EDGE ( 'NONE', *, *, #515, .T. ) ;
#438 = DIRECTION ( 'NONE',  ( 0.000000000000000000, 0.000000000000000000, 1.000000000000000000 ) ) ;
#439 = CARTESIAN_POINT ( 'NONE',  ( -10.50000000000000533, 0.4999999999999995559, -10.49999999999999645 ) ) ;
#440 = ORIENTED_EDGE ( 'NONE', *, *, #461, .T. ) ;
#441 = CIRCLE ( 'NONE', #116, 0.5500000000000010436 ) ;
#442 = AXIS2_PLACEMENT_3D ( 'NONE', #648, #1173, #1066 ) ;
#443 = DIRECTION ( 'NONE',  ( 1.000000000000000000, 0.000000000000000000, 4.956352788505165240E-16 ) ) ;
#444 = LINE ( 'NONE', #536, #427 ) ;
#445 = DIRECTION ( 'NONE',  ( 0.000000000000000000, 0.000000000000000000, -1.000000000000000000 ) ) ;
#446 = CARTESIAN_POINT ( 'NONE',  ( 15.50000000000000178, 0.000000000000000000, -5.500000000000000000 ) ) ;
#447 = VECTOR ( 'NONE', #1150, 1000.000000000000000 ) ;
#448 = ORIENTED_EDGE ( 'NONE', *, *, #295, .T. ) ;
#449 = VECTOR ( 'NONE', #161, 1000.000000000000000 ) ;
#450 =( GEOMETRIC_REPRESENTATION_CONTEXT ( 3 ) GLOBAL_UNCERTAINTY_ASSIGNED_CONTEXT ( ( #695 ) ) GLOBAL_UNIT_ASSIGNED_CONTEXT ( ( #211, #638, #113 ) ) REPRESENTATION_CONTEXT ( 'NONE', 'WORKASPACE' ) );
#451 = EDGE_CURVE ( 'NONE', #672, #999, #1266, .T. ) ;
#452 = CARTESIAN_POINT ( 'NONE',  ( 0.000000000000000000, 0.4999999999999995559, 0.000000000000000000 ) ) ;
#453 = DIRECTION ( 'NONE',  ( 0.000000000000000000, 1.000000000000000000, 0.000000000000000000 ) ) ;
#454 = FACE_OUTER_BOUND ( 'NONE', #1141, .T. ) ;
#455 = CARTESIAN_POINT ( 'NONE',  ( -17.50000000000000000, 0.4999999999999995559, -1.500000000000001332 ) ) ;
#456 = ORIENTED_EDGE ( 'NONE', *, *, #305, .F. ) ;
#457 = ADVANCED_BREP_SHAPE_REPRESENTATION ( 'HEPI Housing base', ( #186, #923 ), #450 ) ;
#458 = CARTESIAN_POINT ( 'NONE',  ( 16.00000000000000000, 0.000000000000000000, -3.249999999999999112 ) ) ;
#459 = EDGE_CURVE ( 'NONE', #128, #1287, #1128, .T. ) ;
#460 = DIRECTION ( 'NONE',  ( 0.000000000000000000, 0.000000000000000000, 1.000000000000000000 ) ) ;
#461 = EDGE_CURVE ( 'NONE', #1125, #1354, #495, .T. ) ;
#462 = FILL_AREA_STYLE_COLOUR ( '', #1151 ) ;
#463 = DIRECTION ( 'NONE',  ( 0.000000000000000000, -0.000000000000000000, -1.000000000000000000 ) ) ;
#464 = ORIENTED_EDGE ( 'NONE', *, *, #222, .T. ) ;
#465 = ORIENTED_EDGE ( 'NONE', *, *, #754, .T. ) ;
#466 = FACE_OUTER_BOUND ( 'NONE', #522, .T. ) ;
#467 = AXIS2_PLACEMENT_3D ( 'NONE', #532, #651, #343 ) ;
#468 = LINE ( 'NONE', #154, #473 ) ;
#469 = EDGE_CURVE ( 'NONE', #508, #362, #873, .T. ) ;
#470 = CARTESIAN_POINT ( 'NONE',  ( 16.00000000000000000, 0.000000000000000000, -1.749999999999999334 ) ) ;
#471 = CARTESIAN_POINT ( 'NONE',  ( 15.49999999999999822, 7.500000000000000000, 1.750000000000000666 ) ) ;
#472 = ORIENTED_EDGE ( 'NONE', *, *, #730, .T. ) ;
#473 = VECTOR ( 'NONE', #1116, 1000.000000000000000 ) ;
#474 = EDGE_LOOP ( 'NONE', ( #89, #953, #1209, #109 ) ) ;
#475 = AXIS2_PLACEMENT_3D ( 'NONE', #33, #1097, #905 ) ;
#476 = DIRECTION ( 'NONE',  ( 0.000000000000000000, -1.000000000000000000, 0.000000000000000000 ) ) ;
#477 = CYLINDRICAL_SURFACE ( 'NONE', #759, 1.049999999999998934 ) ;
#478 = CARTESIAN_POINT ( 'NONE',  ( 15.50000000000000178, 0.000000000000000000, -3.799999999999999822 ) ) ;
#479 = EDGE_CURVE ( 'NONE', #1238, #1163, #1272, .T. ) ;
#480 = ORIENTED_EDGE ( 'NONE', *, *, #730, .F. ) ;
#481 = DIRECTION ( 'NONE',  ( 1.000000000000000000, 0.000000000000000000, -1.239088197126289831E-16 ) ) ;
#482 = CARTESIAN_POINT ( 'NONE',  ( 15.49999999999999822, 0.4999999999999995559, -0.2499999999999993616 ) ) ;
#483 = CARTESIAN_POINT ( 'NONE',  ( -16.00000000000000000, 0.000000000000000000, 0.000000000000000000 ) ) ;
#484 = DIRECTION ( 'NONE',  ( 0.000000000000000000, 0.000000000000000000, -1.000000000000000000 ) ) ;
#485 = ORIENTED_EDGE ( 'NONE', *, *, #397, .F. ) ;
#486 = EDGE_LOOP ( 'NONE', ( #980, #111, #426, #1090 ) ) ;
#487 = EDGE_CURVE ( 'NONE', #992, #999, #468, .T. ) ;
#488 = DIRECTION ( 'NONE',  ( 0.000000000000000000, 1.000000000000000000, 0.000000000000000000 ) ) ;
#489 = CIRCLE ( 'NONE', #467, 1.500000000000000000 ) ;
#490 = CARTESIAN_POINT ( 'NONE',  ( 15.50000000000000178, 0.000000000000000000, -4.350000000000001421 ) ) ;
#491 = DIRECTION ( 'NONE',  ( 0.000000000000000000, 0.000000000000000000, 1.000000000000000000 ) ) ;
#492 = AXIS2_PLACEMENT_3D ( 'NONE', #1351, #1261, #630 ) ;
#493 = ORIENTED_EDGE ( 'NONE', *, *, #405, .T. ) ;
#494 = VERTEX_POINT ( 'NONE', #880 ) ;
#495 = CIRCLE ( 'NONE', #1110, 1.500000000000000000 ) ;
#496 = EDGE_CURVE ( 'NONE', #63, #653, #1100, .T. ) ;
#497 = VECTOR ( 'NONE', #558, 1000.000000000000000 ) ;
#498 = CARTESIAN_POINT ( 'NONE',  ( 16.00000000000000000, 0.000000000000000000, 9.000000000000000000 ) ) ;
#499 = VECTOR ( 'NONE', #153, 1000.000000000000000 ) ;
#500 = EDGE_CURVE ( 'NONE', #777, #494, #715, .T. ) ;
#501 = DIRECTION ( 'NONE',  ( 0.000000000000000000, 1.000000000000000000, 0.000000000000000000 ) ) ;
#502 = DIRECTION ( 'NONE',  ( -0.000000000000000000, 1.000000000000000000, -0.000000000000000000 ) ) ;
#503 = VERTEX_POINT ( 'NONE', #885 ) ;
#504 = ORIENTED_EDGE ( 'NONE', *, *, #487, .F. ) ;
#505 = DIRECTION ( 'NONE',  ( 0.000000000000000000, 0.000000000000000000, 1.000000000000000000 ) ) ;
#506 = DIRECTION ( 'NONE',  ( 0.000000000000000000, 1.000000000000000000, 0.000000000000000000 ) ) ;
#507 = ADVANCED_FACE ( 'NONE', ( #1108 ), #676, .F. ) ;
#508 = VERTEX_POINT ( 'NONE', #1092 ) ;
#509 = ORIENTED_EDGE ( 'NONE', *, *, #155, .F. ) ;
#510 = LINE ( 'NONE', #90, #447 ) ;
#511 = PLANE ( 'NONE',  #158 ) ;
#512 = VECTOR ( 'NONE', #1300, 1000.000000000000000 ) ;
#513 = ORIENTED_EDGE ( 'NONE', *, *, #805, .T. ) ;
#514 = AXIS2_PLACEMENT_3D ( 'NONE', #1071, #218, #531 ) ;
#515 = EDGE_CURVE ( 'NONE', #310, #927, #366, .T. ) ;
#516 = VERTEX_POINT ( 'NONE', #275 ) ;
#517 = CARTESIAN_POINT ( 'NONE',  ( 16.00000000000000000, 0.000000000000000000, 1.750000000000000666 ) ) ;
#518 = DIRECTION ( 'NONE',  ( -1.000000000000000000, 0.000000000000000000, 9.912705577010326782E-17 ) ) ;
#519 = VECTOR ( 'NONE', #790, 1000.000000000000000 ) ;
#520 = PRODUCT_CONTEXT ( 'NONE', #193, 'mechanical' ) ;
#521 = VERTEX_POINT ( 'NONE', #374 ) ;
#522 = EDGE_LOOP ( 'NONE', ( #504, #192, #266, #448 ) ) ;
#523 = DIRECTION ( 'NONE',  ( -0.000000000000000000, -1.000000000000000000, -0.000000000000000000 ) ) ;
#524 = CARTESIAN_POINT ( 'NONE',  ( -10.50000000000000533, 0.000000000000000000, 10.50000000000000355 ) ) ;
#525 = ORIENTED_EDGE ( 'NONE', *, *, #373, .F. ) ;
#526 = LINE ( 'NONE', #858, #1274 ) ;
#527 = VERTEX_POINT ( 'NONE', #1018 ) ;
#528 = ADVANCED_FACE ( 'NONE', ( #247 ), #1218, .F. ) ;
#529 = LINE ( 'NONE', #329, #1205 ) ;
#530 = ORIENTED_EDGE ( 'NONE', *, *, #325, .F. ) ;
#531 = DIRECTION ( 'NONE',  ( 0.000000000000000000, 0.000000000000000000, -1.000000000000000000 ) ) ;
#532 = CARTESIAN_POINT ( 'NONE',  ( -16.00000000000000000, 0.4999999999999995559, 1.734723475976807094E-15 ) ) ;
#533 = ORIENTED_EDGE ( 'NONE', *, *, #565, .F. ) ;
#534 = STYLED_ITEM ( 'NONE', ( #1005 ), #186 ) ;
#535 = DIRECTION ( 'NONE',  ( -0.000000000000000000, -1.000000000000000000, -0.000000000000000000 ) ) ;
#536 = CARTESIAN_POINT ( 'NONE',  ( -9.000000000000007105, 7.500000000000000000, -10.50000000000000000 ) ) ;
#537 = AXIS2_PLACEMENT_3D ( 'NONE', #482, #1204, #460 ) ;
#538 = AXIS2_PLACEMENT_3D ( 'NONE', #681, #1217, #899 ) ;
#539 = ORIENTED_EDGE ( 'NONE', *, *, #856, .T. ) ;
#540 = DIRECTION ( 'NONE',  ( -0.000000000000000000, -1.000000000000000000, -0.000000000000000000 ) ) ;
#541 = AXIS2_PLACEMENT_3D ( 'NONE', #478, #678, #1015 ) ;
#542 = EDGE_LOOP ( 'NONE', ( #1113, #387, #1323, #1329 ) ) ;
#543 = DIRECTION ( 'NONE',  ( -0.000000000000000000, -1.000000000000000000, -0.000000000000000000 ) ) ;
#544 = CARTESIAN_POINT ( 'NONE',  ( -16.00000000000000000, 0.4999999999999995559, 1.500000000000001998 ) ) ;
#545 = EDGE_LOOP ( 'NONE', ( #1104, #1366, #167, #635 ) ) ;
#546 = FACE_BOUND ( 'NONE', #693, .T. ) ;
#547 = ORIENTED_EDGE ( 'NONE', *, *, #717, .F. ) ;
#548 = LINE ( 'NONE', #734, #27 ) ;
#549 = DIRECTION ( 'NONE',  ( -0.000000000000000000, -1.000000000000000000, -0.000000000000000000 ) ) ;
#550 = LINE ( 'NONE', #750, #1103 ) ;
#551 = DIRECTION ( 'NONE',  ( 0.000000000000000000, -1.000000000000000000, 0.000000000000000000 ) ) ;
#552 = EDGE_CURVE ( 'NONE', #672, #208, #268, .T. ) ;
#553 = EDGE_CURVE ( 'NONE', #1349, #865, #262, .T. ) ;
#554 = ORIENTED_EDGE ( 'NONE', *, *, #500, .T. ) ;
#555 = VECTOR ( 'NONE', #279, 1000.000000000000000 ) ;
#556 = EDGE_CURVE ( 'NONE', #653, #1041, #1331, .T. ) ;
#557 = CIRCLE ( 'NONE', #753, 1.050000000000000266 ) ;
#558 = DIRECTION ( 'NONE',  ( 0.000000000000000000, 0.000000000000000000, 1.000000000000000000 ) ) ;
#559 = DIRECTION ( 'NONE',  ( -0.000000000000000000, -1.000000000000000000, -0.000000000000000000 ) ) ;
#560 = DIRECTION ( 'NONE',  ( 0.000000000000000000, 0.000000000000000000, -1.000000000000000000 ) ) ;
#561 = CARTESIAN_POINT ( 'NONE',  ( -12.00000000000000533, 0.4999999999999995559, 1.500000000000004219 ) ) ;
#562 = AXIS2_PLACEMENT_3D ( 'NONE', #381, #1003, #781 ) ;
#563 = AXIS2_PLACEMENT_3D ( 'NONE', #1076, #357, #274 ) ;
#564 = PRODUCT_DEFINITION_FORMATION_WITH_SPECIFIED_SOURCE ( 'Symmetric', '', #973, .NOT_KNOWN. ) ;
#565 = EDGE_CURVE ( 'NONE', #521, #404, #918, .T. ) ;
#566 = CARTESIAN_POINT ( 'NONE',  ( -12.00000000000000355, 0.000000000000000000, -1.499999999999998446 ) ) ;
#567 = CARTESIAN_POINT ( 'NONE',  ( 16.00000000000000000, 0.000000000000000000, -9.000000000000000000 ) ) ;
#568 = DIRECTION ( 'NONE',  ( -0.000000000000000000, 1.000000000000000000, -0.000000000000000000 ) ) ;
#569 = DIRECTION ( 'NONE',  ( -0.000000000000000000, 1.000000000000000000, -0.000000000000000000 ) ) ;
#570 = ORIENTED_EDGE ( 'NONE', *, *, #689, .T. ) ;
#571 = LINE ( 'NONE', #566, #519 ) ;
#572 = ADVANCED_FACE ( 'NONE', ( #772 ), #1310, .F. ) ;
#573 = ADVANCED_FACE ( 'NONE', ( #668 ), #36, .F. ) ;
#574 = CARTESIAN_POINT ( 'NONE',  ( 15.50000000000000178, 0.000000000000000000, 5.500000000000000000 ) ) ;
#575 = PLANE ( 'NONE',  #646 ) ;
#576 = FACE_OUTER_BOUND ( 'NONE', #273, .T. ) ;
#577 = ORIENTED_EDGE ( 'NONE', *, *, #173, .F. ) ;
#578 = VERTEX_POINT ( 'NONE', #791 ) ;
#579 = DIRECTION ( 'NONE',  ( -0.000000000000000000, -1.000000000000000000, -0.000000000000000000 ) ) ;
#580 = DIRECTION ( 'NONE',  ( 0.000000000000000000, 0.000000000000000000, -1.000000000000000000 ) ) ;
#581 = ADVANCED_FACE ( 'NONE', ( #682 ), #477, .F. ) ;
#582 = CYLINDRICAL_SURFACE ( 'NONE', #69, 0.5500000000000010436 ) ;
#583 = CYLINDRICAL_SURFACE ( 'NONE', #101, 0.5500000000000010436 ) ;
#584 = ORIENTED_EDGE ( 'NONE', *, *, #373, .T. ) ;
#585 = ORIENTED_EDGE ( 'NONE', *, *, #1255, .F. ) ;
#586 = VECTOR ( 'NONE', #1184, 1000.000000000000000 ) ;
#587 = CARTESIAN_POINT ( 'NONE',  ( 13.99999999999999822, 0.000000000000000000, -1.749999999999998890 ) ) ;
#588 = DIRECTION ( 'NONE',  ( -0.000000000000000000, 1.000000000000000000, 0.000000000000000000 ) ) ;
#589 = CARTESIAN_POINT ( 'NONE',  ( -12.00000000000000355, 0.4999999999999995559, -2.999999999999998224 ) ) ;
#590 = CARTESIAN_POINT ( 'NONE',  ( 15.49999999999999822, 0.000000000000000000, 0.2500000000000009437 ) ) ;
#591 = ORIENTED_EDGE ( 'NONE', *, *, #1288, .F. ) ;
#592 = EDGE_LOOP ( 'NONE', ( #1031, #619, #533, #1029 ) ) ;
#593 = DIRECTION ( 'NONE',  ( -1.000000000000000000, -0.000000000000000000, -4.956352788505166226E-16 ) ) ;
#594 = DIRECTION ( 'NONE',  ( -0.000000000000000000, -1.000000000000000000, -0.000000000000000000 ) ) ;
#595 = ORIENTED_EDGE ( 'NONE', *, *, #755, .T. ) ;
#596 = ORIENTED_EDGE ( 'NONE', *, *, #1294, .T. ) ;
#597 = LINE ( 'NONE', #73, #1158 ) ;
#598 = DIRECTION ( 'NONE',  ( 0.000000000000000000, 0.000000000000000000, 1.000000000000000000 ) ) ;
#599 = AXIS2_PLACEMENT_3D ( 'NONE', #1235, #815, #669 ) ;
#600 = CYLINDRICAL_SURFACE ( 'NONE', #319, 1.050000000000000266 ) ;
#601 = DIRECTION ( 'NONE',  ( 0.000000000000000000, 1.000000000000000000, 0.000000000000000000 ) ) ;
#602 = ORIENTED_EDGE ( 'NONE', *, *, #459, .T. ) ;
#603 = EDGE_CURVE ( 'NONE', #1302, #992, #230, .T. ) ;
#604 = ORIENTED_EDGE ( 'NONE', *, *, #360, .F. ) ;
#605 = VECTOR ( 'NONE', #588, 1000.000000000000000 ) ;
#606 = AXIS2_PLACEMENT_3D ( 'NONE', #258, #1118, #684 ) ;
#607 = EDGE_CURVE ( 'NONE', #626, #1324, #1317, .T. ) ;
#608 = LINE ( 'NONE', #517, #410 ) ;
#609 = AXIS2_PLACEMENT_3D ( 'NONE', #1040, #1250, #738 ) ;
#610 = CARTESIAN_POINT ( 'NONE',  ( -9.000000000000007105, 0.4999999999999995559, -9.000000000000001776 ) ) ;
#611 = LINE ( 'NONE', #1139, #124 ) ;
#612 = ORIENTED_EDGE ( 'NONE', *, *, #1198, .F. ) ;
#613 = DIRECTION ( 'NONE',  ( -0.000000000000000000, 1.000000000000000000, -0.000000000000000000 ) ) ;
#614 = ADVANCED_FACE ( 'NONE', ( #409 ), #311, .F. ) ;
#615 = FACE_OUTER_BOUND ( 'NONE', #1335, .T. ) ;
#616 = DIRECTION ( 'NONE',  ( 0.000000000000000000, -1.000000000000000000, 0.000000000000000000 ) ) ;
#617 = EDGE_CURVE ( 'NONE', #194, #660, #728, .T. ) ;
#618 = ORIENTED_EDGE ( 'NONE', *, *, #280, .T. ) ;
#619 = ORIENTED_EDGE ( 'NONE', *, *, #127, .T. ) ;
#620 = CARTESIAN_POINT ( 'NONE',  ( 16.00000000000000000, 0.4999999999999995559, 7.950000000000000178 ) ) ;
#621 = ADVANCED_FACE ( 'NONE', ( #1129 ), #1248, .T. ) ;
#622 = FACE_OUTER_BOUND ( 'NONE', #1239, .T. ) ;
#623 = FACE_OUTER_BOUND ( 'NONE', #592, .T. ) ;
#624 = AXIS2_PLACEMENT_3D ( 'NONE', #228, #138, #445 ) ;
#625 = AXIS2_PLACEMENT_3D ( 'NONE', #307, #402, #1153 ) ;
#626 = VERTEX_POINT ( 'NONE', #825 ) ;
#627 = ORIENTED_EDGE ( 'NONE', *, *, #1294, .F. ) ;
#628 = CARTESIAN_POINT ( 'NONE',  ( 13.99999999999999822, 0.000000000000000000, -1.749999999999998890 ) ) ;
#629 = AXIS2_PLACEMENT_3D ( 'NONE', #709, #523, #125 ) ;
#630 = DIRECTION ( 'NONE',  ( 0.000000000000000000, 0.000000000000000000, 1.000000000000000000 ) ) ;
#631 = CIRCLE ( 'NONE', #78, 1.500000000000000000 ) ;
#632 = STYLED_ITEM ( 'NONE', ( #92 ), #457 ) ;
#633 = EDGE_LOOP ( 'NONE', ( #967, #231, #1036, #878 ) ) ;
#634 = EDGE_CURVE ( 'NONE', #503, #904, #1085, .T. ) ;
#635 = ORIENTED_EDGE ( 'NONE', *, *, #788, .F. ) ;
#636 = DIRECTION ( 'NONE',  ( -0.000000000000000000, -1.000000000000000000, -0.000000000000000000 ) ) ;
#637 = DIRECTION ( 'NONE',  ( 0.000000000000000000, 0.000000000000000000, 1.000000000000000000 ) ) ;
#638 =( NAMED_UNIT ( * ) PLANE_ANGLE_UNIT ( ) SI_UNIT ( $, .RADIAN. ) );
#639 = ORIENTED_EDGE ( 'NONE', *, *, #617, .T. ) ;
#640 = VERTEX_POINT ( 'NONE', #838 ) ;
#641 = CARTESIAN_POINT ( 'NONE',  ( 16.00000000000000000, 0.4999999999999995559, 9.000000000000000000 ) ) ;
#642 = CARTESIAN_POINT ( 'NONE',  ( 16.00000000000000000, 0.4999999999999995559, 3.250000000000001332 ) ) ;
#643 = ORIENTED_EDGE ( 'NONE', *, *, #1119, .F. ) ;
#644 = CARTESIAN_POINT ( 'NONE',  ( -17.50000000000000000, 0.4999999999999995559, 5.204170427930418128E-15 ) ) ;
#645 = EDGE_LOOP ( 'NONE', ( #841, #513, #959, #371 ) ) ;
#646 = AXIS2_PLACEMENT_3D ( 'NONE', #44, #257, #383 ) ;
#647 = LINE ( 'NONE', #1065, #301 ) ;
#648 = CARTESIAN_POINT ( 'NONE',  ( 15.50000000000000178, 0.000000000000000000, 3.799999999999999822 ) ) ;
#649 = AXIS2_PLACEMENT_3D ( 'NONE', #298, #488, #390 ) ;
#650 = AXIS2_PLACEMENT_3D ( 'NONE', #452, #879, #351 ) ;
#651 = DIRECTION ( 'NONE',  ( -0.000000000000000000, -1.000000000000000000, -0.000000000000000000 ) ) ;
#652 = CYLINDRICAL_SURFACE ( 'NONE', #852, 1.500000000000000000 ) ;
#653 = VERTEX_POINT ( 'NONE', #401 ) ;
#654 = DIRECTION ( 'NONE',  ( -0.000000000000000000, -1.000000000000000000, -0.000000000000000000 ) ) ;
#655 = DIRECTION ( 'NONE',  ( 0.000000000000000000, 1.000000000000000000, 0.000000000000000000 ) ) ;
#656 = EDGE_CURVE ( 'NONE', #1223, #680, #76, .T. ) ;
#657 = EDGE_CURVE ( 'NONE', #304, #527, #782, .T. ) ;
#658 = LINE ( 'NONE', #875, #512 ) ;
#659 = EDGE_CURVE ( 'NONE', #422, #865, #814, .T. ) ;
#660 = VERTEX_POINT ( 'NONE', #1137 ) ;
#661 = CARTESIAN_POINT ( 'NONE',  ( -17.50000000000000000, 7.500000000000000000, 1.734723475976807094E-15 ) ) ;
#662 = DIRECTION ( 'NONE',  ( 0.000000000000000000, 0.000000000000000000, 1.000000000000000000 ) ) ;
#663 = DIRECTION ( 'NONE',  ( -0.000000000000000000, 1.000000000000000000, -0.000000000000000000 ) ) ;
#664 = EDGE_CURVE ( 'NONE', #128, #1246, #608, .T. ) ;
#665 = ORIENTED_EDGE ( 'NONE', *, *, #1198, .T. ) ;
#666 = CIRCLE ( 'NONE', #1023, 0.5500000000000014877 ) ;
#667 = CARTESIAN_POINT ( 'NONE',  ( 15.50000000000000178, 0.4999999999999995559, 5.500000000000000000 ) ) ;
#668 = FACE_OUTER_BOUND ( 'NONE', #1277, .T. ) ;
#669 = DIRECTION ( 'NONE',  ( 0.000000000000000000, 0.000000000000000000, -1.000000000000000000 ) ) ;
#670 = AXIS2_PLACEMENT_3D ( 'NONE', #5, #429, #580 ) ;
#671 = AXIS2_PLACEMENT_3D ( 'NONE', #41, #1210, #380 ) ;
#672 = VERTEX_POINT ( 'NONE', #1032 ) ;
#673 = EDGE_CURVE ( 'NONE', #626, #703, #306, .T. ) ;
#674 = DIRECTION ( 'NONE',  ( 0.000000000000000000, 1.000000000000000000, 0.000000000000000000 ) ) ;
#675 = EDGE_CURVE ( 'NONE', #1232, #1302, #510, .T. ) ;
#676 = PLANE ( 'NONE',  #389 ) ;
#677 = FACE_OUTER_BOUND ( 'NONE', #679, .T. ) ;
#678 = DIRECTION ( 'NONE',  ( 0.000000000000000000, 1.000000000000000000, 0.000000000000000000 ) ) ;
#679 = EDGE_LOOP ( 'NONE', ( #938, #168, #288, #330 ) ) ;
#680 = VERTEX_POINT ( 'NONE', #620 ) ;
#681 = CARTESIAN_POINT ( 'NONE',  ( -9.000000000000007105, 0.000000000000000000, 9.000000000000001776 ) ) ;
#682 = FACE_OUTER_BOUND ( 'NONE', #633, .T. ) ;
#683 = CARTESIAN_POINT ( 'NONE',  ( -9.000000000000007105, 0.000000000000000000, -10.50000000000000000 ) ) ;
#684 = DIRECTION ( 'NONE',  ( 0.000000000000000000, 0.000000000000000000, -1.000000000000000000 ) ) ;
#685 = VERTEX_POINT ( 'NONE', #1122 ) ;
#686 = CARTESIAN_POINT ( 'NONE',  ( -17.50000000000000000, 7.500000000000000000, 10.50000000000000000 ) ) ;
#687 = AXIS2_PLACEMENT_3D ( 'NONE', #342, #131, #1290 ) ;
#688 = CARTESIAN_POINT ( 'NONE',  ( 17.50000000000000000, 0.4999999999999995559, 10.49999999999999645 ) ) ;
#689 = EDGE_CURVE ( 'NONE', #318, #1215, #936, .T. ) ;
#690 = ADVANCED_FACE ( 'NONE', ( #1260 ), #82, .F. ) ;
#691 = CARTESIAN_POINT ( 'NONE',  ( 15.50000000000000178, 0.4999999999999995559, 4.949999999999998401 ) ) ;
#692 = DIRECTION ( 'NONE',  ( 0.000000000000000000, 0.000000000000000000, 1.000000000000000000 ) ) ;
#693 = EDGE_LOOP ( 'NONE', ( #849, #808 ) ) ;
#694 = VECTOR ( 'NONE', #1318, 1000.000000000000000 ) ;
#695 = UNCERTAINTY_MEASURE_WITH_UNIT (LENGTH_MEASURE( 1.000000000000000082E-05 ), #211, 'distance_accuracy_value', 'NONE');
#696 = ORIENTED_EDGE ( 'NONE', *, *, #1181, .T. ) ;
#697 = VECTOR ( 'NONE', #1124, 1000.000000000000000 ) ;
#698 = AXIS2_PLACEMENT_3D ( 'NONE', #590, #60, #484 ) ;
#699 = DIRECTION ( 'NONE',  ( 0.000000000000000000, 0.000000000000000000, 1.000000000000000000 ) ) ;
#700 = DIRECTION ( 'NONE',  ( -0.000000000000000000, -1.000000000000000000, -0.000000000000000000 ) ) ;
#701 = LINE ( 'NONE', #1321, #1048 ) ;
#702 = ORIENTED_EDGE ( 'NONE', *, *, #1126, .T. ) ;
#703 = VERTEX_POINT ( 'NONE', #1256 ) ;
#704 = LINE ( 'NONE', #725, #344 ) ;
#705 = CYLINDRICAL_SURFACE ( 'NONE', #625, 1.500000000000000000 ) ;
#706 = CYLINDRICAL_SURFACE ( 'NONE', #29, 1.499999999999999556 ) ;
#707 = ORIENTED_EDGE ( 'NONE', *, *, #565, .T. ) ;
#708 = ORIENTED_EDGE ( 'NONE', *, *, #141, .T. ) ;
#709 = CARTESIAN_POINT ( 'NONE',  ( 16.00000000000000000, 0.4999999999999995559, 8.999999999999998224 ) ) ;
#710 = CARTESIAN_POINT ( 'NONE',  ( -16.00000000000000000, 0.000000000000000000, 0.000000000000000000 ) ) ;
#711 = AXIS2_PLACEMENT_3D ( 'NONE', #932, #285, #85 ) ;
#712 = ORIENTED_EDGE ( 'NONE', *, *, #515, .F. ) ;
#713 = ORIENTED_EDGE ( 'NONE', *, *, #1279, .T. ) ;
#714 = EDGE_CURVE ( 'NONE', #1315, #912, #704, .T. ) ;
#715 = CIRCLE ( 'NONE', #562, 1.500000000000000444 ) ;
#716 = VECTOR ( 'NONE', #988, 1000.000000000000000 ) ;
#717 = EDGE_CURVE ( 'NONE', #912, #1287, #1336, .T. ) ;
#718 = DIRECTION ( 'NONE',  ( 0.000000000000000000, 0.000000000000000000, 1.000000000000000000 ) ) ;
#719 = AXIS2_PLACEMENT_3D ( 'NONE', #821, #1371, #424 ) ;
#720 = DIRECTION ( 'NONE',  ( -0.000000000000000000, 1.000000000000000000, -0.000000000000000000 ) ) ;
#721 = DIRECTION ( 'NONE',  ( 0.000000000000000000, -1.000000000000000000, 0.000000000000000000 ) ) ;
#722 = ORIENTED_EDGE ( 'NONE', *, *, #853, .T. ) ;
#723 = ORIENTED_EDGE ( 'NONE', *, *, #1368, .T. ) ;
#724 = EDGE_CURVE ( 'NONE', #318, #321, #1131, .T. ) ;
#725 = CARTESIAN_POINT ( 'NONE',  ( 17.50000000000000000, 0.000000000000000000, 10.49999999999999645 ) ) ;
#726 = LINE ( 'NONE', #839, #224 ) ;
#727 = VERTEX_POINT ( 'NONE', #1025 ) ;
#728 = LINE ( 'NONE', #628, #8 ) ;
#729 = CARTESIAN_POINT ( 'NONE',  ( 16.00000000000000000, 0.000000000000000000, -1.749999999999999334 ) ) ;
#730 = EDGE_CURVE ( 'NONE', #128, #742, #819, .T. ) ;
#731 = EDGE_CURVE ( 'NONE', #386, #1041, #1227, .T. ) ;
#732 = ORIENTED_EDGE ( 'NONE', *, *, #664, .T. ) ;
#733 = ORIENTED_EDGE ( 'NONE', *, *, #948, .T. ) ;
#734 = CARTESIAN_POINT ( 'NONE',  ( 15.49999999999999822, 0.000000000000000000, -1.749999999999999112 ) ) ;
#735 = ORIENTED_EDGE ( 'NONE', *, *, #479, .F. ) ;
#736 = CARTESIAN_POINT ( 'NONE',  ( 15.50000000000000178, 0.4999999999999995559, -5.500000000000000000 ) ) ;
#737 = VECTOR ( 'NONE', #569, 1000.000000000000000 ) ;
#738 = DIRECTION ( 'NONE',  ( 0.000000000000000000, 0.000000000000000000, -1.000000000000000000 ) ) ;
#739 = EDGE_CURVE ( 'NONE', #422, #1207, #433, .T. ) ;
#740 = EDGE_LOOP ( 'NONE', ( #1064, #350 ) ) ;
#741 = DIRECTION ( 'NONE',  ( -9.912705577010326782E-17, 0.000000000000000000, -1.000000000000000000 ) ) ;
#742 = VERTEX_POINT ( 'NONE', #954 ) ;
#743 = DIRECTION ( 'NONE',  ( 0.000000000000000000, 0.000000000000000000, 1.000000000000000000 ) ) ;
#744 = CARTESIAN_POINT ( 'NONE',  ( -9.000000000000007105, 7.500000000000000000, -9.000000000000001776 ) ) ;
#745 = FACE_OUTER_BOUND ( 'NONE', #1156, .T. ) ;
#746 = DIRECTION ( 'NONE',  ( -1.927470528863119049E-16, -0.000000000000000000, -1.000000000000000000 ) ) ;
#747 = EDGE_CURVE ( 'NONE', #992, #660, #548, .T. ) ;
#748 = DIRECTION ( 'NONE',  ( -4.956352788505165240E-16, 0.000000000000000000, 1.000000000000000000 ) ) ;
#749 = FACE_OUTER_BOUND ( 'NONE', #333, .T. ) ;
#750 = CARTESIAN_POINT ( 'NONE',  ( -16.00000000000000000, 0.000000000000000000, 1.050000000000000266 ) ) ;
#751 = LINE ( 'NONE', #1190, #232 ) ;
#752 = ORIENTED_EDGE ( 'NONE', *, *, #315, .F. ) ;
#753 = AXIS2_PLACEMENT_3D ( 'NONE', #483, #1226, #1370 ) ;
#754 = EDGE_CURVE ( 'NONE', #321, #80, #239, .T. ) ;
#755 = EDGE_CURVE ( 'NONE', #140, #1200, #809, .T. ) ;
#756 = PLANE ( 'NONE',  #811 ) ;
#757 = EDGE_CURVE ( 'NONE', #1238, #1125, #223, .T. ) ;
#758 = CARTESIAN_POINT ( 'NONE',  ( 15.50000000000000178, 0.000000000000000000, -3.249999999999999112 ) ) ;
#759 = AXIS2_PLACEMENT_3D ( 'NONE', #1013, #900, #1326 ) ;
#760 = AXIS2_PLACEMENT_3D ( 'NONE', #667, #579, #1224 ) ;
#761 = CARTESIAN_POINT ( 'NONE',  ( 15.50000000000000178, 0.000000000000000000, 5.500000000000000000 ) ) ;
#762 = DIRECTION ( 'NONE',  ( 0.000000000000000000, 0.000000000000000000, -1.000000000000000000 ) ) ;
#763 = PRODUCT_DEFINITION_SHAPE ( 'NONE', 'NONE',  #1004 ) ;
#764 = ORIENTED_EDGE ( 'NONE', *, *, #487, .T. ) ;
#765 = DIRECTION ( 'NONE',  ( 0.000000000000000000, 0.000000000000000000, -1.000000000000000000 ) ) ;
#766 = EDGE_CURVE ( 'NONE', #362, #508, #430, .T. ) ;
#767 = DIRECTION ( 'NONE',  ( 0.000000000000000000, 0.000000000000000000, 1.000000000000000000 ) ) ;
#768 = CARTESIAN_POINT ( 'NONE',  ( 15.49999999999999822, 0.000000000000000000, 0.2500000000000009437 ) ) ;
#769 = CARTESIAN_POINT ( 'NONE',  ( -16.00000000000000000, 0.000000000000000000, 1.500000000000001998 ) ) ;
#770 = ORIENTED_EDGE ( 'NONE', *, *, #802, .F. ) ;
#771 = DIRECTION ( 'NONE',  ( 0.000000000000000000, 0.000000000000000000, -1.000000000000000000 ) ) ;
#772 = FACE_OUTER_BOUND ( 'NONE', #542, .T. ) ;
#773 = ADVANCED_FACE ( 'NONE', ( #216 ), #130, .F. ) ;
#774 = EDGE_CURVE ( 'NONE', #328, #521, #949, .T. ) ;
#775 = CARTESIAN_POINT ( 'NONE',  ( -10.50000000000000533, 0.4999999999999995559, -9.000000000000001776 ) ) ;
#776 = FACE_BOUND ( 'NONE', #425, .T. ) ;
#777 = VERTEX_POINT ( 'NONE', #1289 ) ;
#778 = VECTOR ( 'NONE', #1175, 1000.000000000000000 ) ;
#779 = AXIS2_PLACEMENT_3D ( 'NONE', #1123, #501, #820 ) ;
#780 = DIRECTION ( 'NONE',  ( 0.000000000000000000, 0.000000000000000000, 1.000000000000000000 ) ) ;
#781 = DIRECTION ( 'NONE',  ( 1.156482317317871133E-15, 0.000000000000000000, -1.000000000000000000 ) ) ;
#782 = CIRCLE ( 'NONE', #850, 1.049999999999998934 ) ;
#783 = CARTESIAN_POINT ( 'NONE',  ( 16.00000000000000000, 0.000000000000000000, 1.750000000000000666 ) ) ;
#784 = EDGE_CURVE ( 'NONE', #672, #1037, #529, .T. ) ;
#785 = CIRCLE ( 'NONE', #51, 1.049999999999998934 ) ;
#786 = ORIENTED_EDGE ( 'NONE', *, *, #1119, .T. ) ;
#787 = AXIS2_PLACEMENT_3D ( 'NONE', #944, #616, #846 ) ;
#788 = EDGE_CURVE ( 'NONE', #904, #362, #12, .T. ) ;
#789 = VERTEX_POINT ( 'NONE', #1276 ) ;
#790 = DIRECTION ( 'NONE',  ( -0.000000000000000000, -1.000000000000000000, -0.000000000000000000 ) ) ;
#791 = CARTESIAN_POINT ( 'NONE',  ( 16.00000000000000000, 0.000000000000000000, -10.50000000000000355 ) ) ;
#792 = LINE ( 'NONE', #490, #1149 ) ;
#793 = FACE_OUTER_BOUND ( 'NONE', #1055, .T. ) ;
#794 = ORIENTED_EDGE ( 'NONE', *, *, #1152, .T. ) ;
#795 = ORIENTED_EDGE ( 'NONE', *, *, #911, .T. ) ;
#796 = FACE_OUTER_BOUND ( 'NONE', #1155, .T. ) ;
#797 = CARTESIAN_POINT ( 'NONE',  ( -12.00000000000000355, 0.000000000000000000, -2.999999999999998224 ) ) ;
#798 = CARTESIAN_POINT ( 'NONE',  ( 17.50000000000000000, 0.000000000000000000, 10.49999999999999645 ) ) ;
#799 = CARTESIAN_POINT ( 'NONE',  ( 15.50000000000000178, 0.000000000000000000, 5.500000000000000000 ) ) ;
#800 = ORIENTED_EDGE ( 'NONE', *, *, #886, .F. ) ;
#801 = FACE_BOUND ( 'NONE', #100, .T. ) ;
#802 = EDGE_CURVE ( 'NONE', #1315, #653, #10, .T. ) ;
#803 = CIRCLE ( 'NONE', #687, 1.050000000000000266 ) ;
#804 = DIRECTION ( 'NONE',  ( 0.000000000000000000, -1.000000000000000000, 0.000000000000000000 ) ) ;
#805 = EDGE_CURVE ( 'NONE', #46, #685, #335, .T. ) ;
#806 = DIRECTION ( 'NONE',  ( -0.000000000000000000, 1.000000000000000000, -0.000000000000000000 ) ) ;
#807 = FACE_OUTER_BOUND ( 'NONE', #1361, .T. ) ;
#808 = ORIENTED_EDGE ( 'NONE', *, *, #225, .T. ) ;
#809 = CIRCLE ( 'NONE', #204, 0.5500000000000010436 ) ;
#810 = ORIENTED_EDGE ( 'NONE', *, *, #461, .F. ) ;
#811 = AXIS2_PLACEMENT_3D ( 'NONE', #843, #748, #443 ) ;
#812 = CARTESIAN_POINT ( 'NONE',  ( 15.49999999999999822, 0.000000000000000000, 1.750000000000000666 ) ) ;
#813 =( GEOMETRIC_REPRESENTATION_CONTEXT ( 3 ) GLOBAL_UNCERTAINTY_ASSIGNED_CONTEXT ( ( #407 ) ) GLOBAL_UNIT_ASSIGNED_CONTEXT ( ( #1359, #413, #835 ) ) REPRESENTATION_CONTEXT ( 'NONE', 'WORKASPACE' ) );
#814 = LINE ( 'NONE', #1142, #1006 ) ;
#815 = DIRECTION ( 'NONE',  ( 0.000000000000000000, -1.000000000000000000, 0.000000000000000000 ) ) ;
#816 = CARTESIAN_POINT ( 'NONE',  ( 17.50000000000000355, 0.000000000000000000, -9.000000000000000000 ) ) ;
#817 = VERTEX_POINT ( 'NONE', #428 ) ;
#818 = ORIENTED_EDGE ( 'NONE', *, *, #864, .T. ) ;
#819 = LINE ( 'NONE', #1240, #984 ) ;
#820 = DIRECTION ( 'NONE',  ( 0.000000000000000000, 0.000000000000000000, 1.000000000000000000 ) ) ;
#821 = CARTESIAN_POINT ( 'NONE',  ( 15.50000000000000178, 0.000000000000000000, -3.799999999999999822 ) ) ;
#822 = ORIENTED_EDGE ( 'NONE', *, *, #886, .T. ) ;
#823 = ADVANCED_FACE ( 'NONE', ( #851 ), #756, .F. ) ;
#824 = VERTEX_POINT ( 'NONE', #1179 ) ;
#825 = CARTESIAN_POINT ( 'NONE',  ( 16.00000000000000000, 0.000000000000000000, -10.04999999999999893 ) ) ;
#826 = DIRECTION ( 'NONE',  ( -1.000000000000000000, 0.000000000000000000, 0.000000000000000000 ) ) ;
#827 = AXIS2_PLACEMENT_3D ( 'NONE', #854, #867, #1182 ) ;
#828 = ORIENTED_EDGE ( 'NONE', *, *, #370, .F. ) ;
#829 = EDGE_CURVE ( 'NONE', #680, #1223, #1253, .T. ) ;
#830 = ORIENTED_EDGE ( 'NONE', *, *, #496, .T. ) ;
#831 = AXIS2_PLACEMENT_3D ( 'NONE', #574, #66, #1305 ) ;
#832 = AXIS2_PLACEMENT_3D ( 'NONE', #458, #476, #771 ) ;
#833 = DIRECTION ( 'NONE',  ( 0.000000000000000000, 0.000000000000000000, 1.000000000000000000 ) ) ;
#834 = CARTESIAN_POINT ( 'NONE',  ( 16.00000000000000000, 0.000000000000000000, 7.950000000000000178 ) ) ;
#835 =( NAMED_UNIT ( * ) SI_UNIT ( $, .STERADIAN. ) SOLID_ANGLE_UNIT ( ) );
#836 = ORIENTED_EDGE ( 'NONE', *, *, #981, .T. ) ;
#837 = ORIENTED_EDGE ( 'NONE', *, *, #717, .T. ) ;
#838 = CARTESIAN_POINT ( 'NONE',  ( -16.00000000000000000, 0.4999999999999995559, -1.050000000000000266 ) ) ;
#839 = CARTESIAN_POINT ( 'NONE',  ( -17.50000000000000000, 0.4999999999999995559, -10.50000000000000000 ) ) ;
#840 = FACE_OUTER_BOUND ( 'NONE', #1046, .T. ) ;
#841 = ORIENTED_EDGE ( 'NONE', *, *, #26, .F. ) ;
#842 = ORIENTED_EDGE ( 'NONE', *, *, #340, .T. ) ;
#843 = CARTESIAN_POINT ( 'NONE',  ( -17.50000000000000000, 0.000000000000000000, -1.500000000000001332 ) ) ;
#844 = ORIENTED_EDGE ( 'NONE', *, *, #1152, .F. ) ;
#845 = CYLINDRICAL_SURFACE ( 'NONE', #1314, 0.5500000000000010436 ) ;
#846 = DIRECTION ( 'NONE',  ( 0.000000000000000000, 0.000000000000000000, -1.000000000000000000 ) ) ;
#847 = CIRCLE ( 'NONE', #1174, 1.499999999999999556 ) ;
#848 = ORIENTED_EDGE ( 'NONE', *, *, #1269, .T. ) ;
#849 = ORIENTED_EDGE ( 'NONE', *, *, #724, .T. ) ;
#850 = AXIS2_PLACEMENT_3D ( 'NONE', #498, #1344, #1038 ) ;
#851 = FACE_OUTER_BOUND ( 'NONE', #1328, .T. ) ;
#852 = AXIS2_PLACEMENT_3D ( 'NONE', #349, #991, #762 ) ;
#853 = EDGE_CURVE ( 'NONE', #1163, #1354, #647, .T. ) ;
#854 = CARTESIAN_POINT ( 'NONE',  ( -16.00000000000000000, 0.4999999999999995559, 0.000000000000000000 ) ) ;
#855 = VECTOR ( 'NONE', #368, 1000.000000000000000 ) ;
#856 = EDGE_CURVE ( 'NONE', #859, #1200, #1070, .T. ) ;
#857 = DIRECTION ( 'NONE',  ( -1.927470528863119295E-16, 0.000000000000000000, -1.000000000000000000 ) ) ;
#858 = CARTESIAN_POINT ( 'NONE',  ( 16.00000000000000000, 0.000000000000000000, -7.950000000000000178 ) ) ;
#859 = VERTEX_POINT ( 'NONE', #1159 ) ;
#860 = DIRECTION ( 'NONE',  ( -0.000000000000000000, -1.000000000000000000, -0.000000000000000000 ) ) ;
#861 = DIRECTION ( 'NONE',  ( -0.000000000000000000, -1.000000000000000000, -0.000000000000000000 ) ) ;
#862 = LINE ( 'NONE', #431, #269 ) ;
#863 = CARTESIAN_POINT ( 'NONE',  ( 15.50000000000000178, 0.000000000000000000, -6.050000000000000711 ) ) ;
#864 = EDGE_CURVE ( 'NONE', #1215, #80, #1088, .T. ) ;
#865 = VERTEX_POINT ( 'NONE', #110 ) ;
#866 = CARTESIAN_POINT ( 'NONE',  ( -10.50000000000000533, 0.000000000000000000, -9.000000000000001776 ) ) ;
#867 = DIRECTION ( 'NONE',  ( -0.000000000000000000, -1.000000000000000000, -0.000000000000000000 ) ) ;
#868 = CARTESIAN_POINT ( 'NONE',  ( 16.00000000000000000, 0.4999999999999995559, -7.950000000000000178 ) ) ;
#869 = CIRCLE ( 'NONE', #248, 1.500000000000000000 ) ;
#870 = ORIENTED_EDGE ( 'NONE', *, *, #451, .T. ) ;
#871 = DIRECTION ( 'NONE',  ( 0.000000000000000000, 1.000000000000000000, 0.000000000000000000 ) ) ;
#872 = DIRECTION ( 'NONE',  ( -0.000000000000000000, 1.000000000000000000, -0.000000000000000000 ) ) ;
#873 = CIRCLE ( 'NONE', #1251, 0.5500000000000010436 ) ;
#874 = CIRCLE ( 'NONE', #277, 1.049999999999998934 ) ;
#875 = CARTESIAN_POINT ( 'NONE',  ( -17.50000000000000000, 0.000000000000000000, -1.500000000000001332 ) ) ;
#876 = DIRECTION ( 'NONE',  ( -1.000000000000000000, 0.000000000000000000, -4.956352788505165240E-16 ) ) ;
#877 = VECTOR ( 'NONE', #721, 1000.000000000000000 ) ;
#878 = ORIENTED_EDGE ( 'NONE', *, *, #1126, .F. ) ;
#879 = DIRECTION ( 'NONE',  ( 0.000000000000000000, 1.000000000000000000, 0.000000000000000000 ) ) ;
#880 = CARTESIAN_POINT ( 'NONE',  ( -10.50000000000000355, 0.000000000000000000, -2.999999999999999112 ) ) ;
#881 = DIRECTION ( 'NONE',  ( -0.000000000000000000, 1.000000000000000000, 0.000000000000000000 ) ) ;
#882 = FACE_BOUND ( 'NONE', #369, .T. ) ;
#883 = ORIENTED_EDGE ( 'NONE', *, *, #966, .T. ) ;
#884 = CARTESIAN_POINT ( 'NONE',  ( 16.00000000000000000, 0.000000000000000000, 9.000000000000000000 ) ) ;
#885 = CARTESIAN_POINT ( 'NONE',  ( 15.50000000000000178, 0.000000000000000000, -6.050000000000000711 ) ) ;
#886 = EDGE_CURVE ( 'NONE', #817, #777, #571, .T. ) ;
#887 = EDGE_CURVE ( 'NONE', #1200, #140, #253, .T. ) ;
#888 = ORIENTED_EDGE ( 'NONE', *, *, #500, .F. ) ;
#889 = ORIENTED_EDGE ( 'NONE', *, *, #1295, .T. ) ;
#890 = AXIS2_PLACEMENT_3D ( 'NONE', #1130, #196, #423 ) ;
#891 = LINE ( 'NONE', #254, #499 ) ;
#892 = CARTESIAN_POINT ( 'NONE',  ( 15.50000000000000178, 0.4999999999999995559, -3.799999999999999822 ) ) ;
#893 = FACE_OUTER_BOUND ( 'NONE', #1171, .T. ) ;
#894 = VECTOR ( 'NONE', #593, 1000.000000000000000 ) ;
#895 = CARTESIAN_POINT ( 'NONE',  ( -16.00000000000000000, 0.000000000000000000, -1.050000000000000266 ) ) ;
#896 = AXIS2_PLACEMENT_3D ( 'NONE', #1196, #250, #281 ) ;
#897 = ORIENTED_EDGE ( 'NONE', *, *, #207, .F. ) ;
#898 = EDGE_LOOP ( 'NONE', ( #356, #1127, #133, #456, #432, #242, #946, #810, #1132, #836, #713, #226, #265, #733, #1334, #338, #1367, #472, #920, #238, #213, #764, #1271 ) ) ;
#899 = DIRECTION ( 'NONE',  ( 0.000000000000000000, 0.000000000000000000, -1.000000000000000000 ) ) ;
#900 = DIRECTION ( 'NONE',  ( -0.000000000000000000, 1.000000000000000000, -0.000000000000000000 ) ) ;
#901 = DIRECTION ( 'NONE',  ( -1.156482317317871331E-15, 0.000000000000000000, 1.000000000000000000 ) ) ;
#902 = CARTESIAN_POINT ( 'NONE',  ( 16.00000000000000000, 0.000000000000000000, -9.000000000000000000 ) ) ;
#903 = EDGE_LOOP ( 'NONE', ( #897, #696, #525, #1082 ) ) ;
#904 = VERTEX_POINT ( 'NONE', #1084 ) ;
#905 = DIRECTION ( 'NONE',  ( 0.000000000000000000, 0.000000000000000000, 1.000000000000000000 ) ) ;
#906 = ADVANCED_FACE ( 'NONE', ( #1303 ), #148, .T. ) ;
#907 = CARTESIAN_POINT ( 'NONE',  ( 16.00000000000000000, 0.000000000000000000, -9.000000000000000000 ) ) ;
#908 = SURFACE_STYLE_FILL_AREA ( #1089 ) ;
#909 = LINE ( 'NONE', #384, #877 ) ;
#910 = EDGE_LOOP ( 'NONE', ( #919, #1273, #420, #485 ) ) ;
#911 = EDGE_CURVE ( 'NONE', #1053, #1246, #1107, .T. ) ;
#912 = VERTEX_POINT ( 'NONE', #994 ) ;
#913 = AXIS2_PLACEMENT_3D ( 'NONE', #348, #568, #52 ) ;
#914 = EDGE_CURVE ( 'NONE', #404, #521, #412, .T. ) ;
#915 = DIRECTION ( 'NONE',  ( -0.000000000000000000, 1.000000000000000000, -0.000000000000000000 ) ) ;
#916 = CARTESIAN_POINT ( 'NONE',  ( 15.50000000000000178, 0.4999999999999995559, 3.799999999999999822 ) ) ;
#917 = CARTESIAN_POINT ( 'NONE',  ( -12.00000000000000533, 0.4999999999999995559, 3.000000000000003997 ) ) ;
#918 = CIRCLE ( 'NONE', #324, 0.5500000000000010436 ) ;
#919 = ORIENTED_EDGE ( 'NONE', *, *, #805, .F. ) ;
#920 = ORIENTED_EDGE ( 'NONE', *, *, #325, .T. ) ;
#921 = CIRCLE ( 'NONE', #896, 1.049999999999998934 ) ;
#922 = DIRECTION ( 'NONE',  ( -0.000000000000000000, -1.000000000000000000, -0.000000000000000000 ) ) ;
#923 = AXIS2_PLACEMENT_3D ( 'NONE', #1035, #951, #86 ) ;
#924 = DIRECTION ( 'NONE',  ( -1.000000000000000000, -0.000000000000000000, 1.858632295689434870E-16 ) ) ;
#925 = EDGE_CURVE ( 'NONE', #527, #304, #785, .T. ) ;
#926 = LINE ( 'NONE', #98, #200 ) ;
#927 = VERTEX_POINT ( 'NONE', #1202 ) ;
#928 = ORIENTED_EDGE ( 'NONE', *, *, #83, .F. ) ;
#929 = DIRECTION ( 'NONE',  ( -1.000000000000000000, 0.000000000000000000, 9.912705577010326782E-17 ) ) ;
#930 = CARTESIAN_POINT ( 'NONE',  ( 15.50000000000000178, 0.000000000000000000, -5.500000000000000000 ) ) ;
#931 = ADVANCED_FACE ( 'NONE', ( #466 ), #135, .F. ) ;
#932 = CARTESIAN_POINT ( 'NONE',  ( -17.50000000000000000, 7.500000000000000000, -10.50000000000000000 ) ) ;
#933 = CARTESIAN_POINT ( 'NONE',  ( -10.50000000000000533, 0.000000000000000000, 9.000000000000001776 ) ) ;
#934 = ORIENTED_EDGE ( 'NONE', *, *, #911, .F. ) ;
#935 = ORIENTED_EDGE ( 'NONE', *, *, #43, .T. ) ;
#936 = LINE ( 'NONE', #1234, #162 ) ;
#937 = DIRECTION ( 'NONE',  ( 0.000000000000000000, 0.000000000000000000, -1.000000000000000000 ) ) ;
#938 = ORIENTED_EDGE ( 'NONE', *, *, #1083, .F. ) ;
#939 = EDGE_CURVE ( 'NONE', #1259, #120, #1330, .T. ) ;
#940 = ORIENTED_EDGE ( 'NONE', *, *, #6, .T. ) ;
#941 = AXIS2_PLACEMENT_3D ( 'NONE', #1301, #551, #463 ) ;
#942 = CARTESIAN_POINT ( 'NONE',  ( 16.00000000000000000, 0.000000000000000000, -10.04999999999999893 ) ) ;
#943 = CARTESIAN_POINT ( 'NONE',  ( 15.50000000000000178, 0.000000000000000000, 4.350000000000001421 ) ) ;
#944 = CARTESIAN_POINT ( 'NONE',  ( 16.00000000000000000, 7.500000000000000000, -9.000000000000005329 ) ) ;
#945 = ORIENTED_EDGE ( 'NONE', *, *, #657, .T. ) ;
#946 = ORIENTED_EDGE ( 'NONE', *, *, #1136, .T. ) ;
#947 = EDGE_CURVE ( 'NONE', #976, #140, #1091, .T. ) ;
#948 = EDGE_CURVE ( 'NONE', #251, #1041, #891, .T. ) ;
#949 = LINE ( 'NONE', #961, #1008 ) ;
#950 = LINE ( 'NONE', #834, #1247 ) ;
#951 = DIRECTION ( 'NONE',  ( 0.000000000000000000, 0.000000000000000000, 1.000000000000000000 ) ) ;
#952 = EDGE_LOOP ( 'NONE', ( #842, #1078 ) ) ;
#953 = ORIENTED_EDGE ( 'NONE', *, *, #1322, .T. ) ;
#954 = CARTESIAN_POINT ( 'NONE',  ( 15.49999999999999822, 0.4999999999999995559, 1.750000000000000666 ) ) ;
#955 = DIRECTION ( 'NONE',  ( 0.000000000000000000, 0.000000000000000000, 1.000000000000000000 ) ) ;
#956 = CIRCLE ( 'NONE', #1080, 1.499999999999999556 ) ;
#957 = AXIS2_PLACEMENT_3D ( 'NONE', #336, #872, #1284 ) ;
#958 = LINE ( 'NONE', #971, #778 ) ;
#959 = ORIENTED_EDGE ( 'NONE', *, *, #1099, .F. ) ;
#960 = AXIS2_PLACEMENT_3D ( 'NONE', #1166, #341, #968 ) ;
#961 = CARTESIAN_POINT ( 'NONE',  ( 15.50000000000000178, 0.000000000000000000, -3.249999999999999112 ) ) ;
#962 = DIRECTION ( 'NONE',  ( 0.000000000000000000, 0.000000000000000000, 1.000000000000000000 ) ) ;
#963 = ADVANCED_FACE ( 'NONE', ( #1309, #57, #1002, #48, #143, #801, #1316, #982 ), #28, .T. ) ;
#964 = DIRECTION ( 'NONE',  ( 1.927470528863119295E-16, -0.000000000000000000, 1.000000000000000000 ) ) ;
#965 = FACE_OUTER_BOUND ( 'NONE', #408, .T. ) ;
#966 = EDGE_CURVE ( 'NONE', #1037, #194, #1180, .T. ) ;
#967 = ORIENTED_EDGE ( 'NONE', *, *, #657, .F. ) ;
#968 = DIRECTION ( 'NONE',  ( 1.000000000000000000, 0.000000000000000000, -1.239088197126289831E-16 ) ) ;
#969 = FACE_OUTER_BOUND ( 'NONE', #55, .T. ) ;
#970 = APPLICATION_PROTOCOL_DEFINITION ( 'draft international standard', 'automotive_design', 1998, #212 ) ;
#971 = CARTESIAN_POINT ( 'NONE',  ( 13.99999999999999822, 7.500000000000000000, -0.2499999999999993616 ) ) ;
#972 = EDGE_LOOP ( 'NONE', ( #40, #1134 ) ) ;
#973 = PRODUCT ( 'HEPI Housing base', 'HEPI Housing base', '', ( #520 ) ) ;
#974 = DIRECTION ( 'NONE',  ( -0.000000000000000000, -1.000000000000000000, 0.000000000000000000 ) ) ;
#975 = CARTESIAN_POINT ( 'NONE',  ( -16.00000000000000000, 0.000000000000000000, -5.575896887068297953E-16 ) ) ;
#976 = VERTEX_POINT ( 'NONE', #1192 ) ;
#977 = LINE ( 'NONE', #769, #123 ) ;
#978 = CIRCLE ( 'NONE', #1264, 1.500000000000000000 ) ;
#979 = CIRCLE ( 'NONE', #1024, 1.049999999999998934 ) ;
#980 = ORIENTED_EDGE ( 'NONE', *, *, #659, .F. ) ;
#981 = EDGE_CURVE ( 'NONE', #400, #1096, #365, .T. ) ;
#982 = FACE_BOUND ( 'NONE', #972, .T. ) ;
#983 = CARTESIAN_POINT ( 'NONE',  ( -16.00000000000000000, 0.4999999999999995559, -5.575896887068297953E-16 ) ) ;
#984 = VECTOR ( 'NONE', #290, 1000.000000000000000 ) ;
#985 = VECTOR ( 'NONE', #1102, 1000.000000000000000 ) ;
#986 = ORIENTED_EDGE ( 'NONE', *, *, #664, .F. ) ;
#987 = FACE_BOUND ( 'NONE', #217, .T. ) ;
#988 = DIRECTION ( 'NONE',  ( 1.000000000000000000, -0.000000000000000000, 4.956352788505166226E-16 ) ) ;
#989 = DIRECTION ( 'NONE',  ( -0.000000000000000000, 1.000000000000000000, -0.000000000000000000 ) ) ;
#990 = CARTESIAN_POINT ( 'NONE',  ( 16.00000000000000000, 0.4999999999999995559, 1.750000000000001110 ) ) ;
#991 = DIRECTION ( 'NONE',  ( 0.000000000000000000, -1.000000000000000000, 0.000000000000000000 ) ) ;
#992 = VERTEX_POINT ( 'NONE', #261 ) ;
#993 = ORIENTED_EDGE ( 'NONE', *, *, #784, .T. ) ;
#994 = CARTESIAN_POINT ( 'NONE',  ( 17.50000000000000000, 0.000000000000000000, 3.250000000000002665 ) ) ;
#995 = EDGE_CURVE ( 'NONE', #63, #1349, #1362, .T. ) ;
#996 = CARTESIAN_POINT ( 'NONE',  ( -10.50000000000000533, 0.000000000000000000, 9.000000000000001776 ) ) ;
#997 =( LENGTH_UNIT ( ) NAMED_UNIT ( * ) SI_UNIT ( .MILLI., .METRE. ) );
#998 = CARTESIAN_POINT ( 'NONE',  ( -17.50000000000000000, 0.000000000000000000, 5.204170427930421283E-15 ) ) ;
#999 = VERTEX_POINT ( 'NONE', #372 ) ;
#1000 = ORIENTED_EDGE ( 'NONE', *, *, #747, .F. ) ;
#1001 = MECHANICAL_DESIGN_GEOMETRIC_PRESENTATION_REPRESENTATION (  '', ( #534 ), #71 ) ;
#1002 = FACE_BOUND ( 'NONE', #740, .T. ) ;
#1003 = DIRECTION ( 'NONE',  ( -0.000000000000000000, 1.000000000000000000, -0.000000000000000000 ) ) ;
#1004 = PRODUCT_DEFINITION ( 'General', '', #564, #88 ) ;
#1005 = PRESENTATION_STYLE_ASSIGNMENT (( #1332 ) ) ;
#1006 = VECTOR ( 'NONE', #718, 1000.000000000000000 ) ;
#1007 = DIRECTION ( 'NONE',  ( -1.652117596168387756E-16, 0.000000000000000000, 1.000000000000000000 ) ) ;
#1008 = VECTOR ( 'NONE', #21, 1000.000000000000000 ) ;
#1009 = ORIENTED_EDGE ( 'NONE', *, *, #757, .F. ) ;
#1010 = MECHANICAL_DESIGN_GEOMETRIC_PRESENTATION_REPRESENTATION (  '', ( #632 ), #813 ) ;
#1011 = ORIENTED_EDGE ( 'NONE', *, *, #784, .F. ) ;
#1012 = CARTESIAN_POINT ( 'NONE',  ( 15.50000000000000178, 0.000000000000000000, 4.949999999999998401 ) ) ;
#1013 = CARTESIAN_POINT ( 'NONE',  ( 16.00000000000000000, 0.000000000000000000, 9.000000000000000000 ) ) ;
#1014 = LINE ( 'NONE', #1213, #555 ) ;
#1015 = DIRECTION ( 'NONE',  ( 0.000000000000000000, 0.000000000000000000, 1.000000000000000000 ) ) ;
#1016 = ADVANCED_FACE ( 'NONE', ( #796 ), #267, .F. ) ;
#1017 = ORIENTED_EDGE ( 'NONE', *, *, #947, .F. ) ;
#1018 = CARTESIAN_POINT ( 'NONE',  ( 16.00000000000000000, 0.000000000000000000, 10.04999999999999893 ) ) ;
#1019 = CARTESIAN_POINT ( 'NONE',  ( -10.50000000000000533, 0.000000000000000000, 10.50000000000000355 ) ) ;
#1020 = CARTESIAN_POINT ( 'NONE',  ( 17.50000000000000000, 7.500000000000000000, 10.49999999999999645 ) ) ;
#1021 = ORIENTED_EDGE ( 'NONE', *, *, #739, .F. ) ;
#1022 = ORIENTED_EDGE ( 'NONE', *, *, #689, .F. ) ;
#1023 = AXIS2_PLACEMENT_3D ( 'NONE', #916, #392, #1093 ) ;
#1024 = AXIS2_PLACEMENT_3D ( 'NONE', #1061, #861, #435 ) ;
#1025 = CARTESIAN_POINT ( 'NONE',  ( 16.00000000000000000, 0.4999999999999995559, -10.50000000000000355 ) ) ;
#1026 = DIRECTION ( 'NONE',  ( -0.000000000000000000, 1.000000000000000000, -0.000000000000000000 ) ) ;
#1027 = CARTESIAN_POINT ( 'NONE',  ( -10.50000000000000533, 0.000000000000000000, 3.000000000000004441 ) ) ;
#1028 = AXIS2_PLACEMENT_3D ( 'NONE', #1364, #915, #833 ) ;
#1029 = ORIENTED_EDGE ( 'NONE', *, *, #774, .F. ) ;
#1030 = AXIS2_PLACEMENT_3D ( 'NONE', #1020, #1214, #1007 ) ;
#1031 = ORIENTED_EDGE ( 'NONE', *, *, #1281, .F. ) ;
#1032 = CARTESIAN_POINT ( 'NONE',  ( 17.50000000000000355, 0.4999999999999995559, -3.249999999999994227 ) ) ;
#1033 = EDGE_CURVE ( 'NONE', #1324, #61, #526, .T. ) ;
#1034 = FACE_OUTER_BOUND ( 'NONE', #486, .T. ) ;
#1035 = CARTESIAN_POINT ( 'NONE',  ( 0.000000000000000000, 0.000000000000000000, 0.000000000000000000 ) ) ;
#1036 = ORIENTED_EDGE ( 'NONE', *, *, #656, .F. ) ;
#1037 = VERTEX_POINT ( 'NONE', #64 ) ;
#1038 = DIRECTION ( 'NONE',  ( 0.000000000000000000, 0.000000000000000000, 1.000000000000000000 ) ) ;
#1039 = DIRECTION ( 'NONE',  ( 0.000000000000000000, -1.000000000000000000, 0.000000000000000000 ) ) ;
#1040 = CARTESIAN_POINT ( 'NONE',  ( 16.00000000000000000, 0.000000000000000000, -9.000000000000005329 ) ) ;
#1041 = VERTEX_POINT ( 'NONE', #388 ) ;
#1042 = AXIS2_PLACEMENT_3D ( 'NONE', #768, #1057, #560 ) ;
#1043 = CARTESIAN_POINT ( 'NONE',  ( 17.50000000000000000, 7.500000000000000000, 3.250000000000001332 ) ) ;
#1044 = FACE_OUTER_BOUND ( 'NONE', #474, .T. ) ;
#1045 = ORIENTED_EDGE ( 'NONE', *, *, #634, .T. ) ;
#1046 = EDGE_LOOP ( 'NONE', ( #1306, #56, #15, #326 ) ) ;
#1047 = AXIS2_PLACEMENT_3D ( 'NONE', #175, #416, #598 ) ;
#1048 = VECTOR ( 'NONE', #79, 1000.000000000000000 ) ;
#1049 = DIRECTION ( 'NONE',  ( 0.000000000000000000, 1.000000000000000000, 0.000000000000000000 ) ) ;
#1050 = DIRECTION ( 'NONE',  ( 0.000000000000000000, 0.000000000000000000, 1.000000000000000000 ) ) ;
#1051 = CARTESIAN_POINT ( 'NONE',  ( 13.99999999999999822, 0.000000000000000000, 0.2500000000000009437 ) ) ;
#1052 = EDGE_LOOP ( 'NONE', ( #1121, #464 ) ) ;
#1053 = VERTEX_POINT ( 'NONE', #812 ) ;
#1054 = DIRECTION ( 'NONE',  ( 0.000000000000000000, 0.000000000000000000, 1.000000000000000000 ) ) ;
#1055 = EDGE_LOOP ( 'NONE', ( #1105, #889, #1254, #837 ) ) ;
#1056 = DIRECTION ( 'NONE',  ( -0.000000000000000000, -1.000000000000000000, -0.000000000000000000 ) ) ;
#1057 = DIRECTION ( 'NONE',  ( 0.000000000000000000, -1.000000000000000000, 0.000000000000000000 ) ) ;
#1058 = EDGE_LOOP ( 'NONE', ( #707, #303 ) ) ;
#1059 = PRODUCT_RELATED_PRODUCT_CATEGORY ( 'part', '', ( #973 ) ) ;
#1060 = CARTESIAN_POINT ( 'NONE',  ( 16.00000000000000000, 0.000000000000000000, 8.999999999999998224 ) ) ;
#1061 = CARTESIAN_POINT ( 'NONE',  ( 16.00000000000000000, 0.4999999999999995559, -9.000000000000000000 ) ) ;
#1062 = AXIS2_PLACEMENT_3D ( 'NONE', #1358, #826, #1346 ) ;
#1063 = ORIENTED_EDGE ( 'NONE', *, *, #829, .F. ) ;
#1064 = ORIENTED_EDGE ( 'NONE', *, *, #766, .T. ) ;
#1065 = CARTESIAN_POINT ( 'NONE',  ( -16.00000000000000000, 0.000000000000000000, -1.500000000000000666 ) ) ;
#1066 = DIRECTION ( 'NONE',  ( 0.000000000000000000, 0.000000000000000000, 1.000000000000000000 ) ) ;
#1067 = FACE_OUTER_BOUND ( 'NONE', #645, .T. ) ;
#1068 = FACE_BOUND ( 'NONE', #1052, .T. ) ;
#1069 = VERTEX_POINT ( 'NONE', #1233 ) ;
#1070 = LINE ( 'NONE', #1265, #1087 ) ;
#1071 = CARTESIAN_POINT ( 'NONE',  ( -9.000000000000007105, 0.000000000000000000, -9.000000000000001776 ) ) ;
#1072 = EDGE_CURVE ( 'NONE', #251, #63, #597, .T. ) ;
#1073 = ORIENTED_EDGE ( 'NONE', *, *, #496, .F. ) ;
#1074 = PLANE ( 'NONE',  #941 ) ;
#1075 = ORIENTED_EDGE ( 'NONE', *, *, #731, .T. ) ;
#1076 = CARTESIAN_POINT ( 'NONE',  ( -16.00000000000000000, 7.500000000000000000, 1.734723475976807094E-15 ) ) ;
#1077 = CYLINDRICAL_SURFACE ( 'NONE', #957, 1.050000000000000266 ) ;
#1078 = ORIENTED_EDGE ( 'NONE', *, *, #1165, .T. ) ;
#1079 = CARTESIAN_POINT ( 'NONE',  ( -16.00000000000000000, 0.000000000000000000, -1.500000000000000666 ) ) ;
#1080 = AXIS2_PLACEMENT_3D ( 'NONE', #1337, #700, #156 ) ;
#1081 = CIRCLE ( 'NONE', #890, 0.5500000000000010436 ) ;
#1082 = ORIENTED_EDGE ( 'NONE', *, *, #6, .F. ) ;
#1083 = EDGE_CURVE ( 'NONE', #503, #508, #24, .T. ) ;
#1084 = CARTESIAN_POINT ( 'NONE',  ( 15.50000000000000178, 0.000000000000000000, -4.949999999999998401 ) ) ;
#1085 = CIRCLE ( 'NONE', #49, 0.5500000000000010436 ) ;
#1086 = DIRECTION ( 'NONE',  ( 1.652117596168387756E-16, 0.000000000000000000, -1.000000000000000000 ) ) ;
#1087 = VECTOR ( 'NONE', #320, 1000.000000000000000 ) ;
#1088 = CIRCLE ( 'NONE', #327, 0.5500000000000014877 ) ;
#1089 = FILL_AREA_STYLE ('',( #462 ) ) ;
#1090 = ORIENTED_EDGE ( 'NONE', *, *, #553, .T. ) ;
#1091 = LINE ( 'NONE', #1012, #449 ) ;
#1092 = CARTESIAN_POINT ( 'NONE',  ( 15.50000000000000178, 0.4999999999999995559, -6.050000000000000711 ) ) ;
#1093 = DIRECTION ( 'NONE',  ( 0.000000000000000000, 0.000000000000000000, 1.000000000000000000 ) ) ;
#1094 = CARTESIAN_POINT ( 'NONE',  ( 15.50000000000000178, 0.000000000000000000, -3.799999999999999822 ) ) ;
#1095 = ORIENTED_EDGE ( 'NONE', *, *, #995, .F. ) ;
#1096 = VERTEX_POINT ( 'NONE', #561 ) ;
#1097 = DIRECTION ( 'NONE',  ( -0.000000000000000000, -1.000000000000000000, -0.000000000000000000 ) ) ;
#1098 = EDGE_CURVE ( 'NONE', #904, #503, #1319, .T. ) ;
#1099 = EDGE_CURVE ( 'NONE', #494, #685, #751, .T. ) ;
#1100 = LINE ( 'NONE', #1212, #1296 ) ;
#1101 = LINE ( 'NONE', #1019, #382 ) ;
#1102 = DIRECTION ( 'NONE',  ( -1.000000000000000000, -0.000000000000000000, 9.912705577010325549E-17 ) ) ;
#1103 = VECTOR ( 'NONE', #663, 1000.000000000000000 ) ;
#1104 = ORIENTED_EDGE ( 'NONE', *, *, #634, .F. ) ;
#1105 = ORIENTED_EDGE ( 'NONE', *, *, #1237, .F. ) ;
#1106 = CIRCLE ( 'NONE', #514, 1.499999999999999556 ) ;
#1107 = LINE ( 'NONE', #1325, #1112 ) ;
#1108 = FACE_OUTER_BOUND ( 'NONE', #1120, .T. ) ;
#1109 = LINE ( 'NONE', #798, #317 ) ;
#1110 = AXIS2_PLACEMENT_3D ( 'NONE', #983, #559, #637 ) ;
#1111 = DIRECTION ( 'NONE',  ( 0.000000000000000000, 0.000000000000000000, 1.000000000000000000 ) ) ;
#1112 = VECTOR ( 'NONE', #481, 1000.000000000000000 ) ;
#1113 = ORIENTED_EDGE ( 'NONE', *, *, #607, .F. ) ;
#1114 = ORIENTED_EDGE ( 'NONE', *, *, #43, .F. ) ;
#1115 = DIRECTION ( 'NONE',  ( -0.000000000000000000, 1.000000000000000000, -0.000000000000000000 ) ) ;
#1116 = DIRECTION ( 'NONE',  ( 1.000000000000000000, 0.000000000000000000, -1.858632295689434870E-16 ) ) ;
#1117 = DIRECTION ( 'NONE',  ( 0.000000000000000000, 0.000000000000000000, 1.000000000000000000 ) ) ;
#1118 = DIRECTION ( 'NONE',  ( -0.000000000000000000, 1.000000000000000000, -0.000000000000000000 ) ) ;
#1119 = EDGE_CURVE ( 'NONE', #1207, #310, #631, .T. ) ;
#1120 = EDGE_LOOP ( 'NONE', ( #1267, #794, #712, #159 ) ) ;
#1121 = ORIENTED_EDGE ( 'NONE', *, *, #34, .T. ) ;
#1122 = CARTESIAN_POINT ( 'NONE',  ( -10.50000000000000533, 0.000000000000000000, -9.000000000000001776 ) ) ;
#1123 = CARTESIAN_POINT ( 'NONE',  ( 16.00000000000000000, 7.500000000000000000, 3.250000000000001332 ) ) ;
#1124 = DIRECTION ( 'NONE',  ( -0.000000000000000000, 1.000000000000000000, -0.000000000000000000 ) ) ;
#1125 = VERTEX_POINT ( 'NONE', #644 ) ;
#1126 = EDGE_CURVE ( 'NONE', #527, #1223, #1170, .T. ) ;
#1127 = ORIENTED_EDGE ( 'NONE', *, *, #93, .F. ) ;
#1128 = CIRCLE ( 'NONE', #1338, 1.499999999999999556 ) ;
#1129 = FACE_OUTER_BOUND ( 'NONE', #395, .T. ) ;
#1130 = CARTESIAN_POINT ( 'NONE',  ( 15.50000000000000178, 0.000000000000000000, 5.500000000000000000 ) ) ;
#1131 = CIRCLE ( 'NONE', #1047, 0.5500000000000014877 ) ;
#1132 = ORIENTED_EDGE ( 'NONE', *, *, #65, .F. ) ;
#1133 = VECTOR ( 'NONE', #1297, 1000.000000000000000 ) ;
#1134 = ORIENTED_EDGE ( 'NONE', *, *, #829, .T. ) ;
#1135 = CIRCLE ( 'NONE', #302, 0.5500000000000010436 ) ;
#1136 = EDGE_CURVE ( 'NONE', #817, #1354, #354, .T. ) ;
#1137 = CARTESIAN_POINT ( 'NONE',  ( 15.49999999999999822, 0.000000000000000000, -1.749999999999999112 ) ) ;
#1138 = FACE_OUTER_BOUND ( 'NONE', #25, .T. ) ;
#1139 = CARTESIAN_POINT ( 'NONE',  ( -12.00000000000000533, 7.500000000000000000, 1.500000000000004219 ) ) ;
#1140 = ORIENTED_EDGE ( 'NONE', *, *, #132, .F. ) ;
#1141 = EDGE_LOOP ( 'NONE', ( #530, #591, #627, #1244 ) ) ;
#1142 = CARTESIAN_POINT ( 'NONE',  ( -10.50000000000000533, 0.4999999999999995559, 10.50000000000000355 ) ) ;
#1143 = ADVANCED_FACE ( 'NONE', ( #243 ), #652, .F. ) ;
#1144 = DIRECTION ( 'NONE',  ( 0.000000000000000000, 0.000000000000000000, 1.000000000000000000 ) ) ;
#1145 = FILL_AREA_STYLE_COLOUR ( '', #233 ) ;
#1146 = ADVANCED_FACE ( 'NONE', ( #987, #1068, #546, #882, #237, #776, #1307, #965 ), #1074, .T. ) ;
#1147 = ORIENTED_EDGE ( 'NONE', *, *, #19, .F. ) ;
#1148 = ORIENTED_EDGE ( 'NONE', *, *, #754, .F. ) ;
#1149 = VECTOR ( 'NONE', #375, 1000.000000000000000 ) ;
#1150 = DIRECTION ( 'NONE',  ( 0.000000000000000000, 0.000000000000000000, -1.000000000000000000 ) ) ;
#1151 = COLOUR_RGB ( '',0.7921568627450980005, 0.8196078431372548767, 0.9333333333333333481 ) ;
#1152 = EDGE_CURVE ( 'NONE', #400, #927, #977, .T. ) ;
#1153 = DIRECTION ( 'NONE',  ( 0.000000000000000000, 0.000000000000000000, -1.000000000000000000 ) ) ;
#1154 = SURFACE_SIDE_STYLE ('',( #1270 ) ) ;
#1155 = EDGE_LOOP ( 'NONE', ( #309, #1216, #830, #20 ) ) ;
#1156 = EDGE_LOOP ( 'NONE', ( #95, #1293, #702, #1063 ) ) ;
#1157 = AXIS2_PLACEMENT_3D ( 'NONE', #181, #75, #1357 ) ;
#1158 = VECTOR ( 'NONE', #922, 1000.000000000000000 ) ;
#1159 = CARTESIAN_POINT ( 'NONE',  ( 15.50000000000000178, 0.000000000000000000, 6.050000000000000711 ) ) ;
#1160 = ORIENTED_EDGE ( 'NONE', *, *, #1269, .F. ) ;
#1161 = DIRECTION ( 'NONE',  ( -0.000000000000000000, -1.000000000000000000, -0.000000000000000000 ) ) ;
#1162 = LINE ( 'NONE', #1051, #11 ) ;
#1163 = VERTEX_POINT ( 'NONE', #1079 ) ;
#1164 = ORIENTED_EDGE ( 'NONE', *, *, #397, .T. ) ;
#1165 = EDGE_CURVE ( 'NONE', #703, #61, #921, .T. ) ;
#1166 = CARTESIAN_POINT ( 'NONE',  ( 13.99999999999999822, 0.000000000000000000, 1.750000000000000888 ) ) ;
#1167 = ORIENTED_EDGE ( 'NONE', *, *, #118, .F. ) ;
#1168 = CARTESIAN_POINT ( 'NONE',  ( 17.50000000000000000, 0.4999999999999995559, 8.999999999999998224 ) ) ;
#1169 = CYLINDRICAL_SURFACE ( 'NONE', #913, 1.049999999999998934 ) ;
#1170 = LINE ( 'NONE', #1292, #586 ) ;
#1171 = EDGE_LOOP ( 'NONE', ( #172, #993, #399, #708 ) ) ;
#1172 = CARTESIAN_POINT ( 'NONE',  ( -10.50000000000000533, 0.000000000000000000, 3.000000000000003997 ) ) ;
#1173 = DIRECTION ( 'NONE',  ( -0.000000000000000000, 1.000000000000000000, -0.000000000000000000 ) ) ;
#1174 = AXIS2_PLACEMENT_3D ( 'NONE', #610, #202, #183 ) ;
#1175 = DIRECTION ( 'NONE',  ( 0.000000000000000000, 1.000000000000000000, 0.000000000000000000 ) ) ;
#1176 = DIRECTION ( 'NONE',  ( -0.000000000000000000, 1.000000000000000000, -0.000000000000000000 ) ) ;
#1177 = ORIENTED_EDGE ( 'NONE', *, *, #1136, .F. ) ;
#1178 = VECTOR ( 'NONE', #613, 1000.000000000000000 ) ;
#1179 = CARTESIAN_POINT ( 'NONE',  ( -16.00000000000000000, 0.4999999999999995559, 1.050000000000000266 ) ) ;
#1180 = CIRCLE ( 'NONE', #832, 1.500000000000000000 ) ;
#1181 = EDGE_CURVE ( 'NONE', #174, #640, #1228, .T. ) ;
#1182 = DIRECTION ( 'NONE',  ( 0.000000000000000000, 0.000000000000000000, 1.000000000000000000 ) ) ;
#1183 = CARTESIAN_POINT ( 'NONE',  ( -10.50000000000000533, 0.000000000000000000, -10.49999999999999645 ) ) ;
#1184 = DIRECTION ( 'NONE',  ( -0.000000000000000000, 1.000000000000000000, -0.000000000000000000 ) ) ;
#1185 = ORIENTED_EDGE ( 'NONE', *, *, #887, .F. ) ;
#1186 = DIRECTION ( 'NONE',  ( 0.000000000000000000, 0.000000000000000000, 1.000000000000000000 ) ) ;
#1187 = DIRECTION ( 'NONE',  ( -0.000000000000000000, -1.000000000000000000, -0.000000000000000000 ) ) ;
#1188 = SHAPE_DEFINITION_REPRESENTATION ( #763, #457 ) ;
#1189 = ORIENTED_EDGE ( 'NONE', *, *, #1311, .F. ) ;
#1190 = CARTESIAN_POINT ( 'NONE',  ( -10.50000000000000533, 0.000000000000000000, -10.49999999999999645 ) ) ;
#1191 = ORIENTED_EDGE ( 'NONE', *, *, #1288, .T. ) ;
#1192 = CARTESIAN_POINT ( 'NONE',  ( 15.50000000000000178, 0.000000000000000000, 4.949999999999998401 ) ) ;
#1193 = CARTESIAN_POINT ( 'NONE',  ( -17.50000000000000000, 0.000000000000000000, 1.500000000000001332 ) ) ;
#1194 = ADVANCED_FACE ( 'NONE', ( #807 ), #583, .F. ) ;
#1195 = PLANE ( 'NONE',  #339 ) ;
#1196 = CARTESIAN_POINT ( 'NONE',  ( 16.00000000000000000, 0.4999999999999995559, -9.000000000000000000 ) ) ;
#1197 = CIRCLE ( 'NONE', #599, 1.500000000000000000 ) ;
#1198 = EDGE_CURVE ( 'NONE', #578, #151, #177, .T. ) ;
#1199 = AXIS2_PLACEMENT_3D ( 'NONE', #744, #655, #331 ) ;
#1200 = VERTEX_POINT ( 'NONE', #1206 ) ;
#1201 = VERTEX_POINT ( 'NONE', #816 ) ;
#1202 = CARTESIAN_POINT ( 'NONE',  ( -16.00000000000000000, 0.000000000000000000, 1.500000000000001998 ) ) ;
#1203 = AXIS2_PLACEMENT_3D ( 'NONE', #117, #860, #438 ) ;
#1204 = DIRECTION ( 'NONE',  ( -0.000000000000000000, -1.000000000000000000, -0.000000000000000000 ) ) ;
#1205 = VECTOR ( 'NONE', #543, 1000.000000000000000 ) ;
#1206 = CARTESIAN_POINT ( 'NONE',  ( 15.50000000000000178, 0.4999999999999995559, 6.050000000000000711 ) ) ;
#1207 = VERTEX_POINT ( 'NONE', #1027 ) ;
#1208 = EDGE_CURVE ( 'NONE', #1324, #626, #874, .T. ) ;
#1209 = ORIENTED_EDGE ( 'NONE', *, *, #939, .F. ) ;
#1210 = DIRECTION ( 'NONE',  ( -1.858632295689434870E-16, 0.000000000000000000, -1.000000000000000000 ) ) ;
#1211 = ADVANCED_FACE ( 'NONE', ( #286 ), #706, .T. ) ;
#1212 = CARTESIAN_POINT ( 'NONE',  ( -17.50000000000000000, 0.000000000000000000, 10.50000000000000000 ) ) ;
#1213 = CARTESIAN_POINT ( 'NONE',  ( 17.50000000000000355, 7.500000000000000000, -9.000000000000007105 ) ) ;
#1214 = DIRECTION ( 'NONE',  ( -1.000000000000000000, 0.000000000000000000, -1.652117596168387756E-16 ) ) ;
#1215 = VERTEX_POINT ( 'NONE', #1312 ) ;
#1216 = ORIENTED_EDGE ( 'NONE', *, *, #1072, .T. ) ;
#1217 = DIRECTION ( 'NONE',  ( 0.000000000000000000, -1.000000000000000000, 0.000000000000000000 ) ) ;
#1218 = CYLINDRICAL_SURFACE ( 'NONE', #831, 0.5500000000000010436 ) ;
#1219 =( NAMED_UNIT ( * ) SI_UNIT ( $, .STERADIAN. ) SOLID_ANGLE_UNIT ( ) );
#1220 = CARTESIAN_POINT ( 'NONE',  ( 16.00000000000000000, 0.4999999999999995559, 10.04999999999999893 ) ) ;
#1221 = ORIENTED_EDGE ( 'NONE', *, *, #1279, .F. ) ;
#1222 = AXIS2_PLACEMENT_3D ( 'NONE', #136, #227, #119 ) ;
#1223 = VERTEX_POINT ( 'NONE', #1220 ) ;
#1224 = DIRECTION ( 'NONE',  ( 0.000000000000000000, 0.000000000000000000, 1.000000000000000000 ) ) ;
#1225 = DIRECTION ( 'NONE',  ( 0.000000000000000000, 0.000000000000000000, 1.000000000000000000 ) ) ;
#1226 = DIRECTION ( 'NONE',  ( 0.000000000000000000, 1.000000000000000000, 0.000000000000000000 ) ) ;
#1227 = CIRCLE ( 'NONE', #629, 1.499999999999999556 ) ;
#1228 = LINE ( 'NONE', #895, #697 ) ;
#1229 = VECTOR ( 'NONE', #234, 1000.000000000000000 ) ;
#1230 = ORIENTED_EDGE ( 'NONE', *, *, #755, .F. ) ;
#1231 = CIRCLE ( 'NONE', #698, 1.500000000000000000 ) ;
#1232 = VERTEX_POINT ( 'NONE', #1327 ) ;
#1233 = CARTESIAN_POINT ( 'NONE',  ( -10.50000000000000355, 0.4999999999999995559, -2.999999999999999112 ) ) ;
#1234 = CARTESIAN_POINT ( 'NONE',  ( 15.50000000000000178, 0.000000000000000000, 4.350000000000001421 ) ) ;
#1235 = CARTESIAN_POINT ( 'NONE',  ( -16.00000000000000000, 0.000000000000000000, 1.734723475976807094E-15 ) ) ;
#1236 = DIRECTION ( 'NONE',  ( 0.000000000000000000, 0.000000000000000000, 1.000000000000000000 ) ) ;
#1237 = EDGE_CURVE ( 'NONE', #386, #1287, #701, .T. ) ;
#1238 = VERTEX_POINT ( 'NONE', #998 ) ;
#1239 = EDGE_LOOP ( 'NONE', ( #1221, #1189, #643, #1021 ) ) ;
#1240 = CARTESIAN_POINT ( 'NONE',  ( 13.99999999999999822, 0.4999999999999995559, 1.750000000000000888 ) ) ;
#1241 = CARTESIAN_POINT ( 'NONE',  ( 17.50000000000000000, 0.4999999999999995559, -9.000000000000000000 ) ) ;
#1242 = DIRECTION ( 'NONE',  ( -0.000000000000000000, 1.000000000000000000, 0.000000000000000000 ) ) ;
#1243 = ADVANCED_FACE ( 'NONE', ( #793 ), #157, .F. ) ;
#1244 = ORIENTED_EDGE ( 'NONE', *, *, #1322, .F. ) ;
#1245 = ADVANCED_FACE ( 'NONE', ( #576 ), #361, .F. ) ;
#1246 = VERTEX_POINT ( 'NONE', #783 ) ;
#1247 = VECTOR ( 'NONE', #1257, 1000.000000000000000 ) ;
#1248 = CYLINDRICAL_SURFACE ( 'NONE', #649, 1.500000000000000000 ) ;
#1249 = CARTESIAN_POINT ( 'NONE',  ( -12.00000000000000533, 0.000000000000000000, 1.500000000000004219 ) ) ;
#1250 = DIRECTION ( 'NONE',  ( 0.000000000000000000, -1.000000000000000000, 0.000000000000000000 ) ) ;
#1251 = AXIS2_PLACEMENT_3D ( 'NONE', #736, #1056, #955 ) ;
#1252 = ORIENTED_EDGE ( 'NONE', *, *, #864, .F. ) ;
#1253 = CIRCLE ( 'NONE', #206, 1.049999999999998934 ) ;
#1254 = ORIENTED_EDGE ( 'NONE', *, *, #714, .T. ) ;
#1255 = EDGE_CURVE ( 'NONE', #660, #1259, #184, .T. ) ;
#1256 = CARTESIAN_POINT ( 'NONE',  ( 16.00000000000000000, 0.4999999999999995559, -10.04999999999999893 ) ) ;
#1257 = DIRECTION ( 'NONE',  ( -0.000000000000000000, 1.000000000000000000, -0.000000000000000000 ) ) ;
#1258 = FILL_AREA_STYLE ('',( #1145 ) ) ;
#1259 = VERTEX_POINT ( 'NONE', #171 ) ;
#1260 = FACE_OUTER_BOUND ( 'NONE', #236, .T. ) ;
#1261 = DIRECTION ( 'NONE',  ( 0.000000000000000000, 1.000000000000000000, 0.000000000000000000 ) ) ;
#1262 = ORIENTED_EDGE ( 'NONE', *, *, #856, .F. ) ;
#1263 = ORIENTED_EDGE ( 'NONE', *, *, #603, .F. ) ;
#1264 = AXIS2_PLACEMENT_3D ( 'NONE', #589, #263, #901 ) ;
#1265 = CARTESIAN_POINT ( 'NONE',  ( 15.50000000000000178, 0.000000000000000000, 6.050000000000000711 ) ) ;
#1266 = CIRCLE ( 'NONE', #179, 1.500000000000000000 ) ;
#1267 = ORIENTED_EDGE ( 'NONE', *, *, #981, .F. ) ;
#1268 = CARTESIAN_POINT ( 'NONE',  ( 15.50000000000000178, 0.4999999999999995559, -4.350000000000001421 ) ) ;
#1269 = EDGE_CURVE ( 'NONE', #328, #789, #1299, .T. ) ;
#1270 = SURFACE_STYLE_FILL_AREA ( #1258 ) ;
#1271 = ORIENTED_EDGE ( 'NONE', *, *, #451, .F. ) ;
#1272 = CIRCLE ( 'NONE', #670, 1.500000000000000000 ) ;
#1273 = ORIENTED_EDGE ( 'NONE', *, *, #305, .T. ) ;
#1274 = VECTOR ( 'NONE', #1115, 1000.000000000000000 ) ;
#1275 = PRESENTATION_LAYER_ASSIGNMENT (  '', '', ( #632 ) ) ;
#1276 = CARTESIAN_POINT ( 'NONE',  ( 15.50000000000000178, 0.000000000000000000, -4.350000000000001421 ) ) ;
#1277 = EDGE_LOOP ( 'NONE', ( #1167, #1341, #888, #800 ) ) ;
#1278 = CARTESIAN_POINT ( 'NONE',  ( 15.50000000000000178, 0.4999999999999995559, -4.949999999999998401 ) ) ;
#1279 = EDGE_CURVE ( 'NONE', #1096, #422, #1342, .T. ) ;
#1280 = CARTESIAN_POINT ( 'NONE',  ( 15.50000000000000178, 0.4999999999999995559, 3.249999999999998668 ) ) ;
#1281 = EDGE_CURVE ( 'NONE', #789, #328, #1135, .T. ) ;
#1282 = VERTEX_POINT ( 'NONE', #166 ) ;
#1283 = CARTESIAN_POINT ( 'NONE',  ( 15.50000000000000178, 0.000000000000000000, -4.949999999999998401 ) ) ;
#1284 = DIRECTION ( 'NONE',  ( 0.000000000000000000, 0.000000000000000000, 1.000000000000000000 ) ) ;
#1285 = FACE_OUTER_BOUND ( 'NONE', #220, .T. ) ;
#1286 = CARTESIAN_POINT ( 'NONE',  ( -12.00000000000000533, 0.000000000000000000, 3.000000000000003997 ) ) ;
#1287 = VERTEX_POINT ( 'NONE', #150 ) ;
#1288 = EDGE_CURVE ( 'NONE', #1053, #742, #45, .T. ) ;
#1289 = CARTESIAN_POINT ( 'NONE',  ( -12.00000000000000355, 0.000000000000000000, -1.499999999999998446 ) ) ;
#1290 = DIRECTION ( 'NONE',  ( 0.000000000000000000, 0.000000000000000000, 1.000000000000000000 ) ) ;
#1291 = ORIENTED_EDGE ( 'NONE', *, *, #673, .F. ) ;
#1292 = CARTESIAN_POINT ( 'NONE',  ( 16.00000000000000000, 0.000000000000000000, 10.04999999999999893 ) ) ;
#1293 = ORIENTED_EDGE ( 'NONE', *, *, #925, .F. ) ;
#1294 = EDGE_CURVE ( 'NONE', #120, #1053, #1231, .T. ) ;
#1295 = EDGE_CURVE ( 'NONE', #386, #1315, #909, .T. ) ;
#1296 = VECTOR ( 'NONE', #58, 1000.000000000000000 ) ;
#1297 = DIRECTION ( 'NONE',  ( -0.000000000000000000, -1.000000000000000000, -0.000000000000000000 ) ) ;
#1298 = DIRECTION ( 'NONE',  ( 0.000000000000000000, 0.000000000000000000, 1.000000000000000000 ) ) ;
#1299 = CIRCLE ( 'NONE', #541, 0.5500000000000010436 ) ;
#1300 = DIRECTION ( 'NONE',  ( 1.000000000000000000, 0.000000000000000000, 4.956352788505165240E-16 ) ) ;
#1301 = CARTESIAN_POINT ( 'NONE',  ( 0.000000000000000000, 0.000000000000000000, 0.000000000000000000 ) ) ;
#1302 = VERTEX_POINT ( 'NONE', #185 ) ;
#1303 = FACE_OUTER_BOUND ( 'NONE', #1, .T. ) ;
#1304 = ADVANCED_FACE ( 'NONE', ( #623 ), #292, .F. ) ;
#1305 = DIRECTION ( 'NONE',  ( 0.000000000000000000, 0.000000000000000000, 1.000000000000000000 ) ) ;
#1306 = ORIENTED_EDGE ( 'NONE', *, *, #280, .F. ) ;
#1307 = FACE_BOUND ( 'NONE', #1363, .T. ) ;
#1308 = EDGE_LOOP ( 'NONE', ( #134, #493, #198, #1095 ) ) ;
#1309 = FACE_BOUND ( 'NONE', #32, .T. ) ;
#1310 = CYLINDRICAL_SURFACE ( 'NONE', #299, 1.049999999999998934 ) ;
#1311 = EDGE_CURVE ( 'NONE', #310, #1096, #611, .T. ) ;
#1312 = CARTESIAN_POINT ( 'NONE',  ( 15.50000000000000178, 0.4999999999999995559, 4.350000000000001421 ) ) ;
#1313 = CLOSED_SHELL ( 'NONE', ( #528, #690, #614, #1304, #334, #572, #581, #1243, #1016, #203, #214, #74, #823, #507, #312, #773, #276, #931, #84, #1245, #221, #54, #287, #62, #1143, #621, #1345, #378, #1211, #573, #906, #415, #270, #241, #147, #355, #1194, #1146, #963 ) ) ;
#1314 = AXIS2_PLACEMENT_3D ( 'NONE', #314, #720, #1050 ) ;
#1315 = VERTEX_POINT ( 'NONE', #403 ) ;
#1316 = FACE_BOUND ( 'NONE', #952, .T. ) ;
#1317 = CIRCLE ( 'NONE', #323, 1.049999999999998934 ) ;
#1318 = DIRECTION ( 'NONE',  ( -0.000000000000000000, 1.000000000000000000, -0.000000000000000000 ) ) ;
#1319 = CIRCLE ( 'NONE', #144, 0.5500000000000010436 ) ;
#1320 = DIRECTION ( 'NONE',  ( 0.000000000000000000, 0.000000000000000000, -1.000000000000000000 ) ) ;
#1321 = CARTESIAN_POINT ( 'NONE',  ( 17.50000000000000000, 0.4999999999999995559, 10.49999999999999645 ) ) ;
#1322 = EDGE_CURVE ( 'NONE', #1232, #120, #1162, .T. ) ;
#1323 = ORIENTED_EDGE ( 'NONE', *, *, #340, .F. ) ;
#1324 = VERTEX_POINT ( 'NONE', #191 ) ;
#1325 = CARTESIAN_POINT ( 'NONE',  ( 13.99999999999999822, 0.000000000000000000, 1.750000000000000888 ) ) ;
#1326 = DIRECTION ( 'NONE',  ( 0.000000000000000000, 0.000000000000000000, 1.000000000000000000 ) ) ;
#1327 = CARTESIAN_POINT ( 'NONE',  ( 13.99999999999999822, 0.4999999999999995559, 0.2500000000000002220 ) ) ;
#1328 = EDGE_LOOP ( 'NONE', ( #1177, #822, #928, #722 ) ) ;
#1329 = ORIENTED_EDGE ( 'NONE', *, *, #1033, .F. ) ;
#1330 = LINE ( 'NONE', #587, #497 ) ;
#1331 = LINE ( 'NONE', #145, #694 ) ;
#1332 = SURFACE_STYLE_USAGE ( .BOTH. , #170 ) ;
#1333 = DIRECTION ( 'NONE',  ( 0.000000000000000000, 1.000000000000000000, 0.000000000000000000 ) ) ;
#1334 = ORIENTED_EDGE ( 'NONE', *, *, #731, .F. ) ;
#1335 = EDGE_LOOP ( 'NONE', ( #316, #1160, #244, #337 ) ) ;
#1336 = LINE ( 'NONE', #1043, #99 ) ;
#1337 = CARTESIAN_POINT ( 'NONE',  ( 16.00000000000000000, 0.4999999999999995559, -9.000000000000005329 ) ) ;
#1338 = AXIS2_PLACEMENT_3D ( 'NONE', #642, #1161, #662 ) ;
#1339 = DIRECTION ( 'NONE',  ( -0.000000000000000000, 1.000000000000000000, -0.000000000000000000 ) ) ;
#1340 = AXIS2_PLACEMENT_3D ( 'NONE', #686, #741, #929 ) ;
#1341 = ORIENTED_EDGE ( 'NONE', *, *, #35, .F. ) ;
#1342 = CIRCLE ( 'NONE', #278, 1.500000000000000000 ) ;
#1343 = ORIENTED_EDGE ( 'NONE', *, *, #222, .F. ) ;
#1344 = DIRECTION ( 'NONE',  ( 0.000000000000000000, 1.000000000000000000, 0.000000000000000000 ) ) ;
#1345 = ADVANCED_FACE ( 'NONE', ( #840 ), #1347, .T. ) ;
#1346 = DIRECTION ( 'NONE',  ( 0.000000000000000000, 0.000000000000000000, 1.000000000000000000 ) ) ;
#1347 = CYLINDRICAL_SURFACE ( 'NONE', #787, 1.499999999999999556 ) ;
#1348 = EDGE_LOOP ( 'NONE', ( #986, #602, #547, #828 ) ) ;
#1349 = VERTEX_POINT ( 'NONE', #933 ) ;
#1350 = CARTESIAN_POINT ( 'NONE',  ( 15.50000000000000178, 0.000000000000000000, -5.500000000000000000 ) ) ;
#1351 = CARTESIAN_POINT ( 'NONE',  ( 15.50000000000000178, 0.000000000000000000, 3.799999999999999822 ) ) ;
#1352 = DIRECTION ( 'NONE',  ( -0.000000000000000000, -1.000000000000000000, -0.000000000000000000 ) ) ;
#1353 = ORIENTED_EDGE ( 'NONE', *, *, #173, .T. ) ;
#1354 = VERTEX_POINT ( 'NONE', #308 ) ;
#1355 = AXIS2_PLACEMENT_3D ( 'NONE', #436, #114, #23 ) ;
#1356 = PRESENTATION_LAYER_ASSIGNMENT (  '', '', ( #534 ) ) ;
#1357 = DIRECTION ( 'NONE',  ( 0.000000000000000000, 0.000000000000000000, 1.000000000000000000 ) ) ;
#1358 = CARTESIAN_POINT ( 'NONE',  ( 13.99999999999999822, 0.000000000000000000, -1.749999999999998890 ) ) ;
#1359 =( LENGTH_UNIT ( ) NAMED_UNIT ( * ) SI_UNIT ( .MILLI., .METRE. ) );
#1360 = AXIS2_PLACEMENT_3D ( 'NONE', #930, #97, #505 ) ;
#1361 = EDGE_LOOP ( 'NONE', ( #1017, #272, #539, #1230 ) ) ;
#1362 = CIRCLE ( 'NONE', #538, 1.499999999999999556 ) ;
#1363 = EDGE_LOOP ( 'NONE', ( #848, #81 ) ) ;
#1364 = CARTESIAN_POINT ( 'NONE',  ( 15.50000000000000178, 0.000000000000000000, 3.799999999999999822 ) ) ;
#1365 = CARTESIAN_POINT ( 'NONE',  ( 15.50000000000000178, 0.000000000000000000, 3.249999999999998668 ) ) ;
#1366 = ORIENTED_EDGE ( 'NONE', *, *, #1083, .T. ) ;
#1367 = ORIENTED_EDGE ( 'NONE', *, *, #459, .F. ) ;
#1368 = EDGE_CURVE ( 'NONE', #578, #1201, #255, .T. ) ;
#1369 = DIRECTION ( 'NONE',  ( -0.000000000000000000, 1.000000000000000000, -0.000000000000000000 ) ) ;
#1370 = DIRECTION ( 'NONE',  ( 0.000000000000000000, 0.000000000000000000, 1.000000000000000000 ) ) ;
#1371 = DIRECTION ( 'NONE',  ( -0.000000000000000000, 1.000000000000000000, -0.000000000000000000 ) ) ;
ENDSEC;
END-ISO-10303-21;
