ISO-10303-21;
HEADER;
FILE_DESCRIPTION (( 'STEP AP214' ),
    '1' );
FILE_NAME ('HEPI-SiO2.STEP',
    '2026-01-09T11:21:24',
    ( '' ),
    ( '' ),
    'SwSTEP 2.0',
    'SolidWorks 2024',
    '' );
FILE_SCHEMA (( 'AUTOMOTIVE_DESIGN' ));
ENDSEC;

DATA;
#1 =( REPRESENTATION_RELATIONSHIP ('NONE','NONE', #106, #20 ) REPRESENTATION_RELATIONSHIP_WITH_TRANSFORMATION ( #135 )SHAPE_REPRESENTATION_RELATIONSHIP( ) );
#2 = DIRECTION ( 'NONE',  ( 1.000000000000000000, 0.000000000000000000, -3.652049423109067827E-16 ) ) ;
#3 = APPLICATION_CONTEXT ( 'automotive_design' ) ;
#4 = APPLIED_DOCUMENT_REFERENCE ( #103,'',( #125) ) ;
#5 = PROPERTY_DEFINITION_REPRESENTATION ( #16, #20 ) ;
#6 = PROPERTY_DEFINITION_REPRESENTATION ( #86, #9 ) ;
#7 = CONTEXT_DEPENDENT_SHAPE_REPRESENTATION ( #24, #148 ) ;
#8 = PRODUCT_DEFINITION_FORMATION_WITH_SPECIFIED_SOURCE ( 'Symmetric', '', #14, .NOT_KNOWN. ) ;
#9 = SHAPE_REPRESENTATION ( 'SiO2+SiPM+PTFE', ( #110 ), #31 ) ;
#10 = EXTERNAL_SOURCE (IDENTIFIER('') ) ;
#11 = PRODUCT_DEFINITION_CONTEXT ( 'detailed design', #147, 'design' ) ;
#12 = DIRECTION ( 'NONE',  ( 0.000000000000000000, 0.000000000000000000, 1.000000000000000000 ) ) ;
#13 =( NAMED_UNIT ( * ) SI_UNIT ( $, .STERADIAN. ) SOLID_ANGLE_UNIT ( ) );
#14 = PRODUCT ( 'SiO2+SiPM+PTFE', 'SiO2+SiPM+PTFE', '', ( #90 ) ) ;
#15 = DOCUMENT_TYPE ( 'geometry' ) ;
#16 = PROPERTY_DEFINITION ('external definition','', #92 ) ;
#17 = CARTESIAN_POINT ( 'NONE',  ( -30.54784762125185793, 9.306306675127208550, 33.81362340733011251 ) ) ;
#18 = DIRECTION ( 'NONE',  ( 0.000000000000000000, 0.000000000000000000, 1.000000000000000000 ) ) ;
#19 = PROPERTY_DEFINITION_REPRESENTATION ( #126, #49 ) ;
#20 = SHAPE_REPRESENTATION ( 'HEPI Housing', ( #37 ), #41 ) ;
#21 = PRODUCT_DEFINITION_CONTEXT ( 'detailed design', #61, 'design' ) ;
#22 = OBJECT_ROLE ('mandatory',$ ) ;
#23 =( LENGTH_UNIT ( ) NAMED_UNIT ( * ) SI_UNIT ( .MILLI., .METRE. ) );
#24 =( REPRESENTATION_RELATIONSHIP ('NONE','NONE', #106, #49 ) REPRESENTATION_RELATIONSHIP_WITH_TRANSFORMATION ( #79 )SHAPE_REPRESENTATION_RELATIONSHIP( ) );
#25 =( LENGTH_UNIT ( ) NAMED_UNIT ( * ) SI_UNIT ( .MILLI., .METRE. ) );
#26 = DIRECTION ( 'NONE',  ( 0.000000000000000000, 0.000000000000000000, 1.000000000000000000 ) ) ;
#27 = PRODUCT_DEFINITION_SHAPE ( 'NONE', 'NONE',  #43 ) ;
#28 = ROLE_ASSOCIATION ( #68, #4 ) ;
#29 = APPLICATION_PROTOCOL_DEFINITION ( 'draft international standard', 'automotive_design', 1998, #30 ) ;
#30 = APPLICATION_CONTEXT ( 'automotive_design' ) ;
#31 =( GEOMETRIC_REPRESENTATION_CONTEXT ( 3 ) GLOBAL_UNCERTAINTY_ASSIGNED_CONTEXT ( ( #138 ) ) GLOBAL_UNIT_ASSIGNED_CONTEXT ( ( #23, #97, #13 ) ) REPRESENTATION_CONTEXT ( 'NONE', 'WORKASPACE' ) );
#32 = PRODUCT ( 'HEPI-SiO2', 'HEPI-SiO2', '', ( #75 ) ) ;
#33 = ROLE_ASSOCIATION ( #22, #88 ) ;
#34 = PRODUCT_DEFINITION_CONTEXT ( 'detailed design', #3, 'design' ) ;
#35 = DOCUMENT_TYPE ( 'geometry' ) ;
#36 = IDENTIFICATION_ROLE ( 'external document id and location', $) ;
#37 = AXIS2_PLACEMENT_3D ( 'NONE', #72, #118, #96 ) ;
#38 = DIRECTION ( 'NONE',  ( 1.000000000000000000, 0.000000000000000000, 0.000000000000000000 ) ) ;
#39 = PRODUCT_DEFINITION_SHAPE ( 'NONE', 'NONE',  #89 ) ;
#40 = APPLICATION_CONTEXT ( 'automotive_design' ) ;
#41 =( GEOMETRIC_REPRESENTATION_CONTEXT ( 3 ) GLOBAL_UNCERTAINTY_ASSIGNED_CONTEXT ( ( #80 ) ) GLOBAL_UNIT_ASSIGNED_CONTEXT ( ( #62, #85, #42 ) ) REPRESENTATION_CONTEXT ( 'NONE', 'WORKASPACE' ) );
#42 =( NAMED_UNIT ( * ) SI_UNIT ( $, .STERADIAN. ) SOLID_ANGLE_UNIT ( ) );
#43 = PRODUCT_DEFINITION ( 'General', '', #57, #34 ) ;
#44 = APPLICATION_PROTOCOL_DEFINITION ( 'draft international standard', 'automotive_design', 1998, #3 ) ;
#45 = PRODUCT_CONTEXT ( 'NONE', #129, 'mechanical' ) ;
#46 =( GEOMETRIC_REPRESENTATION_CONTEXT ( 3 ) GLOBAL_UNCERTAINTY_ASSIGNED_CONTEXT ( ( #116 ) ) GLOBAL_UNIT_ASSIGNED_CONTEXT ( ( #81, #101, #131 ) ) REPRESENTATION_CONTEXT ( 'NONE', 'WORKASPACE' ) );
#47 = CONTEXT_DEPENDENT_SHAPE_REPRESENTATION ( #1, #94 ) ;
#48 = EXTERNAL_SOURCE (IDENTIFIER('') ) ;
#49 = SHAPE_REPRESENTATION ( 'HEPI Housing base', ( #117 ), #145 ) ;
#50 = AXIS2_PLACEMENT_3D ( 'NONE', #17, #121, #2 ) ;
#51 = PRODUCT_RELATED_PRODUCT_CATEGORY ( 'part', '', ( #60 ) ) ;
#52 = CONTEXT_DEPENDENT_SHAPE_REPRESENTATION ( #123, #100 ) ;
#53 = AXIS2_PLACEMENT_3D ( 'NONE', #98, #122, #99 ) ;
#54 = OBJECT_ROLE ('mandatory',$ ) ;
#55 = DIRECTION ( 'NONE',  ( 1.000000000000000000, 0.000000000000000000, 0.000000000000000000 ) ) ;
#56 = DOCUMENT_FILE ( 'HEPI Housing base.STEP' , '', '', #35, '' ,$ ) ;
#57 = PRODUCT_DEFINITION_FORMATION_WITH_SPECIFIED_SOURCE ( 'Symmetric', '', #93, .NOT_KNOWN. ) ;
#58 = IDENTIFICATION_ROLE ( 'external document id and location', $) ;
#59 =( NAMED_UNIT ( * ) SI_UNIT ( $, .STERADIAN. ) SOLID_ANGLE_UNIT ( ) );
#60 = PRODUCT ( 'HEPI Housing', 'HEPI Housing', '', ( #45 ) ) ;
#61 = APPLICATION_CONTEXT ( 'automotive_design' ) ;
#62 =( LENGTH_UNIT ( ) NAMED_UNIT ( * ) SI_UNIT ( .MILLI., .METRE. ) );
#63 = AXIS2_PLACEMENT_3D ( 'NONE', #78, #18, #55 ) ;
#64 = ITEM_DEFINED_TRANSFORMATION ( 'NONE', 'NONE', #50,  #110 ) ;
#65 = APPLICATION_PROTOCOL_DEFINITION ( 'draft international standard', 'automotive_design', 1998, #61 ) ;
#66 = SHAPE_DEFINITION_REPRESENTATION ( #137, #106 ) ;
#67 = APPLICATION_PROTOCOL_DEFINITION ( 'draft international standard', 'automotive_design', 1998, #129 ) ;
#68 = OBJECT_ROLE ('mandatory',$ ) ;
#69 = APPLIED_EXTERNAL_IDENTIFICATION_ASSIGNMENT ( 'HEPI Housing base.STEP' , #36, #104,( #56) ) ;
#70 = PRODUCT_RELATED_PRODUCT_CATEGORY ( 'part', '', ( #14 ) ) ;
#71 = AXIS2_PLACEMENT_3D ( 'NONE', #141, #111, #124 ) ;
#72 = CARTESIAN_POINT ( 'NONE',  ( 0.000000000000000000, 0.000000000000000000, 0.000000000000000000 ) ) ;
#73 = CARTESIAN_POINT ( 'NONE',  ( 0.000000000000000000, 0.000000000000000000, 0.000000000000000000 ) ) ;
#74 = IDENTIFICATION_ROLE ( 'external document id and location', $) ;
#75 = PRODUCT_CONTEXT ( 'NONE', #119, 'mechanical' ) ;
#76 = PROPERTY_DEFINITION ('document property','', #92 ) ;
#77 = PRODUCT_DEFINITION_FORMATION_WITH_SPECIFIED_SOURCE ( 'Symmetric', '', #32, .NOT_KNOWN. ) ;
#78 = CARTESIAN_POINT ( 'NONE',  ( 0.000000000000000000, 0.000000000000000000, 0.000000000000000000 ) ) ;
#79 = ITEM_DEFINED_TRANSFORMATION ( 'NONE', 'NONE', #71,  #117 ) ;
#80 = UNCERTAINTY_MEASURE_WITH_UNIT (LENGTH_MEASURE( 1.000000000000000082E-05 ), #62, 'distance_accuracy_value', 'NONE');
#81 =( LENGTH_UNIT ( ) NAMED_UNIT ( * ) SI_UNIT ( .MILLI., .METRE. ) );
#82 = ROLE_ASSOCIATION ( #54, #91 ) ;
#83 = PRODUCT_RELATED_PRODUCT_CATEGORY ( 'part', '', ( #93 ) ) ;
#84 = DIRECTION ( 'NONE',  ( 1.000000000000000000, 0.000000000000000000, 0.000000000000000000 ) ) ;
#85 =( NAMED_UNIT ( * ) PLANE_ANGLE_UNIT ( ) SI_UNIT ( $, .RADIAN. ) );
#86 = PROPERTY_DEFINITION ('document property','', #103 ) ;
#87 = PRODUCT_CONTEXT ( 'NONE', #40, 'mechanical' ) ;
#88 = APPLIED_DOCUMENT_REFERENCE ( #92,'',( #89) ) ;
#89 = PRODUCT_DEFINITION ( 'General', '', #140, #139 ) ;
#90 = PRODUCT_CONTEXT ( 'NONE', #30, 'mechanical' ) ;
#91 = APPLIED_DOCUMENT_REFERENCE ( #56,'',( #43) ) ;
#92 = DOCUMENT_FILE ( 'HEPI Housing.STEP' , '', '', #15, '' ,$ ) ;
#93 = PRODUCT ( 'HEPI Housing base', 'HEPI Housing base', '', ( #87 ) ) ;
#94 = PRODUCT_DEFINITION_SHAPE ( 'NONE', 'NONE',  #150 ) ;
#95 =( NAMED_UNIT ( * ) PLANE_ANGLE_UNIT ( ) SI_UNIT ( $, .RADIAN. ) );
#96 = DIRECTION ( 'NONE',  ( 1.000000000000000000, 0.000000000000000000, 0.000000000000000000 ) ) ;
#97 =( NAMED_UNIT ( * ) PLANE_ANGLE_UNIT ( ) SI_UNIT ( $, .RADIAN. ) );
#98 = CARTESIAN_POINT ( 'NONE',  ( -19.97434152639470639, -0.8418290610425175347, 30.37057002075016499 ) ) ;
#99 = DIRECTION ( 'NONE',  ( 1.000000000000000000, 0.000000000000000000, 0.000000000000000000 ) ) ;
#100 = PRODUCT_DEFINITION_SHAPE ( 'NONE', 'NONE',  #149 ) ;
#101 =( NAMED_UNIT ( * ) PLANE_ANGLE_UNIT ( ) SI_UNIT ( $, .RADIAN. ) );
#102 = PROPERTY_DEFINITION_REPRESENTATION ( #105, #49 ) ;
#103 = DOCUMENT_FILE ( 'SiO2+SiPM+PTFE.STEP' , '', '', #134, '' ,$ ) ;
#104 = EXTERNAL_SOURCE (IDENTIFIER('') ) ;
#105 = PROPERTY_DEFINITION ('document property','', #56 ) ;
#106 = SHAPE_REPRESENTATION ( 'HEPI-SiO2', ( #63, #50, #53, #71 ), #46 ) ;
#107 = APPLIED_EXTERNAL_IDENTIFICATION_ASSIGNMENT ( 'HEPI Housing.STEP' , #58, #10,( #92) ) ;
#108 = APPLICATION_PROTOCOL_DEFINITION ( 'draft international standard', 'automotive_design', 1998, #119 ) ;
#109 = APPLICATION_PROTOCOL_DEFINITION ( 'draft international standard', 'automotive_design', 1998, #147 ) ;
#110 = AXIS2_PLACEMENT_3D ( 'NONE', #73, #12, #38 ) ;
#111 = DIRECTION ( 'NONE',  ( 0.000000000000000000, 0.000000000000000000, 1.000000000000000000 ) ) ;
#112 = PROPERTY_DEFINITION_REPRESENTATION ( #115, #9 ) ;
#113 = PROPERTY_DEFINITION_REPRESENTATION ( #76, #20 ) ;
#114 = APPLIED_EXTERNAL_IDENTIFICATION_ASSIGNMENT ( 'SiO2+SiPM+PTFE.STEP' , #74, #48,( #103) ) ;
#115 = PROPERTY_DEFINITION ('external definition','', #103 ) ;
#116 = UNCERTAINTY_MEASURE_WITH_UNIT (LENGTH_MEASURE( 1.000000000000000082E-05 ), #81, 'distance_accuracy_value', 'NONE');
#117 = AXIS2_PLACEMENT_3D ( 'NONE', #130, #26, #84 ) ;
#118 = DIRECTION ( 'NONE',  ( 0.000000000000000000, 0.000000000000000000, 1.000000000000000000 ) ) ;
#119 = APPLICATION_CONTEXT ( 'automotive_design' ) ;
#120 = PRODUCT_DEFINITION_SHAPE ( 'NONE', 'NONE',  #125 ) ;
#121 = DIRECTION ( 'NONE',  ( -3.652049423109067827E-16, 0.000000000000000000, -1.000000000000000000 ) ) ;
#122 = DIRECTION ( 'NONE',  ( 0.000000000000000000, 0.000000000000000000, 1.000000000000000000 ) ) ;
#123 =( REPRESENTATION_RELATIONSHIP ('NONE','NONE', #106, #9 ) REPRESENTATION_RELATIONSHIP_WITH_TRANSFORMATION ( #64 )SHAPE_REPRESENTATION_RELATIONSHIP( ) );
#124 = DIRECTION ( 'NONE',  ( 1.000000000000000000, 0.000000000000000000, 0.000000000000000000 ) ) ;
#125 = PRODUCT_DEFINITION ( 'General', '', #8, #21 ) ;
#126 = PROPERTY_DEFINITION ('external definition','', #56 ) ;
#127 = UNCERTAINTY_MEASURE_WITH_UNIT (LENGTH_MEASURE( 1.000000000000000082E-05 ), #25, 'distance_accuracy_value', 'NONE');
#128 = APPLICATION_CONTEXT ( 'automotive_design' ) ;
#129 = APPLICATION_CONTEXT ( 'automotive_design' ) ;
#130 = CARTESIAN_POINT ( 'NONE',  ( 0.000000000000000000, 0.000000000000000000, 0.000000000000000000 ) ) ;
#131 =( NAMED_UNIT ( * ) SI_UNIT ( $, .STERADIAN. ) SOLID_ANGLE_UNIT ( ) );
#132 = SHAPE_DEFINITION_REPRESENTATION ( #39, #20 ) ;
#133 = SHAPE_DEFINITION_REPRESENTATION ( #120, #9 ) ;
#134 = DOCUMENT_TYPE ( 'geometry' ) ;
#135 = ITEM_DEFINED_TRANSFORMATION ( 'NONE', 'NONE', #53,  #37 ) ;
#136 = SHAPE_DEFINITION_REPRESENTATION ( #27, #49 ) ;
#137 = PRODUCT_DEFINITION_SHAPE ( 'NONE', 'NONE',  #146 ) ;
#138 = UNCERTAINTY_MEASURE_WITH_UNIT (LENGTH_MEASURE( 1.000000000000000082E-05 ), #23, 'distance_accuracy_value', 'NONE');
#139 = PRODUCT_DEFINITION_CONTEXT ( 'detailed design', #128, 'design' ) ;
#140 = PRODUCT_DEFINITION_FORMATION_WITH_SPECIFIED_SOURCE ( 'Symmetric', '', #60, .NOT_KNOWN. ) ;
#141 = CARTESIAN_POINT ( 'NONE',  ( -19.97434152639470639, 6.658170938957482576, 30.37057002075016499 ) ) ;
#142 = PRODUCT_RELATED_PRODUCT_CATEGORY ( 'part', '', ( #32 ) ) ;
#143 = APPLICATION_PROTOCOL_DEFINITION ( 'draft international standard', 'automotive_design', 1998, #128 ) ;
#144 = APPLICATION_PROTOCOL_DEFINITION ( 'draft international standard', 'automotive_design', 1998, #40 ) ;
#145 =( GEOMETRIC_REPRESENTATION_CONTEXT ( 3 ) GLOBAL_UNCERTAINTY_ASSIGNED_CONTEXT ( ( #127 ) ) GLOBAL_UNIT_ASSIGNED_CONTEXT ( ( #25, #95, #59 ) ) REPRESENTATION_CONTEXT ( 'NONE', 'WORKASPACE' ) );
#146 = PRODUCT_DEFINITION ( 'General', '', #77, #11 ) ;
#147 = APPLICATION_CONTEXT ( 'automotive_design' ) ;
#148 = PRODUCT_DEFINITION_SHAPE ( 'NONE', 'NONE',  #151 ) ;
#149 = NEXT_ASSEMBLY_USAGE_OCCURRENCE ( 'NAUO7', ' ', ' ', #146, #125, $ ) ;
#150 = NEXT_ASSEMBLY_USAGE_OCCURRENCE ( 'NAUO8', ' ', ' ', #146, #89, $ ) ;
#151 = NEXT_ASSEMBLY_USAGE_OCCURRENCE ( 'NAUO9', ' ', ' ', #146, #43, $ ) ;
ENDSEC;
END-ISO-10303-21;
