ISO-10303-21;
HEADER;
FILE_DESCRIPTION (( 'STEP AP214' ),
    '1' );
FILE_NAME ('PTFE Wrap.STEP',
    '2026-01-09T11:21:24',
    ( '' ),
    ( '' ),
    'SwSTEP 2.0',
    'SolidWorks 2024',
    '' );
FILE_SCHEMA (( 'AUTOMOTIVE_DESIGN' ));
ENDSEC;

DATA;
#1 = CARTESIAN_POINT ( 'NONE',  ( -9.250000000000001776, 3.249999999999999556, -18.50000000000000000 ) ) ;
#2 = ADVANCED_FACE ( 'NONE', ( #145 ), #505, .T. ) ;
#3 = CARTESIAN_POINT ( 'NONE',  ( 9.499999999999998224, 3.249999999999999556, -18.25000000000000000 ) ) ;
#4 = VECTOR ( 'NONE', #421, 1000.000000000000000 ) ;
#5 = CARTESIAN_POINT ( 'NONE',  ( -9.250000000000001776, 3.249999999999999556, -18.50000000000000000 ) ) ;
#6 = EDGE_LOOP ( 'NONE', ( #20, #223, #885 ) ) ;
#7 = DIRECTION ( 'NONE',  ( 0.000000000000000000, 0.000000000000000000, 1.000000000000000000 ) ) ;
#8 = AXIS2_PLACEMENT_3D ( 'NONE', #766, #18, #353 ) ;
#9 = FACE_OUTER_BOUND ( 'NONE', #639, .T. ) ;
#10 = FACE_OUTER_BOUND ( 'NONE', #1078, .T. ) ;
#11 = EDGE_LOOP ( 'NONE', ( #550, #958, #498, #143 ) ) ;
#12 = DIRECTION ( 'NONE',  ( -0.000000000000000000, -0.000000000000000000, -1.000000000000000000 ) ) ;
#13 = ADVANCED_FACE ( 'NONE', ( #312 ), #329, .F. ) ;
#14 = FACE_OUTER_BOUND ( 'NONE', #489, .T. ) ;
#15 = DIRECTION ( 'NONE',  ( -0.000000000000000000, 0.000000000000000000, -1.000000000000000000 ) ) ;
#16 = ORIENTED_EDGE ( 'NONE', *, *, #581, .T. ) ;
#17 = EDGE_CURVE ( 'NONE', #901, #927, #736, .T. ) ;
#18 = DIRECTION ( 'NONE',  ( 1.000000000000000000, 0.000000000000000000, 0.000000000000000000 ) ) ;
#19 = AXIS2_PLACEMENT_3D ( 'NONE', #174, #280, #531 ) ;
#20 = ORIENTED_EDGE ( 'NONE', *, *, #245, .T. ) ;
#21 = EDGE_CURVE ( 'NONE', #433, #300, #770, .T. ) ;
#22 = LINE ( 'NONE', #185, #306 ) ;
#23 = AXIS2_PLACEMENT_3D ( 'NONE', #690, #442, #178 ) ;
#24 = AXIS2_PLACEMENT_3D ( 'NONE', #342, #424, #853 ) ;
#25 = DIRECTION ( 'NONE',  ( 0.000000000000000000, -1.000000000000000000, 0.000000000000000000 ) ) ;
#26 = VERTEX_POINT ( 'NONE', #662 ) ;
#27 = CARTESIAN_POINT ( 'NONE',  ( 9.249999999999998224, -3.249999999999999556, -18.25000000000000000 ) ) ;
#28 = EDGE_CURVE ( 'NONE', #130, #988, #64, .T. ) ;
#29 = DIRECTION ( 'NONE',  ( -0.000000000000000000, 0.000000000000000000, 1.000000000000000000 ) ) ;
#30 = EDGE_LOOP ( 'NONE', ( #634, #602, #469, #208, #693, #75, #571, #716 ) ) ;
#31 = LINE ( 'NONE', #200, #936 ) ;
#32 = EDGE_CURVE ( 'NONE', #114, #334, #323, .T. ) ;
#33 = PLANE ( 'NONE',  #878 ) ;
#34 = EDGE_LOOP ( 'NONE', ( #763, #970, #529 ) ) ;
#35 = ORIENTED_EDGE ( 'NONE', *, *, #420, .F. ) ;
#36 = LINE ( 'NONE', #451, #144 ) ;
#37 = AXIS2_PLACEMENT_3D ( 'NONE', #1006, #758, #260 ) ;
#38 = LINE ( 'NONE', #1045, #1036 ) ;
#39 = AXIS2_PLACEMENT_3D ( 'NONE', #435, #351, #764 ) ;
#40 = VERTEX_POINT ( 'NONE', #335 ) ;
#41 = ORIENTED_EDGE ( 'NONE', *, *, #216, .F. ) ;
#42 = LINE ( 'NONE', #711, #359 ) ;
#43 = DIRECTION ( 'NONE',  ( 0.000000000000000000, 0.000000000000000000, -1.000000000000000000 ) ) ;
#44 = ORIENTED_EDGE ( 'NONE', *, *, #45, .T. ) ;
#45 = EDGE_CURVE ( 'NONE', #1063, #114, #402, .T. ) ;
#46 = LINE ( 'NONE', #797, #322 ) ;
#47 = CARTESIAN_POINT ( 'NONE',  ( -9.500000000000001776, -3.499999999999999556, -18.25000000000000000 ) ) ;
#48 = ORIENTED_EDGE ( 'NONE', *, *, #871, .F. ) ;
#49 = EDGE_LOOP ( 'NONE', ( #597, #240, #131, #97, #364, #219, #866, #470 ) ) ;
#50 = LINE ( 'NONE', #115, #1038 ) ;
#51 = CLOSED_SHELL ( 'NONE', ( #537, #1043, #928, #377, #149, #187, #872, #544, #325, #222, #305, #1062, #199, #1021, #620, #13, #984, #428, #829, #441, #108, #2, #166, #279, #695, #1031, #471, #677, #708, #952, #261, #486, #665, #400, #60, #604, #940, #129, #228, #348 ) ) ;
#52 = AXIS2_PLACEMENT_3D ( 'NONE', #453, #548, #780 ) ;
#53 = CARTESIAN_POINT ( 'NONE',  ( 6.769999999999996909, 3.249999999999999556, 0.2500000000000000000 ) ) ;
#54 = ORIENTED_EDGE ( 'NONE', *, *, #211, .T. ) ;
#55 = VECTOR ( 'NONE', #194, 1000.000000000000000 ) ;
#56 = ORIENTED_EDGE ( 'NONE', *, *, #960, .F. ) ;
#57 =( GEOMETRIC_REPRESENTATION_CONTEXT ( 3 ) GLOBAL_UNCERTAINTY_ASSIGNED_CONTEXT ( ( #155 ) ) GLOBAL_UNIT_ASSIGNED_CONTEXT ( ( #439, #596, #857 ) ) REPRESENTATION_CONTEXT ( 'NONE', 'WORKASPACE' ) );
#58 = FACE_OUTER_BOUND ( 'NONE', #151, .T. ) ;
#59 = DIRECTION ( 'NONE',  ( -0.000000000000000000, -1.000000000000000000, -0.000000000000000000 ) ) ;
#60 = ADVANCED_FACE ( 'NONE', ( #589 ), #922, .T. ) ;
#61 = EDGE_CURVE ( 'NONE', #709, #743, #715, .T. ) ;
#62 = CARTESIAN_POINT ( 'NONE',  ( -6.770000000000003126, -3.000000000000000444, 0.000000000000000000 ) ) ;
#63 = VERTEX_POINT ( 'NONE', #1058 ) ;
#64 = LINE ( 'NONE', #833, #877 ) ;
#65 = DIRECTION ( 'NONE',  ( -1.000000000000000000, -0.000000000000000000, -0.000000000000000000 ) ) ;
#66 = DIRECTION ( 'NONE',  ( 0.000000000000000000, 0.000000000000000000, 1.000000000000000000 ) ) ;
#67 = LINE ( 'NONE', #977, #800 ) ;
#68 = VERTEX_POINT ( 'NONE', #495 ) ;
#69 = VERTEX_POINT ( 'NONE', #241 ) ;
#70 = CARTESIAN_POINT ( 'NONE',  ( -9.000000000000000000, 2.999999999999999556, -18.00000000000000000 ) ) ;
#71 = CARTESIAN_POINT ( 'NONE',  ( -6.770000000000003126, 3.500000000000000888, 0.000000000000000000 ) ) ;
#72 = VECTOR ( 'NONE', #235, 1000.000000000000000 ) ;
#73 = VECTOR ( 'NONE', #1060, 1000.000000000000000 ) ;
#74 = DIRECTION ( 'NONE',  ( 0.000000000000000000, 0.000000000000000000, 1.000000000000000000 ) ) ;
#75 = ORIENTED_EDGE ( 'NONE', *, *, #179, .T. ) ;
#76 = EDGE_CURVE ( 'NONE', #376, #782, #584, .T. ) ;
#77 = CARTESIAN_POINT ( 'NONE',  ( 9.249999999999998224, 3.249999999999999556, -18.25000000000000000 ) ) ;
#78 = LINE ( 'NONE', #511, #146 ) ;
#79 = ORIENTED_EDGE ( 'NONE', *, *, #385, .F. ) ;
#80 = AXIS2_PLACEMENT_3D ( 'NONE', #566, #414, #491 ) ;
#81 = CARTESIAN_POINT ( 'NONE',  ( -9.250000000000001776, 3.499999999999999556, -18.50000000000000000 ) ) ;
#82 = DIRECTION ( 'NONE',  ( 0.000000000000000000, -1.000000000000000000, 0.000000000000000000 ) ) ;
#83 = EDGE_LOOP ( 'NONE', ( #352, #227, #748, #213 ) ) ;
#84 = CARTESIAN_POINT ( 'NONE',  ( -6.770000000000003126, 3.500000000000000888, 0.000000000000000000 ) ) ;
#85 = LINE ( 'NONE', #657, #449 ) ;
#86 = EDGE_CURVE ( 'NONE', #1071, #300, #915, .T. ) ;
#87 = DIRECTION ( 'NONE',  ( -1.000000000000000000, 0.000000000000000000, 0.000000000000000000 ) ) ;
#88 = CARTESIAN_POINT ( 'NONE',  ( -6.770000000000003126, 3.500000000000000888, 0.000000000000000000 ) ) ;
#89 = DIRECTION ( 'NONE',  ( 1.000000000000000000, 0.000000000000000000, 0.000000000000000000 ) ) ;
#90 = CARTESIAN_POINT ( 'NONE',  ( -9.000000000000000000, -3.000000000000000444, 0.000000000000000000 ) ) ;
#91 = VERTEX_POINT ( 'NONE', #84 ) ;
#92 = FACE_OUTER_BOUND ( 'NONE', #643, .T. ) ;
#93 = DIRECTION ( 'NONE',  ( -1.239088197126290817E-16, 1.000000000000000000, -0.000000000000000000 ) ) ;
#94 = AXIS2_PLACEMENT_3D ( 'NONE', #941, #536, #611 ) ;
#95 = VECTOR ( 'NONE', #967, 1000.000000000000000 ) ;
#96 = CARTESIAN_POINT ( 'NONE',  ( -6.770000000000002238, -3.249999999999999556, 0.2500000000000000000 ) ) ;
#97 = ORIENTED_EDGE ( 'NONE', *, *, #338, .T. ) ;
#98 = EDGE_CURVE ( 'NONE', #433, #290, #255, .T. ) ;
#99 = LINE ( 'NONE', #587, #1002 ) ;
#100 = EDGE_CURVE ( 'NONE', #889, #1042, #347, .T. ) ;
#101 = DIRECTION ( 'NONE',  ( -0.000000000000000000, 1.000000000000000000, 0.000000000000000000 ) ) ;
#102 = ORIENTED_EDGE ( 'NONE', *, *, #528, .T. ) ;
#103 = DIRECTION ( 'NONE',  ( 0.000000000000000000, 0.000000000000000000, -1.000000000000000000 ) ) ;
#104 = PRESENTATION_STYLE_ASSIGNMENT (( #188 ) ) ;
#105 = CARTESIAN_POINT ( 'NONE',  ( 0.000000000000000000, 0.000000000000000000, 0.000000000000000000 ) ) ;
#106 = ORIENTED_EDGE ( 'NONE', *, *, #981, .T. ) ;
#107 = DIRECTION ( 'NONE',  ( -0.000000000000000000, 1.000000000000000000, -0.000000000000000000 ) ) ;
#108 = ADVANCED_FACE ( 'NONE', ( #10 ), #275, .T. ) ;
#109 = EDGE_LOOP ( 'NONE', ( #542, #1019, #813, #808 ) ) ;
#110 = DIRECTION ( 'NONE',  ( 1.000000000000000000, 1.239088197126291063E-16, 0.000000000000000000 ) ) ;
#111 = VECTOR ( 'NONE', #568, 1000.000000000000000 ) ;
#112 = VECTOR ( 'NONE', #175, 1000.000000000000000 ) ;
#113 = DIRECTION ( 'NONE',  ( -1.000000000000000000, -0.000000000000000000, -0.000000000000000000 ) ) ;
#114 = VERTEX_POINT ( 'NONE', #615 ) ;
#115 = CARTESIAN_POINT ( 'NONE',  ( 6.769999999999996909, 3.500000000000000888, 0.000000000000000000 ) ) ;
#116 = EDGE_CURVE ( 'NONE', #655, #955, #595, .T. ) ;
#117 = DIRECTION ( 'NONE',  ( 1.000000000000000000, 0.000000000000000000, 0.000000000000000000 ) ) ;
#118 = ORIENTED_EDGE ( 'NONE', *, *, #98, .T. ) ;
#119 = LINE ( 'NONE', #783, #636 ) ;
#120 = UNCERTAINTY_MEASURE_WITH_UNIT (LENGTH_MEASURE( 1.000000000000000082E-05 ), #925, 'distance_accuracy_value', 'NONE');
#121 = DIRECTION ( 'NONE',  ( 1.000000000000000000, 0.000000000000000000, 0.000000000000000000 ) ) ;
#122 = VERTEX_POINT ( 'NONE', #195 ) ;
#123 = EDGE_LOOP ( 'NONE', ( #137, #612, #644, #395 ) ) ;
#124 = AXIS2_PLACEMENT_3D ( 'NONE', #510, #1064, #483 ) ;
#125 = DIRECTION ( 'NONE',  ( -0.000000000000000000, 0.000000000000000000, -1.000000000000000000 ) ) ;
#126 = CIRCLE ( 'NONE', #605, 0.2500000000000000000 ) ;
#127 = DIRECTION ( 'NONE',  ( -0.000000000000000000, 0.000000000000000000, 1.000000000000000000 ) ) ;
#128 = AXIS2_PLACEMENT_3D ( 'NONE', #1044, #297, #803 ) ;
#129 = ADVANCED_FACE ( 'NONE', ( #522 ), #192, .T. ) ;
#130 = VERTEX_POINT ( 'NONE', #182 ) ;
#131 = ORIENTED_EDGE ( 'NONE', *, *, #891, .T. ) ;
#132 = CARTESIAN_POINT ( 'NONE',  ( 6.769999999999996909, 3.500000000000000888, 0.5000000000000000000 ) ) ;
#133 = SPHERICAL_SURFACE ( 'NONE', #52, 0.2500000000000000000 ) ;
#134 = VERTEX_POINT ( 'NONE', #856 ) ;
#135 = CARTESIAN_POINT ( 'NONE',  ( 9.249999999999998224, 3.499999999999999556, 0.2500000000000000000 ) ) ;
#136 = DIRECTION ( 'NONE',  ( 0.000000000000000000, 0.000000000000000000, 1.000000000000000000 ) ) ;
#137 = ORIENTED_EDGE ( 'NONE', *, *, #680, .T. ) ;
#138 = EDGE_CURVE ( 'NONE', #1033, #433, #600, .T. ) ;
#139 = LINE ( 'NONE', #331, #761 ) ;
#140 = CARTESIAN_POINT ( 'NONE',  ( -9.250000000000001776, 3.499999999999999556, -18.50000000000000000 ) ) ;
#141 = CIRCLE ( 'NONE', #270, 0.2500000000000002220 ) ;
#142 = CARTESIAN_POINT ( 'NONE',  ( -9.500000000000001776, 3.499999999999999556, 0.2500000000000002220 ) ) ;
#143 = ORIENTED_EDGE ( 'NONE', *, *, #993, .F. ) ;
#144 = VECTOR ( 'NONE', #627, 1000.000000000000000 ) ;
#145 = FACE_OUTER_BOUND ( 'NONE', #913, .T. ) ;
#146 = VECTOR ( 'NONE', #682, 1000.000000000000000 ) ;
#147 = DIRECTION ( 'NONE',  ( 1.000000000000000000, 0.000000000000000000, 0.000000000000000000 ) ) ;
#148 = CARTESIAN_POINT ( 'NONE',  ( -6.770000000000003126, 3.500000000000000888, 0.000000000000000000 ) ) ;
#149 = ADVANCED_FACE ( 'NONE', ( #14 ), #1017, .T. ) ;
#150 = DIRECTION ( 'NONE',  ( -0.000000000000000000, 1.000000000000000000, -0.000000000000000000 ) ) ;
#151 = EDGE_LOOP ( 'NONE', ( #372, #281, #375, #48, #56, #963 ) ) ;
#152 = DIRECTION ( 'NONE',  ( 0.000000000000000000, 0.000000000000000000, 1.000000000000000000 ) ) ;
#153 = FACE_OUTER_BOUND ( 'NONE', #476, .T. ) ;
#154 = CARTESIAN_POINT ( 'NONE',  ( 9.249999999999998224, 3.499999999999999556, -18.25000000000000000 ) ) ;
#155 = UNCERTAINTY_MEASURE_WITH_UNIT (LENGTH_MEASURE( 1.000000000000000082E-05 ), #439, 'distance_accuracy_value', 'NONE');
#156 = DIRECTION ( 'NONE',  ( 0.000000000000000000, 1.000000000000000000, 0.000000000000000000 ) ) ;
#157 = EDGE_LOOP ( 'NONE', ( #792, #1052, #214 ) ) ;
#158 = ORIENTED_EDGE ( 'NONE', *, *, #760, .F. ) ;
#159 = DIRECTION ( 'NONE',  ( -1.000000000000000000, 0.000000000000000000, 0.000000000000000000 ) ) ;
#160 = PLANE ( 'NONE',  #685 ) ;
#161 = AXIS2_PLACEMENT_3D ( 'NONE', #649, #980, #572 ) ;
#162 = VECTOR ( 'NONE', #751, 1000.000000000000000 ) ;
#163 = DIRECTION ( 'NONE',  ( 0.000000000000000000, 0.000000000000000000, -1.000000000000000000 ) ) ;
#164 = EDGE_LOOP ( 'NONE', ( #765, #742, #835, #874, #291, #410, #816, #450 ) ) ;
#165 = DIRECTION ( 'NONE',  ( -0.000000000000000000, -0.000000000000000000, 1.000000000000000000 ) ) ;
#166 = ADVANCED_FACE ( 'NONE', ( #271 ), #516, .T. ) ;
#167 = DIRECTION ( 'NONE',  ( 0.000000000000000000, 1.000000000000000000, 0.000000000000000000 ) ) ;
#168 = AXIS2_PLACEMENT_3D ( 'NONE', #585, #507, #892 ) ;
#169 = DIRECTION ( 'NONE',  ( 1.000000000000000000, -0.000000000000000000, -0.000000000000000000 ) ) ;
#170 = PLANE ( 'NONE',  #383 ) ;
#171 = DIRECTION ( 'NONE',  ( 1.239088197126290817E-16, -1.000000000000000000, 0.000000000000000000 ) ) ;
#172 = CARTESIAN_POINT ( 'NONE',  ( 9.249999999999998224, 3.249999999999999556, -18.25000000000000000 ) ) ;
#173 = DIRECTION ( 'NONE',  ( 0.000000000000000000, 0.000000000000000000, -1.000000000000000000 ) ) ;
#174 = CARTESIAN_POINT ( 'NONE',  ( 9.249999999999998224, -3.249999999999999556, 0.2500000000000000000 ) ) ;
#175 = DIRECTION ( 'NONE',  ( 1.000000000000000000, 0.000000000000000000, 0.000000000000000000 ) ) ;
#176 = ORIENTED_EDGE ( 'NONE', *, *, #100, .T. ) ;
#177 = EDGE_CURVE ( 'NONE', #988, #782, #860, .T. ) ;
#178 = DIRECTION ( 'NONE',  ( -1.000000000000000000, 0.000000000000000000, 0.000000000000000000 ) ) ;
#179 = EDGE_CURVE ( 'NONE', #494, #69, #430, .T. ) ;
#180 = CARTESIAN_POINT ( 'NONE',  ( -6.770000000000003126, 2.999999999999999556, 0.000000000000000000 ) ) ;
#181 = CIRCLE ( 'NONE', #784, 0.2500000000000000000 ) ;
#182 = CARTESIAN_POINT ( 'NONE',  ( -6.770000000000003126, 3.249999999999999556, 0.5000000000000000000 ) ) ;
#183 = MANIFOLD_SOLID_BREP ( 'Fillet1', #51 ) ;
#184 = EDGE_LOOP ( 'NONE', ( #44, #616, #79, #698 ) ) ;
#185 = CARTESIAN_POINT ( 'NONE',  ( -6.770000000000003126, 3.500000000000000888, 0.000000000000000000 ) ) ;
#186 = AXIS2_PLACEMENT_3D ( 'NONE', #629, #867, #870 ) ;
#187 = ADVANCED_FACE ( 'NONE', ( #637 ), #438, .F. ) ;
#188 = SURFACE_STYLE_USAGE ( .BOTH. , #752 ) ;
#189 = ORIENTED_EDGE ( 'NONE', *, *, #823, .F. ) ;
#190 = DIRECTION ( 'NONE',  ( 0.000000000000000000, 0.000000000000000000, -1.000000000000000000 ) ) ;
#191 = EDGE_CURVE ( 'NONE', #300, #889, #868, .T. ) ;
#192 = SPHERICAL_SURFACE ( 'NONE', #94, 0.2500000000000000000 ) ;
#193 = EDGE_LOOP ( 'NONE', ( #247, #482, #460, #774 ) ) ;
#194 = DIRECTION ( 'NONE',  ( -0.000000000000000000, 1.000000000000000000, -0.000000000000000000 ) ) ;
#195 = CARTESIAN_POINT ( 'NONE',  ( -9.250000000000001776, -3.249999999999999556, 0.5000000000000000000 ) ) ;
#196 = COLOUR_RGB ( '',1.000000000000000000, 1.000000000000000000, 1.000000000000000000 ) ;
#197 = VECTOR ( 'NONE', #299, 1000.000000000000000 ) ;
#198 = ORIENTED_EDGE ( 'NONE', *, *, #1080, .F. ) ;
#199 = ADVANCED_FACE ( 'NONE', ( #463 ), #696, .T. ) ;
#200 = CARTESIAN_POINT ( 'NONE',  ( -9.000000000000000000, 2.999999999999999556, -18.00000000000000000 ) ) ;
#201 = AXIS2_PLACEMENT_3D ( 'NONE', #1068, #169, #66 ) ;
#202 = CARTESIAN_POINT ( 'NONE',  ( -9.250000000000001776, 3.249999999999999556, -18.25000000000000000 ) ) ;
#203 = EDGE_LOOP ( 'NONE', ( #371, #973, #945, #391 ) ) ;
#204 = EDGE_LOOP ( 'NONE', ( #942, #382, #1025, #425 ) ) ;
#205 = EDGE_CURVE ( 'NONE', #563, #26, #126, .T. ) ;
#206 = DIRECTION ( 'NONE',  ( -1.000000000000000000, -0.000000000000000000, -0.000000000000000000 ) ) ;
#207 = EDGE_LOOP ( 'NONE', ( #362, #380, #704, #933 ) ) ;
#208 = ORIENTED_EDGE ( 'NONE', *, *, #949, .T. ) ;
#209 = CARTESIAN_POINT ( 'NONE',  ( 9.249999999999998224, -3.249999999999999556, -18.50000000000000000 ) ) ;
#210 = EDGE_CURVE ( 'NONE', #525, #390, #863, .T. ) ;
#211 = EDGE_CURVE ( 'NONE', #955, #518, #873, .T. ) ;
#212 = DIRECTION ( 'NONE',  ( 1.000000000000000000, 0.000000000000000000, 0.000000000000000000 ) ) ;
#213 = ORIENTED_EDGE ( 'NONE', *, *, #904, .T. ) ;
#214 = ORIENTED_EDGE ( 'NONE', *, *, #786, .F. ) ;
#215 = CARTESIAN_POINT ( 'NONE',  ( 9.249999999999998224, 3.249999999999999556, -18.25000000000000000 ) ) ;
#216 = EDGE_CURVE ( 'NONE', #782, #709, #38, .T. ) ;
#217 = VECTOR ( 'NONE', #12, 1000.000000000000000 ) ;
#218 = AXIS2_PLACEMENT_3D ( 'NONE', #810, #663, #318 ) ;
#219 = ORIENTED_EDGE ( 'NONE', *, *, #452, .F. ) ;
#220 = DIRECTION ( 'NONE',  ( -1.000000000000000000, -0.000000000000000000, -0.000000000000000000 ) ) ;
#221 = CARTESIAN_POINT ( 'NONE',  ( 0.000000000000000000, 0.000000000000000000, -18.00000000000000000 ) ) ;
#222 = ADVANCED_FACE ( 'NONE', ( #553 ), #33, .F. ) ;
#223 = ORIENTED_EDGE ( 'NONE', *, *, #671, .T. ) ;
#224 = FACE_OUTER_BOUND ( 'NONE', #30, .T. ) ;
#225 = DIRECTION ( 'NONE',  ( 1.000000000000000000, -0.000000000000000000, 0.000000000000000000 ) ) ;
#226 = ORIENTED_EDGE ( 'NONE', *, *, #851, .F. ) ;
#227 = ORIENTED_EDGE ( 'NONE', *, *, #779, .T. ) ;
#228 = ADVANCED_FACE ( 'NONE', ( #468 ), #133, .T. ) ;
#229 = DIRECTION ( 'NONE',  ( -1.000000000000000000, -0.000000000000000000, -0.000000000000000000 ) ) ;
#230 = VECTOR ( 'NONE', #490, 1000.000000000000000 ) ;
#231 = LINE ( 'NONE', #81, #111 ) ;
#232 = CARTESIAN_POINT ( 'NONE',  ( 9.499999999999998224, 3.249999999999999556, 0.2500000000000000000 ) ) ;
#233 = ORIENTED_EDGE ( 'NONE', *, *, #138, .T. ) ;
#234 = VECTOR ( 'NONE', #837, 1000.000000000000000 ) ;
#235 = DIRECTION ( 'NONE',  ( 0.000000000000000000, -1.000000000000000000, 0.000000000000000000 ) ) ;
#236 = CYLINDRICAL_SURFACE ( 'NONE', #389, 0.2500000000000000000 ) ;
#237 = PRODUCT_RELATED_PRODUCT_CATEGORY ( 'part', '', ( #346 ) ) ;
#238 = LINE ( 'NONE', #574, #427 ) ;
#239 = DIRECTION ( 'NONE',  ( -1.000000000000000000, 0.000000000000000000, 0.000000000000000000 ) ) ;
#240 = ORIENTED_EDGE ( 'NONE', *, *, #1065, .T. ) ;
#241 = CARTESIAN_POINT ( 'NONE',  ( 6.769999999999997797, -3.499999999999999112, 0.2500000000000000000 ) ) ;
#242 = CARTESIAN_POINT ( 'NONE',  ( -9.250000000000001776, -3.249999999999999556, -18.25000000000000000 ) ) ;
#243 = VERTEX_POINT ( 'NONE', #785 ) ;
#244 = DIRECTION ( 'NONE',  ( -0.000000000000000000, 0.000000000000000000, 1.000000000000000000 ) ) ;
#245 = EDGE_CURVE ( 'NONE', #1071, #955, #700, .T. ) ;
#246 = CARTESIAN_POINT ( 'NONE',  ( 6.769999999999996909, 3.500000000000000888, 0.2500000000000000000 ) ) ;
#247 = ORIENTED_EDGE ( 'NONE', *, *, #1049, .F. ) ;
#248 = DIRECTION ( 'NONE',  ( 1.000000000000000000, 0.000000000000000000, 0.000000000000000000 ) ) ;
#249 = LINE ( 'NONE', #726, #591 ) ;
#250 = FACE_OUTER_BOUND ( 'NONE', #417, .T. ) ;
#251 = VECTOR ( 'NONE', #165, 1000.000000000000000 ) ;
#252 = AXIS2_PLACEMENT_3D ( 'NONE', #53, #900, #156 ) ;
#253 = LINE ( 'NONE', #845, #408 ) ;
#254 = PRODUCT_DEFINITION ( 'General', '', #882, #575 ) ;
#255 = LINE ( 'NONE', #361, #497 ) ;
#256 = VECTOR ( 'NONE', #699, 1000.000000000000000 ) ;
#257 = VECTOR ( 'NONE', #935, 1000.000000000000000 ) ;
#258 = LINE ( 'NONE', #337, #477 ) ;
#259 = AXIS2_PLACEMENT_3D ( 'NONE', #242, #971, #397 ) ;
#260 = DIRECTION ( 'NONE',  ( 0.000000000000000000, 0.000000000000000000, -1.000000000000000000 ) ) ;
#261 = ADVANCED_FACE ( 'NONE', ( #370 ), #707, .T. ) ;
#262 = ORIENTED_EDGE ( 'NONE', *, *, #274, .F. ) ;
#263 = CYLINDRICAL_SURFACE ( 'NONE', #39, 0.2500000000000002220 ) ;
#264 = LINE ( 'NONE', #88, #162 ) ;
#265 = DIRECTION ( 'NONE',  ( 0.000000000000000000, 0.000000000000000000, 1.000000000000000000 ) ) ;
#266 = LINE ( 'NONE', #840, #388 ) ;
#267 = ORIENTED_EDGE ( 'NONE', *, *, #528, .F. ) ;
#268 = LINE ( 'NONE', #273, #257 ) ;
#269 = AXIS2_PLACEMENT_3D ( 'NONE', #578, #1072, #667 ) ;
#270 = AXIS2_PLACEMENT_3D ( 'NONE', #818, #315, #333 ) ;
#271 = FACE_OUTER_BOUND ( 'NONE', #203, .T. ) ;
#272 = ORIENTED_EDGE ( 'NONE', *, *, #554, .T. ) ;
#273 = CARTESIAN_POINT ( 'NONE',  ( 9.249999999999998224, 0.000000000000000000, 0.5000000000000000000 ) ) ;
#274 = EDGE_CURVE ( 'NONE', #390, #802, #1037, .T. ) ;
#275 = SPHERICAL_SURFACE ( 'NONE', #19, 0.2500000000000000000 ) ;
#276 = PLANE ( 'NONE',  #689 ) ;
#277 = ORIENTED_EDGE ( 'NONE', *, *, #367, .T. ) ;
#278 = CARTESIAN_POINT ( 'NONE',  ( -9.000000000000000000, -3.000000000000000444, -18.00000000000000000 ) ) ;
#279 = ADVANCED_FACE ( 'NONE', ( #906 ), #409, .T. ) ;
#280 = DIRECTION ( 'NONE',  ( 1.000000000000000000, 0.000000000000000000, 0.000000000000000000 ) ) ;
#281 = ORIENTED_EDGE ( 'NONE', *, *, #993, .T. ) ;
#282 = LINE ( 'NONE', #514, #217 ) ;
#283 = AXIS2_PLACEMENT_3D ( 'NONE', #479, #903, #825 ) ;
#284 = ORIENTED_EDGE ( 'NONE', *, *, #1080, .T. ) ;
#285 = ORIENTED_EDGE ( 'NONE', *, *, #403, .F. ) ;
#286 = CARTESIAN_POINT ( 'NONE',  ( 0.000000000000000000, 0.000000000000000000, 0.5000000000000000000 ) ) ;
#287 = AXIS2_PLACEMENT_3D ( 'NONE', #215, #472, #623 ) ;
#288 = AXIS2_PLACEMENT_3D ( 'NONE', #1014, #432, #524 ) ;
#289 = EDGE_CURVE ( 'NONE', #518, #743, #67, .T. ) ;
#290 = VERTEX_POINT ( 'NONE', #232 ) ;
#291 = ORIENTED_EDGE ( 'NONE', *, *, #464, .F. ) ;
#292 = EDGE_CURVE ( 'NONE', #802, #134, #978, .T. ) ;
#293 = DIRECTION ( 'NONE',  ( 0.000000000000000000, 0.000000000000000000, 1.000000000000000000 ) ) ;
#294 = DIRECTION ( 'NONE',  ( 0.000000000000000000, 1.000000000000000000, 0.000000000000000000 ) ) ;
#295 = ORIENTED_EDGE ( 'NONE', *, *, #210, .T. ) ;
#296 = ORIENTED_EDGE ( 'NONE', *, *, #786, .T. ) ;
#297 = DIRECTION ( 'NONE',  ( -0.000000000000000000, -0.000000000000000000, -1.000000000000000000 ) ) ;
#298 = EDGE_CURVE ( 'NONE', #1033, #769, #141, .T. ) ;
#299 = DIRECTION ( 'NONE',  ( -0.000000000000000000, -1.000000000000000000, 0.000000000000000000 ) ) ;
#300 = VERTEX_POINT ( 'NONE', #641 ) ;
#301 = VECTOR ( 'NONE', #847, 1000.000000000000000 ) ;
#302 = ORIENTED_EDGE ( 'NONE', *, *, #642, .F. ) ;
#303 =( GEOMETRIC_REPRESENTATION_CONTEXT ( 3 ) GLOBAL_UNCERTAINTY_ASSIGNED_CONTEXT ( ( #120 ) ) GLOBAL_UNIT_ASSIGNED_CONTEXT ( ( #925, #852, #686 ) ) REPRESENTATION_CONTEXT ( 'NONE', 'WORKASPACE' ) );
#304 = DIRECTION ( 'NONE',  ( 0.000000000000000000, -1.000000000000000000, 0.000000000000000000 ) ) ;
#305 = ADVANCED_FACE ( 'NONE', ( #570 ), #576, .T. ) ;
#306 = VECTOR ( 'NONE', #526, 1000.000000000000000 ) ;
#307 = EDGE_LOOP ( 'NONE', ( #964, #724, #1015, #198 ) ) ;
#308 = CARTESIAN_POINT ( 'NONE',  ( 6.769999999999997797, -3.499999999999999112, 0.000000000000000000 ) ) ;
#309 = DIRECTION ( 'NONE',  ( 1.000000000000000000, 0.000000000000000000, 0.000000000000000000 ) ) ;
#310 = EDGE_CURVE ( 'NONE', #68, #243, #1061, .T. ) ;
#311 = ORIENTED_EDGE ( 'NONE', *, *, #768, .T. ) ;
#312 = FACE_OUTER_BOUND ( 'NONE', #459, .T. ) ;
#313 = CARTESIAN_POINT ( 'NONE',  ( -6.770000000000002238, -3.250000000000000000, 0.5000000000000000000 ) ) ;
#314 = DIRECTION ( 'NONE',  ( 1.000000000000000000, 0.000000000000000000, -0.000000000000000000 ) ) ;
#315 = DIRECTION ( 'NONE',  ( 0.000000000000000000, 0.000000000000000000, -1.000000000000000000 ) ) ;
#316 = ORIENTED_EDGE ( 'NONE', *, *, #904, .F. ) ;
#317 = CARTESIAN_POINT ( 'NONE',  ( -9.000000000000000000, -3.000000000000000444, 0.000000000000000000 ) ) ;
#318 = DIRECTION ( 'NONE',  ( 0.000000000000000000, 0.000000000000000000, -1.000000000000000000 ) ) ;
#319 = DIRECTION ( 'NONE',  ( 0.000000000000000000, 0.000000000000000000, -1.000000000000000000 ) ) ;
#320 = FACE_OUTER_BOUND ( 'NONE', #788, .T. ) ;
#321 = ORIENTED_EDGE ( 'NONE', *, *, #1040, .F. ) ;
#322 = VECTOR ( 'NONE', #718, 1000.000000000000000 ) ;
#323 = LINE ( 'NONE', #317, #230 ) ;
#324 = DIRECTION ( 'NONE',  ( 1.000000000000000000, 0.000000000000000000, -0.000000000000000000 ) ) ;
#325 = ADVANCED_FACE ( 'NONE', ( #1000 ), #812, .F. ) ;
#326 = LINE ( 'NONE', #71, #539 ) ;
#327 = DIRECTION ( 'NONE',  ( -0.000000000000000000, -0.000000000000000000, -1.000000000000000000 ) ) ;
#328 = ORIENTED_EDGE ( 'NONE', *, *, #658, .T. ) ;
#329 = PLANE ( 'NONE',  #124 ) ;
#330 = APPLICATION_CONTEXT ( 'automotive_design' ) ;
#331 = CARTESIAN_POINT ( 'NONE',  ( 9.499999999999998224, -3.499999999999999556, -18.25000000000000000 ) ) ;
#332 = DIRECTION ( 'NONE',  ( 0.000000000000000000, 0.000000000000000000, 1.000000000000000000 ) ) ;
#333 = DIRECTION ( 'NONE',  ( -1.000000000000000000, 0.000000000000000000, 0.000000000000000000 ) ) ;
#334 = VERTEX_POINT ( 'NONE', #62 ) ;
#335 = CARTESIAN_POINT ( 'NONE',  ( 6.769999999999997797, -3.499999999999999112, 0.000000000000000000 ) ) ;
#336 = ORIENTED_EDGE ( 'NONE', *, *, #891, .F. ) ;
#337 = CARTESIAN_POINT ( 'NONE',  ( 9.499999999999998224, 3.499999999999999556, 0.2500000000000002220 ) ) ;
#338 = EDGE_CURVE ( 'NONE', #683, #390, #632, .T. ) ;
#339 = AXIS2_PLACEMENT_3D ( 'NONE', #987, #416, #647 ) ;
#340 = CARTESIAN_POINT ( 'NONE',  ( 0.000000000000000000, 0.000000000000000000, 0.000000000000000000 ) ) ;
#341 = CARTESIAN_POINT ( 'NONE',  ( -9.500000000000001776, 3.499999999999999556, -18.50000000000000000 ) ) ;
#342 = CARTESIAN_POINT ( 'NONE',  ( 9.499999999999998224, 3.499999999999999556, -18.50000000000000000 ) ) ;
#343 = EDGE_LOOP ( 'NONE', ( #296, #626, #794, #1029 ) ) ;
#344 = AXIS2_PLACEMENT_3D ( 'NONE', #70, #982, #645 ) ;
#345 = FACE_OUTER_BOUND ( 'NONE', #907, .T. ) ;
#346 = PRODUCT ( 'PTFE Wrap', 'PTFE Wrap', '', ( #601 ) ) ;
#347 = LINE ( 'NONE', #944, #354 ) ;
#348 = ADVANCED_FACE ( 'NONE', ( #473 ), #488, .T. ) ;
#349 = DIRECTION ( 'NONE',  ( 1.000000000000000000, 0.000000000000000000, -0.000000000000000000 ) ) ;
#350 = EDGE_LOOP ( 'NONE', ( #277, #233, #118, #418 ) ) ;
#351 = DIRECTION ( 'NONE',  ( -1.000000000000000000, 0.000000000000000000, 0.000000000000000000 ) ) ;
#352 = ORIENTED_EDGE ( 'NONE', *, *, #844, .T. ) ;
#353 = DIRECTION ( 'NONE',  ( 0.000000000000000000, 0.000000000000000000, -1.000000000000000000 ) ) ;
#354 = VECTOR ( 'NONE', #1028, 1000.000000000000000 ) ;
#355 = AXIS2_PLACEMENT_3D ( 'NONE', #654, #239, #1082 ) ;
#356 = SHAPE_DEFINITION_REPRESENTATION ( #838, #413 ) ;
#357 = VERTEX_POINT ( 'NONE', #734 ) ;
#358 = CARTESIAN_POINT ( 'NONE',  ( -9.500000000000001776, -3.249999999999999556, 0.2500000000000000000 ) ) ;
#359 = VECTOR ( 'NONE', #378, 1000.000000000000000 ) ;
#360 = EDGE_CURVE ( 'NONE', #655, #63, #842, .T. ) ;
#361 = CARTESIAN_POINT ( 'NONE',  ( 9.499999999999998224, 3.249999999999999556, -18.50000000000000000 ) ) ;
#362 = ORIENTED_EDGE ( 'NONE', *, *, #745, .F. ) ;
#363 = LINE ( 'NONE', #684, #588 ) ;
#364 = ORIENTED_EDGE ( 'NONE', *, *, #210, .F. ) ;
#365 = DIRECTION ( 'NONE',  ( 0.000000000000000000, 0.000000000000000000, -1.000000000000000000 ) ) ;
#366 = MECHANICAL_DESIGN_GEOMETRIC_PRESENTATION_REPRESENTATION (  '', ( #798 ), #303 ) ;
#367 = EDGE_CURVE ( 'NONE', #26, #1033, #1076, .T. ) ;
#368 = ORIENTED_EDGE ( 'NONE', *, *, #45, .F. ) ;
#369 = FACE_OUTER_BOUND ( 'NONE', #83, .T. ) ;
#370 = FACE_OUTER_BOUND ( 'NONE', #34, .T. ) ;
#371 = ORIENTED_EDGE ( 'NONE', *, *, #776, .T. ) ;
#372 = ORIENTED_EDGE ( 'NONE', *, *, #796, .T. ) ;
#373 = FACE_OUTER_BOUND ( 'NONE', #956, .T. ) ;
#374 = DIRECTION ( 'NONE',  ( 0.000000000000000000, -1.000000000000000000, 0.000000000000000000 ) ) ;
#375 = ORIENTED_EDGE ( 'NONE', *, *, #823, .T. ) ;
#376 = VERTEX_POINT ( 'NONE', #799 ) ;
#377 = ADVANCED_FACE ( 'NONE', ( #320 ), #1056, .T. ) ;
#378 = DIRECTION ( 'NONE',  ( -1.000000000000000000, 0.000000000000000000, 0.000000000000000000 ) ) ;
#379 = CARTESIAN_POINT ( 'NONE',  ( 9.249999999999998224, 3.249999999999999556, 0.2500000000000000000 ) ) ;
#380 = ORIENTED_EDGE ( 'NONE', *, *, #949, .F. ) ;
#381 = AXIS2_PLACEMENT_3D ( 'NONE', #931, #265, #89 ) ;
#382 = ORIENTED_EDGE ( 'NONE', *, *, #289, .F. ) ;
#383 = AXIS2_PLACEMENT_3D ( 'NONE', #340, #599, #509 ) ;
#384 = DIRECTION ( 'NONE',  ( -1.239088197126290817E-16, 1.000000000000000000, -0.000000000000000000 ) ) ;
#385 = EDGE_CURVE ( 'NONE', #545, #754, #893, .T. ) ;
#386 = CIRCLE ( 'NONE', #201, 0.2500000000000002220 ) ;
#387 = CARTESIAN_POINT ( 'NONE',  ( 9.249999999999998224, 0.000000000000000000, 0.2500000000000000000 ) ) ;
#388 = VECTOR ( 'NONE', #15, 1000.000000000000000 ) ;
#389 = AXIS2_PLACEMENT_3D ( 'NONE', #405, #738, #1073 ) ;
#390 = VERTEX_POINT ( 'NONE', #246 ) ;
#391 = ORIENTED_EDGE ( 'NONE', *, *, #367, .F. ) ;
#392 = CARTESIAN_POINT ( 'NONE',  ( -9.250000000000001776, 3.499999999999999556, -18.25000000000000000 ) ) ;
#393 = CARTESIAN_POINT ( 'NONE',  ( 0.000000000000000000, 0.000000000000000000, 0.5000000000000000000 ) ) ;
#394 = FACE_OUTER_BOUND ( 'NONE', #625, .T. ) ;
#395 = ORIENTED_EDGE ( 'NONE', *, *, #710, .T. ) ;
#396 = ORIENTED_EDGE ( 'NONE', *, *, #487, .T. ) ;
#397 = DIRECTION ( 'NONE',  ( -1.000000000000000000, 0.000000000000000000, 0.000000000000000000 ) ) ;
#398 = CARTESIAN_POINT ( 'NONE',  ( 9.249999999999998224, -3.499999999999999556, 0.2500000000000000000 ) ) ;
#399 = CARTESIAN_POINT ( 'NONE',  ( -9.500000000000001776, 3.249999999999999556, -18.25000000000000000 ) ) ;
#400 = ADVANCED_FACE ( 'NONE', ( #394 ), #728, .T. ) ;
#401 = EDGE_LOOP ( 'NONE', ( #474, #679, #546, #302 ) ) ;
#402 = LINE ( 'NONE', #656, #72 ) ;
#403 = EDGE_CURVE ( 'NONE', #743, #122, #565, .T. ) ;
#404 = APPLICATION_CONTEXT ( 'automotive_design' ) ;
#405 = CARTESIAN_POINT ( 'NONE',  ( 0.000000000000000000, 3.249999999999999556, 0.2500000000000000000 ) ) ;
#406 = VECTOR ( 'NONE', #996, 1000.000000000000000 ) ;
#407 = CYLINDRICAL_SURFACE ( 'NONE', #804, 0.2500000000000002220 ) ;
#408 = VECTOR ( 'NONE', #515, 1000.000000000000000 ) ;
#409 = CYLINDRICAL_SURFACE ( 'NONE', #862, 0.2500000000000000000 ) ;
#410 = ORIENTED_EDGE ( 'NONE', *, *, #590, .F. ) ;
#411 = CIRCLE ( 'NONE', #186, 0.2500000000000002220 ) ;
#412 = EDGE_LOOP ( 'NONE', ( #938, #1077, #991, #41 ) ) ;
#413 = ADVANCED_BREP_SHAPE_REPRESENTATION ( 'PTFE Wrap', ( #183, #288 ), #57 ) ;
#414 = DIRECTION ( 'NONE',  ( 0.000000000000000000, 1.000000000000000000, 0.000000000000000000 ) ) ;
#415 = LINE ( 'NONE', #148, #755 ) ;
#416 = DIRECTION ( 'NONE',  ( -0.000000000000000000, 0.000000000000000000, 1.000000000000000000 ) ) ;
#417 = EDGE_LOOP ( 'NONE', ( #336, #533, #791, #106 ) ) ;
#418 = ORIENTED_EDGE ( 'NONE', *, *, #503, .T. ) ;
#419 = CARTESIAN_POINT ( 'NONE',  ( -6.770000000000002238, -3.499999999999999112, 0.000000000000000000 ) ) ;
#420 = EDGE_CURVE ( 'NONE', #712, #243, #253, .T. ) ;
#421 = DIRECTION ( 'NONE',  ( 0.000000000000000000, -0.000000000000000000, 1.000000000000000000 ) ) ;
#422 = FACE_OUTER_BOUND ( 'NONE', #412, .T. ) ;
#423 = FILL_AREA_STYLE ('',( #937 ) ) ;
#424 = DIRECTION ( 'NONE',  ( 1.000000000000000000, 0.000000000000000000, -0.000000000000000000 ) ) ;
#425 = ORIENTED_EDGE ( 'NONE', *, *, #691, .F. ) ;
#426 = LINE ( 'NONE', #923, #234 ) ;
#427 = VECTOR ( 'NONE', #593, 1000.000000000000000 ) ;
#428 = ADVANCED_FACE ( 'NONE', ( #9 ), #170, .F. ) ;
#429 = FACE_OUTER_BOUND ( 'NONE', #466, .T. ) ;
#430 = LINE ( 'NONE', #762, #535 ) ;
#431 = CIRCLE ( 'NONE', #128, 0.2500000000000002220 ) ;
#432 = DIRECTION ( 'NONE',  ( 0.000000000000000000, 0.000000000000000000, 1.000000000000000000 ) ) ;
#433 = VERTEX_POINT ( 'NONE', #3 ) ;
#434 = CIRCLE ( 'NONE', #259, 0.2500000000000002220 ) ;
#435 = CARTESIAN_POINT ( 'NONE',  ( -9.500000000000001776, -3.249999999999999556, -18.25000000000000000 ) ) ;
#436 = ORIENTED_EDGE ( 'NONE', *, *, #360, .F. ) ;
#437 = LINE ( 'NONE', #1016, #462 ) ;
#438 = PLANE ( 'NONE',  #444 ) ;
#439 =( LENGTH_UNIT ( ) NAMED_UNIT ( * ) SI_UNIT ( .MILLI., .METRE. ) );
#440 = ORIENTED_EDGE ( 'NONE', *, *, #680, .F. ) ;
#441 = ADVANCED_FACE ( 'NONE', ( #422 ), #521, .T. ) ;
#442 = DIRECTION ( 'NONE',  ( 0.000000000000000000, 0.000000000000000000, -1.000000000000000000 ) ) ;
#443 = AXIS2_PLACEMENT_3D ( 'NONE', #341, #767, #445 ) ;
#444 = AXIS2_PLACEMENT_3D ( 'NONE', #883, #127, #121 ) ;
#445 = DIRECTION ( 'NONE',  ( 0.000000000000000000, -0.000000000000000000, 1.000000000000000000 ) ) ;
#446 = ORIENTED_EDGE ( 'NONE', *, *, #1065, .F. ) ;
#447 = FACE_OUTER_BOUND ( 'NONE', #207, .T. ) ;
#448 = CIRCLE ( 'NONE', #672, 0.2500000000000002220 ) ;
#449 = VECTOR ( 'NONE', #909, 1000.000000000000000 ) ;
#450 = ORIENTED_EDGE ( 'NONE', *, *, #760, .T. ) ;
#451 = CARTESIAN_POINT ( 'NONE',  ( 0.000000000000000000, -3.249999999999999556, 0.5000000000000000000 ) ) ;
#452 = EDGE_CURVE ( 'NONE', #927, #525, #99, .T. ) ;
#453 = CARTESIAN_POINT ( 'NONE',  ( -9.250000000000001776, 3.249999999999999556, -18.25000000000000000 ) ) ;
#454 = VERTEX_POINT ( 'NONE', #832 ) ;
#455 = VERTEX_POINT ( 'NONE', #180 ) ;
#456 = LINE ( 'NONE', #1047, #880 ) ;
#457 = DIRECTION ( 'NONE',  ( 1.239088197126291063E-16, -1.000000000000000000, 0.000000000000000000 ) ) ;
#458 = AXIS2_PLACEMENT_3D ( 'NONE', #501, #747, #930 ) ;
#459 = EDGE_LOOP ( 'NONE', ( #1010, #638, #827, #267, #896, #556 ) ) ;
#460 = ORIENTED_EDGE ( 'NONE', *, *, #796, .F. ) ;
#461 = DIRECTION ( 'NONE',  ( 1.000000000000000000, 0.000000000000000000, 0.000000000000000000 ) ) ;
#462 = VECTOR ( 'NONE', #939, 1000.000000000000000 ) ;
#463 = FACE_OUTER_BOUND ( 'NONE', #123, .T. ) ;
#464 = EDGE_CURVE ( 'NONE', #455, #334, #264, .T. ) ;
#465 = ORIENTED_EDGE ( 'NONE', *, *, #729, .T. ) ;
#466 = EDGE_LOOP ( 'NONE', ( #697, #713, #436, #648 ) ) ;
#467 = CARTESIAN_POINT ( 'NONE',  ( 9.249999999999998224, -3.499999999999999556, -18.25000000000000000 ) ) ;
#468 = FACE_OUTER_BOUND ( 'NONE', #6, .T. ) ;
#469 = ORIENTED_EDGE ( 'NONE', *, *, #691, .T. ) ;
#470 = ORIENTED_EDGE ( 'NONE', *, *, #806, .F. ) ;
#471 = ADVANCED_FACE ( 'NONE', ( #429 ), #670, .T. ) ;
#472 = DIRECTION ( 'NONE',  ( -1.000000000000000000, 0.000000000000000000, -0.000000000000000000 ) ) ;
#473 = FACE_OUTER_BOUND ( 'NONE', #979, .T. ) ;
#474 = ORIENTED_EDGE ( 'NONE', *, *, #720, .T. ) ;
#475 = VECTOR ( 'NONE', #822, 1000.000000000000000 ) ;
#476 = EDGE_LOOP ( 'NONE', ( #902, #35, #440, #102 ) ) ;
#477 = VECTOR ( 'NONE', #59, 1000.000000000000000 ) ;
#478 = PLANE ( 'NONE',  #218 ) ;
#479 = CARTESIAN_POINT ( 'NONE',  ( 0.000000000000000000, 0.000000000000000000, 0.000000000000000000 ) ) ;
#480 = CIRCLE ( 'NONE', #983, 0.2500000000000002220 ) ;
#481 = DIRECTION ( 'NONE',  ( -0.000000000000000000, 1.000000000000000000, 0.000000000000000000 ) ) ;
#482 = ORIENTED_EDGE ( 'NONE', *, *, #17, .T. ) ;
#483 = DIRECTION ( 'NONE',  ( 0.000000000000000000, -0.000000000000000000, -1.000000000000000000 ) ) ;
#484 = LINE ( 'NONE', #419, #986 ) ;
#485 = DIRECTION ( 'NONE',  ( 0.000000000000000000, 0.000000000000000000, -1.000000000000000000 ) ) ;
#486 = ADVANCED_FACE ( 'NONE', ( #594 ), #676, .T. ) ;
#487 = EDGE_CURVE ( 'NONE', #608, #357, #924, .T. ) ;
#488 = CYLINDRICAL_SURFACE ( 'NONE', #821, 0.2500000000000002220 ) ;
#489 = EDGE_LOOP ( 'NONE', ( #295, #1057, #284, #396, #895, #1067, #787, #703 ) ) ;
#490 = DIRECTION ( 'NONE',  ( 1.000000000000000000, 0.000000000000000000, 0.000000000000000000 ) ) ;
#491 = DIRECTION ( 'NONE',  ( 0.000000000000000000, 0.000000000000000000, 1.000000000000000000 ) ) ;
#492 = CARTESIAN_POINT ( 'NONE',  ( -9.500000000000001776, -3.249999999999999556, -18.25000000000000000 ) ) ;
#493 = DIRECTION ( 'NONE',  ( 0.000000000000000000, 0.000000000000000000, -1.000000000000000000 ) ) ;
#494 = VERTEX_POINT ( 'NONE', #398 ) ;
#495 = CARTESIAN_POINT ( 'NONE',  ( 9.000000000000000000, -3.000000000000000444, 0.000000000000000000 ) ) ;
#496 = CYLINDRICAL_SURFACE ( 'NONE', #920, 0.2500000000000002220 ) ;
#497 = VECTOR ( 'NONE', #692, 1000.000000000000000 ) ;
#498 = ORIENTED_EDGE ( 'NONE', *, *, #590, .T. ) ;
#499 = VECTOR ( 'NONE', #150, 1000.000000000000000 ) ;
#500 = DIRECTION ( 'NONE',  ( 1.000000000000000000, 0.000000000000000000, 0.000000000000000000 ) ) ;
#501 = CARTESIAN_POINT ( 'NONE',  ( -9.250000000000001776, -3.249999999999999556, 0.2500000000000000000 ) ) ;
#502 = ORIENTED_EDGE ( 'NONE', *, *, #729, .F. ) ;
#503 = EDGE_CURVE ( 'NONE', #290, #26, #258, .T. ) ;
#504 = AXIS2_PLACEMENT_3D ( 'NONE', #530, #1030, #929 ) ;
#505 = SPHERICAL_SURFACE ( 'NONE', #269, 0.2500000000000000000 ) ;
#506 = VECTOR ( 'NONE', #229, 1000.000000000000000 ) ;
#507 = DIRECTION ( 'NONE',  ( 0.000000000000000000, -1.000000000000000000, 0.000000000000000000 ) ) ;
#508 = DIRECTION ( 'NONE',  ( -1.000000000000000000, 0.000000000000000000, -0.000000000000000000 ) ) ;
#509 = DIRECTION ( 'NONE',  ( 1.000000000000000000, 0.000000000000000000, -0.000000000000000000 ) ) ;
#510 = CARTESIAN_POINT ( 'NONE',  ( -9.000000000000000000, -3.000000000000000444, -18.00000000000000000 ) ) ;
#511 = CARTESIAN_POINT ( 'NONE',  ( -9.500000000000001776, 3.499999999999999556, 0.2500000000000002220 ) ) ;
#512 = VERTEX_POINT ( 'NONE', #831 ) ;
#513 = EDGE_CURVE ( 'NONE', #357, #512, #985, .T. ) ;
#514 = CARTESIAN_POINT ( 'NONE',  ( -9.250000000000001776, -3.499999999999999556, -18.50000000000000000 ) ) ;
#515 = DIRECTION ( 'NONE',  ( -0.000000000000000000, -0.000000000000000000, 1.000000000000000000 ) ) ;
#516 = CYLINDRICAL_SURFACE ( 'NONE', #381, 0.2500000000000002220 ) ;
#517 = DIRECTION ( 'NONE',  ( -1.000000000000000000, -1.239088197126291063E-16, -0.000000000000000000 ) ) ;
#518 = VERTEX_POINT ( 'NONE', #492 ) ;
#519 = CYLINDRICAL_SURFACE ( 'NONE', #846, 0.2500000000000000000 ) ;
#520 = VECTOR ( 'NONE', #374, 1000.000000000000000 ) ;
#521 = CYLINDRICAL_SURFACE ( 'NONE', #961, 0.2500000000000000000 ) ;
#522 = FACE_OUTER_BOUND ( 'NONE', #777, .T. ) ;
#523 = CIRCLE ( 'NONE', #23, 0.2500000000000002220 ) ;
#524 = DIRECTION ( 'NONE',  ( 1.000000000000000000, 0.000000000000000000, 0.000000000000000000 ) ) ;
#525 = VERTEX_POINT ( 'NONE', #998 ) ;
#526 = DIRECTION ( 'NONE',  ( 1.239088197126290817E-16, -1.000000000000000000, 0.000000000000000000 ) ) ;
#527 = EDGE_CURVE ( 'NONE', #91, #781, #415, .T. ) ;
#528 = EDGE_CURVE ( 'NONE', #454, #68, #238, .T. ) ;
#529 = ORIENTED_EDGE ( 'NONE', *, *, #905, .F. ) ;
#530 = CARTESIAN_POINT ( 'NONE',  ( -9.250000000000001776, -3.249999999999999556, -18.25000000000000000 ) ) ;
#531 = DIRECTION ( 'NONE',  ( 0.000000000000000000, 0.000000000000000000, -1.000000000000000000 ) ) ;
#532 = APPLICATION_PROTOCOL_DEFINITION ( 'draft international standard', 'automotive_design', 1998, #330 ) ;
#533 = ORIENTED_EDGE ( 'NONE', *, *, #851, .T. ) ;
#534 = DIRECTION ( 'NONE',  ( -1.000000000000000000, 0.000000000000000000, 0.000000000000000000 ) ) ;
#535 = VECTOR ( 'NONE', #1023, 1000.000000000000000 ) ;
#536 = DIRECTION ( 'NONE',  ( -0.000000000000000000, 1.000000000000000000, 0.000000000000000000 ) ) ;
#537 = ADVANCED_FACE ( 'NONE', ( #250 ), #160, .T. ) ;
#538 = ORIENTED_EDGE ( 'NONE', *, *, #630, .T. ) ;
#539 = VECTOR ( 'NONE', #1081, 1000.000000000000000 ) ;
#540 = CARTESIAN_POINT ( 'NONE',  ( -9.250000000000001776, 3.249999999999999556, 0.2500000000000000000 ) ) ;
#541 = DIRECTION ( 'NONE',  ( -0.000000000000000000, 1.000000000000000000, -0.000000000000000000 ) ) ;
#542 = ORIENTED_EDGE ( 'NONE', *, *, #564, .T. ) ;
#543 = LINE ( 'NONE', #1041, #1022 ) ;
#544 = ADVANCED_FACE ( 'NONE', ( #750 ), #727, .T. ) ;
#545 = VERTEX_POINT ( 'NONE', #811 ) ;
#546 = ORIENTED_EDGE ( 'NONE', *, *, #806, .T. ) ;
#547 = LINE ( 'NONE', #132, #864 ) ;
#548 = DIRECTION ( 'NONE',  ( 0.000000000000000000, 1.000000000000000000, -0.000000000000000000 ) ) ;
#549 = AXIS2_PLACEMENT_3D ( 'NONE', #1012, #1004, #500 ) ;
#550 = ORIENTED_EDGE ( 'NONE', *, *, #452, .T. ) ;
#551 = DIRECTION ( 'NONE',  ( 1.000000000000000000, 0.000000000000000000, -0.000000000000000000 ) ) ;
#552 = CIRCLE ( 'NONE', #80, 0.2500000000000000000 ) ;
#553 = FACE_OUTER_BOUND ( 'NONE', #164, .T. ) ;
#554 = EDGE_CURVE ( 'NONE', #563, #494, #181, .T. ) ;
#555 = ORIENTED_EDGE ( 'NONE', *, *, #554, .F. ) ;
#556 = ORIENTED_EDGE ( 'NONE', *, *, #859, .T. ) ;
#557 = CARTESIAN_POINT ( 'NONE',  ( -6.770000000000002238, -3.499999999999999112, 0.2500000000000000000 ) ) ;
#558 = DIRECTION ( 'NONE',  ( 0.000000000000000000, 0.000000000000000000, 1.000000000000000000 ) ) ;
#559 = ORIENTED_EDGE ( 'NONE', *, *, #86, .T. ) ;
#560 = CARTESIAN_POINT ( 'NONE',  ( 9.249999999999998224, -3.249999999999999556, -18.25000000000000000 ) ) ;
#561 = CARTESIAN_POINT ( 'NONE',  ( 9.499999999999998224, -3.249999999999999556, -18.50000000000000000 ) ) ;
#562 = ORIENTED_EDGE ( 'NONE', *, *, #138, .F. ) ;
#563 = VERTEX_POINT ( 'NONE', #746 ) ;
#564 = EDGE_CURVE ( 'NONE', #1042, #518, #1070, .T. ) ;
#565 = CIRCLE ( 'NONE', #458, 0.2500000000000000000 ) ;
#566 = CARTESIAN_POINT ( 'NONE',  ( 9.249999999999998224, 3.249999999999999556, 0.2500000000000000000 ) ) ;
#567 = EDGE_CURVE ( 'NONE', #1071, #357, #386, .T. ) ;
#568 = DIRECTION ( 'NONE',  ( -0.000000000000000000, 1.000000000000000000, -0.000000000000000000 ) ) ;
#569 = AXIS2_PLACEMENT_3D ( 'NONE', #646, #976, #485 ) ;
#570 = FACE_OUTER_BOUND ( 'NONE', #11, .T. ) ;
#571 = ORIENTED_EDGE ( 'NONE', *, *, #999, .F. ) ;
#572 = DIRECTION ( 'NONE',  ( 1.000000000000000000, 0.000000000000000000, 0.000000000000000000 ) ) ;
#573 = DIRECTION ( 'NONE',  ( 1.000000000000000000, 0.000000000000000000, 0.000000000000000000 ) ) ;
#574 = CARTESIAN_POINT ( 'NONE',  ( 9.000000000000000000, -3.000000000000000444, -18.00000000000000000 ) ) ;
#575 = PRODUCT_DEFINITION_CONTEXT ( 'detailed design', #330, 'design' ) ;
#576 = PLANE ( 'NONE',  #339 ) ;
#577 = ORIENTED_EDGE ( 'NONE', *, *, #503, .F. ) ;
#578 = CARTESIAN_POINT ( 'NONE',  ( -9.250000000000001776, -3.249999999999999556, 0.2500000000000000000 ) ) ;
#579 = CARTESIAN_POINT ( 'NONE',  ( 9.499999999999998224, -3.249999999999999556, -18.25000000000000000 ) ) ;
#580 = CARTESIAN_POINT ( 'NONE',  ( -9.250000000000001776, -3.499999999999999556, -18.25000000000000000 ) ) ;
#581 = EDGE_CURVE ( 'NONE', #1042, #1071, #231, .T. ) ;
#582 = CARTESIAN_POINT ( 'NONE',  ( 9.249999999999998224, 3.499999999999999556, -18.25000000000000000 ) ) ;
#583 = ORIENTED_EDGE ( 'NONE', *, *, #487, .F. ) ;
#584 = LINE ( 'NONE', #1003, #251 ) ;
#585 = CARTESIAN_POINT ( 'NONE',  ( -9.500000000000001776, -3.499999999999999556, -18.50000000000000000 ) ) ;
#586 = DIRECTION ( 'NONE',  ( 0.000000000000000000, -0.000000000000000000, 1.000000000000000000 ) ) ;
#587 = CARTESIAN_POINT ( 'NONE',  ( 6.769999999999996909, 3.500000000000000888, 0.000000000000000000 ) ) ;
#588 = VECTOR ( 'NONE', #107, 1000.000000000000000 ) ;
#589 = FACE_OUTER_BOUND ( 'NONE', #307, .T. ) ;
#590 = EDGE_CURVE ( 'NONE', #91, #455, #326, .T. ) ;
#591 = VECTOR ( 'NONE', #65, 1000.000000000000000 ) ;
#592 = CARTESIAN_POINT ( 'NONE',  ( 6.769999999999997797, -3.249999999999999556, 0.2500000000000000000 ) ) ;
#593 = DIRECTION ( 'NONE',  ( -0.000000000000000000, -0.000000000000000000, 1.000000000000000000 ) ) ;
#594 = FACE_OUTER_BOUND ( 'NONE', #157, .T. ) ;
#595 = LINE ( 'NONE', #1013, #301 ) ;
#596 =( NAMED_UNIT ( * ) PLANE_ANGLE_UNIT ( ) SI_UNIT ( $, .RADIAN. ) );
#597 = ORIENTED_EDGE ( 'NONE', *, *, #999, .T. ) ;
#598 = SPHERICAL_SURFACE ( 'NONE', #504, 0.2500000000000000000 ) ;
#599 = DIRECTION ( 'NONE',  ( 0.000000000000000000, 0.000000000000000000, 1.000000000000000000 ) ) ;
#600 = LINE ( 'NONE', #1007, #912 ) ;
#601 = PRODUCT_CONTEXT ( 'NONE', #404, 'mechanical' ) ;
#602 = ORIENTED_EDGE ( 'NONE', *, *, #216, .T. ) ;
#603 = CARTESIAN_POINT ( 'NONE',  ( 9.000000000000000000, 2.999999999999999556, -18.00000000000000000 ) ) ;
#604 = ADVANCED_FACE ( 'NONE', ( #899 ), #407, .T. ) ;
#605 = AXIS2_PLACEMENT_3D ( 'NONE', #954, #541, #43 ) ;
#606 = SURFACE_STYLE_FILL_AREA ( #423 ) ;
#607 = AXIS2_PLACEMENT_3D ( 'NONE', #286, #953, #551 ) ;
#608 = VERTEX_POINT ( 'NONE', #154 ) ;
#609 = AXIS2_PLACEMENT_3D ( 'NONE', #560, #147, #997 ) ;
#610 = FACE_OUTER_BOUND ( 'NONE', #204, .T. ) ;
#611 = DIRECTION ( 'NONE',  ( 0.000000000000000000, 0.000000000000000000, -1.000000000000000000 ) ) ;
#612 = ORIENTED_EDGE ( 'NONE', *, *, #960, .T. ) ;
#613 = LINE ( 'NONE', #943, #55 ) ;
#614 = EDGE_CURVE ( 'NONE', #63, #512, #721, .T. ) ;
#615 = CARTESIAN_POINT ( 'NONE',  ( -9.000000000000000000, -3.000000000000000444, 0.000000000000000000 ) ) ;
#616 = ORIENTED_EDGE ( 'NONE', *, *, #859, .F. ) ;
#617 = LINE ( 'NONE', #1035, #898 ) ;
#618 = AXIS2_PLACEMENT_3D ( 'NONE', #582, #911, #163 ) ;
#619 = ORIENTED_EDGE ( 'NONE', *, *, #21, .F. ) ;
#620 = ADVANCED_FACE ( 'NONE', ( #664 ), #659, .F. ) ;
#621 = VERTEX_POINT ( 'NONE', #580 ) ;
#622 = AXIS2_PLACEMENT_3D ( 'NONE', #855, #7, #756 ) ;
#623 = DIRECTION ( 'NONE',  ( 0.000000000000000000, 0.000000000000000000, -1.000000000000000000 ) ) ;
#624 = CARTESIAN_POINT ( 'NONE',  ( 9.249999999999998224, -3.499999999999999556, -18.50000000000000000 ) ) ;
#625 = EDGE_LOOP ( 'NONE', ( #465, #974, #619, #562 ) ) ;
#626 = ORIENTED_EDGE ( 'NONE', *, *, #513, .F. ) ;
#627 = DIRECTION ( 'NONE',  ( 1.000000000000000000, 0.000000000000000000, -0.000000000000000000 ) ) ;
#628 = ORIENTED_EDGE ( 'NONE', *, *, #702, .F. ) ;
#629 = CARTESIAN_POINT ( 'NONE',  ( 9.249999999999998224, -3.249999999999999556, 0.2500000000000000000 ) ) ;
#630 = EDGE_CURVE ( 'NONE', #709, #122, #1005, .T. ) ;
#631 = CARTESIAN_POINT ( 'NONE',  ( -6.770000000000003126, 3.500000000000000888, 0.000000000000000000 ) ) ;
#632 = CIRCLE ( 'NONE', #252, 0.2500000000000002220 ) ;
#633 = ORIENTED_EDGE ( 'NONE', *, *, #338, .F. ) ;
#634 = ORIENTED_EDGE ( 'NONE', *, *, #76, .T. ) ;
#635 = CARTESIAN_POINT ( 'NONE',  ( -6.770000000000003126, 3.500000000000000888, 0.2500000000000000000 ) ) ;
#636 = VECTOR ( 'NONE', #778, 1000.000000000000000 ) ;
#637 = FACE_OUTER_BOUND ( 'NONE', #661, .T. ) ;
#638 = ORIENTED_EDGE ( 'NONE', *, *, #642, .T. ) ;
#639 = EDGE_LOOP ( 'NONE', ( #189, #1051, #1083, #368 ) ) ;
#640 = DIRECTION ( 'NONE',  ( -0.000000000000000000, -0.000000000000000000, 1.000000000000000000 ) ) ;
#641 = CARTESIAN_POINT ( 'NONE',  ( 9.249999999999998224, 3.249999999999999556, -18.50000000000000000 ) ) ;
#642 = EDGE_CURVE ( 'NONE', #334, #901, #426, .T. ) ;
#643 = EDGE_LOOP ( 'NONE', ( #633, #814, #688, #262 ) ) ;
#644 = ORIENTED_EDGE ( 'NONE', *, *, #385, .T. ) ;
#645 = DIRECTION ( 'NONE',  ( 0.000000000000000000, -0.000000000000000000, 1.000000000000000000 ) ) ;
#646 = CARTESIAN_POINT ( 'NONE',  ( -9.250000000000001776, -3.249999999999999556, -18.25000000000000000 ) ) ;
#647 = DIRECTION ( 'NONE',  ( 1.000000000000000000, 0.000000000000000000, 0.000000000000000000 ) ) ;
#648 = ORIENTED_EDGE ( 'NONE', *, *, #757, .F. ) ;
#649 = CARTESIAN_POINT ( 'NONE',  ( 9.249999999999998224, 3.249999999999999556, -18.50000000000000000 ) ) ;
#650 = AXIS2_PLACEMENT_3D ( 'NONE', #888, #826, #972 ) ;
#651 = PLANE ( 'NONE',  #168 ) ;
#652 = DIRECTION ( 'NONE',  ( 1.000000000000000000, 0.000000000000000000, 0.000000000000000000 ) ) ;
#653 = AXIS2_PLACEMENT_3D ( 'NONE', #887, #206, #293 ) ;
#654 = CARTESIAN_POINT ( 'NONE',  ( -9.500000000000001776, 3.499999999999999556, -18.50000000000000000 ) ) ;
#655 = VERTEX_POINT ( 'NONE', #694 ) ;
#656 = CARTESIAN_POINT ( 'NONE',  ( -9.000000000000000000, 2.999999999999999556, 0.000000000000000000 ) ) ;
#657 = CARTESIAN_POINT ( 'NONE',  ( -9.000000000000000000, 2.999999999999999556, -18.00000000000000000 ) ) ;
#658 = EDGE_CURVE ( 'NONE', #608, #433, #480, .T. ) ;
#659 = PLANE ( 'NONE',  #705 ) ;
#660 = CARTESIAN_POINT ( 'NONE',  ( 9.249999999999998224, 3.249999999999999556, 0.2500000000000000000 ) ) ;
#661 = EDGE_LOOP ( 'NONE', ( #559, #890, #176, #16 ) ) ;
#662 = CARTESIAN_POINT ( 'NONE',  ( 9.499999999999998224, -3.249999999999999556, 0.2500000000000000000 ) ) ;
#663 = DIRECTION ( 'NONE',  ( 1.000000000000000000, 0.000000000000000000, 0.000000000000000000 ) ) ;
#664 = FACE_OUTER_BOUND ( 'NONE', #184, .T. ) ;
#665 = ADVANCED_FACE ( 'NONE', ( #345 ), #598, .T. ) ;
#666 = DIRECTION ( 'NONE',  ( 1.000000000000000000, -0.000000000000000000, -0.000000000000000000 ) ) ;
#667 = DIRECTION ( 'NONE',  ( 1.000000000000000000, 0.000000000000000000, 0.000000000000000000 ) ) ;
#668 = VECTOR ( 'NONE', #666, 1000.000000000000000 ) ;
#669 = DIRECTION ( 'NONE',  ( -0.000000000000000000, -0.000000000000000000, 1.000000000000000000 ) ) ;
#670 = CYLINDRICAL_SURFACE ( 'NONE', #37, 0.2500000000000000000 ) ;
#671 = EDGE_CURVE ( 'NONE', #955, #357, #523, .T. ) ;
#672 = AXIS2_PLACEMENT_3D ( 'NONE', #540, #125, #461 ) ;
#673 = PLANE ( 'NONE',  #24 ) ;
#674 = ORIENTED_EDGE ( 'NONE', *, *, #179, .F. ) ;
#675 = CARTESIAN_POINT ( 'NONE',  ( 0.000000000000000000, 3.249999999999999556, 0.2500000000000000000 ) ) ;
#676 = SPHERICAL_SURFACE ( 'NONE', #549, 0.2500000000000000000 ) ;
#677 = ADVANCED_FACE ( 'NONE', ( #610 ), #1026, .T. ) ;
#678 = CARTESIAN_POINT ( 'NONE',  ( -9.250000000000001776, -3.249999999999999556, -18.50000000000000000 ) ) ;
#679 = ORIENTED_EDGE ( 'NONE', *, *, #968, .T. ) ;
#680 = EDGE_CURVE ( 'NONE', #454, #712, #363, .T. ) ;
#681 = CARTESIAN_POINT ( 'NONE',  ( -9.250000000000001776, -3.499999999999999556, 0.2500000000000000000 ) ) ;
#682 = DIRECTION ( 'NONE',  ( 1.000000000000000000, -0.000000000000000000, -0.000000000000000000 ) ) ;
#683 = VERTEX_POINT ( 'NONE', #771 ) ;
#684 = CARTESIAN_POINT ( 'NONE',  ( 9.000000000000000000, 2.999999999999999556, -18.00000000000000000 ) ) ;
#685 = AXIS2_PLACEMENT_3D ( 'NONE', #393, #733, #917 ) ;
#686 =( NAMED_UNIT ( * ) SI_UNIT ( $, .STERADIAN. ) SOLID_ANGLE_UNIT ( ) );
#687 = AXIS2_PLACEMENT_3D ( 'NONE', #27, #850, #103 ) ;
#688 = ORIENTED_EDGE ( 'NONE', *, *, #292, .F. ) ;
#689 = AXIS2_PLACEMENT_3D ( 'NONE', #105, #932, #349 ) ;
#690 = CARTESIAN_POINT ( 'NONE',  ( -9.250000000000001776, 3.249999999999999556, -18.25000000000000000 ) ) ;
#691 = EDGE_CURVE ( 'NONE', #709, #621, #282, .T. ) ;
#692 = DIRECTION ( 'NONE',  ( 0.000000000000000000, -0.000000000000000000, 1.000000000000000000 ) ) ;
#693 = ORIENTED_EDGE ( 'NONE', *, *, #884, .T. ) ;
#694 = CARTESIAN_POINT ( 'NONE',  ( -9.500000000000001776, 3.249999999999999556, 0.2500000000000000000 ) ) ;
#695 = ADVANCED_FACE ( 'NONE', ( #92 ), #519, .T. ) ;
#696 = PLANE ( 'NONE',  #1018 ) ;
#697 = ORIENTED_EDGE ( 'NONE', *, *, #403, .T. ) ;
#698 = ORIENTED_EDGE ( 'NONE', *, *, #871, .T. ) ;
#699 = DIRECTION ( 'NONE',  ( -1.000000000000000000, -0.000000000000000000, -0.000000000000000000 ) ) ;
#700 = CIRCLE ( 'NONE', #772, 0.2500000000000002220 ) ;
#701 = DIRECTION ( 'NONE',  ( 0.000000000000000000, 1.000000000000000000, 0.000000000000000000 ) ) ;
#702 = EDGE_CURVE ( 'NONE', #563, #134, #268, .T. ) ;
#703 = ORIENTED_EDGE ( 'NONE', *, *, #1027, .F. ) ;
#704 = ORIENTED_EDGE ( 'NONE', *, *, #768, .F. ) ;
#705 = AXIS2_PLACEMENT_3D ( 'NONE', #992, #508, #244 ) ;
#706 = CYLINDRICAL_SURFACE ( 'NONE', #759, 0.2500000000000000000 ) ;
#707 = SPHERICAL_SURFACE ( 'NONE', #914, 0.2500000000000000000 ) ;
#708 = ADVANCED_FACE ( 'NONE', ( #447 ), #263, .T. ) ;
#709 = VERTEX_POINT ( 'NONE', #681 ) ;
#710 = EDGE_CURVE ( 'NONE', #754, #454, #437, .T. ) ;
#711 = CARTESIAN_POINT ( 'NONE',  ( 0.000000000000000000, 3.249999999999999556, 0.5000000000000000000 ) ) ;
#712 = VERTEX_POINT ( 'NONE', #603 ) ;
#713 = ORIENTED_EDGE ( 'NONE', *, *, #844, .F. ) ;
#714 = DIRECTION ( 'NONE',  ( 1.000000000000000000, 0.000000000000000000, -0.000000000000000000 ) ) ;
#715 = CIRCLE ( 'NONE', #819, 0.2500000000000002220 ) ;
#716 = ORIENTED_EDGE ( 'NONE', *, *, #968, .F. ) ;
#717 = EDGE_LOOP ( 'NONE', ( #158, #321, #969, #316 ) ) ;
#718 = DIRECTION ( 'NONE',  ( -0.000000000000000000, -0.000000000000000000, 1.000000000000000000 ) ) ;
#719 = CIRCLE ( 'NONE', #653, 0.2500000000000002220 ) ;
#720 = EDGE_CURVE ( 'NONE', #334, #376, #22, .T. ) ;
#721 = CIRCLE ( 'NONE', #740, 0.2500000000000000000 ) ;
#722 = AXIS2_PLACEMENT_3D ( 'NONE', #592, #517, #1009 ) ;
#723 = CARTESIAN_POINT ( 'NONE',  ( 9.000000000000000000, 2.999999999999999556, 0.000000000000000000 ) ) ;
#724 = ORIENTED_EDGE ( 'NONE', *, *, #98, .F. ) ;
#725 = CARTESIAN_POINT ( 'NONE',  ( -9.250000000000001776, -3.249999999999999556, 0.2500000000000000000 ) ) ;
#726 = CARTESIAN_POINT ( 'NONE',  ( -9.000000000000000000, 2.999999999999999556, 0.000000000000000000 ) ) ;
#727 = PLANE ( 'NONE',  #283 ) ;
#728 = CYLINDRICAL_SURFACE ( 'NONE', #618, 0.2500000000000002220 ) ;
#729 = EDGE_CURVE ( 'NONE', #1033, #889, #948, .T. ) ;
#730 = ORIENTED_EDGE ( 'NONE', *, *, #921, .F. ) ;
#731 = ORIENTED_EDGE ( 'NONE', *, *, #745, .T. ) ;
#732 = PLANE ( 'NONE',  #344 ) ;
#733 = DIRECTION ( 'NONE',  ( 0.000000000000000000, 0.000000000000000000, 1.000000000000000000 ) ) ;
#734 = CARTESIAN_POINT ( 'NONE',  ( -9.250000000000001776, 3.499999999999999556, -18.25000000000000000 ) ) ;
#735 = ORIENTED_EDGE ( 'NONE', *, *, #298, .T. ) ;
#736 = LINE ( 'NONE', #1084, #406 ) ;
#737 = AXIS2_PLACEMENT_3D ( 'NONE', #660, #309, #807 ) ;
#738 = DIRECTION ( 'NONE',  ( -1.000000000000000000, 0.000000000000000000, 0.000000000000000000 ) ) ;
#739 = CARTESIAN_POINT ( 'NONE',  ( -9.250000000000001776, 3.249999999999999556, 0.2500000000000000000 ) ) ;
#740 = AXIS2_PLACEMENT_3D ( 'NONE', #739, #1075, #332 ) ;
#741 = DIRECTION ( 'NONE',  ( 0.000000000000000000, 1.000000000000000000, -0.000000000000000000 ) ) ;
#742 = ORIENTED_EDGE ( 'NONE', *, *, #177, .T. ) ;
#743 = VERTEX_POINT ( 'NONE', #358 ) ;
#744 = DIRECTION ( 'NONE',  ( 0.000000000000000000, 0.000000000000000000, 1.000000000000000000 ) ) ;
#745 = EDGE_CURVE ( 'NONE', #769, #889, #1053, .T. ) ;
#746 = CARTESIAN_POINT ( 'NONE',  ( 9.249999999999998224, -3.249999999999999556, 0.5000000000000000000 ) ) ;
#747 = DIRECTION ( 'NONE',  ( -0.000000000000000000, 1.000000000000000000, -0.000000000000000000 ) ) ;
#748 = ORIENTED_EDGE ( 'NONE', *, *, #28, .F. ) ;
#749 = LINE ( 'NONE', #990, #1055 ) ;
#750 = FACE_OUTER_BOUND ( 'NONE', #401, .T. ) ;
#751 = DIRECTION ( 'NONE',  ( 1.239088197126290817E-16, -1.000000000000000000, 0.000000000000000000 ) ) ;
#752 = SURFACE_SIDE_STYLE ('',( #606 ) ) ;
#753 = CARTESIAN_POINT ( 'NONE',  ( -9.000000000000000000, 2.999999999999999556, 0.000000000000000000 ) ) ;
#754 = VERTEX_POINT ( 'NONE', #278 ) ;
#755 = VECTOR ( 'NONE', #669, 1000.000000000000000 ) ;
#756 = DIRECTION ( 'NONE',  ( 1.000000000000000000, 0.000000000000000000, 0.000000000000000000 ) ) ;
#757 = EDGE_CURVE ( 'NONE', #743, #655, #613, .T. ) ;
#758 = DIRECTION ( 'NONE',  ( 0.000000000000000000, -1.000000000000000000, 0.000000000000000000 ) ) ;
#759 = AXIS2_PLACEMENT_3D ( 'NONE', #793, #714, #365 ) ;
#760 = EDGE_CURVE ( 'NONE', #781, #130, #1074, .T. ) ;
#761 = VECTOR ( 'NONE', #324, 1000.000000000000000 ) ;
#762 = CARTESIAN_POINT ( 'NONE',  ( -9.500000000000001776, -3.499999999999999556, 0.2500000000000002220 ) ) ;
#763 = ORIENTED_EDGE ( 'NONE', *, *, #292, .T. ) ;
#764 = DIRECTION ( 'NONE',  ( 0.000000000000000000, 0.000000000000000000, 1.000000000000000000 ) ) ;
#765 = ORIENTED_EDGE ( 'NONE', *, *, #28, .T. ) ;
#766 = CARTESIAN_POINT ( 'NONE',  ( 9.249999999999998224, -3.249999999999999556, -18.25000000000000000 ) ) ;
#767 = DIRECTION ( 'NONE',  ( 0.000000000000000000, 1.000000000000000000, 0.000000000000000000 ) ) ;
#768 = EDGE_CURVE ( 'NONE', #1042, #621, #719, .T. ) ;
#769 = VERTEX_POINT ( 'NONE', #467 ) ;
#770 = CIRCLE ( 'NONE', #1034, 0.2500000000000002220 ) ;
#771 = CARTESIAN_POINT ( 'NONE',  ( 6.769999999999996909, 3.249999999999999556, 0.5000000000000000000 ) ) ;
#772 = AXIS2_PLACEMENT_3D ( 'NONE', #202, #701, #962 ) ;
#773 = DIRECTION ( 'NONE',  ( 1.000000000000000000, 1.239088197126291063E-16, 0.000000000000000000 ) ) ;
#774 = ORIENTED_EDGE ( 'NONE', *, *, #310, .F. ) ;
#775 = DIRECTION ( 'NONE',  ( 0.000000000000000000, -1.000000000000000000, 0.000000000000000000 ) ) ;
#776 = EDGE_CURVE ( 'NONE', #26, #494, #411, .T. ) ;
#777 = EDGE_LOOP ( 'NONE', ( #328, #801, #951 ) ) ;
#778 = DIRECTION ( 'NONE',  ( 1.000000000000000000, 0.000000000000000000, -0.000000000000000000 ) ) ;
#779 = EDGE_CURVE ( 'NONE', #122, #988, #36, .T. ) ;
#780 = DIRECTION ( 'NONE',  ( 0.000000000000000000, 0.000000000000000000, 1.000000000000000000 ) ) ;
#781 = VERTEX_POINT ( 'NONE', #635 ) ;
#782 = VERTEX_POINT ( 'NONE', #557 ) ;
#783 = CARTESIAN_POINT ( 'NONE',  ( 0.000000000000000000, -3.249999999999999556, 0.5000000000000000000 ) ) ;
#784 = AXIS2_PLACEMENT_3D ( 'NONE', #805, #314, #319 ) ;
#785 = CARTESIAN_POINT ( 'NONE',  ( 9.000000000000000000, 2.999999999999999556, 0.000000000000000000 ) ) ;
#786 = EDGE_CURVE ( 'NONE', #655, #512, #448, .T. ) ;
#787 = ORIENTED_EDGE ( 'NONE', *, *, #527, .F. ) ;
#788 = EDGE_LOOP ( 'NONE', ( #886, #54, #828, #995 ) ) ;
#789 = CIRCLE ( 'NONE', #287, 0.2500000000000002220 ) ;
#790 = CARTESIAN_POINT ( 'NONE',  ( 6.769999999999997797, -3.000000000000000444, 0.000000000000000000 ) ) ;
#791 = ORIENTED_EDGE ( 'NONE', *, *, #702, .T. ) ;
#792 = ORIENTED_EDGE ( 'NONE', *, *, #360, .T. ) ;
#793 = CARTESIAN_POINT ( 'NONE',  ( 0.000000000000000000, -3.249999999999999556, 0.2500000000000000000 ) ) ;
#794 = ORIENTED_EDGE ( 'NONE', *, *, #671, .F. ) ;
#795 = ORIENTED_EDGE ( 'NONE', *, *, #61, .F. ) ;
#796 = EDGE_CURVE ( 'NONE', #243, #927, #1054, .T. ) ;
#797 = CARTESIAN_POINT ( 'NONE',  ( -9.000000000000000000, -3.000000000000000444, -18.00000000000000000 ) ) ;
#798 = STYLED_ITEM ( 'NONE', ( #104 ), #183 ) ;
#799 = CARTESIAN_POINT ( 'NONE',  ( -6.770000000000002238, -3.499999999999999112, 0.000000000000000000 ) ) ;
#800 = VECTOR ( 'NONE', #558, 1000.000000000000000 ) ;
#801 = ORIENTED_EDGE ( 'NONE', *, *, #21, .T. ) ;
#802 = VERTEX_POINT ( 'NONE', #135 ) ;
#803 = DIRECTION ( 'NONE',  ( 1.000000000000000000, 0.000000000000000000, 0.000000000000000000 ) ) ;
#804 = AXIS2_PLACEMENT_3D ( 'NONE', #1, #586, #652 ) ;
#805 = CARTESIAN_POINT ( 'NONE',  ( 9.249999999999998224, -3.249999999999999556, 0.2500000000000000000 ) ) ;
#806 = EDGE_CURVE ( 'NONE', #40, #901, #50, .T. ) ;
#807 = DIRECTION ( 'NONE',  ( 0.000000000000000000, 0.000000000000000000, -1.000000000000000000 ) ) ;
#808 = ORIENTED_EDGE ( 'NONE', *, *, #581, .F. ) ;
#809 = DIRECTION ( 'NONE',  ( -0.000000000000000000, 1.000000000000000000, 0.000000000000000000 ) ) ;
#810 = CARTESIAN_POINT ( 'NONE',  ( 9.000000000000000000, 2.999999999999999556, -18.00000000000000000 ) ) ;
#811 = CARTESIAN_POINT ( 'NONE',  ( -9.000000000000000000, 2.999999999999999556, -18.00000000000000000 ) ) ;
#812 = PLANE ( 'NONE',  #650 ) ;
#813 = ORIENTED_EDGE ( 'NONE', *, *, #245, .F. ) ;
#814 = ORIENTED_EDGE ( 'NONE', *, *, #981, .F. ) ;
#815 = LINE ( 'NONE', #308, #950 ) ;
#816 = ORIENTED_EDGE ( 'NONE', *, *, #527, .T. ) ;
#817 = CARTESIAN_POINT ( 'NONE',  ( -9.500000000000001776, 3.499999999999999556, -18.25000000000000000 ) ) ;
#818 = CARTESIAN_POINT ( 'NONE',  ( 9.249999999999998224, -3.249999999999999556, -18.25000000000000000 ) ) ;
#819 = AXIS2_PLACEMENT_3D ( 'NONE', #725, #989, #248 ) ;
#820 = ORIENTED_EDGE ( 'NONE', *, *, #776, .F. ) ;
#821 = AXIS2_PLACEMENT_3D ( 'NONE', #399, #225, #493 ) ;
#822 = DIRECTION ( 'NONE',  ( 1.000000000000000000, -0.000000000000000000, 0.000000000000000000 ) ) ;
#823 = EDGE_CURVE ( 'NONE', #455, #1063, #456, .T. ) ;
#824 = CARTESIAN_POINT ( 'NONE',  ( -6.770000000000003126, 3.500000000000000888, 0.000000000000000000 ) ) ;
#825 = DIRECTION ( 'NONE',  ( 1.000000000000000000, 0.000000000000000000, 0.000000000000000000 ) ) ;
#826 = DIRECTION ( 'NONE',  ( 1.000000000000000000, 1.239088197126291063E-16, 0.000000000000000000 ) ) ;
#827 = ORIENTED_EDGE ( 'NONE', *, *, #1049, .T. ) ;
#828 = ORIENTED_EDGE ( 'NONE', *, *, #289, .T. ) ;
#829 = ADVANCED_FACE ( 'NONE', ( #373 ), #706, .T. ) ;
#830 = CARTESIAN_POINT ( 'NONE',  ( -9.500000000000001776, 3.249999999999999556, -18.25000000000000000 ) ) ;
#831 = CARTESIAN_POINT ( 'NONE',  ( -9.250000000000001776, 3.499999999999999556, 0.2500000000000000000 ) ) ;
#832 = CARTESIAN_POINT ( 'NONE',  ( 9.000000000000000000, -3.000000000000000444, -18.00000000000000000 ) ) ;
#833 = CARTESIAN_POINT ( 'NONE',  ( -6.770000000000003126, 3.500000000000000888, 0.5000000000000000000 ) ) ;
#834 = FACE_OUTER_BOUND ( 'NONE', #193, .T. ) ;
#835 = ORIENTED_EDGE ( 'NONE', *, *, #76, .F. ) ;
#836 = EDGE_CURVE ( 'NONE', #608, #300, #789, .T. ) ;
#837 = DIRECTION ( 'NONE',  ( 1.000000000000000000, 0.000000000000000000, 0.000000000000000000 ) ) ;
#838 = PRODUCT_DEFINITION_SHAPE ( 'NONE', 'NONE',  #254 ) ;
#839 = DIRECTION ( 'NONE',  ( 1.000000000000000000, 0.000000000000000000, -0.000000000000000000 ) ) ;
#840 = CARTESIAN_POINT ( 'NONE',  ( 9.249999999999998224, 3.499999999999999556, -18.50000000000000000 ) ) ;
#841 = ORIENTED_EDGE ( 'NONE', *, *, #564, .F. ) ;
#842 = CIRCLE ( 'NONE', #1048, 0.2500000000000000000 ) ;
#843 = DIRECTION ( 'NONE',  ( 0.000000000000000000, 0.000000000000000000, 1.000000000000000000 ) ) ;
#844 = EDGE_CURVE ( 'NONE', #63, #122, #617, .T. ) ;
#845 = CARTESIAN_POINT ( 'NONE',  ( 9.000000000000000000, 2.999999999999999556, -18.00000000000000000 ) ) ;
#846 = AXIS2_PLACEMENT_3D ( 'NONE', #675, #1011, #843 ) ;
#847 = DIRECTION ( 'NONE',  ( -0.000000000000000000, -0.000000000000000000, -1.000000000000000000 ) ) ;
#848 = APPLICATION_PROTOCOL_DEFINITION ( 'draft international standard', 'automotive_design', 1998, #404 ) ;
#849 = VERTEX_POINT ( 'NONE', #947 ) ;
#850 = DIRECTION ( 'NONE',  ( -0.000000000000000000, 1.000000000000000000, -0.000000000000000000 ) ) ;
#851 = EDGE_CURVE ( 'NONE', #849, #563, #119, .T. ) ;
#852 =( NAMED_UNIT ( * ) PLANE_ANGLE_UNIT ( ) SI_UNIT ( $, .RADIAN. ) );
#853 = DIRECTION ( 'NONE',  ( -0.000000000000000000, 0.000000000000000000, -1.000000000000000000 ) ) ;
#854 = ORIENTED_EDGE ( 'NONE', *, *, #205, .T. ) ;
#855 = CARTESIAN_POINT ( 'NONE',  ( -9.250000000000001776, -3.249999999999999556, -18.50000000000000000 ) ) ;
#856 = CARTESIAN_POINT ( 'NONE',  ( 9.249999999999998224, 3.249999999999999556, 0.5000000000000000000 ) ) ;
#857 =( NAMED_UNIT ( * ) SI_UNIT ( $, .STERADIAN. ) SOLID_ANGLE_UNIT ( ) );
#858 = ORIENTED_EDGE ( 'NONE', *, *, #1008, .T. ) ;
#859 = EDGE_CURVE ( 'NONE', #754, #114, #46, .T. ) ;
#860 = CIRCLE ( 'NONE', #1001, 0.2500000000000002220 ) ;
#861 = CARTESIAN_POINT ( 'NONE',  ( -6.770000000000003126, 3.249999999999999556, 0.2500000000000000000 ) ) ;
#862 = AXIS2_PLACEMENT_3D ( 'NONE', #387, #481, #136 ) ;
#863 = LINE ( 'NONE', #1032, #95 ) ;
#864 = VECTOR ( 'NONE', #876, 1000.000000000000000 ) ;
#865 = CIRCLE ( 'NONE', #722, 0.2500000000000002220 ) ;
#866 = ORIENTED_EDGE ( 'NONE', *, *, #17, .F. ) ;
#867 = DIRECTION ( 'NONE',  ( 0.000000000000000000, -0.000000000000000000, -1.000000000000000000 ) ) ;
#868 = LINE ( 'NONE', #624, #197 ) ;
#869 = ORIENTED_EDGE ( 'NONE', *, *, #836, .T. ) ;
#870 = DIRECTION ( 'NONE',  ( 1.000000000000000000, 0.000000000000000000, 0.000000000000000000 ) ) ;
#871 = EDGE_CURVE ( 'NONE', #545, #1063, #31, .T. ) ;
#872 = ADVANCED_FACE ( 'NONE', ( #369 ), #881, .T. ) ;
#873 = LINE ( 'NONE', #47, #520 ) ;
#874 = ORIENTED_EDGE ( 'NONE', *, *, #720, .F. ) ;
#875 = ORIENTED_EDGE ( 'NONE', *, *, #205, .F. ) ;
#876 = DIRECTION ( 'NONE',  ( -1.239088197126290817E-16, 1.000000000000000000, -0.000000000000000000 ) ) ;
#877 = VECTOR ( 'NONE', #171, 1000.000000000000000 ) ;
#878 = AXIS2_PLACEMENT_3D ( 'NONE', #631, #1050, #457 ) ;
#879 = EDGE_LOOP ( 'NONE', ( #854, #577, #730, #628 ) ) ;
#880 = VECTOR ( 'NONE', #220, 1000.000000000000000 ) ;
#881 = PLANE ( 'NONE',  #607 ) ;
#882 = PRODUCT_DEFINITION_FORMATION_WITH_SPECIFIED_SOURCE ( 'Symmetric', '', #346, .NOT_KNOWN. ) ;
#883 = CARTESIAN_POINT ( 'NONE',  ( 0.000000000000000000, 0.000000000000000000, -18.50000000000000000 ) ) ;
#884 = EDGE_CURVE ( 'NONE', #769, #494, #543, .T. ) ;
#885 = ORIENTED_EDGE ( 'NONE', *, *, #567, .F. ) ;
#886 = ORIENTED_EDGE ( 'NONE', *, *, #116, .T. ) ;
#887 = CARTESIAN_POINT ( 'NONE',  ( -9.250000000000001776, -3.249999999999999556, -18.25000000000000000 ) ) ;
#888 = CARTESIAN_POINT ( 'NONE',  ( 6.769999999999996909, 3.500000000000000888, 0.000000000000000000 ) ) ;
#889 = VERTEX_POINT ( 'NONE', #209 ) ;
#890 = ORIENTED_EDGE ( 'NONE', *, *, #191, .T. ) ;
#891 = EDGE_CURVE ( 'NONE', #849, #683, #547, .T. ) ;
#892 = DIRECTION ( 'NONE',  ( 0.000000000000000000, -0.000000000000000000, -1.000000000000000000 ) ) ;
#893 = LINE ( 'NONE', #994, #934 ) ;
#894 = VECTOR ( 'NONE', #327, 1000.000000000000000 ) ;
#895 = ORIENTED_EDGE ( 'NONE', *, *, #513, .T. ) ;
#896 = ORIENTED_EDGE ( 'NONE', *, *, #710, .F. ) ;
#897 = FACE_OUTER_BOUND ( 'NONE', #717, .T. ) ;
#898 = VECTOR ( 'NONE', #304, 1000.000000000000000 ) ;
#899 = FACE_OUTER_BOUND ( 'NONE', #343, .T. ) ;
#900 = DIRECTION ( 'NONE',  ( -1.000000000000000000, -1.239088197126291063E-16, -0.000000000000000000 ) ) ;
#901 = VERTEX_POINT ( 'NONE', #790 ) ;
#902 = ORIENTED_EDGE ( 'NONE', *, *, #310, .T. ) ;
#903 = DIRECTION ( 'NONE',  ( -0.000000000000000000, 0.000000000000000000, 1.000000000000000000 ) ) ;
#904 = EDGE_CURVE ( 'NONE', #130, #63, #42, .T. ) ;
#905 = EDGE_CURVE ( 'NONE', #802, #290, #431, .T. ) ;
#906 = FACE_OUTER_BOUND ( 'NONE', #879, .T. ) ;
#907 = EDGE_LOOP ( 'NONE', ( #311, #858, #841 ) ) ;
#908 = CARTESIAN_POINT ( 'NONE',  ( 9.499999999999998224, 3.249999999999999556, -18.50000000000000000 ) ) ;
#909 = DIRECTION ( 'NONE',  ( -1.000000000000000000, -0.000000000000000000, -0.000000000000000000 ) ) ;
#910 = CARTESIAN_POINT ( 'NONE',  ( -9.250000000000001776, -3.249999999999999556, 0.2500000000000000000 ) ) ;
#911 = DIRECTION ( 'NONE',  ( 0.000000000000000000, -1.000000000000000000, 0.000000000000000000 ) ) ;
#912 = VECTOR ( 'NONE', #101, 1000.000000000000000 ) ;
#913 = EDGE_LOOP ( 'NONE', ( #795, #538, #285 ) ) ;
#914 = AXIS2_PLACEMENT_3D ( 'NONE', #379, #294, #212 ) ;
#915 = LINE ( 'NONE', #908, #475 ) ;
#916 = SPHERICAL_SURFACE ( 'NONE', #609, 0.2500000000000000000 ) ;
#917 = DIRECTION ( 'NONE',  ( 1.000000000000000000, 0.000000000000000000, -0.000000000000000000 ) ) ;
#918 = AXIS2_PLACEMENT_3D ( 'NONE', #910, #87, #1020 ) ;
#919 = CARTESIAN_POINT ( 'NONE',  ( 0.000000000000000000, -3.249999999999999556, 0.2500000000000000000 ) ) ;
#920 = AXIS2_PLACEMENT_3D ( 'NONE', #392, #167, #744 ) ;
#921 = EDGE_CURVE ( 'NONE', #134, #290, #552, .T. ) ;
#922 = CYLINDRICAL_SURFACE ( 'NONE', #161, 0.2500000000000002220 ) ;
#923 = CARTESIAN_POINT ( 'NONE',  ( -9.000000000000000000, -3.000000000000000444, 0.000000000000000000 ) ) ;
#924 = LINE ( 'NONE', #817, #73 ) ;
#925 =( LENGTH_UNIT ( ) NAMED_UNIT ( * ) SI_UNIT ( .MILLI., .METRE. ) );
#926 = FACE_OUTER_BOUND ( 'NONE', #350, .T. ) ;
#927 = VERTEX_POINT ( 'NONE', #1066 ) ;
#928 = ADVANCED_FACE ( 'NONE', ( #224 ), #651, .T. ) ;
#929 = DIRECTION ( 'NONE',  ( 0.000000000000000000, 0.000000000000000000, -1.000000000000000000 ) ) ;
#930 = DIRECTION ( 'NONE',  ( 0.000000000000000000, 0.000000000000000000, -1.000000000000000000 ) ) ;
#931 = CARTESIAN_POINT ( 'NONE',  ( 9.249999999999998224, -3.249999999999999556, -18.50000000000000000 ) ) ;
#932 = DIRECTION ( 'NONE',  ( 0.000000000000000000, 0.000000000000000000, 1.000000000000000000 ) ) ;
#933 = ORIENTED_EDGE ( 'NONE', *, *, #100, .F. ) ;
#934 = VECTOR ( 'NONE', #82, 1000.000000000000000 ) ;
#935 = DIRECTION ( 'NONE',  ( -0.000000000000000000, 1.000000000000000000, 0.000000000000000000 ) ) ;
#936 = VECTOR ( 'NONE', #966, 1000.000000000000000 ) ;
#937 = FILL_AREA_STYLE_COLOUR ( '', #196 ) ;
#938 = ORIENTED_EDGE ( 'NONE', *, *, #177, .F. ) ;
#939 = DIRECTION ( 'NONE',  ( 1.000000000000000000, 0.000000000000000000, 0.000000000000000000 ) ) ;
#940 = ADVANCED_FACE ( 'NONE', ( #1079 ), #496, .T. ) ;
#941 = CARTESIAN_POINT ( 'NONE',  ( 9.249999999999998224, 3.249999999999999556, -18.25000000000000000 ) ) ;
#942 = ORIENTED_EDGE ( 'NONE', *, *, #61, .T. ) ;
#943 = CARTESIAN_POINT ( 'NONE',  ( -9.500000000000001776, 3.499999999999999556, 0.2500000000000002220 ) ) ;
#944 = CARTESIAN_POINT ( 'NONE',  ( -9.500000000000001776, -3.249999999999999556, -18.50000000000000000 ) ) ;
#945 = ORIENTED_EDGE ( 'NONE', *, *, #298, .F. ) ;
#946 = PRESENTATION_LAYER_ASSIGNMENT (  '', '', ( #798 ) ) ;
#947 = CARTESIAN_POINT ( 'NONE',  ( 6.769999999999997797, -3.250000000000000000, 0.5000000000000000000 ) ) ;
#948 = CIRCLE ( 'NONE', #687, 0.2500000000000002220 ) ;
#949 = EDGE_CURVE ( 'NONE', #621, #769, #139, .T. ) ;
#950 = VECTOR ( 'NONE', #640, 1000.000000000000000 ) ;
#951 = ORIENTED_EDGE ( 'NONE', *, *, #836, .F. ) ;
#952 = ADVANCED_FACE ( 'NONE', ( #1059 ), #916, .T. ) ;
#953 = DIRECTION ( 'NONE',  ( 0.000000000000000000, 0.000000000000000000, 1.000000000000000000 ) ) ;
#954 = CARTESIAN_POINT ( 'NONE',  ( 9.249999999999998224, -3.249999999999999556, 0.2500000000000000000 ) ) ;
#955 = VERTEX_POINT ( 'NONE', #830 ) ;
#956 = EDGE_LOOP ( 'NONE', ( #446, #674, #555, #226 ) ) ;
#957 = DIRECTION ( 'NONE',  ( 0.000000000000000000, 0.000000000000000000, 1.000000000000000000 ) ) ;
#958 = ORIENTED_EDGE ( 'NONE', *, *, #1027, .T. ) ;
#959 = CARTESIAN_POINT ( 'NONE',  ( -9.000000000000000000, 2.999999999999999556, 0.000000000000000000 ) ) ;
#960 = EDGE_CURVE ( 'NONE', #712, #545, #85, .T. ) ;
#961 = AXIS2_PLACEMENT_3D ( 'NONE', #919, #839, #173 ) ;
#962 = DIRECTION ( 'NONE',  ( 0.000000000000000000, 0.000000000000000000, 1.000000000000000000 ) ) ;
#963 = ORIENTED_EDGE ( 'NONE', *, *, #420, .T. ) ;
#964 = ORIENTED_EDGE ( 'NONE', *, *, #905, .T. ) ;
#965 = AXIS2_PLACEMENT_3D ( 'NONE', #861, #110, #775 ) ;
#966 = DIRECTION ( 'NONE',  ( -0.000000000000000000, -0.000000000000000000, 1.000000000000000000 ) ) ;
#967 = DIRECTION ( 'NONE',  ( -0.000000000000000000, -0.000000000000000000, 1.000000000000000000 ) ) ;
#968 = EDGE_CURVE ( 'NONE', #376, #40, #484, .T. ) ;
#969 = ORIENTED_EDGE ( 'NONE', *, *, #614, .F. ) ;
#970 = ORIENTED_EDGE ( 'NONE', *, *, #921, .T. ) ;
#971 = DIRECTION ( 'NONE',  ( -0.000000000000000000, -0.000000000000000000, -1.000000000000000000 ) ) ;
#972 = DIRECTION ( 'NONE',  ( -1.239088197126291063E-16, 1.000000000000000000, 0.000000000000000000 ) ) ;
#973 = ORIENTED_EDGE ( 'NONE', *, *, #884, .F. ) ;
#974 = ORIENTED_EDGE ( 'NONE', *, *, #191, .F. ) ;
#975 = LINE ( 'NONE', #824, #506 ) ;
#976 = DIRECTION ( 'NONE',  ( 0.000000000000000000, 1.000000000000000000, 0.000000000000000000 ) ) ;
#977 = CARTESIAN_POINT ( 'NONE',  ( -9.500000000000001776, -3.249999999999999556, -18.50000000000000000 ) ) ;
#978 = CIRCLE ( 'NONE', #737, 0.2500000000000000000 ) ;
#979 = EDGE_LOOP ( 'NONE', ( #869, #1039, #1046, #583 ) ) ;
#980 = DIRECTION ( 'NONE',  ( 0.000000000000000000, -0.000000000000000000, 1.000000000000000000 ) ) ;
#981 = EDGE_CURVE ( 'NONE', #134, #683, #749, .T. ) ;
#982 = DIRECTION ( 'NONE',  ( -0.000000000000000000, 1.000000000000000000, 0.000000000000000000 ) ) ;
#983 = AXIS2_PLACEMENT_3D ( 'NONE', #172, #190, #534 ) ;
#984 = ADVANCED_FACE ( 'NONE', ( #153 ), #478, .F. ) ;
#985 = LINE ( 'NONE', #140, #4 ) ;
#986 = VECTOR ( 'NONE', #573, 1000.000000000000000 ) ;
#987 = CARTESIAN_POINT ( 'NONE',  ( 0.000000000000000000, 0.000000000000000000, 0.000000000000000000 ) ) ;
#988 = VERTEX_POINT ( 'NONE', #313 ) ;
#989 = DIRECTION ( 'NONE',  ( -0.000000000000000000, -0.000000000000000000, -1.000000000000000000 ) ) ;
#990 = CARTESIAN_POINT ( 'NONE',  ( 0.000000000000000000, 3.249999999999999556, 0.5000000000000000000 ) ) ;
#991 = ORIENTED_EDGE ( 'NONE', *, *, #630, .F. ) ;
#992 = CARTESIAN_POINT ( 'NONE',  ( -9.000000000000000000, 2.999999999999999556, -18.00000000000000000 ) ) ;
#993 = EDGE_CURVE ( 'NONE', #927, #455, #249, .T. ) ;
#994 = CARTESIAN_POINT ( 'NONE',  ( -9.000000000000000000, 2.999999999999999556, -18.00000000000000000 ) ) ;
#995 = ORIENTED_EDGE ( 'NONE', *, *, #757, .T. ) ;
#996 = DIRECTION ( 'NONE',  ( -1.239088197126290817E-16, 1.000000000000000000, -0.000000000000000000 ) ) ;
#997 = DIRECTION ( 'NONE',  ( 0.000000000000000000, 0.000000000000000000, -1.000000000000000000 ) ) ;
#998 = CARTESIAN_POINT ( 'NONE',  ( 6.769999999999996909, 3.500000000000000888, 0.000000000000000000 ) ) ;
#999 = EDGE_CURVE ( 'NONE', #40, #69, #815, .T. ) ;
#1000 = FACE_OUTER_BOUND ( 'NONE', #49, .T. ) ;
#1001 = AXIS2_PLACEMENT_3D ( 'NONE', #96, #773, #25 ) ;
#1002 = VECTOR ( 'NONE', #93, 1000.000000000000000 ) ;
#1003 = CARTESIAN_POINT ( 'NONE',  ( -6.770000000000002238, -3.499999999999999112, 0.000000000000000000 ) ) ;
#1004 = DIRECTION ( 'NONE',  ( 0.000000000000000000, 1.000000000000000000, 0.000000000000000000 ) ) ;
#1005 = CIRCLE ( 'NONE', #918, 0.2500000000000000000 ) ;
#1006 = CARTESIAN_POINT ( 'NONE',  ( -9.250000000000001776, 0.000000000000000000, 0.2500000000000000000 ) ) ;
#1007 = CARTESIAN_POINT ( 'NONE',  ( 9.499999999999998224, 3.499999999999999556, -18.25000000000000000 ) ) ;
#1008 = EDGE_CURVE ( 'NONE', #621, #518, #434, .T. ) ;
#1009 = DIRECTION ( 'NONE',  ( 0.000000000000000000, 1.000000000000000000, 0.000000000000000000 ) ) ;
#1010 = ORIENTED_EDGE ( 'NONE', *, *, #32, .T. ) ;
#1011 = DIRECTION ( 'NONE',  ( -1.000000000000000000, 0.000000000000000000, 0.000000000000000000 ) ) ;
#1012 = CARTESIAN_POINT ( 'NONE',  ( -9.250000000000001776, 3.249999999999999556, 0.2500000000000000000 ) ) ;
#1013 = CARTESIAN_POINT ( 'NONE',  ( -9.500000000000001776, 3.249999999999999556, -18.50000000000000000 ) ) ;
#1014 = CARTESIAN_POINT ( 'NONE',  ( 0.000000000000000000, 0.000000000000000000, 0.000000000000000000 ) ) ;
#1015 = ORIENTED_EDGE ( 'NONE', *, *, #658, .F. ) ;
#1016 = CARTESIAN_POINT ( 'NONE',  ( -9.000000000000000000, -3.000000000000000444, -18.00000000000000000 ) ) ;
#1017 = PLANE ( 'NONE',  #443 ) ;
#1018 = AXIS2_PLACEMENT_3D ( 'NONE', #221, #29, #117 ) ;
#1019 = ORIENTED_EDGE ( 'NONE', *, *, #211, .F. ) ;
#1020 = DIRECTION ( 'NONE',  ( 0.000000000000000000, 0.000000000000000000, 1.000000000000000000 ) ) ;
#1021 = ADVANCED_FACE ( 'NONE', ( #58 ), #732, .F. ) ;
#1022 = VECTOR ( 'NONE', #957, 1000.000000000000000 ) ;
#1023 = DIRECTION ( 'NONE',  ( -1.000000000000000000, -0.000000000000000000, -0.000000000000000000 ) ) ;
#1024 = LINE ( 'NONE', #90, #112 ) ;
#1025 = ORIENTED_EDGE ( 'NONE', *, *, #1008, .F. ) ;
#1026 = CYLINDRICAL_SURFACE ( 'NONE', #622, 0.2500000000000002220 ) ;
#1027 = EDGE_CURVE ( 'NONE', #525, #91, #975, .T. ) ;
#1028 = DIRECTION ( 'NONE',  ( -1.000000000000000000, 0.000000000000000000, -0.000000000000000000 ) ) ;
#1029 = ORIENTED_EDGE ( 'NONE', *, *, #116, .F. ) ;
#1030 = DIRECTION ( 'NONE',  ( 1.000000000000000000, 0.000000000000000000, 0.000000000000000000 ) ) ;
#1031 = ADVANCED_FACE ( 'NONE', ( #897 ), #236, .T. ) ;
#1032 = CARTESIAN_POINT ( 'NONE',  ( 6.769999999999996909, 3.500000000000000888, 0.000000000000000000 ) ) ;
#1033 = VERTEX_POINT ( 'NONE', #579 ) ;
#1034 = AXIS2_PLACEMENT_3D ( 'NONE', #77, #809, #152 ) ;
#1035 = CARTESIAN_POINT ( 'NONE',  ( -9.250000000000001776, 0.000000000000000000, 0.5000000000000000000 ) ) ;
#1036 = VECTOR ( 'NONE', #113, 1000.000000000000000 ) ;
#1037 = LINE ( 'NONE', #142, #668 ) ;
#1038 = VECTOR ( 'NONE', #384, 1000.000000000000000 ) ;
#1039 = ORIENTED_EDGE ( 'NONE', *, *, #86, .F. ) ;
#1040 = EDGE_CURVE ( 'NONE', #512, #781, #78, .T. ) ;
#1041 = CARTESIAN_POINT ( 'NONE',  ( 9.249999999999998224, -3.499999999999999556, -18.50000000000000000 ) ) ;
#1042 = VERTEX_POINT ( 'NONE', #678 ) ;
#1043 = ADVANCED_FACE ( 'NONE', ( #926 ), #673, .T. ) ;
#1044 = CARTESIAN_POINT ( 'NONE',  ( 9.249999999999998224, 3.249999999999999556, 0.2500000000000000000 ) ) ;
#1045 = CARTESIAN_POINT ( 'NONE',  ( -9.500000000000001776, -3.499999999999999556, 0.2500000000000002220 ) ) ;
#1046 = ORIENTED_EDGE ( 'NONE', *, *, #567, .T. ) ;
#1047 = CARTESIAN_POINT ( 'NONE',  ( -9.000000000000000000, 2.999999999999999556, 0.000000000000000000 ) ) ;
#1048 = AXIS2_PLACEMENT_3D ( 'NONE', #1069, #741, #74 ) ;
#1049 = EDGE_CURVE ( 'NONE', #901, #68, #1024, .T. ) ;
#1050 = DIRECTION ( 'NONE',  ( -1.000000000000000000, -1.239088197126291063E-16, 0.000000000000000000 ) ) ;
#1051 = ORIENTED_EDGE ( 'NONE', *, *, #464, .T. ) ;
#1052 = ORIENTED_EDGE ( 'NONE', *, *, #614, .T. ) ;
#1053 = CIRCLE ( 'NONE', #8, 0.2500000000000002220 ) ;
#1054 = LINE ( 'NONE', #959, #256 ) ;
#1055 = VECTOR ( 'NONE', #159, 1000.000000000000000 ) ;
#1056 = PLANE ( 'NONE',  #355 ) ;
#1057 = ORIENTED_EDGE ( 'NONE', *, *, #274, .T. ) ;
#1058 = CARTESIAN_POINT ( 'NONE',  ( -9.250000000000001776, 3.249999999999999556, 0.5000000000000000000 ) ) ;
#1059 = FACE_OUTER_BOUND ( 'NONE', #1085, .T. ) ;
#1060 = DIRECTION ( 'NONE',  ( -1.000000000000000000, 0.000000000000000000, -0.000000000000000000 ) ) ;
#1061 = LINE ( 'NONE', #723, #499 ) ;
#1062 = ADVANCED_FACE ( 'NONE', ( #834 ), #276, .F. ) ;
#1063 = VERTEX_POINT ( 'NONE', #753 ) ;
#1064 = DIRECTION ( 'NONE',  ( 0.000000000000000000, -1.000000000000000000, 0.000000000000000000 ) ) ;
#1065 = EDGE_CURVE ( 'NONE', #69, #849, #865, .T. ) ;
#1066 = CARTESIAN_POINT ( 'NONE',  ( 6.769999999999996909, 2.999999999999999556, 0.000000000000000000 ) ) ;
#1067 = ORIENTED_EDGE ( 'NONE', *, *, #1040, .T. ) ;
#1068 = CARTESIAN_POINT ( 'NONE',  ( -9.250000000000001776, 3.249999999999999556, -18.25000000000000000 ) ) ;
#1069 = CARTESIAN_POINT ( 'NONE',  ( -9.250000000000001776, 3.249999999999999556, 0.2500000000000000000 ) ) ;
#1070 = CIRCLE ( 'NONE', #569, 0.2500000000000002220 ) ;
#1071 = VERTEX_POINT ( 'NONE', #5 ) ;
#1072 = DIRECTION ( 'NONE',  ( 0.000000000000000000, 1.000000000000000000, 0.000000000000000000 ) ) ;
#1073 = DIRECTION ( 'NONE',  ( 0.000000000000000000, 0.000000000000000000, 1.000000000000000000 ) ) ;
#1074 = CIRCLE ( 'NONE', #965, 0.2500000000000002220 ) ;
#1075 = DIRECTION ( 'NONE',  ( -1.000000000000000000, 0.000000000000000000, 0.000000000000000000 ) ) ;
#1076 = LINE ( 'NONE', #561, #894 ) ;
#1077 = ORIENTED_EDGE ( 'NONE', *, *, #779, .F. ) ;
#1078 = EDGE_LOOP ( 'NONE', ( #875, #272, #820 ) ) ;
#1079 = FACE_OUTER_BOUND ( 'NONE', #109, .T. ) ;
#1080 = EDGE_CURVE ( 'NONE', #802, #608, #266, .T. ) ;
#1081 = DIRECTION ( 'NONE',  ( 1.239088197126290817E-16, -1.000000000000000000, 0.000000000000000000 ) ) ;
#1082 = DIRECTION ( 'NONE',  ( 0.000000000000000000, 0.000000000000000000, 1.000000000000000000 ) ) ;
#1083 = ORIENTED_EDGE ( 'NONE', *, *, #32, .F. ) ;
#1084 = CARTESIAN_POINT ( 'NONE',  ( 6.769999999999996909, 3.500000000000000888, 0.000000000000000000 ) ) ;
#1085 = EDGE_LOOP ( 'NONE', ( #735, #731, #502 ) ) ;
ENDSEC;
END-ISO-10303-21;
