ISO-10303-21;
HEADER;
FILE_DESCRIPTION (( 'STEP AP214' ),
    '1' );
FILE_NAME ('SiO2+SiPM+PTFE.STEP',
    '2026-01-09T11:21:24',
    ( '' ),
    ( '' ),
    'SwSTEP 2.0',
    'SolidWorks 2024',
    '' );
FILE_SCHEMA (( 'AUTOMOTIVE_DESIGN' ));
ENDSEC;

DATA;
#1 =( NAMED_UNIT ( * ) PLANE_ANGLE_UNIT ( ) SI_UNIT ( $, .RADIAN. ) );
#2 = PROPERTY_DEFINITION ('document property','', #129 ) ;
#3 = OBJECT_ROLE ('mandatory',$ ) ;
#4 = AXIS2_PLACEMENT_3D ( 'NONE', #12, #164, #123 ) ;
#5 =( LENGTH_UNIT ( ) NAMED_UNIT ( * ) SI_UNIT ( .MILLI., .METRE. ) );
#6 = PRODUCT ( 'SiO2 Radiator', 'SiO2 Radiator', '', ( #42 ) ) ;
#7 = CARTESIAN_POINT ( 'NONE',  ( 0.000000000000000000, 0.000000000000000000, 0.000000000000000000 ) ) ;
#8 = CARTESIAN_POINT ( 'NONE',  ( 16.85033490685161439, 8.419840659910471814, 1.803836378720259592 ) ) ;
#9 = ROLE_ASSOCIATION ( #172, #110 ) ;
#10 = PRODUCT_DEFINITION_FORMATION_WITH_SPECIFIED_SOURCE ( 'Symmetric', '', #148, .NOT_KNOWN. ) ;
#11 = PRODUCT_DEFINITION_CONTEXT ( 'detailed design', #58, 'design' ) ;
#12 = CARTESIAN_POINT ( 'NONE',  ( 19.57350609485715154, 6.148135736169725085, 3.443053386579960407 ) ) ;
#13 = APPLICATION_PROTOCOL_DEFINITION ( 'draft international standard', 'automotive_design', 1998, #151 ) ;
#14 = CONTEXT_DEPENDENT_SHAPE_REPRESENTATION ( #98, #66 ) ;
#15 =( GEOMETRIC_REPRESENTATION_CONTEXT ( 3 ) GLOBAL_UNCERTAINTY_ASSIGNED_CONTEXT ( ( #24 ) ) GLOBAL_UNIT_ASSIGNED_CONTEXT ( ( #82, #103, #71 ) ) REPRESENTATION_CONTEXT ( 'NONE', 'WORKASPACE' ) );
#16 = UNCERTAINTY_MEASURE_WITH_UNIT (LENGTH_MEASURE( 1.000000000000000082E-05 ), #32, 'distance_accuracy_value', 'NONE');
#17 = ROLE_ASSOCIATION ( #3, #153 ) ;
#18 = CARTESIAN_POINT ( 'NONE',  ( 0.000000000000000000, 0.000000000000000000, 0.000000000000000000 ) ) ;
#19 = PRODUCT_RELATED_PRODUCT_CATEGORY ( 'part', '', ( #148 ) ) ;
#20 = SHAPE_REPRESENTATION ( 'SiPM 2x1', ( #51 ), #15 ) ;
#21 = UNCERTAINTY_MEASURE_WITH_UNIT (LENGTH_MEASURE( 1.000000000000000082E-05 ), #85, 'distance_accuracy_value', 'NONE');
#22 = DIRECTION ( 'NONE',  ( -3.491481338843133355E-15, 0.000000000000000000, -1.000000000000000000 ) ) ;
#23 = PRODUCT_RELATED_PRODUCT_CATEGORY ( 'part', '', ( #116 ) ) ;
#24 = UNCERTAINTY_MEASURE_WITH_UNIT (LENGTH_MEASURE( 1.000000000000000082E-05 ), #82, 'distance_accuracy_value', 'NONE');
#25 = ITEM_DEFINED_TRANSFORMATION ( 'NONE', 'NONE', #99,  #51 ) ;
#26 = PRODUCT_DEFINITION_SHAPE ( 'NONE', 'NONE',  #76 ) ;
#27 = APPLIED_EXTERNAL_IDENTIFICATION_ASSIGNMENT ( 'SiO2 Radiator.STEP' , #87, #65,( #81) ) ;
#28 = AXIS2_PLACEMENT_3D ( 'NONE', #135, #57, #188 ) ;
#29 = PRODUCT_DEFINITION_SHAPE ( 'NONE', 'NONE',  #193 ) ;
#30 = PRODUCT_DEFINITION ( 'General', '', #10, #150 ) ;
#31 = PRODUCT_DEFINITION_SHAPE ( 'NONE', 'NONE',  #48 ) ;
#32 =( LENGTH_UNIT ( ) NAMED_UNIT ( * ) SI_UNIT ( .MILLI., .METRE. ) );
#33 = PRODUCT_RELATED_PRODUCT_CATEGORY ( 'part', '', ( #67 ) ) ;
#34 =( NAMED_UNIT ( * ) PLANE_ANGLE_UNIT ( ) SI_UNIT ( $, .RADIAN. ) );
#35 = PROPERTY_DEFINITION ('external definition','', #129 ) ;
#36 = PRODUCT_CONTEXT ( 'NONE', #151, 'mechanical' ) ;
#37 = IDENTIFICATION_ROLE ( 'external document id and location', $) ;
#38 = APPLICATION_PROTOCOL_DEFINITION ( 'draft international standard', 'automotive_design', 1998, #74 ) ;
#39 = PRODUCT_DEFINITION ( 'General', '', #178, #11 ) ;
#40 =( GEOMETRIC_REPRESENTATION_CONTEXT ( 3 ) GLOBAL_UNCERTAINTY_ASSIGNED_CONTEXT ( ( #163 ) ) GLOBAL_UNIT_ASSIGNED_CONTEXT ( ( #5, #34, #109 ) ) REPRESENTATION_CONTEXT ( 'NONE', 'WORKASPACE' ) );
#41 = PRODUCT_CONTEXT ( 'NONE', #104, 'mechanical' ) ;
#42 = PRODUCT_CONTEXT ( 'NONE', #74, 'mechanical' ) ;
#43 = PROPERTY_DEFINITION_REPRESENTATION ( #2, #44 ) ;
#44 = SHAPE_REPRESENTATION ( 'PTFE Wrap', ( #96 ), #140 ) ;
#45 = DOCUMENT_TYPE ( 'geometry' ) ;
#46 = ROLE_ASSOCIATION ( #84, #113 ) ;
#47 = PRODUCT_DEFINITION_FORMATION_WITH_SPECIFIED_SOURCE ( 'Symmetric', '', #116, .NOT_KNOWN. ) ;
#48 = PRODUCT_DEFINITION ( 'General', '', #152, #95 ) ;
#49 = DIRECTION ( 'NONE',  ( 1.000000000000000000, 0.000000000000000000, 0.000000000000000000 ) ) ;
#50 =( NAMED_UNIT ( * ) SI_UNIT ( $, .STERADIAN. ) SOLID_ANGLE_UNIT ( ) );
#51 = AXIS2_PLACEMENT_3D ( 'NONE', #54, #130, #132 ) ;
#52 = PRODUCT_DEFINITION_SHAPE ( 'NONE', 'NONE',  #30 ) ;
#53 = DOCUMENT_TYPE ( 'geometry' ) ;
#54 = CARTESIAN_POINT ( 'NONE',  ( 0.000000000000000000, 0.000000000000000000, 0.000000000000000000 ) ) ;
#55 = PROPERTY_DEFINITION ('external definition','', #179 ) ;
#56 = PRODUCT_DEFINITION ( 'General', '', #47, #166 ) ;
#57 = DIRECTION ( 'NONE',  ( 0.000000000000000000, 0.000000000000000000, 1.000000000000000000 ) ) ;
#58 = APPLICATION_CONTEXT ( 'automotive_design' ) ;
#59 = CARTESIAN_POINT ( 'NONE',  ( 22.32350609485726167, 6.148135736169538568, 3.443053386579755681 ) ) ;
#60 = PRODUCT_DEFINITION_SHAPE ( 'NONE', 'NONE',  #56 ) ;
#61 = SHAPE_DEFINITION_REPRESENTATION ( #31, #20 ) ;
#62 = PROPERTY_DEFINITION_REPRESENTATION ( #131, #20 ) ;
#63 = PROPERTY_DEFINITION_REPRESENTATION ( #173, #20 ) ;
#64 = PRODUCT_DEFINITION_CONTEXT ( 'detailed design', #133, 'design' ) ;
#65 = EXTERNAL_SOURCE (IDENTIFIER('') ) ;
#66 = PRODUCT_DEFINITION_SHAPE ( 'NONE', 'NONE',  #194 ) ;
#67 = PRODUCT ( 'SiPM 2x1', 'SiPM 2x1', '', ( #41 ) ) ;
#68 =( NAMED_UNIT ( * ) SI_UNIT ( $, .STERADIAN. ) SOLID_ANGLE_UNIT ( ) );
#69 = AXIS2_PLACEMENT_3D ( 'NONE', #59, #78, #22 ) ;
#70 =( REPRESENTATION_RELATIONSHIP ('NONE','NONE', #91, #106 ) REPRESENTATION_RELATIONSHIP_WITH_TRANSFORMATION ( #156 )SHAPE_REPRESENTATION_RELATIONSHIP( ) );
#71 =( NAMED_UNIT ( * ) SI_UNIT ( $, .STERADIAN. ) SOLID_ANGLE_UNIT ( ) );
#72 = IDENTIFICATION_ROLE ( 'external document id and location', $) ;
#73 = PROPERTY_DEFINITION_REPRESENTATION ( #55, #106 ) ;
#74 = APPLICATION_CONTEXT ( 'automotive_design' ) ;
#75 = DIRECTION ( 'NONE',  ( 0.000000000000000000, 0.000000000000000000, 1.000000000000000000 ) ) ;
#76 = PRODUCT_DEFINITION ( 'General', '', #182, #64 ) ;
#77 = SHAPE_DEFINITION_REPRESENTATION ( #60, #106 ) ;
#78 = DIRECTION ( 'NONE',  ( 1.000000000000000000, -1.396592535537253342E-14, -3.491481338843133355E-15 ) ) ;
#79 = PROPERTY_DEFINITION_REPRESENTATION ( #83, #102 ) ;
#80 = APPLICATION_CONTEXT ( 'automotive_design' ) ;
#81 = DOCUMENT_FILE ( 'SiO2 Radiator.STEP' , '', '', #108, '' ,$ ) ;
#82 =( LENGTH_UNIT ( ) NAMED_UNIT ( * ) SI_UNIT ( .MILLI., .METRE. ) );
#83 = PROPERTY_DEFINITION ('external definition','', #81 ) ;
#84 = OBJECT_ROLE ('mandatory',$ ) ;
#85 =( LENGTH_UNIT ( ) NAMED_UNIT ( * ) SI_UNIT ( .MILLI., .METRE. ) );
#86 = AXIS2_PLACEMENT_3D ( 'NONE', #117, #75, #159 ) ;
#87 = IDENTIFICATION_ROLE ( 'external document id and location', $) ;
#88 = APPLICATION_PROTOCOL_DEFINITION ( 'draft international standard', 'automotive_design', 1998, #120 ) ;
#89 = APPLIED_EXTERNAL_IDENTIFICATION_ASSIGNMENT ( 'SiPM 2x1.STEP' , #37, #93,( #100) ) ;
#90 = DIRECTION ( 'NONE',  ( 1.000000000000000000, 3.491481338843179898E-15, -1.406229888181566588E-14 ) ) ;
#91 = SHAPE_REPRESENTATION ( 'SiO2+SiPM+PTFE', ( #86, #69, #99, #4, #28 ), #167 ) ;
#92 = APPLICATION_PROTOCOL_DEFINITION ( 'draft international standard', 'automotive_design', 1998, #80 ) ;
#93 = EXTERNAL_SOURCE (IDENTIFIER('') ) ;
#94 =( NAMED_UNIT ( * ) SI_UNIT ( $, .STERADIAN. ) SOLID_ANGLE_UNIT ( ) );
#95 = PRODUCT_DEFINITION_CONTEXT ( 'detailed design', #170, 'design' ) ;
#96 = AXIS2_PLACEMENT_3D ( 'NONE', #18, #144, #155 ) ;
#97 = APPLICATION_PROTOCOL_DEFINITION ( 'draft international standard', 'automotive_design', 1998, #114 ) ;
#98 =( REPRESENTATION_RELATIONSHIP ('NONE','NONE', #91, #102 ) REPRESENTATION_RELATIONSHIP_WITH_TRANSFORMATION ( #181 )SHAPE_REPRESENTATION_RELATIONSHIP( ) );
#99 = AXIS2_PLACEMENT_3D ( 'NONE', #8, #90, #107 ) ;
#100 = DOCUMENT_FILE ( 'SiPM 2x1.STEP' , '', '', #45, '' ,$ ) ;
#101 = OBJECT_ROLE ('mandatory',$ ) ;
#102 = SHAPE_REPRESENTATION ( 'SiO2 Radiator', ( #122 ), #40 ) ;
#103 =( NAMED_UNIT ( * ) PLANE_ANGLE_UNIT ( ) SI_UNIT ( $, .RADIAN. ) );
#104 = APPLICATION_CONTEXT ( 'automotive_design' ) ;
#105 = PROPERTY_DEFINITION ('document property','', #179 ) ;
#106 = SHAPE_REPRESENTATION ( 'AFBR-S4N66P024M Mount', ( #157 ), #174 ) ;
#107 = DIRECTION ( 'NONE',  ( 1.406229888181569112E-14, -6.982962677686060818E-15, 1.000000000000000000 ) ) ;
#108 = DOCUMENT_TYPE ( 'geometry' ) ;
#109 =( NAMED_UNIT ( * ) SI_UNIT ( $, .STERADIAN. ) SOLID_ANGLE_UNIT ( ) );
#110 = APPLIED_DOCUMENT_REFERENCE ( #179,'',( #56) ) ;
#111 =( REPRESENTATION_RELATIONSHIP ('NONE','NONE', #91, #20 ) REPRESENTATION_RELATIONSHIP_WITH_TRANSFORMATION ( #25 )SHAPE_REPRESENTATION_RELATIONSHIP( ) );
#112 = CONTEXT_DEPENDENT_SHAPE_REPRESENTATION ( #70, #160 ) ;
#113 = APPLIED_DOCUMENT_REFERENCE ( #100,'',( #48) ) ;
#114 = APPLICATION_CONTEXT ( 'automotive_design' ) ;
#115 = ROLE_ASSOCIATION ( #101, #190 ) ;
#116 = PRODUCT ( 'AFBR-S4N66P024M Mount', 'AFBR-S4N66P024M Mount', '', ( #36 ) ) ;
#117 = CARTESIAN_POINT ( 'NONE',  ( 0.000000000000000000, 0.000000000000000000, 0.000000000000000000 ) ) ;
#118 = DIRECTION ( 'NONE',  ( 0.000000000000000000, 0.000000000000000000, 1.000000000000000000 ) ) ;
#119 = PRODUCT_DEFINITION_SHAPE ( 'NONE', 'NONE',  #192 ) ;
#120 = APPLICATION_CONTEXT ( 'automotive_design' ) ;
#121 = DIRECTION ( 'NONE',  ( 0.000000000000000000, 0.000000000000000000, 1.000000000000000000 ) ) ;
#122 = AXIS2_PLACEMENT_3D ( 'NONE', #142, #118, #49 ) ;
#123 = DIRECTION ( 'NONE',  ( 9.637352644315592778E-17, 0.000000000000000000, 1.000000000000000000 ) ) ;
#124 =( LENGTH_UNIT ( ) NAMED_UNIT ( * ) SI_UNIT ( .MILLI., .METRE. ) );
#125 = APPLICATION_PROTOCOL_DEFINITION ( 'draft international standard', 'automotive_design', 1998, #104 ) ;
#126 = APPLICATION_PROTOCOL_DEFINITION ( 'draft international standard', 'automotive_design', 1998, #58 ) ;
#127 = PRODUCT ( 'PTFE Wrap', 'PTFE Wrap', '', ( #134 ) ) ;
#128 = CONTEXT_DEPENDENT_SHAPE_REPRESENTATION ( #176, #29 ) ;
#129 = DOCUMENT_FILE ( 'PTFE Wrap.STEP' , '', '', #53, '' ,$ ) ;
#130 = DIRECTION ( 'NONE',  ( 0.000000000000000000, 0.000000000000000000, 1.000000000000000000 ) ) ;
#131 = PROPERTY_DEFINITION ('document property','', #100 ) ;
#132 = DIRECTION ( 'NONE',  ( 1.000000000000000000, 0.000000000000000000, 0.000000000000000000 ) ) ;
#133 = APPLICATION_CONTEXT ( 'automotive_design' ) ;
#134 = PRODUCT_CONTEXT ( 'NONE', #114, 'mechanical' ) ;
#135 = CARTESIAN_POINT ( 'NONE',  ( 10.57350609485714976, 3.148135736169725529, 3.443053386579960407 ) ) ;
#136 = EXTERNAL_SOURCE (IDENTIFIER('') ) ;
#137 = SHAPE_DEFINITION_REPRESENTATION ( #154, #102 ) ;
#138 = ITEM_DEFINED_TRANSFORMATION ( 'NONE', 'NONE', #4,  #96 ) ;
#139 = PROPERTY_DEFINITION_REPRESENTATION ( #141, #102 ) ;
#140 =( GEOMETRIC_REPRESENTATION_CONTEXT ( 3 ) GLOBAL_UNCERTAINTY_ASSIGNED_CONTEXT ( ( #21 ) ) GLOBAL_UNIT_ASSIGNED_CONTEXT ( ( #85, #1, #50 ) ) REPRESENTATION_CONTEXT ( 'NONE', 'WORKASPACE' ) );
#141 = PROPERTY_DEFINITION ('document property','', #81 ) ;
#142 = CARTESIAN_POINT ( 'NONE',  ( 0.000000000000000000, 0.000000000000000000, 0.000000000000000000 ) ) ;
#143 = DOCUMENT_TYPE ( 'geometry' ) ;
#144 = DIRECTION ( 'NONE',  ( 0.000000000000000000, 0.000000000000000000, 1.000000000000000000 ) ) ;
#145 = SHAPE_DEFINITION_REPRESENTATION ( #52, #91 ) ;
#146 = UNCERTAINTY_MEASURE_WITH_UNIT (LENGTH_MEASURE( 1.000000000000000082E-05 ), #124, 'distance_accuracy_value', 'NONE');
#147 = APPLICATION_PROTOCOL_DEFINITION ( 'draft international standard', 'automotive_design', 1998, #170 ) ;
#148 = PRODUCT ( 'SiO2+SiPM+PTFE', 'SiO2+SiPM+PTFE', '', ( #189 ) ) ;
#149 = APPLICATION_PROTOCOL_DEFINITION ( 'draft international standard', 'automotive_design', 1998, #158 ) ;
#150 = PRODUCT_DEFINITION_CONTEXT ( 'detailed design', #80, 'design' ) ;
#151 = APPLICATION_CONTEXT ( 'automotive_design' ) ;
#152 = PRODUCT_DEFINITION_FORMATION_WITH_SPECIFIED_SOURCE ( 'Symmetric', '', #67, .NOT_KNOWN. ) ;
#153 = APPLIED_DOCUMENT_REFERENCE ( #81,'',( #39) ) ;
#154 = PRODUCT_DEFINITION_SHAPE ( 'NONE', 'NONE',  #39 ) ;
#155 = DIRECTION ( 'NONE',  ( 1.000000000000000000, 0.000000000000000000, 0.000000000000000000 ) ) ;
#156 = ITEM_DEFINED_TRANSFORMATION ( 'NONE', 'NONE', #69,  #157 ) ;
#157 = AXIS2_PLACEMENT_3D ( 'NONE', #7, #121, #171 ) ;
#158 = APPLICATION_CONTEXT ( 'automotive_design' ) ;
#159 = DIRECTION ( 'NONE',  ( 1.000000000000000000, 0.000000000000000000, 0.000000000000000000 ) ) ;
#160 = PRODUCT_DEFINITION_SHAPE ( 'NONE', 'NONE',  #191 ) ;
#161 = PRODUCT_RELATED_PRODUCT_CATEGORY ( 'part', '', ( #6 ) ) ;
#162 = PROPERTY_DEFINITION_REPRESENTATION ( #105, #106 ) ;
#163 = UNCERTAINTY_MEASURE_WITH_UNIT (LENGTH_MEASURE( 1.000000000000000082E-05 ), #5, 'distance_accuracy_value', 'NONE');
#164 = DIRECTION ( 'NONE',  ( 1.000000000000000000, 0.000000000000000000, -9.637352644315592778E-17 ) ) ;
#165 = PROPERTY_DEFINITION_REPRESENTATION ( #35, #44 ) ;
#166 = PRODUCT_DEFINITION_CONTEXT ( 'detailed design', #120, 'design' ) ;
#167 =( GEOMETRIC_REPRESENTATION_CONTEXT ( 3 ) GLOBAL_UNCERTAINTY_ASSIGNED_CONTEXT ( ( #146 ) ) GLOBAL_UNIT_ASSIGNED_CONTEXT ( ( #124, #186, #94 ) ) REPRESENTATION_CONTEXT ( 'NONE', 'WORKASPACE' ) );
#168 = APPLIED_EXTERNAL_IDENTIFICATION_ASSIGNMENT ( 'AFBR-S4N66P024M Mount.STEP' , #180, #136,( #179) ) ;
#169 = CONTEXT_DEPENDENT_SHAPE_REPRESENTATION ( #111, #119 ) ;
#170 = APPLICATION_CONTEXT ( 'automotive_design' ) ;
#171 = DIRECTION ( 'NONE',  ( 1.000000000000000000, 0.000000000000000000, 0.000000000000000000 ) ) ;
#172 = OBJECT_ROLE ('mandatory',$ ) ;
#173 = PROPERTY_DEFINITION ('external definition','', #100 ) ;
#174 =( GEOMETRIC_REPRESENTATION_CONTEXT ( 3 ) GLOBAL_UNCERTAINTY_ASSIGNED_CONTEXT ( ( #16 ) ) GLOBAL_UNIT_ASSIGNED_CONTEXT ( ( #32, #175, #68 ) ) REPRESENTATION_CONTEXT ( 'NONE', 'WORKASPACE' ) );
#175 =( NAMED_UNIT ( * ) PLANE_ANGLE_UNIT ( ) SI_UNIT ( $, .RADIAN. ) );
#176 =( REPRESENTATION_RELATIONSHIP ('NONE','NONE', #91, #44 ) REPRESENTATION_RELATIONSHIP_WITH_TRANSFORMATION ( #138 )SHAPE_REPRESENTATION_RELATIONSHIP( ) );
#177 = SHAPE_DEFINITION_REPRESENTATION ( #26, #44 ) ;
#178 = PRODUCT_DEFINITION_FORMATION_WITH_SPECIFIED_SOURCE ( 'Symmetric', '', #6, .NOT_KNOWN. ) ;
#179 = DOCUMENT_FILE ( 'AFBR-S4N66P024M Mount.STEP' , '', '', #143, '' ,$ ) ;
#180 = IDENTIFICATION_ROLE ( 'external document id and location', $) ;
#181 = ITEM_DEFINED_TRANSFORMATION ( 'NONE', 'NONE', #28,  #122 ) ;
#182 = PRODUCT_DEFINITION_FORMATION_WITH_SPECIFIED_SOURCE ( 'Symmetric', '', #127, .NOT_KNOWN. ) ;
#183 = APPLIED_EXTERNAL_IDENTIFICATION_ASSIGNMENT ( 'PTFE Wrap.STEP' , #72, #184,( #129) ) ;
#184 = EXTERNAL_SOURCE (IDENTIFIER('') ) ;
#185 = APPLICATION_PROTOCOL_DEFINITION ( 'draft international standard', 'automotive_design', 1998, #133 ) ;
#186 =( NAMED_UNIT ( * ) PLANE_ANGLE_UNIT ( ) SI_UNIT ( $, .RADIAN. ) );
#187 = PRODUCT_RELATED_PRODUCT_CATEGORY ( 'part', '', ( #127 ) ) ;
#188 = DIRECTION ( 'NONE',  ( 1.000000000000000000, 0.000000000000000000, 0.000000000000000000 ) ) ;
#189 = PRODUCT_CONTEXT ( 'NONE', #158, 'mechanical' ) ;
#190 = APPLIED_DOCUMENT_REFERENCE ( #129,'',( #76) ) ;
#191 = NEXT_ASSEMBLY_USAGE_OCCURRENCE ( 'NAUO3', ' ', ' ', #30, #56, $ ) ;
#192 = NEXT_ASSEMBLY_USAGE_OCCURRENCE ( 'NAUO4', ' ', ' ', #30, #48, $ ) ;
#193 = NEXT_ASSEMBLY_USAGE_OCCURRENCE ( 'NAUO5', ' ', ' ', #30, #76, $ ) ;
#194 = NEXT_ASSEMBLY_USAGE_OCCURRENCE ( 'NAUO6', ' ', ' ', #30, #39, $ ) ;
ENDSEC;
END-ISO-10303-21;
