ISO-10303-21;
HEADER;
FILE_DESCRIPTION (( 'STEP AP214' ),
    '1' );
FILE_NAME ('SiO2 Radiator.STEP',
    '2026-01-09T11:21:24',
    ( '' ),
    ( '' ),
    'SwSTEP 2.0',
    'SolidWorks 2024',
    '' );
FILE_SCHEMA (( 'AUTOMOTIVE_DESIGN' ));
ENDSEC;

DATA;
#1 = EDGE_CURVE ( 'NONE', #10, #84, #116, .T. ) ;
#2 = VECTOR ( 'NONE', #146, 1000.000000000000000 ) ;
#3 = ORIENTED_EDGE ( 'NONE', *, *, #1, .F. ) ;
#4 = ORIENTED_EDGE ( 'NONE', *, *, #129, .T. ) ;
#5 = EDGE_CURVE ( 'NONE', #131, #10, #53, .T. ) ;
#6 = CARTESIAN_POINT ( 'NONE',  ( -8.999999999999998224, 6.000000000000000000, 8.999999999999998224 ) ) ;
#7 = DIRECTION ( 'NONE',  ( 0.000000000000000000, -0.000000000000000000, 1.000000000000000000 ) ) ;
#8 = CARTESIAN_POINT ( 'NONE',  ( -9.000000000000000000, 6.000000000000000000, -9.000000000000001776 ) ) ;
#9 = UNCERTAINTY_MEASURE_WITH_UNIT (LENGTH_MEASURE( 1.000000000000000082E-05 ), #13, 'distance_accuracy_value', 'NONE');
#10 = VERTEX_POINT ( 'NONE', #182 ) ;
#11 = ORIENTED_EDGE ( 'NONE', *, *, #155, .T. ) ;
#12 = VECTOR ( 'NONE', #52, 1000.000000000000000 ) ;
#13 =( LENGTH_UNIT ( ) NAMED_UNIT ( * ) SI_UNIT ( .MILLI., .METRE. ) );
#14 = DIRECTION ( 'NONE',  ( 0.000000000000000000, -0.000000000000000000, 1.000000000000000000 ) ) ;
#15 = VECTOR ( 'NONE', #165, 1000.000000000000000 ) ;
#16 = DIRECTION ( 'NONE',  ( 1.000000000000000000, 0.000000000000000000, -9.637352644315595243E-17 ) ) ;
#17 = VECTOR ( 'NONE', #25, 1000.000000000000000 ) ;
#18 = ORIENTED_EDGE ( 'NONE', *, *, #147, .F. ) ;
#19 = ORIENTED_EDGE ( 'NONE', *, *, #169, .F. ) ;
#20 = ORIENTED_EDGE ( 'NONE', *, *, #5, .F. ) ;
#21 = AXIS2_PLACEMENT_3D ( 'NONE', #167, #74, #7 ) ;
#22 = CARTESIAN_POINT ( 'NONE',  ( 9.000000000000001776, 6.000000000000000000, 8.999999999999998224 ) ) ;
#23 = PLANE ( 'NONE',  #43 ) ;
#24 = CARTESIAN_POINT ( 'NONE',  ( 9.000000000000000000, 6.000000000000000000, -9.000000000000001776 ) ) ;
#25 = DIRECTION ( 'NONE',  ( 9.637352644315595243E-17, 0.000000000000000000, 1.000000000000000000 ) ) ;
#26 = FACE_OUTER_BOUND ( 'NONE', #63, .T. ) ;
#27 = DIRECTION ( 'NONE',  ( -0.000000000000000000, -1.000000000000000000, -0.000000000000000000 ) ) ;
#28 =( LENGTH_UNIT ( ) NAMED_UNIT ( * ) SI_UNIT ( .MILLI., .METRE. ) );
#29 = ORIENTED_EDGE ( 'NONE', *, *, #1, .T. ) ;
#30 = EDGE_LOOP ( 'NONE', ( #136, #19, #145, #64 ) ) ;
#31 = VERTEX_POINT ( 'NONE', #184 ) ;
#32 = ORIENTED_EDGE ( 'NONE', *, *, #56, .F. ) ;
#33 = PRODUCT ( 'SiO2 Radiator', 'SiO2 Radiator', '', ( #44 ) ) ;
#34 = AXIS2_PLACEMENT_3D ( 'NONE', #151, #115, #50 ) ;
#35 = PLANE ( 'NONE',  #186 ) ;
#36 = EDGE_LOOP ( 'NONE', ( #4, #49, #3, #97 ) ) ;
#37 = EDGE_CURVE ( 'NONE', #131, #114, #119, .T. ) ;
#38 = VECTOR ( 'NONE', #27, 1000.000000000000000 ) ;
#39 = DIRECTION ( 'NONE',  ( 1.000000000000000000, 0.000000000000000000, -0.000000000000000000 ) ) ;
#40 = CARTESIAN_POINT ( 'NONE',  ( 9.000000000000000000, 0.000000000000000000, -9.000000000000001776 ) ) ;
#41 = LINE ( 'NONE', #90, #158 ) ;
#42 = CARTESIAN_POINT ( 'NONE',  ( -9.000000000000000000, 0.000000000000000000, -9.000000000000001776 ) ) ;
#43 = AXIS2_PLACEMENT_3D ( 'NONE', #76, #110, #14 ) ;
#44 = PRODUCT_CONTEXT ( 'NONE', #181, 'mechanical' ) ;
#45 = VECTOR ( 'NONE', #59, 1000.000000000000000 ) ;
#46 = CARTESIAN_POINT ( 'NONE',  ( -9.000000000000000000, 6.000000000000000000, -9.000000000000001776 ) ) ;
#47 = ADVANCED_FACE ( 'NONE', ( #79 ), #35, .F. ) ;
#48 = PRODUCT_DEFINITION_FORMATION_WITH_SPECIFIED_SOURCE ( 'Symmetric', '', #33, .NOT_KNOWN. ) ;
#49 = ORIENTED_EDGE ( 'NONE', *, *, #179, .F. ) ;
#50 = DIRECTION ( 'NONE',  ( -1.000000000000000000, 0.000000000000000000, -0.000000000000000000 ) ) ;
#51 = PRODUCT_DEFINITION ( 'General', '', #48, #107 ) ;
#52 = DIRECTION ( 'NONE',  ( -9.637352644315595243E-17, -0.000000000000000000, -1.000000000000000000 ) ) ;
#53 = LINE ( 'NONE', #24, #78 ) ;
#54 =( GEOMETRIC_REPRESENTATION_CONTEXT ( 3 ) GLOBAL_UNCERTAINTY_ASSIGNED_CONTEXT ( ( #103 ) ) GLOBAL_UNIT_ASSIGNED_CONTEXT ( ( #28, #185, #153 ) ) REPRESENTATION_CONTEXT ( 'NONE', 'WORKASPACE' ) );
#55 = DIRECTION ( 'NONE',  ( -1.000000000000000000, 0.000000000000000000, 9.637352644315595243E-17 ) ) ;
#56 = EDGE_CURVE ( 'NONE', #84, #72, #104, .T. ) ;
#57 = EDGE_LOOP ( 'NONE', ( #96, #29, #83, #71 ) ) ;
#58 = CARTESIAN_POINT ( 'NONE',  ( -8.999999999999998224, 6.000000000000000000, 8.999999999999998224 ) ) ;
#59 = DIRECTION ( 'NONE',  ( -0.000000000000000000, -1.000000000000000000, -0.000000000000000000 ) ) ;
#60 = FACE_OUTER_BOUND ( 'NONE', #163, .T. ) ;
#61 = COLOUR_RGB ( '',0.5019607843137254832, 1.000000000000000000, 1.000000000000000000 ) ;
#62 = CARTESIAN_POINT ( 'NONE',  ( -8.999999999999998224, 6.000000000000000000, 8.999999999999998224 ) ) ;
#63 = EDGE_LOOP ( 'NONE', ( #11, #18, #32, #99 ) ) ;
#64 = ORIENTED_EDGE ( 'NONE', *, *, #129, .F. ) ;
#65 = DIRECTION ( 'NONE',  ( -0.000000000000000000, -1.000000000000000000, -0.000000000000000000 ) ) ;
#66 = CARTESIAN_POINT ( 'NONE',  ( 0.000000000000000000, 0.000000000000000000, 0.000000000000000000 ) ) ;
#67 = EDGE_CURVE ( 'NONE', #72, #131, #121, .T. ) ;
#68 = FILL_AREA_STYLE_COLOUR ( '', #61 ) ;
#69 = AXIS2_PLACEMENT_3D ( 'NONE', #8, #166, #39 ) ;
#70 = LINE ( 'NONE', #58, #38 ) ;
#71 = ORIENTED_EDGE ( 'NONE', *, *, #67, .T. ) ;
#72 = VERTEX_POINT ( 'NONE', #6 ) ;
#73 = AXIS2_PLACEMENT_3D ( 'NONE', #142, #16, #170 ) ;
#74 = DIRECTION ( 'NONE',  ( 0.000000000000000000, 1.000000000000000000, 0.000000000000000000 ) ) ;
#75 = FACE_OUTER_BOUND ( 'NONE', #36, .T. ) ;
#76 = CARTESIAN_POINT ( 'NONE',  ( 0.000000000000000000, 0.000000000000000000, 0.000000000000000000 ) ) ;
#77 = ORIENTED_EDGE ( 'NONE', *, *, #147, .T. ) ;
#78 = VECTOR ( 'NONE', #108, 1000.000000000000000 ) ;
#79 = FACE_OUTER_BOUND ( 'NONE', #161, .T. ) ;
#80 = PRESENTATION_LAYER_ASSIGNMENT (  '', '', ( #140 ) ) ;
#81 = DIRECTION ( 'NONE',  ( 1.000000000000000000, 0.000000000000000000, 0.000000000000000000 ) ) ;
#82 = EDGE_CURVE ( 'NONE', #10, #175, #41, .T. ) ;
#83 = ORIENTED_EDGE ( 'NONE', *, *, #56, .T. ) ;
#84 = VERTEX_POINT ( 'NONE', #91 ) ;
#85 = ORIENTED_EDGE ( 'NONE', *, *, #67, .F. ) ;
#86 =( GEOMETRIC_REPRESENTATION_CONTEXT ( 3 ) GLOBAL_UNCERTAINTY_ASSIGNED_CONTEXT ( ( #9 ) ) GLOBAL_UNIT_ASSIGNED_CONTEXT ( ( #13, #124, #171 ) ) REPRESENTATION_CONTEXT ( 'NONE', 'WORKASPACE' ) );
#87 = DIRECTION ( 'NONE',  ( -1.000000000000000000, -0.000000000000000000, -0.000000000000000000 ) ) ;
#88 = CARTESIAN_POINT ( 'NONE',  ( 9.000000000000001776, 6.000000000000000000, 8.999999999999998224 ) ) ;
#89 = FACE_OUTER_BOUND ( 'NONE', #30, .T. ) ;
#90 = CARTESIAN_POINT ( 'NONE',  ( 9.000000000000000000, 6.000000000000000000, -9.000000000000001776 ) ) ;
#91 = CARTESIAN_POINT ( 'NONE',  ( -9.000000000000000000, 6.000000000000000000, -9.000000000000001776 ) ) ;
#92 = SURFACE_STYLE_FILL_AREA ( #154 ) ;
#93 = APPLICATION_PROTOCOL_DEFINITION ( 'draft international standard', 'automotive_design', 1998, #128 ) ;
#94 = ADVANCED_FACE ( 'NONE', ( #60 ), #178, .F. ) ;
#95 = LINE ( 'NONE', #125, #183 ) ;
#96 = ORIENTED_EDGE ( 'NONE', *, *, #5, .T. ) ;
#97 = ORIENTED_EDGE ( 'NONE', *, *, #82, .T. ) ;
#98 = ADVANCED_FACE ( 'NONE', ( #101 ), #132, .T. ) ;
#99 = ORIENTED_EDGE ( 'NONE', *, *, #179, .T. ) ;
#100 = VECTOR ( 'NONE', #139, 1000.000000000000000 ) ;
#101 = FACE_OUTER_BOUND ( 'NONE', #57, .T. ) ;
#102 = LINE ( 'NONE', #180, #15 ) ;
#103 = UNCERTAINTY_MEASURE_WITH_UNIT (LENGTH_MEASURE( 1.000000000000000082E-05 ), #28, 'distance_accuracy_value', 'NONE');
#104 = LINE ( 'NONE', #106, #17 ) ;
#105 = ADVANCED_BREP_SHAPE_REPRESENTATION ( 'SiO2 Radiator', ( #156, #137 ), #86 ) ;
#106 = CARTESIAN_POINT ( 'NONE',  ( -9.000000000000000000, 6.000000000000000000, -9.000000000000001776 ) ) ;
#107 = PRODUCT_DEFINITION_CONTEXT ( 'detailed design', #128, 'design' ) ;
#108 = DIRECTION ( 'NONE',  ( -9.637352644315595243E-17, -0.000000000000000000, -1.000000000000000000 ) ) ;
#109 = LINE ( 'NONE', #42, #100 ) ;
#110 = DIRECTION ( 'NONE',  ( 0.000000000000000000, 1.000000000000000000, 0.000000000000000000 ) ) ;
#111 = EDGE_CURVE ( 'NONE', #114, #175, #148, .T. ) ;
#112 = CARTESIAN_POINT ( 'NONE',  ( 9.000000000000000000, 0.000000000000000000, -9.000000000000001776 ) ) ;
#113 = ORIENTED_EDGE ( 'NONE', *, *, #82, .F. ) ;
#114 = VERTEX_POINT ( 'NONE', #134 ) ;
#115 = DIRECTION ( 'NONE',  ( 0.000000000000000000, 0.000000000000000000, -1.000000000000000000 ) ) ;
#116 = LINE ( 'NONE', #118, #120 ) ;
#117 = PRODUCT_RELATED_PRODUCT_CATEGORY ( 'part', '', ( #33 ) ) ;
#118 = CARTESIAN_POINT ( 'NONE',  ( -9.000000000000000000, 6.000000000000000000, -9.000000000000001776 ) ) ;
#119 = LINE ( 'NONE', #88, #149 ) ;
#120 = VECTOR ( 'NONE', #87, 1000.000000000000000 ) ;
#121 = LINE ( 'NONE', #62, #2 ) ;
#122 = DIRECTION ( 'NONE',  ( 1.000000000000000000, 0.000000000000000000, 0.000000000000000000 ) ) ;
#123 = APPLICATION_PROTOCOL_DEFINITION ( 'draft international standard', 'automotive_design', 1998, #181 ) ;
#124 =( NAMED_UNIT ( * ) PLANE_ANGLE_UNIT ( ) SI_UNIT ( $, .RADIAN. ) );
#125 = CARTESIAN_POINT ( 'NONE',  ( -8.999999999999998224, 0.000000000000000000, 8.999999999999998224 ) ) ;
#126 = PRODUCT_DEFINITION_SHAPE ( 'NONE', 'NONE',  #51 ) ;
#127 = ORIENTED_EDGE ( 'NONE', *, *, #169, .T. ) ;
#128 = APPLICATION_CONTEXT ( 'automotive_design' ) ;
#129 = EDGE_CURVE ( 'NONE', #175, #31, #102, .T. ) ;
#130 = MECHANICAL_DESIGN_GEOMETRIC_PRESENTATION_REPRESENTATION (  '', ( #140 ), #54 ) ;
#131 = VERTEX_POINT ( 'NONE', #22 ) ;
#132 = PLANE ( 'NONE',  #21 ) ;
#133 = PLANE ( 'NONE',  #69 ) ;
#134 = CARTESIAN_POINT ( 'NONE',  ( 9.000000000000001776, 0.000000000000000000, 8.999999999999998224 ) ) ;
#135 = ADVANCED_FACE ( 'NONE', ( #75 ), #133, .F. ) ;
#136 = ORIENTED_EDGE ( 'NONE', *, *, #111, .F. ) ;
#137 = AXIS2_PLACEMENT_3D ( 'NONE', #66, #141, #81 ) ;
#138 = LINE ( 'NONE', #46, #45 ) ;
#139 = DIRECTION ( 'NONE',  ( 9.637352644315595243E-17, 0.000000000000000000, 1.000000000000000000 ) ) ;
#140 = STYLED_ITEM ( 'NONE', ( #159 ), #156 ) ;
#141 = DIRECTION ( 'NONE',  ( 0.000000000000000000, 0.000000000000000000, 1.000000000000000000 ) ) ;
#142 = CARTESIAN_POINT ( 'NONE',  ( -9.000000000000000000, 6.000000000000000000, -9.000000000000001776 ) ) ;
#143 = VERTEX_POINT ( 'NONE', #150 ) ;
#144 = ADVANCED_FACE ( 'NONE', ( #89 ), #23, .F. ) ;
#145 = ORIENTED_EDGE ( 'NONE', *, *, #155, .F. ) ;
#146 = DIRECTION ( 'NONE',  ( 1.000000000000000000, 0.000000000000000000, 0.000000000000000000 ) ) ;
#147 = EDGE_CURVE ( 'NONE', #72, #143, #70, .T. ) ;
#148 = LINE ( 'NONE', #40, #12 ) ;
#149 = VECTOR ( 'NONE', #65, 1000.000000000000000 ) ;
#150 = CARTESIAN_POINT ( 'NONE',  ( -8.999999999999998224, 0.000000000000000000, 8.999999999999998224 ) ) ;
#151 = CARTESIAN_POINT ( 'NONE',  ( -8.999999999999998224, 6.000000000000000000, 8.999999999999998224 ) ) ;
#152 = DIRECTION ( 'NONE',  ( 9.637352644315595243E-17, 0.000000000000000000, 1.000000000000000000 ) ) ;
#153 =( NAMED_UNIT ( * ) SI_UNIT ( $, .STERADIAN. ) SOLID_ANGLE_UNIT ( ) );
#154 = FILL_AREA_STYLE ('',( #68 ) ) ;
#155 = EDGE_CURVE ( 'NONE', #31, #143, #109, .T. ) ;
#156 = MANIFOLD_SOLID_BREP ( 'Boss-Extrude1', #176 ) ;
#157 = SHAPE_DEFINITION_REPRESENTATION ( #126, #105 ) ;
#158 = VECTOR ( 'NONE', #177, 1000.000000000000000 ) ;
#159 = PRESENTATION_STYLE_ASSIGNMENT (( #173 ) ) ;
#160 = ADVANCED_FACE ( 'NONE', ( #26 ), #187, .F. ) ;
#161 = EDGE_LOOP ( 'NONE', ( #162, #113, #20, #174 ) ) ;
#162 = ORIENTED_EDGE ( 'NONE', *, *, #111, .T. ) ;
#163 = EDGE_LOOP ( 'NONE', ( #127, #168, #85, #77 ) ) ;
#164 = CARTESIAN_POINT ( 'NONE',  ( 9.000000000000000000, 6.000000000000000000, -9.000000000000001776 ) ) ;
#165 = DIRECTION ( 'NONE',  ( -1.000000000000000000, -0.000000000000000000, -0.000000000000000000 ) ) ;
#166 = DIRECTION ( 'NONE',  ( 0.000000000000000000, 0.000000000000000000, 1.000000000000000000 ) ) ;
#167 = CARTESIAN_POINT ( 'NONE',  ( 0.000000000000000000, 6.000000000000000000, 0.000000000000000000 ) ) ;
#168 = ORIENTED_EDGE ( 'NONE', *, *, #37, .F. ) ;
#169 = EDGE_CURVE ( 'NONE', #143, #114, #95, .T. ) ;
#170 = DIRECTION ( 'NONE',  ( -9.637352644315595243E-17, 0.000000000000000000, -1.000000000000000000 ) ) ;
#171 =( NAMED_UNIT ( * ) SI_UNIT ( $, .STERADIAN. ) SOLID_ANGLE_UNIT ( ) );
#172 = SURFACE_SIDE_STYLE ('',( #92 ) ) ;
#173 = SURFACE_STYLE_USAGE ( .BOTH. , #172 ) ;
#174 = ORIENTED_EDGE ( 'NONE', *, *, #37, .T. ) ;
#175 = VERTEX_POINT ( 'NONE', #112 ) ;
#176 = CLOSED_SHELL ( 'NONE', ( #47, #135, #160, #94, #98, #144 ) ) ;
#177 = DIRECTION ( 'NONE',  ( -0.000000000000000000, -1.000000000000000000, -0.000000000000000000 ) ) ;
#178 = PLANE ( 'NONE',  #34 ) ;
#179 = EDGE_CURVE ( 'NONE', #84, #31, #138, .T. ) ;
#180 = CARTESIAN_POINT ( 'NONE',  ( -9.000000000000000000, 0.000000000000000000, -9.000000000000001776 ) ) ;
#181 = APPLICATION_CONTEXT ( 'automotive_design' ) ;
#182 = CARTESIAN_POINT ( 'NONE',  ( 9.000000000000000000, 6.000000000000000000, -9.000000000000001776 ) ) ;
#183 = VECTOR ( 'NONE', #122, 1000.000000000000000 ) ;
#184 = CARTESIAN_POINT ( 'NONE',  ( -9.000000000000000000, 0.000000000000000000, -9.000000000000001776 ) ) ;
#185 =( NAMED_UNIT ( * ) PLANE_ANGLE_UNIT ( ) SI_UNIT ( $, .RADIAN. ) );
#186 = AXIS2_PLACEMENT_3D ( 'NONE', #164, #55, #152 ) ;
#187 = PLANE ( 'NONE',  #73 ) ;
ENDSEC;
END-ISO-10303-21;
