ISO-10303-21;
HEADER;
FILE_DESCRIPTION (( 'STEP AP214' ),
    '1' );
FILE_NAME ('SiPM 2x1.STEP',
    '2026-01-09T11:21:24',
    ( '' ),
    ( '' ),
    'SwSTEP 2.0',
    'SolidWorks 2024',
    '' );
FILE_SCHEMA (( 'AUTOMOTIVE_DESIGN' ));
ENDSEC;

DATA;
#1 = DIRECTION ( 'NONE',  ( -1.000000000000000000, 6.982962677686471814E-15, 1.396592535537250660E-14 ) ) ;
#2 = AXIS2_PLACEMENT_3D ( 'NONE', #62, #92, #71 ) ;
#3 = PRODUCT_DEFINITION_SHAPE ( 'NONE', 'NONE',  #10 ) ;
#4 = SHAPE_DEFINITION_REPRESENTATION ( #38, #13 ) ;
#5 = DOCUMENT_FILE ( 'SiPM base 2x1.STEP' , '', '', #83, '' ,$ ) ;
#6 = AXIS2_PLACEMENT_3D ( 'NONE', #9, #54, #36 ) ;
#7 = APPLICATION_CONTEXT ( 'automotive_design' ) ;
#8 =( LENGTH_UNIT ( ) NAMED_UNIT ( * ) SI_UNIT ( .MILLI., .METRE. ) );
#9 = CARTESIAN_POINT ( 'NONE',  ( 1.639217007859704367, 2.271704923740746285, 3.973171188005537591 ) ) ;
#10 = PRODUCT_DEFINITION ( 'General', '', #64, #60 ) ;
#11 = APPLICATION_CONTEXT ( 'automotive_design' ) ;
#12 = ITEM_DEFINED_TRANSFORMATION ( 'NONE', 'NONE', #6,  #103 ) ;
#13 = SHAPE_REPRESENTATION ( 'SiPM base 2x1', ( #103 ), #39 ) ;
#14 = APPLICATION_PROTOCOL_DEFINITION ( 'draft international standard', 'automotive_design', 1998, #11 ) ;
#15 = UNCERTAINTY_MEASURE_WITH_UNIT (LENGTH_MEASURE( 1.000000000000000082E-05 ), #8, 'distance_accuracy_value', 'NONE');
#16 = APPLIED_EXTERNAL_IDENTIFICATION_ASSIGNMENT ( 'SiPM lens 2x1.STEP' , #85, #25,( #49) ) ;
#17 = SHAPE_REPRESENTATION ( 'SiPM lens 2x1', ( #96 ), #43 ) ;
#18 =( LENGTH_UNIT ( ) NAMED_UNIT ( * ) SI_UNIT ( .MILLI., .METRE. ) );
#19 = PROPERTY_DEFINITION ('external definition','', #5 ) ;
#20 = SHAPE_REPRESENTATION ( 'SiPM 2x1', ( #2, #6, #23 ), #51 ) ;
#21 = APPLICATION_CONTEXT ( 'automotive_design' ) ;
#22 = CONTEXT_DEPENDENT_SHAPE_REPRESENTATION ( #79, #102 ) ;
#23 = AXIS2_PLACEMENT_3D ( 'NONE', #26, #94, #1 ) ;
#24 = PROPERTY_DEFINITION ('document property','', #5 ) ;
#25 = EXTERNAL_SOURCE (IDENTIFIER('') ) ;
#26 = CARTESIAN_POINT ( 'NONE',  ( 1.639217007859759878, 2.271704923740745397, 2.723171188005505172 ) ) ;
#27 =( REPRESENTATION_RELATIONSHIP ('NONE','NONE', #20, #17 ) REPRESENTATION_RELATIONSHIP_WITH_TRANSFORMATION ( #75 )SHAPE_REPRESENTATION_RELATIONSHIP( ) );
#28 =( NAMED_UNIT ( * ) SI_UNIT ( $, .STERADIAN. ) SOLID_ANGLE_UNIT ( ) );
#29 = CONTEXT_DEPENDENT_SHAPE_REPRESENTATION ( #27, #106 ) ;
#30 = APPLICATION_PROTOCOL_DEFINITION ( 'draft international standard', 'automotive_design', 1998, #7 ) ;
#31 = APPLIED_EXTERNAL_IDENTIFICATION_ASSIGNMENT ( 'SiPM base 2x1.STEP' , #80, #70,( #5) ) ;
#32 = APPLICATION_PROTOCOL_DEFINITION ( 'draft international standard', 'automotive_design', 1998, #21 ) ;
#33 = UNCERTAINTY_MEASURE_WITH_UNIT (LENGTH_MEASURE( 1.000000000000000082E-05 ), #99, 'distance_accuracy_value', 'NONE');
#34 = APPLICATION_CONTEXT ( 'automotive_design' ) ;
#35 = PRODUCT_CONTEXT ( 'NONE', #34, 'mechanical' ) ;
#36 = DIRECTION ( 'NONE',  ( 1.000000000000000000, -1.806491472956117034E-28, 1.577721810442023611E-30 ) ) ;
#37 =( NAMED_UNIT ( * ) SI_UNIT ( $, .STERADIAN. ) SOLID_ANGLE_UNIT ( ) );
#38 = PRODUCT_DEFINITION_SHAPE ( 'NONE', 'NONE',  #42 ) ;
#39 =( GEOMETRIC_REPRESENTATION_CONTEXT ( 3 ) GLOBAL_UNCERTAINTY_ASSIGNED_CONTEXT ( ( #59 ) ) GLOBAL_UNIT_ASSIGNED_CONTEXT ( ( #18, #82, #37 ) ) REPRESENTATION_CONTEXT ( 'NONE', 'WORKASPACE' ) );
#40 = APPLICATION_PROTOCOL_DEFINITION ( 'draft international standard', 'automotive_design', 1998, #93 ) ;
#41 = PROPERTY_DEFINITION_REPRESENTATION ( #98, #17 ) ;
#42 = PRODUCT_DEFINITION ( 'General', '', #90, #78 ) ;
#43 =( GEOMETRIC_REPRESENTATION_CONTEXT ( 3 ) GLOBAL_UNCERTAINTY_ASSIGNED_CONTEXT ( ( #15 ) ) GLOBAL_UNIT_ASSIGNED_CONTEXT ( ( #8, #101, #48 ) ) REPRESENTATION_CONTEXT ( 'NONE', 'WORKASPACE' ) );
#44 = OBJECT_ROLE ('mandatory',$ ) ;
#45 = DIRECTION ( 'NONE',  ( 0.000000000000000000, 0.000000000000000000, 1.000000000000000000 ) ) ;
#46 = PRODUCT_RELATED_PRODUCT_CATEGORY ( 'part', '', ( #56 ) ) ;
#47 = OBJECT_ROLE ('mandatory',$ ) ;
#48 =( NAMED_UNIT ( * ) SI_UNIT ( $, .STERADIAN. ) SOLID_ANGLE_UNIT ( ) );
#49 = DOCUMENT_FILE ( 'SiPM lens 2x1.STEP' , '', '', #86, '' ,$ ) ;
#50 = PRODUCT_CONTEXT ( 'NONE', #7, 'mechanical' ) ;
#51 =( GEOMETRIC_REPRESENTATION_CONTEXT ( 3 ) GLOBAL_UNCERTAINTY_ASSIGNED_CONTEXT ( ( #33 ) ) GLOBAL_UNIT_ASSIGNED_CONTEXT ( ( #99, #61, #28 ) ) REPRESENTATION_CONTEXT ( 'NONE', 'WORKASPACE' ) );
#52 = PRODUCT_RELATED_PRODUCT_CATEGORY ( 'part', '', ( #97 ) ) ;
#53 = DIRECTION ( 'NONE',  ( 0.000000000000000000, 0.000000000000000000, 1.000000000000000000 ) ) ;
#54 = DIRECTION ( 'NONE',  ( 1.577721810442023611E-30, 9.829871458033890529E-31, 1.000000000000000000 ) ) ;
#55 = DIRECTION ( 'NONE',  ( 1.000000000000000000, 0.000000000000000000, 0.000000000000000000 ) ) ;
#56 = PRODUCT ( 'SiPM base 2x1', 'SiPM base 2x1', '', ( #50 ) ) ;
#57 = ROLE_ASSOCIATION ( #44, #65 ) ;
#58 = PROPERTY_DEFINITION_REPRESENTATION ( #19, #13 ) ;
#59 = UNCERTAINTY_MEASURE_WITH_UNIT (LENGTH_MEASURE( 1.000000000000000082E-05 ), #18, 'distance_accuracy_value', 'NONE');
#60 = PRODUCT_DEFINITION_CONTEXT ( 'detailed design', #11, 'design' ) ;
#61 =( NAMED_UNIT ( * ) PLANE_ANGLE_UNIT ( ) SI_UNIT ( $, .RADIAN. ) );
#62 = CARTESIAN_POINT ( 'NONE',  ( 0.000000000000000000, 0.000000000000000000, 0.000000000000000000 ) ) ;
#63 = APPLICATION_PROTOCOL_DEFINITION ( 'draft international standard', 'automotive_design', 1998, #67 ) ;
#64 = PRODUCT_DEFINITION_FORMATION_WITH_SPECIFIED_SOURCE ( 'Symmetric', '', #73, .NOT_KNOWN. ) ;
#65 = APPLIED_DOCUMENT_REFERENCE ( #49,'',( #10) ) ;
#66 = PRODUCT_DEFINITION_CONTEXT ( 'detailed design', #67, 'design' ) ;
#67 = APPLICATION_CONTEXT ( 'automotive_design' ) ;
#68 = APPLIED_DOCUMENT_REFERENCE ( #5,'',( #42) ) ;
#69 = PROPERTY_DEFINITION ('external definition','', #49 ) ;
#70 = EXTERNAL_SOURCE (IDENTIFIER('') ) ;
#71 = DIRECTION ( 'NONE',  ( 1.000000000000000000, 0.000000000000000000, 0.000000000000000000 ) ) ;
#72 = CARTESIAN_POINT ( 'NONE',  ( 0.000000000000000000, 0.000000000000000000, 0.000000000000000000 ) ) ;
#73 = PRODUCT ( 'SiPM lens 2x1', 'SiPM lens 2x1', '', ( #104 ) ) ;
#74 = ROLE_ASSOCIATION ( #47, #68 ) ;
#75 = ITEM_DEFINED_TRANSFORMATION ( 'NONE', 'NONE', #23,  #96 ) ;
#76 = SHAPE_DEFINITION_REPRESENTATION ( #3, #17 ) ;
#77 = PRODUCT_RELATED_PRODUCT_CATEGORY ( 'part', '', ( #73 ) ) ;
#78 = PRODUCT_DEFINITION_CONTEXT ( 'detailed design', #21, 'design' ) ;
#79 =( REPRESENTATION_RELATIONSHIP ('NONE','NONE', #20, #13 ) REPRESENTATION_RELATIONSHIP_WITH_TRANSFORMATION ( #12 )SHAPE_REPRESENTATION_RELATIONSHIP( ) );
#80 = IDENTIFICATION_ROLE ( 'external document id and location', $) ;
#81 = CARTESIAN_POINT ( 'NONE',  ( 0.000000000000000000, 0.000000000000000000, 0.000000000000000000 ) ) ;
#82 =( NAMED_UNIT ( * ) PLANE_ANGLE_UNIT ( ) SI_UNIT ( $, .RADIAN. ) );
#83 = DOCUMENT_TYPE ( 'geometry' ) ;
#84 = PROPERTY_DEFINITION_REPRESENTATION ( #69, #17 ) ;
#85 = IDENTIFICATION_ROLE ( 'external document id and location', $) ;
#86 = DOCUMENT_TYPE ( 'geometry' ) ;
#87 = DIRECTION ( 'NONE',  ( 1.000000000000000000, 0.000000000000000000, 0.000000000000000000 ) ) ;
#88 = PRODUCT_DEFINITION_SHAPE ( 'NONE', 'NONE',  #89 ) ;
#89 = PRODUCT_DEFINITION ( 'General', '', #91, #66 ) ;
#90 = PRODUCT_DEFINITION_FORMATION_WITH_SPECIFIED_SOURCE ( 'Symmetric', '', #56, .NOT_KNOWN. ) ;
#91 = PRODUCT_DEFINITION_FORMATION_WITH_SPECIFIED_SOURCE ( 'Symmetric', '', #97, .NOT_KNOWN. ) ;
#92 = DIRECTION ( 'NONE',  ( 0.000000000000000000, 0.000000000000000000, 1.000000000000000000 ) ) ;
#93 = APPLICATION_CONTEXT ( 'automotive_design' ) ;
#94 = DIRECTION ( 'NONE',  ( 6.982962677686062396E-15, 1.000000000000000000, -3.491481338843181476E-15 ) ) ;
#95 = APPLICATION_PROTOCOL_DEFINITION ( 'draft international standard', 'automotive_design', 1998, #34 ) ;
#96 = AXIS2_PLACEMENT_3D ( 'NONE', #81, #45, #87 ) ;
#97 = PRODUCT ( 'SiPM 2x1', 'SiPM 2x1', '', ( #35 ) ) ;
#98 = PROPERTY_DEFINITION ('document property','', #49 ) ;
#99 =( LENGTH_UNIT ( ) NAMED_UNIT ( * ) SI_UNIT ( .MILLI., .METRE. ) );
#100 = SHAPE_DEFINITION_REPRESENTATION ( #88, #20 ) ;
#101 =( NAMED_UNIT ( * ) PLANE_ANGLE_UNIT ( ) SI_UNIT ( $, .RADIAN. ) );
#102 = PRODUCT_DEFINITION_SHAPE ( 'NONE', 'NONE',  #107 ) ;
#103 = AXIS2_PLACEMENT_3D ( 'NONE', #72, #53, #55 ) ;
#104 = PRODUCT_CONTEXT ( 'NONE', #93, 'mechanical' ) ;
#105 = PROPERTY_DEFINITION_REPRESENTATION ( #24, #13 ) ;
#106 = PRODUCT_DEFINITION_SHAPE ( 'NONE', 'NONE',  #108 ) ;
#107 = NEXT_ASSEMBLY_USAGE_OCCURRENCE ( 'NAUO1', ' ', ' ', #89, #42, $ ) ;
#108 = NEXT_ASSEMBLY_USAGE_OCCURRENCE ( 'NAUO2', ' ', ' ', #89, #10, $ ) ;
ENDSEC;
END-ISO-10303-21;
