ISO-10303-21;
HEADER;
FILE_DESCRIPTION (( 'STEP AP214' ),
    '1' );
FILE_NAME ('SiPM lens 2x1.STEP',
    '2026-01-09T11:21:24',
    ( '' ),
    ( '' ),
    'SwSTEP 2.0',
    'SolidWorks 2024',
    '' );
FILE_SCHEMA (( 'AUTOMOTIVE_DESIGN' ));
ENDSEC;

DATA;
#1 = DIRECTION ( 'NONE',  ( 1.000000000000000000, 0.000000000000000000, 0.000000000000000000 ) ) ;
#2 = CARTESIAN_POINT ( 'NONE',  ( -6.569999999999999396, 0.1750000000000000167, 3.070000000000000284 ) ) ;
#3 = ADVANCED_FACE ( 'NONE', ( #405 ), #183, .F. ) ;
#4 = DIRECTION ( 'NONE',  ( -0.000000000000000000, 1.000000000000000000, -0.000000000000000000 ) ) ;
#5 = VECTOR ( 'NONE', #381, 1000.000000000000000 ) ;
#6 = ORIENTED_EDGE ( 'NONE', *, *, #217, .F. ) ;
#7 = PLANE ( 'NONE',  #213 ) ;
#8 = EDGE_CURVE ( 'NONE', #88, #104, #151, .T. ) ;
#9 = LINE ( 'NONE', #306, #128 ) ;
#10 = LINE ( 'NONE', #85, #454 ) ;
#11 = FACE_OUTER_BOUND ( 'NONE', #147, .T. ) ;
#12 = CARTESIAN_POINT ( 'NONE',  ( -0.4299999999999999378, 0.7500000000000000000, -3.069999999999999396 ) ) ;
#13 = DIRECTION ( 'NONE',  ( 1.000000000000000000, 0.000000000000000000, -1.236061108696829207E-16 ) ) ;
#14 = ORIENTED_EDGE ( 'NONE', *, *, #444, .T. ) ;
#15 = DIRECTION ( 'NONE',  ( 1.000000000000000000, 0.000000000000000000, -1.412641267082090664E-16 ) ) ;
#16 = ORIENTED_EDGE ( 'NONE', *, *, #57, .T. ) ;
#17 = CARTESIAN_POINT ( 'NONE',  ( 0.000000000000000000, 0.000000000000000000, 0.000000000000000000 ) ) ;
#18 = LINE ( 'NONE', #232, #130 ) ;
#19 = VECTOR ( 'NONE', #406, 1000.000000000000000 ) ;
#20 = VECTOR ( 'NONE', #282, 1000.000000000000000 ) ;
#21 = CARTESIAN_POINT ( 'NONE',  ( 0.000000000000000000, 0.1750000000000000167, 0.000000000000000000 ) ) ;
#22 = PLANE ( 'NONE',  #77 ) ;
#23 = EDGE_LOOP ( 'NONE', ( #206, #421, #58, #236 ) ) ;
#24 = ADVANCED_FACE ( 'NONE', ( #39 ), #439, .F. ) ;
#25 = DIRECTION ( 'NONE',  ( 0.000000000000000000, 1.000000000000000000, 0.000000000000000000 ) ) ;
#26 = DIRECTION ( 'NONE',  ( 0.000000000000000000, 0.000000000000000000, 1.000000000000000000 ) ) ;
#27 = ORIENTED_EDGE ( 'NONE', *, *, #71, .T. ) ;
#28 = PLANE ( 'NONE',  #145 ) ;
#29 = ORIENTED_EDGE ( 'NONE', *, *, #383, .T. ) ;
#30 = AXIS2_PLACEMENT_3D ( 'NONE', #327, #404, #146 ) ;
#31 = VECTOR ( 'NONE', #425, 1000.000000000000000 ) ;
#32 = DIRECTION ( 'NONE',  ( -0.000000000000000000, -0.000000000000000000, -1.000000000000000000 ) ) ;
#33 = EDGE_CURVE ( 'NONE', #245, #459, #72, .T. ) ;
#34 = ORIENTED_EDGE ( 'NONE', *, *, #326, .F. ) ;
#35 = SURFACE_SIDE_STYLE ('',( #461 ) ) ;
#36 = ORIENTED_EDGE ( 'NONE', *, *, #8, .T. ) ;
#37 = DIRECTION ( 'NONE',  ( -1.000000000000000000, 0.000000000000000000, 0.000000000000000000 ) ) ;
#38 = CLOSED_SHELL ( 'NONE', ( #428, #329, #469, #411, #173, #154, #144, #346, #3, #43, #224, #434, #24, #114, #401, #338 ) ) ;
#39 = FACE_OUTER_BOUND ( 'NONE', #431, .T. ) ;
#40 = EDGE_CURVE ( 'NONE', #279, #104, #333, .T. ) ;
#41 = DIRECTION ( 'NONE',  ( -0.000000000000000000, 0.000000000000000000, 1.000000000000000000 ) ) ;
#42 = DIRECTION ( 'NONE',  ( 1.236061108696829207E-16, 0.000000000000000000, 1.000000000000000000 ) ) ;
#43 = ADVANCED_FACE ( 'NONE', ( #150 ), #263, .F. ) ;
#44 = VECTOR ( 'NONE', #203, 1000.000000000000000 ) ;
#45 = DIRECTION ( 'NONE',  ( -0.000000000000000000, 1.000000000000000000, -0.000000000000000000 ) ) ;
#46 = CARTESIAN_POINT ( 'NONE',  ( -6.769999999999998685, 0.7500000000000000000, -3.270000000000000018 ) ) ;
#47 = LINE ( 'NONE', #89, #155 ) ;
#48 = ORIENTED_EDGE ( 'NONE', *, *, #182, .T. ) ;
#49 = LINE ( 'NONE', #229, #5 ) ;
#50 = CARTESIAN_POINT ( 'NONE',  ( -6.569999999999999396, 0.7500000000000000000, 3.070000000000000284 ) ) ;
#51 = VECTOR ( 'NONE', #127, 1000.000000000000000 ) ;
#52 = CARTESIAN_POINT ( 'NONE',  ( -6.769999999999997797, 0.000000000000000000, 3.270000000000000018 ) ) ;
#53 = DIRECTION ( 'NONE',  ( 0.000000000000000000, 0.000000000000000000, -1.000000000000000000 ) ) ;
#54 = EDGE_LOOP ( 'NONE', ( #108, #139, #133, #413 ) ) ;
#55 = CARTESIAN_POINT ( 'NONE',  ( 6.770000000000000462, 0.7500000000000000000, 3.270000000000000018 ) ) ;
#56 = DIRECTION ( 'NONE',  ( -0.000000000000000000, -1.000000000000000000, -0.000000000000000000 ) ) ;
#57 = EDGE_CURVE ( 'NONE', #88, #400, #295, .T. ) ;
#58 = ORIENTED_EDGE ( 'NONE', *, *, #191, .F. ) ;
#59 = CARTESIAN_POINT ( 'NONE',  ( -6.769999999999998685, 0.7500000000000000000, -3.270000000000000018 ) ) ;
#60 = ORIENTED_EDGE ( 'NONE', *, *, #74, .F. ) ;
#61 = PRODUCT_DEFINITION_CONTEXT ( 'detailed design', #380, 'design' ) ;
#62 = FACE_OUTER_BOUND ( 'NONE', #320, .T. ) ;
#63 = ORIENTED_EDGE ( 'NONE', *, *, #228, .T. ) ;
#64 = VECTOR ( 'NONE', #441, 1000.000000000000000 ) ;
#65 = PRODUCT_DEFINITION_FORMATION_WITH_SPECIFIED_SOURCE ( 'Symmetric', '', #223, .NOT_KNOWN. ) ;
#66 = FILL_AREA_STYLE ('',( #103 ) ) ;
#67 = EDGE_LOOP ( 'NONE', ( #462, #6, #354, #281 ) ) ;
#68 = PRODUCT_CONTEXT ( 'NONE', #389, 'mechanical' ) ;
#69 = ORIENTED_EDGE ( 'NONE', *, *, #460, .F. ) ;
#70 = CARTESIAN_POINT ( 'NONE',  ( 6.570000000000002061, 0.7500000000000000000, 3.070000000000000284 ) ) ;
#71 = EDGE_CURVE ( 'NONE', #167, #88, #442, .T. ) ;
#72 = LINE ( 'NONE', #113, #112 ) ;
#73 = CARTESIAN_POINT ( 'NONE',  ( 6.770000000000000462, 0.7500000000000000000, -3.270000000000000018 ) ) ;
#74 = EDGE_CURVE ( 'NONE', #247, #201, #184, .T. ) ;
#75 = LINE ( 'NONE', #226, #64 ) ;
#76 = AXIS2_PLACEMENT_3D ( 'NONE', #443, #258, #42 ) ;
#77 = AXIS2_PLACEMENT_3D ( 'NONE', #193, #119, #307 ) ;
#78 = CARTESIAN_POINT ( 'NONE',  ( -6.569999999999999396, 0.7500000000000000000, -3.069999999999999396 ) ) ;
#79 = CARTESIAN_POINT ( 'NONE',  ( 0.4300000000000014366, 0.7500000000000000000, -3.069999999999999840 ) ) ;
#80 = LINE ( 'NONE', #266, #294 ) ;
#81 = ORIENTED_EDGE ( 'NONE', *, *, #374, .F. ) ;
#82 = FACE_OUTER_BOUND ( 'NONE', #363, .T. ) ;
#83 = DIRECTION ( 'NONE',  ( -1.000000000000000000, -0.000000000000000000, -0.000000000000000000 ) ) ;
#84 = EDGE_CURVE ( 'NONE', #220, #388, #261, .T. ) ;
#85 = CARTESIAN_POINT ( 'NONE',  ( -6.769999999999997797, 0.7500000000000000000, 3.270000000000000018 ) ) ;
#86 = VECTOR ( 'NONE', #4, 1000.000000000000000 ) ;
#87 = CARTESIAN_POINT ( 'NONE',  ( 6.570000000000001172, 0.1750000000000000167, -3.069999999999999840 ) ) ;
#88 = VERTEX_POINT ( 'NONE', #407 ) ;
#89 = CARTESIAN_POINT ( 'NONE',  ( -6.569999999999999396, 0.1750000000000000167, -3.069999999999999396 ) ) ;
#90 = ORIENTED_EDGE ( 'NONE', *, *, #191, .T. ) ;
#91 = EDGE_CURVE ( 'NONE', #276, #194, #408, .T. ) ;
#92 = LINE ( 'NONE', #210, #20 ) ;
#93 = ORIENTED_EDGE ( 'NONE', *, *, #362, .F. ) ;
#94 = CARTESIAN_POINT ( 'NONE',  ( 6.570000000000001172, 0.7500000000000000000, -3.069999999999999840 ) ) ;
#95 = VERTEX_POINT ( 'NONE', #148 ) ;
#96 = VECTOR ( 'NONE', #121, 1000.000000000000000 ) ;
#97 = LINE ( 'NONE', #138, #435 ) ;
#98 = DIRECTION ( 'NONE',  ( -1.326241189584715037E-16, 0.000000000000000000, -1.000000000000000000 ) ) ;
#99 = ORIENTED_EDGE ( 'NONE', *, *, #451, .F. ) ;
#100 = DIRECTION ( 'NONE',  ( -0.000000000000000000, 1.000000000000000000, -0.000000000000000000 ) ) ;
#101 = ORIENTED_EDGE ( 'NONE', *, *, #33, .F. ) ;
#102 = PRODUCT_RELATED_PRODUCT_CATEGORY ( 'part', '', ( #223 ) ) ;
#103 = FILL_AREA_STYLE_COLOUR ( '', #357 ) ;
#104 = VERTEX_POINT ( 'NONE', #70 ) ;
#105 = VECTOR ( 'NONE', #448, 1000.000000000000000 ) ;
#106 = VECTOR ( 'NONE', #83, 1000.000000000000000 ) ;
#107 =( NAMED_UNIT ( * ) PLANE_ANGLE_UNIT ( ) SI_UNIT ( $, .RADIAN. ) );
#108 = ORIENTED_EDGE ( 'NONE', *, *, #198, .T. ) ;
#109 = EDGE_CURVE ( 'NONE', #245, #276, #75, .T. ) ;
#110 = FACE_OUTER_BOUND ( 'NONE', #23, .T. ) ;
#111 = CARTESIAN_POINT ( 'NONE',  ( 0.4300000000000022138, 0.1750000000000000167, 3.070000000000000284 ) ) ;
#112 = VECTOR ( 'NONE', #222, 1000.000000000000000 ) ;
#113 = CARTESIAN_POINT ( 'NONE',  ( -6.769999999999998685, 0.7500000000000000000, -3.270000000000000018 ) ) ;
#114 = ADVANCED_FACE ( 'NONE', ( #110 ), #257, .F. ) ;
#115 = DIRECTION ( 'NONE',  ( 1.000000000000000000, 0.000000000000000000, 0.000000000000000000 ) ) ;
#116 = CARTESIAN_POINT ( 'NONE',  ( -6.569999999999999396, 0.1750000000000000167, 3.070000000000000284 ) ) ;
#117 = AXIS2_PLACEMENT_3D ( 'NONE', #359, #467, #142 ) ;
#118 = CARTESIAN_POINT ( 'NONE',  ( -6.769999999999997797, 0.7500000000000000000, 3.270000000000000018 ) ) ;
#119 = DIRECTION ( 'NONE',  ( -1.000000000000000000, 0.000000000000000000, 0.000000000000000000 ) ) ;
#120 = EDGE_CURVE ( 'NONE', #254, #452, #368, .T. ) ;
#121 = DIRECTION ( 'NONE',  ( -1.236061108696829207E-16, -0.000000000000000000, -1.000000000000000000 ) ) ;
#122 = CARTESIAN_POINT ( 'NONE',  ( -0.4299999999999991607, 0.7500000000000000000, 3.070000000000000284 ) ) ;
#123 = ORIENTED_EDGE ( 'NONE', *, *, #40, .T. ) ;
#124 = LINE ( 'NONE', #152, #369 ) ;
#125 = CARTESIAN_POINT ( 'NONE',  ( -6.769999999999997797, 0.7500000000000000000, 3.270000000000000018 ) ) ;
#126 = ORIENTED_EDGE ( 'NONE', *, *, #303, .F. ) ;
#127 = DIRECTION ( 'NONE',  ( -1.000000000000000000, -0.000000000000000000, -0.000000000000000000 ) ) ;
#128 = VECTOR ( 'NONE', #272, 1000.000000000000000 ) ;
#129 = CARTESIAN_POINT ( 'NONE',  ( -0.4299999999999999378, 0.1750000000000000167, -3.069999999999999396 ) ) ;
#130 = VECTOR ( 'NONE', #239, 1000.000000000000000 ) ;
#131 = EDGE_CURVE ( 'NONE', #247, #429, #367, .T. ) ;
#132 = CARTESIAN_POINT ( 'NONE',  ( -6.769999999999997797, 0.000000000000000000, 3.270000000000000018 ) ) ;
#133 = ORIENTED_EDGE ( 'NONE', *, *, #393, .F. ) ;
#134 =( NAMED_UNIT ( * ) SI_UNIT ( $, .STERADIAN. ) SOLID_ANGLE_UNIT ( ) );
#135 = EDGE_LOOP ( 'NONE', ( #16, #163, #29, #27 ) ) ;
#136 = CARTESIAN_POINT ( 'NONE',  ( 0.4300000000000022138, 0.1750000000000000167, 3.070000000000000284 ) ) ;
#137 = EDGE_LOOP ( 'NONE', ( #250, #457, #101, #286 ) ) ;
#138 = CARTESIAN_POINT ( 'NONE',  ( -6.569999999999999396, 0.7500000000000000000, -3.069999999999999396 ) ) ;
#139 = ORIENTED_EDGE ( 'NONE', *, *, #84, .F. ) ;
#140 = LINE ( 'NONE', #353, #31 ) ;
#141 = ORIENTED_EDGE ( 'NONE', *, *, #374, .T. ) ;
#142 = DIRECTION ( 'NONE',  ( 1.000000000000000000, 0.000000000000000000, -0.000000000000000000 ) ) ;
#143 = ORIENTED_EDGE ( 'NONE', *, *, #326, .T. ) ;
#144 = ADVANCED_FACE ( 'NONE', ( #189 ), #7, .F. ) ;
#145 = AXIS2_PLACEMENT_3D ( 'NONE', #136, #177, #278 ) ;
#146 = DIRECTION ( 'NONE',  ( -1.000000000000000000, 0.000000000000000000, -0.000000000000000000 ) ) ;
#147 = EDGE_LOOP ( 'NONE', ( #48, #126, #426, #337 ) ) ;
#148 = CARTESIAN_POINT ( 'NONE',  ( 0.4300000000000014366, 0.1750000000000000167, -3.069999999999999840 ) ) ;
#149 = VECTOR ( 'NONE', #219, 1000.000000000000000 ) ;
#150 = FACE_OUTER_BOUND ( 'NONE', #373, .T. ) ;
#151 = LINE ( 'NONE', #292, #149 ) ;
#152 = CARTESIAN_POINT ( 'NONE',  ( 6.570000000000001172, 0.1750000000000000167, -3.069999999999999840 ) ) ;
#153 = ORIENTED_EDGE ( 'NONE', *, *, #33, .T. ) ;
#154 = ADVANCED_FACE ( 'NONE', ( #268 ), #419, .F. ) ;
#155 = VECTOR ( 'NONE', #339, 1000.000000000000000 ) ;
#156 = DIRECTION ( 'NONE',  ( 0.000000000000000000, 1.000000000000000000, 0.000000000000000000 ) ) ;
#157 = FACE_BOUND ( 'NONE', #218, .T. ) ;
#158 = LINE ( 'NONE', #385, #44 ) ;
#159 = VERTEX_POINT ( 'NONE', #78 ) ;
#160 = LINE ( 'NONE', #52, #409 ) ;
#161 = FACE_OUTER_BOUND ( 'NONE', #471, .T. ) ;
#162 = EDGE_CURVE ( 'NONE', #400, #95, #375, .T. ) ;
#163 = ORIENTED_EDGE ( 'NONE', *, *, #162, .T. ) ;
#164 = DIRECTION ( 'NONE',  ( 0.000000000000000000, 1.000000000000000000, 0.000000000000000000 ) ) ;
#165 = VECTOR ( 'NONE', #235, 1000.000000000000000 ) ;
#166 = FACE_OUTER_BOUND ( 'NONE', #137, .T. ) ;
#167 = VERTEX_POINT ( 'NONE', #265 ) ;
#168 = CARTESIAN_POINT ( 'NONE',  ( -6.569999999999999396, 0.1750000000000000167, -3.069999999999999396 ) ) ;
#169 = EDGE_LOOP ( 'NONE', ( #466, #233, #365, #36 ) ) ;
#170 = DIRECTION ( 'NONE',  ( -0.000000000000000000, -1.000000000000000000, -0.000000000000000000 ) ) ;
#171 = DIRECTION ( 'NONE',  ( 1.000000000000000000, 0.000000000000000000, 0.000000000000000000 ) ) ;
#172 = ORIENTED_EDGE ( 'NONE', *, *, #8, .F. ) ;
#173 = ADVANCED_FACE ( 'NONE', ( #157, #344, #82 ), #455, .T. ) ;
#174 = CARTESIAN_POINT ( 'NONE',  ( 0.4300000000000022138, 0.1750000000000000167, 3.070000000000000284 ) ) ;
#175 = ORIENTED_EDGE ( 'NONE', *, *, #303, .T. ) ;
#176 = AXIS2_PLACEMENT_3D ( 'NONE', #334, #156, #372 ) ;
#177 = DIRECTION ( 'NONE',  ( -0.000000000000000000, 0.000000000000000000, 1.000000000000000000 ) ) ;
#178 = ORIENTED_EDGE ( 'NONE', *, *, #40, .F. ) ;
#179 =( LENGTH_UNIT ( ) NAMED_UNIT ( * ) SI_UNIT ( .MILLI., .METRE. ) );
#180 = APPLICATION_PROTOCOL_DEFINITION ( 'draft international standard', 'automotive_design', 1998, #389 ) ;
#181 = ORIENTED_EDGE ( 'NONE', *, *, #251, .F. ) ;
#182 = EDGE_CURVE ( 'NONE', #194, #283, #160, .T. ) ;
#183 = PLANE ( 'NONE',  #76 ) ;
#184 = LINE ( 'NONE', #2, #331 ) ;
#185 = CARTESIAN_POINT ( 'NONE',  ( 0.4300000000000022138, 0.7500000000000000000, 3.070000000000000284 ) ) ;
#186 = DIRECTION ( 'NONE',  ( 1.000000000000000000, 0.000000000000000000, 0.000000000000000000 ) ) ;
#187 = VECTOR ( 'NONE', #45, 1000.000000000000000 ) ;
#188 = AXIS2_PLACEMENT_3D ( 'NONE', #125, #311, #456 ) ;
#189 = FACE_OUTER_BOUND ( 'NONE', #169, .T. ) ;
#190 = CARTESIAN_POINT ( 'NONE',  ( -6.569999999999999396, 0.7500000000000000000, 3.070000000000000284 ) ) ;
#191 = EDGE_CURVE ( 'NONE', #287, #247, #49, .T. ) ;
#192 = DIRECTION ( 'NONE',  ( 0.000000000000000000, -0.000000000000000000, 1.000000000000000000 ) ) ;
#193 = CARTESIAN_POINT ( 'NONE',  ( 6.770000000000000462, 0.7500000000000000000, -3.270000000000000018 ) ) ;
#194 = VERTEX_POINT ( 'NONE', #132 ) ;
#195 = DIRECTION ( 'NONE',  ( -1.412641267082090664E-16, 0.000000000000000000, -1.000000000000000000 ) ) ;
#196 = CARTESIAN_POINT ( 'NONE',  ( 6.770000000000000462, 0.7500000000000000000, -3.270000000000000018 ) ) ;
#197 = ORIENTED_EDGE ( 'NONE', *, *, #74, .T. ) ;
#198 = EDGE_CURVE ( 'NONE', #437, #388, #199, .T. ) ;
#199 = LINE ( 'NONE', #12, #96 ) ;
#200 = PLANE ( 'NONE',  #288 ) ;
#201 = VERTEX_POINT ( 'NONE', #274 ) ;
#202 = LINE ( 'NONE', #118, #165 ) ;
#203 = DIRECTION ( 'NONE',  ( 0.000000000000000000, 0.000000000000000000, 1.000000000000000000 ) ) ;
#204 = DIRECTION ( 'NONE',  ( -1.412641267082090664E-16, -0.000000000000000000, -1.000000000000000000 ) ) ;
#205 = CARTESIAN_POINT ( 'NONE',  ( -6.569999999999999396, 0.1750000000000000167, -3.069999999999999396 ) ) ;
#206 = ORIENTED_EDGE ( 'NONE', *, *, #460, .T. ) ;
#207 = DIRECTION ( 'NONE',  ( -1.000000000000000000, -0.000000000000000000, -0.000000000000000000 ) ) ;
#208 = ORIENTED_EDGE ( 'NONE', *, *, #209, .T. ) ;
#209 = EDGE_CURVE ( 'NONE', #220, #287, #9, .T. ) ;
#210 = CARTESIAN_POINT ( 'NONE',  ( -0.4299999999999991607, 0.1750000000000000167, 3.070000000000000284 ) ) ;
#211 = ORIENTED_EDGE ( 'NONE', *, *, #383, .F. ) ;
#212 = LINE ( 'NONE', #241, #332 ) ;
#213 = AXIS2_PLACEMENT_3D ( 'NONE', #310, #15, #195 ) ;
#214 = ORIENTED_EDGE ( 'NONE', *, *, #91, .F. ) ;
#215 = AXIS2_PLACEMENT_3D ( 'NONE', #129, #13, #273 ) ;
#216 = CARTESIAN_POINT ( 'NONE',  ( 6.770000000000000462, 0.000000000000000000, -3.270000000000000018 ) ) ;
#217 = EDGE_CURVE ( 'NONE', #287, #159, #47, .T. ) ;
#218 = EDGE_LOOP ( 'NONE', ( #396, #181, #69, #351 ) ) ;
#219 = DIRECTION ( 'NONE',  ( -0.000000000000000000, 1.000000000000000000, -0.000000000000000000 ) ) ;
#220 = VERTEX_POINT ( 'NONE', #417 ) ;
#221 = VECTOR ( 'NONE', #423, 1000.000000000000000 ) ;
#222 = DIRECTION ( 'NONE',  ( 1.326241189584715037E-16, 0.000000000000000000, 1.000000000000000000 ) ) ;
#223 = PRODUCT ( 'SiPM lens 2x1', 'SiPM lens 2x1', '', ( #68 ) ) ;
#224 = ADVANCED_FACE ( 'NONE', ( #412 ), #453, .T. ) ;
#225 = DIRECTION ( 'NONE',  ( -0.000000000000000000, -0.000000000000000000, -1.000000000000000000 ) ) ;
#226 = CARTESIAN_POINT ( 'NONE',  ( -6.769999999999998685, 0.7500000000000000000, -3.270000000000000018 ) ) ;
#227 = VECTOR ( 'NONE', #204, 1000.000000000000000 ) ;
#228 = EDGE_CURVE ( 'NONE', #256, #279, #371, .T. ) ;
#229 = CARTESIAN_POINT ( 'NONE',  ( -6.569999999999999396, 0.1750000000000000167, -3.069999999999999396 ) ) ;
#230 = DIRECTION ( 'NONE',  ( 0.000000000000000000, -0.000000000000000000, 1.000000000000000000 ) ) ;
#231 = CARTESIAN_POINT ( 'NONE',  ( 0.4300000000000014366, 0.1750000000000000167, -3.069999999999999840 ) ) ;
#232 = CARTESIAN_POINT ( 'NONE',  ( -6.769999999999998685, 0.7500000000000000000, -3.270000000000000018 ) ) ;
#233 = ORIENTED_EDGE ( 'NONE', *, *, #262, .F. ) ;
#234 = PRESENTATION_LAYER_ASSIGNMENT (  '', '', ( #440 ) ) ;
#235 = DIRECTION ( 'NONE',  ( 1.000000000000000000, 0.000000000000000000, 0.000000000000000000 ) ) ;
#236 = ORIENTED_EDGE ( 'NONE', *, *, #217, .T. ) ;
#237 = UNCERTAINTY_MEASURE_WITH_UNIT (LENGTH_MEASURE( 1.000000000000000082E-05 ), #255, 'distance_accuracy_value', 'NONE');
#238 = CARTESIAN_POINT ( 'NONE',  ( 0.000000000000000000, 0.1750000000000000167, 0.000000000000000000 ) ) ;
#239 = DIRECTION ( 'NONE',  ( -1.000000000000000000, -0.000000000000000000, -0.000000000000000000 ) ) ;
#240 = ORIENTED_EDGE ( 'NONE', *, *, #277, .T. ) ;
#241 = CARTESIAN_POINT ( 'NONE',  ( 6.770000000000000462, 0.7500000000000000000, -3.270000000000000018 ) ) ;
#242 = ORIENTED_EDGE ( 'NONE', *, *, #313, .T. ) ;
#243 = EDGE_CURVE ( 'NONE', #459, #194, #10, .T. ) ;
#244 = VECTOR ( 'NONE', #170, 1000.000000000000000 ) ;
#245 = VERTEX_POINT ( 'NONE', #46 ) ;
#246 = CARTESIAN_POINT ( 'NONE',  ( 6.770000000000000462, 0.7500000000000000000, 3.270000000000000018 ) ) ;
#247 = VERTEX_POINT ( 'NONE', #304 ) ;
#248 = UNCERTAINTY_MEASURE_WITH_UNIT (LENGTH_MEASURE( 1.000000000000000082E-05 ), #179, 'distance_accuracy_value', 'NONE');
#249 = LINE ( 'NONE', #174, #259 ) ;
#250 = ORIENTED_EDGE ( 'NONE', *, *, #91, .T. ) ;
#251 = EDGE_CURVE ( 'NONE', #429, #437, #384, .T. ) ;
#252 = SURFACE_STYLE_USAGE ( .BOTH. , #35 ) ;
#253 = APPLICATION_PROTOCOL_DEFINITION ( 'draft international standard', 'automotive_design', 1998, #380 ) ;
#254 = VERTEX_POINT ( 'NONE', #55 ) ;
#255 =( LENGTH_UNIT ( ) NAMED_UNIT ( * ) SI_UNIT ( .MILLI., .METRE. ) );
#256 = VERTEX_POINT ( 'NONE', #450 ) ;
#257 = PLANE ( 'NONE',  #324 ) ;
#258 = DIRECTION ( 'NONE',  ( -1.000000000000000000, 0.000000000000000000, 1.236061108696829207E-16 ) ) ;
#259 = VECTOR ( 'NONE', #100, 1000.000000000000000 ) ;
#260 = CARTESIAN_POINT ( 'NONE',  ( -6.569999999999999396, 0.1750000000000000167, -3.069999999999999396 ) ) ;
#261 = LINE ( 'NONE', #328, #86 ) ;
#262 = EDGE_CURVE ( 'NONE', #400, #391, #124, .T. ) ;
#263 = PLANE ( 'NONE',  #30 ) ;
#264 = VECTOR ( 'NONE', #293, 1000.000000000000000 ) ;
#265 = CARTESIAN_POINT ( 'NONE',  ( 0.4300000000000022138, 0.1750000000000000167, 3.070000000000000284 ) ) ;
#266 = CARTESIAN_POINT ( 'NONE',  ( 0.4300000000000014366, 0.7500000000000000000, -3.069999999999999840 ) ) ;
#267 = ORIENTED_EDGE ( 'NONE', *, *, #418, .T. ) ;
#268 = FACE_OUTER_BOUND ( 'NONE', #392, .T. ) ;
#269 = CARTESIAN_POINT ( 'NONE',  ( 6.770000000000000462, 0.000000000000000000, -3.270000000000000018 ) ) ;
#270 = DIRECTION ( 'NONE',  ( 1.000000000000000000, 0.000000000000000000, 0.000000000000000000 ) ) ;
#271 = ORIENTED_EDGE ( 'NONE', *, *, #313, .F. ) ;
#272 = DIRECTION ( 'NONE',  ( -1.000000000000000000, -0.000000000000000000, -0.000000000000000000 ) ) ;
#273 = DIRECTION ( 'NONE',  ( -1.236061108696829207E-16, 0.000000000000000000, -1.000000000000000000 ) ) ;
#274 = CARTESIAN_POINT ( 'NONE',  ( -0.4299999999999991607, 0.1750000000000000167, 3.070000000000000284 ) ) ;
#275 = LINE ( 'NONE', #376, #221 ) ;
#276 = VERTEX_POINT ( 'NONE', #298 ) ;
#277 = EDGE_CURVE ( 'NONE', #459, #254, #202, .T. ) ;
#278 = DIRECTION ( 'NONE',  ( 1.000000000000000000, 0.000000000000000000, 0.000000000000000000 ) ) ;
#279 = VERTEX_POINT ( 'NONE', #342 ) ;
#280 = VECTOR ( 'NONE', #32, 1000.000000000000000 ) ;
#281 = ORIENTED_EDGE ( 'NONE', *, *, #84, .T. ) ;
#282 = DIRECTION ( 'NONE',  ( -0.000000000000000000, 1.000000000000000000, -0.000000000000000000 ) ) ;
#283 = VERTEX_POINT ( 'NONE', #322 ) ;
#284 = EDGE_CURVE ( 'NONE', #388, #159, #97, .T. ) ;
#285 = CARTESIAN_POINT ( 'NONE',  ( -0.4299999999999999378, 0.7500000000000000000, -3.069999999999999396 ) ) ;
#286 = ORIENTED_EDGE ( 'NONE', *, *, #109, .T. ) ;
#287 = VERTEX_POINT ( 'NONE', #168 ) ;
#288 = AXIS2_PLACEMENT_3D ( 'NONE', #205, #53, #387 ) ;
#289 = ADVANCED_BREP_SHAPE_REPRESENTATION ( 'SiPM lens 2x1', ( #321, #410 ), #370 ) ;
#290 = CARTESIAN_POINT ( 'NONE',  ( -6.769999999999998685, 0.000000000000000000, -3.270000000000000018 ) ) ;
#291 = PRODUCT_DEFINITION ( 'General', '', #65, #61 ) ;
#292 = CARTESIAN_POINT ( 'NONE',  ( 6.570000000000002061, 0.1750000000000000167, 3.070000000000000284 ) ) ;
#293 = DIRECTION ( 'NONE',  ( 1.000000000000000000, 0.000000000000000000, 0.000000000000000000 ) ) ;
#294 = VECTOR ( 'NONE', #350, 1000.000000000000000 ) ;
#295 = LINE ( 'NONE', #330, #19 ) ;
#296 = EDGE_CURVE ( 'NONE', #104, #391, #318, .T. ) ;
#297 = DIRECTION ( 'NONE',  ( 0.000000000000000000, 0.000000000000000000, 1.000000000000000000 ) ) ;
#298 = CARTESIAN_POINT ( 'NONE',  ( -6.769999999999998685, 0.000000000000000000, -3.270000000000000018 ) ) ;
#299 = FACE_OUTER_BOUND ( 'NONE', #67, .T. ) ;
#300 = ORIENTED_EDGE ( 'NONE', *, *, #366, .F. ) ;
#301 = DIRECTION ( 'NONE',  ( -0.000000000000000000, -1.000000000000000000, -0.000000000000000000 ) ) ;
#302 = PLANE ( 'NONE',  #215 ) ;
#303 = EDGE_CURVE ( 'NONE', #254, #283, #314, .T. ) ;
#304 = CARTESIAN_POINT ( 'NONE',  ( -6.569999999999999396, 0.1750000000000000167, 3.070000000000000284 ) ) ;
#305 = ORIENTED_EDGE ( 'NONE', *, *, #109, .F. ) ;
#306 = CARTESIAN_POINT ( 'NONE',  ( -6.569999999999999396, 0.1750000000000000167, -3.069999999999999396 ) ) ;
#307 = DIRECTION ( 'NONE',  ( 0.000000000000000000, 0.000000000000000000, 1.000000000000000000 ) ) ;
#308 = EDGE_LOOP ( 'NONE', ( #123, #172, #360, #242 ) ) ;
#309 = VECTOR ( 'NONE', #361, 1000.000000000000000 ) ;
#310 = CARTESIAN_POINT ( 'NONE',  ( 6.570000000000001172, 0.1750000000000000167, -3.069999999999999840 ) ) ;
#311 = DIRECTION ( 'NONE',  ( 0.000000000000000000, 0.000000000000000000, -1.000000000000000000 ) ) ;
#312 = ORIENTED_EDGE ( 'NONE', *, *, #131, .T. ) ;
#313 = EDGE_CURVE ( 'NONE', #167, #279, #249, .T. ) ;
#314 = LINE ( 'NONE', #246, #244 ) ;
#315 = ORIENTED_EDGE ( 'NONE', *, *, #120, .T. ) ;
#316 = CARTESIAN_POINT ( 'NONE',  ( 0.000000000000000000, 0.000000000000000000, 0.000000000000000000 ) ) ;
#317 = EDGE_LOOP ( 'NONE', ( #323, #208, #90, #197 ) ) ;
#318 = LINE ( 'NONE', #386, #227 ) ;
#319 = ORIENTED_EDGE ( 'NONE', *, *, #362, .T. ) ;
#320 = EDGE_LOOP ( 'NONE', ( #14, #305, #99, #141 ) ) ;
#321 = MANIFOLD_SOLID_BREP ( 'Cut-Extrude1', #38 ) ;
#322 = CARTESIAN_POINT ( 'NONE',  ( 6.770000000000000462, 0.000000000000000000, 3.270000000000000018 ) ) ;
#323 = ORIENTED_EDGE ( 'NONE', *, *, #393, .T. ) ;
#324 = AXIS2_PLACEMENT_3D ( 'NONE', #260, #37, #297 ) ;
#325 = CARTESIAN_POINT ( 'NONE',  ( -6.569999999999999396, 0.1750000000000000167, 3.070000000000000284 ) ) ;
#326 = EDGE_CURVE ( 'NONE', #283, #438, #398, .T. ) ;
#327 = CARTESIAN_POINT ( 'NONE',  ( 0.4300000000000014366, 0.1750000000000000167, -3.069999999999999840 ) ) ;
#328 = CARTESIAN_POINT ( 'NONE',  ( -0.4299999999999999378, 0.1750000000000000167, -3.069999999999999396 ) ) ;
#329 = ADVANCED_FACE ( 'NONE', ( #62 ), #458, .F. ) ;
#330 = CARTESIAN_POINT ( 'NONE',  ( 6.570000000000001172, 0.1750000000000000167, -3.069999999999999840 ) ) ;
#331 = VECTOR ( 'NONE', #115, 1000.000000000000000 ) ;
#332 = VECTOR ( 'NONE', #56, 1000.000000000000000 ) ;
#333 = LINE ( 'NONE', #185, #463 ) ;
#334 = CARTESIAN_POINT ( 'NONE',  ( 0.000000000000000000, 0.7500000000000000000, 0.000000000000000000 ) ) ;
#335 = DIRECTION ( 'NONE',  ( 1.236061108696829207E-16, 0.000000000000000000, 1.000000000000000000 ) ) ;
#336 = FACE_OUTER_BOUND ( 'NONE', #54, .T. ) ;
#337 = ORIENTED_EDGE ( 'NONE', *, *, #243, .T. ) ;
#338 = ADVANCED_FACE ( 'NONE', ( #464 ), #422, .T. ) ;
#339 = DIRECTION ( 'NONE',  ( -0.000000000000000000, 1.000000000000000000, -0.000000000000000000 ) ) ;
#340 = CARTESIAN_POINT ( 'NONE',  ( -6.769999999999997797, 0.7500000000000000000, 3.270000000000000018 ) ) ;
#341 = ORIENTED_EDGE ( 'NONE', *, *, #451, .T. ) ;
#342 = CARTESIAN_POINT ( 'NONE',  ( 0.4300000000000022138, 0.7500000000000000000, 3.070000000000000284 ) ) ;
#343 = PLANE ( 'NONE',  #188 ) ;
#344 = FACE_BOUND ( 'NONE', #424, .T. ) ;
#345 = PLANE ( 'NONE',  #436 ) ;
#346 = ADVANCED_FACE ( 'NONE', ( #356 ), #28, .F. ) ;
#347 = VECTOR ( 'NONE', #225, 1000.000000000000000 ) ;
#348 = VECTOR ( 'NONE', #432, 1000.000000000000000 ) ;
#349 = PRESENTATION_STYLE_ASSIGNMENT (( #252 ) ) ;
#350 = DIRECTION ( 'NONE',  ( -1.000000000000000000, -0.000000000000000000, -0.000000000000000000 ) ) ;
#351 = ORIENTED_EDGE ( 'NONE', *, *, #284, .F. ) ;
#352 = ORIENTED_EDGE ( 'NONE', *, *, #444, .F. ) ;
#353 = CARTESIAN_POINT ( 'NONE',  ( 0.4300000000000014366, 0.1750000000000000167, -3.069999999999999840 ) ) ;
#354 = ORIENTED_EDGE ( 'NONE', *, *, #209, .F. ) ;
#355 = AXIS2_PLACEMENT_3D ( 'NONE', #116, #41, #186 ) ;
#356 = FACE_OUTER_BOUND ( 'NONE', #308, .T. ) ;
#357 = COLOUR_RGB ( '',0.7529411764705882248, 1.000000000000000000, 1.000000000000000000 ) ;
#358 = ORIENTED_EDGE ( 'NONE', *, *, #262, .T. ) ;
#359 = CARTESIAN_POINT ( 'NONE',  ( -6.769999999999998685, 0.7500000000000000000, -3.270000000000000018 ) ) ;
#360 = ORIENTED_EDGE ( 'NONE', *, *, #71, .F. ) ;
#361 = DIRECTION ( 'NONE',  ( 1.326241189584715037E-16, 0.000000000000000000, 1.000000000000000000 ) ) ;
#362 = EDGE_CURVE ( 'NONE', #95, #256, #427, .T. ) ;
#363 = EDGE_LOOP ( 'NONE', ( #315, #341, #153, #240 ) ) ;
#364 =( GEOMETRIC_REPRESENTATION_CONTEXT ( 3 ) GLOBAL_UNCERTAINTY_ASSIGNED_CONTEXT ( ( #248 ) ) GLOBAL_UNIT_ASSIGNED_CONTEXT ( ( #179, #394, #134 ) ) REPRESENTATION_CONTEXT ( 'NONE', 'WORKASPACE' ) );
#365 = ORIENTED_EDGE ( 'NONE', *, *, #57, .F. ) ;
#366 = EDGE_CURVE ( 'NONE', #201, #437, #92, .T. ) ;
#367 = LINE ( 'NONE', #325, #187 ) ;
#368 = LINE ( 'NONE', #73, #347 ) ;
#369 = VECTOR ( 'NONE', #414, 1000.000000000000000 ) ;
#370 =( GEOMETRIC_REPRESENTATION_CONTEXT ( 3 ) GLOBAL_UNCERTAINTY_ASSIGNED_CONTEXT ( ( #237 ) ) GLOBAL_UNIT_ASSIGNED_CONTEXT ( ( #255, #107, #402 ) ) REPRESENTATION_CONTEXT ( 'NONE', 'WORKASPACE' ) );
#371 = LINE ( 'NONE', #79, #397 ) ;
#372 = DIRECTION ( 'NONE',  ( 0.000000000000000000, -0.000000000000000000, 1.000000000000000000 ) ) ;
#373 = EDGE_LOOP ( 'NONE', ( #267, #93, #449, #358 ) ) ;
#374 = EDGE_CURVE ( 'NONE', #452, #438, #212, .T. ) ;
#375 = LINE ( 'NONE', #231, #51 ) ;
#376 = CARTESIAN_POINT ( 'NONE',  ( -0.4299999999999999378, 0.1750000000000000167, -3.069999999999999396 ) ) ;
#377 = ORIENTED_EDGE ( 'NONE', *, *, #251, .T. ) ;
#378 = AXIS2_PLACEMENT_3D ( 'NONE', #238, #445, #192 ) ;
#379 = AXIS2_PLACEMENT_3D ( 'NONE', #21, #25, #390 ) ;
#380 = APPLICATION_CONTEXT ( 'automotive_design' ) ;
#381 = DIRECTION ( 'NONE',  ( 0.000000000000000000, 0.000000000000000000, 1.000000000000000000 ) ) ;
#382 = EDGE_LOOP ( 'NONE', ( #63, #271, #211, #319 ) ) ;
#383 = EDGE_CURVE ( 'NONE', #95, #167, #140, .T. ) ;
#384 = LINE ( 'NONE', #190, #105 ) ;
#385 = CARTESIAN_POINT ( 'NONE',  ( -6.569999999999999396, 0.7500000000000000000, -3.069999999999999396 ) ) ;
#386 = CARTESIAN_POINT ( 'NONE',  ( 6.570000000000001172, 0.7500000000000000000, -3.069999999999999840 ) ) ;
#387 = DIRECTION ( 'NONE',  ( -1.000000000000000000, 0.000000000000000000, -0.000000000000000000 ) ) ;
#388 = VERTEX_POINT ( 'NONE', #285 ) ;
#389 = APPLICATION_CONTEXT ( 'automotive_design' ) ;
#390 = DIRECTION ( 'NONE',  ( 0.000000000000000000, -0.000000000000000000, 1.000000000000000000 ) ) ;
#391 = VERTEX_POINT ( 'NONE', #94 ) ;
#392 = EDGE_LOOP ( 'NONE', ( #34, #433, #214, #352 ) ) ;
#393 = EDGE_CURVE ( 'NONE', #201, #220, #275, .T. ) ;
#394 =( NAMED_UNIT ( * ) PLANE_ANGLE_UNIT ( ) SI_UNIT ( $, .RADIAN. ) );
#395 = PRODUCT_DEFINITION_SHAPE ( 'NONE', 'NONE',  #291 ) ;
#396 = ORIENTED_EDGE ( 'NONE', *, *, #198, .F. ) ;
#397 = VECTOR ( 'NONE', #335, 1000.000000000000000 ) ;
#398 = LINE ( 'NONE', #216, #280 ) ;
#399 = MECHANICAL_DESIGN_GEOMETRIC_PRESENTATION_REPRESENTATION (  '', ( #440 ), #364 ) ;
#400 = VERTEX_POINT ( 'NONE', #87 ) ;
#401 = ADVANCED_FACE ( 'NONE', ( #299 ), #200, .F. ) ;
#402 =( NAMED_UNIT ( * ) SI_UNIT ( $, .STERADIAN. ) SOLID_ANGLE_UNIT ( ) );
#403 = ORIENTED_EDGE ( 'NONE', *, *, #120, .F. ) ;
#404 = DIRECTION ( 'NONE',  ( 0.000000000000000000, 0.000000000000000000, -1.000000000000000000 ) ) ;
#405 = FACE_OUTER_BOUND ( 'NONE', #382, .T. ) ;
#406 = DIRECTION ( 'NONE',  ( -1.412641267082090664E-16, -0.000000000000000000, -1.000000000000000000 ) ) ;
#407 = CARTESIAN_POINT ( 'NONE',  ( 6.570000000000002061, 0.1750000000000000167, 3.070000000000000284 ) ) ;
#408 = LINE ( 'NONE', #290, #309 ) ;
#409 = VECTOR ( 'NONE', #270, 1000.000000000000000 ) ;
#410 = AXIS2_PLACEMENT_3D ( 'NONE', #316, #26, #171 ) ;
#411 = ADVANCED_FACE ( 'NONE', ( #11 ), #343, .F. ) ;
#412 = FACE_OUTER_BOUND ( 'NONE', #135, .T. ) ;
#413 = ORIENTED_EDGE ( 'NONE', *, *, #366, .T. ) ;
#414 = DIRECTION ( 'NONE',  ( -0.000000000000000000, 1.000000000000000000, -0.000000000000000000 ) ) ;
#415 = CARTESIAN_POINT ( 'NONE',  ( -6.769999999999998685, 0.000000000000000000, -3.270000000000000018 ) ) ;
#416 = ORIENTED_EDGE ( 'NONE', *, *, #228, .F. ) ;
#417 = CARTESIAN_POINT ( 'NONE',  ( -0.4299999999999999378, 0.1750000000000000167, -3.069999999999999396 ) ) ;
#418 = EDGE_CURVE ( 'NONE', #391, #256, #80, .T. ) ;
#419 = PLANE ( 'NONE',  #446 ) ;
#420 = LINE ( 'NONE', #415, #106 ) ;
#421 = ORIENTED_EDGE ( 'NONE', *, *, #131, .F. ) ;
#422 = PLANE ( 'NONE',  #379 ) ;
#423 = DIRECTION ( 'NONE',  ( -1.236061108696829207E-16, -0.000000000000000000, -1.000000000000000000 ) ) ;
#424 = EDGE_LOOP ( 'NONE', ( #447, #178, #416, #468 ) ) ;
#425 = DIRECTION ( 'NONE',  ( 1.236061108696829207E-16, 0.000000000000000000, 1.000000000000000000 ) ) ;
#426 = ORIENTED_EDGE ( 'NONE', *, *, #277, .F. ) ;
#427 = LINE ( 'NONE', #430, #348 ) ;
#428 = ADVANCED_FACE ( 'NONE', ( #161 ), #22, .F. ) ;
#429 = VERTEX_POINT ( 'NONE', #50 ) ;
#430 = CARTESIAN_POINT ( 'NONE',  ( 0.4300000000000014366, 0.1750000000000000167, -3.069999999999999840 ) ) ;
#431 = EDGE_LOOP ( 'NONE', ( #377, #300, #60, #312 ) ) ;
#432 = DIRECTION ( 'NONE',  ( -0.000000000000000000, 1.000000000000000000, -0.000000000000000000 ) ) ;
#433 = ORIENTED_EDGE ( 'NONE', *, *, #182, .F. ) ;
#434 = ADVANCED_FACE ( 'NONE', ( #336 ), #302, .F. ) ;
#435 = VECTOR ( 'NONE', #207, 1000.000000000000000 ) ;
#436 = AXIS2_PLACEMENT_3D ( 'NONE', #59, #465, #98 ) ;
#437 = VERTEX_POINT ( 'NONE', #122 ) ;
#438 = VERTEX_POINT ( 'NONE', #269 ) ;
#439 = PLANE ( 'NONE',  #355 ) ;
#440 = STYLED_ITEM ( 'NONE', ( #349 ), #321 ) ;
#441 = DIRECTION ( 'NONE',  ( -0.000000000000000000, -1.000000000000000000, -0.000000000000000000 ) ) ;
#442 = LINE ( 'NONE', #111, #264 ) ;
#443 = CARTESIAN_POINT ( 'NONE',  ( 0.4300000000000014366, 0.1750000000000000167, -3.069999999999999840 ) ) ;
#444 = EDGE_CURVE ( 'NONE', #438, #276, #420, .T. ) ;
#445 = DIRECTION ( 'NONE',  ( 0.000000000000000000, 1.000000000000000000, 0.000000000000000000 ) ) ;
#446 = AXIS2_PLACEMENT_3D ( 'NONE', #17, #164, #230 ) ;
#447 = ORIENTED_EDGE ( 'NONE', *, *, #296, .F. ) ;
#448 = DIRECTION ( 'NONE',  ( 1.000000000000000000, 0.000000000000000000, 0.000000000000000000 ) ) ;
#449 = ORIENTED_EDGE ( 'NONE', *, *, #162, .F. ) ;
#450 = CARTESIAN_POINT ( 'NONE',  ( 0.4300000000000014366, 0.7500000000000000000, -3.069999999999999840 ) ) ;
#451 = EDGE_CURVE ( 'NONE', #452, #245, #18, .T. ) ;
#452 = VERTEX_POINT ( 'NONE', #196 ) ;
#453 = PLANE ( 'NONE',  #378 ) ;
#454 = VECTOR ( 'NONE', #301, 1000.000000000000000 ) ;
#455 = PLANE ( 'NONE',  #176 ) ;
#456 = DIRECTION ( 'NONE',  ( -1.000000000000000000, 0.000000000000000000, -0.000000000000000000 ) ) ;
#457 = ORIENTED_EDGE ( 'NONE', *, *, #243, .F. ) ;
#458 = PLANE ( 'NONE',  #117 ) ;
#459 = VERTEX_POINT ( 'NONE', #340 ) ;
#460 = EDGE_CURVE ( 'NONE', #159, #429, #158, .T. ) ;
#461 = SURFACE_STYLE_FILL_AREA ( #66 ) ;
#462 = ORIENTED_EDGE ( 'NONE', *, *, #284, .T. ) ;
#463 = VECTOR ( 'NONE', #1, 1000.000000000000000 ) ;
#464 = FACE_OUTER_BOUND ( 'NONE', #317, .T. ) ;
#465 = DIRECTION ( 'NONE',  ( 1.000000000000000000, 0.000000000000000000, -1.326241189584715037E-16 ) ) ;
#466 = ORIENTED_EDGE ( 'NONE', *, *, #296, .T. ) ;
#467 = DIRECTION ( 'NONE',  ( 0.000000000000000000, 0.000000000000000000, 1.000000000000000000 ) ) ;
#468 = ORIENTED_EDGE ( 'NONE', *, *, #418, .F. ) ;
#469 = ADVANCED_FACE ( 'NONE', ( #166 ), #345, .F. ) ;
#470 = SHAPE_DEFINITION_REPRESENTATION ( #395, #289 ) ;
#471 = EDGE_LOOP ( 'NONE', ( #143, #81, #403, #175 ) ) ;
ENDSEC;
END-ISO-10303-21;
