ISO-10303-21;
HEADER;
FILE_DESCRIPTION (( 'STEP AP214' ),
    '1' );
FILE_NAME ('Mid Tray.STEP',
    '2026-01-09T12:25:53',
    ( '' ),
    ( '' ),
    'SwSTEP 2.0',
    'SolidWorks 2024',
    '' );
FILE_SCHEMA (( 'AUTOMOTIVE_DESIGN' ));
ENDSEC;

DATA;
#1 = PROPERTY_DEFINITION_REPRESENTATION ( #94, #96 ) ;
#2 = PRODUCT_RELATED_PRODUCT_CATEGORY ( 'part', '', ( #95 ) ) ;
#3 = DOCUMENT_TYPE ( 'geometry' ) ;
#4 = APPLICATION_PROTOCOL_DEFINITION ( 'draft international standard', 'automotive_design', 1998, #42 ) ;
#5 = ITEM_DEFINED_TRANSFORMATION ( 'NONE', 'NONE', #39,  #92 ) ;
#6 = PROPERTY_DEFINITION ('external definition','', #100 ) ;
#7 = APPLIED_EXTERNAL_IDENTIFICATION_ASSIGNMENT ( 'VC Sensor HEPI V1.0.STEP' , #133, #118,( #100) ) ;
#8 =( LENGTH_UNIT ( ) NAMED_UNIT ( * ) SI_UNIT ( .MILLI., .METRE. ) );
#9 = APPLICATION_CONTEXT ( 'automotive_design' ) ;
#10 =( NAMED_UNIT ( * ) PLANE_ANGLE_UNIT ( ) SI_UNIT ( $, .RADIAN. ) );
#11 = PRODUCT_DEFINITION_CONTEXT ( 'detailed design', #9, 'design' ) ;
#12 = APPLIED_DOCUMENT_REFERENCE ( #74,'',( #116) ) ;
#13 = EXTERNAL_SOURCE (IDENTIFIER('') ) ;
#14 = DIRECTION ( 'NONE',  ( 1.000000000000000000, 0.000000000000000000, 0.000000000000000000 ) ) ;
#15 =( NAMED_UNIT ( * ) PLANE_ANGLE_UNIT ( ) SI_UNIT ( $, .RADIAN. ) );
#16 =( REPRESENTATION_RELATIONSHIP ('NONE','NONE', #106, #22 ) REPRESENTATION_RELATIONSHIP_WITH_TRANSFORMATION ( #91 )SHAPE_REPRESENTATION_RELATIONSHIP( ) );
#17 = DOCUMENT_TYPE ( 'geometry' ) ;
#18 = PRODUCT ( 'VC Sensor D3 D4 V1.0', 'VC Sensor D3 D4 V1.0', '', ( #111 ) ) ;
#19 = PRODUCT_DEFINITION_FORMATION_WITH_SPECIFIED_SOURCE ( 'Symmetric', '', #95, .NOT_KNOWN. ) ;
#20 =( GEOMETRIC_REPRESENTATION_CONTEXT ( 3 ) GLOBAL_UNCERTAINTY_ASSIGNED_CONTEXT ( ( #43 ) ) GLOBAL_UNIT_ASSIGNED_CONTEXT ( ( #54, #120, #72 ) ) REPRESENTATION_CONTEXT ( 'NONE', 'WORKASPACE' ) );
#21 = CARTESIAN_POINT ( 'NONE',  ( 0.000000000000000000, 0.000000000000000000, 0.000000000000000000 ) ) ;
#22 = SHAPE_REPRESENTATION ( 'VC Sensor D3 D4 V1.0', ( #90 ), #68 ) ;
#23 = OBJECT_ROLE ('mandatory',$ ) ;
#24 = PROPERTY_DEFINITION_REPRESENTATION ( #6, #36 ) ;
#25 = APPLICATION_CONTEXT ( 'automotive_design' ) ;
#26 = ROLE_ASSOCIATION ( #78, #33 ) ;
#27 = PRODUCT_DEFINITION ( 'General', '', #19, #127 ) ;
#28 = APPLICATION_CONTEXT ( 'automotive_design' ) ;
#29 = PRODUCT_DEFINITION_FORMATION_WITH_SPECIFIED_SOURCE ( 'Symmetric', '', #50, .NOT_KNOWN. ) ;
#30 =( NAMED_UNIT ( * ) SI_UNIT ( $, .STERADIAN. ) SOLID_ANGLE_UNIT ( ) );
#31 = AXIS2_PLACEMENT_3D ( 'NONE', #87, #62, #112 ) ;
#32 = SHAPE_DEFINITION_REPRESENTATION ( #119, #22 ) ;
#33 = APPLIED_DOCUMENT_REFERENCE ( #137,'',( #135) ) ;
#34 = CONTEXT_DEPENDENT_SHAPE_REPRESENTATION ( #55, #65 ) ;
#35 = AXIS2_PLACEMENT_3D ( 'NONE', #139, #140, #71 ) ;
#36 = SHAPE_REPRESENTATION ( 'VC Sensor HEPI V1.0', ( #92 ), #20 ) ;
#37 = PRODUCT ( 'Mid Tray', 'Mid Tray', '', ( #107 ) ) ;
#38 = PROPERTY_DEFINITION ('document property','', #137 ) ;
#39 = AXIS2_PLACEMENT_3D ( 'NONE', #40, #88, #132 ) ;
#40 = CARTESIAN_POINT ( 'NONE',  ( 26.14511590175378331, 21.16089328716981655, 40.99535648033031521 ) ) ;
#41 = CARTESIAN_POINT ( 'NONE',  ( 0.000000000000000000, 0.000000000000000000, 0.000000000000000000 ) ) ;
#42 = APPLICATION_CONTEXT ( 'automotive_design' ) ;
#43 = UNCERTAINTY_MEASURE_WITH_UNIT (LENGTH_MEASURE( 1.000000000000000082E-05 ), #54, 'distance_accuracy_value', 'NONE');
#44 = APPLICATION_PROTOCOL_DEFINITION ( 'draft international standard', 'automotive_design', 1998, #113 ) ;
#45 = AXIS2_PLACEMENT_3D ( 'NONE', #109, #148, #14 ) ;
#46 =( NAMED_UNIT ( * ) SI_UNIT ( $, .STERADIAN. ) SOLID_ANGLE_UNIT ( ) );
#47 = PROPERTY_DEFINITION_REPRESENTATION ( #66, #36 ) ;
#48 = PRODUCT_RELATED_PRODUCT_CATEGORY ( 'part', '', ( #18 ) ) ;
#49 = DOCUMENT_TYPE ( 'geometry' ) ;
#50 = PRODUCT ( 'Mid Tray', 'Mid Tray', '', ( #129 ) ) ;
#51 =( GEOMETRIC_REPRESENTATION_CONTEXT ( 3 ) GLOBAL_UNCERTAINTY_ASSIGNED_CONTEXT ( ( #117 ) ) GLOBAL_UNIT_ASSIGNED_CONTEXT ( ( #103, #15, #46 ) ) REPRESENTATION_CONTEXT ( 'NONE', 'WORKASPACE' ) );
#52 =( NAMED_UNIT ( * ) SI_UNIT ( $, .STERADIAN. ) SOLID_ANGLE_UNIT ( ) );
#53 = PRODUCT_RELATED_PRODUCT_CATEGORY ( 'part', '', ( #37 ) ) ;
#54 =( LENGTH_UNIT ( ) NAMED_UNIT ( * ) SI_UNIT ( .MILLI., .METRE. ) );
#55 =( REPRESENTATION_RELATIONSHIP ('NONE','NONE', #106, #36 ) REPRESENTATION_RELATIONSHIP_WITH_TRANSFORMATION ( #5 )SHAPE_REPRESENTATION_RELATIONSHIP( ) );
#56 = APPLICATION_PROTOCOL_DEFINITION ( 'draft international standard', 'automotive_design', 1998, #147 ) ;
#57 = CARTESIAN_POINT ( 'NONE',  ( 0.000000000000000000, 0.000000000000000000, 0.000000000000000000 ) ) ;
#58 = DIRECTION ( 'NONE',  ( 1.000000000000000000, 0.000000000000000000, 0.000000000000000000 ) ) ;
#59 = ROLE_ASSOCIATION ( #85, #12 ) ;
#60 =( GEOMETRIC_REPRESENTATION_CONTEXT ( 3 ) GLOBAL_UNCERTAINTY_ASSIGNED_CONTEXT ( ( #63 ) ) GLOBAL_UNIT_ASSIGNED_CONTEXT ( ( #86, #10, #30 ) ) REPRESENTATION_CONTEXT ( 'NONE', 'WORKASPACE' ) );
#61 = UNCERTAINTY_MEASURE_WITH_UNIT (LENGTH_MEASURE( 1.000000000000000082E-05 ), #8, 'distance_accuracy_value', 'NONE');
#62 = DIRECTION ( 'NONE',  ( 0.000000000000000000, 0.000000000000000000, 1.000000000000000000 ) ) ;
#63 = UNCERTAINTY_MEASURE_WITH_UNIT (LENGTH_MEASURE( 1.000000000000000082E-05 ), #86, 'distance_accuracy_value', 'NONE');
#64 = APPLICATION_PROTOCOL_DEFINITION ( 'draft international standard', 'automotive_design', 1998, #122 ) ;
#65 = PRODUCT_DEFINITION_SHAPE ( 'NONE', 'NONE',  #150 ) ;
#66 = PROPERTY_DEFINITION ('document property','', #100 ) ;
#67 = EXTERNAL_SOURCE (IDENTIFIER('') ) ;
#68 =( GEOMETRIC_REPRESENTATION_CONTEXT ( 3 ) GLOBAL_UNCERTAINTY_ASSIGNED_CONTEXT ( ( #61 ) ) GLOBAL_UNIT_ASSIGNED_CONTEXT ( ( #8, #69, #52 ) ) REPRESENTATION_CONTEXT ( 'NONE', 'WORKASPACE' ) );
#69 =( NAMED_UNIT ( * ) PLANE_ANGLE_UNIT ( ) SI_UNIT ( $, .RADIAN. ) );
#70 = PRODUCT_DEFINITION_SHAPE ( 'NONE', 'NONE',  #27 ) ;
#71 = DIRECTION ( 'NONE',  ( 1.000000000000000000, 0.000000000000000000, 0.000000000000000000 ) ) ;
#72 =( NAMED_UNIT ( * ) SI_UNIT ( $, .STERADIAN. ) SOLID_ANGLE_UNIT ( ) );
#73 = PRODUCT_DEFINITION_CONTEXT ( 'detailed design', #101, 'design' ) ;
#74 = DOCUMENT_FILE ( 'Mid Tray.STEP' , '', '', #17, '' ,$ ) ;
#75 = PRODUCT_DEFINITION ( 'General', '', #114, #99 ) ;
#76 = SHAPE_DEFINITION_REPRESENTATION ( #70, #36 ) ;
#77 = PROPERTY_DEFINITION_REPRESENTATION ( #38, #22 ) ;
#78 = OBJECT_ROLE ('mandatory',$ ) ;
#79 = APPLIED_EXTERNAL_IDENTIFICATION_ASSIGNMENT ( 'Mid Tray.STEP' , #97, #13,( #74) ) ;
#80 = PROPERTY_DEFINITION ('external definition','', #137 ) ;
#81 = PROPERTY_DEFINITION ('external definition','', #74 ) ;
#82 = IDENTIFICATION_ROLE ( 'external document id and location', $) ;
#83 = AXIS2_PLACEMENT_3D ( 'NONE', #41, #131, #141 ) ;
#84 = DIRECTION ( 'NONE',  ( 0.000000000000000000, 0.000000000000000000, 1.000000000000000000 ) ) ;
#85 = OBJECT_ROLE ('mandatory',$ ) ;
#86 =( LENGTH_UNIT ( ) NAMED_UNIT ( * ) SI_UNIT ( .MILLI., .METRE. ) );
#87 = CARTESIAN_POINT ( 'NONE',  ( 0.000000000000000000, 0.000000000000000000, 0.000000000000000000 ) ) ;
#88 = DIRECTION ( 'NONE',  ( -3.494332759618177882E-17, 0.9999999999999997780, 1.173735987482946701E-16 ) ) ;
#89 = ROLE_ASSOCIATION ( #23, #126 ) ;
#90 = AXIS2_PLACEMENT_3D ( 'NONE', #21, #121, #108 ) ;
#91 = ITEM_DEFINED_TRANSFORMATION ( 'NONE', 'NONE', #45,  #90 ) ;
#92 = AXIS2_PLACEMENT_3D ( 'NONE', #57, #84, #58 ) ;
#93 = PRODUCT_DEFINITION_SHAPE ( 'NONE', 'NONE',  #116 ) ;
#94 = PROPERTY_DEFINITION ('document property','', #74 ) ;
#95 = PRODUCT ( 'VC Sensor HEPI V1.0', 'VC Sensor HEPI V1.0', '', ( #134 ) ) ;
#96 = SHAPE_REPRESENTATION ( 'Mid Tray', ( #83 ), #60 ) ;
#97 = IDENTIFICATION_ROLE ( 'external document id and location', $) ;
#98 = APPLICATION_PROTOCOL_DEFINITION ( 'draft international standard', 'automotive_design', 1998, #25 ) ;
#99 = PRODUCT_DEFINITION_CONTEXT ( 'detailed design', #122, 'design' ) ;
#100 = DOCUMENT_FILE ( 'VC Sensor HEPI V1.0.STEP' , '', '', #3, '' ,$ ) ;
#101 = APPLICATION_CONTEXT ( 'automotive_design' ) ;
#102 = PRODUCT_DEFINITION_FORMATION_WITH_SPECIFIED_SOURCE ( 'Symmetric', '', #18, .NOT_KNOWN. ) ;
#103 =( LENGTH_UNIT ( ) NAMED_UNIT ( * ) SI_UNIT ( .MILLI., .METRE. ) );
#104 = PRODUCT_DEFINITION_SHAPE ( 'NONE', 'NONE',  #151 ) ;
#105 = APPLIED_EXTERNAL_IDENTIFICATION_ASSIGNMENT ( 'VC Sensor D3 D4 V1.0.STEP' , #82, #67,( #137) ) ;
#106 = SHAPE_REPRESENTATION ( 'Mid Tray', ( #31, #35, #39, #45 ), #51 ) ;
#107 = PRODUCT_CONTEXT ( 'NONE', #147, 'mechanical' ) ;
#108 = DIRECTION ( 'NONE',  ( 1.000000000000000000, 0.000000000000000000, 0.000000000000000000 ) ) ;
#109 = CARTESIAN_POINT ( 'NONE',  ( 26.14511590175376909, 33.17826288716939587, 40.99535648033066337 ) ) ;
#110 = SHAPE_DEFINITION_REPRESENTATION ( #93, #96 ) ;
#111 = PRODUCT_CONTEXT ( 'NONE', #28, 'mechanical' ) ;
#112 = DIRECTION ( 'NONE',  ( 1.000000000000000000, 0.000000000000000000, 0.000000000000000000 ) ) ;
#113 = APPLICATION_CONTEXT ( 'automotive_design' ) ;
#114 = PRODUCT_DEFINITION_FORMATION_WITH_SPECIFIED_SOURCE ( 'Symmetric', '', #37, .NOT_KNOWN. ) ;
#115 = ITEM_DEFINED_TRANSFORMATION ( 'NONE', 'NONE', #35,  #83 ) ;
#116 = PRODUCT_DEFINITION ( 'General', '', #29, #11 ) ;
#117 = UNCERTAINTY_MEASURE_WITH_UNIT (LENGTH_MEASURE( 1.000000000000000082E-05 ), #103, 'distance_accuracy_value', 'NONE');
#118 = EXTERNAL_SOURCE (IDENTIFIER('') ) ;
#119 = PRODUCT_DEFINITION_SHAPE ( 'NONE', 'NONE',  #135 ) ;
#120 =( NAMED_UNIT ( * ) PLANE_ANGLE_UNIT ( ) SI_UNIT ( $, .RADIAN. ) );
#121 = DIRECTION ( 'NONE',  ( 0.000000000000000000, 0.000000000000000000, 1.000000000000000000 ) ) ;
#122 = APPLICATION_CONTEXT ( 'automotive_design' ) ;
#123 = PRODUCT_RELATED_PRODUCT_CATEGORY ( 'part', '', ( #50 ) ) ;
#124 = APPLICATION_PROTOCOL_DEFINITION ( 'draft international standard', 'automotive_design', 1998, #28 ) ;
#125 = PROPERTY_DEFINITION_REPRESENTATION ( #80, #22 ) ;
#126 = APPLIED_DOCUMENT_REFERENCE ( #100,'',( #27) ) ;
#127 = PRODUCT_DEFINITION_CONTEXT ( 'detailed design', #25, 'design' ) ;
#128 = CONTEXT_DEPENDENT_SHAPE_REPRESENTATION ( #130, #138 ) ;
#129 = PRODUCT_CONTEXT ( 'NONE', #42, 'mechanical' ) ;
#130 =( REPRESENTATION_RELATIONSHIP ('NONE','NONE', #106, #96 ) REPRESENTATION_RELATIONSHIP_WITH_TRANSFORMATION ( #115 )SHAPE_REPRESENTATION_RELATIONSHIP( ) );
#131 = DIRECTION ( 'NONE',  ( 0.000000000000000000, 0.000000000000000000, 1.000000000000000000 ) ) ;
#132 = DIRECTION ( 'NONE',  ( 0.9999999999999998890, 3.494332759618178498E-17, -8.326672684688674053E-17 ) ) ;
#133 = IDENTIFICATION_ROLE ( 'external document id and location', $) ;
#134 = PRODUCT_CONTEXT ( 'NONE', #113, 'mechanical' ) ;
#135 = PRODUCT_DEFINITION ( 'General', '', #102, #73 ) ;
#136 = APPLICATION_PROTOCOL_DEFINITION ( 'draft international standard', 'automotive_design', 1998, #9 ) ;
#137 = DOCUMENT_FILE ( 'VC Sensor D3 D4 V1.0.STEP' , '', '', #49, '' ,$ ) ;
#138 = PRODUCT_DEFINITION_SHAPE ( 'NONE', 'NONE',  #149 ) ;
#139 = CARTESIAN_POINT ( 'NONE',  ( 26.14511590175376909, 45.16089328716982010, 40.99535648033031521 ) ) ;
#140 = DIRECTION ( 'NONE',  ( 0.000000000000000000, 0.000000000000000000, 1.000000000000000000 ) ) ;
#141 = DIRECTION ( 'NONE',  ( 1.000000000000000000, 0.000000000000000000, 0.000000000000000000 ) ) ;
#142 = PRODUCT_DEFINITION_SHAPE ( 'NONE', 'NONE',  #75 ) ;
#143 = PROPERTY_DEFINITION_REPRESENTATION ( #81, #96 ) ;
#144 = CONTEXT_DEPENDENT_SHAPE_REPRESENTATION ( #16, #104 ) ;
#145 = SHAPE_DEFINITION_REPRESENTATION ( #142, #106 ) ;
#146 = APPLICATION_PROTOCOL_DEFINITION ( 'draft international standard', 'automotive_design', 1998, #101 ) ;
#147 = APPLICATION_CONTEXT ( 'automotive_design' ) ;
#148 = DIRECTION ( 'NONE',  ( 0.000000000000000000, 1.000000000000000000, 1.047444401652940007E-14 ) ) ;
#149 = NEXT_ASSEMBLY_USAGE_OCCURRENCE ( 'NAUO1', ' ', ' ', #75, #116, $ ) ;
#150 = NEXT_ASSEMBLY_USAGE_OCCURRENCE ( 'NAUO2', ' ', ' ', #75, #27, $ ) ;
#151 = NEXT_ASSEMBLY_USAGE_OCCURRENCE ( 'NAUO3', ' ', ' ', #75, #135, $ ) ;
ENDSEC;
END-ISO-10303-21;
