ISO-10303-21;
HEADER;
FILE_DESCRIPTION (( 'STEP AP214' ),
    '1' );
FILE_NAME ('Stacked Trays.STEP',
    '2026-01-09T12:25:55',
    ( '' ),
    ( '' ),
    'SwSTEP 2.0',
    'SolidWorks 2024',
    '' );
FILE_SCHEMA (( 'AUTOMOTIVE_DESIGN' ));
ENDSEC;

DATA;
#1 = PRODUCT_DEFINITION_CONTEXT ( 'detailed design', #118, 'design' ) ;
#2 = EXTERNAL_SOURCE (IDENTIFIER('') ) ;
#3 = CARTESIAN_POINT ( 'NONE',  ( 30.65777768611895127, 24.66662580001929683, 34.90807180766163498 ) ) ;
#4 = DIRECTION ( 'NONE',  ( 0.000000000000000000, 6.982962677686266711E-15, -1.000000000000000000 ) ) ;
#5 = SHAPE_REPRESENTATION ( 'Lid', ( #271 ), #133 ) ;
#6 = CARTESIAN_POINT ( 'NONE',  ( 9.703701836252015767, 27.16637084085341769, 34.94888198496188636 ) ) ;
#7 = AXIS2_PLACEMENT_3D ( 'NONE', #265, #288, #241 ) ;
#8 = PRODUCT_CONTEXT ( 'NONE', #113, 'mechanical' ) ;
#9 = PRODUCT_RELATED_PRODUCT_CATEGORY ( 'part', '', ( #115 ) ) ;
#10 = PRODUCT_DEFINITION_CONTEXT ( 'detailed design', #40, 'design' ) ;
#11 = CONTEXT_DEPENDENT_SHAPE_REPRESENTATION ( #54, #313 ) ;
#12 = EXTERNAL_SOURCE (IDENTIFIER('') ) ;
#13 = CONTEXT_DEPENDENT_SHAPE_REPRESENTATION ( #237, #214 ) ;
#14 = CARTESIAN_POINT ( 'NONE',  ( 0.000000000000000000, 0.000000000000000000, 0.000000000000000000 ) ) ;
#15 = PROPERTY_DEFINITION ('document property','', #210 ) ;
#16 = ITEM_DEFINED_TRANSFORMATION ( 'NONE', 'NONE', #100,  #164 ) ;
#17 = DIRECTION ( 'NONE',  ( 0.000000000000000000, 0.000000000000000000, 1.000000000000000000 ) ) ;
#18 = APPLICATION_CONTEXT ( 'automotive_design' ) ;
#19 = PRODUCT_DEFINITION ( 'General', '', #301, #283 ) ;
#20 = AXIS2_PLACEMENT_3D ( 'NONE', #56, #4, #127 ) ;
#21 = OBJECT_ROLE ('mandatory',$ ) ;
#22 = DIRECTION ( 'NONE',  ( 0.000000000000000000, 0.000000000000000000, 1.000000000000000000 ) ) ;
#23 = PROPERTY_DEFINITION ('external definition','', #206 ) ;
#24 = DOCUMENT_TYPE ( 'geometry' ) ;
#25 =( GEOMETRIC_REPRESENTATION_CONTEXT ( 3 ) GLOBAL_UNCERTAINTY_ASSIGNED_CONTEXT ( ( #128 ) ) GLOBAL_UNIT_ASSIGNED_CONTEXT ( ( #293, #169, #274 ) ) REPRESENTATION_CONTEXT ( 'NONE', 'WORKASPACE' ) );
#26 = PRODUCT_DEFINITION_CONTEXT ( 'detailed design', #96, 'design' ) ;
#27 = DIRECTION ( 'NONE',  ( -1.098599196786648880E-25, -1.058791100330033296E-22, -0.9999999999999998890 ) ) ;
#28 = DOCUMENT_TYPE ( 'geometry' ) ;
#29 = SHAPE_DEFINITION_REPRESENTATION ( #263, #238 ) ;
#30 = SHAPE_DEFINITION_REPRESENTATION ( #289, #272 ) ;
#31 = DIRECTION ( 'NONE',  ( -1.000000000000000000, -6.982695671675644335E-15, 1.098599196794042326E-25 ) ) ;
#32 = DIRECTION ( 'NONE',  ( 1.000000000000000000, 0.000000000000000000, 0.000000000000000000 ) ) ;
#33 = OBJECT_ROLE ('mandatory',$ ) ;
#34 = ROLE_ASSOCIATION ( #33, #201 ) ;
#35 = DIRECTION ( 'NONE',  ( 0.000000000000000000, 0.000000000000000000, 1.000000000000000000 ) ) ;
#36 = ROLE_ASSOCIATION ( #79, #257 ) ;
#37 = APPLIED_EXTERNAL_IDENTIFICATION_ASSIGNMENT ( 'Top Tray_asm.STEP' , #58, #196,( #210) ) ;
#38 = AXIS2_PLACEMENT_3D ( 'NONE', #221, #254, #32 ) ;
#39 = ITEM_DEFINED_TRANSFORMATION ( 'NONE', 'NONE', #192,  #111 ) ;
#40 = APPLICATION_CONTEXT ( 'automotive_design' ) ;
#41 = PRODUCT_DEFINITION ( 'General', '', #244, #1 ) ;
#42 = ITEM_DEFINED_TRANSFORMATION ( 'NONE', 'NONE', #215,  #253 ) ;
#43 = ROLE_ASSOCIATION ( #69, #203 ) ;
#44 = DIRECTION ( 'NONE',  ( 0.000000000000000000, 0.000000000000000000, 1.000000000000000000 ) ) ;
#45 = PRODUCT_DEFINITION_SHAPE ( 'NONE', 'NONE',  #140 ) ;
#46 = PROPERTY_DEFINITION ('document property','', #182 ) ;
#47 = DIRECTION ( 'NONE',  ( 1.000000000000000000, 0.000000000000000000, 0.000000000000000000 ) ) ;
#48 = PRODUCT_RELATED_PRODUCT_CATEGORY ( 'part', '', ( #209 ) ) ;
#49 =( REPRESENTATION_RELATIONSHIP ('NONE','NONE', #272, #238 ) REPRESENTATION_RELATIONSHIP_WITH_TRANSFORMATION ( #178 )SHAPE_REPRESENTATION_RELATIONSHIP( ) );
#50 = PRODUCT_CONTEXT ( 'NONE', #232, 'mechanical' ) ;
#51 =( NAMED_UNIT ( * ) PLANE_ANGLE_UNIT ( ) SI_UNIT ( $, .RADIAN. ) );
#52 = PRODUCT_RELATED_PRODUCT_CATEGORY ( 'part', '', ( #64 ) ) ;
#53 = APPLICATION_PROTOCOL_DEFINITION ( 'draft international standard', 'automotive_design', 1998, #197 ) ;
#54 =( REPRESENTATION_RELATIONSHIP ('NONE','NONE', #272, #198 ) REPRESENTATION_RELATIONSHIP_WITH_TRANSFORMATION ( #309 )SHAPE_REPRESENTATION_RELATIONSHIP( ) );
#55 = CARTESIAN_POINT ( 'NONE',  ( 28.65587766403185555, -26.51353961887485156, 22.69245723098205758 ) ) ;
#56 = CARTESIAN_POINT ( 'NONE',  ( 30.65777768612342058, -17.54600385319682943, 75.87983868422301725 ) ) ;
#57 = PRODUCT ( 'Mid Tray_asm', 'Mid Tray_asm', '', ( #275 ) ) ;
#58 = IDENTIFICATION_ROLE ( 'external document id and location', $) ;
#59 = PROPERTY_DEFINITION_REPRESENTATION ( #189, #238 ) ;
#60 = PRODUCT ( 'Low Tray_asm', 'Low Tray_asm', '', ( #302 ) ) ;
#61 =( NAMED_UNIT ( * ) PLANE_ANGLE_UNIT ( ) SI_UNIT ( $, .RADIAN. ) );
#62 =( GEOMETRIC_REPRESENTATION_CONTEXT ( 3 ) GLOBAL_UNCERTAINTY_ASSIGNED_CONTEXT ( ( #245 ) ) GLOBAL_UNIT_ASSIGNED_CONTEXT ( ( #117, #165, #91 ) ) REPRESENTATION_CONTEXT ( 'NONE', 'WORKASPACE' ) );
#63 =( NAMED_UNIT ( * ) PLANE_ANGLE_UNIT ( ) SI_UNIT ( $, .RADIAN. ) );
#64 = PRODUCT ( 'VC Backplane V1.0', 'VC Backplane V1.0', '', ( #50 ) ) ;
#65 = DOCUMENT_FILE ( 'Back plate.STEP' , '', '', #259, '' ,$ ) ;
#66 = DOCUMENT_TYPE ( 'geometry' ) ;
#67 =( NAMED_UNIT ( * ) SI_UNIT ( $, .STERADIAN. ) SOLID_ANGLE_UNIT ( ) );
#68 = PRODUCT ( 'Stacked Trays', 'Stacked Trays', '', ( #87 ) ) ;
#69 = OBJECT_ROLE ('mandatory',$ ) ;
#70 = DIRECTION ( 'NONE',  ( 0.000000000000000000, 0.000000000000000000, 1.000000000000000000 ) ) ;
#71 = APPLICATION_PROTOCOL_DEFINITION ( 'draft international standard', 'automotive_design', 1998, #135 ) ;
#72 = DIRECTION ( 'NONE',  ( 0.000000000000000000, 0.000000000000000000, 1.000000000000000000 ) ) ;
#73 = APPLICATION_CONTEXT ( 'automotive_design' ) ;
#74 = UNCERTAINTY_MEASURE_WITH_UNIT (LENGTH_MEASURE( 1.000000000000000082E-05 ), #256, 'distance_accuracy_value', 'NONE');
#75 =( GEOMETRIC_REPRESENTATION_CONTEXT ( 3 ) GLOBAL_UNCERTAINTY_ASSIGNED_CONTEXT ( ( #119 ) ) GLOBAL_UNIT_ASSIGNED_CONTEXT ( ( #299, #81, #120 ) ) REPRESENTATION_CONTEXT ( 'NONE', 'WORKASPACE' ) );
#76 = DIRECTION ( 'NONE',  ( 1.000000000000000000, 0.000000000000000000, 0.000000000000000000 ) ) ;
#77 = APPLICATION_PROTOCOL_DEFINITION ( 'draft international standard', 'automotive_design', 1998, #96 ) ;
#78 = DIRECTION ( 'NONE',  ( 1.000000000000000000, 0.000000000000000000, 0.000000000000000000 ) ) ;
#79 = OBJECT_ROLE ('mandatory',$ ) ;
#80 = PRODUCT_DEFINITION_FORMATION_WITH_SPECIFIED_SOURCE ( 'Symmetric', '', #105, .NOT_KNOWN. ) ;
#81 =( NAMED_UNIT ( * ) PLANE_ANGLE_UNIT ( ) SI_UNIT ( $, .RADIAN. ) );
#82 = PRODUCT_RELATED_PRODUCT_CATEGORY ( 'part', '', ( #68 ) ) ;
#83 = EXTERNAL_SOURCE (IDENTIFIER('') ) ;
#84 = CONTEXT_DEPENDENT_SHAPE_REPRESENTATION ( #153, #235 ) ;
#85 = PRODUCT_DEFINITION_FORMATION_WITH_SPECIFIED_SOURCE ( 'Symmetric', '', #209, .NOT_KNOWN. ) ;
#86 = PROPERTY_DEFINITION_REPRESENTATION ( #15, #198 ) ;
#87 = PRODUCT_CONTEXT ( 'NONE', #224, 'mechanical' ) ;
#88 = PRODUCT_DEFINITION_SHAPE ( 'NONE', 'NONE',  #159 ) ;
#89 = IDENTIFICATION_ROLE ( 'external document id and location', $) ;
#90 = PRODUCT_DEFINITION_CONTEXT ( 'detailed design', #284, 'design' ) ;
#91 =( NAMED_UNIT ( * ) SI_UNIT ( $, .STERADIAN. ) SOLID_ANGLE_UNIT ( ) );
#92 = PRODUCT_DEFINITION ( 'General', '', #219, #90 ) ;
#93 = UNCERTAINTY_MEASURE_WITH_UNIT (LENGTH_MEASURE( 1.000000000000000082E-05 ), #148, 'distance_accuracy_value', 'NONE');
#94 = AXIS2_PLACEMENT_3D ( 'NONE', #134, #44, #162 ) ;
#95 =( NAMED_UNIT ( * ) SI_UNIT ( $, .STERADIAN. ) SOLID_ANGLE_UNIT ( ) );
#96 = APPLICATION_CONTEXT ( 'automotive_design' ) ;
#97 = APPLICATION_PROTOCOL_DEFINITION ( 'draft international standard', 'automotive_design', 1998, #118 ) ;
#98 = CARTESIAN_POINT ( 'NONE',  ( 4.512661784369660367, 0.2931028597357964172, 34.88448220389281573 ) ) ;
#99 = EXTERNAL_SOURCE (IDENTIFIER('') ) ;
#100 = AXIS2_PLACEMENT_3D ( 'NONE', #98, #145, #252 ) ;
#101 = PROPERTY_DEFINITION_REPRESENTATION ( #233, #225 ) ;
#102 = PROPERTY_DEFINITION_REPRESENTATION ( #23, #5 ) ;
#103 = APPLICATION_CONTEXT ( 'automotive_design' ) ;
#104 = ROLE_ASSOCIATION ( #129, #155 ) ;
#105 = PRODUCT ( 'Base', 'Base', '', ( #173 ) ) ;
#106 = APPLIED_DOCUMENT_REFERENCE ( #206,'',( #140) ) ;
#107 = DIRECTION ( 'NONE',  ( 1.000000000000000000, 0.000000000000000000, 0.000000000000000000 ) ) ;
#108 = DOCUMENT_FILE ( 'Mid Tray_asm.STEP' , '', '', #66, '' ,$ ) ;
#109 = PROPERTY_DEFINITION ('document property','', #239 ) ;
#110 =( NAMED_UNIT ( * ) SI_UNIT ( $, .STERADIAN. ) SOLID_ANGLE_UNIT ( ) );
#111 = AXIS2_PLACEMENT_3D ( 'NONE', #167, #267, #47 ) ;
#112 = SHAPE_REPRESENTATION ( 'Base', ( #228 ), #62 ) ;
#113 = APPLICATION_CONTEXT ( 'automotive_design' ) ;
#114 =( NAMED_UNIT ( * ) PLANE_ANGLE_UNIT ( ) SI_UNIT ( $, .RADIAN. ) );
#115 = PRODUCT ( 'Lid', 'Lid', '', ( #124 ) ) ;
#116 = UNCERTAINTY_MEASURE_WITH_UNIT (LENGTH_MEASURE( 1.000000000000000082E-05 ), #143, 'distance_accuracy_value', 'NONE');
#117 =( LENGTH_UNIT ( ) NAMED_UNIT ( * ) SI_UNIT ( .MILLI., .METRE. ) );
#118 = APPLICATION_CONTEXT ( 'automotive_design' ) ;
#119 = UNCERTAINTY_MEASURE_WITH_UNIT (LENGTH_MEASURE( 1.000000000000000082E-05 ), #299, 'distance_accuracy_value', 'NONE');
#120 =( NAMED_UNIT ( * ) SI_UNIT ( $, .STERADIAN. ) SOLID_ANGLE_UNIT ( ) );
#121 = APPLIED_EXTERNAL_IDENTIFICATION_ASSIGNMENT ( 'Base.STEP' , #89, #191,( #239) ) ;
#122 = DIRECTION ( 'NONE',  ( 0.000000000000000000, 0.000000000000000000, 1.000000000000000000 ) ) ;
#123 = APPLICATION_CONTEXT ( 'automotive_design' ) ;
#124 = PRODUCT_CONTEXT ( 'NONE', #307, 'mechanical' ) ;
#125 = APPLICATION_PROTOCOL_DEFINITION ( 'draft international standard', 'automotive_design', 1998, #307 ) ;
#126 = PRODUCT_CONTEXT ( 'NONE', #18, 'mechanical' ) ;
#127 = DIRECTION ( 'NONE',  ( 1.000000000000000000, 0.000000000000000000, 0.000000000000000000 ) ) ;
#128 = UNCERTAINTY_MEASURE_WITH_UNIT (LENGTH_MEASURE( 1.000000000000000082E-05 ), #293, 'distance_accuracy_value', 'NONE');
#129 = OBJECT_ROLE ('mandatory',$ ) ;
#130 = PROPERTY_DEFINITION_REPRESENTATION ( #181, #225 ) ;
#131 = PRODUCT_DEFINITION_SHAPE ( 'NONE', 'NONE',  #320 ) ;
#132 = PROPERTY_DEFINITION_REPRESENTATION ( #161, #112 ) ;
#133 =( GEOMETRIC_REPRESENTATION_CONTEXT ( 3 ) GLOBAL_UNCERTAINTY_ASSIGNED_CONTEXT ( ( #74 ) ) GLOBAL_UNIT_ASSIGNED_CONTEXT ( ( #256, #63, #315 ) ) REPRESENTATION_CONTEXT ( 'NONE', 'WORKASPACE' ) );
#134 = CARTESIAN_POINT ( 'NONE',  ( 0.000000000000000000, 0.000000000000000000, 0.000000000000000000 ) ) ;
#135 = APPLICATION_CONTEXT ( 'automotive_design' ) ;
#136 = PROPERTY_DEFINITION ('external definition','', #65 ) ;
#137 =( LENGTH_UNIT ( ) NAMED_UNIT ( * ) SI_UNIT ( .MILLI., .METRE. ) );
#138 = CARTESIAN_POINT ( 'NONE',  ( 0.000000000000000000, 0.000000000000000000, 0.000000000000000000 ) ) ;
#139 = IDENTIFICATION_ROLE ( 'external document id and location', $) ;
#140 = PRODUCT_DEFINITION ( 'General', '', #146, #247 ) ;
#141 =( GEOMETRIC_REPRESENTATION_CONTEXT ( 3 ) GLOBAL_UNCERTAINTY_ASSIGNED_CONTEXT ( ( #116 ) ) GLOBAL_UNIT_ASSIGNED_CONTEXT ( ( #143, #114, #67 ) ) REPRESENTATION_CONTEXT ( 'NONE', 'WORKASPACE' ) );
#142 = SHAPE_REPRESENTATION ( 'VC Backplane V1.0', ( #111 ), #75 ) ;
#143 =( LENGTH_UNIT ( ) NAMED_UNIT ( * ) SI_UNIT ( .MILLI., .METRE. ) );
#144 = APPLICATION_CONTEXT ( 'automotive_design' ) ;
#145 = DIRECTION ( 'NONE',  ( 0.000000000000000000, 0.000000000000000000, 1.000000000000000000 ) ) ;
#146 = PRODUCT_DEFINITION_FORMATION_WITH_SPECIFIED_SOURCE ( 'Symmetric', '', #115, .NOT_KNOWN. ) ;
#147 = DIRECTION ( 'NONE',  ( 0.000000000000000000, 0.000000000000000000, 1.000000000000000000 ) ) ;
#148 =( LENGTH_UNIT ( ) NAMED_UNIT ( * ) SI_UNIT ( .MILLI., .METRE. ) );
#149 = AXIS2_PLACEMENT_3D ( 'NONE', #55, #72, #78 ) ;
#150 = PROPERTY_DEFINITION_REPRESENTATION ( #310, #198 ) ;
#151 = PRODUCT_DEFINITION ( 'General', '', #85, #220 ) ;
#152 = CONTEXT_DEPENDENT_SHAPE_REPRESENTATION ( #216, #166 ) ;
#153 =( REPRESENTATION_RELATIONSHIP ('NONE','NONE', #272, #142 ) REPRESENTATION_RELATIONSHIP_WITH_TRANSFORMATION ( #39 )SHAPE_REPRESENTATION_RELATIONSHIP( ) );
#154 = PROPERTY_DEFINITION ('external definition','', #187 ) ;
#155 = APPLIED_DOCUMENT_REFERENCE ( #108,'',( #41) ) ;
#156 = PRODUCT_DEFINITION_FORMATION_WITH_SPECIFIED_SOURCE ( 'Symmetric', '', #64, .NOT_KNOWN. ) ;
#157 = PROPERTY_DEFINITION_REPRESENTATION ( #154, #142 ) ;
#158 = PRODUCT_DEFINITION_SHAPE ( 'NONE', 'NONE',  #319 ) ;
#159 = PRODUCT_DEFINITION ( 'General', '', #80, #10 ) ;
#160 = APPLIED_DOCUMENT_REFERENCE ( #65,'',( #211) ) ;
#161 = PROPERTY_DEFINITION ('external definition','', #239 ) ;
#162 = DIRECTION ( 'NONE',  ( 1.000000000000000000, 0.000000000000000000, 0.000000000000000000 ) ) ;
#163 = DOCUMENT_TYPE ( 'geometry' ) ;
#164 = AXIS2_PLACEMENT_3D ( 'NONE', #207, #35, #258 ) ;
#165 =( NAMED_UNIT ( * ) PLANE_ANGLE_UNIT ( ) SI_UNIT ( $, .RADIAN. ) );
#166 = PRODUCT_DEFINITION_SHAPE ( 'NONE', 'NONE',  #321 ) ;
#167 = CARTESIAN_POINT ( 'NONE',  ( 0.000000000000000000, 0.000000000000000000, 0.000000000000000000 ) ) ;
#168 =( GEOMETRIC_REPRESENTATION_CONTEXT ( 3 ) GLOBAL_UNCERTAINTY_ASSIGNED_CONTEXT ( ( #226 ) ) GLOBAL_UNIT_ASSIGNED_CONTEXT ( ( #282, #61, #110 ) ) REPRESENTATION_CONTEXT ( 'NONE', 'WORKASPACE' ) );
#169 =( NAMED_UNIT ( * ) PLANE_ANGLE_UNIT ( ) SI_UNIT ( $, .RADIAN. ) );
#170 = APPLICATION_PROTOCOL_DEFINITION ( 'draft international standard', 'automotive_design', 1998, #171 ) ;
#171 = APPLICATION_CONTEXT ( 'automotive_design' ) ;
#172 = AXIS2_PLACEMENT_3D ( 'NONE', #6, #147, #175 ) ;
#173 = PRODUCT_CONTEXT ( 'NONE', #123, 'mechanical' ) ;
#174 = SHAPE_DEFINITION_REPRESENTATION ( #243, #142 ) ;
#175 = DIRECTION ( 'NONE',  ( 1.000000000000000000, 0.000000000000000000, 0.000000000000000000 ) ) ;
#176 = PRODUCT_RELATED_PRODUCT_CATEGORY ( 'part', '', ( #294 ) ) ;
#177 = PROPERTY_DEFINITION ('document property','', #187 ) ;
#178 = ITEM_DEFINED_TRANSFORMATION ( 'NONE', 'NONE', #149,  #94 ) ;
#179 = IDENTIFICATION_ROLE ( 'external document id and location', $) ;
#180 = CONTEXT_DEPENDENT_SHAPE_REPRESENTATION ( #204, #158 ) ;
#181 = PROPERTY_DEFINITION ('document property','', #108 ) ;
#182 = DOCUMENT_FILE ( 'Low Tray_asm.STEP' , '', '', #28, '' ,$ ) ;
#183 = PRODUCT_DEFINITION_SHAPE ( 'NONE', 'NONE',  #323 ) ;
#184 = APPLIED_DOCUMENT_REFERENCE ( #187,'',( #286) ) ;
#185 = APPLIED_EXTERNAL_IDENTIFICATION_ASSIGNMENT ( 'Mid Tray_asm.STEP' , #303, #2,( #108) ) ;
#186 = APPLIED_EXTERNAL_IDENTIFICATION_ASSIGNMENT ( 'Low Tray_asm.STEP' , #179, #83,( #182) ) ;
#187 = DOCUMENT_FILE ( 'VC Backplane V1.0.STEP' , '', '', #194, '' ,$ ) ;
#188 =( NAMED_UNIT ( * ) PLANE_ANGLE_UNIT ( ) SI_UNIT ( $, .RADIAN. ) );
#189 = PROPERTY_DEFINITION ('external definition','', #182 ) ;
#190 = PRODUCT_RELATED_PRODUCT_CATEGORY ( 'part', '', ( #60 ) ) ;
#191 = EXTERNAL_SOURCE (IDENTIFIER('') ) ;
#192 = AXIS2_PLACEMENT_3D ( 'NONE', #3, #246, #195 ) ;
#193 = APPLICATION_PROTOCOL_DEFINITION ( 'draft international standard', 'automotive_design', 1998, #123 ) ;
#194 = DOCUMENT_TYPE ( 'geometry' ) ;
#195 = DIRECTION ( 'NONE',  ( 0.9999999999999998890, -2.951196575169729353E-17, 1.033396956976434698E-14 ) ) ;
#196 = EXTERNAL_SOURCE (IDENTIFIER('') ) ;
#197 = APPLICATION_CONTEXT ( 'automotive_design' ) ;
#198 = SHAPE_REPRESENTATION ( 'Top Tray_asm', ( #7 ), #168 ) ;
#199 = APPLICATION_PROTOCOL_DEFINITION ( 'draft international standard', 'automotive_design', 1998, #103 ) ;
#200 = ITEM_DEFINED_TRANSFORMATION ( 'NONE', 'NONE', #38,  #271 ) ;
#201 = APPLIED_DOCUMENT_REFERENCE ( #182,'',( #19) ) ;
#202 = CARTESIAN_POINT ( 'NONE',  ( 0.000000000000000000, 0.000000000000000000, 0.000000000000000000 ) ) ;
#203 = APPLIED_DOCUMENT_REFERENCE ( #210,'',( #151) ) ;
#204 =( REPRESENTATION_RELATIONSHIP ('NONE','NONE', #272, #5 ) REPRESENTATION_RELATIONSHIP_WITH_TRANSFORMATION ( #200 )SHAPE_REPRESENTATION_RELATIONSHIP( ) );
#205 = PRODUCT_DEFINITION_SHAPE ( 'NONE', 'NONE',  #41 ) ;
#206 = DOCUMENT_FILE ( 'Lid.STEP' , '', '', #163, '' ,$ ) ;
#207 = CARTESIAN_POINT ( 'NONE',  ( 0.000000000000000000, 0.000000000000000000, 0.000000000000000000 ) ) ;
#208 = SHAPE_REPRESENTATION ( 'Back plate', ( #253 ), #25 ) ;
#209 = PRODUCT ( 'Top Tray_asm', 'Top Tray_asm', '', ( #8 ) ) ;
#210 = DOCUMENT_FILE ( 'Top Tray_asm.STEP' , '', '', #24, '' ,$ ) ;
#211 = PRODUCT_DEFINITION ( 'General', '', #305, #277 ) ;
#212 = EXTERNAL_SOURCE (IDENTIFIER('') ) ;
#213 = APPLICATION_PROTOCOL_DEFINITION ( 'draft international standard', 'automotive_design', 1998, #224 ) ;
#214 = PRODUCT_DEFINITION_SHAPE ( 'NONE', 'NONE',  #317 ) ;
#215 = AXIS2_PLACEMENT_3D ( 'NONE', #304, #27, #31 ) ;
#216 =( REPRESENTATION_RELATIONSHIP ('NONE','NONE', #272, #112 ) REPRESENTATION_RELATIONSHIP_WITH_TRANSFORMATION ( #231 )SHAPE_REPRESENTATION_RELATIONSHIP( ) );
#217 = PRODUCT_DEFINITION_SHAPE ( 'NONE', 'NONE',  #151 ) ;
#218 = DIRECTION ( 'NONE',  ( 1.000000000000000000, 0.000000000000000000, 0.000000000000000000 ) ) ;
#219 = PRODUCT_DEFINITION_FORMATION_WITH_SPECIFIED_SOURCE ( 'Symmetric', '', #68, .NOT_KNOWN. ) ;
#220 = PRODUCT_DEFINITION_CONTEXT ( 'detailed design', #103, 'design' ) ;
#221 = CARTESIAN_POINT ( 'NONE',  ( 30.65777768612342413, 82.45399614696502510, 75.87983868422314515 ) ) ;
#222 = PRODUCT_RELATED_PRODUCT_CATEGORY ( 'part', '', ( #105 ) ) ;
#223 = SHAPE_DEFINITION_REPRESENTATION ( #45, #5 ) ;
#224 = APPLICATION_CONTEXT ( 'automotive_design' ) ;
#225 = SHAPE_REPRESENTATION ( 'Mid Tray_asm', ( #164 ), #276 ) ;
#226 = UNCERTAINTY_MEASURE_WITH_UNIT (LENGTH_MEASURE( 1.000000000000000082E-05 ), #282, 'distance_accuracy_value', 'NONE');
#227 = APPLICATION_PROTOCOL_DEFINITION ( 'draft international standard', 'automotive_design', 1998, #73 ) ;
#228 = AXIS2_PLACEMENT_3D ( 'NONE', #138, #22, #218 ) ;
#229 = APPLICATION_PROTOCOL_DEFINITION ( 'draft international standard', 'automotive_design', 1998, #144 ) ;
#230 = PROPERTY_DEFINITION_REPRESENTATION ( #136, #208 ) ;
#231 = ITEM_DEFINED_TRANSFORMATION ( 'NONE', 'NONE', #20,  #228 ) ;
#232 = APPLICATION_CONTEXT ( 'automotive_design' ) ;
#233 = PROPERTY_DEFINITION ('external definition','', #108 ) ;
#234 = APPLIED_EXTERNAL_IDENTIFICATION_ASSIGNMENT ( 'VC Backplane V1.0.STEP' , #278, #99,( #187) ) ;
#235 = PRODUCT_DEFINITION_SHAPE ( 'NONE', 'NONE',  #322 ) ;
#236 = CARTESIAN_POINT ( 'NONE',  ( 0.000000000000000000, 0.000000000000000000, 0.000000000000000000 ) ) ;
#237 =( REPRESENTATION_RELATIONSHIP ('NONE','NONE', #272, #225 ) REPRESENTATION_RELATIONSHIP_WITH_TRANSFORMATION ( #16 )SHAPE_REPRESENTATION_RELATIONSHIP( ) );
#238 = SHAPE_REPRESENTATION ( 'Low Tray_asm', ( #94 ), #141 ) ;
#239 = DOCUMENT_FILE ( 'Base.STEP' , '', '', #316, '' ,$ ) ;
#240 =( GEOMETRIC_REPRESENTATION_CONTEXT ( 3 ) GLOBAL_UNCERTAINTY_ASSIGNED_CONTEXT ( ( #93 ) ) GLOBAL_UNIT_ASSIGNED_CONTEXT ( ( #148, #51, #95 ) ) REPRESENTATION_CONTEXT ( 'NONE', 'WORKASPACE' ) );
#241 = DIRECTION ( 'NONE',  ( 1.000000000000000000, 0.000000000000000000, 0.000000000000000000 ) ) ;
#242 = IDENTIFICATION_ROLE ( 'external document id and location', $) ;
#243 = PRODUCT_DEFINITION_SHAPE ( 'NONE', 'NONE',  #286 ) ;
#244 = PRODUCT_DEFINITION_FORMATION_WITH_SPECIFIED_SOURCE ( 'Symmetric', '', #57, .NOT_KNOWN. ) ;
#245 = UNCERTAINTY_MEASURE_WITH_UNIT (LENGTH_MEASURE( 1.000000000000000082E-05 ), #117, 'distance_accuracy_value', 'NONE');
#246 = DIRECTION ( 'NONE',  ( -1.033396957621414316E-14, -2.185568769999940113E-07, 0.9999999999999760192 ) ) ;
#247 = PRODUCT_DEFINITION_CONTEXT ( 'detailed design', #73, 'design' ) ;
#248 = SHAPE_DEFINITION_REPRESENTATION ( #298, #208 ) ;
#249 = APPLICATION_PROTOCOL_DEFINITION ( 'draft international standard', 'automotive_design', 1998, #232 ) ;
#250 = UNCERTAINTY_MEASURE_WITH_UNIT (LENGTH_MEASURE( 1.000000000000000082E-05 ), #137, 'distance_accuracy_value', 'NONE');
#251 =( REPRESENTATION_RELATIONSHIP ('NONE','NONE', #272, #208 ) REPRESENTATION_RELATIONSHIP_WITH_TRANSFORMATION ( #42 )SHAPE_REPRESENTATION_RELATIONSHIP( ) );
#252 = DIRECTION ( 'NONE',  ( 1.000000000000000000, 0.000000000000000000, 0.000000000000000000 ) ) ;
#253 = AXIS2_PLACEMENT_3D ( 'NONE', #236, #70, #269 ) ;
#254 = DIRECTION ( 'NONE',  ( 0.000000000000000000, 0.000000000000000000, 1.000000000000000000 ) ) ;
#255 = CONTEXT_DEPENDENT_SHAPE_REPRESENTATION ( #49, #131 ) ;
#256 =( LENGTH_UNIT ( ) NAMED_UNIT ( * ) SI_UNIT ( .MILLI., .METRE. ) );
#257 = APPLIED_DOCUMENT_REFERENCE ( #239,'',( #159) ) ;
#258 = DIRECTION ( 'NONE',  ( 1.000000000000000000, 0.000000000000000000, 0.000000000000000000 ) ) ;
#259 = DOCUMENT_TYPE ( 'geometry' ) ;
#260 = APPLIED_EXTERNAL_IDENTIFICATION_ASSIGNMENT ( 'Lid.STEP' , #139, #12,( #206) ) ;
#261 = PROPERTY_DEFINITION_REPRESENTATION ( #109, #112 ) ;
#262 =( NAMED_UNIT ( * ) SI_UNIT ( $, .STERADIAN. ) SOLID_ANGLE_UNIT ( ) );
#263 = PRODUCT_DEFINITION_SHAPE ( 'NONE', 'NONE',  #19 ) ;
#264 = ROLE_ASSOCIATION ( #270, #160 ) ;
#265 = CARTESIAN_POINT ( 'NONE',  ( 0.000000000000000000, 0.000000000000000000, 0.000000000000000000 ) ) ;
#266 = PROPERTY_DEFINITION ('document property','', #206 ) ;
#267 = DIRECTION ( 'NONE',  ( 0.000000000000000000, 0.000000000000000000, 1.000000000000000000 ) ) ;
#268 = APPLICATION_PROTOCOL_DEFINITION ( 'draft international standard', 'automotive_design', 1998, #284 ) ;
#269 = DIRECTION ( 'NONE',  ( 1.000000000000000000, 0.000000000000000000, 0.000000000000000000 ) ) ;
#270 = OBJECT_ROLE ('mandatory',$ ) ;
#271 = AXIS2_PLACEMENT_3D ( 'NONE', #14, #17, #107 ) ;
#272 = SHAPE_REPRESENTATION ( 'Stacked Trays', ( #295, #100, #172, #38, #149, #20, #192, #215 ), #240 ) ;
#273 = APPLIED_EXTERNAL_IDENTIFICATION_ASSIGNMENT ( 'Back plate.STEP' , #242, #212,( #65) ) ;
#274 =( NAMED_UNIT ( * ) SI_UNIT ( $, .STERADIAN. ) SOLID_ANGLE_UNIT ( ) );
#275 = PRODUCT_CONTEXT ( 'NONE', #171, 'mechanical' ) ;
#276 =( GEOMETRIC_REPRESENTATION_CONTEXT ( 3 ) GLOBAL_UNCERTAINTY_ASSIGNED_CONTEXT ( ( #250 ) ) GLOBAL_UNIT_ASSIGNED_CONTEXT ( ( #137, #188, #262 ) ) REPRESENTATION_CONTEXT ( 'NONE', 'WORKASPACE' ) );
#277 = PRODUCT_DEFINITION_CONTEXT ( 'detailed design', #144, 'design' ) ;
#278 = IDENTIFICATION_ROLE ( 'external document id and location', $) ;
#279 = APPLICATION_PROTOCOL_DEFINITION ( 'draft international standard', 'automotive_design', 1998, #40 ) ;
#280 = SHAPE_DEFINITION_REPRESENTATION ( #88, #112 ) ;
#281 = APPLICATION_PROTOCOL_DEFINITION ( 'draft international standard', 'automotive_design', 1998, #113 ) ;
#282 =( LENGTH_UNIT ( ) NAMED_UNIT ( * ) SI_UNIT ( .MILLI., .METRE. ) );
#283 = PRODUCT_DEFINITION_CONTEXT ( 'detailed design', #135, 'design' ) ;
#284 = APPLICATION_CONTEXT ( 'automotive_design' ) ;
#285 = ROLE_ASSOCIATION ( #21, #106 ) ;
#286 = PRODUCT_DEFINITION ( 'General', '', #156, #26 ) ;
#287 = SHAPE_DEFINITION_REPRESENTATION ( #205, #225 ) ;
#288 = DIRECTION ( 'NONE',  ( 0.000000000000000000, 0.000000000000000000, 1.000000000000000000 ) ) ;
#289 = PRODUCT_DEFINITION_SHAPE ( 'NONE', 'NONE',  #92 ) ;
#290 = ROLE_ASSOCIATION ( #296, #184 ) ;
#291 = CONTEXT_DEPENDENT_SHAPE_REPRESENTATION ( #251, #183 ) ;
#292 = PROPERTY_DEFINITION ('document property','', #65 ) ;
#293 =( LENGTH_UNIT ( ) NAMED_UNIT ( * ) SI_UNIT ( .MILLI., .METRE. ) );
#294 = PRODUCT ( 'Back plate', 'Back plate', '', ( #126 ) ) ;
#295 = AXIS2_PLACEMENT_3D ( 'NONE', #202, #122, #76 ) ;
#296 = OBJECT_ROLE ('mandatory',$ ) ;
#297 = PRODUCT_RELATED_PRODUCT_CATEGORY ( 'part', '', ( #57 ) ) ;
#298 = PRODUCT_DEFINITION_SHAPE ( 'NONE', 'NONE',  #211 ) ;
#299 =( LENGTH_UNIT ( ) NAMED_UNIT ( * ) SI_UNIT ( .MILLI., .METRE. ) );
#300 = PROPERTY_DEFINITION_REPRESENTATION ( #292, #208 ) ;
#301 = PRODUCT_DEFINITION_FORMATION_WITH_SPECIFIED_SOURCE ( 'Symmetric', '', #60, .NOT_KNOWN. ) ;
#302 = PRODUCT_CONTEXT ( 'NONE', #197, 'mechanical' ) ;
#303 = IDENTIFICATION_ROLE ( 'external document id and location', $) ;
#304 = CARTESIAN_POINT ( 'NONE',  ( 30.65777768612322518, 24.15399614690585395, 32.37983869092618505 ) ) ;
#305 = PRODUCT_DEFINITION_FORMATION_WITH_SPECIFIED_SOURCE ( 'Symmetric', '', #294, .NOT_KNOWN. ) ;
#306 = APPLICATION_PROTOCOL_DEFINITION ( 'draft international standard', 'automotive_design', 1998, #18 ) ;
#307 = APPLICATION_CONTEXT ( 'automotive_design' ) ;
#308 = SHAPE_DEFINITION_REPRESENTATION ( #217, #198 ) ;
#309 = ITEM_DEFINED_TRANSFORMATION ( 'NONE', 'NONE', #172,  #7 ) ;
#310 = PROPERTY_DEFINITION ('external definition','', #210 ) ;
#311 = PROPERTY_DEFINITION_REPRESENTATION ( #266, #5 ) ;
#312 = PROPERTY_DEFINITION_REPRESENTATION ( #46, #238 ) ;
#313 = PRODUCT_DEFINITION_SHAPE ( 'NONE', 'NONE',  #318 ) ;
#314 = PROPERTY_DEFINITION_REPRESENTATION ( #177, #142 ) ;
#315 =( NAMED_UNIT ( * ) SI_UNIT ( $, .STERADIAN. ) SOLID_ANGLE_UNIT ( ) );
#316 = DOCUMENT_TYPE ( 'geometry' ) ;
#317 = NEXT_ASSEMBLY_USAGE_OCCURRENCE ( 'NAUO10', ' ', ' ', #92, #41, $ ) ;
#318 = NEXT_ASSEMBLY_USAGE_OCCURRENCE ( 'NAUO11', ' ', ' ', #92, #151, $ ) ;
#319 = NEXT_ASSEMBLY_USAGE_OCCURRENCE ( 'NAUO12', ' ', ' ', #92, #140, $ ) ;
#320 = NEXT_ASSEMBLY_USAGE_OCCURRENCE ( 'NAUO13', ' ', ' ', #92, #19, $ ) ;
#321 = NEXT_ASSEMBLY_USAGE_OCCURRENCE ( 'NAUO14', ' ', ' ', #92, #159, $ ) ;
#322 = NEXT_ASSEMBLY_USAGE_OCCURRENCE ( 'NAUO15', ' ', ' ', #92, #286, $ ) ;
#323 = NEXT_ASSEMBLY_USAGE_OCCURRENCE ( 'NAUO16', ' ', ' ', #92, #211, $ ) ;
ENDSEC;
END-ISO-10303-21;
