ISO-10303-21;
HEADER;
FILE_DESCRIPTION (( 'STEP AP214' ),
    '1' );
FILE_NAME ('Low Tray.STEP',
    '2026-01-09T12:25:55',
    ( '' ),
    ( '' ),
    'SwSTEP 2.0',
    'SolidWorks 2024',
    '' );
FILE_SCHEMA (( 'AUTOMOTIVE_DESIGN' ));
ENDSEC;

DATA;
#1 = DIRECTION ( 'NONE',  ( 1.000000000000000000, 0.000000000000000000, 0.000000000000000000 ) ) ;
#2 = PRODUCT_CONTEXT ( 'NONE', #69, 'mechanical' ) ;
#3 = EXTERNAL_SOURCE (IDENTIFIER('') ) ;
#4 = UNCERTAINTY_MEASURE_WITH_UNIT (LENGTH_MEASURE( 1.000000000000000082E-05 ), #129, 'distance_accuracy_value', 'NONE');
#5 = ITEM_DEFINED_TRANSFORMATION ( 'NONE', 'NONE', #6,  #138 ) ;
#6 = AXIS2_PLACEMENT_3D ( 'NONE', #96, #142, #131 ) ;
#7 = DIRECTION ( 'NONE',  ( 0.000000000000000000, 0.000000000000000000, 1.000000000000000000 ) ) ;
#8 = APPLICATION_CONTEXT ( 'automotive_design' ) ;
#9 = PRODUCT_RELATED_PRODUCT_CATEGORY ( 'part', '', ( #45 ) ) ;
#10 = PROPERTY_DEFINITION ('external definition','', #65 ) ;
#11 = PROPERTY_DEFINITION ('document property','', #76 ) ;
#12 = SHAPE_REPRESENTATION ( 'VC Sensor D3 D4 V1.0', ( #114 ), #25 ) ;
#13 = EXTERNAL_SOURCE (IDENTIFIER('') ) ;
#14 = PRODUCT_DEFINITION ( 'General', '', #84, #136 ) ;
#15 = PRODUCT_DEFINITION_SHAPE ( 'NONE', 'NONE',  #58 ) ;
#16 =( NAMED_UNIT ( * ) SI_UNIT ( $, .STERADIAN. ) SOLID_ANGLE_UNIT ( ) );
#17 = APPLICATION_PROTOCOL_DEFINITION ( 'draft international standard', 'automotive_design', 1998, #146 ) ;
#18 = DIRECTION ( 'NONE',  ( 1.000000000000000000, 0.000000000000000000, 0.000000000000000000 ) ) ;
#19 = IDENTIFICATION_ROLE ( 'external document id and location', $) ;
#20 = APPLIED_EXTERNAL_IDENTIFICATION_ASSIGNMENT ( 'VC Sensor D3 D4 V1.0.STEP' , #19, #13,( #37) ) ;
#21 = PRODUCT_CONTEXT ( 'NONE', #43, 'mechanical' ) ;
#22 = DIRECTION ( 'NONE',  ( 1.000000000000000000, 0.000000000000000000, 0.000000000000000000 ) ) ;
#23 = PRODUCT_RELATED_PRODUCT_CATEGORY ( 'part', '', ( #124 ) ) ;
#24 = AXIS2_PLACEMENT_3D ( 'NONE', #113, #7, #22 ) ;
#25 =( GEOMETRIC_REPRESENTATION_CONTEXT ( 3 ) GLOBAL_UNCERTAINTY_ASSIGNED_CONTEXT ( ( #77 ) ) GLOBAL_UNIT_ASSIGNED_CONTEXT ( ( #127, #95, #36 ) ) REPRESENTATION_CONTEXT ( 'NONE', 'WORKASPACE' ) );
#26 = EXTERNAL_SOURCE (IDENTIFIER('') ) ;
#27 = PRODUCT_DEFINITION ( 'General', '', #126, #88 ) ;
#28 = CARTESIAN_POINT ( 'NONE',  ( 0.000000000000000000, 0.000000000000000000, 0.000000000000000000 ) ) ;
#29 =( LENGTH_UNIT ( ) NAMED_UNIT ( * ) SI_UNIT ( .MILLI., .METRE. ) );
#30 = CONTEXT_DEPENDENT_SHAPE_REPRESENTATION ( #92, #31 ) ;
#31 = PRODUCT_DEFINITION_SHAPE ( 'NONE', 'NONE',  #151 ) ;
#32 = AXIS2_PLACEMENT_3D ( 'NONE', #28, #60, #104 ) ;
#33 = DOCUMENT_TYPE ( 'geometry' ) ;
#34 = PROPERTY_DEFINITION ('document property','', #65 ) ;
#35 = APPLIED_EXTERNAL_IDENTIFICATION_ASSIGNMENT ( 'VC uP-PSU V1.0.STEP' , #144, #26,( #76) ) ;
#36 =( NAMED_UNIT ( * ) SI_UNIT ( $, .STERADIAN. ) SOLID_ANGLE_UNIT ( ) );
#37 = DOCUMENT_FILE ( 'VC Sensor D3 D4 V1.0.STEP' , '', '', #99, '' ,$ ) ;
#38 = SHAPE_DEFINITION_REPRESENTATION ( #68, #12 ) ;
#39 = PROPERTY_DEFINITION_REPRESENTATION ( #102, #12 ) ;
#40 = ITEM_DEFINED_TRANSFORMATION ( 'NONE', 'NONE', #82,  #114 ) ;
#41 = APPLIED_EXTERNAL_IDENTIFICATION_ASSIGNMENT ( 'Low Tray.STEP' , #79, #3,( #65) ) ;
#42 = PROPERTY_DEFINITION ('document property','', #37 ) ;
#43 = APPLICATION_CONTEXT ( 'automotive_design' ) ;
#44 = SHAPE_REPRESENTATION ( 'VC uP-PSU V1.0', ( #32 ), #67 ) ;
#45 = PRODUCT ( 'Low Tray', 'Low Tray', '', ( #21 ) ) ;
#46 =( NAMED_UNIT ( * ) PLANE_ANGLE_UNIT ( ) SI_UNIT ( $, .RADIAN. ) );
#47 =( NAMED_UNIT ( * ) PLANE_ANGLE_UNIT ( ) SI_UNIT ( $, .RADIAN. ) );
#48 = CONTEXT_DEPENDENT_SHAPE_REPRESENTATION ( #137, #55 ) ;
#49 = OBJECT_ROLE ('mandatory',$ ) ;
#50 =( NAMED_UNIT ( * ) PLANE_ANGLE_UNIT ( ) SI_UNIT ( $, .RADIAN. ) );
#51 = APPLICATION_PROTOCOL_DEFINITION ( 'draft international standard', 'automotive_design', 1998, #8 ) ;
#52 = APPLICATION_PROTOCOL_DEFINITION ( 'draft international standard', 'automotive_design', 1998, #122 ) ;
#53 = PROPERTY_DEFINITION_REPRESENTATION ( #11, #44 ) ;
#54 = PRODUCT ( 'Low Tray', 'Low Tray', '', ( #59 ) ) ;
#55 = PRODUCT_DEFINITION_SHAPE ( 'NONE', 'NONE',  #149 ) ;
#56 = DIRECTION ( 'NONE',  ( 1.000000000000000000, 0.000000000000000000, 0.000000000000000000 ) ) ;
#57 = APPLICATION_CONTEXT ( 'automotive_design' ) ;
#58 = PRODUCT_DEFINITION ( 'General', '', #106, #61 ) ;
#59 = PRODUCT_CONTEXT ( 'NONE', #146, 'mechanical' ) ;
#60 = DIRECTION ( 'NONE',  ( 0.000000000000000000, 0.000000000000000000, 1.000000000000000000 ) ) ;
#61 = PRODUCT_DEFINITION_CONTEXT ( 'detailed design', #130, 'design' ) ;
#62 =( NAMED_UNIT ( * ) SI_UNIT ( $, .STERADIAN. ) SOLID_ANGLE_UNIT ( ) );
#63 = PROPERTY_DEFINITION_REPRESENTATION ( #10, #83 ) ;
#64 = PROPERTY_DEFINITION_REPRESENTATION ( #42, #12 ) ;
#65 = DOCUMENT_FILE ( 'Low Tray.STEP' , '', '', #33, '' ,$ ) ;
#66 = APPLICATION_CONTEXT ( 'automotive_design' ) ;
#67 =( GEOMETRIC_REPRESENTATION_CONTEXT ( 3 ) GLOBAL_UNCERTAINTY_ASSIGNED_CONTEXT ( ( #4 ) ) GLOBAL_UNIT_ASSIGNED_CONTEXT ( ( #129, #47, #148 ) ) REPRESENTATION_CONTEXT ( 'NONE', 'WORKASPACE' ) );
#68 = PRODUCT_DEFINITION_SHAPE ( 'NONE', 'NONE',  #14 ) ;
#69 = APPLICATION_CONTEXT ( 'automotive_design' ) ;
#70 = PRODUCT_DEFINITION ( 'General', '', #100, #117 ) ;
#71 = AXIS2_PLACEMENT_3D ( 'NONE', #105, #125, #78 ) ;
#72 = CARTESIAN_POINT ( 'NONE',  ( 2.001900022091579245, 33.98490536577990895, 53.18738145324142863 ) ) ;
#73 = PRODUCT_CONTEXT ( 'NONE', #66, 'mechanical' ) ;
#74 =( LENGTH_UNIT ( ) NAMED_UNIT ( * ) SI_UNIT ( .MILLI., .METRE. ) );
#75 = APPLICATION_PROTOCOL_DEFINITION ( 'draft international standard', 'automotive_design', 1998, #66 ) ;
#76 = DOCUMENT_FILE ( 'VC uP-PSU V1.0.STEP' , '', '', #87, '' ,$ ) ;
#77 = UNCERTAINTY_MEASURE_WITH_UNIT (LENGTH_MEASURE( 1.000000000000000082E-05 ), #127, 'distance_accuracy_value', 'NONE');
#78 = DIRECTION ( 'NONE',  ( 1.000000000000000000, 0.000000000000000000, 0.000000000000000000 ) ) ;
#79 = IDENTIFICATION_ROLE ( 'external document id and location', $) ;
#80 = PRODUCT_DEFINITION_SHAPE ( 'NONE', 'NONE',  #27 ) ;
#81 = PRODUCT_DEFINITION_SHAPE ( 'NONE', 'NONE',  #150 ) ;
#82 = AXIS2_PLACEMENT_3D ( 'NONE', #72, #115, #18 ) ;
#83 = SHAPE_REPRESENTATION ( 'Low Tray', ( #138 ), #112 ) ;
#84 = PRODUCT_DEFINITION_FORMATION_WITH_SPECIFIED_SOURCE ( 'Symmetric', '', #93, .NOT_KNOWN. ) ;
#85 = UNCERTAINTY_MEASURE_WITH_UNIT (LENGTH_MEASURE( 1.000000000000000082E-05 ), #29, 'distance_accuracy_value', 'NONE');
#86 = APPLICATION_PROTOCOL_DEFINITION ( 'draft international standard', 'automotive_design', 1998, #130 ) ;
#87 = DOCUMENT_TYPE ( 'geometry' ) ;
#88 = PRODUCT_DEFINITION_CONTEXT ( 'detailed design', #122, 'design' ) ;
#89 =( GEOMETRIC_REPRESENTATION_CONTEXT ( 3 ) GLOBAL_UNCERTAINTY_ASSIGNED_CONTEXT ( ( #85 ) ) GLOBAL_UNIT_ASSIGNED_CONTEXT ( ( #29, #50, #62 ) ) REPRESENTATION_CONTEXT ( 'NONE', 'WORKASPACE' ) );
#90 = ITEM_DEFINED_TRANSFORMATION ( 'NONE', 'NONE', #71,  #32 ) ;
#91 = OBJECT_ROLE ('mandatory',$ ) ;
#92 =( REPRESENTATION_RELATIONSHIP ('NONE','NONE', #123, #44 ) REPRESENTATION_RELATIONSHIP_WITH_TRANSFORMATION ( #90 )SHAPE_REPRESENTATION_RELATIONSHIP( ) );
#93 = PRODUCT ( 'VC Sensor D3 D4 V1.0', 'VC Sensor D3 D4 V1.0', '', ( #73 ) ) ;
#94 = PRODUCT_RELATED_PRODUCT_CATEGORY ( 'part', '', ( #93 ) ) ;
#95 =( NAMED_UNIT ( * ) PLANE_ANGLE_UNIT ( ) SI_UNIT ( $, .RADIAN. ) );
#96 = CARTESIAN_POINT ( 'NONE',  ( 2.001900022091569031, 36.96753576578046818, 53.18738145324106625 ) ) ;
#97 = ROLE_ASSOCIATION ( #91, #132 ) ;
#98 = SHAPE_DEFINITION_REPRESENTATION ( #15, #123 ) ;
#99 = DOCUMENT_TYPE ( 'geometry' ) ;
#100 = PRODUCT_DEFINITION_FORMATION_WITH_SPECIFIED_SOURCE ( 'Symmetric', '', #45, .NOT_KNOWN. ) ;
#101 = DIRECTION ( 'NONE',  ( 0.000000000000000000, 0.000000000000000000, 1.000000000000000000 ) ) ;
#102 = PROPERTY_DEFINITION ('external definition','', #37 ) ;
#103 = DIRECTION ( 'NONE',  ( 0.000000000000000000, 0.000000000000000000, 1.000000000000000000 ) ) ;
#104 = DIRECTION ( 'NONE',  ( 1.000000000000000000, 0.000000000000000000, 0.000000000000000000 ) ) ;
#105 = CARTESIAN_POINT ( 'NONE',  ( 2.001900022091582798, 23.96753576577992106, 53.18738145324131494 ) ) ;
#106 = PRODUCT_DEFINITION_FORMATION_WITH_SPECIFIED_SOURCE ( 'Symmetric', '', #54, .NOT_KNOWN. ) ;
#107 = ROLE_ASSOCIATION ( #110, #145 ) ;
#108 = SHAPE_DEFINITION_REPRESENTATION ( #80, #44 ) ;
#109 = PROPERTY_DEFINITION_REPRESENTATION ( #135, #44 ) ;
#110 = OBJECT_ROLE ('mandatory',$ ) ;
#111 = PRODUCT_DEFINITION_SHAPE ( 'NONE', 'NONE',  #70 ) ;
#112 =( GEOMETRIC_REPRESENTATION_CONTEXT ( 3 ) GLOBAL_UNCERTAINTY_ASSIGNED_CONTEXT ( ( #119 ) ) GLOBAL_UNIT_ASSIGNED_CONTEXT ( ( #74, #46, #16 ) ) REPRESENTATION_CONTEXT ( 'NONE', 'WORKASPACE' ) );
#113 = CARTESIAN_POINT ( 'NONE',  ( 0.000000000000000000, 0.000000000000000000, 0.000000000000000000 ) ) ;
#114 = AXIS2_PLACEMENT_3D ( 'NONE', #140, #103, #1 ) ;
#115 = DIRECTION ( 'NONE',  ( 0.000000000000000000, 1.000000000000000000, 1.047444401652940007E-14 ) ) ;
#116 = APPLICATION_PROTOCOL_DEFINITION ( 'draft international standard', 'automotive_design', 1998, #57 ) ;
#117 = PRODUCT_DEFINITION_CONTEXT ( 'detailed design', #8, 'design' ) ;
#118 = SHAPE_DEFINITION_REPRESENTATION ( #111, #83 ) ;
#119 = UNCERTAINTY_MEASURE_WITH_UNIT (LENGTH_MEASURE( 1.000000000000000082E-05 ), #74, 'distance_accuracy_value', 'NONE');
#120 = APPLIED_DOCUMENT_REFERENCE ( #76,'',( #27) ) ;
#121 = APPLICATION_PROTOCOL_DEFINITION ( 'draft international standard', 'automotive_design', 1998, #69 ) ;
#122 = APPLICATION_CONTEXT ( 'automotive_design' ) ;
#123 = SHAPE_REPRESENTATION ( 'Low Tray', ( #24, #6, #82, #71 ), #89 ) ;
#124 = PRODUCT ( 'VC uP-PSU V1.0', 'VC uP-PSU V1.0', '', ( #2 ) ) ;
#125 = DIRECTION ( 'NONE',  ( 0.000000000000000000, 1.000000000000000000, 1.047444401652940007E-14 ) ) ;
#126 = PRODUCT_DEFINITION_FORMATION_WITH_SPECIFIED_SOURCE ( 'Symmetric', '', #124, .NOT_KNOWN. ) ;
#127 =( LENGTH_UNIT ( ) NAMED_UNIT ( * ) SI_UNIT ( .MILLI., .METRE. ) );
#128 =( REPRESENTATION_RELATIONSHIP ('NONE','NONE', #123, #12 ) REPRESENTATION_RELATIONSHIP_WITH_TRANSFORMATION ( #40 )SHAPE_REPRESENTATION_RELATIONSHIP( ) );
#129 =( LENGTH_UNIT ( ) NAMED_UNIT ( * ) SI_UNIT ( .MILLI., .METRE. ) );
#130 = APPLICATION_CONTEXT ( 'automotive_design' ) ;
#131 = DIRECTION ( 'NONE',  ( 1.000000000000000000, 0.000000000000000000, 0.000000000000000000 ) ) ;
#132 = APPLIED_DOCUMENT_REFERENCE ( #65,'',( #70) ) ;
#133 = PROPERTY_DEFINITION_REPRESENTATION ( #34, #83 ) ;
#134 = ROLE_ASSOCIATION ( #49, #120 ) ;
#135 = PROPERTY_DEFINITION ('external definition','', #76 ) ;
#136 = PRODUCT_DEFINITION_CONTEXT ( 'detailed design', #57, 'design' ) ;
#137 =( REPRESENTATION_RELATIONSHIP ('NONE','NONE', #123, #83 ) REPRESENTATION_RELATIONSHIP_WITH_TRANSFORMATION ( #5 )SHAPE_REPRESENTATION_RELATIONSHIP( ) );
#138 = AXIS2_PLACEMENT_3D ( 'NONE', #139, #101, #56 ) ;
#139 = CARTESIAN_POINT ( 'NONE',  ( 0.000000000000000000, 0.000000000000000000, 0.000000000000000000 ) ) ;
#140 = CARTESIAN_POINT ( 'NONE',  ( 0.000000000000000000, 0.000000000000000000, 0.000000000000000000 ) ) ;
#141 = PRODUCT_RELATED_PRODUCT_CATEGORY ( 'part', '', ( #54 ) ) ;
#142 = DIRECTION ( 'NONE',  ( 0.000000000000000000, 0.000000000000000000, 1.000000000000000000 ) ) ;
#143 = CONTEXT_DEPENDENT_SHAPE_REPRESENTATION ( #128, #81 ) ;
#144 = IDENTIFICATION_ROLE ( 'external document id and location', $) ;
#145 = APPLIED_DOCUMENT_REFERENCE ( #37,'',( #14) ) ;
#146 = APPLICATION_CONTEXT ( 'automotive_design' ) ;
#147 = APPLICATION_PROTOCOL_DEFINITION ( 'draft international standard', 'automotive_design', 1998, #43 ) ;
#148 =( NAMED_UNIT ( * ) SI_UNIT ( $, .STERADIAN. ) SOLID_ANGLE_UNIT ( ) );
#149 = NEXT_ASSEMBLY_USAGE_OCCURRENCE ( 'NAUO7', ' ', ' ', #58, #70, $ ) ;
#150 = NEXT_ASSEMBLY_USAGE_OCCURRENCE ( 'NAUO8', ' ', ' ', #58, #14, $ ) ;
#151 = NEXT_ASSEMBLY_USAGE_OCCURRENCE ( 'NAUO9', ' ', ' ', #58, #27, $ ) ;
ENDSEC;
END-ISO-10303-21;
