ISO-10303-21;
HEADER;
FILE_DESCRIPTION (( 'STEP AP214' ),
    '1' );
FILE_NAME ('Top Tray.STEP',
    '2026-01-09T12:25:54',
    ( '' ),
    ( '' ),
    'SwSTEP 2.0',
    'SolidWorks 2024',
    '' );
FILE_SCHEMA (( 'AUTOMOTIVE_DESIGN' ));
ENDSEC;

DATA;
#1 = UNCERTAINTY_MEASURE_WITH_UNIT (LENGTH_MEASURE( 1.000000000000000082E-05 ), #56, 'distance_accuracy_value', 'NONE');
#2 = EXTERNAL_SOURCE (IDENTIFIER('') ) ;
#3 = PRODUCT_DEFINITION ( 'General', '', #67, #133 ) ;
#4 = PRODUCT_DEFINITION_CONTEXT ( 'detailed design', #119, 'design' ) ;
#5 = DOCUMENT_TYPE ( 'geometry' ) ;
#6 = CARTESIAN_POINT ( 'NONE',  ( 20.95407584987000504, 18.28762530605242986, 40.93095669926168512 ) ) ;
#7 = DIRECTION ( 'NONE',  ( 1.000000000000000000, 6.982962677686286432E-15, 1.415534356397074589E-14 ) ) ;
#8 = PROPERTY_DEFINITION ('document property','', #88 ) ;
#9 = ITEM_DEFINED_TRANSFORMATION ( 'NONE', 'NONE', #55,  #130 ) ;
#10 = SHAPE_REPRESENTATION ( 'VC RATiD V1.0', ( #33 ), #131 ) ;
#11 = SHAPE_DEFINITION_REPRESENTATION ( #112, #10 ) ;
#12 = SHAPE_DEFINITION_REPRESENTATION ( #13, #145 ) ;
#13 = PRODUCT_DEFINITION_SHAPE ( 'NONE', 'NONE',  #71 ) ;
#14 =( NAMED_UNIT ( * ) SI_UNIT ( $, .STERADIAN. ) SOLID_ANGLE_UNIT ( ) );
#15 = PRODUCT_DEFINITION_FORMATION_WITH_SPECIFIED_SOURCE ( 'Symmetric', '', #45, .NOT_KNOWN. ) ;
#16 =( LENGTH_UNIT ( ) NAMED_UNIT ( * ) SI_UNIT ( .MILLI., .METRE. ) );
#17 =( NAMED_UNIT ( * ) SI_UNIT ( $, .STERADIAN. ) SOLID_ANGLE_UNIT ( ) );
#18 =( NAMED_UNIT ( * ) SI_UNIT ( $, .STERADIAN. ) SOLID_ANGLE_UNIT ( ) );
#19 = DIRECTION ( 'NONE',  ( 0.000000000000000000, 0.000000000000000000, 1.000000000000000000 ) ) ;
#20 = DIRECTION ( 'NONE',  ( 0.000000000000000000, 0.000000000000000000, 1.000000000000000000 ) ) ;
#21 = OBJECT_ROLE ('mandatory',$ ) ;
#22 = DIRECTION ( 'NONE',  ( 1.000000000000000000, 6.982962677686236734E-15, 1.421085471520200056E-14 ) ) ;
#23 = ROLE_ASSOCIATION ( #42, #127 ) ;
#24 = PROPERTY_DEFINITION ('document property','', #72 ) ;
#25 = PRODUCT_CONTEXT ( 'NONE', #97, 'mechanical' ) ;
#26 = PROPERTY_DEFINITION_REPRESENTATION ( #62, #10 ) ;
#27 =( REPRESENTATION_RELATIONSHIP ('NONE','NONE', #86, #145 ) REPRESENTATION_RELATIONSHIP_WITH_TRANSFORMATION ( #118 )SHAPE_REPRESENTATION_RELATIONSHIP( ) );
#28 = DIRECTION ( 'NONE',  ( 1.000000000000000000, 0.000000000000000000, 0.000000000000000000 ) ) ;
#29 = PRODUCT_DEFINITION_FORMATION_WITH_SPECIFIED_SOURCE ( 'Symmetric', '', #140, .NOT_KNOWN. ) ;
#30 = CARTESIAN_POINT ( 'NONE',  ( 0.000000000000000000, 0.000000000000000000, 0.000000000000000000 ) ) ;
#31 = PRODUCT_RELATED_PRODUCT_CATEGORY ( 'part', '', ( #140 ) ) ;
#32 =( GEOMETRIC_REPRESENTATION_CONTEXT ( 3 ) GLOBAL_UNCERTAINTY_ASSIGNED_CONTEXT ( ( #122 ) ) GLOBAL_UNIT_ASSIGNED_CONTEXT ( ( #75, #103, #14 ) ) REPRESENTATION_CONTEXT ( 'NONE', 'WORKASPACE' ) );
#33 = AXIS2_PLACEMENT_3D ( 'NONE', #69, #20, #66 ) ;
#34 = DIRECTION ( 'NONE',  ( 1.000000000000000000, 0.000000000000000000, 0.000000000000000000 ) ) ;
#35 = DIRECTION ( 'NONE',  ( -6.982962677686258822E-15, 1.000000000000000000, -2.025988376557846616E-29 ) ) ;
#36 = PRODUCT_CONTEXT ( 'NONE', #143, 'mechanical' ) ;
#37 =( REPRESENTATION_RELATIONSHIP ('NONE','NONE', #86, #10 ) REPRESENTATION_RELATIONSHIP_WITH_TRANSFORMATION ( #39 )SHAPE_REPRESENTATION_RELATIONSHIP( ) );
#38 = PRODUCT_DEFINITION_SHAPE ( 'NONE', 'NONE',  #150 ) ;
#39 = ITEM_DEFINED_TRANSFORMATION ( 'NONE', 'NONE', #99,  #33 ) ;
#40 = ROLE_ASSOCIATION ( #21, #83 ) ;
#41 = PRODUCT_RELATED_PRODUCT_CATEGORY ( 'part', '', ( #84 ) ) ;
#42 = OBJECT_ROLE ('mandatory',$ ) ;
#43 = DIRECTION ( 'NONE',  ( -6.982962677686236734E-15, 1.000000000000000000, -7.923218314944950523E-30 ) ) ;
#44 = DOCUMENT_TYPE ( 'geometry' ) ;
#45 = PRODUCT ( 'Top Tray', 'Top Tray', '', ( #148 ) ) ;
#46 = CONTEXT_DEPENDENT_SHAPE_REPRESENTATION ( #107, #38 ) ;
#47 = PROPERTY_DEFINITION ('external definition','', #81 ) ;
#48 = PRODUCT_DEFINITION_CONTEXT ( 'detailed design', #124, 'design' ) ;
#49 = APPLICATION_PROTOCOL_DEFINITION ( 'draft international standard', 'automotive_design', 1998, #119 ) ;
#50 = PRODUCT_DEFINITION ( 'General', '', #29, #4 ) ;
#51 = CARTESIAN_POINT ( 'NONE',  ( 0.000000000000000000, 0.000000000000000000, 0.000000000000000000 ) ) ;
#52 =( NAMED_UNIT ( * ) PLANE_ANGLE_UNIT ( ) SI_UNIT ( $, .RADIAN. ) );
#53 = EXTERNAL_SOURCE (IDENTIFIER('') ) ;
#54 = PRODUCT_DEFINITION ( 'General', '', #15, #48 ) ;
#55 = AXIS2_PLACEMENT_3D ( 'NONE', #135, #35, #7 ) ;
#56 =( LENGTH_UNIT ( ) NAMED_UNIT ( * ) SI_UNIT ( .MILLI., .METRE. ) );
#57 = OBJECT_ROLE ('mandatory',$ ) ;
#58 = PROPERTY_DEFINITION_REPRESENTATION ( #8, #10 ) ;
#59 = DOCUMENT_TYPE ( 'geometry' ) ;
#60 = PROPERTY_DEFINITION ('external definition','', #72 ) ;
#61 = APPLICATION_PROTOCOL_DEFINITION ( 'draft international standard', 'automotive_design', 1998, #144 ) ;
#62 = PROPERTY_DEFINITION ('external definition','', #88 ) ;
#63 = APPLIED_DOCUMENT_REFERENCE ( #72,'',( #3) ) ;
#64 = PROPERTY_DEFINITION_REPRESENTATION ( #82, #145 ) ;
#65 =( GEOMETRIC_REPRESENTATION_CONTEXT ( 3 ) GLOBAL_UNCERTAINTY_ASSIGNED_CONTEXT ( ( #120 ) ) GLOBAL_UNIT_ASSIGNED_CONTEXT ( ( #16, #52, #17 ) ) REPRESENTATION_CONTEXT ( 'NONE', 'WORKASPACE' ) );
#66 = DIRECTION ( 'NONE',  ( 1.000000000000000000, 0.000000000000000000, 0.000000000000000000 ) ) ;
#67 = PRODUCT_DEFINITION_FORMATION_WITH_SPECIFIED_SOURCE ( 'Symmetric', '', #89, .NOT_KNOWN. ) ;
#68 = CARTESIAN_POINT ( 'NONE',  ( 20.95407584986983096, 43.17146770605242523, 40.93095669926168512 ) ) ;
#69 = CARTESIAN_POINT ( 'NONE',  ( 0.000000000000000000, 0.000000000000000000, 0.000000000000000000 ) ) ;
#70 = PRODUCT_DEFINITION_SHAPE ( 'NONE', 'NONE',  #151 ) ;
#71 = PRODUCT_DEFINITION ( 'General', '', #110, #117 ) ;
#72 = DOCUMENT_FILE ( 'VC Sensor V1.0.STEP' , '', '', #59, '' ,$ ) ;
#73 = APPLIED_EXTERNAL_IDENTIFICATION_ASSIGNMENT ( 'Top Tray.STEP' , #78, #53,( #81) ) ;
#74 = SHAPE_REPRESENTATION ( 'VC Sensor V1.0', ( #130 ), #114 ) ;
#75 =( LENGTH_UNIT ( ) NAMED_UNIT ( * ) SI_UNIT ( .MILLI., .METRE. ) );
#76 = SHAPE_DEFINITION_REPRESENTATION ( #128, #86 ) ;
#77 = AXIS2_PLACEMENT_3D ( 'NONE', #51, #141, #28 ) ;
#78 = IDENTIFICATION_ROLE ( 'external document id and location', $) ;
#79 = APPLIED_EXTERNAL_IDENTIFICATION_ASSIGNMENT ( 'VC Sensor V1.0.STEP' , #95, #87,( #72) ) ;
#80 = DIRECTION ( 'NONE',  ( -1.396592535537253342E-14, -9.752353551591871586E-29, 1.000000000000000000 ) ) ;
#81 = DOCUMENT_FILE ( 'Top Tray.STEP' , '', '', #44, '' ,$ ) ;
#82 = PROPERTY_DEFINITION ('document property','', #81 ) ;
#83 = APPLIED_DOCUMENT_REFERENCE ( #88,'',( #50) ) ;
#84 = PRODUCT ( 'Top Tray', 'Top Tray', '', ( #36 ) ) ;
#85 = PROPERTY_DEFINITION_REPRESENTATION ( #60, #74 ) ;
#86 = SHAPE_REPRESENTATION ( 'Top Tray', ( #77, #123, #55, #99 ), #32 ) ;
#87 = EXTERNAL_SOURCE (IDENTIFIER('') ) ;
#88 = DOCUMENT_FILE ( 'VC RATiD V1.0.STEP' , '', '', #5, '' ,$ ) ;
#89 = PRODUCT ( 'VC Sensor V1.0', 'VC Sensor V1.0', '', ( #100 ) ) ;
#90 = APPLICATION_PROTOCOL_DEFINITION ( 'draft international standard', 'automotive_design', 1998, #132 ) ;
#91 = PROPERTY_DEFINITION_REPRESENTATION ( #47, #145 ) ;
#92 = APPLICATION_PROTOCOL_DEFINITION ( 'draft international standard', 'automotive_design', 1998, #121 ) ;
#93 = CONTEXT_DEPENDENT_SHAPE_REPRESENTATION ( #37, #70 ) ;
#94 = PRODUCT_RELATED_PRODUCT_CATEGORY ( 'part', '', ( #45 ) ) ;
#95 = IDENTIFICATION_ROLE ( 'external document id and location', $) ;
#96 = UNCERTAINTY_MEASURE_WITH_UNIT (LENGTH_MEASURE( 1.000000000000000082E-05 ), #137, 'distance_accuracy_value', 'NONE');
#97 = APPLICATION_CONTEXT ( 'automotive_design' ) ;
#98 = DIRECTION ( 'NONE',  ( -1.000000000000000000, -6.982962677686266711E-15, -1.396592535537253342E-14 ) ) ;
#99 = AXIS2_PLACEMENT_3D ( 'NONE', #68, #43, #22 ) ;
#100 = PRODUCT_CONTEXT ( 'NONE', #121, 'mechanical' ) ;
#101 = PRODUCT_DEFINITION_SHAPE ( 'NONE', 'NONE',  #3 ) ;
#102 = APPLICATION_CONTEXT ( 'automotive_design' ) ;
#103 =( NAMED_UNIT ( * ) PLANE_ANGLE_UNIT ( ) SI_UNIT ( $, .RADIAN. ) );
#104 = CONTEXT_DEPENDENT_SHAPE_REPRESENTATION ( #27, #116 ) ;
#105 = SHAPE_DEFINITION_REPRESENTATION ( #101, #74 ) ;
#106 = ROLE_ASSOCIATION ( #57, #63 ) ;
#107 =( REPRESENTATION_RELATIONSHIP ('NONE','NONE', #86, #74 ) REPRESENTATION_RELATIONSHIP_WITH_TRANSFORMATION ( #9 )SHAPE_REPRESENTATION_RELATIONSHIP( ) );
#108 = APPLIED_EXTERNAL_IDENTIFICATION_ASSIGNMENT ( 'VC RATiD V1.0.STEP' , #113, #2,( #88) ) ;
#109 =( NAMED_UNIT ( * ) PLANE_ANGLE_UNIT ( ) SI_UNIT ( $, .RADIAN. ) );
#110 = PRODUCT_DEFINITION_FORMATION_WITH_SPECIFIED_SOURCE ( 'Symmetric', '', #84, .NOT_KNOWN. ) ;
#111 =( NAMED_UNIT ( * ) PLANE_ANGLE_UNIT ( ) SI_UNIT ( $, .RADIAN. ) );
#112 = PRODUCT_DEFINITION_SHAPE ( 'NONE', 'NONE',  #50 ) ;
#113 = IDENTIFICATION_ROLE ( 'external document id and location', $) ;
#114 =( GEOMETRIC_REPRESENTATION_CONTEXT ( 3 ) GLOBAL_UNCERTAINTY_ASSIGNED_CONTEXT ( ( #96 ) ) GLOBAL_UNIT_ASSIGNED_CONTEXT ( ( #137, #111, #125 ) ) REPRESENTATION_CONTEXT ( 'NONE', 'WORKASPACE' ) );
#115 = APPLICATION_PROTOCOL_DEFINITION ( 'draft international standard', 'automotive_design', 1998, #143 ) ;
#116 = PRODUCT_DEFINITION_SHAPE ( 'NONE', 'NONE',  #149 ) ;
#117 = PRODUCT_DEFINITION_CONTEXT ( 'detailed design', #132, 'design' ) ;
#118 = ITEM_DEFINED_TRANSFORMATION ( 'NONE', 'NONE', #123,  #146 ) ;
#119 = APPLICATION_CONTEXT ( 'automotive_design' ) ;
#120 = UNCERTAINTY_MEASURE_WITH_UNIT (LENGTH_MEASURE( 1.000000000000000082E-05 ), #16, 'distance_accuracy_value', 'NONE');
#121 = APPLICATION_CONTEXT ( 'automotive_design' ) ;
#122 = UNCERTAINTY_MEASURE_WITH_UNIT (LENGTH_MEASURE( 1.000000000000000082E-05 ), #75, 'distance_accuracy_value', 'NONE');
#123 = AXIS2_PLACEMENT_3D ( 'NONE', #6, #80, #98 ) ;
#124 = APPLICATION_CONTEXT ( 'automotive_design' ) ;
#125 =( NAMED_UNIT ( * ) SI_UNIT ( $, .STERADIAN. ) SOLID_ANGLE_UNIT ( ) );
#126 = PRODUCT_RELATED_PRODUCT_CATEGORY ( 'part', '', ( #89 ) ) ;
#127 = APPLIED_DOCUMENT_REFERENCE ( #81,'',( #71) ) ;
#128 = PRODUCT_DEFINITION_SHAPE ( 'NONE', 'NONE',  #54 ) ;
#129 = APPLICATION_PROTOCOL_DEFINITION ( 'draft international standard', 'automotive_design', 1998, #97 ) ;
#130 = AXIS2_PLACEMENT_3D ( 'NONE', #136, #19, #34 ) ;
#131 =( GEOMETRIC_REPRESENTATION_CONTEXT ( 3 ) GLOBAL_UNCERTAINTY_ASSIGNED_CONTEXT ( ( #1 ) ) GLOBAL_UNIT_ASSIGNED_CONTEXT ( ( #56, #109, #18 ) ) REPRESENTATION_CONTEXT ( 'NONE', 'WORKASPACE' ) );
#132 = APPLICATION_CONTEXT ( 'automotive_design' ) ;
#133 = PRODUCT_DEFINITION_CONTEXT ( 'detailed design', #144, 'design' ) ;
#134 = APPLICATION_PROTOCOL_DEFINITION ( 'draft international standard', 'automotive_design', 1998, #102 ) ;
#135 = CARTESIAN_POINT ( 'NONE',  ( 20.95407584986988425, 34.28762530605241921, 40.93095669926168512 ) ) ;
#136 = CARTESIAN_POINT ( 'NONE',  ( 0.000000000000000000, 0.000000000000000000, 0.000000000000000000 ) ) ;
#137 =( LENGTH_UNIT ( ) NAMED_UNIT ( * ) SI_UNIT ( .MILLI., .METRE. ) );
#138 = PROPERTY_DEFINITION_REPRESENTATION ( #24, #74 ) ;
#139 = DIRECTION ( 'NONE',  ( 1.000000000000000000, 0.000000000000000000, 0.000000000000000000 ) ) ;
#140 = PRODUCT ( 'VC RATiD V1.0', 'VC RATiD V1.0', '', ( #25 ) ) ;
#141 = DIRECTION ( 'NONE',  ( 0.000000000000000000, 0.000000000000000000, 1.000000000000000000 ) ) ;
#142 = DIRECTION ( 'NONE',  ( 0.000000000000000000, 0.000000000000000000, 1.000000000000000000 ) ) ;
#143 = APPLICATION_CONTEXT ( 'automotive_design' ) ;
#144 = APPLICATION_CONTEXT ( 'automotive_design' ) ;
#145 = SHAPE_REPRESENTATION ( 'Top Tray', ( #146 ), #65 ) ;
#146 = AXIS2_PLACEMENT_3D ( 'NONE', #30, #142, #139 ) ;
#147 = APPLICATION_PROTOCOL_DEFINITION ( 'draft international standard', 'automotive_design', 1998, #124 ) ;
#148 = PRODUCT_CONTEXT ( 'NONE', #102, 'mechanical' ) ;
#149 = NEXT_ASSEMBLY_USAGE_OCCURRENCE ( 'NAUO4', ' ', ' ', #54, #71, $ ) ;
#150 = NEXT_ASSEMBLY_USAGE_OCCURRENCE ( 'NAUO5', ' ', ' ', #54, #3, $ ) ;
#151 = NEXT_ASSEMBLY_USAGE_OCCURRENCE ( 'NAUO6', ' ', ' ', #54, #50, $ ) ;
ENDSEC;
END-ISO-10303-21;
